<?xml version="1.0" encoding="UTF-8" standalone="no"?>
<!-- Created with Inkscape (http://www.inkscape.org/) -->

<svg
   xmlns:dc="http://purl.org/dc/elements/1.1/"
   xmlns:cc="http://creativecommons.org/ns#"
   xmlns:rdf="http://www.w3.org/1999/02/22-rdf-syntax-ns#"
   xmlns:svg="http://www.w3.org/2000/svg"
   xmlns="http://www.w3.org/2000/svg"
   xmlns:sodipodi="http://sodipodi.sourceforge.net/DTD/sodipodi-0.dtd"
   xmlns:inkscape="http://www.inkscape.org/namespaces/inkscape"
   width="16"
   height="16"
   id="svg3765"
   version="1.1"
   inkscape:version="0.48.3.1 r9886"
   sodipodi:docname="rdfxml2.svg"
   inkscape:export-filename="/home/k00ni/Documents/semicon/owl.png"
   inkscape:export-xdpi="90"
   inkscape:export-ydpi="90">
  <defs
     id="defs3767" />
  <sodipodi:namedview
     id="base"
     pagecolor="#ffffff"
     bordercolor="#666666"
     borderopacity="1.0"
     inkscape:pageopacity="0.0"
     inkscape:pageshadow="2"
     inkscape:zoom="27.971601"
     inkscape:cx="8.0238423"
     inkscape:cy="11.873829"
     inkscape:current-layer="layer1-9-3"
     showgrid="true"
     inkscape:grid-bbox="true"
     inkscape:document-units="px"
     inkscape:window-width="1619"
     inkscape:window-height="946"
     inkscape:window-x="48"
     inkscape:window-y="50"
     inkscape:window-maximized="0"
     showguides="true"
     inkscape:guide-bbox="true" />
  <metadata
     id="metadata3770">
    <rdf:RDF>
      <cc:Work
         rdf:about="">
        <dc:format>image/svg+xml</dc:format>
        <dc:type
           rdf:resource="http://purl.org/dc/dcmitype/StillImage" />
        <dc:title />
      </cc:Work>
    </rdf:RDF>
  </metadata>
  <g
     id="layer1"
     inkscape:label="Layer 1"
     inkscape:groupmode="layer"
     transform="translate(0,-32)">
    <g
       inkscape:label="Layer 1"
       id="layer1-4"
       transform="translate(0.20202972,-1.9622142e-8)">
      <g
         transform="translate(-0.37059768,-0.09089584)"
         id="layer1-9"
         inkscape:label="Layer 1">
        <g
           inkscape:label="Layer 1"
           id="layer1-9-3"
           transform="translate(-44.951788,-4.1416259)">
          <g
             transform="matrix(0.65589507,-0.65589507,0.65589507,0.65589507,3.5678309,3.091873)"
             style="font-size:20.52570343px;font-style:normal;font-weight:normal;line-height:125%;letter-spacing:0px;word-spacing:0px;fill:#2d2d2d;fill-opacity:1;stroke:none;font-family:Sans"
             id="text2993-4-5">
            <path
               d="m -3.3037103,68.78342 2.95759955,-1.244943 0.26824736,0.832255 -2.15973551,0.839132 2.15973551,0.839133 -0.26824736,0.832255 -2.95759955,-1.244943 0,-0.852889"
               style="font-size:6.87813854px;font-variant:normal;font-weight:bold;font-stretch:normal;fill:#2d2d2d;font-family:Ubuntu;-inkscape-font-specification:Ubuntu Bold"
               id="path2988"
               inkscape:connector-curvature="0" />
            <path
               d="m 4.0104934,68.480603 c -0.091711,-0.02292 -0.1994685,-0.04585 -0.3232725,-0.06878 -0.1238087,-0.02751 -0.2567859,-0.04127 -0.398932,-0.04127 -0.064198,3e-6 -0.14215,0.0069 -0.2338567,0.02063 -0.087125,0.0092 -0.1536134,0.02064 -0.1994661,0.03439 l 0,2.765012 -1.0248426,0 0,-3.425313 c 0.1834164,-0.06419 0.3989311,-0.123803 0.646545,-0.178832 0.252197,-0.05961 0.5319077,-0.08941 0.8391329,-0.08942 0.055023,3e-6 0.1215117,0.0046 0.199466,0.01376 0.07795,0.0046 0.1559022,0.01376 0.2338567,0.02751 0.07795,0.0092 0.155902,0.02293 0.2338568,0.04127 0.07795,0.01376 0.1444381,0.0321 0.199466,0.05503 l -0.1719535,0.846011"
               style="font-size:6.87813854px;font-variant:normal;font-weight:bold;font-stretch:normal;fill:#2d2d2d;font-family:Ubuntu;-inkscape-font-specification:Ubuntu Bold"
               id="path2990"
               inkscape:connector-curvature="0" />
            <path
               d="m 5.5381927,69.354127 c -1.4e-6,0.316396 0.071073,0.570887 0.2132223,0.763473 0.1421465,0.192589 0.3530759,0.288883 0.6327887,0.288882 0.091706,10e-7 0.1765366,-0.0023 0.2544912,-0.0069 0.07795,-0.0092 0.1421456,-0.01834 0.1925878,-0.02751 l 0,-1.863975 C 6.7670842,68.46685 6.6822539,68.432459 6.5767916,68.404944 6.47591,68.377434 6.372738,68.363678 6.2672754,68.363675 c -0.4860567,3e-6 -0.7290841,0.330153 -0.7290827,0.990452 m 2.3179327,1.719535 c -0.091712,0.02751 -0.1971768,0.05503 -0.3163944,0.08254 -0.1192243,0.02293 -0.2453234,0.04356 -0.3782976,0.0619 -0.1283948,0.01834 -0.261372,0.0321 -0.398932,0.04127 -0.1329798,0.01376 -0.2613716,0.02063 -0.3851758,0.02063 -0.2980546,0 -0.564009,-0.04356 -0.7978641,-0.130685 C 5.3456037,71.062198 5.1484305,70.938392 4.9879416,70.777902 4.8274511,70.612827 4.7036447,70.415654 4.6165221,70.186382 4.5339841,69.952526 4.4927153,69.691157 4.4927156,69.402274 c -3e-7,-0.293465 0.036683,-0.557127 0.1100503,-0.790986 0.073366,-0.238439 0.178831,-0.440198 0.3163943,-0.605276 0.1375619,-0.165072 0.3049298,-0.291171 0.5021041,-0.378298 0.2017573,-0.08712 0.4310284,-0.130681 0.6878139,-0.130684 0.1421461,3e-6 0.2682452,0.01376 0.3782976,0.04127 0.1146332,0.02752 0.2292688,0.06649 0.3439069,0.116929 l 0,-1.636997 1.0248427,-0.165076 0,5.220508"
               style="font-size:6.87813854px;font-variant:normal;font-weight:bold;font-stretch:normal;fill:#2d2d2d;font-family:Ubuntu;-inkscape-font-specification:Ubuntu Bold"
               id="path2992"
               inkscape:connector-curvature="0" />
            <path
               d="m 10.383949,65.853154 c 0.192585,6e-6 0.369124,0.02064 0.529616,0.0619 0.160487,0.03669 0.284294,0.07337 0.37142,0.11005 l -0.199466,0.818498 c -0.09171,-0.04126 -0.192591,-0.07107 -0.302638,-0.08941 -0.105467,-0.02292 -0.204054,-0.03439 -0.29576,-0.03439 -0.123809,4e-6 -0.229274,0.01835 -0.316395,0.05503 -0.08254,0.0321 -0.149028,0.07796 -0.1994657,0.137563 -0.045856,0.05961 -0.080247,0.130689 -0.1031721,0.213222 -0.018343,0.08254 -0.027514,0.171957 -0.027513,0.268247 l 0,0.178832 1.2655778,0 0,0.852889 -1.2655778,0 0,2.765012 -1.0248427,0 0,-3.810489 c -5e-7,-0.467709 0.130684,-0.839128 0.3920539,-1.114258 0.2659536,-0.275121 0.6580071,-0.412683 1.1761626,-0.412689"
               style="font-size:6.87813854px;font-variant:normal;font-weight:bold;font-stretch:normal;fill:#2d2d2d;font-family:Ubuntu;-inkscape-font-specification:Ubuntu Bold"
               id="path2994"
               inkscape:connector-curvature="0" />
            <path
               d="m 16.138664,69.686868 -2.957599,1.244943 -0.268248,-0.832255 2.159736,-0.839133 -2.159736,-0.839132 0.268248,-0.832255 2.957599,1.244943 0,0.852889"
               style="font-size:6.87813854px;font-variant:normal;font-weight:bold;font-stretch:normal;fill:#2d2d2d;font-family:Ubuntu;-inkscape-font-specification:Ubuntu Bold"
               id="path2996"
               inkscape:connector-curvature="0" />
          </g>
        </g>
      </g>
    </g>
  </g>
</svg>
