<?xml version="1.0" encoding="UTF-8" standalone="no"?>
<!-- Created with Inkscape (http://www.inkscape.org/) -->

<svg
   xmlns:dc="http://purl.org/dc/elements/1.1/"
   xmlns:cc="http://creativecommons.org/ns#"
   xmlns:rdf="http://www.w3.org/1999/02/22-rdf-syntax-ns#"
   xmlns:svg="http://www.w3.org/2000/svg"
   xmlns="http://www.w3.org/2000/svg"
   xmlns:sodipodi="http://sodipodi.sourceforge.net/DTD/sodipodi-0.dtd"
   xmlns:inkscape="http://www.inkscape.org/namespaces/inkscape"
   width="16"
   height="16"
   id="svg3765"
   version="1.1"
   inkscape:version="0.48.3.1 r9886"
   sodipodi:docname="sioc.svg"
   inkscape:export-filename="/home/k00ni/Documents/semicon/owl.png"
   inkscape:export-xdpi="90"
   inkscape:export-ydpi="90">
  <defs
     id="defs3767" />
  <sodipodi:namedview
     id="base"
     pagecolor="#ffffff"
     bordercolor="#666666"
     borderopacity="1.0"
     inkscape:pageopacity="0.0"
     inkscape:pageshadow="2"
     inkscape:zoom="28"
     inkscape:cx="4.1160716"
     inkscape:cy="9.3451202"
     inkscape:current-layer="layer1-9-3"
     showgrid="true"
     inkscape:grid-bbox="true"
     inkscape:document-units="px"
     inkscape:window-width="1366"
     inkscape:window-height="719"
     inkscape:window-x="0"
     inkscape:window-y="25"
     inkscape:window-maximized="1"
     showguides="true"
     inkscape:guide-bbox="true" />
  <metadata
     id="metadata3770">
    <rdf:RDF>
      <cc:Work
         rdf:about="">
        <dc:format>image/svg+xml</dc:format>
        <dc:type
           rdf:resource="http://purl.org/dc/dcmitype/StillImage" />
        <dc:title />
      </cc:Work>
    </rdf:RDF>
  </metadata>
  <g
     id="layer1"
     inkscape:label="Layer 1"
     inkscape:groupmode="layer"
     transform="translate(0,-32)">
    <g
       inkscape:label="Layer 1"
       id="layer1-4"
       transform="translate(0.20202972,-1.9622142e-8)">
      <g
         transform="translate(-0.37059768,-0.09089584)"
         id="layer1-9"
         inkscape:label="Layer 1">
        <g
           inkscape:label="Layer 1"
           id="layer1-9-3"
           transform="translate(-44.951788,-4.1416259)">
          <g
             transform="matrix(0.66507016,-0.66507016,0.66507016,0.66507016,2.7711358,2.8916885)"
             style="font-size:21.40106964px;font-style:normal;font-weight:normal;line-height:125%;letter-spacing:0px;word-spacing:0px;fill:#2d2d2d;fill-opacity:1;stroke:none;font-family:Sans"
             id="text2993-4-6">
            <path
               d="m -0.40294125,70.397312 c 0.15777032,10e-7 0.28685671,-0.01195 0.38725955,-0.03586 0.10517918,-0.02869 0.18884628,-0.06454 0.25100155,-0.107573 0.0621501,-0.04781 0.10517894,-0.10279 0.12908652,-0.164943 0.0239022,-0.06215 0.0358546,-0.131476 0.0358574,-0.207973 -2.73e-6,-0.162552 -0.0764984,-0.296419 -0.22948713,-0.401603 -0.15299378,-0.10996 -0.41594753,-0.227094 -0.78886204,-0.351402 -0.16255494,-0.05737 -0.32510816,-0.121913 -0.4876602,-0.19363 -0.1625545,-0.07649 -0.3083743,-0.169722 -0.4374599,-0.279687 -0.1290871,-0.114741 -0.2342686,-0.250999 -0.3155448,-0.408774 -0.081277,-0.16255 -0.1219154,-0.35857 -0.121915,-0.588061 -4e-7,-0.229483 0.043028,-0.435065 0.1290865,-0.616747 0.086057,-0.186453 0.207972,-0.344226 0.3657451,-0.473317 0.1577714,-0.129081 0.3490105,-0.227091 0.57371791,-0.29403 0.22470451,-0.07171 0.4780963,-0.107567 0.76017614,-0.107572 0.33466623,5e-6 0.62391535,0.03586 0.86774824,0.107572 0.24382679,0.07172 0.44462781,0.150606 0.60240371,0.236658 l -0.32271627,0.882092 c -0.13865166,-0.07171 -0.29403342,-0.133864 -0.46614574,-0.186459 -0.16733707,-0.05737 -0.3705286,-0.08605 -0.60957521,-0.08606 -0.26773698,4e-6 -0.46136655,0.03825 -0.58088931,0.114743 -0.11474513,0.07172 -0.17211686,0.184072 -0.17211536,0.33706 -1.5e-6,0.09084 0.0215129,0.167337 0.0645433,0.229487 0.0430272,0.06216 0.10278945,0.119528 0.17928683,0.172115 0.0812749,0.04781 0.17211343,0.09323 0.27251597,0.136258 0.10517948,0.03825 0.21992294,0.07889 0.34423071,0.121915 0.25817041,0.09562 0.48287634,0.191242 0.67411846,0.286859 0.19123606,0.09084 0.34900832,0.198413 0.47331722,0.322716 0.1290829,0.124308 0.2247024,0.270128 0.2868589,0.43746 0.062149,0.167336 0.093225,0.370528 0.093229,0.609575 -3.9e-6,0.463756 -0.1625571,0.82472 -0.4876602,1.082893 -0.32510985,0.253392 -0.81516001,0.380088 -1.47015197,0.380088 -0.21992688,0 -0.41833743,-0.01434 -0.59523226,-0.04303 -0.17689747,-0.0239 -0.33466967,-0.05498 -0.47331717,-0.09323 -0.1338682,-0.03825 -0.2510022,-0.07889 -0.3514022,-0.121915 -0.09562,-0.04303 -0.1768967,-0.08367 -0.2438301,-0.121915 l 0.3155448,-0.889263 c 0.1482097,0.08128 0.3298869,0.155383 0.545032,0.222316 0.21992378,0.06215 0.48765851,0.09323 0.80320493,0.09323"
               style="font-size:7.17147303px;font-variant:normal;font-weight:bold;font-stretch:normal;fill:#2d2d2d;font-family:Ubuntu;-inkscape-font-specification:Ubuntu Bold"
               id="path2992"
               inkscape:connector-curvature="0" />
            <path
               d="m 2.8702402,66.230378 1.1187498,0 0,4.969831 -1.1187498,0 0,-4.969831"
               style="font-size:7.17147303px;font-variant:normal;font-weight:bold;font-stretch:normal;fill:#2d2d2d;font-family:Ubuntu;-inkscape-font-specification:Ubuntu Bold"
               id="path2994"
               inkscape:connector-curvature="0" />
            <path
               d="m 6.3313401,68.762216 c -1.5e-6,0.243832 0.028684,0.463757 0.086058,0.659776 0.062151,0.196021 0.1482087,0.365746 0.258173,0.509174 0.1147416,0.13865 0.25339,0.246222 0.4159455,0.322716 0.1625509,0.0765 0.349009,0.114745 0.5593749,0.114744 0.2055791,10e-7 0.3896468,-0.03825 0.5522034,-0.114744 0.1673308,-0.07649 0.3059791,-0.184066 0.4159454,-0.322716 0.1147397,-0.143428 0.2007973,-0.313153 0.258173,-0.509174 0.062149,-0.196019 0.093225,-0.415944 0.093229,-0.659776 -4.2e-6,-0.243827 -0.031081,-0.463752 -0.093229,-0.659775 C 8.8198373,67.901643 8.7337797,67.731918 8.61904,67.593266 8.5090737,67.44984 8.3704254,67.339878 8.2030946,67.263378 8.040538,67.186887 7.8564703,67.148639 7.6508912,67.148635 c -0.2103659,4e-6 -0.396824,0.04064 -0.5593749,0.121915 -0.1625555,0.0765 -0.3012039,0.186462 -0.4159455,0.329887 -0.1099643,0.138652 -0.1960219,0.308377 -0.258173,0.509175 -0.057373,0.196023 -0.086059,0.413558 -0.086058,0.652604 m 3.7937092,0 c -5e-6,0.425509 -0.06455,0.800816 -0.1936297,1.125921 -0.1243105,0.320327 -0.2964257,0.590452 -0.5163461,0.810377 -0.2199295,0.215144 -0.4828833,0.377697 -0.788862,0.48766 -0.3012054,0.109962 -0.6263118,0.164944 -0.9753203,0.164944 -0.3394523,0 -0.6597777,-0.05498 -0.9609774,-0.164944 C 6.3887103,71.076211 6.1257566,70.913658 5.9010517,70.698514 5.6763447,70.478589 5.4994486,70.208464 5.3703627,69.888137 5.2412758,69.563032 5.1767326,69.187725 5.176733,68.762216 c -4e-7,-0.425504 0.066933,-0.798421 0.2008012,-1.11875 0.1338668,-0.325103 0.3131535,-0.597618 0.5378605,-0.817548 0.2294858,-0.21992 0.4924395,-0.384864 0.788862,-0.494831 0.3011997,-0.109958 0.6167442,-0.164939 0.9466345,-0.164944 0.3394465,5e-6 0.659772,0.05499 0.9609773,0.164944 0.3011978,0.109967 0.5641516,0.274911 0.7888621,0.494831 0.2247013,0.21993 0.4015975,0.492445 0.530689,0.817548 0.1290814,0.320329 0.1936244,0.693246 0.1936294,1.11875"
               style="font-size:7.17147303px;font-variant:normal;font-weight:bold;font-stretch:normal;fill:#2d2d2d;font-family:Ubuntu;-inkscape-font-specification:Ubuntu Bold"
               id="path2996"
               inkscape:connector-curvature="0" />
            <path
               d="m 13.670357,71.351118 c -0.807988,0 -1.424734,-0.224706 -1.85024,-0.674119 -0.420727,-0.449411 -0.63109,-1.087671 -0.63109,-1.914783 0,-0.411162 0.06454,-0.776906 0.19363,-1.097235 0.129086,-0.325103 0.305982,-0.597619 0.530689,-0.817548 0.224705,-0.224702 0.49244,-0.394426 0.803205,-0.509175 0.310762,-0.114738 0.64782,-0.17211 1.011178,-0.172115 0.21036,5e-6 0.401599,0.01674 0.573717,0.0502 0.172112,0.02869 0.322713,0.06455 0.451803,0.107572 0.129083,0.03825 0.236655,0.07889 0.322717,0.121915 0.08605,0.04303 0.148206,0.0765 0.186458,0.100401 l -0.322716,0.903605 c -0.152996,-0.08127 -0.332282,-0.150597 -0.537861,-0.207972 -0.200805,-0.05737 -0.430291,-0.08605 -0.688461,-0.08606 -0.172118,4e-6 -0.341843,0.02869 -0.509175,0.08606 -0.162556,0.05737 -0.308375,0.150605 -0.43746,0.279687 -0.124307,0.124309 -0.224708,0.286863 -0.301202,0.48766 -0.0765,0.200805 -0.114745,0.444634 -0.114743,0.731491 -2e-6,0.229489 0.0239,0.444633 0.07171,0.645432 0.05259,0.196022 0.133865,0.365747 0.24383,0.509175 0.114741,0.14343 0.262952,0.258174 0.444631,0.34423 0.181675,0.08128 0.4016,0.121916 0.659775,0.121916 0.162551,0 0.308371,-0.0096 0.43746,-0.02869 0.129083,-0.01912 0.243827,-0.04064 0.344231,-0.06454 0.100397,-0.02868 0.188845,-0.05976 0.265345,-0.09323 0.07649,-0.03347 0.145815,-0.06454 0.207972,-0.09323 l 0.308374,0.896434 c -0.157777,0.09562 -0.380093,0.181678 -0.666947,0.258173 -0.286863,0.0765 -0.619141,0.114744 -0.996835,0.114744"
               style="font-size:7.17147303px;font-variant:normal;font-weight:bold;font-stretch:normal;fill:#2d2d2d;font-family:Ubuntu;-inkscape-font-specification:Ubuntu Bold"
               id="path2998"
               inkscape:connector-curvature="0" />
          </g>
        </g>
      </g>
    </g>
  </g>
</svg>
