<?xml version="1.0" encoding="UTF-8" standalone="no"?>
<!-- Created with Inkscape (http://www.inkscape.org/) -->

<svg
   xmlns:dc="http://purl.org/dc/elements/1.1/"
   xmlns:cc="http://creativecommons.org/ns#"
   xmlns:rdf="http://www.w3.org/1999/02/22-rdf-syntax-ns#"
   xmlns:svg="http://www.w3.org/2000/svg"
   xmlns="http://www.w3.org/2000/svg"
   xmlns:sodipodi="http://sodipodi.sourceforge.net/DTD/sodipodi-0.dtd"
   xmlns:inkscape="http://www.inkscape.org/namespaces/inkscape"
   width="32px"
   height="32px"
   id="svg3103"
   version="1.1"
   inkscape:version="0.48.4 r9939"
   sodipodi:docname="person.svg">
  <defs
     id="defs3105" />
  <sodipodi:namedview
     id="base"
     pagecolor="#ffffff"
     bordercolor="#666666"
     borderopacity="1.0"
     inkscape:pageopacity="0.0"
     inkscape:pageshadow="2"
     inkscape:zoom="11.197802"
     inkscape:cx="6.8898215"
     inkscape:cy="15.027342"
     inkscape:current-layer="layer1"
     showgrid="true"
     inkscape:grid-bbox="true"
     inkscape:document-units="px"
     inkscape:window-width="1623"
     inkscape:window-height="1026"
     inkscape:window-x="57"
     inkscape:window-y="24"
     inkscape:window-maximized="1" />
  <metadata
     id="metadata3108">
    <rdf:RDF>
      <cc:Work
         rdf:about="">
        <dc:format>image/svg+xml</dc:format>
        <dc:type
           rdf:resource="http://purl.org/dc/dcmitype/StillImage" />
        <dc:title />
      </cc:Work>
    </rdf:RDF>
  </metadata>
  <g
     id="layer1"
     inkscape:label="Layer 1"
     inkscape:groupmode="layer">
    <path
       style="fill:#00002d;fill-opacity:1;stroke:none"
       d="M 16.28125 0 C 12.139116 -5.9211895e-16 8.78125 3.3578659 8.78125 7.5 C 8.78125 11.642134 12.139116 15 16.28125 15 C 20.423384 15 23.78125 11.642134 23.78125 7.5 C 23.78125 3.3578659 20.423384 0 16.28125 0 z M 8.78125 14.6875 C 8.727808 14.6899 8.702741 14.6958 8.65625 14.71875 L 1.3125 18.34375 C -0.17520369 19.079232 0.0027407 20.54133 0 22.0625 L 0 27.46875 L 0 30.25 L 0 31.1875 C 0 31.629686 0.65007059 32 1.46875 32 L 30.53125 32 C 31.34993 32 32 31.629686 32 31.1875 L 32 30.5625 L 32 22.375 C 31.9973 20.85383 32.182414 19.391732 30.6875 18.65625 L 23.3125 15.03125 C 21.817577 14.295759 16.605132 24.400023 16.1875 25.875 L 16 26.5625 L 15.71875 25.5625 C 15.316123 24.133617 10.43796 14.612115 8.78125 14.6875 z "
       id="path3157-2-5-6" />
  </g>
</svg>
