<?xml version="1.0" encoding="UTF-8" standalone="no"?>
<!-- Created with Inkscape (http://www.inkscape.org/) -->

<svg
   xmlns:dc="http://purl.org/dc/elements/1.1/"
   xmlns:cc="http://creativecommons.org/ns#"
   xmlns:rdf="http://www.w3.org/1999/02/22-rdf-syntax-ns#"
   xmlns:svg="http://www.w3.org/2000/svg"
   xmlns="http://www.w3.org/2000/svg"
   xmlns:sodipodi="http://sodipodi.sourceforge.net/DTD/sodipodi-0.dtd"
   xmlns:inkscape="http://www.inkscape.org/namespaces/inkscape"
   width="16"
   height="16"
   id="svg3765"
   version="1.1"
   inkscape:version="0.48.3.1 r9886"
   sodipodi:docname="exportTriple.svg"
   inkscape:export-filename="/home/k00ni/Documents/semicon/owl.png"
   inkscape:export-xdpi="90"
   inkscape:export-ydpi="90">
  <defs
     id="defs3767" />
  <sodipodi:namedview
     id="base"
     pagecolor="#ffffff"
     bordercolor="#666666"
     borderopacity="1.0"
     inkscape:pageopacity="0.0"
     inkscape:pageshadow="2"
     inkscape:zoom="28"
     inkscape:cx="4.3608638"
     inkscape:cy="8.662628"
     inkscape:current-layer="layer1-9-3"
     showgrid="true"
     inkscape:grid-bbox="true"
     inkscape:document-units="px"
     inkscape:window-width="1366"
     inkscape:window-height="719"
     inkscape:window-x="0"
     inkscape:window-y="25"
     inkscape:window-maximized="1"
     showguides="true"
     inkscape:guide-bbox="true" />
  <metadata
     id="metadata3770">
    <rdf:RDF>
      <cc:Work
         rdf:about="">
        <dc:format>image/svg+xml</dc:format>
        <dc:type
           rdf:resource="http://purl.org/dc/dcmitype/StillImage" />
        <dc:title />
      </cc:Work>
    </rdf:RDF>
  </metadata>
  <g
     id="layer1"
     inkscape:label="Layer 1"
     inkscape:groupmode="layer"
     transform="translate(0,-32)">
    <g
       inkscape:label="Layer 1"
       id="layer1-4"
       transform="translate(0.20202972,-1.9622142e-8)">
      <g
         transform="translate(-0.37059768,-0.09089584)"
         id="layer1-9"
         inkscape:label="Layer 1">
        <g
           inkscape:label="Layer 1"
           id="layer1-9-3"
           transform="translate(-44.951788,-4.1416259)">
          <path
             transform="matrix(-0.18793823,0.41669891,-0.43399796,-0.18044707,66.246061,46.819373)"
             sodipodi:type="arc"
             style="fill:#2d2d2d;fill-opacity:1;stroke:#2d2d2d;stroke-width:0.80000001;stroke-linecap:round;stroke-linejoin:round;stroke-miterlimit:4;stroke-opacity:1;stroke-dasharray:none"
             id="path3015-0"
             sodipodi:cx="10.354064"
             sodipodi:cy="28.352533"
             sodipodi:rx="3.7880721"
             sodipodi:ry="3.7880721"
             d="m 14.142136,28.352533 c 0,2.092095 -1.695978,3.788072 -3.788072,3.788072 -2.0920945,0 -3.7880721,-1.695977 -3.7880721,-3.788072 0,-2.092094 1.6959776,-3.788072 3.7880721,-3.788072 2.092094,0 3.788072,1.695978 3.788072,3.788072 z" />
          <rect
             style="fill:#2d2d2d;fill-opacity:1;stroke:#2d2d2d;stroke-width:0.73200357;stroke-miterlimit:4;stroke-opacity:1;stroke-dasharray:none"
             id="rect3053-6"
             width="4.6610293"
             height="0.35277742"
             x="-34.895947"
             y="-57.484192"
             rx="1.4966911"
             ry="0.35277742"
             transform="matrix(-0.97706119,0.21295875,-0.41827263,-0.90832153,0,0)" />
          <path
             style="fill:none;fill-opacity:1;stroke:#2d2d2d;stroke-width:2.26999998000000014;stroke-linecap:butt;stroke-linejoin:miter;stroke-miterlimit:4;stroke-opacity:1;stroke-dasharray:none"
             d="m 46.614722,41.364256 c -0.06313,-1.116592 1.401411,-3.161992 3.221506,-3.574383 3.010535,-0.682118 4.834052,2.156401 5.822723,3.697658"
             id="path3105"
             inkscape:connector-curvature="0"
             sodipodi:nodetypes="csc" />
          <path
             style="fill:#2d2d2d;fill-opacity:1;stroke:none"
             d="m 57.308333,36.741721 -0.998709,5.890005 -5.826953,-1.053403 c 0,0 6.811476,-4.826548 6.825662,-4.836602 z"
             id="rect3097"
             inkscape:connector-curvature="0"
             sodipodi:nodetypes="cccc" />
          <path
             transform="matrix(-0.18793823,0.41669891,-0.43399796,-0.18044707,71.085508,51.034126)"
             sodipodi:type="arc"
             style="fill:#2d2d2d;fill-opacity:1;stroke:#2d2d2d;stroke-width:0.80000001;stroke-linecap:round;stroke-linejoin:round;stroke-miterlimit:4;stroke-opacity:1;stroke-dasharray:none"
             id="path3015-0-2"
             sodipodi:cx="10.354064"
             sodipodi:cy="28.352533"
             sodipodi:rx="3.7880721"
             sodipodi:ry="3.7880721"
             d="m 14.142136,28.352533 c 0,2.092095 -1.695978,3.788072 -3.788072,3.788072 -2.0920945,0 -3.7880721,-1.695977 -3.7880721,-3.788072 0,-2.092094 1.6959776,-3.788072 3.7880721,-3.788072 2.092094,0 3.788072,1.695978 3.788072,3.788072 z" />
          <path
             transform="matrix(-0.18793823,0.41669891,-0.43399796,-0.18044707,73.228365,45.06984)"
             sodipodi:type="arc"
             style="fill:#2d2d2d;fill-opacity:1;stroke:#2d2d2d;stroke-width:0.80000001;stroke-linecap:round;stroke-linejoin:round;stroke-miterlimit:4;stroke-opacity:1;stroke-dasharray:none"
             id="path3015-0-2-2"
             sodipodi:cx="10.354064"
             sodipodi:cy="28.352533"
             sodipodi:rx="3.7880721"
             sodipodi:ry="3.7880721"
             d="m 14.142136,28.352533 c 0,2.092095 -1.695978,3.788072 -3.788072,3.788072 -2.0920945,0 -3.7880721,-1.695977 -3.7880721,-3.788072 0,-2.092094 1.6959776,-3.788072 3.7880721,-3.788072 2.092094,0 3.788072,1.695978 3.788072,3.788072 z" />
          <rect
             style="fill:#2d2d2d;fill-opacity:1;stroke:#2d2d2d;stroke-width:0.60000002;stroke-miterlimit:4;stroke-opacity:1;stroke-dasharray:none"
             id="rect3053-6-5"
             width="3.2866197"
             height="0.33613157"
             x="30.290285"
             y="-68.010887"
             rx="1.0553579"
             ry="0.33613157"
             transform="matrix(-0.24154928,0.97038855,-0.97038855,-0.24154928,0,0)" />
          <rect
             style="fill:#2d2d2d;fill-opacity:1;stroke:#2d2d2d;stroke-width:0.60000002;stroke-miterlimit:4;stroke-opacity:1;stroke-dasharray:none"
             id="rect3053-6-0"
             width="3.2866197"
             height="0.33613157"
             x="-74.451935"
             y="-2.1345654"
             rx="1.0553579"
             ry="0.33613157"
             transform="matrix(-0.76607927,-0.6427461,0.6427461,-0.76607927,0,0)" />
        </g>
      </g>
    </g>
  </g>
</svg>
