<?xml version="1.0" encoding="UTF-8" standalone="no"?>
<!-- Created with Inkscape (http://www.inkscape.org/) -->

<svg
   xmlns:dc="http://purl.org/dc/elements/1.1/"
   xmlns:cc="http://creativecommons.org/ns#"
   xmlns:rdf="http://www.w3.org/1999/02/22-rdf-syntax-ns#"
   xmlns:svg="http://www.w3.org/2000/svg"
   xmlns="http://www.w3.org/2000/svg"
   xmlns:sodipodi="http://sodipodi.sourceforge.net/DTD/sodipodi-0.dtd"
   xmlns:inkscape="http://www.inkscape.org/namespaces/inkscape"
   width="48px"
   height="48px"
   id="svg3765"
   version="1.1"
   inkscape:version="0.48.3.1 r9886"
   sodipodi:docname="exportTriple.svg"
   inkscape:export-filename="/home/k00ni/Documents/semicon/owl.png"
   inkscape:export-xdpi="90"
   inkscape:export-ydpi="90">
  <defs
     id="defs3767" />
  <sodipodi:namedview
     id="base"
     pagecolor="#ffffff"
     bordercolor="#666666"
     borderopacity="1.0"
     inkscape:pageopacity="0.0"
     inkscape:pageshadow="2"
     inkscape:zoom="14"
     inkscape:cx="21.434461"
     inkscape:cy="25.721762"
     inkscape:current-layer="layer1-9-3"
     showgrid="true"
     inkscape:grid-bbox="true"
     inkscape:document-units="px"
     inkscape:window-width="1366"
     inkscape:window-height="744"
     inkscape:window-x="0"
     inkscape:window-y="24"
     inkscape:window-maximized="1"
     showguides="true"
     inkscape:guide-bbox="true" />
  <metadata
     id="metadata3770">
    <rdf:RDF>
      <cc:Work
         rdf:about="">
        <dc:format>image/svg+xml</dc:format>
        <dc:type
           rdf:resource="http://purl.org/dc/dcmitype/StillImage" />
        <dc:title></dc:title>
      </cc:Work>
    </rdf:RDF>
  </metadata>
  <g
     id="layer1"
     inkscape:label="Layer 1"
     inkscape:groupmode="layer">
    <g
       inkscape:label="Layer 1"
       id="layer1-4"
       transform="translate(0.20202972,-1.9622142e-8)">
      <g
         transform="translate(-0.37059768,-0.09089584)"
         id="layer1-9"
         inkscape:label="Layer 1">
        <g
           inkscape:label="Layer 1"
           id="layer1-9-3"
           transform="translate(-44.951788,-4.1416259)">
          <path
             transform="matrix(0.99063909,0,0,0.99063908,40.251428,3.8899776)"
             d="M 53,24.428572 C 53,37.52561 42.382753,48.142857 29.285715,48.142857 16.188677,48.142857 5.5714302,37.52561 5.5714302,24.428572 5.5714302,11.331534 16.188677,0.7142868 29.285715,0.7142868 42.382753,0.7142868 53,11.331534 53,24.428572 z"
             sodipodi:ry="23.714285"
             sodipodi:rx="23.714285"
             sodipodi:cy="24.428572"
             sodipodi:cx="29.285715"
             id="path3773-80"
             style="fill:#2d2d2d;fill-opacity:1;stroke:none"
             sodipodi:type="arc" />
          <path
             transform="matrix(-0.07267813,0,0,0.07267813,130.46017,1.2626693)"
             d="M 53,24.428572 C 53,37.52561 42.382753,48.142857 29.285715,48.142857 16.188677,48.142857 5.5714302,37.52561 5.5714302,24.428572 5.5714302,11.331534 16.188677,0.7142868 29.285715,0.7142868 42.382753,0.7142868 53,11.331534 53,24.428572 z"
             sodipodi:ry="23.714285"
             sodipodi:rx="23.714285"
             sodipodi:cy="24.428572"
             sodipodi:cx="29.285715"
             id="path3773-80-3-7-1-9-9-3-3-9-3-7"
             style="fill:#ffffff;fill-opacity:1;stroke:none"
             sodipodi:type="arc" />
          <path
             sodipodi:type="arc"
             style="fill:#ffffff;fill-opacity:1;stroke:#2d2d2d;stroke-width:0.80000001;stroke-linecap:round;stroke-linejoin:round;stroke-miterlimit:4;stroke-opacity:1;stroke-dasharray:none"
             id="path3015"
             sodipodi:cx="10.354064"
             sodipodi:cy="28.352533"
             sodipodi:rx="3.7880721"
             sodipodi:ry="3.7880721"
             d="m 14.142136,28.352533 a 3.7880721,3.7880721 0 1 1 -7.5761441,0 3.7880721,3.7880721 0 1 1 7.5761441,0 z"
             transform="matrix(0.831522,0.51011472,-0.51011472,0.831522,63.033135,-7.552101)" />
          <path
             transform="matrix(0.831522,0.51011472,-0.51011472,0.831522,65.645252,6.9406696)"
             sodipodi:type="arc"
             style="fill:#ffffff;fill-opacity:1;stroke:#2d2d2d;stroke-width:0.80000001;stroke-linecap:round;stroke-linejoin:round;stroke-miterlimit:4;stroke-opacity:1;stroke-dasharray:none"
             id="path3015-0"
             sodipodi:cx="10.354064"
             sodipodi:cy="28.352533"
             sodipodi:rx="3.7880721"
             sodipodi:ry="3.7880721"
             d="m 14.142136,28.352533 a 3.7880721,3.7880721 0 1 1 -7.5761441,0 3.7880721,3.7880721 0 1 1 7.5761441,0 z" />
          <path
             transform="matrix(0.831522,0.51011472,-0.51011472,0.831522,76.326458,0.08273126)"
             sodipodi:type="arc"
             style="fill:#ffffff;fill-opacity:1;stroke:#2d2d2d;stroke-width:0.80000001;stroke-linecap:round;stroke-linejoin:round;stroke-miterlimit:4;stroke-opacity:1;stroke-dasharray:none"
             id="path3015-0-7"
             sodipodi:cx="10.354064"
             sodipodi:cy="28.352533"
             sodipodi:rx="3.7880721"
             sodipodi:ry="3.7880721"
             d="m 14.142136,28.352533 a 3.7880721,3.7880721 0 1 1 -7.5761441,0 3.7880721,3.7880721 0 1 1 7.5761441,0 z" />
          <rect
             style="fill:#ffffff;fill-opacity:1;stroke:none"
             id="rect3053"
             width="11.036787"
             height="0.88688469"
             x="62.19582"
             y="-11.986002"
             rx="3.5439942"
             ry="0.88688469"
             transform="matrix(0.85238552,0.52291388,-0.52291388,0.85238552,0,0)" />
          <rect
             style="fill:#ffffff;fill-opacity:1;stroke:none"
             id="rect3053-6"
             width="8.6717606"
             height="0.88688469"
             x="33.384705"
             y="-52.80476"
             rx="2.7845669"
             ry="0.88688469"
             transform="matrix(0.16444929,0.98638554,-0.98638554,0.16444929,0,0)" />
          <rect
             style="fill:#ffffff;fill-opacity:1;stroke:none"
             id="rect3053-3"
             width="11.036787"
             height="0.88688469"
             x="34.566975"
             y="60.523861"
             rx="3.5439942"
             ry="0.88688469"
             transform="matrix(0.86124096,-0.50819682,0.50819682,0.86124096,0,0)" />
          <path
             style="fill:#ffffff;fill-opacity:1;stroke:none"
             d="m 88.605821,22.041567 -3.6997,6.353017 -6.353017,-3.6997 c 0,0 10.031823,-2.647802 10.052717,-2.653317 z"
             id="rect3097"
             inkscape:connector-curvature="0"
             sodipodi:nodetypes="cccc" />
          <path
             style="fill:none;stroke:#ffffff;stroke-width:2.59510422;stroke-linecap:butt;stroke-linejoin:miter;stroke-miterlimit:4;stroke-opacity:1;stroke-dasharray:none"
             d="m 68.3365,21.670121 c 0.274927,-1.941471 3.534456,-4.954195 6.851019,-5.03695 5.485771,-0.136882 7.687329,5.370818 8.880184,8.360884"
             id="path3105"
             inkscape:connector-curvature="0"
             sodipodi:nodetypes="csc" />
        </g>
      </g>
    </g>
  </g>
</svg>
