<?xml version="1.0" encoding="UTF-8" standalone="no"?>
<!-- Created with Inkscape (http://www.inkscape.org/) -->

<svg
   xmlns:dc="http://purl.org/dc/elements/1.1/"
   xmlns:cc="http://creativecommons.org/ns#"
   xmlns:rdf="http://www.w3.org/1999/02/22-rdf-syntax-ns#"
   xmlns:svg="http://www.w3.org/2000/svg"
   xmlns="http://www.w3.org/2000/svg"
   xmlns:sodipodi="http://sodipodi.sourceforge.net/DTD/sodipodi-0.dtd"
   xmlns:inkscape="http://www.inkscape.org/namespaces/inkscape"
   width="48px"
   height="48px"
   id="svg3765"
   version="1.1"
   inkscape:version="0.48.3.1 r9886"
   sodipodi:docname="importPlain.svg"
   inkscape:export-filename="/home/k00ni/Documents/semicon/owl.png"
   inkscape:export-xdpi="90"
   inkscape:export-ydpi="90">
  <defs
     id="defs3767" />
  <sodipodi:namedview
     id="base"
     pagecolor="#ffffff"
     bordercolor="#666666"
     borderopacity="1.0"
     inkscape:pageopacity="0.0"
     inkscape:pageshadow="2"
     inkscape:zoom="9.8994949"
     inkscape:cx="16.269336"
     inkscape:cy="20.18212"
     inkscape:current-layer="layer1-9-3"
     showgrid="true"
     inkscape:grid-bbox="true"
     inkscape:document-units="px"
     inkscape:window-width="1366"
     inkscape:window-height="744"
     inkscape:window-x="0"
     inkscape:window-y="24"
     inkscape:window-maximized="1"
     showguides="true"
     inkscape:guide-bbox="true" />
  <metadata
     id="metadata3770">
    <rdf:RDF>
      <cc:Work
         rdf:about="">
        <dc:format>image/svg+xml</dc:format>
        <dc:type
           rdf:resource="http://purl.org/dc/dcmitype/StillImage" />
        <dc:title></dc:title>
      </cc:Work>
    </rdf:RDF>
  </metadata>
  <g
     id="layer1"
     inkscape:label="Layer 1"
     inkscape:groupmode="layer">
    <g
       inkscape:label="Layer 1"
       id="layer1-4"
       transform="translate(0.20202972,-1.9622142e-8)">
      <g
         transform="translate(-0.37059768,-0.09089584)"
         id="layer1-9"
         inkscape:label="Layer 1">
        <g
           inkscape:label="Layer 1"
           id="layer1-9-3"
           transform="translate(-44.951788,-4.1416259)">
          <path
             transform="matrix(0.99063909,0,0,0.99063908,40.251428,3.8899776)"
             d="m 53,24.428572 a 23.714285,23.714285 0 1 1 -47.4285698,0 23.714285,23.714285 0 1 1 47.4285698,0 z"
             sodipodi:ry="23.714285"
             sodipodi:rx="23.714285"
             sodipodi:cy="24.428572"
             sodipodi:cx="29.285715"
             id="path3773-80"
             style="fill:#2d2d2d;fill-opacity:1;stroke:none"
             sodipodi:type="arc" />
          <path
             transform="matrix(-0.07267813,0,0,0.07267813,130.46017,1.2626693)"
             d="M 53,24.428572 C 53,37.52561 42.382753,48.142857 29.285715,48.142857 16.188677,48.142857 5.5714302,37.52561 5.5714302,24.428572 5.5714302,11.331534 16.188677,0.7142868 29.285715,0.7142868 42.382753,0.7142868 53,11.331534 53,24.428572 z"
             sodipodi:ry="23.714285"
             sodipodi:rx="23.714285"
             sodipodi:cy="24.428572"
             sodipodi:cx="29.285715"
             id="path3773-80-3-7-1-9-9-3-3-9-3-7"
             style="fill:#ffffff;fill-opacity:1;stroke:none"
             sodipodi:type="arc" />
          <g
             id="g3903"
             transform="matrix(0.96074212,0.36880339,-0.36880339,0.96074212,8.0637289,-29.814609)">
            <path
               sodipodi:nodetypes="cccc"
               inkscape:connector-curvature="0"
               id="rect3097"
               d="m 67.038948,22.041567 3.6997,6.353017 6.353017,-3.6997 c 0,0 -10.031823,-2.647802 -10.052717,-2.653317 z"
               style="fill:#ffffff;fill-opacity:1;stroke:none" />
            <path
               sodipodi:nodetypes="csc"
               inkscape:connector-curvature="0"
               id="path3105"
               d="m 87.308269,21.670121 c -0.274927,-1.941471 -3.534456,-4.954195 -6.851019,-5.03695 -5.485771,-0.136882 -7.687329,5.370818 -8.880184,8.360884"
               style="fill:none;stroke:#ffffff;stroke-width:2.59510422;stroke-linecap:butt;stroke-linejoin:miter;stroke-miterlimit:4;stroke-opacity:1;stroke-dasharray:none" />
          </g>
          <g
             id="g3918"
             transform="matrix(1.4306233,0,0,1.4840706,-21.684599,-19.946166)">
            <path
               transform="matrix(0.70293839,0,0,0.70293839,39.55779,29.583623)"
               d="m 33.84011,16.28121 c 0,1.450519 -2.645725,2.626397 -5.909393,2.626397 -3.263667,0 -5.909392,-1.175878 -5.909392,-2.626397 0,-1.450519 2.645725,-2.626397 5.909392,-2.626397 3.263668,0 5.909393,1.175878 5.909393,2.626397 z"
               sodipodi:ry="2.6263967"
               sodipodi:rx="5.9093924"
               sodipodi:cy="16.28121"
               sodipodi:cx="27.930717"
               id="path3014-3-2-5"
               style="fill:#ffffff;fill-opacity:1;stroke:none"
               sodipodi:type="arc" />
            <rect
               ry="1.4018096"
               rx="1.4018096"
               y="31.939352"
               x="54.930912"
               height="10.012057"
               width="8.5209007"
               id="rect3034-6-3"
               style="fill:#ffffff;fill-opacity:1;stroke:none" />
            <path
               transform="matrix(0.72096243,0,0,0.70293839,38.983358,21.701791)"
               d="m 33.84011,16.28121 c 0,1.450519 -2.645725,2.626397 -5.909393,2.626397 -3.263667,0 -5.909392,-1.175878 -5.909392,-2.626397 0,-1.450519 2.645725,-2.626397 5.909392,-2.626397 3.263668,0 5.909393,1.175878 5.909393,2.626397 z"
               sodipodi:ry="2.6263967"
               sodipodi:rx="5.9093924"
               sodipodi:cy="16.28121"
               sodipodi:cx="27.930717"
               id="path3014-4-5"
               style="fill:#ffffff;fill-opacity:1;stroke:#2d2d2d;stroke-width:0.78993672;stroke-miterlimit:4;stroke-opacity:1;stroke-dasharray:none"
               sodipodi:type="arc" />
          </g>
        </g>
      </g>
    </g>
  </g>
</svg>
