<?xml version="1.0" encoding="UTF-8" standalone="no"?>
<!-- Created with Inkscape (http://www.inkscape.org/) -->

<svg
   xmlns:dc="http://purl.org/dc/elements/1.1/"
   xmlns:cc="http://creativecommons.org/ns#"
   xmlns:rdf="http://www.w3.org/1999/02/22-rdf-syntax-ns#"
   xmlns:svg="http://www.w3.org/2000/svg"
   xmlns="http://www.w3.org/2000/svg"
   xmlns:sodipodi="http://sodipodi.sourceforge.net/DTD/sodipodi-0.dtd"
   xmlns:inkscape="http://www.inkscape.org/namespaces/inkscape"
   width="16"
   height="16"
   id="svg3765"
   version="1.1"
   inkscape:version="0.48.3.1 r9886"
   sodipodi:docname="sparql3.svg"
   inkscape:export-filename="/home/k00ni/Documents/semicon/owl.png"
   inkscape:export-xdpi="90"
   inkscape:export-ydpi="90">
  <defs
     id="defs3767" />
  <sodipodi:namedview
     id="base"
     pagecolor="#ffffff"
     bordercolor="#666666"
     borderopacity="1.0"
     inkscape:pageopacity="0.0"
     inkscape:pageshadow="2"
     inkscape:zoom="56"
     inkscape:cx="8.1478799"
     inkscape:cy="8.7039128"
     inkscape:current-layer="layer1-9-3"
     showgrid="true"
     inkscape:grid-bbox="true"
     inkscape:document-units="px"
     inkscape:window-width="1920"
     inkscape:window-height="1029"
     inkscape:window-x="0"
     inkscape:window-y="28"
     inkscape:window-maximized="1"
     showguides="true"
     inkscape:guide-bbox="true" />
  <metadata
     id="metadata3770">
    <rdf:RDF>
      <cc:Work
         rdf:about="">
        <dc:format>image/svg+xml</dc:format>
        <dc:type
           rdf:resource="http://purl.org/dc/dcmitype/StillImage" />
        <dc:title />
      </cc:Work>
    </rdf:RDF>
  </metadata>
  <g
     id="layer1"
     inkscape:label="Layer 1"
     inkscape:groupmode="layer"
     transform="translate(0,-32)">
    <g
       inkscape:label="Layer 1"
       id="layer1-4"
       transform="translate(0.20202972,-1.9622142e-8)">
      <g
         transform="translate(-0.37059768,-0.09089584)"
         id="layer1-9"
         inkscape:label="Layer 1">
        <g
           inkscape:label="Layer 1"
           id="layer1-9-3"
           transform="translate(-44.951788,-4.1416259)">
          <text
             xml:space="preserve"
             style="font-size:8.22249699px;font-style:normal;font-weight:normal;line-height:125%;letter-spacing:0px;word-spacing:0px;fill:#2d2d2d;fill-opacity:1;stroke:none;font-family:Sans"
             x="60.22971"
             y="37.050022"
             id="text3001"
             sodipodi:linespacing="125%"
             transform="scale(0.76070473,1.3145705)"><tspan
               sodipodi:role="line"
               id="tspan3003"
               x="60.22971"
               y="37.050022"
               style="font-size:10.96332932px;font-style:normal;font-variant:normal;font-weight:bold;font-stretch:normal;fill:#2d2d2d;fill-opacity:1;font-family:Ubuntu;-inkscape-font-specification:Ubuntu Bold">{</tspan></text>
          <g
             style="font-size:36.03017044px;font-style:normal;font-weight:normal;line-height:125%;letter-spacing:0px;word-spacing:0px;fill:#2d2d2d;fill-opacity:1;stroke:none;font-family:Sans"
             id="text3029"
             transform="matrix(0,-1,1,0,13.96228,117.16459)">
            <path
               d="m 67.693703,40.908446 c 0.15853,1e-6 0.288239,-0.01201 0.389126,-0.03603 0.105686,-0.02882 0.189756,-0.06485 0.252211,-0.10809 0.06245,-0.04804 0.105686,-0.103286 0.129708,-0.165739 0.02402,-0.06245 0.03603,-0.132109 0.03603,-0.208975 -3e-6,-0.163335 -0.07687,-0.297848 -0.230594,-0.403538 -0.153731,-0.110491 -0.417952,-0.228189 -0.792663,-0.353096 -0.163339,-0.05765 -0.326675,-0.1225 -0.490011,-0.194563 -0.163337,-0.07686 -0.30986,-0.17054 -0.439568,-0.281035 -0.129709,-0.115294 -0.235397,-0.252208 -0.317065,-0.410744 -0.08167,-0.163333 -0.122503,-0.360298 -0.122503,-0.590895 0,-0.230589 0.04324,-0.437162 0.129709,-0.619719 0.08647,-0.187352 0.208974,-0.345885 0.367508,-0.475598 0.158531,-0.129704 0.350692,-0.228186 0.576482,-0.295447 0.225788,-0.07205 0.480401,-0.108086 0.76384,-0.108091 0.336279,5e-6 0.626922,0.03604 0.87193,0.108091 0.245002,0.07206 0.446771,0.151331 0.605307,0.237799 l -0.324272,0.886342 c -0.139319,-0.07206 -0.29545,-0.134509 -0.468392,-0.187357 -0.168143,-0.05764 -0.372314,-0.08647 -0.612513,-0.08647 -0.269027,4e-6 -0.46359,0.03844 -0.583688,0.115296 -0.115299,0.07207 -0.172947,0.184959 -0.172945,0.338684 -2e-6,0.09128 0.02162,0.168144 0.06485,0.230593 0.04323,0.06246 0.103285,0.120104 0.180151,0.172945 0.08167,0.04804 0.172943,0.09368 0.273829,0.136915 0.105687,0.03843 0.220983,0.07927 0.34589,0.122502 0.259414,0.09608 0.485203,0.192164 0.677367,0.288241 0.192158,0.09128 0.35069,0.19937 0.475598,0.324272 0.129705,0.124907 0.225786,0.271429 0.288242,0.439568 0.06245,0.168143 0.09367,0.372313 0.09368,0.612513 -4e-6,0.465991 -0.16334,0.828694 -0.49001,1.088111 -0.326677,0.254613 -0.819089,0.38192 -1.477237,0.38192 -0.220987,0 -0.420354,-0.01441 -0.598101,-0.04324 -0.17775,-0.02402 -0.336283,-0.05525 -0.475598,-0.09368 -0.134514,-0.03843 -0.252212,-0.07927 -0.353096,-0.122502 -0.09608,-0.04324 -0.177749,-0.08407 -0.245005,-0.122503 l 0.317065,-0.893548 c 0.148924,0.08167 0.331477,0.156132 0.547659,0.223387 0.220984,0.06245 0.490009,0.09368 0.807076,0.09368"
               style="font-size:7.20603418px;font-variant:normal;font-weight:bold;font-stretch:normal;fill:#2d2d2d;fill-opacity:1;font-family:Ubuntu;-inkscape-font-specification:Ubuntu Bold"
               id="path2992"
               inkscape:connector-curvature="0" />
            <path
               d="m 72.131897,36.714535 c 0.744621,5e-6 1.316299,0.132115 1.715037,0.396331 0.398729,0.259422 0.598096,0.68698 0.5981,1.282675 -4e-6,0.600505 -0.201773,1.035269 -0.605306,1.304292 -0.403542,0.264223 -0.980024,0.396333 -1.729449,0.396332 l -0.353095,0 0,1.6718 -1.124142,0 0,-4.921722 c 0.245005,-0.04803 0.504422,-0.08166 0.778252,-0.100884 0.273828,-0.01921 0.514029,-0.02882 0.720603,-0.02882 m 0.07206,0.958402 c -0.08167,4e-6 -0.163339,0.0024 -0.245005,0.0072 -0.07687,0.0048 -0.144123,0.0096 -0.201769,0.01441 l 0,1.441207 0.353095,0 c 0.389124,3e-6 0.682169,-0.05284 0.879137,-0.158533 0.196961,-0.105685 0.295444,-0.30265 0.295447,-0.590895 -3e-6,-0.139313 -0.02642,-0.254609 -0.07927,-0.345889 -0.04804,-0.09127 -0.120104,-0.163333 -0.216181,-0.216181 -0.09128,-0.05764 -0.204174,-0.09608 -0.338684,-0.115297 -0.134515,-0.02402 -0.28344,-0.03603 -0.446774,-0.03603"
               style="font-size:7.20603418px;font-variant:normal;font-weight:bold;font-stretch:normal;fill:#2d2d2d;fill-opacity:1;font-family:Ubuntu;-inkscape-font-specification:Ubuntu Bold"
               id="path2994"
               inkscape:connector-curvature="0" />
            <path
               d="m 76.114404,39.265471 c -10e-7,0.245007 0.02882,0.465992 0.08647,0.662955 0.06245,0.196966 0.148923,0.367509 0.259417,0.511628 0.115295,0.139318 0.254611,0.247408 0.41795,0.324272 0.163334,0.07687 0.350691,0.115297 0.562071,0.115296 0.20657,1e-6 0.391524,-0.03843 0.554864,-0.115296 0.168138,-0.07686 0.307454,-0.184954 0.41795,-0.324272 0.115293,-0.144119 0.201765,-0.314662 0.259418,-0.511628 0.06245,-0.196963 0.09367,-0.417948 0.09368,-0.662955 -4e-6,-0.245003 -0.03123,-0.465988 -0.09368,-0.662955 -0.05765,-0.201766 -0.144125,-0.372309 -0.259418,-0.511629 -0.110496,-0.144117 -0.249812,-0.254609 -0.41795,-0.331477 -0.16334,-0.07686 -0.348294,-0.115293 -0.554864,-0.115297 -0.21138,4e-6 -0.398737,0.04084 -0.562071,0.122503 -0.163339,0.07687 -0.302655,0.18736 -0.41795,0.331477 -0.110494,0.13932 -0.196967,0.309863 -0.259417,0.511629 -0.05765,0.196967 -0.08647,0.41555 -0.08647,0.655749 m 3.811992,0 c -5e-6,0.42756 -0.06486,0.804675 -0.194562,1.131347 -0.12491,0.321871 -0.297855,0.593298 -0.518835,0.814282 -0.220989,0.216181 -0.48521,0.379518 -0.792664,0.49001 -0.302657,0.110493 -0.62933,0.165739 -0.98002,0.165739 -0.341088,0 -0.662958,-0.05525 -0.965609,-0.165739 -0.302655,-0.110492 -0.566876,-0.273829 -0.792664,-0.49001 -0.22579,-0.220984 -0.403538,-0.492411 -0.533246,-0.814282 -0.129709,-0.326672 -0.194563,-0.703787 -0.194563,-1.131347 0,-0.427555 0.06726,-0.802269 0.201769,-1.124142 0.134512,-0.326669 0.314662,-0.600498 0.540452,-0.821488 0.230592,-0.22098 0.494813,-0.386719 0.792664,-0.497216 0.302651,-0.110487 0.619717,-0.165734 0.951197,-0.165739 0.341082,5e-6 0.662951,0.05525 0.965608,0.165739 0.30265,0.110497 0.566871,0.276236 0.792664,0.497216 0.225784,0.22099 0.403533,0.494819 0.533247,0.821488 0.129703,0.321873 0.194557,0.696587 0.194562,1.124142"
               style="font-size:7.20603418px;font-variant:normal;font-weight:bold;font-stretch:normal;fill:#2d2d2d;fill-opacity:1;font-family:Ubuntu;-inkscape-font-specification:Ubuntu Bold"
               id="path2996"
               inkscape:connector-curvature="0" />
          </g>
          <text
             xml:space="preserve"
             style="font-size:8.6437521px;font-style:normal;font-weight:normal;line-height:125%;letter-spacing:0px;word-spacing:0px;fill:#2d2d2d;fill-opacity:1;stroke:none;font-family:Sans"
             x="-75.897865"
             y="-32.029251"
             id="text3001-2"
             sodipodi:linespacing="125%"
             transform="scale(-0.79967713,-1.2505047)"><tspan
               sodipodi:role="line"
               id="tspan3003-8"
               x="-75.897865"
               y="-32.029251"
               style="font-size:11.52500248px;font-style:normal;font-variant:normal;font-weight:bold;font-stretch:normal;fill:#2d2d2d;fill-opacity:1;font-family:Ubuntu;-inkscape-font-specification:Ubuntu Bold">{</tspan></text>
        </g>
      </g>
    </g>
  </g>
</svg>
