<?xml version="1.0" encoding="UTF-8" standalone="no"?>
<!-- Created with Inkscape (http://www.inkscape.org/) -->

<svg
   xmlns:dc="http://purl.org/dc/elements/1.1/"
   xmlns:cc="http://creativecommons.org/ns#"
   xmlns:rdf="http://www.w3.org/1999/02/22-rdf-syntax-ns#"
   xmlns:svg="http://www.w3.org/2000/svg"
   xmlns="http://www.w3.org/2000/svg"
   xmlns:sodipodi="http://sodipodi.sourceforge.net/DTD/sodipodi-0.dtd"
   xmlns:inkscape="http://www.inkscape.org/namespaces/inkscape"
   width="48px"
   height="48px"
   id="svg3765"
   version="1.1"
   inkscape:version="0.48.3.1 r9886"
   sodipodi:docname="sparql2.svg"
   inkscape:export-filename="/home/k00ni/Documents/semicon/owl.png"
   inkscape:export-xdpi="90"
   inkscape:export-ydpi="90">
  <defs
     id="defs3767" />
  <sodipodi:namedview
     id="base"
     pagecolor="#ffffff"
     bordercolor="#666666"
     borderopacity="1.0"
     inkscape:pageopacity="0.0"
     inkscape:pageshadow="2"
     inkscape:zoom="9.8994949"
     inkscape:cx="22.091819"
     inkscape:cy="27.936519"
     inkscape:current-layer="layer1-9-3"
     showgrid="true"
     inkscape:grid-bbox="true"
     inkscape:document-units="px"
     inkscape:window-width="1366"
     inkscape:window-height="744"
     inkscape:window-x="0"
     inkscape:window-y="24"
     inkscape:window-maximized="1" />
  <metadata
     id="metadata3770">
    <rdf:RDF>
      <cc:Work
         rdf:about="">
        <dc:format>image/svg+xml</dc:format>
        <dc:type
           rdf:resource="http://purl.org/dc/dcmitype/StillImage" />
        <dc:title></dc:title>
      </cc:Work>
    </rdf:RDF>
  </metadata>
  <g
     id="layer1"
     inkscape:label="Layer 1"
     inkscape:groupmode="layer">
    <g
       inkscape:label="Layer 1"
       id="layer1-4"
       transform="translate(0.20202972,-1.9622142e-8)">
      <g
         transform="translate(-0.37059768,-0.09089584)"
         id="layer1-9"
         inkscape:label="Layer 1">
        <g
           inkscape:label="Layer 1"
           id="layer1-9-3"
           transform="translate(-44.951788,-4.1416259)">
          <path
             transform="matrix(0.99063909,0,0,0.99063908,40.251428,3.8899776)"
             d="M 53,24.428572 C 53,37.52561 42.382753,48.142857 29.285715,48.142857 16.188677,48.142857 5.5714302,37.52561 5.5714302,24.428572 5.5714302,11.331534 16.188677,0.7142868 29.285715,0.7142868 42.382753,0.7142868 53,11.331534 53,24.428572 z"
             sodipodi:ry="23.714285"
             sodipodi:rx="23.714285"
             sodipodi:cy="24.428572"
             sodipodi:cx="29.285715"
             id="path3773-80"
             style="fill:#2d2d2d;fill-opacity:1;stroke:none"
             sodipodi:type="arc" />
          <text
             xml:space="preserve"
             style="font-size:22.04857254px;font-style:normal;font-weight:normal;line-height:125%;letter-spacing:0px;word-spacing:0px;fill:#ffffff;fill-opacity:1;stroke:none;font-family:Sans"
             x="47.764225"
             y="34.452019"
             id="text2996"
             sodipodi:linespacing="125%"><tspan
               sodipodi:role="line"
               id="tspan2998"
               x="47.764225"
               y="34.452019">{</tspan></text>
          <text
             xml:space="preserve"
             style="font-size:22.04857254px;font-style:normal;font-weight:normal;line-height:125%;letter-spacing:0px;word-spacing:0px;fill:#ffffff;fill-opacity:1;stroke:none;font-family:Sans"
             x="-89.813034"
             y="-21.612923"
             id="text2996-6"
             sodipodi:linespacing="125%"
             transform="scale(-1,-1)"
             inkscape:transform-center-y="-4.0406102"><tspan
               sodipodi:role="line"
               id="tspan2998-3"
               x="-89.813034"
               y="-21.612923">{</tspan></text>
          <g
             inkscape:label="Layer 1"
             id="layer1-4-0"
             transform="translate(-13.026584,-4.833597)">
            <g
               transform="translate(-0.37059768,-0.09089584)"
               id="layer1-9-0"
               inkscape:label="Layer 1">
              <g
                 inkscape:label="Layer 1"
                 id="layer1-9-3-2"
                 transform="translate(-44.951788,-4.1416259)">
                <path
                   style="fill:#ffffff;fill-opacity:1;stroke:#2d2d2d;stroke-width:0.66044116;stroke-linecap:round;stroke-linejoin:round;stroke-miterlimit:4;stroke-opacity:1"
                   d="m 125.43837,34.132519 c -0.90315,1.472183 -2.82872,1.933481 -4.3009,1.03034 -1.47218,-0.903141 -1.93349,-2.82872 -1.03035,-4.300903 0.90315,-1.472181 2.82873,-1.93348 4.30091,-1.03034 1.47218,0.903141 1.93347,2.828722 1.03034,4.300903 z"
                   id="path3015"
                   inkscape:connector-curvature="0" />
                <path
                   style="fill:#ffffff;fill-opacity:1;stroke:#2d2d2d;stroke-width:0.66044116;stroke-linecap:round;stroke-linejoin:round;stroke-miterlimit:4;stroke-opacity:1"
                   d="m 127.64891,46.397246 c -0.90314,1.472183 -2.82872,1.933481 -4.30091,1.03034 -1.47218,-0.903142 -1.93347,-2.82872 -1.03033,-4.300903 0.90314,-1.472181 2.82872,-1.933481 4.30091,-1.03034 1.47218,0.903141 1.93347,2.828722 1.03033,4.300903 z"
                   id="path3015-0"
                   inkscape:connector-curvature="0" />
                <path
                   style="fill:#ffffff;fill-opacity:1;stroke:#2d2d2d;stroke-width:0.66044116;stroke-linecap:round;stroke-linejoin:round;stroke-miterlimit:4;stroke-opacity:1"
                   d="m 136.68804,40.593612 c -0.90314,1.472183 -2.82872,1.933481 -4.3009,1.03034 -1.47218,-0.903142 -1.93348,-2.828721 -1.03034,-4.300903 0.90314,-1.472182 2.82872,-1.933481 4.3009,-1.03034 1.47218,0.903141 1.93349,2.828722 1.03034,4.300903 z"
                   id="path3015-0-7"
                   inkscape:connector-curvature="0" />
                <path
                   style="fill:#ffffff;fill-opacity:1;stroke:none"
                   d="m 127.10866,34.912608 2.84845,1.747438 c 1.41626,0.868839 2.46891,1.710965 2.3602,1.888176 -0.10871,0.177211 -1.33641,-0.379588 -2.75267,-1.248427 l -2.84844,-1.747437 c -1.41627,-0.86884 -2.46892,-1.710966 -2.36021,-1.888177 0.10871,-0.177211 1.33641,0.379588 2.75267,1.248427 z"
                   id="rect3053"
                   inkscape:connector-curvature="0" />
                <path
                   style="fill:#ffffff;fill-opacity:1;stroke:none"
                   d="m 123.8131,36.940724 0.50359,3.216327 c 0.25038,1.599184 0.25941,2.920792 0.0202,2.963251 -0.23917,0.04246 -0.63329,-1.210788 -0.88367,-2.809972 l -0.50359,-3.216327 c -0.25038,-1.599182 -0.25941,-2.920792 -0.0202,-2.96325 0.23917,-0.04246 0.63329,1.210789 0.88367,2.809971 z"
                   id="rect3053-6"
                   inkscape:connector-curvature="0" />
                <path
                   style="fill:#ffffff;fill-opacity:1;stroke:none"
                   d="m 130.9021,41.399511 -2.24994,1.353456 c -1.11868,0.672946 -2.10555,1.071285 -2.21272,0.893114 -0.10717,-0.178149 0.70715,-0.863332 1.82583,-1.536278 l 2.24993,-1.353456 c 1.11868,-0.672945 2.10556,-1.071284 2.21273,-0.893113 0.10716,0.178149 -0.70715,0.863332 -1.82583,1.536277 z"
                   id="rect3053-6-1"
                   inkscape:connector-curvature="0" />
              </g>
            </g>
          </g>
        </g>
      </g>
    </g>
  </g>
</svg>
