<?xml version="1.0" encoding="UTF-8" standalone="no"?>
<!-- Created with Inkscape (http://www.inkscape.org/) -->

<svg
   xmlns:dc="http://purl.org/dc/elements/1.1/"
   xmlns:cc="http://creativecommons.org/ns#"
   xmlns:rdf="http://www.w3.org/1999/02/22-rdf-syntax-ns#"
   xmlns:svg="http://www.w3.org/2000/svg"
   xmlns="http://www.w3.org/2000/svg"
   xmlns:sodipodi="http://sodipodi.sourceforge.net/DTD/sodipodi-0.dtd"
   xmlns:inkscape="http://www.inkscape.org/namespaces/inkscape"
   width="32px"
   height="32px"
   id="svg3004"
   version="1.1"
   inkscape:version="0.48.3.1 r9886"
   sodipodi:docname="slice2.svg"
   inkscape:export-filename="/home/k00ni/Documents/ow_cubeviz/extensions/cubeviz/public/images/attributeAndMeasure.png"
   inkscape:export-xdpi="90"
   inkscape:export-ydpi="90">
  <defs
     id="defs3006" />
  <sodipodi:namedview
     id="base"
     pagecolor="#ffffff"
     bordercolor="#666666"
     borderopacity="1.0"
     inkscape:pageopacity="0.0"
     inkscape:pageshadow="2"
     inkscape:zoom="15.836083"
     inkscape:cx="0.95156381"
     inkscape:cy="12.072659"
     inkscape:current-layer="layer1"
     showgrid="true"
     inkscape:grid-bbox="true"
     inkscape:document-units="px"
     showguides="true"
     inkscape:guide-bbox="true"
     inkscape:window-width="1920"
     inkscape:window-height="1029"
     inkscape:window-x="0"
     inkscape:window-y="28"
     inkscape:window-maximized="1" />
  <metadata
     id="metadata3009">
    <rdf:RDF>
      <cc:Work
         rdf:about="">
        <dc:format>image/svg+xml</dc:format>
        <dc:type
           rdf:resource="http://purl.org/dc/dcmitype/StillImage" />
        <dc:title></dc:title>
      </cc:Work>
    </rdf:RDF>
  </metadata>
  <g
     id="layer1"
     inkscape:label="Layer 1"
     inkscape:groupmode="layer">
    <path
       sodipodi:type="arc"
       style="fill:#2d2d2d;fill-opacity:1;stroke:none"
       id="path3004-7-6-9-7-2"
       sodipodi:cx="16.607643"
       sodipodi:cy="25.748453"
       sodipodi:rx="2.9047587"
       sodipodi:ry="2.9047587"
       d="m 19.512402,25.748453 a 2.9047587,2.9047587 0 1 1 -5.809518,0 2.9047587,2.9047587 0 1 1 5.809518,0 z"
       transform="matrix(0.77173917,0,0,0.77173917,11.557946,-15.276857)" />
    <path
       sodipodi:type="arc"
       style="fill:#2d2d2d;fill-opacity:1;stroke:none"
       id="path3004-7-6-9-7-2-0"
       sodipodi:cx="16.607643"
       sodipodi:cy="25.748453"
       sodipodi:rx="2.9047587"
       sodipodi:ry="2.9047587"
       d="m 19.512402,25.748453 a 2.9047587,2.9047587 0 1 1 -5.809518,0 2.9047587,2.9047587 0 1 1 5.809518,0 z"
       transform="matrix(0.77173917,0,0,0.77173917,8.0217177,-11.298601)" />
    <path
       sodipodi:type="arc"
       style="fill:#2d2d2d;fill-opacity:1;stroke:none"
       id="path3004-7-6-9-7-2-0-4"
       sodipodi:cx="16.607643"
       sodipodi:cy="25.748453"
       sodipodi:rx="2.9047587"
       sodipodi:ry="2.9047587"
       d="m 19.512402,25.748453 a 2.9047587,2.9047587 0 1 1 -5.809518,0 2.9047587,2.9047587 0 1 1 5.809518,0 z"
       transform="matrix(0.77173917,0,0,0.77173917,13.010325,-10.477691)" />
    <path
       sodipodi:type="arc"
       style="fill:#2d2d2d;fill-opacity:1;stroke:none"
       id="path3004-7-6-9-7-2-0-4-7"
       sodipodi:cx="16.607643"
       sodipodi:cy="25.748453"
       sodipodi:rx="2.9047587"
       sodipodi:ry="2.9047587"
       d="m 19.512402,25.748453 a 2.9047587,2.9047587 0 1 1 -5.809518,0 2.9047587,2.9047587 0 1 1 5.809518,0 z"
       transform="matrix(0.77173917,0,0,0.77173917,10.610743,-6.3731399)" />
    <path
       sodipodi:type="arc"
       style="fill:#2d2d2d;fill-opacity:1;stroke:none"
       id="path3004-7-6-9-7-2-0-4-9"
       sodipodi:cx="16.607643"
       sodipodi:cy="25.748453"
       sodipodi:rx="2.9047587"
       sodipodi:ry="2.9047587"
       d="m 19.512402,25.748453 a 2.9047587,2.9047587 0 1 1 -5.809518,0 2.9047587,2.9047587 0 1 1 5.809518,0 z"
       transform="matrix(0.77173917,0,0,0.77173917,5.5589878,-7.0046093)" />
    <path
       sodipodi:type="arc"
       style="fill:#2d2d2d;fill-opacity:1;stroke:none"
       id="path3004-7-6-9-7-2-9"
       sodipodi:cx="16.607643"
       sodipodi:cy="25.748453"
       sodipodi:rx="2.9047587"
       sodipodi:ry="2.9047587"
       d="m 19.512402,25.748453 a 2.9047587,2.9047587 0 1 1 -5.809518,0 2.9047587,2.9047587 0 1 1 5.809518,0 z"
       transform="matrix(0.77173917,0,0,0.77173917,-5.144417,-15.529445)" />
    <path
       sodipodi:type="arc"
       style="fill:#2d2d2d;fill-opacity:1;stroke:none"
       id="path3004-7-6-9-7-2-0-7"
       sodipodi:cx="16.607643"
       sodipodi:cy="25.748453"
       sodipodi:rx="2.9047587"
       sodipodi:ry="2.9047587"
       d="m 19.512402,25.748453 a 2.9047587,2.9047587 0 1 1 -5.809518,0 2.9047587,2.9047587 0 1 1 5.809518,0 z"
       transform="matrix(0.77173917,0,0,0.77173917,-6.8493842,-10.793426)" />
    <path
       sodipodi:type="arc"
       style="fill:#2d2d2d;fill-opacity:1;stroke:none"
       id="path3004-7-6-9-7-2-0-4-2"
       sodipodi:cx="16.607643"
       sodipodi:cy="25.748453"
       sodipodi:rx="2.9047587"
       sodipodi:ry="2.9047587"
       d="m 19.512402,25.748453 a 2.9047587,2.9047587 0 1 1 -5.809518,0 2.9047587,2.9047587 0 1 1 5.809518,0 z"
       transform="matrix(0.77173917,0,0,0.77173917,-1.8607767,-11.614335)" />
    <path
       sodipodi:type="arc"
       style="fill:#2d2d2d;fill-opacity:1;stroke:none"
       id="path3004-7-6-9-7-2-0-4-7-7"
       sodipodi:cx="16.607643"
       sodipodi:cy="25.748453"
       sodipodi:rx="2.9047587"
       sodipodi:ry="2.9047587"
       d="m 19.512402,25.748453 a 2.9047587,2.9047587 0 1 1 -5.809518,0 2.9047587,2.9047587 0 1 1 5.809518,0 z"
       transform="matrix(0.77173917,0,0,0.77173917,-3.8814777,-7.004609)" />
    <path
       sodipodi:type="arc"
       style="fill:#2d2d2d;fill-opacity:1;stroke:none"
       id="path3004-7-6-9-7-2-09"
       sodipodi:cx="16.607643"
       sodipodi:cy="25.748453"
       sodipodi:rx="2.9047587"
       sodipodi:ry="2.9047587"
       d="m 19.512402,25.748453 a 2.9047587,2.9047587 0 1 1 -5.809518,0 2.9047587,2.9047587 0 1 1 5.809518,0 z"
       transform="matrix(0.77173917,0,0,0.77173917,5.8431486,-15.908327)" />
    <path
       sodipodi:type="arc"
       style="fill:#2d2d2d;fill-opacity:1;stroke:none"
       id="path3004-7-6-9-7-2-0-4-6"
       sodipodi:cx="16.607643"
       sodipodi:cy="25.748453"
       sodipodi:rx="2.9047587"
       sodipodi:ry="2.9047587"
       d="m 19.512402,25.748453 a 2.9047587,2.9047587 0 1 1 -5.809518,0 2.9047587,2.9047587 0 1 1 5.809518,0 z"
       transform="matrix(0.77173917,0,0,0.77173917,2.9383899,-11.55119)" />
    <path
       sodipodi:type="arc"
       style="fill:#2d2d2d;fill-opacity:1;stroke:none"
       id="path3004-7-6-9-7-2-0-4-7-5"
       sodipodi:cx="16.607643"
       sodipodi:cy="25.748453"
       sodipodi:rx="2.9047587"
       sodipodi:ry="2.9047587"
       d="m 19.512402,25.748453 a 2.9047587,2.9047587 0 1 1 -5.809518,0 2.9047587,2.9047587 0 1 1 5.809518,0 z"
       transform="matrix(0.77173917,0,0,0.77173917,0.79139493,-7.0677558)" />
    <path
       sodipodi:type="arc"
       style="fill:#2d2d2d;fill-opacity:1;stroke:none"
       id="path3004-7-6-9-7-2-09-4"
       sodipodi:cx="16.607643"
       sodipodi:cy="25.748453"
       sodipodi:rx="2.9047587"
       sodipodi:ry="2.9047587"
       d="m 19.512402,25.748453 a 2.9047587,2.9047587 0 1 1 -5.809518,0 2.9047587,2.9047587 0 1 1 5.809518,0 z"
       transform="matrix(0.77173917,0,0,0.77173917,0.1914986,-16.22406)" />
    <path
       sodipodi:type="arc"
       style="fill:#2d2d2d;fill-opacity:1;stroke:none"
       id="path3004-7-6-9-7-2-0-4-7-9"
       sodipodi:cx="16.607643"
       sodipodi:cy="25.748453"
       sodipodi:rx="2.9047587"
       sodipodi:ry="2.9047587"
       d="m 19.512402,25.748453 a 2.9047587,2.9047587 0 1 1 -5.809518,0 2.9047587,2.9047587 0 1 1 5.809518,0 z"
       transform="matrix(0.77173917,0,0,0.77173917,15.59935,-5.4890828)" />
    <path
       sodipodi:type="arc"
       style="fill:#2d2d2d;fill-opacity:1;stroke:none"
       id="path3004-7-6-9-7-2-9-0"
       sodipodi:cx="16.607643"
       sodipodi:cy="25.748453"
       sodipodi:rx="2.9047587"
       sodipodi:ry="2.9047587"
       d="m 19.512402,25.748453 a 2.9047587,2.9047587 0 1 1 -5.809518,0 2.9047587,2.9047587 0 1 1 5.809518,0 z"
       transform="matrix(0.77173917,0,0,0.77173917,-8.8385122,-6.3731395)" />
    <path
       sodipodi:type="arc"
       style="fill:#2d2d2d;fill-opacity:1;stroke:none"
       id="path3004-7-6-9-7-2-0-4-7-2"
       sodipodi:cx="16.607643"
       sodipodi:cy="25.748453"
       sodipodi:rx="2.9047587"
       sodipodi:ry="2.9047587"
       d="m 19.512402,25.748453 a 2.9047587,2.9047587 0 1 1 -5.809518,0 2.9047587,2.9047587 0 1 1 5.809518,0 z"
       transform="matrix(0.77173917,0,0,0.77173917,12.347284,-1.6055469)" />
    <path
       sodipodi:type="arc"
       style="fill:#2d2d2d;fill-opacity:1;stroke:none"
       id="path3004-7-6-9-7-2-0-4-9-6"
       sodipodi:cx="16.607643"
       sodipodi:cy="25.748453"
       sodipodi:rx="2.9047587"
       sodipodi:ry="2.9047587"
       d="m 19.512402,25.748453 a 2.9047587,2.9047587 0 1 1 -5.809518,0 2.9047587,2.9047587 0 1 1 5.809518,0 z"
       transform="matrix(0.77173917,0,0,0.77173917,7.611262,-2.4896036)" />
    <path
       sodipodi:type="arc"
       style="fill:#2d2d2d;fill-opacity:1;stroke:none"
       id="path3004-7-6-9-7-2-0-4-7-7-5"
       sodipodi:cx="16.607643"
       sodipodi:cy="25.748453"
       sodipodi:rx="2.9047587"
       sodipodi:ry="2.9047587"
       d="m 19.512402,25.748453 a 2.9047587,2.9047587 0 1 1 -5.809518,0 2.9047587,2.9047587 0 1 1 5.809518,0 z"
       transform="matrix(0.77173917,0,0,0.77173917,2.8436697,-2.4264567)" />
    <path
       sodipodi:type="arc"
       style="fill:#2d2d2d;fill-opacity:1;stroke:none"
       id="path3004-7-6-9-7-2-9-0-1"
       sodipodi:cx="16.607643"
       sodipodi:cy="25.748453"
       sodipodi:rx="2.9047587"
       sodipodi:ry="2.9047587"
       d="m 19.512402,25.748453 a 2.9047587,2.9047587 0 1 1 -5.809518,0 2.9047587,2.9047587 0 1 1 5.809518,0 z"
       transform="matrix(0.77173917,0,0,0.77173917,-1.9870714,-2.3001621)" />
    <path
       sodipodi:type="arc"
       style="fill:#2d2d2d;fill-opacity:1;stroke:none"
       id="path3004-7-6-9-7-2-9-0-1-8"
       sodipodi:cx="16.607643"
       sodipodi:cy="25.748453"
       sodipodi:rx="2.9047587"
       sodipodi:ry="2.9047587"
       d="m 19.512402,25.748453 a 2.9047587,2.9047587 0 1 1 -5.809518,0 2.9047587,2.9047587 0 1 1 5.809518,0 z"
       transform="matrix(0.77173917,0,0,0.77173917,-7.0703982,-2.0160018)" />
    <path
       sodipodi:type="arc"
       style="fill:#2d2d2d;fill-opacity:1;stroke:none"
       id="path3004-7-6-9-7-2-0-4-7-2-6"
       sodipodi:cx="16.607643"
       sodipodi:cy="25.748453"
       sodipodi:rx="2.9047587"
       sodipodi:ry="2.9047587"
       d="m 19.512402,25.748453 a 2.9047587,2.9047587 0 1 1 -5.809518,0 2.9047587,2.9047587 0 1 1 5.809518,0 z"
       transform="matrix(0.77173917,0,0,0.77173917,10.216075,2.8463117)" />
    <path
       sodipodi:type="arc"
       style="fill:#2d2d2d;fill-opacity:1;stroke:none"
       id="path3004-7-6-9-7-2-0-4-9-6-8"
       sodipodi:cx="16.607643"
       sodipodi:cy="25.748453"
       sodipodi:rx="2.9047587"
       sodipodi:ry="2.9047587"
       d="m 19.512402,25.748453 a 2.9047587,2.9047587 0 1 1 -5.809518,0 2.9047587,2.9047587 0 1 1 5.809518,0 z"
       transform="matrix(0.77173917,0,0,0.77173917,5.4800529,1.9622547)" />
    <path
       sodipodi:type="arc"
       style="fill:#2d2d2d;fill-opacity:1;stroke:none"
       id="path3004-7-6-9-7-2-0-4-7-7-5-0"
       sodipodi:cx="16.607643"
       sodipodi:cy="25.748453"
       sodipodi:rx="2.9047587"
       sodipodi:ry="2.9047587"
       d="m 19.512402,25.748453 a 2.9047587,2.9047587 0 1 1 -5.809518,0 2.9047587,2.9047587 0 1 1 5.809518,0 z"
       transform="matrix(0.77173917,0,0,0.77173917,0.7124599,2.0254017)" />
    <path
       sodipodi:type="arc"
       style="fill:#2d2d2d;fill-opacity:1;stroke:none"
       id="path3004-7-6-9-7-2-9-0-1-0"
       sodipodi:cx="16.607643"
       sodipodi:cy="25.748453"
       sodipodi:rx="2.9047587"
       sodipodi:ry="2.9047587"
       d="m 19.512402,25.748453 a 2.9047587,2.9047587 0 1 1 -5.809518,0 2.9047587,2.9047587 0 1 1 5.809518,0 z"
       transform="matrix(0.77173917,0,0,0.77173917,-4.1182811,2.1516967)" />
    <path
       sodipodi:type="arc"
       style="fill:#2d2d2d;fill-opacity:1;stroke:none"
       id="path3004-7-6-9-7-2-9-0-1-8-4"
       sodipodi:cx="16.607643"
       sodipodi:cy="25.748453"
       sodipodi:rx="2.9047587"
       sodipodi:ry="2.9047587"
       d="m 19.512402,25.748453 a 2.9047587,2.9047587 0 1 1 -5.809518,0 2.9047587,2.9047587 0 1 1 5.809518,0 z"
       transform="matrix(0.77173917,0,0,0.77173917,-9.2016081,2.4358567)" />
    <path
       sodipodi:type="arc"
       style="fill:#2d2d2d;fill-opacity:1;stroke:none"
       id="path3004-7-6-9-7-2-0-4-7-2-6-5"
       sodipodi:cx="16.607643"
       sodipodi:cy="25.748453"
       sodipodi:rx="2.9047587"
       sodipodi:ry="2.9047587"
       d="m 19.512402,25.748453 a 2.9047587,2.9047587 0 1 1 -5.809518,0 2.9047587,2.9047587 0 1 1 5.809518,0 z"
       transform="matrix(0.77173917,0,0,0.77173917,15.346761,2.3411362)" />
    <path
       sodipodi:type="arc"
       style="fill:#2d2d2d;fill-opacity:1;stroke:none"
       id="path3004-7-6-9-7-2-0-4-7-2-7"
       sodipodi:cx="16.607643"
       sodipodi:cy="25.748453"
       sodipodi:rx="2.9047587"
       sodipodi:ry="2.9047587"
       d="m 19.512402,25.748453 a 2.9047587,2.9047587 0 1 1 -5.809518,0 2.9047587,2.9047587 0 1 1 5.809518,0 z"
       transform="matrix(0.77173917,0,0,0.77173917,12.994539,6.8877151)" />
    <path
       sodipodi:type="arc"
       style="fill:#2d2d2d;fill-opacity:1;stroke:none"
       id="path3004-7-6-9-7-2-0-4-9-6-9"
       sodipodi:cx="16.607643"
       sodipodi:cy="25.748453"
       sodipodi:rx="2.9047587"
       sodipodi:ry="2.9047587"
       d="m 19.512402,25.748453 a 2.9047587,2.9047587 0 1 1 -5.809518,0 2.9047587,2.9047587 0 1 1 5.809518,0 z"
       transform="matrix(0.77173917,0,0,0.77173917,8.0690762,7.3297436)" />
    <path
       sodipodi:type="arc"
       style="fill:#2d2d2d;fill-opacity:1;stroke:none"
       id="path3004-7-6-9-7-2-0-4-7-7-5-3"
       sodipodi:cx="16.607643"
       sodipodi:cy="25.748453"
       sodipodi:rx="2.9047587"
       sodipodi:ry="2.9047587"
       d="m 19.512402,25.748453 a 2.9047587,2.9047587 0 1 1 -5.809518,0 2.9047587,2.9047587 0 1 1 5.809518,0 z"
       transform="matrix(0.77173917,0,0,0.77173917,3.3646311,6.3193928)" />
    <path
       sodipodi:type="arc"
       style="fill:#2d2d2d;fill-opacity:1;stroke:none"
       id="path3004-7-6-9-7-2-9-0-1-03"
       sodipodi:cx="16.607643"
       sodipodi:cy="25.748453"
       sodipodi:rx="2.9047587"
       sodipodi:ry="2.9047587"
       d="m 19.512402,25.748453 a 2.9047587,2.9047587 0 1 1 -5.809518,0 2.9047587,2.9047587 0 1 1 5.809518,0 z"
       transform="matrix(0.77173917,0,0,0.77173917,-1.46611,6.4456878)" />
    <path
       sodipodi:type="arc"
       style="fill:#2d2d2d;fill-opacity:1;stroke:none"
       id="path3004-7-6-9-7-2-9-0-1-8-1"
       sodipodi:cx="16.607643"
       sodipodi:cy="25.748453"
       sodipodi:rx="2.9047587"
       sodipodi:ry="2.9047587"
       d="m 19.512402,25.748453 a 2.9047587,2.9047587 0 1 1 -5.809518,0 2.9047587,2.9047587 0 1 1 5.809518,0 z"
       transform="matrix(0.77173917,0,0,0.77173917,-6.5494371,6.7298478)" />
    <rect
       style="fill:#ffffff;fill-opacity:1;stroke:none"
       id="rect4244"
       width="3.409934"
       height="29.931644"
       x="9.2825966"
       y="0.17394808" />
    <rect
       style="fill:#ffffff;fill-opacity:1;stroke:none"
       id="rect4244-2"
       width="3.409934"
       height="29.931644"
       x="19.259813"
       y="0.30024168" />
  </g>
</svg>
