<?xml version="1.0" encoding="UTF-8" standalone="no"?>
<!-- Created with Inkscape (http://www.inkscape.org/) -->

<svg
   xmlns:dc="http://purl.org/dc/elements/1.1/"
   xmlns:cc="http://creativecommons.org/ns#"
   xmlns:rdf="http://www.w3.org/1999/02/22-rdf-syntax-ns#"
   xmlns:svg="http://www.w3.org/2000/svg"
   xmlns="http://www.w3.org/2000/svg"
   xmlns:sodipodi="http://sodipodi.sourceforge.net/DTD/sodipodi-0.dtd"
   xmlns:inkscape="http://www.inkscape.org/namespaces/inkscape"
   width="16px"
   height="16px"
   id="svg2985"
   version="1.1"
   inkscape:version="0.48.3.1 r9886"
   sodipodi:docname="2graphs.svg">
  <defs
     id="defs2987" />
  <sodipodi:namedview
     id="base"
     pagecolor="#ffffff"
     bordercolor="#666666"
     borderopacity="1.0"
     inkscape:pageopacity="0.0"
     inkscape:pageshadow="2"
     inkscape:zoom="44.395603"
     inkscape:cx="9.6506762"
     inkscape:cy="6.514133"
     inkscape:current-layer="layer1"
     showgrid="true"
     inkscape:grid-bbox="true"
     inkscape:document-units="px"
     inkscape:window-width="1920"
     inkscape:window-height="1056"
     inkscape:window-x="0"
     inkscape:window-y="24"
     inkscape:window-maximized="1" />
  <metadata
     id="metadata2990">
    <rdf:RDF>
      <cc:Work
         rdf:about="">
        <dc:format>image/svg+xml</dc:format>
        <dc:type
           rdf:resource="http://purl.org/dc/dcmitype/StillImage" />
        <dc:title />
      </cc:Work>
    </rdf:RDF>
  </metadata>
  <g
     id="layer1"
     inkscape:label="Layer 1"
     inkscape:groupmode="layer">
    <path
       sodipodi:type="arc"
       style="fill:#2d2d2d;fill-opacity:1;stroke:none"
       id="path3012-9-6-0-2-2"
       sodipodi:cx="4.1729803"
       sodipodi:cy="6.1568637"
       sodipodi:rx="1.3697568"
       sodipodi:ry="1.3697568"
       d="m 5.5427371,6.1568637 a 1.3697568,1.3697568 0 1 1 -2.7395136,0 1.3697568,1.3697568 0 1 1 2.7395136,0 z"
       transform="matrix(1.5813954,0,0,1.5813954,-4.4468625,-7.5598236)" />
    <rect
       style="fill:#666666;fill-opacity:1;stroke:#2d2d2d;stroke-width:0.60000002;stroke-linecap:round;stroke-linejoin:round;stroke-miterlimit:4;stroke-opacity:1;stroke-dasharray:none"
       id="rect3201"
       width="0.44596735"
       height="8.7282181"
       x="1.9860741"
       y="1.3206335"
       rx="1.2018645"
       ry="0.8536303"
       transform="matrix(0.9999981,0.00194763,-0.00194763,0.9999981,0,0)" />
    <rect
       style="fill:#666666;fill-opacity:1;stroke:#2d2d2d;stroke-width:0.60633487;stroke-linecap:round;stroke-linejoin:round;stroke-miterlimit:4;stroke-opacity:1;stroke-dasharray:none"
       id="rect3201-8"
       width="0.44654953"
       height="8.9018764"
       x="-2.1427402"
       y="3.1289008"
       rx="1.2034335"
       ry="0.87061429"
       transform="matrix(0.1647514,-0.98633512,0.98793857,0.15484634,0,0)" />
    <rect
       style="fill:#666666;fill-opacity:1;stroke:#2d2d2d;stroke-width:0.60000002;stroke-linecap:round;stroke-linejoin:round;stroke-miterlimit:4;stroke-opacity:1;stroke-dasharray:none"
       id="rect3201-8-4-4"
       width="0.44596735"
       height="8.7282181"
       x="15.173813"
       y="-7.5133486"
       rx="1.2018645"
       ry="0.8536303"
       transform="matrix(0.44275405,0.8966431,-0.8966431,0.44275405,0,0)" />
    <path
       sodipodi:type="arc"
       style="fill:#2d2d2d;fill-opacity:1;stroke:none"
       id="path3012-9-6-0-2-2-7"
       sodipodi:cx="4.1729803"
       sodipodi:cy="6.1568637"
       sodipodi:rx="1.3697568"
       sodipodi:ry="1.3697568"
       d="m 5.5427371,6.1568637 a 1.3697568,1.3697568 0 1 1 -2.7395136,0 1.3697568,1.3697568 0 1 1 2.7395136,0 z"
       transform="matrix(1.5813954,0,0,1.5813954,5.730944,-5.9693465)" />
    <path
       sodipodi:type="arc"
       style="fill:#2d2d2d;fill-opacity:1;stroke:none"
       id="path3012-9-6-0-2-2-3"
       sodipodi:cx="4.1729803"
       sodipodi:cy="6.1568637"
       sodipodi:rx="1.3697568"
       sodipodi:ry="1.3697568"
       d="m 5.5427371,6.1568637 a 1.3697568,1.3697568 0 1 1 -2.7395136,0 1.3697568,1.3697568 0 1 1 2.7395136,0 z"
       transform="matrix(1.477625,-0.56341437,0.56341437,1.477625,4.2611212,3.6778762)" />
    <path
       sodipodi:type="arc"
       style="fill:#2d2d2d;fill-opacity:1;stroke:none"
       id="path3012-9-6-0-2-2-3-2"
       sodipodi:cx="4.1729803"
       sodipodi:cy="6.1568637"
       sodipodi:rx="1.3697568"
       sodipodi:ry="1.3697568"
       d="m 5.5427371,6.1568637 a 1.3697568,1.3697568 0 1 1 -2.7395136,0 1.3697568,1.3697568 0 1 1 2.7395136,0 z"
       transform="matrix(1.477625,-0.56341437,0.56341437,1.477625,-4.0436369,7.0869672)" />
    <path
       sodipodi:type="arc"
       style="fill:#2d2d2d;fill-opacity:1;stroke:none"
       id="path3012-9-6-0-2-2-3-2-7"
       sodipodi:cx="4.1729803"
       sodipodi:cy="6.1568637"
       sodipodi:rx="1.3697568"
       sodipodi:ry="1.3697568"
       d="m 5.5427371,6.1568637 a 1.3697568,1.3697568 0 1 1 -2.7395136,0 1.3697568,1.3697568 0 1 1 2.7395136,0 z"
       transform="matrix(1.5813954,0,0,1.5813954,-4.4182093,-0.76955766)" />
  </g>
</svg>
