<?xml version="1.0" encoding="UTF-8" standalone="no"?>
<!-- Created with Inkscape (http://www.inkscape.org/) -->

<svg
   xmlns:dc="http://purl.org/dc/elements/1.1/"
   xmlns:cc="http://creativecommons.org/ns#"
   xmlns:rdf="http://www.w3.org/1999/02/22-rdf-syntax-ns#"
   xmlns:svg="http://www.w3.org/2000/svg"
   xmlns="http://www.w3.org/2000/svg"
   xmlns:sodipodi="http://sodipodi.sourceforge.net/DTD/sodipodi-0.dtd"
   xmlns:inkscape="http://www.inkscape.org/namespaces/inkscape"
   width="32"
   height="32"
   id="svg2985"
   version="1.1"
   inkscape:version="0.48.3.1 r9886"
   sodipodi:docname="bipartite_graph.svg">
  <defs
     id="defs2987" />
  <sodipodi:namedview
     id="base"
     pagecolor="#ffffff"
     bordercolor="#666666"
     borderopacity="1.0"
     inkscape:pageopacity="0.0"
     inkscape:pageshadow="2"
     inkscape:zoom="15.696216"
     inkscape:cx="4.191103"
     inkscape:cy="4.7991422"
     inkscape:current-layer="layer1"
     showgrid="true"
     inkscape:grid-bbox="true"
     inkscape:document-units="px"
     inkscape:window-width="1920"
     inkscape:window-height="1056"
     inkscape:window-x="0"
     inkscape:window-y="24"
     inkscape:window-maximized="1" />
  <metadata
     id="metadata2990">
    <rdf:RDF>
      <cc:Work
         rdf:about="">
        <dc:format>image/svg+xml</dc:format>
        <dc:type
           rdf:resource="http://purl.org/dc/dcmitype/StillImage" />
        <dc:title />
      </cc:Work>
    </rdf:RDF>
  </metadata>
  <g
     id="layer1"
     inkscape:label="Layer 1"
     inkscape:groupmode="layer"
     transform="translate(0,16)">
    <path
       sodipodi:type="arc"
       style="fill:#2d2d2d;fill-opacity:1;stroke:none"
       id="path3012-9"
       sodipodi:cx="4.1729803"
       sodipodi:cy="6.1568637"
       sodipodi:rx="1.3697568"
       sodipodi:ry="1.3697568"
       d="m 5.5427371,6.1568637 a 1.3697568,1.3697568 0 1 1 -2.7395136,0 1.3697568,1.3697568 0 1 1 2.7395136,0 z"
       transform="matrix(3.7054898,0,0,3.7054898,11.17385,-12.281609)" />
    <path
       sodipodi:type="arc"
       style="fill:#2d2d2d;fill-opacity:1;stroke:none"
       id="path3012-9-6-0"
       sodipodi:cx="4.1729803"
       sodipodi:cy="6.1568637"
       sodipodi:rx="1.3697568"
       sodipodi:ry="1.3697568"
       d="m 5.5427371,6.1568637 a 1.3697568,1.3697568 0 1 1 -2.7395136,0 1.3697568,1.3697568 0 1 1 2.7395136,0 z"
       transform="matrix(2.8028704,0,0,2.8028704,16.43712,-16.289897)" />
    <path
       sodipodi:type="arc"
       style="fill:#2d2d2d;fill-opacity:1;stroke:none"
       id="path3012-9-6-2"
       sodipodi:cx="4.1729803"
       sodipodi:cy="6.1568637"
       sodipodi:rx="1.3697568"
       sodipodi:ry="1.3697568"
       d="m 5.5427371,6.1568637 a 1.3697568,1.3697568 0 1 1 -2.7395136,0 1.3697568,1.3697568 0 1 1 2.7395136,0 z"
       transform="matrix(1.8751856,0,0,1.8751856,-5.1610001,-23.865151)" />
    <path
       sodipodi:type="arc"
       style="fill:#2d2d2d;fill-opacity:1;stroke:none"
       id="path3012-9-6-2-6"
       sodipodi:cx="4.1729803"
       sodipodi:cy="6.1568637"
       sodipodi:rx="1.3697568"
       sodipodi:ry="1.3697568"
       d="m 5.5427371,6.1568637 a 1.3697568,1.3697568 0 1 1 -2.7395136,0 1.3697568,1.3697568 0 1 1 2.7395136,0 z"
       transform="matrix(1.8527449,0,0,1.8527449,16.75794,-16.296587)" />
    <path
       sodipodi:type="arc"
       style="fill:#2d2d2d;fill-opacity:1;stroke:none"
       id="path3012-9-6-0-9"
       sodipodi:cx="4.1729803"
       sodipodi:cy="6.1568637"
       sodipodi:rx="1.3697568"
       sodipodi:ry="1.3697568"
       d="m 5.5427371,6.1568637 a 1.3697568,1.3697568 0 1 1 -2.7395136,0 1.3697568,1.3697568 0 1 1 2.7395136,0 z"
       transform="matrix(2.8368191,0,0,2.8368191,-6.539469,-23.199778)" />
    <path
       sodipodi:type="arc"
       style="fill:#2d2d2d;fill-opacity:1;stroke:none"
       id="path3012-9-6-0-9-4"
       sodipodi:cx="4.1729803"
       sodipodi:cy="6.1568637"
       sodipodi:rx="1.3697568"
       sodipodi:ry="1.3697568"
       d="m 5.5427371,6.1568637 a 1.3697568,1.3697568 0 1 1 -2.7395136,0 1.3697568,1.3697568 0 1 1 2.7395136,0 z"
       transform="matrix(2.4040841,0,0,2.4040841,-5.9850183,-13.093283)" />
    <path
       sodipodi:type="arc"
       style="fill:#2d2d2d;fill-opacity:1;stroke:none"
       id="path3012-9-6-0-9-4-1"
       sodipodi:cx="4.1729803"
       sodipodi:cy="6.1568637"
       sodipodi:rx="1.3697568"
       sodipodi:ry="1.3697568"
       d="m 5.5427371,6.1568637 a 1.3697568,1.3697568 0 1 1 -2.7395136,0 1.3697568,1.3697568 0 1 1 2.7395136,0 z"
       transform="matrix(1.8751856,0,0,1.8751856,1.02986,-5.0291314)" />
    <path
       sodipodi:type="arc"
       style="fill:#2d2d2d;fill-opacity:1;stroke:none"
       id="path3012-9-6-2-6-9"
       sodipodi:cx="4.1729803"
       sodipodi:cy="6.1568637"
       sodipodi:rx="1.3697568"
       sodipodi:ry="1.3697568"
       d="m 5.5427371,6.1568637 a 1.3697568,1.3697568 0 1 1 -2.7395136,0 1.3697568,1.3697568 0 1 1 2.7395136,0 z"
       transform="matrix(1.8527449,0,0,1.8527449,16.10722,-24.755954)" />
    <path
       sodipodi:type="arc"
       style="fill:#2d2d2d;fill-opacity:1;stroke:none"
       id="path3012-9-6-0-9-4-1-9"
       sodipodi:cx="4.1729803"
       sodipodi:cy="6.1568637"
       sodipodi:rx="1.3697568"
       sodipodi:ry="1.3697568"
       d="m 5.5427371,6.1568637 a 1.3697568,1.3697568 0 1 1 -2.7395136,0 1.3697568,1.3697568 0 1 1 2.7395136,0 z"
       transform="matrix(1.8751856,0,0,1.8751856,-4.6341182,-3.4484867)" />
    <path
       sodipodi:type="arc"
       style="fill:#2d2d2d;fill-opacity:1;stroke:none"
       id="path3012-9-6-0-9-4-1-9-1"
       sodipodi:cx="4.1729803"
       sodipodi:cy="6.1568637"
       sodipodi:rx="1.3697568"
       sodipodi:ry="1.3697568"
       d="m 5.5427371,6.1568637 a 1.3697568,1.3697568 0 1 1 -2.7395136,0 1.3697568,1.3697568 0 1 1 2.7395136,0 z"
       transform="matrix(1.8527449,0,0,1.8527449,20.271832,-20.981775)" />
    <path
       sodipodi:type="arc"
       style="fill:#2d2d2d;fill-opacity:1;stroke:none"
       id="path3012-9-6-0-9-8"
       sodipodi:cx="4.1729803"
       sodipodi:cy="6.1568637"
       sodipodi:rx="1.3697568"
       sodipodi:ry="1.3697568"
       d="m 5.5427371,6.1568637 a 1.3697568,1.3697568 0 1 1 -2.7395136,0 1.3697568,1.3697568 0 1 1 2.7395136,0 z"
       transform="matrix(2.8368191,0,0,2.8368191,-0.34860941,-29.522358)" />
    <path
       sodipodi:type="arc"
       style="fill:#2d2d2d;fill-opacity:1;stroke:none"
       id="path3012-9-6-0-9-4-7"
       sodipodi:cx="4.1729803"
       sodipodi:cy="6.1568637"
       sodipodi:rx="1.3697568"
       sodipodi:ry="1.3697568"
       d="m 5.5427371,6.1568637 a 1.3697568,1.3697568 0 1 1 -2.7395136,0 1.3697568,1.3697568 0 1 1 2.7395136,0 z"
       transform="matrix(2.4040841,0,0,2.4040841,0.13998111,-2.0946285)" />
  </g>
</svg>
