<?xml version="1.0" encoding="UTF-8" standalone="no"?>
<!-- Created with Inkscape (http://www.inkscape.org/) -->

<svg
   xmlns:dc="http://purl.org/dc/elements/1.1/"
   xmlns:cc="http://creativecommons.org/ns#"
   xmlns:rdf="http://www.w3.org/1999/02/22-rdf-syntax-ns#"
   xmlns:svg="http://www.w3.org/2000/svg"
   xmlns="http://www.w3.org/2000/svg"
   xmlns:sodipodi="http://sodipodi.sourceforge.net/DTD/sodipodi-0.dtd"
   xmlns:inkscape="http://www.inkscape.org/namespaces/inkscape"
   width="16px"
   height="16px"
   id="svg2985"
   version="1.1"
   inkscape:version="0.48.3.1 r9886"
   sodipodi:docname="circle.svg">
  <defs
     id="defs2987" />
  <sodipodi:namedview
     id="base"
     pagecolor="#ffffff"
     bordercolor="#666666"
     borderopacity="1.0"
     inkscape:pageopacity="0.0"
     inkscape:pageshadow="2"
     inkscape:zoom="15.696216"
     inkscape:cx="13.811256"
     inkscape:cy="5.4680932"
     inkscape:current-layer="layer1"
     showgrid="true"
     inkscape:grid-bbox="true"
     inkscape:document-units="px"
     inkscape:window-width="1366"
     inkscape:window-height="719"
     inkscape:window-x="0"
     inkscape:window-y="25"
     inkscape:window-maximized="1" />
  <metadata
     id="metadata2990">
    <rdf:RDF>
      <cc:Work
         rdf:about="">
        <dc:format>image/svg+xml</dc:format>
        <dc:type
           rdf:resource="http://purl.org/dc/dcmitype/StillImage" />
        <dc:title></dc:title>
      </cc:Work>
    </rdf:RDF>
  </metadata>
  <g
     id="layer1"
     inkscape:label="Layer 1"
     inkscape:groupmode="layer">
    <path
       sodipodi:type="arc"
       style="fill:#2d2d2d;fill-opacity:1;stroke:none"
       id="path3012-9-6-0-2-2"
       sodipodi:cx="4.1729803"
       sodipodi:cy="6.1568637"
       sodipodi:rx="1.3697568"
       sodipodi:ry="1.3697568"
       d="m 5.5427371,6.1568637 a 1.3697568,1.3697568 0 1 1 -2.7395136,0 1.3697568,1.3697568 0 1 1 2.7395136,0 z"
       transform="matrix(1.5813954,0,0,1.5813954,-4.0188921,-7.4021503)" />
    <rect
       style="fill:#666666;fill-opacity:1;stroke:#2d2d2d;stroke-width:0.60000002;stroke-linecap:round;stroke-linejoin:round;stroke-miterlimit:4;stroke-opacity:1;stroke-dasharray:none"
       id="rect3201"
       width="0.44596735"
       height="8.7282181"
       x="1.728091"
       y="1.0598025"
       rx="1.2018645"
       ry="0.8536303"
       transform="matrix(0.99894599,-0.04590113,0.04590113,0.99894599,0,0)" />
    <rect
       style="fill:#666666;fill-opacity:1;stroke:#2d2d2d;stroke-width:0.60633487;stroke-linecap:round;stroke-linejoin:round;stroke-miterlimit:4;stroke-opacity:1;stroke-dasharray:none"
       id="rect3201-8"
       width="0.44654953"
       height="8.9018764"
       x="-2.1427402"
       y="3.1289008"
       rx="1.2034335"
       ry="0.87061429"
       transform="matrix(0.1647514,-0.98633512,0.98793857,0.15484634,0,0)" />
    <rect
       style="fill:#666666;fill-opacity:1;stroke:#2d2d2d;stroke-width:0.60000002;stroke-linecap:round;stroke-linejoin:round;stroke-miterlimit:4;stroke-opacity:1;stroke-dasharray:none"
       id="rect3201-8-4"
       width="0.44596735"
       height="8.7282181"
       x="-12.109853"
       y="-15.646173"
       rx="1.2018645"
       ry="0.8536303"
       transform="matrix(-0.98871734,0.14979329,-0.14979329,-0.98871734,0,0)" />
    <rect
       style="fill:#666666;fill-opacity:1;stroke:#2d2d2d;stroke-width:0.60000002;stroke-linecap:round;stroke-linejoin:round;stroke-miterlimit:4;stroke-opacity:1;stroke-dasharray:none"
       id="rect3201-8-4-4"
       width="0.44596735"
       height="8.7282181"
       x="13.046406"
       y="-14.251314"
       rx="1.2018645"
       ry="0.8536303"
       transform="matrix(-0.03877031,0.99924815,-0.99924815,-0.03877031,0,0)" />
    <rect
       style="fill:#666666;fill-opacity:1;stroke:#2d2d2d;stroke-width:0.60000002;stroke-linecap:round;stroke-linejoin:round;stroke-miterlimit:4;stroke-opacity:1;stroke-dasharray:none"
       id="rect3201-7"
       width="0.44596735"
       height="8.7282181"
       x="-1.7648239"
       y="6.9032655"
       rx="1.2018645"
       ry="0.8536303"
       transform="matrix(0.90332953,-0.42894727,0.42894727,0.90332953,0,0)" />
    <path
       sodipodi:type="arc"
       style="fill:#2d2d2d;fill-opacity:1;stroke:none"
       id="path3012-9-6-0-2-2-7"
       sodipodi:cx="4.1729803"
       sodipodi:cy="6.1568637"
       sodipodi:rx="1.3697568"
       sodipodi:ry="1.3697568"
       d="m 5.5427371,6.1568637 a 1.3697568,1.3697568 0 1 1 -2.7395136,0 1.3697568,1.3697568 0 1 1 2.7395136,0 z"
       transform="matrix(1.5813954,0,0,1.5813954,5.5056965,-5.5864257)" />
    <path
       sodipodi:type="arc"
       style="fill:#2d2d2d;fill-opacity:1;stroke:none"
       id="path3012-9-6-0-2-2-3"
       sodipodi:cx="4.1729803"
       sodipodi:cy="6.1568637"
       sodipodi:rx="1.3697568"
       sodipodi:ry="1.3697568"
       d="m 5.5427371,6.1568637 a 1.3697568,1.3697568 0 1 1 -2.7395136,0 1.3697568,1.3697568 0 1 1 2.7395136,0 z"
       transform="matrix(1.5813954,0,0,1.5813954,7.4169852,3.8425985)" />
    <path
       sodipodi:type="arc"
       style="fill:#2d2d2d;fill-opacity:1;stroke:none"
       id="path3012-9-6-0-2-2-3-2"
       sodipodi:cx="4.1729803"
       sodipodi:cy="6.1568637"
       sodipodi:rx="1.3697568"
       sodipodi:ry="1.3697568"
       d="m 5.5427371,6.1568637 a 1.3697568,1.3697568 0 1 1 -2.7395136,0 1.3697568,1.3697568 0 1 1 2.7395136,0 z"
       transform="matrix(1.5813954,0,0,1.5813954,-1.3749428,3.9700177)" />
    <path
       sodipodi:type="arc"
       style="fill:#2d2d2d;fill-opacity:1;stroke:none"
       id="path3012-9-6-0-2-2-3-2-7"
       sodipodi:cx="4.1729803"
       sodipodi:cy="6.1568637"
       sodipodi:rx="1.3697568"
       sodipodi:ry="1.3697568"
       d="m 5.5427371,6.1568637 a 1.3697568,1.3697568 0 1 1 -2.7395136,0 1.3697568,1.3697568 0 1 1 2.7395136,0 z"
       transform="matrix(1.5813954,0,0,1.5813954,-4.3055855,-1.4453002)" />
  </g>
</svg>
