<?xml version="1.0" encoding="UTF-8" standalone="no"?>
<!-- Created with Inkscape (http://www.inkscape.org/) -->

<svg
   xmlns:dc="http://purl.org/dc/elements/1.1/"
   xmlns:cc="http://creativecommons.org/ns#"
   xmlns:rdf="http://www.w3.org/1999/02/22-rdf-syntax-ns#"
   xmlns:svg="http://www.w3.org/2000/svg"
   xmlns="http://www.w3.org/2000/svg"
   xmlns:sodipodi="http://sodipodi.sourceforge.net/DTD/sodipodi-0.dtd"
   xmlns:inkscape="http://www.inkscape.org/namespaces/inkscape"
   width="48px"
   height="48px"
   id="svg3765"
   version="1.1"
   inkscape:version="0.48.3.1 r9886"
   sodipodi:docname="cube.svg"
   inkscape:export-filename="/home/k00ni/Documents/semicon/owl.png"
   inkscape:export-xdpi="90"
   inkscape:export-ydpi="90">
  <defs
     id="defs3767" />
  <sodipodi:namedview
     id="base"
     pagecolor="#ffffff"
     bordercolor="#666666"
     borderopacity="1.0"
     inkscape:pageopacity="0.0"
     inkscape:pageshadow="2"
     inkscape:zoom="9.8994949"
     inkscape:cx="22.043737"
     inkscape:cy="28.592688"
     inkscape:current-layer="layer1-9"
     showgrid="true"
     inkscape:grid-bbox="true"
     inkscape:document-units="px"
     inkscape:window-width="1366"
     inkscape:window-height="744"
     inkscape:window-x="0"
     inkscape:window-y="24"
     inkscape:window-maximized="1" />
  <metadata
     id="metadata3770">
    <rdf:RDF>
      <cc:Work
         rdf:about="">
        <dc:format>image/svg+xml</dc:format>
        <dc:type
           rdf:resource="http://purl.org/dc/dcmitype/StillImage" />
        <dc:title></dc:title>
      </cc:Work>
    </rdf:RDF>
  </metadata>
  <g
     id="layer1"
     inkscape:label="Layer 1"
     inkscape:groupmode="layer">
    <g
       inkscape:label="Layer 1"
       id="layer1-4"
       transform="translate(0.20202972,-1.9622142e-8)">
      <g
         transform="translate(-0.37059768,-0.09089584)"
         id="layer1-9"
         inkscape:label="Layer 1">
        <path
           sodipodi:type="arc"
           style="fill:#2d2d2d;fill-opacity:1;stroke:none"
           id="path3773-80"
           sodipodi:cx="29.285715"
           sodipodi:cy="24.428572"
           sodipodi:rx="23.714285"
           sodipodi:ry="23.714285"
           d="M 53,24.428572 C 53,37.52561 42.382753,48.142857 29.285715,48.142857 16.188677,48.142857 5.5714302,37.52561 5.5714302,24.428572 5.5714302,11.331534 16.188677,0.7142868 29.285715,0.7142868 42.382753,0.7142868 53,11.331534 53,24.428572 z"
           transform="matrix(0.99063909,0,0,0.99063908,-4.7003607,-0.15063258)" />
        <path
           inkscape:connector-curvature="0"
           id="path3118"
           style="font-size:13.87295628px;font-style:normal;font-variant:normal;font-weight:bold;font-stretch:normal;line-height:125%;letter-spacing:0px;word-spacing:0px;fill:#ffffff;fill-opacity:1;stroke:none;font-family:Ubuntu;-inkscape-font-specification:Ubuntu Bold"
           d="m 9.9657045,28.952921 c -1.5630231,0 -2.7560961,-0.434686 -3.5792221,-1.304058 -0.8138812,-0.86937 -1.2208209,-2.104062 -1.2208202,-3.704079 -7e-7,-0.795378 0.1248558,-1.502898 0.3745699,-2.122563 0.2497119,-0.628899 0.5919111,-1.156071 1.0265987,-1.581517 0.4346835,-0.434677 0.9526066,-0.763003 1.5537711,-0.98498 0.6011572,-0.221957 1.2531846,-0.332941 1.9560861,-0.33295 0.406934,9e-6 0.776879,0.03238 1.109836,0.09711 0.332944,0.0555 0.624276,0.124866 0.873997,0.208095 0.249705,0.074 0.457799,0.152611 0.624283,0.23584 0.166467,0.08325 0.286699,0.147987 0.360696,0.194221 l -0.624283,1.747993 c -0.295964,-0.15722 -0.642787,-0.291325 -1.040471,-0.402316 -0.38845,-0.110976 -0.832384,-0.166468 -1.331804,-0.166476 -0.3329555,8e-6 -0.6612825,0.0555 -0.9849795,0.166476 -0.3144575,0.110991 -0.5965407,0.291339 -0.8462499,0.541045 -0.2404681,0.240472 -0.4346893,0.554925 -0.5826641,0.943361 -0.1479813,0.388449 -0.2219703,0.860129 -0.2219673,1.415042 -3e-6,0.443939 0.04624,0.860127 0.1387295,1.248566 0.1017319,0.379197 0.2589585,0.707524 0.4716805,0.98498 0.2219636,0.277461 0.508671,0.499428 0.8601238,0.665902 0.3514425,0.157228 0.7768795,0.235842 1.27631,0.23584 0.314448,2e-6 0.596531,-0.0185 0.846251,-0.05549 0.249706,-0.03699 0.471673,-0.07861 0.665902,-0.124857 0.194214,-0.05549 0.365313,-0.115605 0.513299,-0.180348 0.14797,-0.06474 0.282076,-0.124854 0.402316,-0.180348 l 0.596537,1.734119 c -0.305213,0.184973 -0.735275,0.351449 -1.290185,0.499427 -0.554925,0.147978 -1.197705,0.221967 -1.9283405,0.221967" />
        <path
           inkscape:connector-curvature="0"
           id="path3120"
           style="font-size:13.87295628px;font-style:normal;font-variant:normal;font-weight:bold;font-stretch:normal;line-height:125%;letter-spacing:0px;word-spacing:0px;fill:#ffffff;fill-opacity:1;stroke:none;font-family:Ubuntu;-inkscape-font-specification:Ubuntu Bold"
           d="m 18.943258,28.952921 c -0.675155,0 -1.257819,-0.09249 -1.747993,-0.277459 -0.49018,-0.194221 -0.89712,-0.457807 -1.22082,-0.790759 C 15.65999,27.542505 15.42415,27.14019 15.266924,26.677756 15.118945,26.206078 15.044956,25.688155 15.044957,25.123985 l 0,-5.979244 2.164181,0 0,5.798896 c -3e-6,0.388446 0.04162,0.721396 0.124857,0.998852 0.09248,0.268213 0.212715,0.49018 0.360697,0.665902 0.157223,0.166478 0.342195,0.28671 0.554918,0.360697 0.221963,0.07399 0.462427,0.110985 0.721394,0.110984 0.527167,10e-7 0.952604,-0.16185 1.276312,-0.485554 0.332944,-0.323699 0.499419,-0.873993 0.499426,-1.650881 l 0,-5.798896 2.164181,0 0,5.979244 c -9e-6,0.56417 -0.07862,1.082093 -0.23584,1.553771 -0.157235,0.471682 -0.3977,0.878622 -0.721394,1.22082 -0.32371,0.332952 -0.735274,0.591913 -1.234693,0.776886 -0.499432,0.184972 -1.091345,0.277459 -1.775738,0.277459" />
        <path
           inkscape:connector-curvature="0"
           id="path3122"
           style="font-size:13.87295628px;font-style:normal;font-variant:normal;font-weight:bold;font-stretch:normal;line-height:125%;letter-spacing:0px;word-spacing:0px;fill:#ffffff;fill-opacity:1;stroke:none;font-family:Ubuntu;-inkscape-font-specification:Ubuntu Bold"
           d="m 29.005076,28.883556 c -0.527176,0 -1.054348,-0.0185 -1.581517,-0.05549 -0.517926,-0.02775 -1.05897,-0.101735 -1.623136,-0.221967 l 0,-9.322627 c 0.443933,-0.08323 0.929486,-0.143344 1.456661,-0.180348 0.527169,-0.04623 1.017346,-0.06935 1.470533,-0.06936 0.610406,10e-6 1.169948,0.04625 1.678628,0.13873 0.517917,0.08325 0.961851,0.231225 1.331804,0.443934 0.369938,0.212728 0.656645,0.494811 0.860123,0.846251 0.21271,0.342207 0.31907,0.767644 0.319078,1.276312 -8e-6,0.767643 -0.369953,1.373428 -1.109837,1.817357 0.610403,0.231221 1.026591,0.545674 1.248566,0.943361 0.221959,0.397695 0.332943,0.846254 0.332951,1.345677 -8e-6,1.008103 -0.369953,1.766491 -1.109836,2.275165 -0.730649,0.508675 -1.821987,0.763012 -3.274018,0.763012 m -1.095963,-4.314489 0,2.483259 c 0.157223,0.0185 0.328323,0.03237 0.513299,0.04162 0.184969,0.0093 0.388439,0.01387 0.61041,0.01387 0.6474,1e-6 1.169947,-0.09248 1.567644,-0.277459 0.397685,-0.184971 0.596531,-0.52717 0.596537,-1.026599 -6e-6,-0.443931 -0.166481,-0.758385 -0.499426,-0.943361 -0.332957,-0.194218 -0.809261,-0.291328 -1.428915,-0.291332 l -1.359549,0 m 0,-1.650882 1.054344,0 c 0.665897,6e-6 1.142202,-0.08323 1.428915,-0.249713 0.286702,-0.175718 0.430055,-0.453177 0.430062,-0.832378 -7e-6,-0.388435 -0.147985,-0.66127 -0.443935,-0.818504 -0.295962,-0.157219 -0.730647,-0.235832 -1.304058,-0.23584 -0.184977,8e-6 -0.383822,0.0046 -0.596537,0.01387 -0.212722,8e-6 -0.402319,0.0093 -0.568791,0.02775 l 0,2.094816" />
        <path
           inkscape:connector-curvature="0"
           id="path3124"
           style="font-size:13.87295628px;font-style:normal;font-variant:normal;font-weight:bold;font-stretch:normal;line-height:125%;letter-spacing:0px;word-spacing:0px;fill:#ffffff;fill-opacity:1;stroke:none;font-family:Ubuntu;-inkscape-font-specification:Ubuntu Bold"
           d="m 36.131469,28.7587 0,-9.613959 6.492543,0 0,1.817357 -4.328362,0 0,1.886722 3.842809,0 0,1.775739 -3.842809,0 0,2.316783 4.64744,0 0,1.817358 -6.811621,0" />
      </g>
    </g>
  </g>
</svg>
