<?xml version="1.0" encoding="UTF-8" standalone="no"?>
<!-- Created with Inkscape (http://www.inkscape.org/) -->

<svg
   xmlns:dc="http://purl.org/dc/elements/1.1/"
   xmlns:cc="http://creativecommons.org/ns#"
   xmlns:rdf="http://www.w3.org/1999/02/22-rdf-syntax-ns#"
   xmlns:svg="http://www.w3.org/2000/svg"
   xmlns="http://www.w3.org/2000/svg"
   xmlns:sodipodi="http://sodipodi.sourceforge.net/DTD/sodipodi-0.dtd"
   xmlns:inkscape="http://www.inkscape.org/namespaces/inkscape"
   width="16"
   height="16"
   id="svg3765"
   version="1.1"
   inkscape:version="0.48.3.1 r9886"
   sodipodi:docname="datacube.svg"
   inkscape:export-filename="/home/k00ni/Documents/semicon/owl.png"
   inkscape:export-xdpi="90"
   inkscape:export-ydpi="90">
  <defs
     id="defs3767" />
  <sodipodi:namedview
     id="base"
     pagecolor="#ffffff"
     bordercolor="#666666"
     borderopacity="1.0"
     inkscape:pageopacity="0.0"
     inkscape:pageshadow="2"
     inkscape:zoom="28"
     inkscape:cx="4.1160716"
     inkscape:cy="7.9165488"
     inkscape:current-layer="layer1-9-3"
     showgrid="true"
     inkscape:grid-bbox="true"
     inkscape:document-units="px"
     inkscape:window-width="1366"
     inkscape:window-height="719"
     inkscape:window-x="0"
     inkscape:window-y="25"
     inkscape:window-maximized="1"
     showguides="true"
     inkscape:guide-bbox="true" />
  <metadata
     id="metadata3770">
    <rdf:RDF>
      <cc:Work
         rdf:about="">
        <dc:format>image/svg+xml</dc:format>
        <dc:type
           rdf:resource="http://purl.org/dc/dcmitype/StillImage" />
        <dc:title />
      </cc:Work>
    </rdf:RDF>
  </metadata>
  <g
     id="layer1"
     inkscape:label="Layer 1"
     inkscape:groupmode="layer"
     transform="translate(0,-32)">
    <g
       inkscape:label="Layer 1"
       id="layer1-4"
       transform="translate(0.20202972,-1.9622142e-8)">
      <g
         transform="translate(-0.37059768,-0.09089584)"
         id="layer1-9"
         inkscape:label="Layer 1">
        <g
           inkscape:label="Layer 1"
           id="layer1-9-3"
           transform="translate(-44.951788,-4.1416259)">
          <g
             transform="matrix(0.70710678,-0.70710678,0.70710678,0.70710678,12,2.8928571)"
             style="font-size:33.39640427px;font-style:normal;font-weight:normal;line-height:125%;letter-spacing:0px;word-spacing:0px;fill:#2d2d2d;fill-opacity:1;stroke:none;font-family:Sans"
             id="text2993-4-5">
            <path
               d="m -3.7463968,58.2397 c -1.4e-6,0.232826 0.027389,0.442822 0.082173,0.629991 0.059346,0.187173 0.141518,0.349236 0.2465181,0.486189 0.1095618,0.13239 0.2419511,0.235106 0.3971681,0.308148 0.1552129,0.07304 0.3332535,0.109563 0.5341227,0.109563 0.1962985,0 0.3720566,-0.03652 0.5272749,-0.109563 0.1597768,-0.07305 0.2921661,-0.175758 0.3971681,-0.308148 0.1095598,-0.136953 0.1917325,-0.299016 0.2465181,-0.486189 0.059343,-0.187169 0.089017,-0.397165 0.08902,-0.629991 -4.1e-6,-0.232819 -0.029677,-0.442816 -0.08902,-0.62999 -0.054785,-0.191733 -0.1369583,-0.353796 -0.2465181,-0.486189 -0.105002,-0.136951 -0.2373913,-0.241949 -0.3971681,-0.314996 -0.1552183,-0.07304 -0.3309764,-0.109559 -0.5272749,-0.109562 -0.2008692,3e-6 -0.3789098,0.03881 -0.5341227,0.116411 -0.155217,0.07304 -0.2876063,0.178044 -0.3971681,0.314995 -0.1050001,0.132393 -0.1871727,0.294456 -0.2465181,0.486189 -0.054784,0.187173 -0.082174,0.394887 -0.082173,0.623142 m 3.62244706,0 c -5.14e-6,0.333259 -0.0410923,0.634558 -0.12325918,0.9039 -0.0821773,0.26478 -0.19858878,0.497602 -0.34923393,0.698468 -0.14608937,0.200867 -0.32184742,0.367496 -0.52727495,0.499885 -0.2054356,0.132389 -0.4314104,0.228257 -0.6779248,0.287605 0.022823,0.0913 0.073039,0.164344 0.1506499,0.219126 0.077604,0.05935 0.1757545,0.107281 0.2944523,0.143802 0.1186898,0.03653 0.2556443,0.06392 0.41086343,0.08217 0.15977591,0.01826 0.33096899,0.03424 0.51357951,0.04794 l -0.21912725,0.780638 C -1.0073107,61.889535 -1.3131754,61.853017 -1.56882,61.79367 -1.8199067,61.738885 -2.0344685,61.661279 -2.2125061,61.560848 -2.3859848,61.460413 -2.5252217,61.337154 -2.6302175,61.19107 -2.7306533,61.044985 -2.8082607,60.876074 -2.8630402,60.68434 -3.1460816,60.647813 -3.4085775,60.57021 -3.6505286,60.451515 -3.8924829,60.328258 -4.1024796,60.163912 -4.2805194,59.95848 -4.458561,59.753049 -4.5977979,59.506531 -4.6982307,59.218924 -4.7986643,58.931322 -4.8488809,58.604915 -4.8488806,58.2397 c -3e-7,-0.406295 0.063912,-0.762376 0.1917363,-1.068245 0.1278236,-0.310426 0.2990165,-0.570639 0.5135794,-0.78064 0.2191259,-0.209993 0.470209,-0.36749 0.7532499,-0.472493 0.2876024,-0.104995 0.588902,-0.157493 0.9038998,-0.157498 0.3241226,5e-6 0.6299875,0.05251 0.9175952,0.157498 0.2876007,0.105003 0.5386837,0.2625 0.75324981,0.472493 0.2145575,0.210001 0.38346795,0.470214 0.50673181,0.78064 0.12325396,0.305869 0.1848835,0.66195 0.18488864,1.068245"
               style="font-size:11.19109535px;font-variant:normal;font-weight:bold;font-stretch:normal;fill:#2d2d2d;font-family:Ubuntu;-inkscape-font-specification:Ubuntu Bold"
               id="path2988"
               inkscape:connector-curvature="0" />
            <path
               d="m 2.2489442,60.708397 c -0.2602155,-10e-7 -0.5204288,-0.0091 -0.7806407,-0.02739 -0.2556496,-0.01369 -0.52271064,-0.05022 -0.801184,-0.109564 l 0,-4.601671 c 0.21912644,-0.04109 0.4587967,-0.07075 0.7190111,-0.08902 0.2602122,-0.02282 0.502165,-0.03424 0.725859,-0.03424 0.3012973,5e-6 0.5774889,0.02283 0.8285751,0.06847 0.2556448,0.0411 0.4747719,0.114133 0.6573815,0.219126 0.1826023,0.105003 0.3241217,0.244241 0.4245591,0.417713 0.1049945,0.168913 0.1574935,0.37891 0.157498,0.629989 -4.5e-6,0.378911 -0.1826098,0.677928 -0.5478185,0.897053 0.301296,0.114131 0.5067281,0.269346 0.6162963,0.465644 0.1095583,0.196304 0.1643402,0.417715 0.1643447,0.66423 -4.5e-6,0.497603 -0.1826098,0.871944 -0.547818,1.123027 -0.3606506,0.251084 -0.8993379,0.376625 -1.6160636,0.376626 m -0.5409704,-2.129643 0,1.225742 c 0.077606,0.0091 0.1620611,0.01598 0.2533659,0.02054 0.091301,0.0046 0.1917343,0.0069 0.3012999,0.0069 0.3195579,0 0.5774887,-0.04566 0.773793,-0.136955 0.1962985,-0.0913 0.2944496,-0.260212 0.2944528,-0.506731 -3.2e-6,-0.219126 -0.082176,-0.37434 -0.2465189,-0.465646 C 2.9200186,58.626707 2.6849131,58.578771 2.3790511,58.57877 l -0.6710773,0 m 0,-0.81488 0.5204274,0 c 0.3286879,2e-6 0.5637928,-0.04109 0.7053152,-0.123259 0.1415171,-0.08671 0.2122764,-0.223663 0.2122797,-0.410838 -3.3e-6,-0.191733 -0.073045,-0.326404 -0.2191273,-0.404016 -0.1460872,-0.0776 -0.3606491,-0.116407 -0.6436863,-0.116411 -0.091305,4e-6 -0.1894554,0.0023 -0.294452,0.0069 -0.1050001,3e-6 -0.1985857,0.0046 -0.2807567,0.01369 l 0,1.034007"
               style="font-size:11.19109535px;font-variant:normal;font-weight:bold;font-stretch:normal;fill:#2d2d2d;font-family:Ubuntu;-inkscape-font-specification:Ubuntu Bold"
               id="path2990"
               inkscape:connector-curvature="0" />
          </g>
        </g>
      </g>
    </g>
  </g>
</svg>
