<?xml version="1.0" encoding="UTF-8" standalone="no"?>
<!-- Created with Inkscape (http://www.inkscape.org/) -->

<svg
   xmlns:dc="http://purl.org/dc/elements/1.1/"
   xmlns:cc="http://creativecommons.org/ns#"
   xmlns:rdf="http://www.w3.org/1999/02/22-rdf-syntax-ns#"
   xmlns:svg="http://www.w3.org/2000/svg"
   xmlns="http://www.w3.org/2000/svg"
   xmlns:sodipodi="http://sodipodi.sourceforge.net/DTD/sodipodi-0.dtd"
   xmlns:inkscape="http://www.inkscape.org/namespaces/inkscape"
   width="48px"
   height="48px"
   id="svg3765"
   version="1.1"
   inkscape:version="0.48.3.1 r9886"
   sodipodi:docname="doap.svg"
   inkscape:export-filename="/home/k00ni/Documents/semicon/owl.png"
   inkscape:export-xdpi="90"
   inkscape:export-ydpi="90">
  <defs
     id="defs3767" />
  <sodipodi:namedview
     id="base"
     pagecolor="#ffffff"
     bordercolor="#666666"
     borderopacity="1.0"
     inkscape:pageopacity="0.0"
     inkscape:pageshadow="2"
     inkscape:zoom="9.8994949"
     inkscape:cx="22.043737"
     inkscape:cy="32.633298"
     inkscape:current-layer="layer1-9"
     showgrid="true"
     inkscape:grid-bbox="true"
     inkscape:document-units="px"
     inkscape:window-width="1366"
     inkscape:window-height="744"
     inkscape:window-x="0"
     inkscape:window-y="24"
     inkscape:window-maximized="1" />
  <metadata
     id="metadata3770">
    <rdf:RDF>
      <cc:Work
         rdf:about="">
        <dc:format>image/svg+xml</dc:format>
        <dc:type
           rdf:resource="http://purl.org/dc/dcmitype/StillImage" />
        <dc:title></dc:title>
      </cc:Work>
    </rdf:RDF>
  </metadata>
  <g
     id="layer1"
     inkscape:label="Layer 1"
     inkscape:groupmode="layer">
    <g
       inkscape:label="Layer 1"
       id="layer1-4"
       transform="translate(0.20202972,-1.9622142e-8)">
      <g
         transform="translate(-0.37059768,-0.09089584)"
         id="layer1-9"
         inkscape:label="Layer 1">
        <path
           sodipodi:type="arc"
           style="fill:#2d2d2d;fill-opacity:1;stroke:none"
           id="path3773-80"
           sodipodi:cx="29.285715"
           sodipodi:cy="24.428572"
           sodipodi:rx="23.714285"
           sodipodi:ry="23.714285"
           d="M 53,24.428572 C 53,37.52561 42.382753,48.142857 29.285715,48.142857 16.188677,48.142857 5.5714302,37.52561 5.5714302,24.428572 5.5714302,11.331534 16.188677,0.7142868 29.285715,0.7142868 42.382753,0.7142868 53,11.331534 53,24.428572 z"
           transform="matrix(0.99063909,0,0,0.99063908,-4.7003607,-0.15063258)" />
        <path
           inkscape:connector-curvature="0"
           id="path3054"
           style="font-size:13.31408882px;font-style:normal;font-variant:normal;font-weight:bold;font-stretch:normal;line-height:125%;letter-spacing:0px;word-spacing:0px;fill:#ffffff;fill-opacity:1;stroke:none;font-family:Ubuntu;-inkscape-font-specification:Ubuntu Bold"
           d="m 8.3604697,26.609959 c 0.095584,0.0087 0.2042064,0.01738 0.3258664,0.02607 0.130343,10e-7 0.2824139,10e-7 0.456213,0 1.0166979,10e-7 1.7683629,-0.256346 2.2549959,-0.769044 0.49531,-0.512694 0.742968,-1.22091 0.742975,-2.12465 -7e-6,-0.947179 -0.234631,-1.664084 -0.703871,-2.150718 -0.469254,-0.48662 -1.212228,-0.729933 -2.2289266,-0.729941 -0.1390401,8e-6 -0.2824212,0.0043 -0.4301436,0.01303 -0.1477295,7e-6 -0.2867657,0.0087 -0.4171091,0.02607 l 0,5.709179 m 5.8786293,-2.867624 c -8e-6,0.782082 -0.121665,1.464229 -0.364969,2.04644 -0.243323,0.582217 -0.590914,1.064499 -1.042774,1.446847 -0.443185,0.382351 -0.986295,0.669113 -1.629331,0.860288 -0.643048,0.191174 -1.3642993,0.286762 -2.1637532,0.286762 -0.3649737,0 -0.790772,-0.01738 -1.2773962,-0.05214 -0.4866291,-0.02607 -0.964566,-0.0869 -1.433812,-0.182485 l 0,-8.798392 c 0.469246,-0.08689 0.9558726,-0.143373 1.4598813,-0.169451 0.5126934,-0.03476 0.9515264,-0.05213 1.3165002,-0.05214 0.7733853,9e-6 1.4729109,0.08691 2.0985799,0.260693 0.634347,0.173804 1.177456,0.447531 1.629331,0.821183 0.45186,0.373668 0.799451,0.851605 1.042774,1.433813 0.243304,0.58222 0.364961,1.281746 0.364969,2.098579" />
        <path
           inkscape:connector-curvature="0"
           id="path3056"
           style="font-size:13.31408882px;font-style:normal;font-variant:normal;font-weight:bold;font-stretch:normal;line-height:125%;letter-spacing:0px;word-spacing:0px;fill:#ffffff;fill-opacity:1;stroke:none;font-family:Ubuntu;-inkscape-font-specification:Ubuntu Bold"
           d="m 18.126863,23.742335 c -3e-6,0.443182 0.05213,0.842911 0.156415,1.199188 0.112965,0.356284 0.26938,0.66477 0.469248,0.925461 0.208551,0.252004 0.460555,0.447525 0.756011,0.586559 0.295447,0.139038 0.634348,0.208556 1.016702,0.208554 0.373654,2e-6 0.70821,-0.06952 1.003668,-0.208554 0.304136,-0.139034 0.556139,-0.334555 0.75601,-0.586559 0.208548,-0.260691 0.364964,-0.569177 0.469249,-0.925461 0.112959,-0.356277 0.169442,-0.756006 0.16945,-1.199188 -8e-6,-0.443174 -0.05649,-0.842903 -0.16945,-1.199189 -0.104285,-0.364964 -0.260701,-0.67345 -0.469249,-0.92546 -0.199871,-0.260686 -0.451874,-0.460551 -0.75601,-0.599594 -0.295458,-0.139029 -0.630014,-0.208547 -1.003668,-0.208555 -0.382354,8e-6 -0.721255,0.07387 -1.016702,0.22159 -0.295456,0.139043 -0.54746,0.338907 -0.756011,0.599594 -0.199868,0.252009 -0.356283,0.560496 -0.469248,0.92546 -0.104279,0.356286 -0.156418,0.75167 -0.156415,1.186154 m 6.895332,0 c -10e-6,0.773393 -0.117321,1.455539 -0.351935,2.04644 -0.225943,0.582217 -0.538775,1.073189 -0.938496,1.472916 -0.399737,0.39104 -0.877674,0.686493 -1.433811,0.886357 -0.547463,0.199864 -1.138366,0.299797 -1.772714,0.299797 -0.616978,0 -1.199192,-0.09993 -1.746643,-0.299797 -0.547459,-0.199864 -1.025396,-0.495317 -1.433812,-0.886357 -0.408422,-0.399727 -0.729942,-0.890699 -0.964565,-1.472916 -0.234624,-0.590901 -0.351937,-1.273047 -0.351936,-2.04644 -10e-7,-0.773385 0.121656,-1.451186 0.36497,-2.033407 0.243313,-0.590896 0.569179,-1.086213 0.9776,-1.48595 0.417106,-0.399721 0.895043,-0.699518 1.433812,-0.899391 0.547451,-0.199856 1.120976,-0.299789 1.720574,-0.299797 0.616968,8e-6 1.199182,0.09994 1.746644,0.299797 0.547449,0.199873 1.025385,0.49967 1.433812,0.899391 0.408411,0.399737 0.729932,0.895054 0.964565,1.48595 0.234614,0.582221 0.351925,1.260022 0.351935,2.033407" />
        <path
           inkscape:connector-curvature="0"
           id="path3058"
           style="font-size:13.31408882px;font-style:normal;font-variant:normal;font-weight:bold;font-stretch:normal;line-height:125%;letter-spacing:0px;word-spacing:0px;fill:#ffffff;fill-opacity:1;stroke:none;font-family:Ubuntu;-inkscape-font-specification:Ubuntu Bold"
           d="m 32.817184,28.26536 c -0.09559,-0.312832 -0.204217,-0.634353 -0.325867,-0.964565 -0.112973,-0.33021 -0.22594,-0.660421 -0.338901,-0.990633 l -3.519357,0 c -0.11297,0.330212 -0.230281,0.660423 -0.351935,0.990633 -0.11297,0.330212 -0.217247,0.651733 -0.312831,0.964565 l -2.111615,0 c 0.338901,-0.973254 0.660422,-1.872644 0.964565,-2.698173 0.30414,-0.825526 0.599592,-1.603259 0.886356,-2.333204 0.295449,-0.729934 0.582212,-1.42077 0.860288,-2.072511 0.286758,-0.660414 0.58221,-1.303456 0.886356,-1.929128 l 1.942163,0 c 0.295447,0.625672 0.586553,1.268714 0.873322,1.929128 0.286756,0.651741 0.573518,1.342577 0.860288,2.072511 0.295444,0.729945 0.595241,1.507678 0.899391,2.333204 0.304133,0.825529 0.625654,1.724919 0.964564,2.698173 l -2.176787,0 m -2.437481,-6.986576 c -0.04345,0.130354 -0.108626,0.308494 -0.195519,0.534422 -0.0869,0.22594 -0.186835,0.486632 -0.299797,0.782079 -0.112971,0.295458 -0.238973,0.621324 -0.378006,0.977599 -0.13035,0.356285 -0.265041,0.729945 -0.404074,1.120981 l 2.567827,0 C 31.531092,24.302829 31.396401,23.929169 31.26606,23.572884 31.135708,23.216609 31.009706,22.890743 30.888054,22.595285 30.775082,22.299838 30.675151,22.039146 30.588257,21.813206 30.50135,21.587278 30.431838,21.409138 30.379703,21.278784" />
        <path
           inkscape:connector-curvature="0"
           id="path3060"
           style="font-size:13.31408882px;font-style:normal;font-variant:normal;font-weight:bold;font-stretch:normal;line-height:125%;letter-spacing:0px;word-spacing:0px;fill:#ffffff;fill-opacity:1;stroke:none;font-family:Ubuntu;-inkscape-font-specification:Ubuntu Bold"
           d="m 39.270009,19.128067 c 1.346909,9e-6 2.380991,0.238977 3.102248,0.716906 0.721243,0.469255 1.081868,1.242644 1.081876,2.320168 -8e-6,1.086227 -0.364978,1.87265 -1.094911,2.359273 -0.729947,0.477941 -1.772718,0.716909 -3.128317,0.716906 l -0.638698,0 0,3.02404 -2.033407,0 0,-8.90267 c 0.443178,-0.08689 0.912424,-0.147717 1.407744,-0.182485 0.495313,-0.03476 0.929802,-0.05213 1.303465,-0.05214 m 0.130346,1.733608 c -0.147729,8e-6 -0.295455,0.0043 -0.443178,0.01303 -0.13904,0.0087 -0.260697,0.01739 -0.36497,0.02607 l 0,2.60693 0.638698,0 c 0.703867,5e-6 1.233943,-0.09558 1.590228,-0.286761 0.356275,-0.19117 0.534415,-0.54745 0.534421,-1.068842 -6e-6,-0.251997 -0.0478,-0.460551 -0.143381,-0.625664 -0.08691,-0.165098 -0.21725,-0.295445 -0.39104,-0.39104 -0.165111,-0.104269 -0.36932,-0.173787 -0.612629,-0.208554 -0.243318,-0.04344 -0.512701,-0.06516 -0.808149,-0.06517" />
      </g>
    </g>
  </g>
</svg>
