<?xml version="1.0" encoding="UTF-8" standalone="no"?>
<!-- Created with Inkscape (http://www.inkscape.org/) -->

<svg
   xmlns:dc="http://purl.org/dc/elements/1.1/"
   xmlns:cc="http://creativecommons.org/ns#"
   xmlns:rdf="http://www.w3.org/1999/02/22-rdf-syntax-ns#"
   xmlns:svg="http://www.w3.org/2000/svg"
   xmlns="http://www.w3.org/2000/svg"
   xmlns:sodipodi="http://sodipodi.sourceforge.net/DTD/sodipodi-0.dtd"
   xmlns:inkscape="http://www.inkscape.org/namespaces/inkscape"
   width="48px"
   height="48px"
   id="svg3765"
   version="1.1"
   inkscape:version="0.48.3.1 r9886"
   sodipodi:docname="document_triple.svg"
   inkscape:export-filename="/home/k00ni/Documents/semicon/owl.png"
   inkscape:export-xdpi="90"
   inkscape:export-ydpi="90">
  <defs
     id="defs3767" />
  <sodipodi:namedview
     id="base"
     pagecolor="#ffffff"
     bordercolor="#666666"
     borderopacity="1.0"
     inkscape:pageopacity="0.0"
     inkscape:pageshadow="2"
     inkscape:zoom="9.899495"
     inkscape:cx="11.375435"
     inkscape:cy="21.207306"
     inkscape:current-layer="layer1-9"
     showgrid="true"
     inkscape:grid-bbox="true"
     inkscape:document-units="px"
     inkscape:window-width="1366"
     inkscape:window-height="744"
     inkscape:window-x="0"
     inkscape:window-y="24"
     inkscape:window-maximized="1" />
  <metadata
     id="metadata3770">
    <rdf:RDF>
      <cc:Work
         rdf:about="">
        <dc:format>image/svg+xml</dc:format>
        <dc:type
           rdf:resource="http://purl.org/dc/dcmitype/StillImage" />
        <dc:title />
      </cc:Work>
    </rdf:RDF>
  </metadata>
  <g
     id="layer1"
     inkscape:label="Layer 1"
     inkscape:groupmode="layer">
    <g
       inkscape:label="Layer 1"
       id="layer1-4"
       transform="translate(0.20202972,-1.9622142e-8)">
      <g
         transform="translate(-0.37059768,-0.09089584)"
         id="layer1-9"
         inkscape:label="Layer 1">
        <path
           sodipodi:type="arc"
           style="fill:#2d2d2d;fill-opacity:1;stroke:none"
           id="path3773-80"
           sodipodi:cx="29.285715"
           sodipodi:cy="24.428572"
           sodipodi:rx="23.714285"
           sodipodi:ry="23.714285"
           d="M 53,24.428572 C 53,37.52561 42.382753,48.142857 29.285715,48.142857 16.188677,48.142857 5.5714302,37.52561 5.5714302,24.428572 5.5714302,11.331534 16.188677,0.7142868 29.285715,0.7142868 42.382753,0.7142868 53,11.331534 53,24.428572 z"
           transform="matrix(0.99063909,0,0,0.99063908,-4.70036,-0.2516483)" />
        <g
           id="g3018"
           transform="matrix(0.91202145,0,0,0.91202145,-0.8914844,0.72103602)">
          <rect
             style="fill:#ffffff;fill-opacity:1;stroke:#ffffff;stroke-width:1.28973424;stroke-linecap:round;stroke-linejoin:round;stroke-miterlimit:4;stroke-opacity:1;stroke-dasharray:none"
             id="rect3073"
             width="16.010496"
             height="19.377514"
             x="11.179141"
             y="11.136817"
             ry="2.4790416"
             rx="2.4790416" />
          <rect
             style="fill:#2d2d2d;fill-opacity:1;stroke:none"
             id="rect2988"
             width="6.5978079"
             height="1.9526156"
             x="12.792765"
             y="12.571131"
             rx="0.64799905"
             ry="1.9526156" />
          <rect
             style="fill:#2d2d2d;fill-opacity:1;stroke:none"
             id="rect2988-3-2"
             width="13.012671"
             height="2.3516154"
             x="12.485238"
             y="18.836809"
             rx="0.61824948"
             ry="2.3516154" />
          <rect
             style="fill:#2d2d2d;fill-opacity:1;stroke:none"
             id="rect2988-3-2-0"
             width="13.012671"
             height="2.3516154"
             x="12.483687"
             y="15.702044"
             rx="0.61824948"
             ry="2.3516154" />
          <rect
             style="fill:#2d2d2d;fill-opacity:1;stroke:none"
             id="rect2988-3-2-5"
             width="13.012671"
             height="2.3516154"
             x="12.501577"
             y="21.863304"
             rx="0.61824948"
             ry="2.3516154" />
          <rect
             style="fill:#2d2d2d;fill-opacity:1;stroke:none"
             id="rect2988-3-2-5-1"
             width="7.8103857"
             height="2.3516154"
             x="12.501577"
             y="26.914068"
             rx="0.37108192"
             ry="2.3516154" />
        </g>
        <path
           sodipodi:type="arc"
           style="fill:#ffffff;fill-opacity:1;stroke:#2d2d2d;stroke-width:0.80000001;stroke-linecap:round;stroke-linejoin:round;stroke-miterlimit:4;stroke-opacity:1;stroke-dasharray:none"
           id="path3015"
           sodipodi:cx="10.354064"
           sodipodi:cy="28.352533"
           sodipodi:rx="3.7880721"
           sodipodi:ry="3.7880721"
           d="m 14.142136,28.352533 a 3.7880721,3.7880721 0 1 1 -7.5761441,0 3.7880721,3.7880721 0 1 1 7.5761441,0 z"
           transform="matrix(0.42974532,0.88540076,-0.88540076,0.42974532,53.275838,-0.60183068)" />
        <path
           transform="matrix(0.38318088,0.78946441,-0.78946441,0.38318088,43.439261,14.372499)"
           sodipodi:type="arc"
           style="fill:#ffffff;fill-opacity:1;stroke:none"
           id="path3015-0"
           sodipodi:cx="10.354064"
           sodipodi:cy="28.352533"
           sodipodi:rx="3.7880721"
           sodipodi:ry="3.7880721"
           d="m 14.142136,28.352533 a 3.7880721,3.7880721 0 1 1 -7.5761441,0 3.7880721,3.7880721 0 1 1 7.5761441,0 z" />
        <path
           transform="matrix(0.42974532,0.88540076,-0.88540076,0.42974532,58.23257,12.899955)"
           sodipodi:type="arc"
           style="fill:#ffffff;fill-opacity:1;stroke:#2d2d2d;stroke-width:0.80000001;stroke-linecap:round;stroke-linejoin:round;stroke-miterlimit:4;stroke-opacity:1;stroke-dasharray:none"
           id="path3015-0-7"
           sodipodi:cx="10.354064"
           sodipodi:cy="28.352533"
           sodipodi:rx="3.7880721"
           sodipodi:ry="3.7880721"
           d="m 14.142136,28.352533 a 3.7880721,3.7880721 0 1 1 -7.5761441,0 3.7880721,3.7880721 0 1 1 7.5761441,0 z" />
        <rect
           style="fill:#ffffff;fill-opacity:1;stroke:none"
           id="rect3053"
           width="11.134756"
           height="0.89475715"
           x="34.307964"
           y="-20.166487"
           rx="3.5754526"
           ry="0.89475715"
           transform="matrix(0.43665199,0.8996305,-0.8996305,0.43665199,0,0)" />
        <rect
           style="fill:#ffffff;fill-opacity:1;stroke:none"
           id="rect3053-6"
           width="9.5330935"
           height="1.0126853"
           x="3.8917172"
           y="-40.085819"
           rx="3.061147"
           ry="1.0126853"
           transform="matrix(-0.58725959,0.80939865,-0.85904487,-0.51190029,0,0)" />
        <rect
           style="fill:#ffffff;fill-opacity:1;stroke:none"
           id="rect3053-3"
           width="11.134756"
           height="0.89475715"
           x="27.251703"
           y="32.677128"
           rx="3.5754528"
           ry="0.89475715"
           transform="matrix(0.99936756,0.03555939,-0.03555939,0.99936756,0,0)" />
      </g>
    </g>
  </g>
</svg>
