<?xml version="1.0" encoding="UTF-8" standalone="no"?>
<!-- Created with Inkscape (http://www.inkscape.org/) -->

<svg
   xmlns:dc="http://purl.org/dc/elements/1.1/"
   xmlns:cc="http://creativecommons.org/ns#"
   xmlns:rdf="http://www.w3.org/1999/02/22-rdf-syntax-ns#"
   xmlns:svg="http://www.w3.org/2000/svg"
   xmlns="http://www.w3.org/2000/svg"
   xmlns:sodipodi="http://sodipodi.sourceforge.net/DTD/sodipodi-0.dtd"
   xmlns:inkscape="http://www.inkscape.org/namespaces/inkscape"
   width="16"
   height="16"
   id="svg3765"
   version="1.1"
   inkscape:version="0.48.3.1 r9886"
   sodipodi:docname="findGroups2.svg"
   inkscape:export-filename="/home/k00ni/Documents/semicon/owl.png"
   inkscape:export-xdpi="90"
   inkscape:export-ydpi="90">
  <defs
     id="defs3767" />
  <sodipodi:namedview
     id="base"
     pagecolor="#ffffff"
     bordercolor="#666666"
     borderopacity="1.0"
     inkscape:pageopacity="0.0"
     inkscape:pageshadow="2"
     inkscape:zoom="28"
     inkscape:cx="1.7839435"
     inkscape:cy="4.5360818"
     inkscape:current-layer="layer1-4"
     showgrid="true"
     inkscape:grid-bbox="true"
     inkscape:document-units="px"
     inkscape:window-width="1920"
     inkscape:window-height="1029"
     inkscape:window-x="0"
     inkscape:window-y="28"
     inkscape:window-maximized="1"
     showguides="true"
     inkscape:guide-bbox="true" />
  <metadata
     id="metadata3770">
    <rdf:RDF>
      <cc:Work
         rdf:about="">
        <dc:format>image/svg+xml</dc:format>
        <dc:type
           rdf:resource="http://purl.org/dc/dcmitype/StillImage" />
        <dc:title />
      </cc:Work>
    </rdf:RDF>
  </metadata>
  <g
     id="layer1"
     inkscape:label="Layer 1"
     inkscape:groupmode="layer"
     transform="translate(0,-32)">
    <g
       inkscape:label="Layer 1"
       id="layer1-4"
       transform="translate(0.20202972,-1.9622142e-8)">
      <path
         sodipodi:type="arc"
         style="fill:none;stroke:#2d2d2d;stroke-width:0.60000002;stroke-linecap:round;stroke-linejoin:round;stroke-miterlimit:4;stroke-opacity:1;stroke-dasharray:none"
         id="path4688"
         sodipodi:cx="5.3035712"
         sodipodi:cy="10.446428"
         sodipodi:rx="4.5535712"
         sodipodi:ry="4.5535712"
         d="M 9.8571424,10.446428 C 9.8571424,12.961296 7.8184392,15 5.3035712,15 2.7887033,15 0.75,12.961296 0.75,10.446428 c 0,-2.5148676 2.0387033,-4.5535709 4.5535712,-4.5535709 2.514868,0 4.5535712,2.0387033 4.5535712,4.5535709 z"
         transform="matrix(1.1066961,0,0,1.1066961,0.46424275,30.296122)" />
      <path
         sodipodi:type="arc"
         style="fill:none;stroke:#2d2d2d;stroke-width:0.4540641;stroke-miterlimit:4;stroke-opacity:1;stroke-dasharray:none"
         id="path4690"
         sodipodi:cx="6.2857141"
         sodipodi:cy="7.6071429"
         sodipodi:rx="0.89285713"
         sodipodi:ry="0.89285713"
         d="m 7.1785713,7.6071429 a 0.89285713,0.89285713 0 1 1 -1.7857143,0 0.89285713,0.89285713 0 1 1 1.7857143,0 z"
         transform="matrix(1.4645509,0,0,1.4645509,-1.1756354,29.126809)" />
      <path
         sodipodi:type="arc"
         style="fill:none;stroke:#2d2d2d;stroke-width:0.4723168;stroke-linecap:round;stroke-linejoin:round;stroke-miterlimit:4;stroke-opacity:1;stroke-dasharray:none"
         id="path4690-8-9-0-6"
         sodipodi:cx="6.2857141"
         sodipodi:cy="7.6071429"
         sodipodi:rx="0.89285713"
         sodipodi:ry="0.89285713"
         d="m 7.1785713,7.6071429 a 0.89285713,0.89285713 0 1 1 -1.7857143,0 0.89285713,0.89285713 0 1 1 1.7857143,0 z"
         transform="matrix(1.2841642,0,0,1.2841642,-1.4167758,34.766895)" />
      <rect
         style="fill:none;stroke:#2d2d2d;stroke-width:0.53;stroke-miterlimit:4;stroke-opacity:1;stroke-dasharray:none"
         id="rect5029"
         width="2.3740489"
         height="2.1103895"
         x="2.7716601"
         y="40.759403" />
      <rect
         style="fill:#2d2d2d;fill-opacity:1;stroke:none"
         id="rect5031"
         width="2.6428571"
         height="2.6428571"
         x="32.168835"
         y="14.783583"
         transform="matrix(0.7264684,0.68719987,-0.68719987,0.7264684,0,0)" />
      <rect
         style="fill:#2d2d2d;fill-opacity:1;stroke:none"
         id="rect5031-6"
         width="1.9894493"
         height="1.9838413"
         x="29.417368"
         y="18.292221"
         transform="matrix(0.74366106,0.66855683,-0.70545176,0.70875793,0,0)" />
      <rect
         style="fill:#2d2d2d;fill-opacity:1;stroke:none"
         id="rect5031-6-5"
         width="2.7425225"
         height="2.7347918"
         x="24.547518"
         y="22.583509"
         transform="matrix(0.74366106,0.66855683,-0.70545176,0.70875793,0,0)" />
      <rect
         style="fill:#2d2d2d;fill-opacity:1;stroke:none"
         id="rect5031-6-5-3"
         width="1.3997188"
         height="1.3957731"
         x="27.348616"
         y="19.800699"
         transform="matrix(0.74366106,0.66855683,-0.70545176,0.70875793,0,0)" />
      <rect
         style="fill:#2d2d2d;fill-opacity:1;stroke:none"
         id="rect5031-6-5-3-6"
         width="1.3997188"
         height="1.3957731"
         x="28.11133"
         y="21.860003"
         transform="matrix(0.74366106,0.66855683,-0.70545176,0.70875793,0,0)" />
      <rect
         style="fill:#2d2d2d;fill-opacity:1;stroke:none"
         id="rect5031-6-5-3-6-1"
         width="1.3997188"
         height="1.3957731"
         x="32.366177"
         y="19.207022"
         transform="matrix(0.74366106,0.66855683,-0.70545176,0.70875793,0,0)" />
      <rect
         style="fill:#2d2d2d;fill-opacity:1;stroke:none"
         id="rect5031-6-5-3-6-1-9"
         width="1.3997188"
         height="1.3957731"
         x="34.717751"
         y="19.357161"
         transform="matrix(0.74366106,0.66855683,-0.70545176,0.70875793,0,0)" />
      <rect
         style="fill:#2d2d2d;fill-opacity:1;stroke:none"
         id="rect5031-6-9"
         width="1.9894493"
         height="1.9838413"
         x="36.899883"
         y="19.649242"
         transform="matrix(0.74366106,0.66855683,-0.70545176,0.70875793,0,0)" />
      <rect
         style="fill:#2d2d2d;fill-opacity:1;stroke:none"
         id="rect5031-6-1"
         width="1.9894493"
         height="1.9838413"
         x="41.517532"
         y="24.061361"
         transform="matrix(0.74366106,0.66855683,-0.70545176,0.70875793,0,0)" />
      <rect
         style="fill:#2d2d2d;fill-opacity:1;stroke:none"
         id="rect5031-6-1-5"
         width="1.9894493"
         height="1.9838413"
         x="39.14629"
         y="21.511061"
         transform="matrix(0.74366106,0.66855683,-0.70545176,0.70875793,0,0)" />
      <rect
         style="fill:#2d2d2d;fill-opacity:1;stroke:none"
         id="rect5031-6-5-3-6-1-9-5"
         width="1.3997188"
         height="1.3957731"
         x="40.163521"
         y="26.515425"
         transform="matrix(0.74366106,0.66855683,-0.70545176,0.70875793,0,0)" />
      <rect
         style="fill:#2d2d2d;fill-opacity:1;stroke:none"
         id="rect5031-6-5-3-6-1-9-3"
         width="1.3997188"
         height="1.3957731"
         x="39.738914"
         y="24.245279"
         transform="matrix(0.74366106,0.66855683,-0.70545176,0.70875793,0,0)" />
      <path
         sodipodi:type="arc"
         style="fill:none;stroke:#2d2d2d;stroke-width:0.4723168;stroke-linecap:round;stroke-linejoin:round;stroke-miterlimit:4;stroke-opacity:1;stroke-dasharray:none"
         id="path4690-8-9-0-6-6"
         sodipodi:cx="6.2857141"
         sodipodi:cy="7.6071429"
         sodipodi:rx="0.89285713"
         sodipodi:ry="0.89285713"
         d="m 7.1785713,7.6071429 a 0.89285713,0.89285713 0 1 1 -1.7857143,0 0.89285713,0.89285713 0 1 1 1.7857143,0 z"
         transform="matrix(0.90456674,0,0,0.90456674,3.5764081,36.44026)" />
      <path
         sodipodi:type="arc"
         style="fill:none;stroke:#2d2d2d;stroke-width:0.4723168;stroke-linecap:round;stroke-linejoin:round;stroke-miterlimit:4;stroke-opacity:1;stroke-dasharray:none"
         id="path4690-8-9-0-6-6-0"
         sodipodi:cx="6.2857141"
         sodipodi:cy="7.6071429"
         sodipodi:rx="0.89285713"
         sodipodi:ry="0.89285713"
         d="m 7.1785713,7.6071429 a 0.89285713,0.89285713 0 1 1 -1.7857143,0 0.89285713,0.89285713 0 1 1 1.7857143,0 z"
         transform="matrix(0.90456674,0,0,0.90456674,-0.70930625,32.083118)" />
    </g>
  </g>
</svg>
