<?xml version="1.0" encoding="UTF-8" standalone="no"?>
<!-- Created with Inkscape (http://www.inkscape.org/) -->

<svg
   xmlns:dc="http://purl.org/dc/elements/1.1/"
   xmlns:cc="http://creativecommons.org/ns#"
   xmlns:rdf="http://www.w3.org/1999/02/22-rdf-syntax-ns#"
   xmlns:svg="http://www.w3.org/2000/svg"
   xmlns="http://www.w3.org/2000/svg"
   xmlns:sodipodi="http://sodipodi.sourceforge.net/DTD/sodipodi-0.dtd"
   xmlns:inkscape="http://www.inkscape.org/namespaces/inkscape"
   width="32"
   height="32"
   id="svg3765"
   version="1.1"
   inkscape:version="0.48.3.1 r9886"
   sodipodi:docname="findGroups.svg"
   inkscape:export-filename="/home/k00ni/Documents/semicon/owl.png"
   inkscape:export-xdpi="90"
   inkscape:export-ydpi="90">
  <defs
     id="defs3767" />
  <sodipodi:namedview
     id="base"
     pagecolor="#ffffff"
     bordercolor="#666666"
     borderopacity="1.0"
     inkscape:pageopacity="0.0"
     inkscape:pageshadow="2"
     inkscape:zoom="14"
     inkscape:cx="13.597441"
     inkscape:cy="9.4809923"
     inkscape:current-layer="layer1-9"
     showgrid="true"
     inkscape:grid-bbox="true"
     inkscape:document-units="px"
     inkscape:window-width="1920"
     inkscape:window-height="1056"
     inkscape:window-x="0"
     inkscape:window-y="24"
     inkscape:window-maximized="1"
     showguides="true"
     inkscape:guide-bbox="true" />
  <metadata
     id="metadata3770">
    <rdf:RDF>
      <cc:Work
         rdf:about="">
        <dc:format>image/svg+xml</dc:format>
        <dc:type
           rdf:resource="http://purl.org/dc/dcmitype/StillImage" />
        <dc:title />
      </cc:Work>
    </rdf:RDF>
  </metadata>
  <g
     id="layer1"
     inkscape:label="Layer 1"
     inkscape:groupmode="layer"
     transform="translate(0,-16)">
    <g
       inkscape:label="Layer 1"
       id="layer1-4"
       transform="translate(0.20202972,-1.9622142e-8)">
      <g
         transform="translate(-0.37059768,-0.09089584)"
         id="layer1-9"
         inkscape:label="Layer 1">
        <g
           inkscape:label="Layer 1"
           id="layer1-9-3"
           transform="matrix(1.0176539,0,0,1.0176539,-46.065278,-4.3954298)">
          <path
             sodipodi:type="arc"
             style="fill:none;stroke:#2d2d2d;stroke-width:0.46200001;stroke-linecap:round;stroke-linejoin:round;stroke-miterlimit:4;stroke-opacity:1;stroke-dasharray:none"
             id="path4475"
             sodipodi:cx="4.4285712"
             sodipodi:cy="3.75"
             sodipodi:rx="1.7857143"
             sodipodi:ry="1.7857143"
             d="m 6.2142855,3.75 c 0,0.9862228 -0.7994915,1.7857143 -1.7857143,1.7857143 -0.9862227,0 -1.7857142,-0.7994915 -1.7857142,-1.7857143 0,-0.9862228 0.7994915,-1.7857143 1.7857142,-1.7857143 0.9862228,0 1.7857143,0.7994915 1.7857143,1.7857143 z"
             transform="matrix(2.2068668,0,0,2.2068668,40.812254,16.273465)" />
          <path
             sodipodi:type="arc"
             style="fill:none;stroke:#2d2d2d;stroke-width:0.46200001;stroke-linecap:round;stroke-linejoin:round;stroke-miterlimit:4;stroke-opacity:1;stroke-dasharray:none"
             id="path4475-7"
             sodipodi:cx="4.4285712"
             sodipodi:cy="3.75"
             sodipodi:rx="1.7857143"
             sodipodi:ry="1.7857143"
             d="m 6.2142855,3.75 c 0,0.9862228 -0.7994915,1.7857143 -1.7857143,1.7857143 -0.9862227,0 -1.7857142,-0.7994915 -1.7857142,-1.7857143 0,-0.9862228 0.7994915,-1.7857143 1.7857142,-1.7857143 0.9862228,0 1.7857143,0.7994915 1.7857143,1.7857143 z"
             transform="matrix(2.2068668,0,0,2.2068668,40.65462,27.386615)" />
          <path
             sodipodi:type="arc"
             style="fill:#2d2d2d;fill-opacity:1;stroke:#2d2d2d;stroke-width:0.46200001;stroke-linecap:round;stroke-linejoin:round;stroke-miterlimit:4;stroke-opacity:1;stroke-dasharray:none"
             id="path4475-6"
             sodipodi:cx="4.4285712"
             sodipodi:cy="3.75"
             sodipodi:rx="1.7857143"
             sodipodi:ry="1.7857143"
             d="m 6.2142855,3.75 c 0,0.9862228 -0.7994915,1.7857143 -1.7857143,1.7857143 -0.9862227,0 -1.7857142,-0.7994915 -1.7857142,-1.7857143 0,-0.9862228 0.7994915,-1.7857143 1.7857142,-1.7857143 0.9862228,0 1.7857143,0.7994915 1.7857143,1.7857143 z"
             transform="matrix(2.2068668,0,0,2.2068668,62.289798,16.273465)" />
          <path
             sodipodi:type="arc"
             style="fill:#2d2d2d;fill-opacity:1;stroke:#2d2d2d;stroke-width:0.46200001;stroke-linecap:round;stroke-linejoin:round;stroke-miterlimit:4;stroke-opacity:1;stroke-dasharray:none"
             id="path4475-7-6-5"
             sodipodi:cx="4.4285712"
             sodipodi:cy="3.75"
             sodipodi:rx="1.7857143"
             sodipodi:ry="1.7857143"
             d="m 6.2142855,3.75 c 0,0.9862228 -0.7994915,1.7857143 -1.7857143,1.7857143 -0.9862227,0 -1.7857142,-0.7994915 -1.7857142,-1.7857143 0,-0.9862228 0.7994915,-1.7857143 1.7857142,-1.7857143 0.9862228,0 1.7857143,0.7994915 1.7857143,1.7857143 z"
             transform="matrix(2.2068668,0,0,2.2068668,62.053348,38.499765)" />
          <rect
             style="fill:none;stroke:#2d2d2d;stroke-width:0.99394578;stroke-miterlimit:4;stroke-opacity:1;stroke-dasharray:none"
             id="rect4541"
             width="7.9633656"
             height="8.2281799"
             x="46.404274"
             y="42.84428"
             rx="0" />
          <rect
             style="fill:none;stroke:#2d2d2d;stroke-width:0.99394578;stroke-miterlimit:4;stroke-opacity:1;stroke-dasharray:none"
             id="rect4541-4"
             width="7.9633656"
             height="8.2281799"
             x="67.884346"
             y="31.075369"
             rx="0" />
          <rect
             style="fill:#2d2d2d;fill-opacity:1;stroke:none"
             id="rect4567"
             width="1.0246168"
             height="17.576117"
             x="-9.4258404"
             y="65.172592"
             transform="matrix(0.45306787,-0.89147603,0.89147603,0.45306787,0,0)" />
          <rect
             style="fill:#2d2d2d;fill-opacity:1;stroke:none"
             id="rect4567-4"
             width="1.0246168"
             height="17.576117"
             x="-25.084564"
             y="54.674702"
             transform="matrix(0.0012238,-0.99999925,0.99999925,0.0012238,0,0)" />
        </g>
      </g>
    </g>
  </g>
</svg>
