<?xml version="1.0" encoding="UTF-8" standalone="no"?>
<!-- Created with Inkscape (http://www.inkscape.org/) -->

<svg
   xmlns:dc="http://purl.org/dc/elements/1.1/"
   xmlns:cc="http://creativecommons.org/ns#"
   xmlns:rdf="http://www.w3.org/1999/02/22-rdf-syntax-ns#"
   xmlns:svg="http://www.w3.org/2000/svg"
   xmlns="http://www.w3.org/2000/svg"
   xmlns:sodipodi="http://sodipodi.sourceforge.net/DTD/sodipodi-0.dtd"
   xmlns:inkscape="http://www.inkscape.org/namespaces/inkscape"
   width="16px"
   height="16px"
   id="svg2985"
   version="1.1"
   inkscape:version="0.48.3.1 r9886"
   sodipodi:docname="instance.svg">
  <defs
     id="defs2987" />
  <sodipodi:namedview
     id="base"
     pagecolor="#ffffff"
     bordercolor="#666666"
     borderopacity="1.0"
     inkscape:pageopacity="0.0"
     inkscape:pageshadow="2"
     inkscape:zoom="31.392432"
     inkscape:cx="10.774476"
     inkscape:cy="7.2885281"
     inkscape:current-layer="layer1"
     showgrid="true"
     inkscape:grid-bbox="true"
     inkscape:document-units="px"
     inkscape:window-width="1366"
     inkscape:window-height="719"
     inkscape:window-x="0"
     inkscape:window-y="25"
     inkscape:window-maximized="1"
     showguides="true"
     inkscape:guide-bbox="true" />
  <metadata
     id="metadata2990">
    <rdf:RDF>
      <cc:Work
         rdf:about="">
        <dc:format>image/svg+xml</dc:format>
        <dc:type
           rdf:resource="http://purl.org/dc/dcmitype/StillImage" />
        <dc:title />
      </cc:Work>
    </rdf:RDF>
  </metadata>
  <g
     id="layer1"
     inkscape:label="Layer 1"
     inkscape:groupmode="layer">
    <rect
       style="fill:#2d2d2d;fill-opacity:1;stroke:none"
       id="rect2985"
       width="1.9897224"
       height="3.7307296"
       x="3.198262"
       y="0.99136645"
       ry="0.82691437" />
    <rect
       style="fill:#2d2d2d;fill-opacity:1;stroke:none"
       id="rect2985-1"
       width="1.9897224"
       height="5.8235087"
       x="7.2771926"
       y="0.96649474"
       ry="1.2907778" />
    <rect
       style="fill:#2d2d2d;fill-opacity:1;stroke:none"
       id="rect2985-1-2"
       width="1.9897224"
       height="6.0189109"
       x="0.79239398"
       y="-9.2420444"
       ry="1.3340886"
       transform="matrix(0,1,-1,0,0,0)" />
    <rect
       style="fill:#2d2d2d;fill-opacity:1;stroke:none"
       id="rect2985-1-0"
       width="1.9897224"
       height="9.5506678"
       x="8.7991877"
       y="-3.5853808"
       ry="2.1169004"
       transform="matrix(0.62050015,0.78420633,-0.78420633,0.62050015,0,0)" />
    <rect
       style="fill:#2d2d2d;fill-opacity:1;stroke:none"
       id="rect2985-1-2-3"
       width="1.9897224"
       height="13.379328"
       x="12.491769"
       y="-14.607471"
       ry="2.9655211"
       transform="matrix(0,1,-1,0,0,0)" />
    <rect
       style="fill:#2d2d2d;fill-opacity:1;stroke:none"
       id="rect2985-1-0-3"
       width="1.9897127"
       height="9.1964493"
       x="-1.2054517"
       y="9.464694"
       ry="2.0383885"
       transform="matrix(-0.61116783,0.79150103,0.79096495,0.61186146,0,0)" />
    <rect
       style="fill:#2d2d2d;fill-opacity:1;stroke:none"
       id="rect3122"
       width="1.8324676"
       height="2.8373687"
       x="1.2031835"
       y="10.506786"
       ry="1.0640134" />
    <rect
       style="fill:#2d2d2d;fill-opacity:1;stroke:none"
       id="rect3122-2"
       width="1.8324676"
       height="2.8373687"
       x="13.114222"
       y="10.270338"
       ry="1.0640134" />
    <path
       style="fill:#2d2d2d;fill-opacity:1;stroke:none"
       d="M 1.5731946,8.6247834 4.7853376,6.8505117 C 5.4363887,6.4908948 7.7027478,11.424934 7.8846299,12.146121 L 8.1655758,13.26011 C 8.3474578,13.981297 8.0113932,12.526786 7.4227733,12.981444 L 4.8869352,14.940163 C 4.3933242,15.321436 1.0522217,15.241827 1.0454008,14.498091 L 1.0081599,10.4374 C 1.0013081,9.6936608 0.92214574,8.9843984 1.5731946,8.6247834 z"
       id="rect3163-1-8"
       inkscape:connector-curvature="0"
       sodipodi:nodetypes="sssssssss" />
    <rect
       style="fill:#2d2d2d;fill-opacity:1;stroke:none"
       id="rect2985-1-2-7"
       width="1.9897224"
       height="13.888663"
       x="13.257307"
       y="-14.910583"
       ry="3.0784152"
       transform="matrix(0,1,-1,0,0,0)" />
    <path
       style="fill:#2d2d2d;fill-opacity:1;stroke:none"
       d="M 14.439181,8.466399 11.322602,6.8832561 C 10.659484,6.5464089 8.7049585,11.317464 8.3825836,11.987737 L 7.8467989,13.101726 C 7.524424,13.771999 8.0009818,12.368402 8.5896017,12.82306 l 2.5358383,1.958719 c 0.493611,0.381273 3.834714,0.301664 3.841535,-0.442072 l 0.03724,-4.060691 c 0.0069,-0.7437396 0.09808,-1.475773 -0.565034,-1.812617 z"
       id="rect3163-1-8-0"
       inkscape:connector-curvature="0"
       sodipodi:nodetypes="sssssssss" />
    <path
       sodipodi:type="arc"
       style="fill:#ffffff;fill-opacity:1;stroke:none"
       id="path2995"
       sodipodi:cx="8.1229773"
       sodipodi:cy="13.929438"
       sodipodi:rx="0.63709623"
       sodipodi:ry="0.63709623"
       d="m 8.7600735,13.929438 a 0.63709623,0.63709623 0 1 1 -1.2741925,0 0.63709623,0.63709623 0 1 1 1.2741925,0 z"
       transform="translate(0.03185481,0.09556443)" />
    <rect
       style="fill:#ffffff;fill-opacity:1;stroke:none"
       id="rect2997"
       width="3.5677388"
       height="0.38225773"
       x="10.352814"
       y="11.922585"
       ry="0.19112886" />
  </g>
</svg>
