<?xml version="1.0" encoding="UTF-8" standalone="no"?>
<!-- Created with Inkscape (http://www.inkscape.org/) -->

<svg
   xmlns:dc="http://purl.org/dc/elements/1.1/"
   xmlns:cc="http://creativecommons.org/ns#"
   xmlns:rdf="http://www.w3.org/1999/02/22-rdf-syntax-ns#"
   xmlns:svg="http://www.w3.org/2000/svg"
   xmlns="http://www.w3.org/2000/svg"
   xmlns:sodipodi="http://sodipodi.sourceforge.net/DTD/sodipodi-0.dtd"
   xmlns:inkscape="http://www.inkscape.org/namespaces/inkscape"
   width="32"
   height="32"
   id="svg2985"
   version="1.1"
   inkscape:version="0.48.3.1 r9886"
   sodipodi:docname="instance.svg">
  <defs
     id="defs2987" />
  <sodipodi:namedview
     id="base"
     pagecolor="#ffffff"
     bordercolor="#666666"
     borderopacity="1.0"
     inkscape:pageopacity="0.0"
     inkscape:pageshadow="2"
     inkscape:zoom="44.395603"
     inkscape:cx="19.037037"
     inkscape:cy="9.2062392"
     inkscape:current-layer="layer1"
     showgrid="true"
     inkscape:grid-bbox="true"
     inkscape:document-units="px"
     inkscape:window-width="1920"
     inkscape:window-height="1056"
     inkscape:window-x="0"
     inkscape:window-y="24"
     inkscape:window-maximized="1"
     showguides="true"
     inkscape:guide-bbox="true" />
  <metadata
     id="metadata2990">
    <rdf:RDF>
      <cc:Work
         rdf:about="">
        <dc:format>image/svg+xml</dc:format>
        <dc:type
           rdf:resource="http://purl.org/dc/dcmitype/StillImage" />
        <dc:title />
      </cc:Work>
    </rdf:RDF>
  </metadata>
  <g
     id="layer1"
     inkscape:label="Layer 1"
     inkscape:groupmode="layer"
     transform="translate(0,16)">
    <rect
       style="fill:#2d2d2d;fill-opacity:1;stroke:none"
       id="rect2985"
       width="4.5330844"
       height="8.4995337"
       x="5.0825233"
       y="-15.473999"
       ry="1.8839176" />
    <rect
       style="fill:#2d2d2d;fill-opacity:1;stroke:none"
       id="rect2985-1"
       width="4.3458443"
       height="12.422729"
       x="14.519647"
       y="-15.722124"
       ry="2.7534916" />
    <rect
       style="fill:#2d2d2d;fill-opacity:1;stroke:none"
       id="rect2985-1-2"
       width="4.5330844"
       height="13.712582"
       x="-15.994884"
       y="-18.851768"
       ry="3.0393867"
       transform="matrix(0,1,-1,0,0,0)" />
    <rect
       style="fill:#2d2d2d;fill-opacity:1;stroke:none"
       id="rect2985-1-0"
       width="4.5330844"
       height="21.758806"
       x="3.9606681"
       y="-18.086061"
       ry="4.8228283"
       transform="matrix(0.62050015,0.78420633,-0.78420633,0.62050015,0,0)" />
    <rect
       style="fill:#2d2d2d;fill-opacity:1;stroke:none"
       id="rect2985-1-2-3"
       width="4.5330844"
       height="30.481449"
       x="9.69065"
       y="-31.075552"
       ry="6.7561975"
       transform="matrix(0,1,-1,0,0,0)" />
    <rect
       style="fill:#2d2d2d;fill-opacity:1;stroke:none"
       id="rect2985-1-0-3"
       width="4.5330625"
       height="20.951809"
       x="-16.243233"
       y="8.3476934"
       ry="4.6439581"
       transform="matrix(-0.61116783,0.79150103,0.79096495,0.61186146,0,0)" />
    <rect
       style="fill:#2d2d2d;fill-opacity:1;stroke:none"
       id="rect3122"
       width="4.174819"
       height="6.4642348"
       x="0.53723651"
       y="5.1683636"
       ry="2.4240882" />
    <rect
       style="fill:#2d2d2d;fill-opacity:1;stroke:none"
       id="rect3122-2"
       width="4.174819"
       height="6.4642348"
       x="27.673555"
       y="4.6296754"
       ry="2.4240882" />
    <path
       style="fill:#2d2d2d;fill-opacity:1;stroke:none"
       d="M 1.3802141,0.88069148 8.698278,-3.1615426 c 1.483257,-0.8192971 6.646589,10.4216763 7.060963,12.0647203 l 0.640064,2.5379453 c 0.414373,1.643043 -0.351266,-1.6706959 -1.69229,-0.634872 L 8.9297427,15.268703 C 7.8051735,16.137339 0.19330769,15.955969 0.17776797,14.261553 L 0.0929239,5.0102844 C 0.07731333,3.3158614 -0.10303793,1.6999842 1.3802141,0.88069148 z"
       id="rect3163-1-8"
       inkscape:connector-curvature="0"
       sodipodi:nodetypes="sssssssss" />
    <rect
       style="fill:#2d2d2d;fill-opacity:1;stroke:none"
       id="rect2985-1-2-7"
       width="4.5330844"
       height="31.574272"
       x="11.434737"
       y="-31.766113"
       ry="6.9984207"
       transform="matrix(0,1,-1,0,0,0)" />
    <path
       style="fill:#2d2d2d;fill-opacity:1;stroke:none"
       d="M 30.692145,0.51985212 23.591799,-3.0869427 C 22.081051,-3.8543648 17.628153,7.01529 16.893703,8.5423397 l -1.220652,2.5379453 c -0.73445,1.527049 0.351268,-1.670696 1.69229,-0.634872 l 5.777273,4.462452 c 1.12457,0.868636 8.736436,0.687266 8.751976,-1.00715 l 0.08485,-9.2512689 C 31.995157,2.9550207 32.202888,1.2872669 30.69215,0.51985212 z"
       id="rect3163-1-8-0"
       inkscape:connector-curvature="0"
       sodipodi:nodetypes="sssssssss" />
    <path
       sodipodi:type="arc"
       style="fill:#ffffff;fill-opacity:1;stroke:none"
       id="path2995"
       sodipodi:cx="8.1229773"
       sodipodi:cy="13.929438"
       sodipodi:rx="0.63709623"
       sodipodi:ry="0.63709623"
       d="m 8.7600735,13.929438 a 0.63709623,0.63709623 0 1 1 -1.2741925,0 0.63709623,0.63709623 0 1 1 1.2741925,0 z"
       transform="matrix(2.2782498,0,0,2.2782498,-2.1313429,-18.551)" />
    <rect
       style="fill:#ffffff;fill-opacity:1;stroke:none"
       id="rect2997"
       width="8.1282005"
       height="0.87087858"
       x="21.38238"
       y="8.3939047"
       ry="0.43543929" />
    <rect
       style="fill:#2d2d2d;fill-opacity:1;stroke:none"
       id="rect2995"
       width="0.41013071"
       height="0.7446062"
       x="18.443937"
       y="-13.800177"
       ry="0" />
  </g>
</svg>
