<?xml version="1.0" encoding="UTF-8" standalone="no"?>
<!-- Created with Inkscape (http://www.inkscape.org/) -->

<svg
   xmlns:dc="http://purl.org/dc/elements/1.1/"
   xmlns:cc="http://creativecommons.org/ns#"
   xmlns:rdf="http://www.w3.org/1999/02/22-rdf-syntax-ns#"
   xmlns:svg="http://www.w3.org/2000/svg"
   xmlns="http://www.w3.org/2000/svg"
   xmlns:sodipodi="http://sodipodi.sourceforge.net/DTD/sodipodi-0.dtd"
   xmlns:inkscape="http://www.inkscape.org/namespaces/inkscape"
   width="32"
   height="32"
   id="svg3765"
   version="1.1"
   inkscape:version="0.48.3.1 r9886"
   sodipodi:docname="interlinking.svg"
   inkscape:export-filename="/home/k00ni/Documents/semicon/owl.png"
   inkscape:export-xdpi="90"
   inkscape:export-ydpi="90">
  <defs
     id="defs3767" />
  <sodipodi:namedview
     id="base"
     pagecolor="#ffffff"
     bordercolor="#666666"
     borderopacity="1.0"
     inkscape:pageopacity="0.0"
     inkscape:pageshadow="2"
     inkscape:zoom="19.79899"
     inkscape:cx="-0.2159046"
     inkscape:cy="9.4517796"
     inkscape:current-layer="layer1-9-3"
     showgrid="true"
     inkscape:grid-bbox="true"
     inkscape:document-units="px"
     inkscape:window-width="1920"
     inkscape:window-height="1056"
     inkscape:window-x="0"
     inkscape:window-y="24"
     inkscape:window-maximized="1"
     showguides="true"
     inkscape:guide-bbox="true" />
  <metadata
     id="metadata3770">
    <rdf:RDF>
      <cc:Work
         rdf:about="">
        <dc:format>image/svg+xml</dc:format>
        <dc:type
           rdf:resource="http://purl.org/dc/dcmitype/StillImage" />
        <dc:title />
      </cc:Work>
    </rdf:RDF>
  </metadata>
  <g
     id="layer1"
     inkscape:label="Layer 1"
     inkscape:groupmode="layer"
     transform="translate(0,-16)">
    <g
       inkscape:label="Layer 1"
       id="layer1-4"
       transform="translate(0.20202972,-1.9622142e-8)">
      <g
         transform="translate(-0.37059768,-0.09089584)"
         id="layer1-9"
         inkscape:label="Layer 1">
        <g
           inkscape:label="Layer 1"
           id="layer1-9-3"
           transform="translate(-44.951788,-4.1416259)">
          <path
             sodipodi:type="arc"
             style="fill:#2d2d2d;fill-opacity:1;stroke:none"
             id="path3790"
             sodipodi:cx="4.0892859"
             sodipodi:cy="3.2321429"
             sodipodi:rx="1.2321428"
             sodipodi:ry="1.2321428"
             d="m 5.3214287,3.2321429 a 1.2321428,1.2321428 0 1 1 -2.4642857,0 1.2321428,1.2321428 0 1 1 2.4642857,0 z"
             transform="matrix(2.0672075,0,0,2.0672075,41.383996,18.335231)" />
          <path
             sodipodi:type="arc"
             style="fill:#2d2d2d;fill-opacity:1;stroke:none"
             id="path3790-3"
             sodipodi:cx="4.0892859"
             sodipodi:cy="3.2321429"
             sodipodi:rx="1.2321428"
             sodipodi:ry="1.2321428"
             d="m 5.3214287,3.2321429 a 1.2321428,1.2321428 0 1 1 -2.4642857,0 1.2321428,1.2321428 0 1 1 2.4642857,0 z"
             transform="matrix(1.7076931,0,0,1.7076931,41.857463,26.695545)" />
          <path
             sodipodi:type="arc"
             style="fill:#2d2d2d;fill-opacity:1;stroke:none"
             id="path3790-3-8"
             sodipodi:cx="4.0892859"
             sodipodi:cy="3.2321429"
             sodipodi:rx="1.2321428"
             sodipodi:ry="1.2321428"
             d="m 5.3214287,3.2321429 a 1.2321428,1.2321428 0 1 1 -2.4642857,0 1.2321428,1.2321428 0 1 1 2.4642857,0 z"
             transform="matrix(1.7076931,0,0,1.7076931,50.938412,19.017345)" />
          <path
             sodipodi:type="arc"
             style="fill:#2d2d2d;fill-opacity:1;stroke:none"
             id="path3790-3-8-8"
             sodipodi:cx="4.0892859"
             sodipodi:cy="3.2321429"
             sodipodi:rx="1.2321428"
             sodipodi:ry="1.2321428"
             d="m 5.3214287,3.2321429 a 1.2321428,1.2321428 0 1 1 -2.4642857,0 1.2321428,1.2321428 0 1 1 2.4642857,0 z"
             transform="matrix(1.647774,0,0,1.647774,49.559204,24.637433)" />
          <path
             sodipodi:type="arc"
             style="fill:#2d2d2d;fill-opacity:1;stroke:none"
             id="path3790-3-8-8-1"
             sodipodi:cx="4.0892859"
             sodipodi:cy="3.2321429"
             sodipodi:rx="1.2321428"
             sodipodi:ry="1.2321428"
             d="m 5.3214287,3.2321429 a 1.2321428,1.2321428 0 1 1 -2.4642857,0 1.2321428,1.2321428 0 1 1 2.4642857,0 z"
             transform="matrix(0.95870487,0,0,0.95870487,50.309797,23.505389)" />
          <path
             sodipodi:type="arc"
             style="fill:#2d2d2d;fill-opacity:1;stroke:none"
             id="path3790-3-8-8-1-1"
             sodipodi:cx="4.0892859"
             sodipodi:cy="3.2321429"
             sodipodi:rx="1.2321428"
             sodipodi:ry="1.2321428"
             d="m 5.3214287,3.2321429 a 1.2321428,1.2321428 0 1 1 -2.4642857,0 1.2321428,1.2321428 0 1 1 2.4642857,0 z"
             transform="matrix(0.95870487,0,0,0.95870487,57.692682,18.558855)" />
          <path
             sodipodi:type="arc"
             style="fill:#2d2d2d;fill-opacity:1;stroke:none"
             id="path3790-3-8-8-1-1-5"
             sodipodi:cx="4.0892859"
             sodipodi:cy="3.2321429"
             sodipodi:rx="1.2321428"
             sodipodi:ry="1.2321428"
             d="m 5.3214287,3.2321429 a 1.2321428,1.2321428 0 1 1 -2.4642857,0 1.2321428,1.2321428 0 1 1 2.4642857,0 z"
             transform="matrix(0.95870487,0,0,0.95870487,49.49768,20.035434)" />
          <path
             sodipodi:type="arc"
             style="fill:#2d2d2d;fill-opacity:1;stroke:none"
             id="path3790-3-8-8-1-1-1"
             sodipodi:cx="4.0892859"
             sodipodi:cy="3.2321429"
             sodipodi:rx="1.2321428"
             sodipodi:ry="1.2321428"
             d="m 5.3214287,3.2321429 a 1.2321428,1.2321428 0 1 1 -2.4642857,0 1.2321428,1.2321428 0 1 1 2.4642857,0 z"
             transform="matrix(0.95870487,0,0,0.95870487,43.148399,25.351109)" />
          <path
             sodipodi:type="arc"
             style="fill:#2d2d2d;fill-opacity:1;stroke:none"
             id="path3790-3-8-8-1-4"
             sodipodi:cx="4.0892859"
             sodipodi:cy="3.2321429"
             sodipodi:rx="1.2321428"
             sodipodi:ry="1.2321428"
             d="m 5.3214287,3.2321429 a 1.2321428,1.2321428 0 1 1 -2.4642857,0 1.2321428,1.2321428 0 1 1 2.4642857,0 z"
             transform="matrix(0.44939287,0,0,0.44939287,47.925873,27.624825)" />
          <path
             sodipodi:type="arc"
             style="fill:#2d2d2d;fill-opacity:1;stroke:none"
             id="path3790-3-8-8-1-4-0"
             sodipodi:cx="4.0892859"
             sodipodi:cy="3.2321429"
             sodipodi:rx="1.2321428"
             sodipodi:ry="1.2321428"
             d="m 5.3214287,3.2321429 a 1.2321428,1.2321428 0 1 1 -2.4642857,0 1.2321428,1.2321428 0 1 1 2.4642857,0 z"
             transform="matrix(0.44939287,0,0,0.44939287,49.80851,26.775794)" />
          <path
             sodipodi:type="arc"
             style="fill:#2d2d2d;fill-opacity:1;stroke:none"
             id="path3790-3-8-8-1-4-3"
             sodipodi:cx="4.0892859"
             sodipodi:cy="3.2321429"
             sodipodi:rx="1.2321428"
             sodipodi:ry="1.2321428"
             d="m 5.3214287,3.2321429 a 1.2321428,1.2321428 0 1 1 -2.4642857,0 1.2321428,1.2321428 0 1 1 2.4642857,0 z"
             transform="matrix(0.44939287,0,0,0.44939287,49.513195,20.721828)" />
          <path
             sodipodi:type="arc"
             style="fill:#2d2d2d;fill-opacity:1;stroke:none"
             id="path3790-3-8-8-1-4-4"
             sodipodi:cx="4.0892859"
             sodipodi:cy="3.2321429"
             sodipodi:rx="1.2321428"
             sodipodi:ry="1.2321428"
             d="m 5.3214287,3.2321429 a 1.2321428,1.2321428 0 1 1 -2.4642857,0 1.2321428,1.2321428 0 1 1 2.4642857,0 z"
             transform="matrix(0.44939287,0,0,0.44939287,45.821753,20.205024)" />
          <path
             sodipodi:type="arc"
             style="fill:#2d2d2d;fill-opacity:1;stroke:none"
             id="path3790-3-8-8-1-4-2"
             sodipodi:cx="4.0892859"
             sodipodi:cy="3.2321429"
             sodipodi:rx="1.2321428"
             sodipodi:ry="1.2321428"
             d="m 5.3214287,3.2321429 a 1.2321428,1.2321428 0 1 1 -2.4642857,0 1.2321428,1.2321428 0 1 1 2.4642857,0 z"
             transform="matrix(0.44939287,0,0,0.44939287,44.714319,23.01052)" />
          <path
             sodipodi:type="arc"
             style="fill:#2d2d2d;fill-opacity:1;stroke:none"
             id="path3790-3-8-8-1-4-8"
             sodipodi:cx="4.0892859"
             sodipodi:cy="3.2321429"
             sodipodi:rx="1.2321428"
             sodipodi:ry="1.2321428"
             d="m 5.3214287,3.2321429 a 1.2321428,1.2321428 0 1 1 -2.4642857,0 1.2321428,1.2321428 0 1 1 2.4642857,0 z"
             transform="matrix(0.44939287,0,0,0.44939287,51.986459,31.611581)" />
          <path
             sodipodi:type="arc"
             style="fill:#2d2d2d;fill-opacity:1;stroke:none"
             id="path3790-3-8-8-1-4-1"
             sodipodi:cx="4.0892859"
             sodipodi:cy="3.2321429"
             sodipodi:rx="1.2321428"
             sodipodi:ry="1.2321428"
             d="m 5.3214287,3.2321429 a 1.2321428,1.2321428 0 1 1 -2.4642857,0 1.2321428,1.2321428 0 1 1 2.4642857,0 z"
             transform="matrix(0.44939287,0,0,0.44939287,57.708196,28.695343)" />
          <path
             sodipodi:type="arc"
             style="fill:#2d2d2d;fill-opacity:1;stroke:none"
             id="path3790-0"
             sodipodi:cx="4.0892859"
             sodipodi:cy="3.2321429"
             sodipodi:rx="1.2321428"
             sodipodi:ry="1.2321428"
             d="m 5.3214287,3.2321429 a 1.2321428,1.2321428 0 1 1 -2.4642857,0 1.2321428,1.2321428 0 1 1 2.4642857,0 z"
             transform="matrix(-2.0672075,0,0,-2.0672075,81.436145,54.954333)" />
          <path
             sodipodi:type="arc"
             style="fill:#2d2d2d;fill-opacity:1;stroke:none"
             id="path3790-3-5"
             sodipodi:cx="4.0892859"
             sodipodi:cy="3.2321429"
             sodipodi:rx="1.2321428"
             sodipodi:ry="1.2321428"
             d="m 5.3214287,3.2321429 a 1.2321428,1.2321428 0 1 1 -2.4642857,0 1.2321428,1.2321428 0 1 1 2.4642857,0 z"
             transform="matrix(-1.7076931,0,0,-1.7076931,80.667363,46.52019)" />
          <path
             sodipodi:type="arc"
             style="fill:#2d2d2d;fill-opacity:1;stroke:none"
             id="path3790-3-8-8-3"
             sodipodi:cx="4.0892859"
             sodipodi:cy="3.2321429"
             sodipodi:rx="1.2321428"
             sodipodi:ry="1.2321428"
             d="m 5.3214287,3.2321429 a 1.2321428,1.2321428 0 1 1 -2.4642857,0 1.2321428,1.2321428 0 1 1 2.4642857,0 z"
             transform="matrix(-1.647774,0,0,-1.647774,76.066433,47.950756)" />
          <path
             sodipodi:type="arc"
             style="fill:#2d2d2d;fill-opacity:1;stroke:none"
             id="path3790-3-8-8-1-6"
             sodipodi:cx="4.0892859"
             sodipodi:cy="3.2321429"
             sodipodi:rx="1.2321428"
             sodipodi:ry="1.2321428"
             d="m 5.3214287,3.2321429 a 1.2321428,1.2321428 0 1 1 -2.4642857,0 1.2321428,1.2321428 0 1 1 2.4642857,0 z"
             transform="matrix(-0.95870487,0,0,-0.95870487,72.510344,49.784174)" />
          <path
             sodipodi:type="arc"
             style="fill:#2d2d2d;fill-opacity:1;stroke:none"
             id="path3790-3-8-8-1-1-5-1"
             sodipodi:cx="4.0892859"
             sodipodi:cy="3.2321429"
             sodipodi:rx="1.2321428"
             sodipodi:ry="1.2321428"
             d="m 5.3214287,3.2321429 a 1.2321428,1.2321428 0 1 1 -2.4642857,0 1.2321428,1.2321428 0 1 1 2.4642857,0 z"
             transform="matrix(-0.95870487,0,0,-0.95870487,72.779504,54.138012)" />
          <path
             sodipodi:type="arc"
             style="fill:#2d2d2d;fill-opacity:1;stroke:none"
             id="path3790-3-8-8-1-1-1-9"
             sodipodi:cx="4.0892859"
             sodipodi:cy="3.2321429"
             sodipodi:rx="1.2321428"
             sodipodi:ry="1.2321428"
             d="m 5.3214287,3.2321429 a 1.2321428,1.2321428 0 1 1 -2.4642857,0 1.2321428,1.2321428 0 1 1 2.4642857,0 z"
             transform="matrix(-0.95870487,0,0,-0.95870487,79.671742,47.938454)" />
          <path
             sodipodi:type="arc"
             style="fill:#2d2d2d;fill-opacity:1;stroke:none"
             id="path3790-3-8-8-1-4-27"
             sodipodi:cx="4.0892859"
             sodipodi:cy="3.2321429"
             sodipodi:rx="1.2321428"
             sodipodi:ry="1.2321428"
             d="m 5.3214287,3.2321429 a 1.2321428,1.2321428 0 1 1 -2.4642857,0 1.2321428,1.2321428 0 1 1 2.4642857,0 z"
             transform="matrix(-0.44939287,0,0,-0.44939287,74.894268,45.664739)" />
          <path
             sodipodi:type="arc"
             style="fill:#2d2d2d;fill-opacity:1;stroke:none"
             id="path3790-3-8-8-1-4-0-7"
             sodipodi:cx="4.0892859"
             sodipodi:cy="3.2321429"
             sodipodi:rx="1.2321428"
             sodipodi:ry="1.2321428"
             d="m 5.3214287,3.2321429 a 1.2321428,1.2321428 0 1 1 -2.4642857,0 1.2321428,1.2321428 0 1 1 2.4642857,0 z"
             transform="matrix(-0.44939287,0,0,-0.44939287,73.011632,46.51377)" />
          <path
             sodipodi:type="arc"
             style="fill:#2d2d2d;fill-opacity:1;stroke:none"
             id="path3790-3-8-8-1-4-3-4"
             sodipodi:cx="4.0892859"
             sodipodi:cy="3.2321429"
             sodipodi:rx="1.2321428"
             sodipodi:ry="1.2321428"
             d="m 5.3214287,3.2321429 a 1.2321428,1.2321428 0 1 1 -2.4642857,0 1.2321428,1.2321428 0 1 1 2.4642857,0 z"
             transform="matrix(-0.44939287,0,0,-0.44939287,72.865005,52.971796)" />
          <path
             sodipodi:type="arc"
             style="fill:#2d2d2d;fill-opacity:1;stroke:none"
             id="path3790-3-8-8-1-4-4-9"
             sodipodi:cx="4.0892859"
             sodipodi:cy="3.2321429"
             sodipodi:rx="1.2321428"
             sodipodi:ry="1.2321428"
             d="m 5.3214287,3.2321429 a 1.2321428,1.2321428 0 1 1 -2.4642857,0 1.2321428,1.2321428 0 1 1 2.4642857,0 z"
             transform="matrix(-0.44939287,0,0,-0.44939287,76.998388,53.084539)" />
          <path
             sodipodi:type="arc"
             style="fill:#2d2d2d;fill-opacity:1;stroke:none"
             id="path3790-3-8-8-1-4-2-8"
             sodipodi:cx="4.0892859"
             sodipodi:cy="3.2321429"
             sodipodi:rx="1.2321428"
             sodipodi:ry="1.2321428"
             d="m 5.3214287,3.2321429 a 1.2321428,1.2321428 0 1 1 -2.4642857,0 1.2321428,1.2321428 0 1 1 2.4642857,0 z"
             transform="matrix(-0.44939287,0,0,-0.44939287,78.105822,50.279043)" />
          <path
             sodipodi:type="arc"
             style="fill:#2d2d2d;fill-opacity:1;stroke:none"
             id="path3790-3-8-8-1-4-8-9"
             sodipodi:cx="4.0892859"
             sodipodi:cy="3.2321429"
             sodipodi:rx="1.2321428"
             sodipodi:ry="1.2321428"
             d="m 5.3214287,3.2321429 a 1.2321428,1.2321428 0 1 1 -2.4642857,0 1.2321428,1.2321428 0 1 1 2.4642857,0 z"
             transform="matrix(-0.44939287,0,0,-0.44939287,67.843613,45.99697)" />
          <path
             sodipodi:type="arc"
             style="fill:#2d2d2d;fill-opacity:1;stroke:none"
             id="path3790-3-8-8-1-4-1-2"
             sodipodi:cx="4.0892859"
             sodipodi:cy="3.2321429"
             sodipodi:rx="1.2321428"
             sodipodi:ry="1.2321428"
             d="m 5.3214287,3.2321429 a 1.2321428,1.2321428 0 1 1 -2.4642857,0 1.2321428,1.2321428 0 1 1 2.4642857,0 z"
             transform="matrix(-0.44939287,0,0,-0.44939287,61.49433,49.762239)" />
          <path
             sodipodi:type="arc"
             style="fill:#2d2d2d;fill-opacity:1;stroke:none"
             id="path3790-3-8-8-1-4-22-9"
             sodipodi:cx="4.0892859"
             sodipodi:cy="3.2321429"
             sodipodi:rx="1.2321428"
             sodipodi:ry="1.2321428"
             d="m 5.3214287,3.2321429 a 1.2321428,1.2321428 0 1 1 -2.4642857,0 1.2321428,1.2321428 0 1 1 2.4642857,0 z"
             transform="matrix(-0.44939287,0,0,-0.44939287,58.663582,52.873615)" />
          <path
             sodipodi:type="arc"
             style="fill:none;stroke:#2d2d2d;stroke-width:0.51568419;stroke-miterlimit:4;stroke-opacity:1;stroke-dasharray:none"
             id="path3790-3-8-1-3"
             sodipodi:cx="4.0892859"
             sodipodi:cy="3.2321429"
             sodipodi:rx="1.2321428"
             sodipodi:ry="1.2321428"
             d="m 5.3214287,3.2321429 a 1.2321428,1.2321428 0 1 1 -2.4642857,0 1.2321428,1.2321428 0 1 1 2.4642857,0 z"
             transform="matrix(-1.7076931,0,0,-1.7076931,69.99909,31.97591)" />
          <path
             sodipodi:type="arc"
             style="fill:#2d2d2d;fill-opacity:1;stroke:none"
             id="path3790-3-8-8-1-1-19"
             sodipodi:cx="4.0892859"
             sodipodi:cy="3.2321429"
             sodipodi:rx="1.2321428"
             sodipodi:ry="1.2321428"
             d="m 5.3214287,3.2321429 a 1.2321428,1.2321428 0 1 1 -2.4642857,0 1.2321428,1.2321428 0 1 1 2.4642857,0 z"
             transform="matrix(0.95870487,0,0,0.95870487,48.611733,27.381403)" />
          <path
             sodipodi:type="arc"
             style="fill:none;stroke:#2d2d2d;stroke-width:0.42394963;stroke-miterlimit:4;stroke-opacity:1;stroke-dasharray:none"
             id="path3790-3-8-1-3-2"
             sodipodi:cx="4.0892859"
             sodipodi:cy="3.2321429"
             sodipodi:rx="1.2321428"
             sodipodi:ry="1.2321428"
             d="m 5.3214287,3.2321429 a 1.2321428,1.2321428 0 1 1 -2.4642857,0 1.2321428,1.2321428 0 1 1 2.4642857,0 z"
             transform="matrix(-2.2527437,0,0,-2.2527437,73.113907,55.812412)" />
          <rect
             style="fill:#2d2d2d;fill-opacity:1;stroke:none"
             id="rect4077-2-9"
             width="0.81211722"
             height="15.282569"
             x="34.465374"
             y="60.577202"
             rx="9.0210056"
             ry="0"
             transform="matrix(0.8035551,-0.59523038,0.59523038,0.8035551,0,0)" />
          <path
             sodipodi:type="arc"
             style="fill:#2d2d2d;fill-opacity:1;stroke:none"
             id="path3790-3-8-8-1-6-2"
             sodipodi:cx="4.0892859"
             sodipodi:cy="3.2321429"
             sodipodi:rx="1.2321428"
             sodipodi:ry="1.2321428"
             d="m 5.3214287,3.2321429 a 1.2321428,1.2321428 0 1 1 -2.4642857,0 1.2321428,1.2321428 0 1 1 2.4642857,0 z"
             transform="matrix(-0.95870487,0,0,-0.95870487,63.101031,54.115723)" />
          <path
             sodipodi:type="arc"
             style="fill:#2d2d2d;fill-opacity:1;stroke:none"
             id="path3790-3-8-8-1-6-9"
             sodipodi:cx="4.0892859"
             sodipodi:cy="3.2321429"
             sodipodi:rx="1.2321428"
             sodipodi:ry="1.2321428"
             d="m 5.3214287,3.2321429 a 1.2321428,1.2321428 0 1 1 -2.4642857,0 1.2321428,1.2321428 0 1 1 2.4642857,0 z"
             transform="matrix(-0.95870487,0,0,-0.95870487,61.399102,51.629895)" />
          <rect
             style="fill:#2d2d2d;fill-opacity:1;stroke:none"
             id="rect4077-2-1"
             width="0.81211722"
             height="17.12829"
             x="41.466434"
             y="48.505344"
             rx="9.0210056"
             ry="0"
             transform="matrix(0.93355531,-0.35843337,0.35843337,0.93355531,0,0)" />
          <path
             sodipodi:type="arc"
             style="fill:#2d2d2d;fill-opacity:1;stroke:none"
             id="path3790-3-8-8-1-4-8-9-8"
             sodipodi:cx="4.0892859"
             sodipodi:cy="3.2321429"
             sodipodi:rx="1.2321428"
             sodipodi:ry="1.2321428"
             d="m 5.3214287,3.2321429 a 1.2321428,1.2321428 0 1 1 -2.4642857,0 1.2321428,1.2321428 0 1 1 2.4642857,0 z"
             transform="matrix(-0.44939287,0,0,-0.44939287,68.592659,52.831869)" />
          <path
             sodipodi:type="arc"
             style="fill:#2d2d2d;fill-opacity:1;stroke:none"
             id="path3790-3-8-8-1-4-8-9-9"
             sodipodi:cx="4.0892859"
             sodipodi:cy="3.2321429"
             sodipodi:rx="1.2321428"
             sodipodi:ry="1.2321428"
             d="m 5.3214287,3.2321429 a 1.2321428,1.2321428 0 1 1 -2.4642857,0 1.2321428,1.2321428 0 1 1 2.4642857,0 z"
             transform="matrix(-0.44939287,0,0,-0.44939287,78.290391,43.486789)" />
          <path
             sodipodi:type="arc"
             style="fill:#2d2d2d;fill-opacity:1;stroke:none"
             id="path3790-3-8-8-1-4-8-9-7"
             sodipodi:cx="4.0892859"
             sodipodi:cy="3.2321429"
             sodipodi:rx="1.2321428"
             sodipodi:ry="1.2321428"
             d="m 5.3214287,3.2321429 a 1.2321428,1.2321428 0 1 1 -2.4642857,0 1.2321428,1.2321428 0 1 1 2.4642857,0 z"
             transform="matrix(-0.44939287,0,0,-0.44939287,77.921247,40.459806)" />
          <path
             sodipodi:type="arc"
             style="fill:#2d2d2d;fill-opacity:1;stroke:none"
             id="path3790-3-8-8-1-4-8-9-0"
             sodipodi:cx="4.0892859"
             sodipodi:cy="3.2321429"
             sodipodi:rx="1.2321428"
             sodipodi:ry="1.2321428"
             d="m 5.3214287,3.2321429 a 1.2321428,1.2321428 0 1 1 -2.4642857,0 1.2321428,1.2321428 0 1 1 2.4642857,0 z"
             transform="matrix(-0.44939287,0,0,-0.44939287,76.149355,39.278546)" />
          <path
             sodipodi:type="arc"
             style="fill:#2d2d2d;fill-opacity:1;stroke:none"
             id="path3790-3-8-8-1-4-8-9-6"
             sodipodi:cx="4.0892859"
             sodipodi:cy="3.2321429"
             sodipodi:rx="1.2321428"
             sodipodi:ry="1.2321428"
             d="m 5.3214287,3.2321429 a 1.2321428,1.2321428 0 1 1 -2.4642857,0 1.2321428,1.2321428 0 1 1 2.4642857,0 z"
             transform="matrix(-0.77894771,0,0,-0.77894771,79.305805,38.608737)" />
          <path
             sodipodi:type="arc"
             style="fill:#2d2d2d;fill-opacity:1;stroke:none"
             id="path3790-3-8-8-1-4-8-9-6-1"
             sodipodi:cx="4.0892859"
             sodipodi:cy="3.2321429"
             sodipodi:rx="1.2321428"
             sodipodi:ry="1.2321428"
             d="m 5.3214287,3.2321429 a 1.2321428,1.2321428 0 1 1 -2.4642857,0 1.2321428,1.2321428 0 1 1 2.4642857,0 z"
             transform="matrix(-0.77894771,0,0,-0.77894771,58.273282,53.730956)" />
          <path
             sodipodi:type="arc"
             style="fill:#2d2d2d;fill-opacity:1;stroke:none"
             id="path3790-3-8-8-1-4-8-9-6-9"
             sodipodi:cx="4.0892859"
             sodipodi:cy="3.2321429"
             sodipodi:rx="1.2321428"
             sodipodi:ry="1.2321428"
             d="m 5.3214287,3.2321429 a 1.2321428,1.2321428 0 1 1 -2.4642857,0 1.2321428,1.2321428 0 1 1 2.4642857,0 z"
             transform="matrix(-0.77894771,0,0,-0.77894771,58.818303,23.953712)" />
          <path
             sodipodi:type="arc"
             style="fill:#2d2d2d;fill-opacity:1;stroke:none"
             id="path3790-3-8-8-1-4-8-9-6-7"
             sodipodi:cx="4.0892859"
             sodipodi:cy="3.2321429"
             sodipodi:rx="1.2321428"
             sodipodi:ry="1.2321428"
             d="m 5.3214287,3.2321429 a 1.2321428,1.2321428 0 1 1 -2.4642857,0 1.2321428,1.2321428 0 1 1 2.4642857,0 z"
             transform="matrix(-0.77894771,0,0,-0.77894771,68.120737,24.618171)" />
          <path
             sodipodi:type="arc"
             style="fill:#2d2d2d;fill-opacity:1;stroke:none"
             id="path3790-3-8-8-1-4-8-9-6-0"
             sodipodi:cx="4.0892859"
             sodipodi:cy="3.2321429"
             sodipodi:rx="1.2321428"
             sodipodi:ry="1.2321428"
             d="m 5.3214287,3.2321429 a 1.2321428,1.2321428 0 1 1 -2.4642857,0 1.2321428,1.2321428 0 1 1 2.4642857,0 z"
             transform="matrix(-0.77894771,0,0,-0.77894771,71.295376,23.732226)" />
          <path
             sodipodi:type="arc"
             style="fill:#2d2d2d;fill-opacity:1;stroke:none"
             id="path3790-3-8-8-1-4-1-3"
             sodipodi:cx="4.0892859"
             sodipodi:cy="3.2321429"
             sodipodi:rx="1.2321428"
             sodipodi:ry="1.2321428"
             d="m 5.3214287,3.2321429 a 1.2321428,1.2321428 0 1 1 -2.4642857,0 1.2321428,1.2321428 0 1 1 2.4642857,0 z"
             transform="matrix(0.44939287,0,0,0.44939287,56.600762,25.963675)" />
          <path
             sodipodi:type="arc"
             style="fill:#2d2d2d;fill-opacity:1;stroke:none"
             id="path3790-3-8-8-1-4-1-5"
             sodipodi:cx="4.0892859"
             sodipodi:cy="3.2321429"
             sodipodi:rx="1.2321428"
             sodipodi:ry="1.2321428"
             d="m 5.3214287,3.2321429 a 1.2321428,1.2321428 0 1 1 -2.4642857,0 1.2321428,1.2321428 0 1 1 2.4642857,0 z"
             transform="matrix(0.44939287,0,0,0.44939287,58.151168,26.92345)" />
          <path
             sodipodi:type="arc"
             style="fill:#2d2d2d;fill-opacity:1;stroke:none"
             id="path3790-3-8-8-1-4-1-6"
             sodipodi:cx="4.0892859"
             sodipodi:cy="3.2321429"
             sodipodi:rx="1.2321428"
             sodipodi:ry="1.2321428"
             d="m 5.3214287,3.2321429 a 1.2321428,1.2321428 0 1 1 -2.4642857,0 1.2321428,1.2321428 0 1 1 2.4642857,0 z"
             transform="matrix(0.44939287,0,0,0.44939287,57.412879,19.983539)" />
          <path
             sodipodi:type="arc"
             style="fill:#2d2d2d;fill-opacity:1;stroke:none"
             id="path3790-3-8-8-1-4-1-60"
             sodipodi:cx="4.0892859"
             sodipodi:cy="3.2321429"
             sodipodi:rx="1.2321428"
             sodipodi:ry="1.2321428"
             d="m 5.3214287,3.2321429 a 1.2321428,1.2321428 0 1 1 -2.4642857,0 1.2321428,1.2321428 0 1 1 2.4642857,0 z"
             transform="matrix(0.44939287,0,0,0.44939287,55.567158,19.835881)" />
          <path
             sodipodi:type="arc"
             style="fill:#2d2d2d;fill-opacity:1;stroke:none"
             id="path3790-3-8-8-1-4-1-61"
             sodipodi:cx="4.0892859"
             sodipodi:cy="3.2321429"
             sodipodi:rx="1.2321428"
             sodipodi:ry="1.2321428"
             d="m 5.3214287,3.2321429 a 1.2321428,1.2321428 0 1 1 -2.4642857,0 1.2321428,1.2321428 0 1 1 2.4642857,0 z"
             transform="matrix(0.44939287,0,0,0.44939287,61.694952,21.460117)" />
          <path
             sodipodi:type="arc"
             style="fill:#2d2d2d;fill-opacity:1;stroke:none"
             id="path3790-3-8-8-1-4-1-63"
             sodipodi:cx="4.0892859"
             sodipodi:cy="3.2321429"
             sodipodi:rx="1.2321428"
             sodipodi:ry="1.2321428"
             d="m 5.3214287,3.2321429 a 1.2321428,1.2321428 0 1 1 -2.4642857,0 1.2321428,1.2321428 0 1 1 2.4642857,0 z"
             transform="matrix(0.44939287,0,0,0.44939287,64.35279,22.862864)" />
          <path
             sodipodi:type="arc"
             style="fill:#2d2d2d;fill-opacity:1;stroke:none"
             id="path3790-3-8-8-1-4-1-0"
             sodipodi:cx="4.0892859"
             sodipodi:cy="3.2321429"
             sodipodi:rx="1.2321428"
             sodipodi:ry="1.2321428"
             d="m 5.3214287,3.2321429 a 1.2321428,1.2321428 0 1 1 -2.4642857,0 1.2321428,1.2321428 0 1 1 2.4642857,0 z"
             transform="matrix(0.44939287,0,0,0.44939287,66.641484,21.312458)" />
          <path
             sodipodi:type="arc"
             style="fill:#2d2d2d;fill-opacity:1;stroke:none"
             id="path3790-3-8-8-1-4-1-50"
             sodipodi:cx="4.0892859"
             sodipodi:cy="3.2321429"
             sodipodi:rx="1.2321428"
             sodipodi:ry="1.2321428"
             d="m 5.3214287,3.2321429 a 1.2321428,1.2321428 0 1 1 -2.4642857,0 1.2321428,1.2321428 0 1 1 2.4642857,0 z"
             transform="matrix(0.44939287,0,0,0.44939287,64.648105,21.460117)" />
          <path
             sodipodi:type="arc"
             style="fill:#2d2d2d;fill-opacity:1;stroke:none"
             id="path3790-3-8-8-1-4-1-9"
             sodipodi:cx="4.0892859"
             sodipodi:cy="3.2321429"
             sodipodi:rx="1.2321428"
             sodipodi:ry="1.2321428"
             d="m 5.3214287,3.2321429 a 1.2321428,1.2321428 0 1 1 -2.4642857,0 1.2321428,1.2321428 0 1 1 2.4642857,0 z"
             transform="matrix(0.44939287,0,0,0.44939287,47.372159,19.835881)" />
          <path
             sodipodi:type="arc"
             style="fill:#2d2d2d;fill-opacity:1;stroke:none"
             id="path3790-3-8-8-1-4-1-00"
             sodipodi:cx="4.0892859"
             sodipodi:cy="3.2321429"
             sodipodi:rx="1.2321428"
             sodipodi:ry="1.2321428"
             d="m 5.3214287,3.2321429 a 1.2321428,1.2321428 0 1 1 -2.4642857,0 1.2321428,1.2321428 0 1 1 2.4642857,0 z"
             transform="matrix(0.44939287,0,0,0.44939287,48.996393,19.466737)" />
          <path
             sodipodi:type="arc"
             style="fill:#2d2d2d;fill-opacity:1;stroke:none"
             id="path3790-3-8-8-1-4-1-20"
             sodipodi:cx="4.0892859"
             sodipodi:cy="3.2321429"
             sodipodi:rx="1.2321428"
             sodipodi:ry="1.2321428"
             d="m 5.3214287,3.2321429 a 1.2321428,1.2321428 0 1 1 -2.4642857,0 1.2321428,1.2321428 0 1 1 2.4642857,0 z"
             transform="matrix(0.44939287,0,0,0.44939287,51.949545,19.392909)" />
          <path
             sodipodi:type="arc"
             style="fill:#2d2d2d;fill-opacity:1;stroke:none"
             id="path3790-3-8-8-1-4-1-33"
             sodipodi:cx="4.0892859"
             sodipodi:cy="3.2321429"
             sodipodi:rx="1.2321428"
             sodipodi:ry="1.2321428"
             d="m 5.3214287,3.2321429 a 1.2321428,1.2321428 0 1 1 -2.4642857,0 1.2321428,1.2321428 0 1 1 2.4642857,0 z"
             transform="matrix(0.44939287,0,0,0.44939287,44.492832,24.634756)" />
          <path
             sodipodi:type="arc"
             style="fill:#2d2d2d;fill-opacity:1;stroke:none"
             id="path3790-3-8-8-1-4-1-207"
             sodipodi:cx="4.0892859"
             sodipodi:cy="3.2321429"
             sodipodi:rx="1.2321428"
             sodipodi:ry="1.2321428"
             d="m 5.3214287,3.2321429 a 1.2321428,1.2321428 0 1 1 -2.4642857,0 1.2321428,1.2321428 0 1 1 2.4642857,0 z"
             transform="matrix(0.44939287,0,0,0.44939287,44.271346,29.138316)" />
          <path
             sodipodi:type="arc"
             style="fill:#2d2d2d;fill-opacity:1;stroke:none"
             id="path3790-3-8-8-1-4-1-56"
             sodipodi:cx="4.0892859"
             sodipodi:cy="3.2321429"
             sodipodi:rx="1.2321428"
             sodipodi:ry="1.2321428"
             d="m 5.3214287,3.2321429 a 1.2321428,1.2321428 0 1 1 -2.4642857,0 1.2321428,1.2321428 0 1 1 2.4642857,0 z"
             transform="matrix(0.83886675,0,0,0.83886675,43.527709,32.789098)" />
          <path
             sodipodi:type="arc"
             style="fill:#2d2d2d;fill-opacity:1;stroke:none"
             id="path3790-3-8-8-1-4-1-95"
             sodipodi:cx="4.0892859"
             sodipodi:cy="3.2321429"
             sodipodi:rx="1.2321428"
             sodipodi:ry="1.2321428"
             d="m 5.3214287,3.2321429 a 1.2321428,1.2321428 0 1 1 -2.4642857,0 1.2321428,1.2321428 0 1 1 2.4642857,0 z"
             transform="matrix(0.44939287,0,0,0.44939287,44.049861,31.94381)" />
          <path
             sodipodi:type="arc"
             style="fill:#2d2d2d;fill-opacity:1;stroke:none"
             id="path3790-3-8-8-1-4-1-8"
             sodipodi:cx="4.0892859"
             sodipodi:cy="3.2321429"
             sodipodi:rx="1.2321428"
             sodipodi:ry="1.2321428"
             d="m 5.3214287,3.2321429 a 1.2321428,1.2321428 0 1 1 -2.4642857,0 1.2321428,1.2321428 0 1 1 2.4642857,0 z"
             transform="matrix(0.44939287,0,0,0.44939287,43.902202,35.930569)" />
        </g>
      </g>
    </g>
  </g>
</svg>
