<?xml version="1.0" encoding="UTF-8" standalone="no"?>
<!-- Created with Inkscape (http://www.inkscape.org/) -->

<svg
   xmlns:dc="http://purl.org/dc/elements/1.1/"
   xmlns:cc="http://creativecommons.org/ns#"
   xmlns:rdf="http://www.w3.org/1999/02/22-rdf-syntax-ns#"
   xmlns:svg="http://www.w3.org/2000/svg"
   xmlns="http://www.w3.org/2000/svg"
   xmlns:sodipodi="http://sodipodi.sourceforge.net/DTD/sodipodi-0.dtd"
   xmlns:inkscape="http://www.inkscape.org/namespaces/inkscape"
   width="16"
   height="16"
   id="svg3765"
   version="1.1"
   inkscape:version="0.48.3.1 r9886"
   sodipodi:docname="interlinking.svg"
   inkscape:export-filename="/home/k00ni/Documents/semicon/owl.png"
   inkscape:export-xdpi="90"
   inkscape:export-ydpi="90">
  <defs
     id="defs3767" />
  <sodipodi:namedview
     id="base"
     pagecolor="#ffffff"
     bordercolor="#666666"
     borderopacity="1.0"
     inkscape:pageopacity="0.0"
     inkscape:pageshadow="2"
     inkscape:zoom="28"
     inkscape:cx="9.3499046"
     inkscape:cy="5.3713943"
     inkscape:current-layer="layer1-9-3"
     showgrid="true"
     inkscape:grid-bbox="true"
     inkscape:document-units="px"
     inkscape:window-width="1920"
     inkscape:window-height="1029"
     inkscape:window-x="0"
     inkscape:window-y="28"
     inkscape:window-maximized="1"
     showguides="true"
     inkscape:guide-bbox="true" />
  <metadata
     id="metadata3770">
    <rdf:RDF>
      <cc:Work
         rdf:about="">
        <dc:format>image/svg+xml</dc:format>
        <dc:type
           rdf:resource="http://purl.org/dc/dcmitype/StillImage" />
        <dc:title></dc:title>
      </cc:Work>
    </rdf:RDF>
  </metadata>
  <g
     id="layer1"
     inkscape:label="Layer 1"
     inkscape:groupmode="layer"
     transform="translate(0,-32)">
    <g
       inkscape:label="Layer 1"
       id="layer1-4"
       transform="translate(0.20202972,-1.9622142e-8)">
      <g
         transform="translate(-0.37059768,-0.09089584)"
         id="layer1-9"
         inkscape:label="Layer 1">
        <g
           inkscape:label="Layer 1"
           id="layer1-9-3"
           transform="translate(-44.951788,-4.1416259)">
          <path
             sodipodi:type="arc"
             style="fill:#2d2d2d;fill-opacity:1;stroke:none"
             id="path3790"
             sodipodi:cx="4.0892859"
             sodipodi:cy="3.2321429"
             sodipodi:rx="1.2321428"
             sodipodi:ry="1.2321428"
             d="m 5.3214287,3.2321429 a 1.2321428,1.2321428 0 1 1 -2.4642857,0 1.2321428,1.2321428 0 1 1 2.4642857,0 z"
             transform="translate(43.548927,35.589665)" />
          <path
             sodipodi:type="arc"
             style="fill:#2d2d2d;fill-opacity:1;stroke:none"
             id="path3790-3"
             sodipodi:cx="4.0892859"
             sodipodi:cy="3.2321429"
             sodipodi:rx="1.2321428"
             sodipodi:ry="1.2321428"
             d="m 5.3214287,3.2321429 a 1.2321428,1.2321428 0 1 1 -2.4642857,0 1.2321428,1.2321428 0 1 1 2.4642857,0 z"
             transform="matrix(0.82608695,0,0,0.82608695,43.777964,39.63392)" />
          <path
             sodipodi:type="arc"
             style="fill:#2d2d2d;fill-opacity:1;stroke:none"
             id="path3790-3-8"
             sodipodi:cx="4.0892859"
             sodipodi:cy="3.2321429"
             sodipodi:rx="1.2321428"
             sodipodi:ry="1.2321428"
             d="m 5.3214287,3.2321429 a 1.2321428,1.2321428 0 1 1 -2.4642857,0 1.2321428,1.2321428 0 1 1 2.4642857,0 z"
             transform="matrix(0.82608695,0,0,0.82608695,48.170822,35.919634)" />
          <path
             sodipodi:type="arc"
             style="fill:#2d2d2d;fill-opacity:1;stroke:none"
             id="path3790-3-8-8"
             sodipodi:cx="4.0892859"
             sodipodi:cy="3.2321429"
             sodipodi:rx="1.2321428"
             sodipodi:ry="1.2321428"
             d="m 5.3214287,3.2321429 a 1.2321428,1.2321428 0 1 1 -2.4642857,0 1.2321428,1.2321428 0 1 1 2.4642857,0 z"
             transform="matrix(0.79710144,0,0,0.79710144,47.503638,38.63832)" />
          <path
             sodipodi:type="arc"
             style="fill:#2d2d2d;fill-opacity:1;stroke:none"
             id="path3790-3-8-8-1"
             sodipodi:cx="4.0892859"
             sodipodi:cy="3.2321429"
             sodipodi:rx="1.2321428"
             sodipodi:ry="1.2321428"
             d="m 5.3214287,3.2321429 a 1.2321428,1.2321428 0 1 1 -2.4642857,0 1.2321428,1.2321428 0 1 1 2.4642857,0 z"
             transform="matrix(0.4637681,0,0,0.4637681,47.866733,38.0907)" />
          <path
             sodipodi:type="arc"
             style="fill:#2d2d2d;fill-opacity:1;stroke:none"
             id="path3790-3-8-8-1-1"
             sodipodi:cx="4.0892859"
             sodipodi:cy="3.2321429"
             sodipodi:rx="1.2321428"
             sodipodi:ry="1.2321428"
             d="m 5.3214287,3.2321429 a 1.2321428,1.2321428 0 1 1 -2.4642857,0 1.2321428,1.2321428 0 1 1 2.4642857,0 z"
             transform="matrix(0.4637681,0,0,0.4637681,51.438162,35.697842)" />
          <path
             sodipodi:type="arc"
             style="fill:#2d2d2d;fill-opacity:1;stroke:none"
             id="path3790-3-8-8-1-1-5"
             sodipodi:cx="4.0892859"
             sodipodi:cy="3.2321429"
             sodipodi:rx="1.2321428"
             sodipodi:ry="1.2321428"
             d="m 5.3214287,3.2321429 a 1.2321428,1.2321428 0 1 1 -2.4642857,0 1.2321428,1.2321428 0 1 1 2.4642857,0 z"
             transform="matrix(0.4637681,0,0,0.4637681,47.473876,36.412129)" />
          <path
             sodipodi:type="arc"
             style="fill:#2d2d2d;fill-opacity:1;stroke:none"
             id="path3790-3-8-8-1-1-1"
             sodipodi:cx="4.0892859"
             sodipodi:cy="3.2321429"
             sodipodi:rx="1.2321428"
             sodipodi:ry="1.2321428"
             d="m 5.3214287,3.2321429 a 1.2321428,1.2321428 0 1 1 -2.4642857,0 1.2321428,1.2321428 0 1 1 2.4642857,0 z"
             transform="matrix(0.4637681,0,0,0.4637681,44.402447,38.983557)" />
          <path
             sodipodi:type="arc"
             style="fill:#2d2d2d;fill-opacity:1;stroke:none"
             id="path3790-3-8-8-1-4"
             sodipodi:cx="4.0892859"
             sodipodi:cy="3.2321429"
             sodipodi:rx="1.2321428"
             sodipodi:ry="1.2321428"
             d="m 5.3214287,3.2321429 a 1.2321428,1.2321428 0 1 1 -2.4642857,0 1.2321428,1.2321428 0 1 1 2.4642857,0 z"
             transform="matrix(0.21739128,0,0,0.21739128,46.713523,40.083454)" />
          <path
             sodipodi:type="arc"
             style="fill:#2d2d2d;fill-opacity:1;stroke:none"
             id="path3790-3-8-8-1-4-0"
             sodipodi:cx="4.0892859"
             sodipodi:cy="3.2321429"
             sodipodi:rx="1.2321428"
             sodipodi:ry="1.2321428"
             d="m 5.3214287,3.2321429 a 1.2321428,1.2321428 0 1 1 -2.4642857,0 1.2321428,1.2321428 0 1 1 2.4642857,0 z"
             transform="matrix(0.21739128,0,0,0.21739128,47.624238,39.67274)" />
          <path
             sodipodi:type="arc"
             style="fill:#2d2d2d;fill-opacity:1;stroke:none"
             id="path3790-3-8-8-1-4-3"
             sodipodi:cx="4.0892859"
             sodipodi:cy="3.2321429"
             sodipodi:rx="1.2321428"
             sodipodi:ry="1.2321428"
             d="m 5.3214287,3.2321429 a 1.2321428,1.2321428 0 1 1 -2.4642857,0 1.2321428,1.2321428 0 1 1 2.4642857,0 z"
             transform="matrix(0.21739128,0,0,0.21739128,47.481381,36.744168)" />
          <path
             sodipodi:type="arc"
             style="fill:#2d2d2d;fill-opacity:1;stroke:none"
             id="path3790-3-8-8-1-4-4"
             sodipodi:cx="4.0892859"
             sodipodi:cy="3.2321429"
             sodipodi:rx="1.2321428"
             sodipodi:ry="1.2321428"
             d="m 5.3214287,3.2321429 a 1.2321428,1.2321428 0 1 1 -2.4642857,0 1.2321428,1.2321428 0 1 1 2.4642857,0 z"
             transform="matrix(0.21739128,0,0,0.21739128,45.695667,36.494167)" />
          <path
             sodipodi:type="arc"
             style="fill:#2d2d2d;fill-opacity:1;stroke:none"
             id="path3790-3-8-8-1-4-2"
             sodipodi:cx="4.0892859"
             sodipodi:cy="3.2321429"
             sodipodi:rx="1.2321428"
             sodipodi:ry="1.2321428"
             d="m 5.3214287,3.2321429 a 1.2321428,1.2321428 0 1 1 -2.4642857,0 1.2321428,1.2321428 0 1 1 2.4642857,0 z"
             transform="matrix(0.21739128,0,0,0.21739128,45.159952,37.85131)" />
          <path
             sodipodi:type="arc"
             style="fill:#2d2d2d;fill-opacity:1;stroke:none"
             id="path3790-3-8-8-1-4-8"
             sodipodi:cx="4.0892859"
             sodipodi:cy="3.2321429"
             sodipodi:rx="1.2321428"
             sodipodi:ry="1.2321428"
             d="m 5.3214287,3.2321429 a 1.2321428,1.2321428 0 1 1 -2.4642857,0 1.2321428,1.2321428 0 1 1 2.4642857,0 z"
             transform="matrix(0.21739128,0,0,0.21739128,48.677809,42.012025)" />
          <path
             sodipodi:type="arc"
             style="fill:#2d2d2d;fill-opacity:1;stroke:none"
             id="path3790-3-8-8-1-4-1"
             sodipodi:cx="4.0892859"
             sodipodi:cy="3.2321429"
             sodipodi:rx="1.2321428"
             sodipodi:ry="1.2321428"
             d="m 5.3214287,3.2321429 a 1.2321428,1.2321428 0 1 1 -2.4642857,0 1.2321428,1.2321428 0 1 1 2.4642857,0 z"
             transform="matrix(0.21739128,0,0,0.21739128,51.445667,40.601311)" />
          <path
             sodipodi:type="arc"
             style="fill:#2d2d2d;fill-opacity:1;stroke:none"
             id="path3790-0"
             sodipodi:cx="4.0892859"
             sodipodi:cy="3.2321429"
             sodipodi:rx="1.2321428"
             sodipodi:ry="1.2321428"
             d="m 5.3214287,3.2321429 a 1.2321428,1.2321428 0 1 1 -2.4642857,0 1.2321428,1.2321428 0 1 1 2.4642857,0 z"
             transform="matrix(-1,0,0,-1,62.923929,53.30395)" />
          <path
             sodipodi:type="arc"
             style="fill:#2d2d2d;fill-opacity:1;stroke:none"
             id="path3790-3-5"
             sodipodi:cx="4.0892859"
             sodipodi:cy="3.2321429"
             sodipodi:rx="1.2321428"
             sodipodi:ry="1.2321428"
             d="m 5.3214287,3.2321429 a 1.2321428,1.2321428 0 1 1 -2.4642857,0 1.2321428,1.2321428 0 1 1 2.4642857,0 z"
             transform="matrix(-0.82608695,0,0,-0.82608695,62.552035,49.223981)" />
          <path
             sodipodi:type="arc"
             style="fill:#2d2d2d;fill-opacity:1;stroke:none"
             id="path3790-3-8-8-3"
             sodipodi:cx="4.0892859"
             sodipodi:cy="3.2321429"
             sodipodi:rx="1.2321428"
             sodipodi:ry="1.2321428"
             d="m 5.3214287,3.2321429 a 1.2321428,1.2321428 0 1 1 -2.4642857,0 1.2321428,1.2321428 0 1 1 2.4642857,0 z"
             transform="matrix(-0.79710144,0,0,-0.79710144,60.326361,49.916009)" />
          <path
             sodipodi:type="arc"
             style="fill:#2d2d2d;fill-opacity:1;stroke:none"
             id="path3790-3-8-8-1-6"
             sodipodi:cx="4.0892859"
             sodipodi:cy="3.2321429"
             sodipodi:rx="1.2321428"
             sodipodi:ry="1.2321428"
             d="m 5.3214287,3.2321429 a 1.2321428,1.2321428 0 1 1 -2.4642857,0 1.2321428,1.2321428 0 1 1 2.4642857,0 z"
             transform="matrix(-0.4637681,0,0,-0.4637681,58.606123,50.802915)" />
          <path
             sodipodi:type="arc"
             style="fill:#2d2d2d;fill-opacity:1;stroke:none"
             id="path3790-3-8-8-1-1-5-1"
             sodipodi:cx="4.0892859"
             sodipodi:cy="3.2321429"
             sodipodi:rx="1.2321428"
             sodipodi:ry="1.2321428"
             d="m 5.3214287,3.2321429 a 1.2321428,1.2321428 0 1 1 -2.4642857,0 1.2321428,1.2321428 0 1 1 2.4642857,0 z"
             transform="matrix(-0.4637681,0,0,-0.4637681,58.99898,52.481486)" />
          <path
             sodipodi:type="arc"
             style="fill:#2d2d2d;fill-opacity:1;stroke:none"
             id="path3790-3-8-8-1-1-1-9"
             sodipodi:cx="4.0892859"
             sodipodi:cy="3.2321429"
             sodipodi:rx="1.2321428"
             sodipodi:ry="1.2321428"
             d="m 5.3214287,3.2321429 a 1.2321428,1.2321428 0 1 1 -2.4642857,0 1.2321428,1.2321428 0 1 1 2.4642857,0 z"
             transform="matrix(-0.4637681,0,0,-0.4637681,62.070409,49.910058)" />
          <path
             sodipodi:type="arc"
             style="fill:#2d2d2d;fill-opacity:1;stroke:none"
             id="path3790-3-8-8-1-4-27"
             sodipodi:cx="4.0892859"
             sodipodi:cy="3.2321429"
             sodipodi:rx="1.2321428"
             sodipodi:ry="1.2321428"
             d="m 5.3214287,3.2321429 a 1.2321428,1.2321428 0 1 1 -2.4642857,0 1.2321428,1.2321428 0 1 1 2.4642857,0 z"
             transform="matrix(-0.21739128,0,0,-0.21739128,59.759333,48.810161)" />
          <path
             sodipodi:type="arc"
             style="fill:#2d2d2d;fill-opacity:1;stroke:none"
             id="path3790-3-8-8-1-4-0-7"
             sodipodi:cx="4.0892859"
             sodipodi:cy="3.2321429"
             sodipodi:rx="1.2321428"
             sodipodi:ry="1.2321428"
             d="m 5.3214287,3.2321429 a 1.2321428,1.2321428 0 1 1 -2.4642857,0 1.2321428,1.2321428 0 1 1 2.4642857,0 z"
             transform="matrix(-0.21739128,0,0,-0.21739128,58.848618,49.220875)" />
          <path
             sodipodi:type="arc"
             style="fill:#2d2d2d;fill-opacity:1;stroke:none"
             id="path3790-3-8-8-1-4-3-4"
             sodipodi:cx="4.0892859"
             sodipodi:cy="3.2321429"
             sodipodi:rx="1.2321428"
             sodipodi:ry="1.2321428"
             d="m 5.3214287,3.2321429 a 1.2321428,1.2321428 0 1 1 -2.4642857,0 1.2321428,1.2321428 0 1 1 2.4642857,0 z"
             transform="matrix(-0.21739128,0,0,-0.21739128,58.991475,52.149447)" />
          <path
             sodipodi:type="arc"
             style="fill:#2d2d2d;fill-opacity:1;stroke:none"
             id="path3790-3-8-8-1-4-4-9"
             sodipodi:cx="4.0892859"
             sodipodi:cy="3.2321429"
             sodipodi:rx="1.2321428"
             sodipodi:ry="1.2321428"
             d="m 5.3214287,3.2321429 a 1.2321428,1.2321428 0 1 1 -2.4642857,0 1.2321428,1.2321428 0 1 1 2.4642857,0 z"
             transform="matrix(-0.21739128,0,0,-0.21739128,60.777189,52.399448)" />
          <path
             sodipodi:type="arc"
             style="fill:#2d2d2d;fill-opacity:1;stroke:none"
             id="path3790-3-8-8-1-4-2-8"
             sodipodi:cx="4.0892859"
             sodipodi:cy="3.2321429"
             sodipodi:rx="1.2321428"
             sodipodi:ry="1.2321428"
             d="m 5.3214287,3.2321429 a 1.2321428,1.2321428 0 1 1 -2.4642857,0 1.2321428,1.2321428 0 1 1 2.4642857,0 z"
             transform="matrix(-0.21739128,0,0,-0.21739128,61.312904,51.042305)" />
          <path
             sodipodi:type="arc"
             style="fill:#2d2d2d;fill-opacity:1;stroke:none"
             id="path3790-3-8-8-1-4-8-9"
             sodipodi:cx="4.0892859"
             sodipodi:cy="3.2321429"
             sodipodi:rx="1.2321428"
             sodipodi:ry="1.2321428"
             d="m 5.3214287,3.2321429 a 1.2321428,1.2321428 0 1 1 -2.4642857,0 1.2321428,1.2321428 0 1 1 2.4642857,0 z"
             transform="matrix(-0.21739128,0,0,-0.21739128,56.348618,48.970876)" />
          <path
             sodipodi:type="arc"
             style="fill:#2d2d2d;fill-opacity:1;stroke:none"
             id="path3790-3-8-8-1-4-1-2"
             sodipodi:cx="4.0892859"
             sodipodi:cy="3.2321429"
             sodipodi:rx="1.2321428"
             sodipodi:ry="1.2321428"
             d="m 5.3214287,3.2321429 a 1.2321428,1.2321428 0 1 1 -2.4642857,0 1.2321428,1.2321428 0 1 1 2.4642857,0 z"
             transform="matrix(-0.21739128,0,0,-0.21739128,53.277188,50.792304)" />
          <path
             sodipodi:type="arc"
             style="fill:#2d2d2d;fill-opacity:1;stroke:none"
             id="path3790-3-8-8-1-4-22-9"
             sodipodi:cx="4.0892859"
             sodipodi:cy="3.2321429"
             sodipodi:rx="1.2321428"
             sodipodi:ry="1.2321428"
             d="m 5.3214287,3.2321429 a 1.2321428,1.2321428 0 1 1 -2.4642857,0 1.2321428,1.2321428 0 1 1 2.4642857,0 z"
             transform="matrix(-0.21739128,0,0,-0.21739128,51.920046,51.863733)" />
          <path
             sodipodi:type="arc"
             style="fill:none;stroke:#2d2d2d;stroke-width:0.51568419;stroke-miterlimit:4;stroke-opacity:1;stroke-dasharray:none"
             id="path3790-3-8-1-3"
             sodipodi:cx="4.0892859"
             sodipodi:cy="3.2321429"
             sodipodi:rx="1.2321428"
             sodipodi:ry="1.2321428"
             d="m 5.3214287,3.2321429 a 1.2321428,1.2321428 0 1 1 -2.4642857,0 1.2321428,1.2321428 0 1 1 2.4642857,0 z"
             transform="matrix(-0.82608695,0,0,-0.82608695,57.391318,42.188267)" />
          <path
             sodipodi:type="arc"
             style="fill:#2d2d2d;fill-opacity:1;stroke:none"
             id="path3790-3-8-8-1-1-19"
             sodipodi:cx="4.0892859"
             sodipodi:cy="3.2321429"
             sodipodi:rx="1.2321428"
             sodipodi:ry="1.2321428"
             d="m 5.3214287,3.2321429 a 1.2321428,1.2321428 0 1 1 -2.4642857,0 1.2321428,1.2321428 0 1 1 2.4642857,0 z"
             transform="matrix(0.4637681,0,0,0.4637681,47.045304,39.9657)" />
          <path
             sodipodi:type="arc"
             style="fill:none;stroke:#2d2d2d;stroke-width:0.42394963;stroke-miterlimit:4;stroke-opacity:1;stroke-dasharray:none"
             id="path3790-3-8-1-3-2"
             sodipodi:cx="4.0892859"
             sodipodi:cy="3.2321429"
             sodipodi:rx="1.2321428"
             sodipodi:ry="1.2321428"
             d="m 5.3214287,3.2321429 a 1.2321428,1.2321428 0 1 1 -2.4642857,0 1.2321428,1.2321428 0 1 1 2.4642857,0 z"
             transform="matrix(-1.0897521,0,0,-1.0897521,58.898093,53.719041)" />
          <rect
             style="fill:#2d2d2d;fill-opacity:1;stroke:none"
             id="rect4077-2-9"
             width="0.39285713"
             height="7.3928571"
             x="19.675188"
             y="64.780518"
             rx="4.3638606"
             ry="0"
             transform="matrix(0.8035551,-0.59523038,0.59523038,0.8035551,0,0)" />
          <path
             sodipodi:type="arc"
             style="fill:#2d2d2d;fill-opacity:1;stroke:none"
             id="path3790-3-8-8-1-6-2"
             sodipodi:cx="4.0892859"
             sodipodi:cy="3.2321429"
             sodipodi:rx="1.2321428"
             sodipodi:ry="1.2321428"
             d="m 5.3214287,3.2321429 a 1.2321428,1.2321428 0 1 1 -2.4642857,0 1.2321428,1.2321428 0 1 1 2.4642857,0 z"
             transform="matrix(-0.4637681,0,0,-0.4637681,53.981122,52.660058)" />
          <path
             sodipodi:type="arc"
             style="fill:#2d2d2d;fill-opacity:1;stroke:none"
             id="path3790-3-8-8-1-6-9"
             sodipodi:cx="4.0892859"
             sodipodi:cy="3.2321429"
             sodipodi:rx="1.2321428"
             sodipodi:ry="1.2321428"
             d="m 5.3214287,3.2321429 a 1.2321428,1.2321428 0 1 1 -2.4642857,0 1.2321428,1.2321428 0 1 1 2.4642857,0 z"
             transform="matrix(-0.4637681,0,0,-0.4637681,53.231122,51.695772)" />
          <rect
             style="fill:#2d2d2d;fill-opacity:1;stroke:none"
             id="rect4077-2-1"
             width="0.39285713"
             height="8.2857141"
             x="32.448009"
             y="56.84269"
             rx="4.3638606"
             ry="0"
             transform="matrix(0.93355531,-0.35843337,0.35843337,0.93355531,0,0)" />
          <path
             sodipodi:type="arc"
             style="fill:#2d2d2d;fill-opacity:1;stroke:none"
             id="path3790-3-8-8-1-4-8-9-8"
             sodipodi:cx="4.0892859"
             sodipodi:cy="3.2321429"
             sodipodi:rx="1.2321428"
             sodipodi:ry="1.2321428"
             d="m 5.3214287,3.2321429 a 1.2321428,1.2321428 0 1 1 -2.4642857,0 1.2321428,1.2321428 0 1 1 2.4642857,0 z"
             transform="matrix(-0.21739128,0,0,-0.21739128,56.973617,51.935161)" />
          <path
             sodipodi:type="arc"
             style="fill:#2d2d2d;fill-opacity:1;stroke:none"
             id="path3790-3-8-8-1-4-8-9-9"
             sodipodi:cx="4.0892859"
             sodipodi:cy="3.2321429"
             sodipodi:rx="1.2321428"
             sodipodi:ry="1.2321428"
             d="m 5.3214287,3.2321429 a 1.2321428,1.2321428 0 1 1 -2.4642857,0 1.2321428,1.2321428 0 1 1 2.4642857,0 z"
             transform="matrix(-0.21739128,0,0,-0.21739128,61.402188,47.75659)" />
          <path
             sodipodi:type="arc"
             style="fill:#2d2d2d;fill-opacity:1;stroke:none"
             id="path3790-3-8-8-1-4-8-9-7"
             sodipodi:cx="4.0892859"
             sodipodi:cy="3.2321429"
             sodipodi:rx="1.2321428"
             sodipodi:ry="1.2321428"
             d="m 5.3214287,3.2321429 a 1.2321428,1.2321428 0 1 1 -2.4642857,0 1.2321428,1.2321428 0 1 1 2.4642857,0 z"
             transform="matrix(-0.21739128,0,0,-0.21739128,61.223617,46.292304)" />
          <path
             sodipodi:type="arc"
             style="fill:#2d2d2d;fill-opacity:1;stroke:none"
             id="path3790-3-8-8-1-4-8-9-0"
             sodipodi:cx="4.0892859"
             sodipodi:cy="3.2321429"
             sodipodi:rx="1.2321428"
             sodipodi:ry="1.2321428"
             d="m 5.3214287,3.2321429 a 1.2321428,1.2321428 0 1 1 -2.4642857,0 1.2321428,1.2321428 0 1 1 2.4642857,0 z"
             transform="matrix(-0.21739128,0,0,-0.21739128,60.366474,45.720876)" />
          <path
             sodipodi:type="arc"
             style="fill:#2d2d2d;fill-opacity:1;stroke:none"
             id="path3790-3-8-8-1-4-8-9-6"
             sodipodi:cx="4.0892859"
             sodipodi:cy="3.2321429"
             sodipodi:rx="1.2321428"
             sodipodi:ry="1.2321428"
             d="m 5.3214287,3.2321429 a 1.2321428,1.2321428 0 1 1 -2.4642857,0 1.2321428,1.2321428 0 1 1 2.4642857,0 z"
             transform="matrix(-0.37681158,0,0,-0.37681158,61.893389,45.39686)" />
          <path
             sodipodi:type="arc"
             style="fill:#2d2d2d;fill-opacity:1;stroke:none"
             id="path3790-3-8-8-1-4-8-9-6-1"
             sodipodi:cx="4.0892859"
             sodipodi:cy="3.2321429"
             sodipodi:rx="1.2321428"
             sodipodi:ry="1.2321428"
             d="m 5.3214287,3.2321429 a 1.2321428,1.2321428 0 1 1 -2.4642857,0 1.2321428,1.2321428 0 1 1 2.4642857,0 z"
             transform="matrix(-0.37681158,0,0,-0.37681158,51.554103,52.486145)" />
          <path
             sodipodi:type="arc"
             style="fill:#2d2d2d;fill-opacity:1;stroke:none"
             id="path3790-3-8-8-1-4-8-9-6-9"
             sodipodi:cx="4.0892859"
             sodipodi:cy="3.2321429"
             sodipodi:rx="1.2321428"
             sodipodi:ry="1.2321428"
             d="m 5.3214287,3.2321429 a 1.2321428,1.2321428 0 1 1 -2.4642857,0 1.2321428,1.2321428 0 1 1 2.4642857,0 z"
             transform="matrix(-0.37681158,0,0,-0.37681158,51.982675,38.307574)" />
          <path
             sodipodi:type="arc"
             style="fill:#2d2d2d;fill-opacity:1;stroke:none"
             id="path3790-3-8-8-1-4-8-9-6-7"
             sodipodi:cx="4.0892859"
             sodipodi:cy="3.2321429"
             sodipodi:rx="1.2321428"
             sodipodi:ry="1.2321428"
             d="m 5.3214287,3.2321429 a 1.2321428,1.2321428 0 1 1 -2.4642857,0 1.2321428,1.2321428 0 1 1 2.4642857,0 z"
             transform="matrix(-0.37681158,0,0,-0.37681158,56.482675,38.629002)" />
          <path
             sodipodi:type="arc"
             style="fill:#2d2d2d;fill-opacity:1;stroke:none"
             id="path3790-3-8-8-1-4-8-9-6-0"
             sodipodi:cx="4.0892859"
             sodipodi:cy="3.2321429"
             sodipodi:rx="1.2321428"
             sodipodi:ry="1.2321428"
             d="m 5.3214287,3.2321429 a 1.2321428,1.2321428 0 1 1 -2.4642857,0 1.2321428,1.2321428 0 1 1 2.4642857,0 z"
             transform="matrix(-0.37681158,0,0,-0.37681158,58.018389,38.200431)" />
          <path
             sodipodi:type="arc"
             style="fill:#2d2d2d;fill-opacity:1;stroke:none"
             id="path3790-3-8-8-1-4-1-3"
             sodipodi:cx="4.0892859"
             sodipodi:cy="3.2321429"
             sodipodi:rx="1.2321428"
             sodipodi:ry="1.2321428"
             d="m 5.3214287,3.2321429 a 1.2321428,1.2321428 0 1 1 -2.4642857,0 1.2321428,1.2321428 0 1 1 2.4642857,0 z"
             transform="matrix(0.21739128,0,0,0.21739128,50.909952,39.279882)" />
          <path
             sodipodi:type="arc"
             style="fill:#2d2d2d;fill-opacity:1;stroke:none"
             id="path3790-3-8-8-1-4-1-5"
             sodipodi:cx="4.0892859"
             sodipodi:cy="3.2321429"
             sodipodi:rx="1.2321428"
             sodipodi:ry="1.2321428"
             d="m 5.3214287,3.2321429 a 1.2321428,1.2321428 0 1 1 -2.4642857,0 1.2321428,1.2321428 0 1 1 2.4642857,0 z"
             transform="matrix(0.21739128,0,0,0.21739128,51.659952,39.744168)" />
          <path
             sodipodi:type="arc"
             style="fill:#2d2d2d;fill-opacity:1;stroke:none"
             id="path3790-3-8-8-1-4-1-6"
             sodipodi:cx="4.0892859"
             sodipodi:cy="3.2321429"
             sodipodi:rx="1.2321428"
             sodipodi:ry="1.2321428"
             d="m 5.3214287,3.2321429 a 1.2321428,1.2321428 0 1 1 -2.4642857,0 1.2321428,1.2321428 0 1 1 2.4642857,0 z"
             transform="matrix(0.21739128,0,0,0.21739128,51.302809,36.387025)" />
          <path
             sodipodi:type="arc"
             style="fill:#2d2d2d;fill-opacity:1;stroke:none"
             id="path3790-3-8-8-1-4-1-60"
             sodipodi:cx="4.0892859"
             sodipodi:cy="3.2321429"
             sodipodi:rx="1.2321428"
             sodipodi:ry="1.2321428"
             d="m 5.3214287,3.2321429 a 1.2321428,1.2321428 0 1 1 -2.4642857,0 1.2321428,1.2321428 0 1 1 2.4642857,0 z"
             transform="matrix(0.21739128,0,0,0.21739128,50.409952,36.315596)" />
          <path
             sodipodi:type="arc"
             style="fill:#2d2d2d;fill-opacity:1;stroke:none"
             id="path3790-3-8-8-1-4-1-61"
             sodipodi:cx="4.0892859"
             sodipodi:cy="3.2321429"
             sodipodi:rx="1.2321428"
             sodipodi:ry="1.2321428"
             d="m 5.3214287,3.2321429 a 1.2321428,1.2321428 0 1 1 -2.4642857,0 1.2321428,1.2321428 0 1 1 2.4642857,0 z"
             transform="matrix(0.21739128,0,0,0.21739128,53.374238,37.101311)" />
          <path
             sodipodi:type="arc"
             style="fill:#2d2d2d;fill-opacity:1;stroke:none"
             id="path3790-3-8-8-1-4-1-63"
             sodipodi:cx="4.0892859"
             sodipodi:cy="3.2321429"
             sodipodi:rx="1.2321428"
             sodipodi:ry="1.2321428"
             d="m 5.3214287,3.2321429 a 1.2321428,1.2321428 0 1 1 -2.4642857,0 1.2321428,1.2321428 0 1 1 2.4642857,0 z"
             transform="matrix(0.21739128,0,0,0.21739128,54.659952,37.779882)" />
          <path
             sodipodi:type="arc"
             style="fill:#2d2d2d;fill-opacity:1;stroke:none"
             id="path3790-3-8-8-1-4-1-0"
             sodipodi:cx="4.0892859"
             sodipodi:cy="3.2321429"
             sodipodi:rx="1.2321428"
             sodipodi:ry="1.2321428"
             d="m 5.3214287,3.2321429 a 1.2321428,1.2321428 0 1 1 -2.4642857,0 1.2321428,1.2321428 0 1 1 2.4642857,0 z"
             transform="matrix(0.21739128,0,0,0.21739128,55.767095,37.029882)" />
          <path
             sodipodi:type="arc"
             style="fill:#2d2d2d;fill-opacity:1;stroke:none"
             id="path3790-3-8-8-1-4-1-50"
             sodipodi:cx="4.0892859"
             sodipodi:cy="3.2321429"
             sodipodi:rx="1.2321428"
             sodipodi:ry="1.2321428"
             d="m 5.3214287,3.2321429 a 1.2321428,1.2321428 0 1 1 -2.4642857,0 1.2321428,1.2321428 0 1 1 2.4642857,0 z"
             transform="matrix(0.21739128,0,0,0.21739128,54.802809,37.101311)" />
          <path
             sodipodi:type="arc"
             style="fill:#2d2d2d;fill-opacity:1;stroke:none"
             id="path3790-3-8-8-1-4-1-9"
             sodipodi:cx="4.0892859"
             sodipodi:cy="3.2321429"
             sodipodi:rx="1.2321428"
             sodipodi:ry="1.2321428"
             d="m 5.3214287,3.2321429 a 1.2321428,1.2321428 0 1 1 -2.4642857,0 1.2321428,1.2321428 0 1 1 2.4642857,0 z"
             transform="matrix(0.21739128,0,0,0.21739128,46.445667,36.315596)" />
          <path
             sodipodi:type="arc"
             style="fill:#2d2d2d;fill-opacity:1;stroke:none"
             id="path3790-3-8-8-1-4-1-00"
             sodipodi:cx="4.0892859"
             sodipodi:cy="3.2321429"
             sodipodi:rx="1.2321428"
             sodipodi:ry="1.2321428"
             d="m 5.3214287,3.2321429 a 1.2321428,1.2321428 0 1 1 -2.4642857,0 1.2321428,1.2321428 0 1 1 2.4642857,0 z"
             transform="matrix(0.21739128,0,0,0.21739128,47.231381,36.137025)" />
          <path
             sodipodi:type="arc"
             style="fill:#2d2d2d;fill-opacity:1;stroke:none"
             id="path3790-3-8-8-1-4-1-20"
             sodipodi:cx="4.0892859"
             sodipodi:cy="3.2321429"
             sodipodi:rx="1.2321428"
             sodipodi:ry="1.2321428"
             d="m 5.3214287,3.2321429 a 1.2321428,1.2321428 0 1 1 -2.4642857,0 1.2321428,1.2321428 0 1 1 2.4642857,0 z"
             transform="matrix(0.21739128,0,0,0.21739128,48.659952,36.101311)" />
          <path
             sodipodi:type="arc"
             style="fill:#2d2d2d;fill-opacity:1;stroke:none"
             id="path3790-3-8-8-1-4-1-33"
             sodipodi:cx="4.0892859"
             sodipodi:cy="3.2321429"
             sodipodi:rx="1.2321428"
             sodipodi:ry="1.2321428"
             d="m 5.3214287,3.2321429 a 1.2321428,1.2321428 0 1 1 -2.4642857,0 1.2321428,1.2321428 0 1 1 2.4642857,0 z"
             transform="matrix(0.21739128,0,0,0.21739128,45.052809,38.637025)" />
          <path
             sodipodi:type="arc"
             style="fill:#2d2d2d;fill-opacity:1;stroke:none"
             id="path3790-3-8-8-1-4-1-207"
             sodipodi:cx="4.0892859"
             sodipodi:cy="3.2321429"
             sodipodi:rx="1.2321428"
             sodipodi:ry="1.2321428"
             d="m 5.3214287,3.2321429 a 1.2321428,1.2321428 0 1 1 -2.4642857,0 1.2321428,1.2321428 0 1 1 2.4642857,0 z"
             transform="matrix(0.21739128,0,0,0.21739128,44.945666,40.815597)" />
          <path
             sodipodi:type="arc"
             style="fill:#2d2d2d;fill-opacity:1;stroke:none"
             id="path3790-3-8-8-1-4-1-56"
             sodipodi:cx="4.0892859"
             sodipodi:cy="3.2321429"
             sodipodi:rx="1.2321428"
             sodipodi:ry="1.2321428"
             d="m 5.3214287,3.2321429 a 1.2321428,1.2321428 0 1 1 -2.4642857,0 1.2321428,1.2321428 0 1 1 2.4642857,0 z"
             transform="matrix(0.40579708,0,0,0.40579708,44.585936,42.581642)" />
          <path
             sodipodi:type="arc"
             style="fill:#2d2d2d;fill-opacity:1;stroke:none"
             id="path3790-3-8-8-1-4-1-95"
             sodipodi:cx="4.0892859"
             sodipodi:cy="3.2321429"
             sodipodi:rx="1.2321428"
             sodipodi:ry="1.2321428"
             d="m 5.3214287,3.2321429 a 1.2321428,1.2321428 0 1 1 -2.4642857,0 1.2321428,1.2321428 0 1 1 2.4642857,0 z"
             transform="matrix(0.21739128,0,0,0.21739128,44.838524,42.172739)" />
          <path
             sodipodi:type="arc"
             style="fill:#2d2d2d;fill-opacity:1;stroke:none"
             id="path3790-3-8-8-1-4-1-8"
             sodipodi:cx="4.0892859"
             sodipodi:cy="3.2321429"
             sodipodi:rx="1.2321428"
             sodipodi:ry="1.2321428"
             d="m 5.3214287,3.2321429 a 1.2321428,1.2321428 0 1 1 -2.4642857,0 1.2321428,1.2321428 0 1 1 2.4642857,0 z"
             transform="matrix(0.21739128,0,0,0.21739128,44.767095,44.101311)" />
        </g>
      </g>
    </g>
  </g>
</svg>
