<?xml version="1.0" encoding="UTF-8" standalone="no"?>
<!-- Created with Inkscape (http://www.inkscape.org/) -->

<svg
   xmlns:dc="http://purl.org/dc/elements/1.1/"
   xmlns:cc="http://creativecommons.org/ns#"
   xmlns:rdf="http://www.w3.org/1999/02/22-rdf-syntax-ns#"
   xmlns:svg="http://www.w3.org/2000/svg"
   xmlns="http://www.w3.org/2000/svg"
   xmlns:sodipodi="http://sodipodi.sourceforge.net/DTD/sodipodi-0.dtd"
   xmlns:inkscape="http://www.inkscape.org/namespaces/inkscape"
   width="16"
   height="16"
   id="svg3765"
   version="1.1"
   inkscape:version="0.48.3.1 r9886"
   sodipodi:docname="owl.svg"
   inkscape:export-filename="/home/k00ni/Documents/semicon/owl.png"
   inkscape:export-xdpi="90"
   inkscape:export-ydpi="90">
  <defs
     id="defs3767" />
  <sodipodi:namedview
     id="base"
     pagecolor="#ffffff"
     bordercolor="#666666"
     borderopacity="1.0"
     inkscape:pageopacity="0.0"
     inkscape:pageshadow="2"
     inkscape:zoom="56"
     inkscape:cx="11.424659"
     inkscape:cy="7.8127141"
     inkscape:current-layer="layer1-9-3"
     showgrid="true"
     inkscape:grid-bbox="true"
     inkscape:document-units="px"
     inkscape:window-width="1920"
     inkscape:window-height="1029"
     inkscape:window-x="0"
     inkscape:window-y="28"
     inkscape:window-maximized="1"
     showguides="true"
     inkscape:guide-bbox="true" />
  <metadata
     id="metadata3770">
    <rdf:RDF>
      <cc:Work
         rdf:about="">
        <dc:format>image/svg+xml</dc:format>
        <dc:type
           rdf:resource="http://purl.org/dc/dcmitype/StillImage" />
        <dc:title />
      </cc:Work>
    </rdf:RDF>
  </metadata>
  <g
     id="layer1"
     inkscape:label="Layer 1"
     inkscape:groupmode="layer"
     transform="translate(0,-32)">
    <g
       inkscape:label="Layer 1"
       id="layer1-4"
       transform="translate(0.20202972,-1.9622142e-8)">
      <g
         transform="translate(-0.37059768,-0.09089584)"
         id="layer1-9"
         inkscape:label="Layer 1">
        <g
           inkscape:label="Layer 1"
           id="layer1-9-3"
           transform="translate(-44.951788,-4.1416259)">
          <text
             xml:space="preserve"
             style="font-size:21.23119926px;font-style:normal;font-weight:normal;line-height:125%;letter-spacing:0px;word-spacing:0px;fill:#2d2d2d;fill-opacity:1;stroke:none;font-family:Sans"
             x="11.327947"
             y="70.907082"
             id="text2993"
             sodipodi:linespacing="125%"
             transform="matrix(0.72325739,-0.69058502,0.69363323,0.72033455,0,0)"><tspan
               sodipodi:role="line"
               x="11.327947"
               y="70.907082"
               style="font-size:7.11454964px;font-style:normal;font-variant:normal;font-weight:bold;font-stretch:normal;fill:#2d2d2d;fill-opacity:1;font-family:Ubuntu;-inkscape-font-specification:Ubuntu Bold"
               id="tspan2987">L</tspan></text>
          <g
             transform="matrix(0.6876685,-0.6876685,0.6876685,0.6876685,1.2854535,1.2094927)"
             style="font-size:21.93952751px;font-style:normal;font-weight:normal;line-height:125%;letter-spacing:0px;word-spacing:0px;fill:#2d2d2d;fill-opacity:1;stroke:none;font-family:Sans"
             id="text2993-4">
            <path
               d="m -1.4734526,68.715878 c -1.5e-6,0.249967 0.029406,0.475426 0.088223,0.676376 0.063715,0.200954 0.1519377,0.374949 0.2646688,0.521985 0.1176285,0.142138 0.25976526,0.252417 0.42641069,0.330836 0.16664078,0.07842 0.35779023,0.117632 0.57344892,0.117631 0.21075161,10e-7 0.39945043,-0.03921 0.566097,-0.117631 0.17154091,-0.07842 0.31367768,-0.188698 0.42641074,-0.330836 0.11762653,-0.147036 0.20584935,-0.321031 0.26466875,-0.521985 0.063712,-0.20095 0.095571,-0.426409 0.095575,-0.676376 -4.3e-6,-0.249962 -0.031863,-0.47542 -0.095575,-0.676375 -0.058819,-0.20585 -0.14704222,-0.379845 -0.26466875,-0.521986 -0.11273306,-0.147034 -0.25486983,-0.259763 -0.42641074,-0.338188 -0.16664657,-0.07842 -0.35534539,-0.117626 -0.566097,-0.11763 -0.21565869,4e-6 -0.40680814,0.04166 -0.57344892,0.124982 -0.16664543,0.07842 -0.30878219,0.191154 -0.42641069,0.338188 -0.1127311,0.14214 -0.2009539,0.316135 -0.2646688,0.521985 -0.058817,0.200956 -0.088224,0.423963 -0.088223,0.669024 m 3.88916,0 c -5.5e-6,0.436216 -0.066173,0.820965 -0.1985016,1.15425 -0.1274382,0.328386 -0.3038838,0.605308 -0.5293374,0.830766 -0.2254631,0.220557 -0.4950328,0.3872 -0.80871005,0.499929 -0.30878378,0.11273 -0.64206999,0.169094 -0.99985964,0.169094 -0.34799292,0 -0.67637787,-0.05636 -0.98515581,-0.169094 -0.3087818,-0.112729 -0.5783515,-0.279372 -0.80871,-0.499929 -0.2303607,-0.225458 -0.4117076,-0.50238 -0.5440413,-0.830766 -0.1323348,-0.333285 -0.1985019,-0.718034 -0.1985016,-1.15425 -3e-7,-0.43621 0.068617,-0.818509 0.2058535,-1.146898 0.1372349,-0.333282 0.3210325,-0.612654 0.5513932,-0.838117 0.2352597,-0.225454 0.5048295,-0.394548 0.80871,-0.507282 0.30877794,-0.112724 0.63226162,-0.169089 0.97045201,-0.169094 0.34798711,5e-6 0.67637206,0.05637 0.98515583,0.169094 0.30877596,0.112734 0.57834576,0.281828 0.80870996,0.507282 0.2303549,0.225463 0.4117018,0.504835 0.5440413,0.838117 0.132329,0.328389 0.1984961,0.710688 0.1985016,1.146898"
               style="font-size:7.35190916px;font-variant:normal;font-weight:bold;font-stretch:normal;fill:#2d2d2d;font-family:Ubuntu;-inkscape-font-specification:Ubuntu Bold"
               id="path2990"
               inkscape:connector-curvature="0" />
            <path
               d="m 6.9127218,66.66351 c 0.058811,0.200956 0.1225277,0.428865 0.1911497,0.683727 0.073515,0.249969 0.1494844,0.509736 0.2279092,0.779303 0.083317,0.269573 0.1666386,0.539142 0.2499649,0.80871 0.083317,0.269572 0.1641878,0.519536 0.242613,0.749895 0.063712,-0.249964 0.127428,-0.521984 0.1911496,-0.816062 0.068613,-0.294074 0.1323291,-0.597953 0.1911496,-0.911637 0.05881,-0.313678 0.1151745,-0.624908 0.169094,-0.933693 0.05881,-0.313677 0.1127236,-0.615104 0.161742,-0.904284 l 1.1910092,0 C 9.5569518,66.972294 9.3584505,67.837368 9.1329984,68.714693 8.9124351,69.592022 8.672273,70.425238 8.4125113,71.214342 l -1.051323,0 C 7.1896395,70.74382 7.0229964,70.251243 6.8612585,69.736608 6.6995127,69.217075 6.5402215,68.697541 6.3833844,68.178003 6.2265403,68.697541 6.0696998,69.217075 5.9128622,69.736608 5.7560186,70.251243 5.5918261,70.74382 5.4202843,71.214342 l -1.051323,0 C 4.1091926,70.425238 3.8665798,69.592022 3.6411223,68.714693 3.4205645,67.837368 3.2245138,66.972294 3.0529695,66.119469 l 1.2424727,0 c 0.049011,0.28918 0.1029252,0.590607 0.161742,0.904284 0.058814,0.308785 0.1200795,0.620015 0.1837977,0.933693 0.063715,0.313684 0.1274312,0.617563 0.1911496,0.911637 0.068616,0.294078 0.1372336,0.566098 0.2058535,0.816062 0.088221,-0.240161 0.1739929,-0.495027 0.2573168,-0.764599 0.083319,-0.269567 0.1641901,-0.539137 0.242613,-0.80871 0.078418,-0.269567 0.1494861,-0.529334 0.2132054,-0.779302 0.068615,-0.249961 0.1298807,-0.472969 0.1837977,-0.669024 l 0.9778039,0"
               style="font-size:7.35190916px;font-variant:normal;font-weight:bold;font-stretch:normal;fill:#2d2d2d;font-family:Ubuntu;-inkscape-font-specification:Ubuntu Bold"
               id="path2992"
               inkscape:connector-curvature="0" />
          </g>
        </g>
      </g>
    </g>
  </g>
</svg>
