<?xml version="1.0" encoding="UTF-8" standalone="no"?>
<!-- Created with Inkscape (http://www.inkscape.org/) -->

<svg
   xmlns:dc="http://purl.org/dc/elements/1.1/"
   xmlns:cc="http://creativecommons.org/ns#"
   xmlns:rdf="http://www.w3.org/1999/02/22-rdf-syntax-ns#"
   xmlns:svg="http://www.w3.org/2000/svg"
   xmlns="http://www.w3.org/2000/svg"
   xmlns:sodipodi="http://sodipodi.sourceforge.net/DTD/sodipodi-0.dtd"
   xmlns:inkscape="http://www.inkscape.org/namespaces/inkscape"
   width="48px"
   height="48px"
   id="svg3765"
   version="1.1"
   inkscape:version="0.48.3.1 r9886"
   sodipodi:docname="owl.svg"
   inkscape:export-filename="/home/k00ni/Documents/semicon/owl.png"
   inkscape:export-xdpi="90"
   inkscape:export-ydpi="90">
  <defs
     id="defs3767" />
  <sodipodi:namedview
     id="base"
     pagecolor="#ffffff"
     bordercolor="#666666"
     borderopacity="1.0"
     inkscape:pageopacity="0.0"
     inkscape:pageshadow="2"
     inkscape:zoom="9.8994949"
     inkscape:cx="22.975565"
     inkscape:cy="15.541673"
     inkscape:current-layer="layer1-9"
     showgrid="true"
     inkscape:grid-bbox="true"
     inkscape:document-units="px"
     inkscape:window-width="1366"
     inkscape:window-height="744"
     inkscape:window-x="0"
     inkscape:window-y="24"
     inkscape:window-maximized="1" />
  <metadata
     id="metadata3770">
    <rdf:RDF>
      <cc:Work
         rdf:about="">
        <dc:format>image/svg+xml</dc:format>
        <dc:type
           rdf:resource="http://purl.org/dc/dcmitype/StillImage" />
        <dc:title />
      </cc:Work>
    </rdf:RDF>
  </metadata>
  <g
     id="layer1"
     inkscape:label="Layer 1"
     inkscape:groupmode="layer">
    <g
       inkscape:label="Layer 1"
       id="layer1-4"
       transform="translate(0.20202972,-1.9622142e-8)">
      <g
         transform="translate(-0.37059768,-0.09089584)"
         id="layer1-9"
         inkscape:label="Layer 1">
        <path
           sodipodi:type="arc"
           style="fill:#2d2d2d;fill-opacity:1;stroke:none"
           id="path3773-80"
           sodipodi:cx="29.285715"
           sodipodi:cy="24.428572"
           sodipodi:rx="23.714285"
           sodipodi:ry="23.714285"
           d="M 53,24.428572 C 53,37.52561 42.382753,48.142857 29.285715,48.142857 16.188677,48.142857 5.5714302,37.52561 5.5714302,24.428572 5.5714302,11.331534 16.188677,0.7142868 29.285715,0.7142868 42.382753,0.7142868 53,11.331534 53,24.428572 z"
           transform="matrix(0.99063909,0,0,0.99063908,-4.7003607,-0.15063258)" />
        <path
           inkscape:connector-curvature="0"
           id="path2988"
           style="font-size:15.66650009px;font-style:normal;font-variant:normal;font-weight:bold;font-stretch:normal;line-height:125%;letter-spacing:0px;word-spacing:0px;fill:#ffffff;fill-opacity:1;stroke:none;font-family:Ubuntu;-inkscape-font-specification:Ubuntu Bold"
           d="m 9.9121652,23.982355 c -1.9e-6,0.532883 0.05633,1.013518 0.1690018,1.441906 0.122053,0.428395 0.291053,0.799319 0.507001,1.112775 0.225329,0.303011 0.497608,0.538103 0.816835,0.705278 0.319218,0.16718 0.685386,0.250769 1.098504,0.250767 0.403718,2e-6 0.765189,-0.08358 1.08442,-0.250767 0.328604,-0.167175 0.600884,-0.402267 0.816835,-0.705278 0.225327,-0.313456 0.394327,-0.68438 0.507003,-1.112775 0.122047,-0.428388 0.183074,-0.909023 0.183083,-1.441906 -9e-6,-0.532872 -0.06104,-1.013506 -0.183083,-1.441905 -0.112676,-0.438833 -0.281676,-0.809758 -0.507003,-1.112774 -0.215951,-0.313449 -0.488231,-0.553767 -0.816835,-0.720952 -0.319231,-0.16717 -0.680702,-0.250758 -1.08442,-0.250766 -0.413118,8e-6 -0.779286,0.08883 -1.098504,0.266439 -0.319227,0.167185 -0.591506,0.407502 -0.816835,0.720952 -0.215948,0.303016 -0.384948,0.673941 -0.507001,1.112775 -0.1126705,0.428398 -0.1690037,0.903808 -0.1690018,1.426231 m 7.4501068,0 c -1.1e-5,0.929929 -0.126761,1.750142 -0.380252,2.460643 -0.244121,0.700057 -0.582122,1.290401 -1.014003,1.771035 -0.431899,0.470188 -0.948289,0.825439 -1.549171,1.065756 -0.591509,0.240318 -1.229955,0.360476 -1.915339,0.360477 -0.666618,-1e-6 -1.295675,-0.120159 -1.887173,-0.360477 C 10.02483,29.039472 9.5084398,28.684221 9.067163,28.214033 8.6258822,27.733399 8.2784926,27.143055 8.0249931,26.442998 7.7714916,25.732497 7.6447412,24.912284 7.644742,23.982355 c -8e-7,-0.929917 0.1314441,-1.744906 0.3943345,-2.444969 0.2628884,-0.710495 0.6149725,-1.306064 1.0562533,-1.786708 0.4506653,-0.480625 0.9670552,-0.8411 1.5491712,-1.081429 0.591498,-0.240307 1.211165,-0.360466 1.859006,-0.360476 0.666607,10e-6 1.295663,0.120169 1.887172,0.360476 0.591494,0.240329 1.107884,0.600804 1.549171,1.081429 0.44127,0.480644 0.78866,1.076213 1.04217,1.786708 0.253491,0.700063 0.380241,1.515052 0.380252,2.444969" />
        <path
           inkscape:connector-curvature="0"
           id="path2990"
           style="font-size:15.66650009px;font-style:normal;font-variant:normal;font-weight:bold;font-stretch:normal;line-height:125%;letter-spacing:0px;word-spacing:0px;fill:#ffffff;fill-opacity:1;stroke:none;font-family:Ubuntu;-inkscape-font-specification:Ubuntu Bold"
           d="m 26.357505,19.719332 c 0.112659,0.428401 0.234715,0.91426 0.366168,1.457578 0.140826,0.532885 0.286353,1.08666 0.436584,1.661326 0.159603,0.574677 0.319214,1.14935 0.478835,1.724016 0.159603,0.574677 0.31452,1.107555 0.464752,1.598634 0.122045,-0.532875 0.244102,-1.112771 0.366168,-1.73969 0.131433,-0.626909 0.25349,-1.27472 0.366167,-1.943437 0.112657,-0.668702 0.220629,-1.332186 0.323917,-1.990455 0.112657,-0.668701 0.215935,-1.311289 0.309835,-1.927765 l 2.281507,0 c -0.328625,1.818063 -0.708876,3.662236 -1.140753,5.532527 -0.422513,1.8703 -0.882569,3.646558 -1.380171,5.328779 l -2.013923,0 C 26.88797,28.417782 26.568747,27.3677 26.258921,26.270596 25.94908,25.16305 25.64394,24.055501 25.343502,22.947945 c -0.300452,1.107556 -0.600897,2.215105 -0.901336,3.322651 -0.300451,1.097104 -0.61498,2.147186 -0.943587,3.150249 l -2.013922,0 c -0.497616,-1.682221 -0.962366,-3.458479 -1.394256,-5.328779 -0.422502,-1.870291 -0.798058,-3.714464 -1.12667,-5.532527 l 2.380091,0 c 0.09388,0.616476 0.197165,1.259064 0.309835,1.927765 0.112664,0.658269 0.230025,1.321753 0.352084,1.990455 0.122053,0.668717 0.244108,1.316528 0.366168,1.943437 0.131442,0.626919 0.262886,1.206815 0.394335,1.73969 0.168996,-0.511977 0.333302,-1.055303 0.492918,-1.629979 0.159607,-0.574667 0.314523,-1.14934 0.464751,-1.724017 0.150218,-0.574666 0.286357,-1.128441 0.408418,-1.661326 0.131439,-0.532869 0.248801,-1.008279 0.352084,-1.426232 l 1.87309,0" />
        <path
           inkscape:connector-curvature="0"
           id="path2992"
           style="font-size:15.66650009px;font-style:normal;font-variant:normal;font-weight:bold;font-stretch:normal;line-height:125%;letter-spacing:0px;word-spacing:0px;fill:#ffffff;fill-opacity:1;stroke:none;font-family:Ubuntu;-inkscape-font-specification:Ubuntu Bold"
           d="m 41.011166,27.32068 0,2.100165 -6.520604,0 0,-10.861306 2.197007,0 0,8.761141 4.323597,0" />
      </g>
    </g>
  </g>
</svg>
