<?xml version="1.0" encoding="UTF-8" standalone="no"?>
<!-- Created with Inkscape (http://www.inkscape.org/) -->

<svg
   xmlns:dc="http://purl.org/dc/elements/1.1/"
   xmlns:cc="http://creativecommons.org/ns#"
   xmlns:rdf="http://www.w3.org/1999/02/22-rdf-syntax-ns#"
   xmlns:svg="http://www.w3.org/2000/svg"
   xmlns="http://www.w3.org/2000/svg"
   xmlns:sodipodi="http://sodipodi.sourceforge.net/DTD/sodipodi-0.dtd"
   xmlns:inkscape="http://www.inkscape.org/namespaces/inkscape"
   width="48px"
   height="48px"
   id="svg3765"
   version="1.1"
   inkscape:version="0.48.3.1 r9886"
   sodipodi:docname="person4.svg"
   inkscape:export-filename="/home/k00ni/Documents/semicon/owl.png"
   inkscape:export-xdpi="90"
   inkscape:export-ydpi="90">
  <defs
     id="defs3767" />
  <sodipodi:namedview
     id="base"
     pagecolor="#ffffff"
     bordercolor="#666666"
     borderopacity="1.0"
     inkscape:pageopacity="0.0"
     inkscape:pageshadow="2"
     inkscape:zoom="9.8994949"
     inkscape:cx="15.199763"
     inkscape:cy="3.2080456"
     inkscape:current-layer="layer1-9-3"
     showgrid="true"
     inkscape:grid-bbox="true"
     inkscape:document-units="px"
     inkscape:window-width="1366"
     inkscape:window-height="744"
     inkscape:window-x="0"
     inkscape:window-y="24"
     inkscape:window-maximized="1" />
  <metadata
     id="metadata3770">
    <rdf:RDF>
      <cc:Work
         rdf:about="">
        <dc:format>image/svg+xml</dc:format>
        <dc:type
           rdf:resource="http://purl.org/dc/dcmitype/StillImage" />
        <dc:title></dc:title>
      </cc:Work>
    </rdf:RDF>
  </metadata>
  <g
     id="layer1"
     inkscape:label="Layer 1"
     inkscape:groupmode="layer">
    <g
       inkscape:label="Layer 1"
       id="layer1-4"
       transform="translate(0.20202972,-1.9622142e-8)">
      <g
         transform="translate(-0.37059768,-0.09089584)"
         id="layer1-9"
         inkscape:label="Layer 1">
        <g
           inkscape:label="Layer 1"
           id="layer1-9-3"
           transform="translate(-44.951788,-4.1416259)">
          <path
             transform="matrix(0.99063909,0,0,0.99063908,40.251428,3.8899776)"
             d="m 53,24.428572 a 23.714285,23.714285 0 1 1 -47.4285698,0 23.714285,23.714285 0 1 1 47.4285698,0 z"
             sodipodi:ry="23.714285"
             sodipodi:rx="23.714285"
             sodipodi:cy="24.428572"
             sodipodi:cx="29.285715"
             id="path3773-80"
             style="fill:#2d2d2d;fill-opacity:1;stroke:none"
             sodipodi:type="arc" />
          <path
             style="fill:#ffffff;fill-opacity:1;stroke:none"
             d="m 81.48585,36.524651 c 0,6.053127 -2.435729,11.869292 -12.084737,11.869292 -9.649008,0 -12.360956,-5.109059 -12.360956,-11.162185 0,-6.053127 2.711948,-10.758125 12.360956,-10.758125 9.649008,0 12.084737,3.997891 12.084737,10.051018 z"
             id="path2987-7"
             inkscape:connector-curvature="0"
             sodipodi:nodetypes="sssss" />
          <rect
             style="fill:#2d2d2d;fill-opacity:1;stroke:none"
             id="rect3007"
             width="25.75889"
             height="9.5693455"
             x="56.33305"
             y="38.103935"
             rx="0"
             ry="0" />
          <rect
             style="fill:#2d2d2d;fill-opacity:1;stroke:none"
             id="rect3007-6"
             width="17.475639"
             height="4.6467009"
             x="60.878735"
             y="44.656376"
             rx="0"
             ry="0" />
          <path
             style="fill:#ffffff;fill-opacity:1;fill-rule:nonzero;stroke:#2d2d2d;stroke-width:1.86862624;stroke-opacity:1"
             d="m 76.585162,21.501879 c -0.08293,4.429169 -2.577422,7.61099 -7.303376,7.522505 -4.725954,-0.08848 -6.564355,-3.956906 -6.481426,-8.386075 0.08293,-4.429172 2.560424,-6.703098 7.286376,-6.614613 4.725956,0.08849 6.581355,3.049012 6.498426,7.478183 z"
             id="path3819"
             inkscape:connector-curvature="0"
             sodipodi:nodetypes="sssss" />
          <path
             style="fill:#2d2d2d;fill-opacity:1;fill-rule:nonzero;stroke:none"
             d="m 67.091179,29.377821 5.202285,0 1.111168,8.838836 -7.323606,0 z"
             id="rect3825"
             inkscape:connector-curvature="0"
             sodipodi:nodetypes="ccccc" />
          <rect
             style="fill:#2d2d2d;fill-opacity:1;fill-rule:nonzero;stroke:none"
             id="rect3825-3-8"
             width="1.1997485"
             height="5.1483469"
             x="-76.348038"
             y="-17.482071"
             transform="matrix(-0.82505513,-0.56505223,-0.57840133,0.81575235,0,0)" />
          <rect
             style="fill:#2d2d2d;fill-opacity:1;fill-rule:nonzero;stroke:none"
             id="rect3825-3-8-9"
             width="1.1997485"
             height="5.1483469"
             x="37.405399"
             y="61.652756"
             transform="matrix(0.82505513,-0.56505223,0.57840133,0.81575235,0,0)" />
          <path
             style="fill:#ffffff;fill-opacity:1;fill-rule:nonzero;stroke:none"
             d="m 69.499822,31.146855 0.637518,-0.0013 0.959645,6.869039 -2.506301,0 z"
             id="rect3825-9"
             inkscape:connector-curvature="0"
             sodipodi:nodetypes="ccccc" />
          <path
             sodipodi:type="arc"
             style="fill:#ffffff;fill-opacity:1;fill-rule:nonzero;stroke:none"
             id="path4105"
             sodipodi:cx="40.305088"
             sodipodi:cy="19.513699"
             sodipodi:rx="0.90913731"
             sodipodi:ry="0.90913731"
             d="m 41.214225,19.513699 a 0.90913731,0.90913731 0 1 1 -1.818274,0 0.90913731,0.90913731 0 1 1 1.818274,0 z"
             transform="matrix(1.2777778,0,0,1.2777778,18.342896,6.1104023)" />
        </g>
      </g>
    </g>
  </g>
</svg>
