<?xml version="1.0" encoding="UTF-8" standalone="no"?>
<!-- Created with Inkscape (http://www.inkscape.org/) -->

<svg
   xmlns:dc="http://purl.org/dc/elements/1.1/"
   xmlns:cc="http://creativecommons.org/ns#"
   xmlns:rdf="http://www.w3.org/1999/02/22-rdf-syntax-ns#"
   xmlns:svg="http://www.w3.org/2000/svg"
   xmlns="http://www.w3.org/2000/svg"
   xmlns:sodipodi="http://sodipodi.sourceforge.net/DTD/sodipodi-0.dtd"
   xmlns:inkscape="http://www.inkscape.org/namespaces/inkscape"
   width="48px"
   height="48px"
   id="svg3765"
   version="1.1"
   inkscape:version="0.48.3.1 r9886"
   sodipodi:docname="persons.svg"
   inkscape:export-filename="/home/k00ni/Documents/semicon/owl.png"
   inkscape:export-xdpi="90"
   inkscape:export-ydpi="90">
  <defs
     id="defs3767" />
  <sodipodi:namedview
     id="base"
     pagecolor="#ffffff"
     bordercolor="#666666"
     borderopacity="1.0"
     inkscape:pageopacity="0.0"
     inkscape:pageshadow="2"
     inkscape:zoom="4.9497475"
     inkscape:cx="15.216746"
     inkscape:cy="30.76068"
     inkscape:current-layer="layer1-9-3"
     showgrid="true"
     inkscape:grid-bbox="true"
     inkscape:document-units="px"
     inkscape:window-width="1366"
     inkscape:window-height="744"
     inkscape:window-x="0"
     inkscape:window-y="24"
     inkscape:window-maximized="1" />
  <metadata
     id="metadata3770">
    <rdf:RDF>
      <cc:Work
         rdf:about="">
        <dc:format>image/svg+xml</dc:format>
        <dc:type
           rdf:resource="http://purl.org/dc/dcmitype/StillImage" />
        <dc:title></dc:title>
      </cc:Work>
    </rdf:RDF>
  </metadata>
  <g
     id="layer1"
     inkscape:label="Layer 1"
     inkscape:groupmode="layer">
    <g
       inkscape:label="Layer 1"
       id="layer1-4"
       transform="translate(0.20202972,-1.9622142e-8)">
      <g
         transform="translate(-0.37059768,-0.09089584)"
         id="layer1-9"
         inkscape:label="Layer 1">
        <g
           inkscape:label="Layer 1"
           id="layer1-9-3"
           transform="translate(-44.951788,-4.1416259)">
          <path
             transform="matrix(0.99063909,0,0,0.99063908,40.251428,3.8899776)"
             d="m 53,24.428572 a 23.714285,23.714285 0 1 1 -47.4285698,0 23.714285,23.714285 0 1 1 47.4285698,0 z"
             sodipodi:ry="23.714285"
             sodipodi:rx="23.714285"
             sodipodi:cy="24.428572"
             sodipodi:cx="29.285715"
             id="path3773-80"
             style="fill:#2d2d2d;fill-opacity:1;stroke:none"
             sodipodi:type="arc" />
          <path
             style="fill:#ffffff;fill-opacity:1;stroke:none"
             d="m 85.39551,24.546328 c 0,3.317989 -1.335129,6.50609 -6.624185,6.50609 -5.289045,0 -6.775585,-2.800503 -6.775585,-6.118493 0,-3.317991 1.48654,-5.89701 6.775585,-5.89701 5.289056,0 6.624185,2.191423 6.624185,5.509413 z"
             id="path2987-7-1"
             inkscape:connector-curvature="0"
             sodipodi:nodetypes="sssss" />
          <rect
             style="fill:#2d2d2d;fill-opacity:1;stroke:none"
             id="rect3007-4"
             width="14.119601"
             height="5.2453866"
             x="71.608139"
             y="25.412004"
             rx="0"
             ry="0" />
          <rect
             style="fill:#2d2d2d;fill-opacity:1;stroke:none"
             id="rect3007-6-0"
             width="9.5791807"
             height="2.5470648"
             x="74.099823"
             y="29.003693"
             rx="0"
             ry="0" />
          <path
             style="fill:#ffffff;fill-opacity:1;fill-rule:nonzero;stroke:#2d2d2d;stroke-width:1.02427769;stroke-opacity:1"
             d="m 82.709233,16.311674 c -0.04541,2.427826 -1.412805,4.171924 -4.003311,4.123422 -2.590506,-0.0485 -3.598217,-2.168957 -3.552763,-4.596783 0.04541,-2.427828 1.403481,-3.674269 3.993987,-3.625766 2.590518,0.04851 3.607541,1.6713 3.562087,4.099127 z"
             id="path3819-3"
             inkscape:connector-curvature="0"
             sodipodi:nodetypes="sssss" />
          <path
             style="fill:#2d2d2d;fill-opacity:1;fill-rule:nonzero;stroke:none"
             d="m 77.505149,20.628831 2.85161,0 0.609082,4.844961 -4.014398,0 z"
             id="rect3825-6"
             inkscape:connector-curvature="0"
             sodipodi:nodetypes="ccccc" />
          <rect
             style="fill:#2d2d2d;fill-opacity:1;fill-rule:nonzero;stroke:none"
             id="rect3825-3-8-4"
             width="0.65763587"
             height="2.8220394"
             x="-77.697243"
             y="-28.865723"
             transform="matrix(-0.82505513,-0.56505223,-0.57840133,0.81575235,0,0)" />
          <rect
             style="fill:#2d2d2d;fill-opacity:1;fill-rule:nonzero;stroke:none"
             id="rect3825-3-8-9-3"
             width="0.65763587"
             height="2.8220394"
             x="51.115211"
             y="60.546265"
             transform="matrix(0.82505513,-0.56505223,0.57840133,0.81575235,0,0)" />
          <path
             style="fill:#ffffff;fill-opacity:1;fill-rule:nonzero;stroke:none"
             d="m 78.825433,21.598517 0.349453,-7.12e-4 0.526024,3.765227 -1.373817,0 z"
             id="rect3825-9-5"
             inkscape:connector-curvature="0"
             sodipodi:nodetypes="ccccc" />
          <path
             sodipodi:type="arc"
             style="fill:#ffffff;fill-opacity:1;fill-rule:nonzero;stroke:none"
             id="path4105-5"
             sodipodi:cx="40.305088"
             sodipodi:cy="19.513699"
             sodipodi:rx="0.90913731"
             sodipodi:ry="0.90913731"
             d="m 41.214225,19.513699 a 0.90913731,0.90913731 0 1 1 -1.818274,0 0.90913731,0.90913731 0 1 1 1.818274,0 z"
             transform="matrix(0.70040721,0,0,0.70040721,50.784036,7.8749162)" />
          <path
             style="fill:#ffffff;fill-opacity:1;stroke:none"
             d="m 69.859588,29.609621 c 0,4.36477 -1.756344,8.558674 -8.714025,8.558674 -6.957666,0 -8.91319,-3.684025 -8.91319,-8.048795 0,-4.364771 1.955524,-7.757436 8.91319,-7.757436 6.957681,0 8.714025,2.882787 8.714025,7.247557 z"
             id="path2987-7-1-3"
             inkscape:connector-curvature="0"
             sodipodi:nodetypes="sssss" />
          <rect
             style="fill:#2d2d2d;fill-opacity:1;stroke:none"
             id="rect3007-4-2"
             width="18.574142"
             height="6.9002347"
             x="51.722496"
             y="30.748405"
             rx="0"
             ry="0" />
          <rect
             style="fill:#2d2d2d;fill-opacity:1;stroke:none"
             id="rect3007-6-0-3"
             width="12.601282"
             height="3.3506291"
             x="55.000275"
             y="35.473225"
             rx="0"
             ry="0" />
          <path
             style="fill:#ffffff;fill-opacity:1;fill-rule:nonzero;stroke:#2d2d2d;stroke-width:1.34742343;stroke-opacity:1"
             d="m 66.325828,18.777046 c -0.05973,3.193772 -1.858526,5.48811 -5.266302,5.424305 -3.407775,-0.0638 -4.733405,-2.853233 -4.673611,-6.047005 0.05973,-3.193774 1.846261,-4.83345 5.254036,-4.769645 3.407791,0.06381 4.74567,2.198572 4.685877,5.392345 z"
             id="path3819-3-9"
             inkscape:connector-curvature="0"
             sodipodi:nodetypes="sssss" />
          <path
             style="fill:#2d2d2d;fill-opacity:1;fill-rule:nonzero;stroke:none"
             d="m 59.479926,24.456207 3.751254,0 0.801239,6.373481 -5.280886,0 z"
             id="rect3825-6-4"
             inkscape:connector-curvature="0"
             sodipodi:nodetypes="ccccc" />
          <rect
             style="fill:#2d2d2d;fill-opacity:1;fill-rule:nonzero;stroke:none"
             id="rect3825-3-8-4-6"
             width="0.86511105"
             height="3.7123544"
             x="-66.003593"
             y="-16.17959"
             transform="matrix(-0.82505513,-0.56505223,-0.57840133,0.81575235,0,0)" />
          <rect
             style="fill:#2d2d2d;fill-opacity:1;fill-rule:nonzero;stroke:none"
             id="rect3825-3-8-9-3-2"
             width="0.86511105"
             height="3.7123544"
             x="34.136772"
             y="53.430813"
             transform="matrix(0.82505513,-0.56505223,0.57840133,0.81575235,0,0)" />
          <path
             style="fill:#ffffff;fill-opacity:1;fill-rule:nonzero;stroke:none"
             d="m 61.216742,25.731816 0.459701,-9.36e-4 0.691976,4.953105 -1.807237,0 z"
             id="rect3825-9-5-8"
             inkscape:connector-curvature="0"
             sodipodi:nodetypes="ccccc" />
          <path
             sodipodi:type="arc"
             style="fill:#ffffff;fill-opacity:1;fill-rule:nonzero;stroke:none"
             id="path4105-5-1"
             sodipodi:cx="40.305088"
             sodipodi:cy="19.513699"
             sodipodi:rx="0.90913731"
             sodipodi:ry="0.90913731"
             d="m 41.214225,19.513699 a 0.90913731,0.90913731 0 1 1 -1.818274,0 0.90913731,0.90913731 0 1 1 1.818274,0 z"
             transform="matrix(0.92137615,0,0,0.92137615,24.328666,7.6786058)" />
          <path
             style="fill:#ffffff;fill-opacity:1;stroke:none"
             d="m 81.786417,41.047214 c 0,2.98798 -1.202337,5.858991 -5.96534,5.858991 -4.762994,0 -6.101682,-2.521964 -6.101682,-5.509945 0,-2.987981 1.338688,-5.31049 6.101682,-5.31049 4.763003,0 5.96534,1.973463 5.96534,4.961444 z"
             id="path2987-7-1-3-3"
             inkscape:connector-curvature="0"
             sodipodi:nodetypes="sssss" />
          <rect
             style="fill:#2d2d2d;fill-opacity:1;stroke:none"
             id="rect3007-4-2-1"
             width="12.715258"
             height="4.7236776"
             x="69.370354"
             y="41.82679"
             rx="0"
             ry="0" />
          <rect
             style="fill:#2d2d2d;fill-opacity:1;stroke:none"
             id="rect3007-6-0-3-6"
             width="8.6264305"
             height="2.2937324"
             x="71.614212"
             y="45.061245"
             rx="0"
             ry="0" />
          <path
             style="fill:#ffffff;fill-opacity:1;fill-rule:nonzero;stroke:#2d2d2d;stroke-width:0.92240256;stroke-opacity:1"
             d="m 79.367319,33.631583 c -0.04089,2.186353 -1.272287,3.756983 -3.60514,3.713304 -2.332853,-0.04368 -3.240337,-1.953231 -3.199404,-4.139584 0.04089,-2.186355 1.263891,-3.308824 3.596744,-3.265145 2.332863,0.04368 3.248732,1.505071 3.2078,3.691425 z"
             id="path3819-3-9-9"
             inkscape:connector-curvature="0"
             sodipodi:nodetypes="sssss" />
          <path
             style="fill:#2d2d2d;fill-opacity:1;fill-rule:nonzero;stroke:none"
             d="m 74.680835,37.519353 2.567988,0 0.548502,4.363079 -3.615124,0 z"
             id="rect3825-6-4-6"
             inkscape:connector-curvature="0"
             sodipodi:nodetypes="ccccc" />
          <rect
             style="fill:#2d2d2d;fill-opacity:1;fill-rule:nonzero;stroke:none"
             id="rect3825-3-8-4-6-1"
             width="0.59222704"
             height="2.5413578"
             x="-84.912109"
             y="-13.124531"
             transform="matrix(-0.82505513,-0.56505223,-0.57840133,0.81575235,0,0)" />
          <rect
             style="fill:#2d2d2d;fill-opacity:1;fill-rule:nonzero;stroke:none"
             id="rect3825-3-8-9-3-2-5"
             width="0.59222704"
             height="2.5413578"
             x="39.058552"
             y="72.9151"
             transform="matrix(0.82505513,-0.56505223,0.57840133,0.81575235,0,0)" />
          <path
             style="fill:#ffffff;fill-opacity:1;fill-rule:nonzero;stroke:none"
             d="m 75.869804,38.392594 0.314696,-6.41e-4 0.473704,3.390736 -1.237176,0 z"
             id="rect3825-9-5-8-1"
             inkscape:connector-curvature="0"
             sodipodi:nodetypes="ccccc" />
          <path
             sodipodi:type="arc"
             style="fill:#ffffff;fill-opacity:1;fill-rule:nonzero;stroke:none"
             id="path4105-5-1-0"
             sodipodi:cx="40.305088"
             sodipodi:cy="19.513699"
             sodipodi:rx="0.90913731"
             sodipodi:ry="0.90913731"
             d="m 41.214225,19.513699 a 0.90913731,0.90913731 0 1 1 -1.818274,0 0.90913731,0.90913731 0 1 1 1.818274,0 z"
             transform="matrix(0.63074434,0,0,0.63074434,50.617419,26.03395)" />
        </g>
      </g>
    </g>
  </g>
</svg>
