<?xml version="1.0" encoding="UTF-8" standalone="no"?>
<!-- Created with Inkscape (http://www.inkscape.org/) -->

<svg
   xmlns:dc="http://purl.org/dc/elements/1.1/"
   xmlns:cc="http://creativecommons.org/ns#"
   xmlns:rdf="http://www.w3.org/1999/02/22-rdf-syntax-ns#"
   xmlns:svg="http://www.w3.org/2000/svg"
   xmlns="http://www.w3.org/2000/svg"
   xmlns:sodipodi="http://sodipodi.sourceforge.net/DTD/sodipodi-0.dtd"
   xmlns:inkscape="http://www.inkscape.org/namespaces/inkscape"
   width="32px"
   height="32px"
   id="svg3103"
   version="1.1"
   inkscape:version="0.48.3.1 r9886"
   sodipodi:docname="person.svg">
  <defs
     id="defs3105" />
  <sodipodi:namedview
     id="base"
     pagecolor="#ffffff"
     bordercolor="#666666"
     borderopacity="1.0"
     inkscape:pageopacity="0.0"
     inkscape:pageshadow="2"
     inkscape:zoom="11.197802"
     inkscape:cx="6.8898215"
     inkscape:cy="15.027342"
     inkscape:current-layer="layer1"
     showgrid="true"
     inkscape:grid-bbox="true"
     inkscape:document-units="px"
     inkscape:window-width="1301"
     inkscape:window-height="744"
     inkscape:window-x="65"
     inkscape:window-y="24"
     inkscape:window-maximized="1" />
  <metadata
     id="metadata3108">
    <rdf:RDF>
      <cc:Work
         rdf:about="">
        <dc:format>image/svg+xml</dc:format>
        <dc:type
           rdf:resource="http://purl.org/dc/dcmitype/StillImage" />
        <dc:title></dc:title>
      </cc:Work>
    </rdf:RDF>
  </metadata>
  <g
     id="layer1"
     inkscape:label="Layer 1"
     inkscape:groupmode="layer">
    <path
       sodipodi:type="arc"
       style="fill:#2d2d2d;fill-opacity:1;stroke:none"
       id="path3157-2-5"
       sodipodi:cx="198.5849"
       sodipodi:cy="216.04143"
       sodipodi:rx="8.9622641"
       sodipodi:ry="8.9622641"
       d="m 207.54716,216.04143 a 8.9622641,8.9622641 0 1 1 -17.92452,0 8.9622641,8.9622641 0 1 1 17.92452,0 z"
       transform="matrix(0.83684211,0,0,0.83684211,-149.9167,-173.28786)" />
    <path
       style="fill:#2d2d2d;fill-opacity:1;stroke:none"
       d="M 1.3059408,18.356753 8.6459847,14.72802 c 1.4877133,-0.735491 6.6665463,9.355594 7.0821613,10.83057 l 0.641983,2.278323 c 0.415623,1.474977 -0.352315,-1.499787 -1.697362,-0.569926 L 8.8781396,31.272954 C 7.7501929,32.052738 -0.00274069,31.763704 0,30.242536 l 0.01473542,-8.178625 c 0.0027407,-1.52117 -0.19654839,-2.971676 1.29115528,-3.707158 z"
       id="rect3163-1-8"
       inkscape:connector-curvature="0"
       sodipodi:nodetypes="cssssssssc" />
    <rect
       style="fill:#2d2d2d;fill-opacity:1;stroke:none"
       id="rect4040"
       width="32"
       height="5.3179474"
       x="0"
       y="26.682053"
       ry="0.79817003"
       rx="1.4777606" />
    <path
       style="fill:#2d2d2d;fill-opacity:1;stroke:none"
       d="m 30.688647,18.664728 -7.375611,-3.628733 c -1.494923,-0.735491 -6.698853,9.355594 -7.116485,10.830571 l -0.645094,2.278323 c -0.417636,1.474977 0.354025,-1.499787 1.705589,-0.569926 l 5.822707,4.005967 c 1.133415,0.779784 8.923918,0.49075 8.921166,-1.030418 l -0.01481,-8.178626 c -0.0027,-1.52117 0.197504,-2.971676 -1.29741,-3.707158 z"
       id="rect3163-1-8-4"
       inkscape:connector-curvature="0"
       sodipodi:nodetypes="cssssssssc" />
  </g>
</svg>
