<?xml version="1.0" encoding="UTF-8" standalone="no"?>
<!-- Created with Inkscape (http://www.inkscape.org/) -->

<svg
   xmlns:dc="http://purl.org/dc/elements/1.1/"
   xmlns:cc="http://creativecommons.org/ns#"
   xmlns:rdf="http://www.w3.org/1999/02/22-rdf-syntax-ns#"
   xmlns:svg="http://www.w3.org/2000/svg"
   xmlns="http://www.w3.org/2000/svg"
   xmlns:sodipodi="http://sodipodi.sourceforge.net/DTD/sodipodi-0.dtd"
   xmlns:inkscape="http://www.inkscape.org/namespaces/inkscape"
   width="48px"
   height="48px"
   id="svg3765"
   version="1.1"
   inkscape:version="0.48.3.1 r9886"
   sodipodi:docname="persons2.svg"
   inkscape:export-filename="/home/k00ni/Documents/semicon/owl.png"
   inkscape:export-xdpi="90"
   inkscape:export-ydpi="90">
  <defs
     id="defs3767" />
  <sodipodi:namedview
     id="base"
     pagecolor="#ffffff"
     bordercolor="#666666"
     borderopacity="1.0"
     inkscape:pageopacity="0.0"
     inkscape:pageshadow="2"
     inkscape:zoom="9.899495"
     inkscape:cx="33.690372"
     inkscape:cy="24.056752"
     inkscape:current-layer="layer1-9-3"
     showgrid="true"
     inkscape:grid-bbox="true"
     inkscape:document-units="px"
     inkscape:window-width="1366"
     inkscape:window-height="744"
     inkscape:window-x="0"
     inkscape:window-y="24"
     inkscape:window-maximized="1" />
  <metadata
     id="metadata3770">
    <rdf:RDF>
      <cc:Work
         rdf:about="">
        <dc:format>image/svg+xml</dc:format>
        <dc:type
           rdf:resource="http://purl.org/dc/dcmitype/StillImage" />
        <dc:title />
      </cc:Work>
    </rdf:RDF>
  </metadata>
  <g
     id="layer1"
     inkscape:label="Layer 1"
     inkscape:groupmode="layer">
    <g
       inkscape:label="Layer 1"
       id="layer1-4"
       transform="translate(0.20202972,-1.9622142e-8)">
      <g
         transform="translate(-0.37059768,-0.09089584)"
         id="layer1-9"
         inkscape:label="Layer 1">
        <g
           inkscape:label="Layer 1"
           id="layer1-9-3"
           transform="translate(-44.951788,-4.1416259)">
          <path
             transform="matrix(0.99063909,0,0,0.99063908,40.251428,3.8899776)"
             d="m 53,24.428572 a 23.714285,23.714285 0 1 1 -47.4285698,0 23.714285,23.714285 0 1 1 47.4285698,0 z"
             sodipodi:ry="23.714285"
             sodipodi:rx="23.714285"
             sodipodi:cy="24.428572"
             sodipodi:cx="29.285715"
             id="path3773-80"
             style="fill:#2d2d2d;fill-opacity:1;stroke:none"
             sodipodi:type="arc" />
          <path
             style="fill:#ffffff;fill-opacity:1;stroke:none"
             d="m 68.377636,28.795953 c 0,4.032441 -1.622618,7.907026 -8.050549,7.907026 -6.427918,0 -8.23455,-3.403527 -8.23455,-7.435969 0,-4.032442 1.806632,-7.166794 8.23455,-7.166794 6.427931,0 8.050549,2.663295 8.050549,6.695737 z"
             id="path2987-7-1-3"
             inkscape:connector-curvature="0"
             sodipodi:nodetypes="sssss" />
          <rect
             style="fill:#2d2d2d;fill-opacity:1;stroke:none"
             id="rect3007-4-2"
             width="17.159929"
             height="6.3748589"
             x="51.621483"
             y="29.848032"
             rx="0"
             ry="0" />
          <rect
             style="fill:#2d2d2d;fill-opacity:1;stroke:none"
             id="rect3007-6-0-3"
             width="11.641835"
             height="3.0955162"
             x="54.649696"
             y="34.213108"
             rx="0"
             ry="0" />
          <path
             style="fill:#ffffff;fill-opacity:1;fill-rule:nonzero;stroke:#2d2d2d;stroke-width:1.24483216;stroke-opacity:1"
             d="m 65.112932,18.788158 c -0.05518,2.950601 -1.71702,5.070251 -4.865332,5.011304 -3.148311,-0.05894 -4.373009,-2.635991 -4.317767,-5.586593 0.05518,-2.950604 1.705689,-4.465437 4.854,-4.40649 3.148325,0.05895 4.38434,2.031176 4.329099,4.981779 z"
             id="path3819-3-9"
             inkscape:connector-curvature="0"
             sodipodi:nodetypes="sssss" />
          <path
             style="fill:#2d2d2d;fill-opacity:1;fill-rule:nonzero;stroke:none"
             d="m 58.788269,24.034914 3.465638,0 0.740234,5.888211 -4.878806,0 z"
             id="rect3825-6-4"
             inkscape:connector-curvature="0"
             sodipodi:nodetypes="ccccc" />
          <rect
             style="fill:#2d2d2d;fill-opacity:1;fill-rule:nonzero;stroke:none"
             id="rect3825-3-8-4-6"
             width="0.7992425"
             height="3.4297001"
             x="-64.942131"
             y="-15.927254"
             transform="matrix(-0.82505513,-0.56505223,-0.57840133,0.81575235,0,0)" />
          <rect
             style="fill:#2d2d2d;fill-opacity:1;fill-rule:nonzero;stroke:none"
             id="rect3825-3-8-9-3-2"
             width="0.7992425"
             height="3.4297001"
             x="33.834702"
             y="52.719963"
             transform="matrix(0.82505513,-0.56505223,0.57840133,0.81575235,0,0)" />
          <path
             style="fill:#ffffff;fill-opacity:1;stroke:none"
             d="m 86.089873,38.00571 c 0,4.263468 -1.71559,8.360036 -8.511788,8.360036 -6.796187,0 -8.706325,-3.598522 -8.706325,-7.861991 0,-4.263471 1.910138,-7.577396 8.706325,-7.577396 6.796198,0 8.511788,2.815881 8.511788,7.079351 z"
             id="path2987-7-1"
             inkscape:connector-curvature="0"
             sodipodi:nodetypes="sssss" />
          <rect
             style="fill:#2d2d2d;fill-opacity:1;stroke:none"
             id="rect3007-4"
             width="18.143059"
             height="4.921814"
             x="68.373703"
             y="39.118069"
             rx="0"
             ry="0" />
          <rect
             style="fill:#2d2d2d;fill-opacity:1;stroke:none"
             id="rect3007-6-0"
             width="14.058821"
             height="2.2728648"
             x="70.182549"
             y="43.733227"
             rx="0"
             ry="0" />
          <path
             style="fill:#ffffff;fill-opacity:1;fill-rule:nonzero;stroke:#2d2d2d;stroke-width:1.31615126;stroke-opacity:1"
             d="m 82.638123,27.424546 c -0.0583,3.119648 -1.815393,5.360737 -5.144078,5.298414 -3.328685,-0.06232 -4.623549,-2.787014 -4.565142,-5.906661 0.05835,-3.119651 1.80341,-4.721273 5.132095,-4.658949 3.328705,0.06233 4.635535,2.147547 4.577125,5.267196 z"
             id="path3819-3"
             inkscape:connector-curvature="0"
             sodipodi:nodetypes="sssss" />
          <path
             style="fill:#2d2d2d;fill-opacity:1;fill-rule:nonzero;stroke:none"
             d="m 75.951105,32.9719 3.664192,0 0.782643,6.22556 -5.158322,0 z"
             id="rect3825-6"
             inkscape:connector-curvature="0"
             sodipodi:nodetypes="ccccc" />
          <rect
             style="fill:#2d2d2d;fill-opacity:1;fill-rule:nonzero;stroke:none"
             id="rect3825-3-8-4"
             width="0.84503281"
             height="3.626195"
             x="-84.290642"
             y="-18.397314"
             transform="matrix(-0.82505513,-0.56505223,-0.57840133,0.81575235,0,0)" />
          <rect
             style="fill:#2d2d2d;fill-opacity:1;fill-rule:nonzero;stroke:none"
             id="rect3825-3-8-9-3"
             width="0.84503281"
             height="3.626195"
             x="42.654465"
             y="69.774406"
             transform="matrix(0.82505513,-0.56505223,0.57840133,0.81575235,0,0)" />
          <rect
             style="fill:#2d2d2d;fill-opacity:1;stroke:none"
             id="rect3007-6-0-37"
             width="14.058821"
             height="2.5759106"
             x="68.271622"
             y="44.643005"
             rx="0"
             ry="0" />
        </g>
      </g>
    </g>
  </g>
</svg>
