<?xml version="1.0" encoding="UTF-8" standalone="no"?>
<!-- Created with Inkscape (http://www.inkscape.org/) -->

<svg
   xmlns:dc="http://purl.org/dc/elements/1.1/"
   xmlns:cc="http://creativecommons.org/ns#"
   xmlns:rdf="http://www.w3.org/1999/02/22-rdf-syntax-ns#"
   xmlns:svg="http://www.w3.org/2000/svg"
   xmlns="http://www.w3.org/2000/svg"
   xmlns:sodipodi="http://sodipodi.sourceforge.net/DTD/sodipodi-0.dtd"
   xmlns:inkscape="http://www.inkscape.org/namespaces/inkscape"
   width="32"
   height="32"
   id="svg3765"
   version="1.1"
   inkscape:version="0.48.3.1 r9886"
   sodipodi:docname="rdf_xml2.svg"
   inkscape:export-filename="/home/k00ni/Documents/semicon/owl.png"
   inkscape:export-xdpi="90"
   inkscape:export-ydpi="90">
  <defs
     id="defs3767" />
  <sodipodi:namedview
     id="base"
     pagecolor="#ffffff"
     bordercolor="#666666"
     borderopacity="1.0"
     inkscape:pageopacity="0.0"
     inkscape:pageshadow="2"
     inkscape:zoom="19.79899"
     inkscape:cx="24.510708"
     inkscape:cy="16.950378"
     inkscape:current-layer="layer1-9-3"
     showgrid="true"
     inkscape:grid-bbox="true"
     inkscape:document-units="px"
     inkscape:window-width="1920"
     inkscape:window-height="1056"
     inkscape:window-x="0"
     inkscape:window-y="24"
     inkscape:window-maximized="1"
     showguides="true"
     inkscape:guide-bbox="true" />
  <metadata
     id="metadata3770">
    <rdf:RDF>
      <cc:Work
         rdf:about="">
        <dc:format>image/svg+xml</dc:format>
        <dc:type
           rdf:resource="http://purl.org/dc/dcmitype/StillImage" />
        <dc:title />
      </cc:Work>
    </rdf:RDF>
  </metadata>
  <g
     id="layer1"
     inkscape:label="Layer 1"
     inkscape:groupmode="layer"
     transform="translate(0,-16)">
    <g
       inkscape:label="Layer 1"
       id="layer1-4"
       transform="translate(0.20202972,-1.9622142e-8)">
      <g
         transform="translate(-0.37059768,-0.09089584)"
         id="layer1-9"
         inkscape:label="Layer 1">
        <g
           inkscape:label="Layer 1"
           id="layer1-9-3"
           transform="translate(-44.951788,-4.1416259)">
          <path
             sodipodi:type="arc"
             style="fill:#2d2d2d;fill-opacity:1;stroke:none"
             id="path3967-0-9"
             sodipodi:cx="3.6996837"
             sodipodi:cy="6.8202386"
             sodipodi:rx="2.5127544"
             sodipodi:ry="2.5127544"
             d="m 6.2124381,6.8202386 a 2.5127544,2.5127544 0 1 1 -5.0255089,0 2.5127544,2.5127544 0 1 1 5.0255089,0 z"
             transform="matrix(1.7546393,0,0,1.7546393,43.100737,12.690486)" />
          <rect
             style="fill:#2d2d2d;fill-opacity:1;stroke:none"
             id="rect4041"
             width="2.5194159"
             height="18.946007"
             x="48.231865"
             y="28.335892"
             ry="0.59924459" />
          <rect
             style="fill:#2d2d2d;fill-opacity:1;stroke:none"
             id="rect4041-1"
             width="2.5194159"
             height="14.663001"
             x="24.254438"
             y="-67.404617"
             ry="0.46377707"
             transform="matrix(0,1,-1,0,0,0)" />
          <path
             sodipodi:type="arc"
             style="fill:#2d2d2d;fill-opacity:1;stroke:none"
             id="path3967-0-9-7"
             sodipodi:cx="3.6996837"
             sodipodi:cy="6.8202386"
             sodipodi:rx="2.5127544"
             sodipodi:ry="2.5127544"
             d="m 6.2124381,6.8202386 a 2.5127544,2.5127544 0 1 1 -5.0255089,0 2.5127544,2.5127544 0 1 1 5.0255089,0 z"
             transform="matrix(1.7546393,0,0,1.7546393,43.05035,35.869112)" />
          <path
             sodipodi:type="arc"
             style="fill:#2d2d2d;fill-opacity:1;stroke:none"
             id="path3967-0-9-7-2"
             sodipodi:cx="3.6996837"
             sodipodi:cy="6.8202386"
             sodipodi:rx="2.5127544"
             sodipodi:ry="2.5127544"
             d="m 6.2124381,6.8202386 a 2.5127544,2.5127544 0 1 1 -5.0255089,0 2.5127544,2.5127544 0 1 1 5.0255089,0 z"
             transform="matrix(1.7546393,0,0,1.7546393,59.124223,12.690246)" />
          <path
             sodipodi:type="arc"
             style="fill:#2d2d2d;fill-opacity:1;stroke:none"
             id="path3967-0-9-7-2-9"
             sodipodi:cx="3.6996837"
             sodipodi:cy="6.8202386"
             sodipodi:rx="2.5127544"
             sodipodi:ry="2.5127544"
             d="m 6.2124381,6.8202386 a 2.5127544,2.5127544 0 1 1 -5.0255089,0 2.5127544,2.5127544 0 1 1 5.0255089,0 z"
             transform="matrix(1.7546393,0,0,1.7546393,53.077628,25.08601)" />
          <path
             sodipodi:type="arc"
             style="fill:#2d2d2d;fill-opacity:1;stroke:none"
             id="path3967-0-9-7-2-9-7"
             sodipodi:cx="3.6996837"
             sodipodi:cy="6.8202386"
             sodipodi:rx="2.5127544"
             sodipodi:ry="2.5127544"
             d="m 6.2124381,6.8202386 a 2.5127544,2.5127544 0 1 1 -5.0255089,0 2.5127544,2.5127544 0 1 1 5.0255089,0 z"
             transform="matrix(1.7546393,0,0,1.7546393,63.004124,35.869112)" />
          <rect
             style="fill:#2d2d2d;fill-opacity:1;stroke:none"
             id="rect4041-1-9"
             width="2.5194159"
             height="14.663001"
             x="68.554649"
             y="-10.788344"
             ry="0.46377707"
             transform="matrix(0.8660254,0.5,-0.5,0.8660254,0,0)" />
          <rect
             style="fill:#2d2d2d;fill-opacity:1;stroke:none"
             id="rect4041-1-9-1"
             width="2.5194159"
             height="14.663001"
             x="-16.860374"
             y="-81.88903"
             ry="0.46377707"
             transform="matrix(-0.70710678,0.70710678,-0.70710678,-0.70710678,0,0)" />
        </g>
      </g>
    </g>
  </g>
</svg>
