<?xml version="1.0" encoding="UTF-8" standalone="no"?>
<!-- Created with Inkscape (http://www.inkscape.org/) -->

<svg
   xmlns:dc="http://purl.org/dc/elements/1.1/"
   xmlns:cc="http://creativecommons.org/ns#"
   xmlns:rdf="http://www.w3.org/1999/02/22-rdf-syntax-ns#"
   xmlns:svg="http://www.w3.org/2000/svg"
   xmlns="http://www.w3.org/2000/svg"
   xmlns:sodipodi="http://sodipodi.sourceforge.net/DTD/sodipodi-0.dtd"
   xmlns:inkscape="http://www.inkscape.org/namespaces/inkscape"
   width="32"
   height="32"
   id="svg3765"
   version="1.1"
   inkscape:version="0.48.3.1 r9886"
   sodipodi:docname="rdf_xml.svg"
   inkscape:export-filename="/home/k00ni/Documents/semicon/owl.png"
   inkscape:export-xdpi="90"
   inkscape:export-ydpi="90">
  <defs
     id="defs3767" />
  <sodipodi:namedview
     id="base"
     pagecolor="#ffffff"
     bordercolor="#666666"
     borderopacity="1.0"
     inkscape:pageopacity="0.0"
     inkscape:pageshadow="2"
     inkscape:zoom="39.59798"
     inkscape:cx="25.471307"
     inkscape:cy="8.1354633"
     inkscape:current-layer="layer1-9-3"
     showgrid="true"
     inkscape:grid-bbox="true"
     inkscape:document-units="px"
     inkscape:window-width="1920"
     inkscape:window-height="1056"
     inkscape:window-x="0"
     inkscape:window-y="24"
     inkscape:window-maximized="1"
     showguides="true"
     inkscape:guide-bbox="true" />
  <metadata
     id="metadata3770">
    <rdf:RDF>
      <cc:Work
         rdf:about="">
        <dc:format>image/svg+xml</dc:format>
        <dc:type
           rdf:resource="http://purl.org/dc/dcmitype/StillImage" />
        <dc:title />
      </cc:Work>
    </rdf:RDF>
  </metadata>
  <g
     id="layer1"
     inkscape:label="Layer 1"
     inkscape:groupmode="layer"
     transform="translate(0,-16)">
    <g
       inkscape:label="Layer 1"
       id="layer1-4"
       transform="translate(0.20202972,-1.9622142e-8)">
      <g
         transform="translate(-0.37059768,-0.09089584)"
         id="layer1-9"
         inkscape:label="Layer 1">
        <g
           inkscape:label="Layer 1"
           id="layer1-9-3"
           transform="translate(-44.951788,-4.1416259)">
          <path
             sodipodi:type="arc"
             style="fill:#2d2d2d;fill-opacity:1;stroke:none"
             id="path2996"
             sodipodi:cx="5.2149124"
             sodipodi:cy="6.4919391"
             sodipodi:rx="1.5026019"
             sodipodi:ry="1.4268404"
             d="m 6.7175143,6.4919391 a 1.5026019,1.4268404 0 1 1 -3.0052037,0 1.5026019,1.4268404 0 1 1 3.0052037,0 z"
             transform="matrix(1.6368973,0,0,1.7238121,45.237152,38.569406)" />
          <path
             sodipodi:type="arc"
             style="fill:#2d2d2d;fill-opacity:1;stroke:none"
             id="path2996-8"
             sodipodi:cx="5.2149124"
             sodipodi:cy="6.4919391"
             sodipodi:rx="1.5026019"
             sodipodi:ry="1.4268404"
             d="m 6.7175143,6.4919391 a 1.5026019,1.4268404 0 1 1 -3.0052037,0 1.5026019,1.4268404 0 1 1 3.0052037,0 z"
             transform="matrix(1.6368973,0,0,1.7238121,45.237152,33.193775)" />
          <path
             sodipodi:type="arc"
             style="fill:#2d2d2d;fill-opacity:1;stroke:none"
             id="path2996-8-9"
             sodipodi:cx="5.2149124"
             sodipodi:cy="6.4919391"
             sodipodi:rx="1.5026019"
             sodipodi:ry="1.4268404"
             d="m 6.7175143,6.4919391 a 1.5026019,1.4268404 0 1 1 -3.0052037,0 1.5026019,1.4268404 0 1 1 3.0052037,0 z"
             transform="matrix(1.6368973,0,0,1.7238121,45.211797,27.818142)" />
          <path
             sodipodi:type="arc"
             style="fill:#2d2d2d;fill-opacity:1;stroke:none"
             id="path2996-0"
             sodipodi:cx="5.2149124"
             sodipodi:cy="6.4919391"
             sodipodi:rx="1.5026019"
             sodipodi:ry="1.4268404"
             d="m 6.7175143,6.4919391 a 1.5026019,1.4268404 0 1 1 -3.0052037,0 1.5026019,1.4268404 0 1 1 3.0052037,0 z"
             transform="matrix(1.6368973,0,0,1.7238121,45.275186,22.417154)" />
          <path
             sodipodi:type="arc"
             style="fill:#2d2d2d;fill-opacity:1;stroke:none"
             id="path2996-8-7"
             sodipodi:cx="5.2149124"
             sodipodi:cy="6.4919391"
             sodipodi:rx="1.5026019"
             sodipodi:ry="1.4268404"
             d="m 6.7175143,6.4919391 a 1.5026019,1.4268404 0 1 1 -3.0052037,0 1.5026019,1.4268404 0 1 1 3.0052037,0 z"
             transform="matrix(1.6368973,0,0,1.7238121,45.275186,17.041523)" />
          <path
             sodipodi:type="arc"
             style="fill:#2d2d2d;fill-opacity:1;stroke:none"
             id="path2996-8-9-2"
             sodipodi:cx="5.2149124"
             sodipodi:cy="6.4919391"
             sodipodi:rx="1.5026019"
             sodipodi:ry="1.4268404"
             d="m 6.7175143,6.4919391 a 1.5026019,1.4268404 0 1 1 -3.0052037,0 1.5026019,1.4268404 0 1 1 3.0052037,0 z"
             transform="matrix(1.6368973,0,0,1.7238121,45.249831,11.66589)" />
          <path
             sodipodi:type="arc"
             style="fill:#2d2d2d;fill-opacity:1;stroke:none"
             id="path2996-0-4"
             sodipodi:cx="5.2149124"
             sodipodi:cy="6.4919391"
             sodipodi:rx="1.5026019"
             sodipodi:ry="1.4268404"
             d="m 6.7175143,6.4919391 a 1.5026019,1.4268404 0 1 1 -3.0052037,0 1.5026019,1.4268404 0 1 1 3.0052037,0 z"
             transform="matrix(1.2345002,-1.0749149,1.1319899,1.3000488,53.185817,42.697955)" />
          <path
             sodipodi:type="arc"
             style="fill:#2d2d2d;fill-opacity:1;stroke:none"
             id="path2996-8-7-9"
             sodipodi:cx="5.2149124"
             sodipodi:cy="6.4919391"
             sodipodi:rx="1.5026019"
             sodipodi:ry="1.4268404"
             d="m 6.7175143,6.4919391 a 1.5026019,1.4268404 0 1 1 -3.0052037,0 1.5026019,1.4268404 0 1 1 3.0052037,0 z"
             transform="matrix(1.2345002,-1.0749149,1.1319899,1.3000488,49.655757,38.643811)" />
          <path
             sodipodi:type="arc"
             style="fill:#2d2d2d;fill-opacity:1;stroke:none"
             id="path2996-8-9-2-0"
             sodipodi:cx="5.2149124"
             sodipodi:cy="6.4919391"
             sodipodi:rx="1.5026019"
             sodipodi:ry="1.4268404"
             d="m 6.7175143,6.4919391 a 1.5026019,1.4268404 0 1 1 -3.0052037,0 1.5026019,1.4268404 0 1 1 3.0052037,0 z"
             transform="matrix(1.1574612,-1.1574612,1.2189192,1.2189192,45.396109,36.078283)" />
          <path
             sodipodi:type="arc"
             style="fill:#2d2d2d;fill-opacity:1;stroke:none"
             id="path2996-8-7-9-1"
             sodipodi:cx="5.2149124"
             sodipodi:cy="6.4919391"
             sodipodi:rx="1.5026019"
             sodipodi:ry="1.4268404"
             d="m 6.7175143,6.4919391 a 1.5026019,1.4268404 0 1 1 -3.0052037,0 1.5026019,1.4268404 0 1 1 3.0052037,0 z"
             transform="matrix(1.2345002,-1.0749149,1.1319899,1.3000488,56.927244,46.959544)" />
          <path
             sodipodi:type="arc"
             style="fill:#2d2d2d;fill-opacity:1;stroke:none"
             id="path2996-8-7-6"
             sodipodi:cx="5.2149124"
             sodipodi:cy="6.4919391"
             sodipodi:rx="1.5026019"
             sodipodi:ry="1.4268404"
             d="m 6.7175143,6.4919391 a 1.5026019,1.4268404 0 1 1 -3.0052037,0 1.5026019,1.4268404 0 1 1 3.0052037,0 z"
             transform="matrix(0,1.6368973,-1.7238121,0,70.644223,14.155681)" />
          <path
             sodipodi:type="arc"
             style="fill:#2d2d2d;fill-opacity:1;stroke:none"
             id="path2996-8-9-2-7"
             sodipodi:cx="5.2149124"
             sodipodi:cy="6.4919391"
             sodipodi:rx="1.5026019"
             sodipodi:ry="1.4268404"
             d="m 6.7175143,6.4919391 a 1.5026019,1.4268404 0 1 1 -3.0052037,0 1.5026019,1.4268404 0 1 1 3.0052037,0 z"
             transform="matrix(0,1.6368973,-1.7238121,0,76.019856,14.130327)" />
          <path
             sodipodi:type="arc"
             style="fill:#2d2d2d;fill-opacity:1;stroke:none"
             id="path2996-8-9-2-7-7"
             sodipodi:cx="5.2149124"
             sodipodi:cy="6.4919391"
             sodipodi:rx="1.5026019"
             sodipodi:ry="1.4268404"
             d="m 6.7175143,6.4919391 a 1.5026019,1.4268404 0 1 1 -3.0052037,0 1.5026019,1.4268404 0 1 1 3.0052037,0 z"
             transform="matrix(0,1.6368973,-1.7238121,0,81.091204,17.28724)" />
          <path
             sodipodi:type="arc"
             style="fill:#2d2d2d;fill-opacity:1;stroke:none"
             id="path2996-8-9-2-7-7-7"
             sodipodi:cx="5.2149124"
             sodipodi:cy="6.4919391"
             sodipodi:rx="1.5026019"
             sodipodi:ry="1.4268404"
             d="m 6.7175143,6.4919391 a 1.5026019,1.4268404 0 1 1 -3.0052037,0 1.5026019,1.4268404 0 1 1 3.0052037,0 z"
             transform="matrix(0,1.6368973,-1.7238121,0,76.121282,27.480654)" />
          <path
             sodipodi:type="arc"
             style="fill:#2d2d2d;fill-opacity:1;stroke:none"
             id="path2996-8-9-2-7-7-7-1"
             sodipodi:cx="5.2149124"
             sodipodi:cy="6.4919391"
             sodipodi:rx="1.5026019"
             sodipodi:ry="1.4268404"
             d="m 6.7175143,6.4919391 a 1.5026019,1.4268404 0 1 1 -3.0052037,0 1.5026019,1.4268404 0 1 1 3.0052037,0 z"
             transform="matrix(0,1.6368973,-1.7238121,0,80.939064,23.220722)" />
        </g>
      </g>
    </g>
  </g>
</svg>
