<?xml version="1.0" encoding="UTF-8" standalone="no"?>
<!-- Created with Inkscape (http://www.inkscape.org/) -->

<svg
   xmlns:dc="http://purl.org/dc/elements/1.1/"
   xmlns:cc="http://creativecommons.org/ns#"
   xmlns:rdf="http://www.w3.org/1999/02/22-rdf-syntax-ns#"
   xmlns:svg="http://www.w3.org/2000/svg"
   xmlns="http://www.w3.org/2000/svg"
   xmlns:sodipodi="http://sodipodi.sourceforge.net/DTD/sodipodi-0.dtd"
   xmlns:inkscape="http://www.inkscape.org/namespaces/inkscape"
   width="48px"
   height="48px"
   id="svg3765"
   version="1.1"
   inkscape:version="0.48.3.1 r9886"
   sodipodi:docname="rdfs.svg"
   inkscape:export-filename="/home/k00ni/Documents/semicon/owl.png"
   inkscape:export-xdpi="90"
   inkscape:export-ydpi="90">
  <defs
     id="defs3767" />
  <sodipodi:namedview
     id="base"
     pagecolor="#ffffff"
     bordercolor="#666666"
     borderopacity="1.0"
     inkscape:pageopacity="0.0"
     inkscape:pageshadow="2"
     inkscape:zoom="19.79899"
     inkscape:cx="26.886996"
     inkscape:cy="19.121883"
     inkscape:current-layer="layer1-9"
     showgrid="true"
     inkscape:grid-bbox="true"
     inkscape:document-units="px"
     inkscape:window-width="1366"
     inkscape:window-height="744"
     inkscape:window-x="0"
     inkscape:window-y="24"
     inkscape:window-maximized="1" />
  <metadata
     id="metadata3770">
    <rdf:RDF>
      <cc:Work
         rdf:about="">
        <dc:format>image/svg+xml</dc:format>
        <dc:type
           rdf:resource="http://purl.org/dc/dcmitype/StillImage" />
        <dc:title />
      </cc:Work>
    </rdf:RDF>
  </metadata>
  <g
     id="layer1"
     inkscape:label="Layer 1"
     inkscape:groupmode="layer">
    <g
       inkscape:label="Layer 1"
       id="layer1-9"
       transform="translate(-0.37059768,-0.09089584)">
      <path
         transform="matrix(0.99063909,0,0,0.99063908,-4.7003607,-0.15063258)"
         d="M 53,24.428572 C 53,37.52561 42.382753,48.142857 29.285715,48.142857 16.188677,48.142857 5.5714302,37.52561 5.5714302,24.428572 5.5714302,11.331534 16.188677,0.7142868 29.285715,0.7142868 42.382753,0.7142868 53,11.331534 53,24.428572 z"
         sodipodi:ry="23.714285"
         sodipodi:rx="23.714285"
         sodipodi:cy="24.428572"
         sodipodi:cx="29.285715"
         id="path3773-80"
         style="fill:#2d2d2d;fill-opacity:1;stroke:none"
         sodipodi:type="arc" />
      <path
         inkscape:connector-curvature="0"
         id="path2987"
         style="font-size:14.98204803px;font-style:normal;font-variant:normal;font-weight:bold;font-stretch:normal;line-height:125%;letter-spacing:0px;word-spacing:0px;fill:#ffffff;fill-opacity:1;stroke:none;font-family:Ubuntu;-inkscape-font-specification:Ubuntu Bold"
         d="m 9.0539879,18.33614 c 1.4770051,1.2e-5 2.6084321,0.295037 3.3942831,0.885076 0.785837,0.579523 1.178759,1.485671 1.178768,2.718445 -9e-6,0.76918 -0.160964,1.396107 -0.482868,1.880785 -0.312453,0.474153 -0.766917,0.848202 -1.363395,1.12215 0.198821,0.273955 0.407118,0.590054 0.624889,0.948294 0.217757,0.347711 0.430787,0.716492 0.639091,1.106345 0.217756,0.37932 0.426053,0.779711 0.624889,1.201173 0.19882,0.410928 0.383446,0.816588 0.553879,1.216979 l -2.485354,0 C 11.558271,29.057142 11.373645,28.69363 11.184291,28.324848 11.004393,27.956067 10.815033,27.597823 10.61621,27.250114 10.426845,26.902408 10.237484,26.575773 10.048129,26.270209 9.8587637,25.954114 9.6694037,25.669625 9.4800477,25.416743 l -1.0935549,0 0,3.998644 -2.2155154,0 0,-10.794758 c 0.4828671,-0.105356 0.9799374,-0.179112 1.4912122,-0.221268 0.5207377,-0.04213 0.9846703,-0.06321 1.3917983,-0.06322 m 0.1278178,2.102054 c -0.1609595,9e-6 -0.3077142,0.0053 -0.4402622,0.0158 -0.1230876,0.01055 -0.241438,0.02108 -0.3550507,0.03161 l 0,2.971324 0.6248892,0 c 0.8331797,6e-6 1.429665,-0.115897 1.789455,-0.347708 0.359779,-0.2318 0.53967,-0.626921 0.539677,-1.185369 -7e-6,-0.537359 -0.184632,-0.916676 -0.553879,-1.137954 -0.35979,-0.231796 -0.8947323,-0.347699 -1.6048293,-0.347708" />
      <path
         inkscape:connector-curvature="0"
         id="path2989"
         style="font-size:14.98204803px;font-style:normal;font-variant:normal;font-weight:bold;font-stretch:normal;line-height:125%;letter-spacing:0px;word-spacing:0px;fill:#ffffff;fill-opacity:1;stroke:none;font-family:Ubuntu;-inkscape-font-specification:Ubuntu Bold"
         d="m 18.782136,27.509177 c 0.104145,0.01055 0.222495,0.02108 0.355052,0.03161 0.142016,2e-6 0.307705,2e-6 0.49707,0 1.107752,2e-6 1.926735,-0.310828 2.45695,-0.93249 0.53967,-0.621656 0.809507,-1.480389 0.809515,-2.576202 -8e-6,-1.148484 -0.255643,-2.017753 -0.766909,-2.60781 -0.51128,-0.590042 -1.320793,-0.885067 -2.428546,-0.885076 -0.151492,9e-6 -0.307715,0.0053 -0.468667,0.0158 -0.16096,9e-6 -0.312448,0.01055 -0.454465,0.03161 l 0,6.922553 m 6.405112,-3.477082 c -9e-6,0.9483 -0.132562,1.775422 -0.397656,2.481372 -0.265114,0.705955 -0.643834,1.290737 -1.136162,1.754345 -0.482876,0.463612 -1.074626,0.81132 -1.775252,1.043126 -0.70064,0.231804 -1.486483,0.347707 -2.357536,0.347708 -0.39766,-1e-6 -0.861592,-0.02108 -1.391798,-0.06322 -0.530211,-0.03161 -1.050951,-0.105366 -1.562223,-0.221268 l 0,-10.668319 c 0.511272,-0.105355 1.04148,-0.173843 1.590626,-0.205463 0.558611,-0.04213 1.036745,-0.06321 1.434405,-0.06322 0.842649,1.2e-5 1.604822,0.105377 2.286526,0.316099 0.691158,0.210743 1.282908,0.542646 1.775252,0.995709 0.492328,0.453085 0.871048,1.032598 1.136162,1.738542 0.265094,0.70596 0.397647,1.554157 0.397656,2.544591" />
      <path
         inkscape:connector-curvature="0"
         id="path2991"
         style="font-size:14.98204803px;font-style:normal;font-variant:normal;font-weight:bold;font-stretch:normal;line-height:125%;letter-spacing:0px;word-spacing:0px;fill:#ffffff;fill-opacity:1;stroke:none;font-family:Ubuntu;-inkscape-font-specification:Ubuntu Bold"
         d="m 27.529044,29.415386 0,-10.952807 6.589738,0 0,2.070444 -4.374223,0 0,2.291713 3.891355,0 0,2.070443 -3.891355,0 0,4.520207 -2.215515,0" />
      <path
         inkscape:connector-curvature="0"
         id="path2993"
         style="font-size:14.98204803px;font-style:normal;font-variant:normal;font-weight:bold;font-stretch:normal;line-height:125%;letter-spacing:0px;word-spacing:0px;fill:#ffffff;fill-opacity:1;stroke:none;font-family:Ubuntu;-inkscape-font-specification:Ubuntu Bold"
         d="m 39.681493,27.635616 c 0.31244,2e-6 0.568076,-0.02634 0.766909,-0.07902 0.208291,-0.06322 0.373982,-0.142242 0.49707,-0.237074 0.123079,-0.105366 0.208291,-0.226534 0.255637,-0.363513 0.04733,-0.136973 0.07101,-0.289754 0.07101,-0.458342 -5e-6,-0.358242 -0.151494,-0.653267 -0.454465,-0.885076 -0.302981,-0.242338 -0.823721,-0.500484 -1.562223,-0.77444 -0.321915,-0.126435 -0.643827,-0.268679 -0.965737,-0.426733 -0.321914,-0.168581 -0.610689,-0.374044 -0.866323,-0.616392 -0.255638,-0.252872 -0.463933,-0.553166 -0.624889,-0.90088 -0.160957,-0.358237 -0.241435,-0.790238 -0.241435,-1.296003 0,-0.505749 0.08521,-0.958822 0.255637,-1.359223 0.170424,-0.410918 0.411857,-0.758626 0.724303,-1.043124 0.312443,-0.284478 0.691162,-0.500479 1.136161,-0.648002 0.444995,-0.158038 0.946799,-0.237062 1.505416,-0.237074 0.662756,1.2e-5 1.23557,0.07904 1.718443,0.237074 0.482863,0.15806 0.880519,0.331914 1.19297,0.521562 l -0.639091,1.944005 c -0.274578,-0.158041 -0.582288,-0.295016 -0.923131,-0.410928 -0.331386,-0.12643 -0.733776,-0.18965 -1.207172,-0.189659 -0.530212,9e-6 -0.913667,0.0843 -1.150364,0.252878 -0.227235,0.158059 -0.340851,0.405668 -0.340848,0.742831 -3e-6,0.200205 0.0426,0.36879 0.127818,0.505758 0.08521,0.136984 0.20356,0.263423 0.355051,0.379318 0.160952,0.105376 0.340845,0.20547 0.539676,0.300293 0.208293,0.0843 0.435525,0.173861 0.681698,0.268684 0.511267,0.210739 0.956263,0.421471 1.334989,0.632197 0.378715,0.200201 0.69116,0.437274 0.937334,0.711221 0.25563,0.273957 0.444989,0.595323 0.568081,0.9641 0.123077,0.368785 0.184619,0.816591 0.184626,1.343418 -7e-6,1.022053 -0.32192,1.817567 -0.965737,2.386542 -0.643831,0.55844 -1.614302,0.837661 -2.911414,0.837661 -0.435533,0 -0.828455,-0.03161 -1.178768,-0.09483 -0.35032,-0.05268 -0.662763,-0.121172 -0.937334,-0.205465 -0.265106,-0.08429 -0.497072,-0.173853 -0.695899,-0.268683 -0.189361,-0.09483 -0.350317,-0.184391 -0.482868,-0.268684 l 0.624888,-1.95981 c 0.293507,0.179125 0.653291,0.342442 1.079354,0.489953 0.435526,0.136978 0.965734,0.205465 1.590627,0.205463" />
    </g>
  </g>
</svg>
