<?xml version="1.0" encoding="UTF-8" standalone="no"?>
<!-- Created with Inkscape (http://www.inkscape.org/) -->

<svg
   xmlns:dc="http://purl.org/dc/elements/1.1/"
   xmlns:cc="http://creativecommons.org/ns#"
   xmlns:rdf="http://www.w3.org/1999/02/22-rdf-syntax-ns#"
   xmlns:svg="http://www.w3.org/2000/svg"
   xmlns="http://www.w3.org/2000/svg"
   xmlns:sodipodi="http://sodipodi.sourceforge.net/DTD/sodipodi-0.dtd"
   xmlns:inkscape="http://www.inkscape.org/namespaces/inkscape"
   width="32"
   height="32"
   id="svg3765"
   version="1.1"
   inkscape:version="0.48.3.1 r9886"
   sodipodi:docname="rdfs.svg"
   inkscape:export-filename="/home/k00ni/Documents/semicon/owl.png"
   inkscape:export-xdpi="90"
   inkscape:export-ydpi="90">
  <defs
     id="defs3767" />
  <sodipodi:namedview
     id="base"
     pagecolor="#ffffff"
     bordercolor="#666666"
     borderopacity="1.0"
     inkscape:pageopacity="0.0"
     inkscape:pageshadow="2"
     inkscape:zoom="19.79899"
     inkscape:cx="1.9218805"
     inkscape:cy="11.754844"
     inkscape:current-layer="layer1-9-3"
     showgrid="true"
     inkscape:grid-bbox="true"
     inkscape:document-units="px"
     inkscape:window-width="1920"
     inkscape:window-height="1056"
     inkscape:window-x="0"
     inkscape:window-y="24"
     inkscape:window-maximized="1"
     showguides="true"
     inkscape:guide-bbox="true" />
  <metadata
     id="metadata3770">
    <rdf:RDF>
      <cc:Work
         rdf:about="">
        <dc:format>image/svg+xml</dc:format>
        <dc:type
           rdf:resource="http://purl.org/dc/dcmitype/StillImage" />
        <dc:title />
      </cc:Work>
    </rdf:RDF>
  </metadata>
  <g
     id="layer1"
     inkscape:label="Layer 1"
     inkscape:groupmode="layer"
     transform="translate(0,-16)">
    <g
       inkscape:label="Layer 1"
       id="layer1-4"
       transform="translate(0.20202972,-1.9622142e-8)">
      <g
         transform="translate(-0.37059768,-0.09089584)"
         id="layer1-9"
         inkscape:label="Layer 1">
        <g
           inkscape:label="Layer 1"
           id="layer1-9-3"
           transform="translate(-44.951788,-4.1416259)">
          <g
             transform="matrix(1.2789432,-1.2789432,1.2789432,1.2789432,-35.222526,-43.704652)"
             style="font-size:30.17165184px;font-style:normal;font-weight:normal;line-height:125%;letter-spacing:0px;word-spacing:0px;fill:#2d2d2d;fill-opacity:1;stroke:none;font-family:Sans"
             id="text3027">
            <path
               d="m -0.52659727,66.542514 c 0.70601405,5e-6 1.24684039,0.126726 1.62248067,0.380163 0.3756331,0.24892 0.5634515,0.638134 0.5634556,1.167643 -4.1e-6,0.330383 -0.076942,0.599664 -0.2308132,0.807846 -0.1493534,0.203661 -0.3665891,0.364325 -0.65170767,0.481992 0.0950374,0.117671 0.19460374,0.253444 0.29869937,0.407318 0.1040886,0.149351 0.2059178,0.307752 0.305488,0.475203 0.1040883,0.162928 0.2036546,0.334906 0.2986993,0.515935 0.095036,0.176505 0.1832885,0.350746 0.2647563,0.522724 l -1.18800883,0 C 0.67045994,71.147463 0.58220794,70.991325 0.49169601,70.832923 0.40570395,70.674523 0.31518908,70.520647 0.22015114,70.371297 0.1296336,70.221948 0.03911873,70.08165 -0.05139374,69.950402 -0.141911,69.814631 -0.23242587,69.692436 -0.32293862,69.583817 l -0.52272388,0 0,1.717521 -1.059025,0 0,-4.636629 c 0.2308124,-0.04525 0.4684139,-0.07693 0.7128053,-0.09504 0.24891461,-0.0181 0.47067604,-0.02715 0.66528493,-0.02716 m 0.0610976,0.902887 c -0.0769396,4e-6 -0.14708864,0.0023 -0.21044727,0.0068 -0.0588364,0.0045 -0.11540823,0.0091 -0.16971555,0.01358 l 0,1.276261 0.29869936,0 c 0.39826352,2e-6 0.68338536,-0.04978 0.85536636,-0.14935 0.17197549,-0.09956 0.25796462,-0.269279 0.25796763,-0.509147 -3.01e-6,-0.230809 -0.088255,-0.393736 -0.26475625,-0.48878 -0.171981,-0.09956 -0.4276855,-0.149346 -0.76711428,-0.14935"
               style="font-size:6.7886219px;font-variant:normal;font-weight:bold;font-stretch:normal;fill:#2d2d2d;font-family:Ubuntu;-inkscape-font-specification:Ubuntu Bold"
               id="path3800"
               inkscape:connector-curvature="0" />
            <path
               d="m 3.6983738,70.455158 c 0.049782,0.0045 0.1063533,0.0091 0.1697155,0.01358 0.067884,10e-7 0.1470849,10e-7 0.2376018,0 0.52951,10e-7 0.9209868,-0.133508 1.1744316,-0.400528 0.2579642,-0.267018 0.3869479,-0.635866 0.3869514,-1.106546 -3.5e-6,-0.493303 -0.1221986,-0.866677 -0.3665856,-1.120122 -0.2443933,-0.253438 -0.6313444,-0.380159 -1.1608543,-0.380163 -0.072414,4e-6 -0.1470887,0.0023 -0.2240245,0.0068 -0.076939,3e-6 -0.1493514,0.0045 -0.2172359,0.01358 l 0,2.973416 m 3.0616685,-1.493497 c -4.7e-6,0.40732 -0.063365,0.762591 -0.1900815,1.065814 -0.1267252,0.303226 -0.307755,0.554405 -0.5430897,0.753537 -0.2308169,0.199133 -0.5136758,0.348483 -0.8485777,0.448049 -0.3349081,0.09957 -0.7105448,0.14935 -1.1269113,0.14935 -0.1900832,0 -0.4118446,-0.0091 -0.6652849,-0.02716 -0.2534429,-0.01358 -0.5023588,-0.04526 -0.7467484,-0.09504 l 0,-4.58232 c 0.2443896,-0.04525 0.4978312,-0.07467 0.7603256,-0.08825 0.2670176,-0.0181 0.4955676,-0.02715 0.6856508,-0.02716 0.4027892,5e-6 0.7671115,0.04526 1.0929682,0.135773 0.3303761,0.09052 0.6132351,0.23308 0.8485777,0.427683 0.2353347,0.194611 0.4163645,0.443527 0.5430897,0.746748 0.1267164,0.303229 0.1900768,0.667551 0.1900815,1.092968"
               style="font-size:6.7886219px;font-variant:normal;font-weight:bold;font-stretch:normal;fill:#2d2d2d;font-family:Ubuntu;-inkscape-font-specification:Ubuntu Bold"
               id="path3802"
               inkscape:connector-curvature="0" />
            <path
               d="m 7.7548229,71.377099 0,-4.704515 3.1499201,0 0,0.88931 -2.0908951,0 0,0.98435 1.8600821,0 0,0.889309 -1.8600821,0 0,1.941546 -1.059025,0"
               style="font-size:6.7886219px;font-variant:normal;font-weight:bold;font-stretch:normal;fill:#2d2d2d;font-family:Ubuntu;-inkscape-font-specification:Ubuntu Bold"
               id="path3804"
               inkscape:connector-curvature="0" />
            <path
               d="m 13.314833,70.594507 c 0.149347,1e-6 0.271542,-0.01131 0.366585,-0.03394 0.09956,-0.02715 0.178765,-0.0611 0.237602,-0.101829 0.05883,-0.04526 0.09956,-0.0973 0.122195,-0.156139 0.02263,-0.05883 0.03394,-0.124456 0.03394,-0.19687 -2e-6,-0.153874 -0.07241,-0.280594 -0.217236,-0.380162 -0.144826,-0.104091 -0.393742,-0.214972 -0.746748,-0.332643 -0.153877,-0.05431 -0.307752,-0.115404 -0.461626,-0.183293 -0.153877,-0.07241 -0.291912,-0.160661 -0.414106,-0.264756 -0.122196,-0.108615 -0.221762,-0.237599 -0.2987,-0.386951 -0.07694,-0.153873 -0.115407,-0.339428 -0.115406,-0.556667 -10e-7,-0.217233 0.04073,-0.41184 0.122195,-0.583822 0.08146,-0.1765 0.196869,-0.325849 0.34622,-0.448049 0.149348,-0.122191 0.330378,-0.214968 0.543089,-0.278333 0.212709,-0.06788 0.452573,-0.101825 0.719594,-0.10183 0.3168,5e-6 0.590608,0.03395 0.821424,0.10183 0.23081,0.06789 0.420891,0.142565 0.570244,0.224024 l -0.305488,0.835001 c -0.13125,-0.06788 -0.278337,-0.126718 -0.441261,-0.176505 -0.158403,-0.0543 -0.350747,-0.08146 -0.577032,-0.08146 -0.253444,4e-6 -0.436737,0.03621 -0.549879,0.108618 -0.108619,0.06789 -0.162928,0.174245 -0.162927,0.319065 -1e-6,0.08599 0.02036,0.158405 0.0611,0.217236 0.04073,0.05884 0.0973,0.113147 0.169715,0.162927 0.07694,0.04526 0.162926,0.08826 0.257968,0.128984 0.09957,0.03621 0.208182,0.07468 0.325854,0.115406 0.244388,0.09052 0.457098,0.181033 0.63813,0.271545 0.181027,0.08599 0.330377,0.187821 0.448049,0.305488 0.122192,0.117672 0.212707,0.255707 0.271545,0.414106 0.05883,0.158403 0.08825,0.350747 0.08825,0.577033 -3e-6,0.438998 -0.153879,0.780692 -0.461626,1.025082 -0.307754,0.239865 -0.771642,0.359797 -1.391667,0.359797 -0.208186,0 -0.396005,-0.01358 -0.563456,-0.04073 -0.167454,-0.02263 -0.316803,-0.05205 -0.448049,-0.08825 -0.126722,-0.03621 -0.237602,-0.07467 -0.332643,-0.115406 -0.09051,-0.04073 -0.167453,-0.0792 -0.230813,-0.115407 l 0.2987,-0.841789 c 0.140297,0.07694 0.312275,0.147088 0.515935,0.210447 0.208183,0.05884 0.461625,0.08825 0.760326,0.08825"
               style="font-size:6.7886219px;font-variant:normal;font-weight:bold;font-stretch:normal;fill:#2d2d2d;font-family:Ubuntu;-inkscape-font-specification:Ubuntu Bold"
               id="path3806"
               inkscape:connector-curvature="0" />
          </g>
        </g>
      </g>
    </g>
  </g>
</svg>
