<?xml version="1.0" encoding="UTF-8" standalone="no"?>
<!-- Created with Inkscape (http://www.inkscape.org/) -->

<svg
   xmlns:dc="http://purl.org/dc/elements/1.1/"
   xmlns:cc="http://creativecommons.org/ns#"
   xmlns:rdf="http://www.w3.org/1999/02/22-rdf-syntax-ns#"
   xmlns:svg="http://www.w3.org/2000/svg"
   xmlns="http://www.w3.org/2000/svg"
   xmlns:sodipodi="http://sodipodi.sourceforge.net/DTD/sodipodi-0.dtd"
   xmlns:inkscape="http://www.inkscape.org/namespaces/inkscape"
   width="48px"
   height="48px"
   id="svg3765"
   version="1.1"
   inkscape:version="0.48.3.1 r9886"
   sodipodi:docname="rdfxml_document.svg"
   inkscape:export-filename="/home/k00ni/Documents/semicon/owl.png"
   inkscape:export-xdpi="90"
   inkscape:export-ydpi="90">
  <defs
     id="defs3767" />
  <sodipodi:namedview
     id="base"
     pagecolor="#ffffff"
     bordercolor="#666666"
     borderopacity="1.0"
     inkscape:pageopacity="0.0"
     inkscape:pageshadow="2"
     inkscape:zoom="28"
     inkscape:cx="19.767103"
     inkscape:cy="24.777924"
     inkscape:current-layer="layer1-9-3"
     showgrid="true"
     inkscape:grid-bbox="true"
     inkscape:document-units="px"
     inkscape:window-width="1366"
     inkscape:window-height="744"
     inkscape:window-x="0"
     inkscape:window-y="24"
     inkscape:window-maximized="1" />
  <metadata
     id="metadata3770">
    <rdf:RDF>
      <cc:Work
         rdf:about="">
        <dc:format>image/svg+xml</dc:format>
        <dc:type
           rdf:resource="http://purl.org/dc/dcmitype/StillImage" />
        <dc:title />
      </cc:Work>
    </rdf:RDF>
  </metadata>
  <g
     id="layer1"
     inkscape:label="Layer 1"
     inkscape:groupmode="layer">
    <g
       inkscape:label="Layer 1"
       id="layer1-4"
       transform="translate(0.20202972,-1.9622142e-8)">
      <g
         transform="translate(-0.37059768,-0.09089584)"
         id="layer1-9"
         inkscape:label="Layer 1">
        <g
           inkscape:label="Layer 1"
           id="layer1-9-3"
           transform="translate(-44.951788,-4.1416259)">
          <path
             transform="matrix(0.99063909,0,0,0.99063908,40.251428,3.8899776)"
             d="M 53,24.428572 C 53,37.52561 42.382753,48.142857 29.285715,48.142857 16.188677,48.142857 5.5714302,37.52561 5.5714302,24.428572 5.5714302,11.331534 16.188677,0.7142868 29.285715,0.7142868 42.382753,0.7142868 53,11.331534 53,24.428572 z"
             sodipodi:ry="23.714285"
             sodipodi:rx="23.714285"
             sodipodi:cy="24.428572"
             sodipodi:cx="29.285715"
             id="path3773-80"
             style="fill:#2d2d2d;fill-opacity:1;stroke:none"
             sodipodi:type="arc" />
          <g
             inkscape:label="Layer 1"
             id="layer1-0"
             transform="matrix(0,1.4385572,-1.0496111,0,114.82299,-112.25102)"
             style="fill:none;stroke:#ffffff;stroke-width:0.64536875;stroke-miterlimit:4;stroke-opacity:1;stroke-dasharray:none">
            <rect
               style="fill:none;stroke:#ffffff;stroke-width:2.19158631;stroke-linecap:round;stroke-linejoin:round;stroke-miterlimit:4;stroke-opacity:1;stroke-dasharray:none"
               id="rect3073-9"
               width="19.610203"
               height="23.734238"
               x="87.701805"
               y="31.920166"
               ry="3.0364146"
               rx="3.0364146" />
          </g>
          <path
             inkscape:connector-curvature="0"
             id="path3024"
             style="font-size:8.53287411px;font-style:normal;font-variant:normal;font-weight:bold;font-stretch:normal;line-height:125%;letter-spacing:0px;word-spacing:0px;fill:#ffffff;fill-opacity:1;stroke:none;font-family:Ubuntu;-inkscape-font-specification:Ubuntu Bold"
             d="m 61.684609,20.270685 c 0.934867,6e-6 1.651002,0.151201 2.148406,0.453587 0.497394,0.296996 0.746093,0.761381 0.746099,1.393159 -6e-6,0.394191 -0.101882,0.715481 -0.305632,0.963871 -0.197766,0.242996 -0.485417,0.43469 -0.862958,0.575084 0.125845,0.140397 0.257685,0.302393 0.395523,0.485985 0.137829,0.178196 0.272666,0.367191 0.404511,0.566984 0.137829,0.194395 0.269669,0.399589 0.395523,0.615582 0.125843,0.210594 0.242701,0.418487 0.350577,0.623681 l -1.5731,0 C 63.269691,25.765024 63.152832,25.57873 63.032981,25.389735 62.919114,25.200741 62.79926,25.017147 62.673415,24.838951 62.553556,24.660758 62.433701,24.493363 62.313849,24.336765 62.193991,24.174772 62.074136,24.028976 61.954284,23.899378 l -0.692164,0 0,2.04924 -1.402308,0 0,-5.532138 c 0.305631,-0.05399 0.62025,-0.09179 0.943861,-0.113396 0.3296,-0.0216 0.623245,-0.03239 0.880936,-0.0324 m 0.08091,1.077268 c -0.101881,5e-6 -0.194767,0.0027 -0.278663,0.0081 -0.07791,0.0054 -0.152818,0.0108 -0.224728,0.0162 l 0,1.522755 0.395522,0 c 0.52736,3e-6 0.904904,-0.05939 1.132632,-0.178194 0.227722,-0.118794 0.341584,-0.321287 0.341587,-0.607483 -3e-6,-0.275387 -0.116862,-0.469782 -0.350576,-0.583183 -0.227728,-0.118792 -0.566319,-0.17819 -1.015774,-0.178194" />
          <path
             inkscape:connector-curvature="0"
             id="path3026"
             style="font-size:8.53287411px;font-style:normal;font-variant:normal;font-weight:bold;font-stretch:normal;line-height:125%;letter-spacing:0px;word-spacing:0px;fill:#ffffff;fill-opacity:1;stroke:none;font-family:Ubuntu;-inkscape-font-specification:Ubuntu Bold"
             d="m 67.409444,24.919948 c 0.06592,0.0054 0.140827,0.0108 0.224729,0.0162 0.08989,1e-6 0.194762,1e-6 0.31462,0 0.701149,1e-6 1.219523,-0.159294 1.555121,-0.477886 0.341583,-0.318589 0.512378,-0.758676 0.512382,-1.320262 -4e-6,-0.588579 -0.161809,-1.034065 -0.485414,-1.33646 -0.323613,-0.302387 -0.835993,-0.453582 -1.537143,-0.453587 -0.09589,5e-6 -0.194768,0.0027 -0.296642,0.0081 -0.101881,4e-6 -0.197764,0.0054 -0.287653,0.0162 l 0,3.547695 m 4.054104,-1.781947 c -6e-6,0.485988 -0.08391,0.909875 -0.251696,1.271662 -0.167803,0.361792 -0.407513,0.661483 -0.719131,0.899074 -0.305636,0.237593 -0.680184,0.415788 -1.123644,0.534585 -0.443467,0.118796 -0.940866,0.178194 -1.492198,0.178194 -0.251697,0 -0.545343,-0.0108 -0.880935,-0.0324 -0.335596,-0.0162 -0.665198,-0.054 -0.988807,-0.113397 l 0,-5.46734 c 0.323609,-0.05399 0.659203,-0.0891 1.006784,-0.105297 0.353572,-0.02159 0.656206,-0.03239 0.907905,-0.0324 0.533352,6e-6 1.015769,0.054 1.447251,0.161995 0.437468,0.108002 0.812016,0.278098 1.123644,0.510285 0.311618,0.232198 0.551328,0.529189 0.719131,0.890974 0.167792,0.361793 0.25169,0.79648 0.251696,1.304062" />
          <path
             inkscape:connector-curvature="0"
             id="path3028"
             style="font-size:8.53287411px;font-style:normal;font-variant:normal;font-weight:bold;font-stretch:normal;line-height:125%;letter-spacing:0px;word-spacing:0px;fill:#ffffff;fill-opacity:1;stroke:none;font-family:Ubuntu;-inkscape-font-specification:Ubuntu Bold"
             d="m 72.947527,25.948618 0,-5.613135 4.170964,0 0,1.061069 -2.768658,0 0,1.174465 2.463026,0 0,1.061069 -2.463026,0 0,2.316532 -1.402306,0" />
          <path
             inkscape:connector-curvature="0"
             id="path3017"
             style="font-size:8.53287411px;font-style:normal;font-variant:normal;font-weight:bold;font-stretch:normal;line-height:125%;letter-spacing:0px;word-spacing:0px;fill:#ffffff;fill-opacity:1;stroke:none;font-family:Ubuntu;-inkscape-font-specification:Ubuntu Bold"
             d="m 63.443699,34.213613 c -0.173794,-0.313191 -0.365562,-0.629082 -0.575305,-0.947673 -0.203757,-0.323988 -0.440471,-0.653378 -0.710142,-0.98817 -0.0839,0.0972 -0.191771,0.232195 -0.32361,0.404987 -0.12585,0.172797 -0.254695,0.356391 -0.386533,0.550785 -0.12585,0.194395 -0.245705,0.380689 -0.359566,0.558883 -0.113864,0.178195 -0.197763,0.318591 -0.251696,0.421188 l -1.600067,0 c 0.263681,-0.437387 0.569312,-0.896373 0.916892,-1.37696 0.353572,-0.480584 0.746098,-0.990868 1.177578,-1.530855 l -2.004579,-2.705321 1.698949,0 1.213534,1.749549 1.186567,-1.749549 1.600068,0 -1.977613,2.721521 c 0.503388,0.588585 0.925878,1.133968 1.267471,1.636151 0.341582,0.496787 0.611256,0.915274 0.809022,1.255464 l -1.68097,0" />
          <path
             inkscape:connector-curvature="0"
             id="path3019"
             style="font-size:8.53287411px;font-style:normal;font-variant:normal;font-weight:bold;font-stretch:normal;line-height:125%;letter-spacing:0px;word-spacing:0px;fill:#ffffff;fill-opacity:1;stroke:none;font-family:Ubuntu;-inkscape-font-specification:Ubuntu Bold"
             d="m 67.666146,28.564763 c 0.107867,0.178201 0.230718,0.399594 0.368555,0.664181 0.143823,0.259196 0.290646,0.542688 0.440468,0.850474 0.155808,0.302396 0.308624,0.612886 0.458447,0.931474 0.149815,0.318593 0.290644,0.618284 0.422489,0.899073 0.131836,-0.280789 0.272666,-0.58048 0.42249,-0.899073 0.149814,-0.318588 0.299633,-0.629078 0.449457,-0.931474 0.155807,-0.307786 0.30263,-0.591278 0.440468,-0.850474 0.143821,-0.264587 0.269669,-0.48598 0.377544,-0.664181 l 1.276459,0 c 0.05992,0.372595 0.113855,0.791082 0.161805,1.255463 0.05393,0.458991 0.09888,0.939576 0.134837,1.441758 0.04194,0.496788 0.07789,0.996273 0.107869,1.498457 0.03596,0.502186 0.06592,0.974671 0.08989,1.417458 l -1.36635,0 c -0.01798,-0.545384 -0.04196,-1.139366 -0.07191,-1.781948 -0.02997,-0.642578 -0.07491,-1.290559 -0.134837,-1.943943 -0.107876,0.226797 -0.227731,0.47789 -0.359566,0.753278 -0.131847,0.275394 -0.263686,0.550786 -0.395522,0.826176 -0.125853,0.275394 -0.248705,0.539985 -0.368555,0.793777 -0.11986,0.248394 -0.221737,0.461686 -0.305632,0.639881 l -0.979816,0 c -0.0839,-0.178195 -0.185779,-0.391487 -0.305631,-0.639881 -0.119858,-0.253792 -0.245707,-0.518383 -0.377544,-0.793777 -0.12585,-0.27539 -0.254695,-0.550782 -0.386533,-0.826176 -0.131843,-0.275388 -0.251699,-0.526481 -0.359566,-0.753278 -0.05993,0.653384 -0.104873,1.301365 -0.134837,1.943943 -0.02996,0.642582 -0.05394,1.236564 -0.07191,1.781948 l -1.36635,0 c 0.02397,-0.442787 0.05093,-0.915272 0.08091,-1.417458 0.03596,-0.502184 0.07191,-1.001669 0.10787,-1.498457 0.04195,-0.502182 0.08689,-0.982767 0.134837,-1.441758 0.05394,-0.464381 0.110865,-0.882868 0.170794,-1.255463 l 1.339382,0" />
          <path
             inkscape:connector-curvature="0"
             id="path3021"
             style="font-size:8.53287411px;font-style:normal;font-variant:normal;font-weight:bold;font-stretch:normal;line-height:125%;letter-spacing:0px;word-spacing:0px;fill:#ffffff;fill-opacity:1;stroke:none;font-family:Ubuntu;-inkscape-font-specification:Ubuntu Bold"
             d="m 78.447032,33.092531 0,1.085368 -4.161975,0 0,-5.613136 1.402307,0 0,4.527768 2.759668,0" />
        </g>
      </g>
    </g>
  </g>
</svg>
