<?xml version="1.0" encoding="UTF-8" standalone="no"?>
<!-- Created with Inkscape (http://www.inkscape.org/) -->

<svg
   xmlns:dc="http://purl.org/dc/elements/1.1/"
   xmlns:cc="http://creativecommons.org/ns#"
   xmlns:rdf="http://www.w3.org/1999/02/22-rdf-syntax-ns#"
   xmlns:svg="http://www.w3.org/2000/svg"
   xmlns="http://www.w3.org/2000/svg"
   xmlns:sodipodi="http://sodipodi.sourceforge.net/DTD/sodipodi-0.dtd"
   xmlns:inkscape="http://www.inkscape.org/namespaces/inkscape"
   width="48px"
   height="48px"
   id="svg3765"
   version="1.1"
   inkscape:version="0.48.3.1 r9886"
   sodipodi:docname="sioc.svg"
   inkscape:export-filename="/home/k00ni/Documents/semicon/owl.png"
   inkscape:export-xdpi="90"
   inkscape:export-ydpi="90">
  <defs
     id="defs3767" />
  <sodipodi:namedview
     id="base"
     pagecolor="#ffffff"
     bordercolor="#666666"
     borderopacity="1.0"
     inkscape:pageopacity="0.0"
     inkscape:pageshadow="2"
     inkscape:zoom="9.8994949"
     inkscape:cx="48.306807"
     inkscape:cy="23.289817"
     inkscape:current-layer="layer1-9"
     showgrid="true"
     inkscape:grid-bbox="true"
     inkscape:document-units="px"
     inkscape:window-width="1366"
     inkscape:window-height="744"
     inkscape:window-x="0"
     inkscape:window-y="24"
     inkscape:window-maximized="1" />
  <metadata
     id="metadata3770">
    <rdf:RDF>
      <cc:Work
         rdf:about="">
        <dc:format>image/svg+xml</dc:format>
        <dc:type
           rdf:resource="http://purl.org/dc/dcmitype/StillImage" />
        <dc:title></dc:title>
      </cc:Work>
    </rdf:RDF>
  </metadata>
  <g
     id="layer1"
     inkscape:label="Layer 1"
     inkscape:groupmode="layer">
    <g
       inkscape:label="Layer 1"
       id="layer1-4"
       transform="translate(0.20202972,-1.9622142e-8)">
      <g
         transform="translate(-0.37059768,-0.09089584)"
         id="layer1-9"
         inkscape:label="Layer 1">
        <path
           sodipodi:type="arc"
           style="fill:#2d2d2d;fill-opacity:1;stroke:none"
           id="path3773-80"
           sodipodi:cx="29.285715"
           sodipodi:cy="24.428572"
           sodipodi:rx="23.714285"
           sodipodi:ry="23.714285"
           d="M 53,24.428572 C 53,37.52561 42.382753,48.142857 29.285715,48.142857 16.188677,48.142857 5.5714302,37.52561 5.5714302,24.428572 5.5714302,11.331534 16.188677,0.7142868 29.285715,0.7142868 42.382753,0.7142868 53,11.331534 53,24.428572 z"
           transform="matrix(0.99063909,0,0,0.99063908,-4.7003607,-0.15063258)" />
        <path
           inkscape:connector-curvature="0"
           id="path3040"
           style="font-size:14.12977982px;font-style:normal;font-variant:normal;font-weight:bold;font-stretch:normal;line-height:125%;letter-spacing:0px;word-spacing:0px;fill:#ffffff;fill-opacity:1;stroke:none;font-family:Ubuntu;-inkscape-font-specification:Ubuntu Bold"
           d="m 10.347083,26.708979 c 0.310851,2e-6 0.565187,-0.02355 0.763008,-0.07065 0.207232,-0.05652 0.372079,-0.127166 0.494542,-0.211947 0.122453,-0.0942 0.207232,-0.202524 0.254336,-0.324985 0.04709,-0.122455 0.07064,-0.259043 0.07065,-0.409763 -5e-6,-0.320272 -0.150723,-0.584028 -0.452153,-0.791268 C 11.176026,24.683713 10.657935,24.452927 9.9231907,24.208007 9.6029117,24.094974 9.2826367,23.967806 8.9623647,23.826504 8.6420872,23.675791 8.3547819,23.492104 8.1004477,23.275443 7.8461104,23.049371 7.6388738,22.780906 7.4787374,22.470045 7.3185991,22.149776 7.2385305,21.763563 7.2385311,21.311403 c -6e-7,-0.452145 0.084778,-0.857199 0.2543361,-1.215161 0.1695562,-0.367366 0.4097622,-0.67822 0.7206187,-0.932565 0.3108532,-0.254327 0.6876468,-0.447434 1.1303828,-0.579321 0.442729,-0.141288 0.9419813,-0.211937 1.4977563,-0.211947 0.659385,10e-6 1.229286,0.07066 1.709704,0.211947 0.480406,0.141307 0.876039,0.296735 1.186901,0.466282 l -0.63584,1.737963 c -0.273182,-0.14129 -0.579327,-0.263748 -0.918436,-0.367374 -0.3297,-0.11303 -0.730043,-0.169549 -1.201031,-0.169557 -0.527516,8e-6 -0.909019,0.07537 -1.1445123,0.226076 -0.22608,0.141306 -0.339118,0.362672 -0.339115,0.6641 -3e-6,0.178984 0.04239,0.329702 0.127168,0.452153 0.08478,0.122464 0.202524,0.235503 0.353245,0.339114 0.1601343,0.09421 0.3391113,0.183694 0.5369313,0.268466 0.207233,0.07537 0.433309,0.155434 0.67823,0.240207 0.508667,0.188402 0.951399,0.376799 1.328199,0.565191 0.376788,0.178982 0.687643,0.390929 0.932566,0.63584 0.254328,0.24492 0.442725,0.532226 0.565191,0.861916 0.12245,0.329699 0.183679,0.730042 0.183687,1.201032 -8e-6,0.913727 -0.320282,1.624925 -0.960825,2.133596 -0.640556,0.499253 -1.60609,0.748879 -2.896605,0.748879 -0.4333173,0 -0.8242403,-0.02826 -1.1727723,-0.08478 C 8.8257737,28.456362 8.5149193,28.395133 8.2417455,28.319774 7.9779882,28.244415 7.747202,28.164347 7.5493863,28.079568 7.3609884,27.994789 7.2008511,27.914721 7.0689738,27.839361 l 0.6217103,-1.752092 c 0.292014,0.160139 0.6499681,0.306147 1.0738636,0.438023 0.43331,0.12246 0.960822,0.183689 1.5825353,0.183687" />
        <path
           inkscape:connector-curvature="0"
           id="path3042"
           style="font-size:14.12977982px;font-style:normal;font-variant:normal;font-weight:bold;font-stretch:normal;line-height:125%;letter-spacing:0px;word-spacing:0px;fill:#ffffff;fill-opacity:1;stroke:none;font-family:Ubuntu;-inkscape-font-specification:Ubuntu Bold"
           d="m 17.213726,18.598485 2.204246,0 0,9.791938 -2.204246,0 0,-9.791938" />
        <path
           inkscape:connector-curvature="0"
           id="path3044"
           style="font-size:14.12977982px;font-style:normal;font-variant:normal;font-weight:bold;font-stretch:normal;line-height:125%;letter-spacing:0px;word-spacing:0px;fill:#ffffff;fill-opacity:1;stroke:none;font-family:Ubuntu;-inkscape-font-specification:Ubuntu Bold"
           d="m 24.14157,23.487389 c -3e-6,0.480417 0.05652,0.91373 0.169557,1.29994 0.122455,0.386217 0.292012,0.720622 0.508672,1.003214 0.226073,0.273178 0.499248,0.485125 0.819528,0.63584 0.32027,0.15072 0.687644,0.226079 1.102122,0.226077 0.405048,2e-6 0.767712,-0.07536 1.087993,-0.226077 0.329688,-0.150715 0.602864,-0.362662 0.819528,-0.63584 0.226068,-0.282592 0.395626,-0.616997 0.508672,-1.003214 0.12245,-0.38621 0.183679,-0.819523 0.183687,-1.29994 -8e-6,-0.480407 -0.06124,-0.91372 -0.183687,-1.29994 -0.113046,-0.395627 -0.282604,-0.730031 -0.508672,-1.003214 -0.216664,-0.282588 -0.48984,-0.499244 -0.819528,-0.64997 -0.320281,-0.150709 -0.682945,-0.226068 -1.087993,-0.226076 -0.414478,8e-6 -0.781852,0.08008 -1.102122,0.240206 -0.32028,0.150725 -0.593455,0.367382 -0.819528,0.64997 -0.21666,0.273183 -0.386217,0.607587 -0.508672,1.003214 -0.113041,0.38622 -0.16956,0.814823 -0.169557,1.28581 m 7.474653,0 c -1e-5,0.838371 -0.127178,1.577829 -0.381504,2.218376 -0.244926,0.631132 -0.58404,1.163353 -1.017344,1.596665 -0.433322,0.423894 -0.951413,0.744169 -1.554276,0.960825 -0.593457,0.216656 -1.234007,0.324985 -1.92165,0.324985 -0.668814,0 -1.299944,-0.108329 -1.89339,-0.324985 -0.593454,-0.216656 -1.111545,-0.536931 -1.554276,-0.960825 -0.442735,-0.433312 -0.791269,-0.965533 -1.045604,-1.596665 -0.254337,-0.640547 -0.381504,-1.380005 -0.381504,-2.218376 0,-0.838361 0.131877,-1.573109 0.395634,-2.204245 0.263755,-0.640543 0.616999,-1.177474 1.059734,-1.610795 0.45215,-0.433304 0.970241,-0.758289 1.554275,-0.974955 0.593447,-0.216647 1.215157,-0.324975 1.865131,-0.324985 0.668804,10e-6 1.299933,0.108338 1.893391,0.324985 0.593443,0.216666 1.111534,0.541651 1.554276,0.974955 0.442723,0.433321 0.791257,0.970252 1.045603,1.610795 0.254326,0.631136 0.381494,1.365884 0.381504,2.204245" />
        <path
           inkscape:connector-curvature="0"
           id="path3046"
           style="font-size:14.12977982px;font-style:normal;font-variant:normal;font-weight:bold;font-stretch:normal;line-height:125%;letter-spacing:0px;word-spacing:0px;fill:#ffffff;fill-opacity:1;stroke:none;font-family:Ubuntu;-inkscape-font-specification:Ubuntu Bold"
           d="m 38.30892,28.58824 c -1.591959,0 -2.807119,-0.442733 -3.645483,-1.3282 -0.828949,-0.885464 -1.243422,-2.143013 -1.243421,-3.772651 -10e-7,-0.810101 0.127167,-1.530719 0.381504,-2.161856 0.254335,-0.640542 0.602869,-1.177473 1.045604,-1.610795 0.44273,-0.442724 0.970241,-0.777128 1.582535,-1.003214 0.612286,-0.226067 1.276385,-0.339105 1.992299,-0.339115 0.414467,10e-6 0.791261,0.03298 1.130382,0.09891 0.339108,0.05653 0.635833,0.127178 0.890176,0.211947 0.254329,0.07537 0.466275,0.155437 0.635841,0.240206 0.169548,0.08479 0.292006,0.150727 0.367374,0.197817 l -0.63584,1.780353 c -0.301443,-0.16013 -0.654687,-0.296718 -1.059734,-0.409764 -0.39564,-0.11303 -0.847793,-0.169549 -1.356459,-0.169557 -0.33912,8e-6 -0.673524,0.05653 -1.003214,0.169557 -0.320279,0.113046 -0.607585,0.296733 -0.861917,0.551061 -0.244919,0.244924 -0.442736,0.565198 -0.59345,0.960825 -0.150721,0.39564 -0.22608,0.876052 -0.226077,1.441238 -3e-6,0.452157 0.0471,0.87605 0.141298,1.27168 0.103615,0.386217 0.263753,0.720622 0.480413,1.003214 0.226072,0.282598 0.518087,0.508675 0.876046,0.67823 0.357949,0.160139 0.791262,0.240208 1.29994,0.240206 0.320269,2e-6 0.607574,-0.01884 0.861916,-0.05652 0.254329,-0.03768 0.480406,-0.08007 0.67823,-0.127168 0.197809,-0.05652 0.372076,-0.117746 0.522801,-0.183687 0.15071,-0.06594 0.287298,-0.127166 0.409764,-0.183687 l 0.607581,1.766222 c -0.310864,0.188398 -0.748887,0.357955 -1.31407,0.508672 -0.565198,0.150718 -1.219877,0.226077 -1.964039,0.226077" />
      </g>
    </g>
  </g>
</svg>
