<?xml version="1.0" encoding="UTF-8" standalone="no"?>
<!-- Created with Inkscape (http://www.inkscape.org/) -->

<svg
   xmlns:dc="http://purl.org/dc/elements/1.1/"
   xmlns:cc="http://creativecommons.org/ns#"
   xmlns:rdf="http://www.w3.org/1999/02/22-rdf-syntax-ns#"
   xmlns:svg="http://www.w3.org/2000/svg"
   xmlns="http://www.w3.org/2000/svg"
   xmlns:sodipodi="http://sodipodi.sourceforge.net/DTD/sodipodi-0.dtd"
   xmlns:inkscape="http://www.inkscape.org/namespaces/inkscape"
   width="48px"
   height="48px"
   id="svg3765"
   version="1.1"
   inkscape:version="0.48.3.1 r9886"
   sodipodi:docname="skos.svg"
   inkscape:export-filename="/home/k00ni/Documents/semicon/owl.png"
   inkscape:export-xdpi="90"
   inkscape:export-ydpi="90">
  <defs
     id="defs3767" />
  <sodipodi:namedview
     id="base"
     pagecolor="#ffffff"
     bordercolor="#666666"
     borderopacity="1.0"
     inkscape:pageopacity="0.0"
     inkscape:pageshadow="2"
     inkscape:zoom="9.8994949"
     inkscape:cx="6.9646471"
     inkscape:cy="19.582283"
     inkscape:current-layer="layer1"
     showgrid="true"
     inkscape:grid-bbox="true"
     inkscape:document-units="px"
     inkscape:window-width="1366"
     inkscape:window-height="744"
     inkscape:window-x="0"
     inkscape:window-y="24"
     inkscape:window-maximized="1" />
  <metadata
     id="metadata3770">
    <rdf:RDF>
      <cc:Work
         rdf:about="">
        <dc:format>image/svg+xml</dc:format>
        <dc:type
           rdf:resource="http://purl.org/dc/dcmitype/StillImage" />
        <dc:title />
      </cc:Work>
    </rdf:RDF>
  </metadata>
  <g
     id="layer1"
     inkscape:label="Layer 1"
     inkscape:groupmode="layer">
    <path
       sodipodi:type="arc"
       style="fill:#2d2d2d;fill-opacity:1;stroke:none"
       id="path3773"
       sodipodi:cx="29.285715"
       sodipodi:cy="24.428572"
       sodipodi:rx="23.714285"
       sodipodi:ry="23.714285"
       d="m 53,24.428572 a 23.714285,23.714285 0 1 1 -47.4285698,0 23.714285,23.714285 0 1 1 47.4285698,0 z"
       transform="matrix(0.99063909,0,0,0.99063908,-4.7003607,-0.15063258)" />
    <path
       inkscape:connector-curvature="0"
       id="path2986"
       style="font-size:14.98204803px;font-style:normal;font-variant:normal;font-weight:bold;font-stretch:normal;line-height:125%;letter-spacing:0px;word-spacing:0px;fill:#ffffff;fill-opacity:1;stroke:none;font-family:Ubuntu;-inkscape-font-specification:Ubuntu Bold"
       d="m 9.5176469,27.324467 c 0.2986304,2e-6 0.5429671,-0.02518 0.7330111,-0.07552 0.199085,-0.06042 0.357452,-0.135955 0.4751,-0.226596 0.117639,-0.100709 0.199085,-0.216521 0.244338,-0.347446 0.04524,-0.130918 0.06788,-0.276946 0.06788,-0.438082 -5e-6,-0.342408 -0.144798,-0.624392 -0.434378,-0.845956 C 10.313999,25.15923 9.8162763,24.912494 9.1104175,24.650647 8.8027307,24.529801 8.4950473,24.393844 8.187366,24.242776 7.8796802,24.081647 7.60367,23.885264 7.3593345,23.653629 7.1149971,23.411934 6.9159077,23.124913 6.7620668,22.792568 6.6082242,22.450165 6.5313033,22.037258 6.531304,21.553849 c -7e-7,-0.483395 0.081445,-0.916442 0.2443372,-1.299145 0.1628904,-0.392755 0.3936529,-0.725095 0.6922886,-0.997018 0.2986324,-0.271903 0.660613,-0.478357 1.085943,-0.619359 0.4253243,-0.151053 0.9049487,-0.226585 1.4388747,-0.226595 0.6334615,10e-6 1.1809575,0.07554 1.6424885,0.226595 0.461519,0.151073 0.841599,0.317243 1.14024,0.498509 l -0.610843,1.858078 c -0.262443,-0.151055 -0.556551,-0.281976 -0.882329,-0.392764 -0.316738,-0.120842 -0.701342,-0.181267 -1.153815,-0.181276 -0.5067766,9e-6 -0.8732811,0.08057 -1.0995162,0.2417 -0.2171917,0.151073 -0.3257858,0.387738 -0.325783,0.709998 -2.8e-6,0.191356 0.04072,0.352489 0.1221687,0.483404 0.081442,0.130929 0.1945615,0.251778 0.339357,0.362551 0.1538389,0.100718 0.3257793,0.196389 0.5158233,0.28702 0.199085,0.08057 0.4162742,0.166176 0.6515652,0.256808 0.488669,0.201425 0.913997,0.402842 1.275985,0.604253 0.361973,0.191353 0.660608,0.417947 0.895902,0.679786 0.24433,0.261847 0.425319,0.569009 0.542972,0.921486 0.117636,0.352484 0.176457,0.780497 0.176464,1.284039 -7e-6,0.976877 -0.307691,1.737229 -0.923051,2.281055 -0.615374,0.533757 -1.542949,0.800636 -2.7827291,0.800636 -0.4162812,0 -0.7918361,-0.03021 -1.1266656,-0.09063 -0.3348346,-0.05036 -0.6334687,-0.11582 -0.895903,-0.196388 -0.253388,-0.08057 -0.4751011,-0.166168 -0.66514,-0.256807 -0.1809913,-0.09064 -0.334833,-0.17624 -0.4615258,-0.256808 l 0.5972687,-1.873185 c 0.2805338,0.171207 0.6244154,0.327305 1.0316458,0.468296 0.4162756,0.130924 0.9230484,0.196384 1.5203199,0.196382" />
    <path
       inkscape:connector-curvature="0"
       id="path2988"
       style="font-size:14.98204803px;font-style:normal;font-variant:normal;font-weight:bold;font-stretch:normal;line-height:125%;letter-spacing:0px;word-spacing:0px;fill:#ffffff;fill-opacity:1;stroke:none;font-family:Ubuntu;-inkscape-font-specification:Ubuntu Bold"
       d="m 20.59775,29.122121 c -0.190046,-0.34241 -0.416284,-0.709996 -0.678714,-1.102762 -0.253393,-0.402835 -0.533927,-0.800634 -0.841605,-1.1934 -0.29864,-0.402833 -0.610847,-0.785526 -0.936627,-1.148082 -0.325786,-0.372619 -0.651569,-0.699922 -0.977347,-0.981912 l 0,4.426156 -2.11759,0 0,-10.468688 2.11759,0 0,3.957858 c 0.552017,-0.644529 1.104037,-1.314242 1.656062,-2.009141 0.561066,-0.704953 1.081413,-1.354525 1.561044,-1.948717 l 2.511242,0 c -0.642525,0.845964 -1.289565,1.661706 -1.941122,2.447226 -0.642523,0.785536 -1.321237,1.5761 -2.036144,2.371693 0.751104,0.694896 1.475066,1.52071 2.171886,2.477439 0.705855,0.956737 1.380044,2.014179 2.022569,3.17233 l -2.511244,0" />
    <path
       inkscape:connector-curvature="0"
       id="path2990"
       style="font-size:14.98204803px;font-style:normal;font-variant:normal;font-weight:bold;font-stretch:normal;line-height:125%;letter-spacing:0px;word-spacing:0px;fill:#ffffff;fill-opacity:1;stroke:none;font-family:Ubuntu;-inkscape-font-specification:Ubuntu Bold"
       d="m 26.616205,23.880223 c -3e-6,0.513621 0.05429,0.976882 0.162893,1.389784 0.11764,0.41291 0.280531,0.770426 0.488674,1.072549 0.217184,0.292059 0.479621,0.518653 0.787307,0.679784 0.30768,0.161137 0.660611,0.241704 1.058795,0.241703 0.389125,10e-7 0.73753,-0.08057 1.04522,-0.241703 0.316727,-0.161131 0.579163,-0.387725 0.787309,-0.679784 0.217182,-0.302123 0.380073,-0.659639 0.488675,-1.072549 0.117636,-0.412902 0.176458,-0.876163 0.176464,-1.389784 -6e-6,-0.513609 -0.05883,-0.976868 -0.176464,-1.389782 -0.108602,-0.42297 -0.271493,-0.780486 -0.488675,-1.072549 -0.208146,-0.302118 -0.470582,-0.533749 -0.787309,-0.694892 -0.30769,-0.161126 -0.656095,-0.241692 -1.04522,-0.241701 -0.398184,9e-6 -0.751115,0.08562 -1.058795,0.256808 -0.307686,0.161142 -0.570123,0.392772 -0.787307,0.694892 -0.208143,0.292062 -0.371034,0.649578 -0.488674,1.072548 -0.108598,0.412913 -0.162896,0.871139 -0.162893,1.374676 m 7.180797,0 c -8e-6,0.896315 -0.122178,1.686877 -0.366504,2.371696 -0.235298,0.674751 -0.561079,1.243756 -0.977348,1.707015 -0.416288,0.453191 -0.914011,0.7956 -1.493173,1.027231 -0.570127,0.231629 -1.185494,0.347445 -1.846103,0.347445 -0.642521,0 -1.248838,-0.115816 -1.818955,-0.347445 -0.570123,-0.231631 -1.067846,-0.57404 -1.49317,-1.027231 -0.42533,-0.463259 -0.760162,-1.032264 -1.004498,-1.707015 -0.244338,-0.684819 -0.366507,-1.475381 -0.366506,-2.371696 -1e-6,-0.896302 0.126693,-1.68183 0.380082,-2.356587 0.253383,-0.684812 0.592741,-1.258852 1.01807,-1.722122 0.434375,-0.46325 0.932098,-0.810696 1.493171,-1.042337 0.570116,-0.23162 1.167384,-0.347435 1.791806,-0.347445 0.64251,10e-6 1.248828,0.115825 1.818955,0.347445 0.570112,0.231641 1.067836,0.579087 1.493171,1.042337 0.425319,0.46327 0.760151,1.03731 1.004498,1.722122 0.244326,0.674757 0.366496,1.460285 0.366504,2.356587" />
    <path
       inkscape:connector-curvature="0"
       id="path2992"
       style="font-size:14.98204803px;font-style:normal;font-variant:normal;font-weight:bold;font-stretch:normal;line-height:125%;letter-spacing:0px;word-spacing:0px;fill:#ffffff;fill-opacity:1;stroke:none;font-family:Ubuntu;-inkscape-font-specification:Ubuntu Bold"
       d="m 38.307576,27.324467 c 0.298631,2e-6 0.542967,-0.02518 0.733012,-0.07552 0.199084,-0.06042 0.357451,-0.135955 0.4751,-0.226596 0.117638,-0.100709 0.199085,-0.216521 0.244336,-0.347446 0.04524,-0.130918 0.06787,-0.276946 0.06787,-0.438082 -5e-6,-0.342408 -0.144796,-0.624392 -0.434377,-0.845956 -0.289589,-0.231626 -0.787312,-0.478362 -1.493171,-0.740209 -0.307688,-0.120846 -0.61537,-0.256803 -0.923051,-0.407871 -0.307688,-0.16113 -0.583697,-0.357512 -0.828032,-0.589147 -0.24434,-0.241695 -0.443429,-0.528716 -0.597269,-0.861061 -0.153842,-0.342403 -0.230764,-0.75531 -0.230763,-1.23872 -10e-7,-0.483394 0.08144,-0.916441 0.244337,-1.299145 0.162891,-0.392754 0.393654,-0.725094 0.692289,-0.997017 0.298633,-0.271903 0.660613,-0.478357 1.085942,-0.61936 0.425325,-0.151052 0.904949,-0.226584 1.438874,-0.226595 0.633463,1.1e-5 1.180958,0.07554 1.64249,0.226595 0.46152,0.151074 0.841598,0.317244 1.14024,0.498509 l -0.610843,1.858079 c -0.262442,-0.151056 -0.556553,-0.281976 -0.882328,-0.392764 -0.316739,-0.120842 -0.701344,-0.181268 -1.153815,-0.181276 -0.506778,8e-6 -0.873282,0.08057 -1.099517,0.2417 -0.217191,0.151073 -0.325787,0.387738 -0.325784,0.709997 -3e-6,0.191357 0.04072,0.35249 0.12217,0.483404 0.08144,0.13093 0.194561,0.251779 0.339357,0.362552 0.153839,0.100718 0.325778,0.196388 0.515823,0.28702 0.199085,0.08057 0.416273,0.166176 0.651565,0.256808 0.48867,0.201425 0.913996,0.402842 1.275983,0.604253 0.361976,0.191353 0.660609,0.417947 0.895903,0.679786 0.244331,0.261847 0.425322,0.569008 0.542971,0.921485 0.117637,0.352485 0.176458,0.780498 0.176466,1.284039 -8e-6,0.976878 -0.307691,1.73723 -0.923051,2.281056 -0.615374,0.533757 -1.542949,0.800636 -2.782729,0.800636 -0.416282,0 -0.791836,-0.03021 -1.126666,-0.09063 -0.334834,-0.05035 -0.633468,-0.115817 -0.895903,-0.196384 -0.253387,-0.08056 -0.475101,-0.166168 -0.66514,-0.256807 -0.180991,-0.09064 -0.334833,-0.17624 -0.461525,-0.256808 l 0.597267,-1.873185 c 0.280536,0.171207 0.624417,0.327305 1.031647,0.468296 0.416275,0.130923 0.923048,0.196384 1.52032,0.196382" />
  </g>
</svg>
