<?xml version="1.0" encoding="UTF-8" standalone="no"?>
<!-- Created with Inkscape (http://www.inkscape.org/) -->

<svg
   xmlns:dc="http://purl.org/dc/elements/1.1/"
   xmlns:cc="http://creativecommons.org/ns#"
   xmlns:rdf="http://www.w3.org/1999/02/22-rdf-syntax-ns#"
   xmlns:svg="http://www.w3.org/2000/svg"
   xmlns="http://www.w3.org/2000/svg"
   xmlns:sodipodi="http://sodipodi.sourceforge.net/DTD/sodipodi-0.dtd"
   xmlns:inkscape="http://www.inkscape.org/namespaces/inkscape"
   width="16"
   height="16"
   id="svg3765"
   version="1.1"
   inkscape:version="0.48.3.1 r9886"
   sodipodi:docname="skos.svg"
   inkscape:export-filename="/home/k00ni/Documents/semicon/owl.png"
   inkscape:export-xdpi="90"
   inkscape:export-ydpi="90">
  <defs
     id="defs3767" />
  <sodipodi:namedview
     id="base"
     pagecolor="#ffffff"
     bordercolor="#666666"
     borderopacity="1.0"
     inkscape:pageopacity="0.0"
     inkscape:pageshadow="2"
     inkscape:zoom="28"
     inkscape:cx="4.1160716"
     inkscape:cy="8.8045672"
     inkscape:current-layer="layer1-9-3"
     showgrid="true"
     inkscape:grid-bbox="true"
     inkscape:document-units="px"
     inkscape:window-width="1366"
     inkscape:window-height="719"
     inkscape:window-x="0"
     inkscape:window-y="25"
     inkscape:window-maximized="1"
     showguides="true"
     inkscape:guide-bbox="true" />
  <metadata
     id="metadata3770">
    <rdf:RDF>
      <cc:Work
         rdf:about="">
        <dc:format>image/svg+xml</dc:format>
        <dc:type
           rdf:resource="http://purl.org/dc/dcmitype/StillImage" />
        <dc:title />
      </cc:Work>
    </rdf:RDF>
  </metadata>
  <g
     id="layer1"
     inkscape:label="Layer 1"
     inkscape:groupmode="layer"
     transform="translate(0,-32)">
    <g
       inkscape:label="Layer 1"
       id="layer1-4"
       transform="translate(0.20202972,-1.9622142e-8)">
      <g
         transform="translate(-0.37059768,-0.09089584)"
         id="layer1-9"
         inkscape:label="Layer 1">
        <g
           inkscape:label="Layer 1"
           id="layer1-9-3"
           transform="translate(-44.951788,-4.1416259)">
          <g
             transform="matrix(0.68490866,-0.68490866,0.68490866,0.68490866,1.4748691,1.4829955)"
             style="font-size:20.38523674px;font-style:normal;font-weight:normal;line-height:125%;letter-spacing:0px;word-spacing:0px;fill:#2d2d2d;fill-opacity:1;stroke:none;font-family:Sans"
             id="text2993-4-6">
            <path
               d="m -0.79541624,70.316078 c 0.15028152,10e-7 0.27324063,-0.01139 0.3688777,-0.03416 0.1001867,-0.02732 0.17988242,-0.06148 0.2390874,-0.102466 0.0592001,-0.04554 0.10018646,-0.09791 0.12295923,-0.157114 0.02276764,-0.0592 0.03415274,-0.125235 0.03415534,-0.198101 -2.6e-6,-0.154836 -0.07286726,-0.282349 -0.21859419,-0.38254 -0.1457317,-0.104741 -0.39620396,-0.216315 -0.75141754,-0.334722 -0.154839,-0.05465 -0.3096764,-0.116126 -0.4645127,-0.184439 -0.1548385,-0.07286 -0.2937368,-0.161666 -0.4166951,-0.266412 -0.1229599,-0.109294 -0.2231488,-0.239085 -0.300567,-0.389371 -0.077419,-0.154834 -0.1161285,-0.34155 -0.1161282,-0.560147 -3e-7,-0.218591 0.040986,-0.414415 0.1229592,-0.587472 0.081972,-0.177604 0.1981004,-0.327887 0.3483845,-0.450851 0.1502826,-0.122954 0.3324442,-0.216312 0.5464855,-0.280074 0.2140386,-0.06831 0.45540275,-0.102461 0.72409326,-0.102466 0.3187808,5e-6 0.59430029,0.03416 0.82655929,0.102466 0.23225319,0.06832 0.42352292,0.143457 0.57380975,0.225426 L 0.53664212,67.45386 c -0.13207036,-0.06831 -0.2800767,-0.127509 -0.44401945,-0.177608 -0.15939417,-0.05464 -0.35294092,-0.08197 -0.58064083,-0.08197 -0.25502844,4e-6 -0.43946711,0.03644 -0.55331654,0.109298 -0.1092986,0.06831 -0.1639471,0.175334 -0.1639457,0.32106 -1.4e-6,0.08653 0.020492,0.159395 0.06148,0.218594 0.040985,0.05921 0.09791,0.113854 0.17077668,0.163946 0.077417,0.04554 0.16394382,0.08881 0.2595806,0.12979 0.10018699,0.03643 0.20948397,0.07515 0.32789129,0.116128 0.24591597,0.09108 0.45995591,0.182165 0.64212044,0.273243 0.18215876,0.08653 0.33244211,0.188995 0.45085052,0.307398 0.12295577,0.118407 0.2140366,0.257306 0.27324274,0.416695 0.0591989,0.159393 0.0888002,0.35294 0.0888039,0.580641 -3.7e-6,0.441743 -0.1548412,0.785573 -0.46451275,1.031491 -0.30967804,0.241365 -0.77646725,0.362047 -1.40036905,0.362047 -0.2094877,0 -0.3984804,-0.01366 -0.5669786,-0.04099 -0.1685008,-0.02277 -0.3187842,-0.05237 -0.4508505,-0.0888 -0.127514,-0.03643 -0.239088,-0.07514 -0.3347224,-0.116129 -0.091081,-0.04099 -0.1685,-0.0797 -0.2322563,-0.116128 l 0.300567,-0.847052 c 0.1411747,0.07742 0.3142283,0.148007 0.5191612,0.211763 0.2094848,0.0592 0.4645111,0.08881 0.7650796,0.0888"
               style="font-size:6.83106852px;font-variant:normal;font-weight:bold;font-stretch:normal;fill:#2d2d2d;font-family:Ubuntu;-inkscape-font-specification:Ubuntu Bold"
               id="path2990"
               inkscape:connector-curvature="0" />
            <path
               d="M 4.6833142,71.128975 C 4.587676,70.974138 4.473825,70.807915 4.3417608,70.630307 4.2142447,70.448146 4.0730694,70.268261 3.9182346,70.090653 3.7679486,69.908492 3.6108342,69.735438 3.4468908,69.571491 3.2829433,69.402993 3.1189978,69.254987 2.9550539,69.127472 l 0,2.001503 -1.0656467,0 0,-4.733931 1.0656467,0 0,1.78974 c 0.2777949,-0.291455 0.5555914,-0.594299 0.8333904,-0.908532 0.2823481,-0.318779 0.5442054,-0.612514 0.7855728,-0.881208 l 1.2637477,0 c -0.3233414,0.382545 -0.6489553,0.751422 -0.9768428,1.106634 -0.3233404,0.355218 -0.6648935,0.712711 -1.0246603,1.072477 0.377983,0.314232 0.7423063,0.687663 1.092971,1.120296 0.3552116,0.432635 0.6944877,0.910809 1.0178292,1.434524 l -1.2637477,0"
               style="font-size:6.83106852px;font-variant:normal;font-weight:bold;font-stretch:normal;fill:#2d2d2d;font-family:Ubuntu;-inkscape-font-specification:Ubuntu Bold"
               id="path2992"
               inkscape:connector-curvature="0" />
            <path
               d="m 7.4086788,68.73334 c -1.4e-6,0.232259 0.027323,0.441744 0.081973,0.628458 0.059201,0.186718 0.1411737,0.348386 0.2459184,0.485006 0.1092952,0.132069 0.2413624,0.234535 0.396202,0.307398 0.1548352,0.07287 0.3324428,0.109298 0.5328233,0.109297 0.1958211,10e-7 0.3711517,-0.03643 0.5259923,-0.109297 0.1593882,-0.07286 0.2914554,-0.175329 0.396202,-0.307398 0.1092934,-0.13662 0.1912661,-0.298288 0.2459185,-0.485006 0.059199,-0.186714 0.0888,-0.396199 0.088804,-0.628458 -4e-6,-0.232254 -0.029605,-0.441739 -0.088804,-0.628458 C 9.7790558,67.913615 9.6970831,67.751947 9.5877897,67.619876 9.4830431,67.483258 9.3509759,67.378515 9.1915877,67.305647 9.0367471,67.232786 8.8614165,67.196354 8.6655954,67.19635 c -0.2003805,4e-6 -0.3779881,0.03871 -0.5328233,0.116128 -0.1548396,0.07287 -0.2869068,0.177611 -0.396202,0.314229 -0.1047447,0.132071 -0.1867174,0.293739 -0.2459184,0.485006 -0.05465,0.186719 -0.081974,0.393927 -0.081973,0.621627 m 3.6136343,0 c -5e-6,0.405312 -0.06148,0.762804 -0.184438,1.072478 -0.11841,0.305122 -0.282356,0.562425 -0.491837,0.771911 -0.20949,0.204932 -0.4599623,0.359769 -0.7514173,0.464512 -0.2869083,0.104743 -0.5965831,0.157115 -0.9290254,0.157115 -0.3233396,0 -0.6284603,-0.05237 -0.9153631,-0.157115 C 7.4633259,70.937498 7.2128536,70.782661 6.9988147,70.577729 6.7847738,70.368243 6.6162742,70.11094 6.4933157,69.805818 6.370356,69.496144 6.3088765,69.138652 6.3088768,68.73334 c -3e-7,-0.405307 0.063756,-0.760522 0.1912699,-1.065647 0.1275126,-0.309671 0.2982892,-0.569251 0.5123302,-0.778741 0.2185929,-0.209482 0.4690652,-0.366596 0.7514175,-0.471344 0.2869028,-0.104738 0.5874695,-0.15711 0.901701,-0.157115 0.3233343,5e-6 0.628455,0.05238 0.9153632,0.157115 0.286901,0.104748 0.5373734,0.261862 0.7514184,0.471344 0.214035,0.20949 0.382535,0.46907 0.505499,0.778741 0.122954,0.305125 0.184433,0.66034 0.184438,1.065647"
               style="font-size:6.83106852px;font-variant:normal;font-weight:bold;font-stretch:normal;fill:#2d2d2d;font-family:Ubuntu;-inkscape-font-specification:Ubuntu Bold"
               id="path2994"
               inkscape:connector-curvature="0" />
            <path
               d="m 13.371797,70.417093 c 0.150281,1e-6 0.27324,-0.01139 0.368877,-0.03416 0.100187,-0.02732 0.179883,-0.06148 0.239088,-0.102466 0.0592,-0.04554 0.100186,-0.09791 0.122959,-0.157114 0.02277,-0.0592 0.03415,-0.125235 0.03416,-0.198101 -2e-6,-0.154836 -0.07287,-0.282349 -0.218594,-0.38254 -0.145731,-0.104741 -0.396204,-0.216315 -0.751417,-0.334722 -0.154839,-0.05465 -0.309677,-0.116126 -0.464513,-0.184439 -0.154838,-0.07286 -0.293737,-0.161666 -0.416695,-0.266412 -0.12296,-0.109294 -0.223149,-0.239085 -0.300567,-0.389371 -0.07742,-0.154834 -0.116129,-0.34155 -0.116128,-0.560147 -10e-7,-0.218591 0.04099,-0.414415 0.122959,-0.587472 0.08197,-0.177604 0.1981,-0.327887 0.348384,-0.450851 0.150283,-0.122954 0.332445,-0.216312 0.546486,-0.280074 0.214039,-0.06831 0.455403,-0.102461 0.724093,-0.102466 0.318781,5e-6 0.5943,0.03416 0.826559,0.102466 0.232254,0.06832 0.423523,0.143457 0.57381,0.225426 l -0.307398,0.840221 c -0.13207,-0.06831 -0.280077,-0.127509 -0.444019,-0.177608 -0.159394,-0.05464 -0.352941,-0.08197 -0.580641,-0.08197 -0.255029,4e-6 -0.439467,0.03644 -0.553317,0.109298 -0.109298,0.06831 -0.163947,0.175334 -0.163945,0.32106 -2e-6,0.08653 0.02049,0.159395 0.06148,0.218594 0.04099,0.05921 0.09791,0.113854 0.170777,0.163946 0.07742,0.04554 0.163944,0.08881 0.259581,0.12979 0.100187,0.03643 0.209484,0.07515 0.327891,0.116128 0.245916,0.09108 0.459956,0.182165 0.64212,0.273243 0.182159,0.08653 0.332442,0.188995 0.450851,0.307398 0.122956,0.118407 0.214036,0.257306 0.273243,0.416695 0.0592,0.159393 0.0888,0.35294 0.0888,0.580641 -3e-6,0.441743 -0.154841,0.785573 -0.464512,1.031491 -0.309678,0.241365 -0.776467,0.362047 -1.400369,0.362047 -0.209488,0 -0.398481,-0.01366 -0.566979,-0.04099 -0.168501,-0.02277 -0.318784,-0.05237 -0.45085,-0.0888 -0.127514,-0.03643 -0.239088,-0.07514 -0.334723,-0.116129 -0.09108,-0.04099 -0.1685,-0.0797 -0.232256,-0.116128 l 0.300567,-0.847052 c 0.141175,0.07742 0.314228,0.148007 0.519161,0.211763 0.209485,0.0592 0.464511,0.08881 0.76508,0.0888"
               style="font-size:6.83106852px;font-variant:normal;font-weight:bold;font-stretch:normal;fill:#2d2d2d;font-family:Ubuntu;-inkscape-font-specification:Ubuntu Bold"
               id="path2996"
               inkscape:connector-curvature="0" />
          </g>
        </g>
      </g>
    </g>
  </g>
</svg>
