<?xml version="1.0" encoding="UTF-8" standalone="no"?>
<!-- Created with Inkscape (http://www.inkscape.org/) -->

<svg
   xmlns:dc="http://purl.org/dc/elements/1.1/"
   xmlns:cc="http://creativecommons.org/ns#"
   xmlns:rdf="http://www.w3.org/1999/02/22-rdf-syntax-ns#"
   xmlns:svg="http://www.w3.org/2000/svg"
   xmlns="http://www.w3.org/2000/svg"
   xmlns:sodipodi="http://sodipodi.sourceforge.net/DTD/sodipodi-0.dtd"
   xmlns:inkscape="http://www.inkscape.org/namespaces/inkscape"
   width="16"
   height="16"
   id="svg3765"
   version="1.1"
   inkscape:version="0.48.3.1 r9886"
   sodipodi:docname="sparql4.svg"
   inkscape:export-filename="/home/k00ni/Documents/semicon/owl.png"
   inkscape:export-xdpi="90"
   inkscape:export-ydpi="90">
  <defs
     id="defs3767" />
  <sodipodi:namedview
     id="base"
     pagecolor="#ffffff"
     bordercolor="#666666"
     borderopacity="1.0"
     inkscape:pageopacity="0.0"
     inkscape:pageshadow="2"
     inkscape:zoom="28"
     inkscape:cx="13.358383"
     inkscape:cy="7.671877"
     inkscape:current-layer="layer1-9-3"
     showgrid="true"
     inkscape:grid-bbox="true"
     inkscape:document-units="px"
     inkscape:window-width="1920"
     inkscape:window-height="1029"
     inkscape:window-x="0"
     inkscape:window-y="28"
     inkscape:window-maximized="1"
     showguides="true"
     inkscape:guide-bbox="true" />
  <metadata
     id="metadata3770">
    <rdf:RDF>
      <cc:Work
         rdf:about="">
        <dc:format>image/svg+xml</dc:format>
        <dc:type
           rdf:resource="http://purl.org/dc/dcmitype/StillImage" />
        <dc:title />
      </cc:Work>
    </rdf:RDF>
  </metadata>
  <g
     id="layer1"
     inkscape:label="Layer 1"
     inkscape:groupmode="layer"
     transform="translate(0,-32)">
    <g
       inkscape:label="Layer 1"
       id="layer1-4"
       transform="translate(0.20202972,-1.9622142e-8)">
      <g
         transform="translate(-0.37059768,-0.09089584)"
         id="layer1-9"
         inkscape:label="Layer 1">
        <g
           inkscape:label="Layer 1"
           id="layer1-9-3"
           transform="translate(-44.951788,-4.1416259)">
          <text
             xml:space="preserve"
             style="font-size:10.12422371px;font-style:normal;font-weight:normal;line-height:125%;letter-spacing:0px;word-spacing:0px;fill:#2d2d2d;fill-opacity:1;stroke:none;font-family:Sans"
             x="50.634922"
             y="43.478539"
             id="text3001"
             sodipodi:linespacing="125%"
             transform="scale(0.89311225,1.1196801)"><tspan
               sodipodi:role="line"
               id="tspan3003"
               x="50.634922"
               y="43.478539"
               style="font-size:13.49896526px;font-style:normal;font-variant:normal;font-weight:bold;font-stretch:normal;fill:#2d2d2d;fill-opacity:1;font-family:Ubuntu;-inkscape-font-specification:Ubuntu Bold">{</tspan></text>
          <g
             style="font-size:40px;font-style:normal;font-weight:normal;line-height:125%;letter-spacing:0px;word-spacing:0px;fill:#000000;fill-opacity:1;stroke:none;font-family:Sans"
             id="text3029"
             transform="translate(1.3928571,-0.28571429)">
            <path
               d="m 51.076558,40.814215 c -0.288002,7e-6 -0.560001,0.03601 -0.816,0.108 -0.256001,0.07201 -0.540001,0.188006 -0.852,0.348 l -0.504,-1.356 c 0.312,-0.199992 0.679999,-0.351992 1.104,-0.456 0.423999,-0.111992 0.839998,-0.167992 1.248,-0.168 0.511997,8e-6 0.931997,0.06801 1.26,0.204 0.335996,0.136008 0.599996,0.308008 0.792,0.516 0.191996,0.208007 0.323995,0.436007 0.396,0.684 0.08,0.248007 0.119995,0.484006 0.12,0.708 -5e-6,0.224006 -0.03601,0.432006 -0.108,0.624 -0.06401,0.184005 -0.148004,0.356005 -0.252,0.516 -0.104004,0.160005 -0.224004,0.312005 -0.36,0.456 -0.136004,0.144004 -0.268004,0.280004 -0.396,0.408 -0.096,0.096 -0.196003,0.200004 -0.3,0.312 -0.104003,0.104004 -0.200003,0.216004 -0.288,0.336 -0.08,0.120003 -0.148003,0.248003 -0.204,0.384 -0.056,0.128003 -0.084,0.260003 -0.084,0.396 -3e-6,0.032 -3e-6,0.08 0,0.144 -3e-6,0.064 0.004,0.120002 0.012,0.168 l -1.584,0 c -0.016,-0.08 -0.028,-0.167997 -0.036,-0.264 -1e-6,-0.103997 -1e-6,-0.191997 0,-0.264 -1e-6,-0.223997 0.028,-0.423997 0.084,-0.6 0.056,-0.183996 0.127999,-0.351996 0.216,-0.504 0.096,-0.159996 0.203998,-0.307996 0.324,-0.444 0.119998,-0.135995 0.243998,-0.267995 0.372,-0.396 0.183998,-0.183995 0.351998,-0.363995 0.504,-0.54 0.151997,-0.183994 0.227997,-0.391994 0.228,-0.624 -3e-6,-0.191994 -0.076,-0.355994 -0.228,-0.492 -0.144003,-0.135993 -0.360002,-0.203993 -0.648,-0.204 m 1.116,6.036 c -3e-6,0.352 -0.116003,0.624 -0.348,0.816 -0.224003,0.192 -0.480002,0.288 -0.768,0.288 -0.288002,0 -0.548001,-0.096 -0.78,-0.288 -0.224001,-0.192 -0.336001,-0.464 -0.336,-0.816 -10e-7,-0.351999 0.111999,-0.623999 0.336,-0.816 0.231999,-0.191998 0.491998,-0.287998 0.78,-0.288 0.287998,2e-6 0.543997,0.096 0.768,0.288 0.231997,0.192001 0.347997,0.464001 0.348,0.816"
               style="font-size:12px;font-variant:normal;font-weight:bold;font-stretch:normal;font-family:Ubuntu;-inkscape-font-specification:Ubuntu Bold"
               id="path2990"
               inkscape:connector-curvature="0" />
            <path
               d="m 55.777496,49.29993 c 0.327997,10e-7 0.559997,-0.032 0.696,-0.096 0.135996,-0.064 0.203996,-0.187999 0.204,-0.372 -4e-6,-0.143998 -0.088,-0.267998 -0.264,-0.372 -0.176003,-0.111998 -0.444003,-0.235998 -0.804,-0.372 -0.280002,-0.103998 -0.536002,-0.211998 -0.768,-0.324 -0.224002,-0.111997 -0.416001,-0.243997 -0.576,-0.396 -0.160001,-0.159997 -0.284001,-0.347997 -0.372,-0.564 -0.088,-0.215996 -0.132001,-0.475996 -0.132,-0.78 -1e-6,-0.591995 0.219999,-1.059995 0.66,-1.404 0.439998,-0.343994 1.043998,-0.515994 1.812,-0.516 0.383996,6e-6 0.751996,0.03601 1.104,0.108 0.351995,0.06401 0.631995,0.136006 0.84,0.216 l -0.312,1.392 c -0.208005,-0.07199 -0.436004,-0.135995 -0.684,-0.192 -0.240004,-0.05599 -0.512004,-0.08399 -0.816,-0.084 -0.560003,5e-6 -0.840002,0.156005 -0.84,0.468 -2e-6,0.072 0.012,0.136004 0.036,0.192 0.024,0.056 0.072,0.112004 0.144,0.168 0.072,0.048 0.167997,0.104004 0.288,0.168 0.127997,0.056 0.287997,0.120004 0.48,0.192 0.391996,0.144003 0.715996,0.288003 0.972,0.432 0.255995,0.136003 0.455995,0.288003 0.6,0.456 0.151995,0.160003 0.255995,0.340002 0.312,0.54 0.064,0.200002 0.096,0.432002 0.096,0.696 -5e-6,0.624001 -0.236005,1.096 -0.708,1.416 -0.464004,0.32 -1.124004,0.48 -1.98,0.48 -0.560002,0 -1.028002,-0.048 -1.404,-0.144 -0.368001,-0.096 -0.624001,-0.176 -0.768,-0.24 l 0.3,-1.452 c 0.303999,0.120001 0.615999,0.216001 0.936,0.288 0.319998,0.064 0.635998,0.096 0.948,0.096"
               style="font-size:12px;font-variant:normal;font-weight:bold;font-stretch:normal;font-family:Ubuntu;-inkscape-font-specification:Ubuntu Bold"
               id="path2992"
               inkscape:connector-curvature="0" />
          </g>
        </g>
      </g>
    </g>
  </g>
</svg>
