<?xml version="1.0" encoding="UTF-8" standalone="no"?>
<!-- Created with Inkscape (http://www.inkscape.org/) -->

<svg
   xmlns:dc="http://purl.org/dc/elements/1.1/"
   xmlns:cc="http://creativecommons.org/ns#"
   xmlns:rdf="http://www.w3.org/1999/02/22-rdf-syntax-ns#"
   xmlns:svg="http://www.w3.org/2000/svg"
   xmlns="http://www.w3.org/2000/svg"
   xmlns:sodipodi="http://sodipodi.sourceforge.net/DTD/sodipodi-0.dtd"
   xmlns:inkscape="http://www.inkscape.org/namespaces/inkscape"
   width="32"
   height="32"
   id="svg2985"
   version="1.1"
   inkscape:version="0.48.3.1 r9886"
   sodipodi:docname="star.svg">
  <defs
     id="defs2987" />
  <sodipodi:namedview
     id="base"
     pagecolor="#ffffff"
     bordercolor="#666666"
     borderopacity="1.0"
     inkscape:pageopacity="0.0"
     inkscape:pageshadow="2"
     inkscape:zoom="22.197802"
     inkscape:cx="12.412586"
     inkscape:cy="15.780285"
     inkscape:current-layer="layer1"
     showgrid="true"
     inkscape:grid-bbox="true"
     inkscape:document-units="px"
     inkscape:window-width="1920"
     inkscape:window-height="1056"
     inkscape:window-x="0"
     inkscape:window-y="24"
     inkscape:window-maximized="1" />
  <metadata
     id="metadata2990">
    <rdf:RDF>
      <cc:Work
         rdf:about="">
        <dc:format>image/svg+xml</dc:format>
        <dc:type
           rdf:resource="http://purl.org/dc/dcmitype/StillImage" />
        <dc:title />
      </cc:Work>
    </rdf:RDF>
  </metadata>
  <g
     id="layer1"
     inkscape:label="Layer 1"
     inkscape:groupmode="layer"
     transform="translate(0,16)">
    <path
       sodipodi:type="arc"
       style="fill:#2d2d2d;fill-opacity:1;stroke:none"
       id="path3012-9-6-0-2-2"
       sodipodi:cx="4.1729803"
       sodipodi:cy="6.1568637"
       sodipodi:rx="1.3697568"
       sodipodi:ry="1.3697568"
       d="m 5.5427371,6.1568637 a 1.3697568,1.3697568 0 1 1 -2.7395136,0 1.3697568,1.3697568 0 1 1 2.7395136,0 z"
       transform="matrix(3.2395631,0,0,3.1596343,2.179694,-31.083613)" />
    <rect
       style="fill:#2d2d2d;fill-opacity:1;stroke:none"
       id="rect3201"
       width="1.0235987"
       height="17.37602"
       x="14.886499"
       y="-12.329207"
       rx="2.758558"
       ry="1.6993959"
       transform="matrix(0.99998538,0.00540819,0.00541837,0.99998532,0,0)" />
    <rect
       style="fill:#2d2d2d;fill-opacity:1;stroke:none"
       id="rect3201-8"
       width="0.89836663"
       height="18.11932"
       x="5.058373"
       y="-0.64783973"
       rx="2.4210629"
       ry="1.7720915"
       transform="matrix(0.59353203,-0.80481037,0.82344839,0.56739118,0,0)" />
    <path
       sodipodi:type="arc"
       style="fill:#2d2d2d;fill-opacity:1;stroke:none"
       id="path3012-9-6-0-2-2-9"
       sodipodi:cx="4.1729803"
       sodipodi:cy="6.1568637"
       sodipodi:rx="1.3697568"
       sodipodi:ry="1.3697568"
       d="m 5.5427371,6.1568637 a 1.3697568,1.3697568 0 1 1 -2.7395136,0 1.3697568,1.3697568 0 1 1 2.7395136,0 z"
       transform="matrix(3.2395631,0,0,3.1596343,2.3754622,-16.246228)" />
    <path
       sodipodi:type="arc"
       style="fill:#2d2d2d;fill-opacity:1;stroke:none"
       id="path3012-9-6-0-2-2-9-5"
       sodipodi:cx="4.1729803"
       sodipodi:cy="6.1568637"
       sodipodi:rx="1.3697568"
       sodipodi:ry="1.3697568"
       d="m 5.5427371,6.1568637 a 1.3697568,1.3697568 0 1 1 -2.7395136,0 1.3697568,1.3697568 0 1 1 2.7395136,0 z"
       transform="matrix(3.2395631,0,0,3.1596343,-9.0460136,-7.7627081)" />
    <path
       sodipodi:type="arc"
       style="fill:#2d2d2d;fill-opacity:1;stroke:none"
       id="path3012-9-6-0-2-2-9-5-1"
       sodipodi:cx="4.1729803"
       sodipodi:cy="6.1568637"
       sodipodi:rx="1.3697568"
       sodipodi:ry="1.3697568"
       d="m 5.5427371,6.1568637 a 1.3697568,1.3697568 0 1 1 -2.7395136,0 1.3697568,1.3697568 0 1 1 2.7395136,0 z"
       transform="matrix(3.2395631,0,0,3.1596343,-9.0908025,-23.496109)" />
    <path
       sodipodi:type="arc"
       style="fill:#2d2d2d;fill-opacity:1;stroke:none"
       id="path3012-9-6-0-2-2-9-5-1-2"
       sodipodi:cx="4.1729803"
       sodipodi:cy="6.1568637"
       sodipodi:rx="1.3697568"
       sodipodi:ry="1.3697568"
       d="m 5.5427371,6.1568637 a 1.3697568,1.3697568 0 1 1 -2.7395136,0 1.3697568,1.3697568 0 1 1 2.7395136,0 z"
       transform="matrix(3.2395631,0,0,3.1596343,14.121558,-23.374585)" />
    <path
       sodipodi:type="arc"
       style="fill:#2d2d2d;fill-opacity:1;stroke:none"
       id="path3012-9-6-0-2-2-9-5-1-2-9"
       sodipodi:cx="4.1729803"
       sodipodi:cy="6.1568637"
       sodipodi:rx="1.3697568"
       sodipodi:ry="1.3697568"
       d="m 5.5427371,6.1568637 a 1.3697568,1.3697568 0 1 1 -2.7395136,0 1.3697568,1.3697568 0 1 1 2.7395136,0 z"
       transform="matrix(3.2395631,0,0,3.1596343,13.991044,-7.7627083)" />
    <rect
       style="fill:#2d2d2d;fill-opacity:1;stroke:none"
       id="rect3201-8-6"
       width="0.89990413"
       height="18.089241"
       x="5.4029598"
       y="12.645828"
       rx="2.4252064"
       ry="1.7691498"
       transform="matrix(0.59115485,-0.80655809,0.82595292,0.5637391,0,0)"
       inkscape:transform-center-x="5.8237013"
       inkscape:transform-center-y="-2.589654" />
    <rect
       style="fill:#2d2d2d;fill-opacity:1;stroke:none"
       id="rect3201-8-3"
       width="0.89836663"
       height="18.11932"
       x="-11.842921"
       y="-27.264517"
       rx="2.4210629"
       ry="1.7720915"
       transform="matrix(-0.57745321,-0.81642378,-0.83453967,0.55094785,0,0)" />
    <rect
       style="fill:#2d2d2d;fill-opacity:1;stroke:none"
       id="rect3201-8-6-0"
       width="0.89990413"
       height="18.089241"
       x="-11.701632"
       y="-13.161432"
       rx="2.4252064"
       ry="1.7691498"
       transform="matrix(-0.59115485,-0.80655809,-0.82595292,0.5637391,0,0)"
       inkscape:transform-center-x="-5.8237024"
       inkscape:transform-center-y="-2.589653" />
    <rect
       style="fill:#2d2d2d;fill-opacity:1;stroke:none"
       id="rect3201-8-8"
       width="0.89836663"
       height="18.11932"
       x="5.9057779"
       y="-2.0967793"
       rx="2.4210629"
       ry="1.7720915"
       transform="matrix(0.59353203,-0.80481037,0.82344839,0.56739118,0,0)" />
    <rect
       style="fill:#2d2d2d;fill-opacity:1;stroke:none"
       id="rect3201-8-3-4"
       width="0.89836663"
       height="18.11932"
       x="-12.558776"
       y="-27.563189"
       rx="2.4210629"
       ry="1.7720915"
       transform="matrix(-0.57745321,-0.81642378,-0.83453967,0.55094785,0,0)" />
    <rect
       style="fill:#2d2d2d;fill-opacity:1;stroke:none"
       id="rect3201-7"
       width="1.0235987"
       height="17.37602"
       x="15.810957"
       y="-11.381773"
       rx="2.758558"
       ry="1.6993959"
       transform="matrix(0.99998538,0.00540819,0.00541837,0.99998532,0,0)" />
    <rect
       style="fill:#2d2d2d;fill-opacity:1;stroke:none"
       id="rect3201-8-6-6"
       width="0.89990413"
       height="18.089241"
       x="6.2776189"
       y="14.338745"
       rx="2.4252064"
       ry="1.7691498"
       transform="matrix(0.59115485,-0.80655809,0.82595292,0.5637391,0,0)"
       inkscape:transform-center-x="5.8237013"
       inkscape:transform-center-y="-2.589654" />
    <rect
       style="fill:#2d2d2d;fill-opacity:1;stroke:none"
       id="rect3201-8-6-0-3"
       width="0.89990413"
       height="18.089241"
       x="-12.510787"
       y="-12.302643"
       rx="2.4252064"
       ry="1.7691498"
       transform="matrix(-0.59115485,-0.80655809,-0.82595292,0.5637391,0,0)"
       inkscape:transform-center-x="-5.8237024"
       inkscape:transform-center-y="-2.589653" />
  </g>
</svg>
