<?xml version="1.0" encoding="UTF-8" standalone="no"?>
<!-- Created with Inkscape (http://www.inkscape.org/) -->

<svg
   xmlns:dc="http://purl.org/dc/elements/1.1/"
   xmlns:cc="http://creativecommons.org/ns#"
   xmlns:rdf="http://www.w3.org/1999/02/22-rdf-syntax-ns#"
   xmlns:svg="http://www.w3.org/2000/svg"
   xmlns="http://www.w3.org/2000/svg"
   xmlns:sodipodi="http://sodipodi.sourceforge.net/DTD/sodipodi-0.dtd"
   xmlns:inkscape="http://www.inkscape.org/namespaces/inkscape"
   width="48px"
   height="48px"
   id="svg3765"
   version="1.1"
   inkscape:version="0.48.3.1 r9886"
   sodipodi:docname="subgraph.svg"
   inkscape:export-filename="/home/k00ni/Documents/semicon/owl.png"
   inkscape:export-xdpi="90"
   inkscape:export-ydpi="90">
  <defs
     id="defs3767" />
  <sodipodi:namedview
     id="base"
     pagecolor="#ffffff"
     bordercolor="#666666"
     borderopacity="1.0"
     inkscape:pageopacity="0.0"
     inkscape:pageshadow="2"
     inkscape:zoom="9.8994949"
     inkscape:cx="26.860648"
     inkscape:cy="24.552077"
     inkscape:current-layer="layer1-9-3"
     showgrid="true"
     inkscape:grid-bbox="true"
     inkscape:document-units="px"
     inkscape:window-width="1366"
     inkscape:window-height="744"
     inkscape:window-x="0"
     inkscape:window-y="24"
     inkscape:window-maximized="1" />
  <metadata
     id="metadata3770">
    <rdf:RDF>
      <cc:Work
         rdf:about="">
        <dc:format>image/svg+xml</dc:format>
        <dc:type
           rdf:resource="http://purl.org/dc/dcmitype/StillImage" />
        <dc:title />
      </cc:Work>
    </rdf:RDF>
  </metadata>
  <g
     id="layer1"
     inkscape:label="Layer 1"
     inkscape:groupmode="layer">
    <g
       inkscape:label="Layer 1"
       id="layer1-4"
       transform="translate(0.20202972,-1.9622142e-8)">
      <g
         transform="translate(-0.37059768,-0.09089584)"
         id="layer1-9"
         inkscape:label="Layer 1">
        <g
           inkscape:label="Layer 1"
           id="layer1-9-3"
           transform="translate(-44.951788,-4.1416259)">
          <path
             transform="matrix(0.99063909,0,0,0.99063908,40.251428,3.8899776)"
             d="M 53,24.428572 C 53,37.52561 42.382753,48.142857 29.285715,48.142857 16.188677,48.142857 5.5714302,37.52561 5.5714302,24.428572 5.5714302,11.331534 16.188677,0.7142868 29.285715,0.7142868 42.382753,0.7142868 53,11.331534 53,24.428572 z"
             sodipodi:ry="23.714285"
             sodipodi:rx="23.714285"
             sodipodi:cy="24.428572"
             sodipodi:cx="29.285715"
             id="path3773-80"
             style="fill:#2d2d2d;fill-opacity:1;stroke:none"
             sodipodi:type="arc" />
          <path
             transform="matrix(-0.07267813,0,0,0.07267813,130.46017,1.2626693)"
             d="M 53,24.428572 C 53,37.52561 42.382753,48.142857 29.285715,48.142857 16.188677,48.142857 5.5714302,37.52561 5.5714302,24.428572 5.5714302,11.331534 16.188677,0.7142868 29.285715,0.7142868 42.382753,0.7142868 53,11.331534 53,24.428572 z"
             sodipodi:ry="23.714285"
             sodipodi:rx="23.714285"
             sodipodi:cy="24.428572"
             sodipodi:cx="29.285715"
             id="path3773-80-3-7-1-9-9-3-3-9-3-7"
             style="fill:#ffffff;fill-opacity:1;stroke:none"
             sodipodi:type="arc" />
          <path
             transform="matrix(0.08545717,0,0,0.08545717,65.699666,28.174107)"
             d="m 53,24.428572 a 23.714285,23.714285 0 1 1 -47.4285698,0 23.714285,23.714285 0 1 1 47.4285698,0 z"
             sodipodi:ry="23.714285"
             sodipodi:rx="23.714285"
             sodipodi:cy="24.428572"
             sodipodi:cx="29.285715"
             id="path3773-80-3-7-1-9-9-3-3-8-76-1-7-4-2-8-4-0-7-2-9-4-7-8-6-6-2-9-0-7-2-1-0-7-1-6-40-4-4"
             style="fill:#ffffff;fill-opacity:1;stroke:none"
             sodipodi:type="arc" />
          <rect
             style="fill:none;stroke:#ffffff;stroke-opacity:1;stroke-width:1.7;stroke-miterlimit:4;stroke-dasharray:none"
             id="rect3014"
             width="21.314219"
             height="19.495945"
             x="54.716805"
             y="22.635052"
             rx="0.57280719"
             ry="0.53325248" />
          <path
             transform="matrix(0.08545717,0,0,0.08545717,61.60855,25.901264)"
             d="m 53,24.428572 a 23.714285,23.714285 0 1 1 -47.4285698,0 23.714285,23.714285 0 1 1 47.4285698,0 z"
             sodipodi:ry="23.714285"
             sodipodi:rx="23.714285"
             sodipodi:cy="24.428572"
             sodipodi:cx="29.285715"
             id="path3773-80-3-7-1-9-9-3-3-8-76-1-7-4-2-8-4-0-7-2-9-4-7-8-6-6-2-9-0-7-2-1-0-7-1-6-40-4-4-1"
             style="fill:#ffffff;fill-opacity:1;stroke:none"
             sodipodi:type="arc" />
          <path
             transform="matrix(0.08545717,0,0,0.08545717,61.709565,30.24492)"
             d="m 53,24.428572 a 23.714285,23.714285 0 1 1 -47.4285698,0 23.714285,23.714285 0 1 1 47.4285698,0 z"
             sodipodi:ry="23.714285"
             sodipodi:rx="23.714285"
             sodipodi:cy="24.428572"
             sodipodi:cx="29.285715"
             id="path3773-80-3-7-1-9-9-3-3-8-76-1-7-4-2-8-4-0-7-2-9-4-7-8-6-6-2-9-0-7-2-1-0-7-1-6-40-4-4-1-2"
             style="fill:#ffffff;fill-opacity:1;stroke:none"
             sodipodi:type="arc" />
          <path
             transform="matrix(0.08545717,0,0,0.08545717,56.759817,25.800249)"
             d="m 53,24.428572 a 23.714285,23.714285 0 1 1 -47.4285698,0 23.714285,23.714285 0 1 1 47.4285698,0 z"
             sodipodi:ry="23.714285"
             sodipodi:rx="23.714285"
             sodipodi:cy="24.428572"
             sodipodi:cx="29.285715"
             id="path3773-80-3-7-1-9-9-3-3-8-76-1-7-4-2-8-4-0-7-2-9-4-7-8-6-6-2-9-0-7-2-1-0-7-1-6-40-4-4-1-2-5"
             style="fill:#ffffff;fill-opacity:1;stroke:none"
             sodipodi:type="arc" />
          <path
             transform="matrix(0.08545717,0,0,0.08545717,65.64916,32.467256)"
             d="m 53,24.428572 a 23.714285,23.714285 0 1 1 -47.4285698,0 23.714285,23.714285 0 1 1 47.4285698,0 z"
             sodipodi:ry="23.714285"
             sodipodi:rx="23.714285"
             sodipodi:cy="24.428572"
             sodipodi:cx="29.285715"
             id="path3773-80-3-7-1-9-9-3-3-8-76-1-7-4-2-8-4-0-7-2-9-4-7-8-6-6-2-9-0-7-2-1-0-7-1-6-40-4-4-1-2-5-8"
             style="fill:#ffffff;fill-opacity:1;stroke:none"
             sodipodi:type="arc" />
          <path
             transform="matrix(0.08545717,0,0,0.08545717,69.790786,30.851011)"
             d="m 53,24.428572 a 23.714285,23.714285 0 1 1 -47.4285698,0 23.714285,23.714285 0 1 1 47.4285698,0 z"
             sodipodi:ry="23.714285"
             sodipodi:rx="23.714285"
             sodipodi:cy="24.428572"
             sodipodi:cx="29.285715"
             id="path3773-80-3-7-1-9-9-3-3-8-76-1-7-4-2-8-4-0-7-2-9-4-7-8-6-6-2-9-0-7-2-1-0-7-1-6-40-4-4-1-2-5-8-0"
             style="fill:#ffffff;fill-opacity:1;stroke:none"
             sodipodi:type="arc" />
          <path
             transform="matrix(0.08545717,0,0,0.08545717,76.760838,34.184515)"
             d="m 53,24.428572 a 23.714285,23.714285 0 1 1 -47.4285698,0 23.714285,23.714285 0 1 1 47.4285698,0 z"
             sodipodi:ry="23.714285"
             sodipodi:rx="23.714285"
             sodipodi:cy="24.428572"
             sodipodi:cx="29.285715"
             id="path3773-80-3-7-1-9-9-3-3-8-76-1-7-4-2-8-4-0-7-2-9-4-7-8-6-6-2-9-0-7-2-1-0-7-1-6-40-4-4-1-2-5-8-0-6"
             style="fill:#939393;fill-opacity:1;stroke:none"
             sodipodi:type="arc" />
          <path
             transform="matrix(0.08545717,0,0,0.08545717,76.760838,29.638828)"
             d="m 53,24.428572 a 23.714285,23.714285 0 1 1 -47.4285698,0 23.714285,23.714285 0 1 1 47.4285698,0 z"
             sodipodi:ry="23.714285"
             sodipodi:rx="23.714285"
             sodipodi:cy="24.428572"
             sodipodi:cx="29.285715"
             id="path3773-80-3-7-1-9-9-3-3-8-76-1-7-4-2-8-4-0-7-2-9-4-7-8-6-6-2-9-0-7-2-1-0-7-1-6-40-4-4-1-2-5-8-0-6-9"
             style="fill:#939393;fill-opacity:1;stroke:none"
             sodipodi:type="arc" />
          <path
             transform="matrix(0.08545717,0,0,0.08545717,81.003479,32.063194)"
             d="m 53,24.428572 a 23.714285,23.714285 0 1 1 -47.4285698,0 23.714285,23.714285 0 1 1 47.4285698,0 z"
             sodipodi:ry="23.714285"
             sodipodi:rx="23.714285"
             sodipodi:cy="24.428572"
             sodipodi:cx="29.285715"
             id="path3773-80-3-7-1-9-9-3-3-8-76-1-7-4-2-8-4-0-7-2-9-4-7-8-6-6-2-9-0-7-2-1-0-7-1-6-40-4-4-1-2-5-8-0-6-9-1"
             style="fill:#939393;fill-opacity:1;stroke:none"
             sodipodi:type="arc" />
          <path
             transform="matrix(0.08545717,0,0,0.08545717,80.700433,27.416493)"
             d="m 53,24.428572 a 23.714285,23.714285 0 1 1 -47.4285698,0 23.714285,23.714285 0 1 1 47.4285698,0 z"
             sodipodi:ry="23.714285"
             sodipodi:rx="23.714285"
             sodipodi:cy="24.428572"
             sodipodi:cx="29.285715"
             id="path3773-80-3-7-1-9-9-3-3-8-76-1-7-4-2-8-4-0-7-2-9-4-7-8-6-6-2-9-0-7-2-1-0-7-1-6-40-4-4-1-2-5-8-0-6-9-1-5"
             style="fill:#939393;fill-opacity:1;stroke:none"
             sodipodi:type="arc" />
          <path
             transform="matrix(0.08545717,0,0,0.08545717,82.922769,23.375882)"
             d="m 53,24.428572 a 23.714285,23.714285 0 1 1 -47.4285698,0 23.714285,23.714285 0 1 1 47.4285698,0 z"
             sodipodi:ry="23.714285"
             sodipodi:rx="23.714285"
             sodipodi:cy="24.428572"
             sodipodi:cx="29.285715"
             id="path3773-80-3-7-1-9-9-3-3-8-76-1-7-4-2-8-4-0-7-2-9-4-7-8-6-6-2-9-0-7-2-1-0-7-1-6-40-4-4-1-2-5-8-0-6-9-1-5-4"
             style="fill:#939393;fill-opacity:1;stroke:none"
             sodipodi:type="arc" />
          <path
             transform="matrix(0.08545717,0,0,0.08545717,82.922768,18.830196)"
             d="m 53,24.428572 a 23.714285,23.714285 0 1 1 -47.4285698,0 23.714285,23.714285 0 1 1 47.4285698,0 z"
             sodipodi:ry="23.714285"
             sodipodi:rx="23.714285"
             sodipodi:cy="24.428572"
             sodipodi:cx="29.285715"
             id="path3773-80-3-7-1-9-9-3-3-8-76-1-7-4-2-8-4-0-7-2-9-4-7-8-6-6-2-9-0-7-2-1-0-7-1-6-40-4-4-1-2-5-8-0-6-9-1-5-4-8"
             style="fill:#939393;fill-opacity:1;stroke:none"
             sodipodi:type="arc" />
          <path
             transform="matrix(0.08545717,0,0,0.08545717,80.498403,15.092632)"
             d="m 53,24.428572 a 23.714285,23.714285 0 1 1 -47.4285698,0 23.714285,23.714285 0 1 1 47.4285698,0 z"
             sodipodi:ry="23.714285"
             sodipodi:rx="23.714285"
             sodipodi:cy="24.428572"
             sodipodi:cx="29.285715"
             id="path3773-80-3-7-1-9-9-3-3-8-76-1-7-4-2-8-4-0-7-2-9-4-7-8-6-6-2-9-0-7-2-1-0-7-1-6-40-4-4-1-2-5-8-0-6-9-1-5-4-8-3"
             style="fill:#939393;fill-opacity:1;stroke:none"
             sodipodi:type="arc" />
          <path
             transform="matrix(0.08545717,0,0,0.08545717,75.750686,15.092631)"
             d="m 53,24.428572 a 23.714285,23.714285 0 1 1 -47.4285698,0 23.714285,23.714285 0 1 1 47.4285698,0 z"
             sodipodi:ry="23.714285"
             sodipodi:rx="23.714285"
             sodipodi:cy="24.428572"
             sodipodi:cx="29.285715"
             id="path3773-80-3-7-1-9-9-3-3-8-76-1-7-4-2-8-4-0-7-2-9-4-7-8-6-6-2-9-0-7-2-1-0-7-1-6-40-4-4-1-2-5-8-0-6-9-1-5-4-8-3-6"
             style="fill:#939393;fill-opacity:1;stroke:none"
             sodipodi:type="arc" />
          <path
             transform="matrix(0.08545717,0,0,0.08545717,77.77099,11.254052)"
             d="m 53,24.428572 a 23.714285,23.714285 0 1 1 -47.4285698,0 23.714285,23.714285 0 1 1 47.4285698,0 z"
             sodipodi:ry="23.714285"
             sodipodi:rx="23.714285"
             sodipodi:cy="24.428572"
             sodipodi:cx="29.285715"
             id="path3773-80-3-7-1-9-9-3-3-8-76-1-7-4-2-8-4-0-7-2-9-4-7-8-6-6-2-9-0-7-2-1-0-7-1-6-40-4-4-1-2-5-8-0-6-9-1-5-4-8-3-6-7"
             style="fill:#939393;fill-opacity:1;stroke:none"
             sodipodi:type="arc" />
          <path
             transform="matrix(0.08545717,0,0,0.08545717,73.831395,8.8296862)"
             d="m 53,24.428572 a 23.714285,23.714285 0 1 1 -47.4285698,0 23.714285,23.714285 0 1 1 47.4285698,0 z"
             sodipodi:ry="23.714285"
             sodipodi:rx="23.714285"
             sodipodi:cy="24.428572"
             sodipodi:cx="29.285715"
             id="path3773-80-3-7-1-9-9-3-3-8-76-1-7-4-2-8-4-0-7-2-9-4-7-8-6-6-2-9-0-7-2-1-0-7-1-6-40-4-4-1-2-5-8-0-6-9-1-5-4-8-3-6-7-3"
             style="fill:#939393;fill-opacity:1;stroke:none"
             sodipodi:type="arc" />
          <path
             transform="matrix(0.08545717,0,0,0.08545717,71.204999,14.48654)"
             d="m 53,24.428572 a 23.714285,23.714285 0 1 1 -47.4285698,0 23.714285,23.714285 0 1 1 47.4285698,0 z"
             sodipodi:ry="23.714285"
             sodipodi:rx="23.714285"
             sodipodi:cy="24.428572"
             sodipodi:cx="29.285715"
             id="path3773-80-3-7-1-9-9-3-3-8-76-1-7-4-2-8-4-0-7-2-9-4-7-8-6-6-2-9-0-7-2-1-0-7-1-6-40-4-4-1-2-5-8-0-6-9-1-5-4-8-3-6-7-3-7"
             style="fill:#939393;fill-opacity:1;stroke:none"
             sodipodi:type="arc" />
          <path
             transform="matrix(0.08545717,0,0,0.08545717,66.861343,16.40583)"
             d="m 53,24.428572 a 23.714285,23.714285 0 1 1 -47.4285698,0 23.714285,23.714285 0 1 1 47.4285698,0 z"
             sodipodi:ry="23.714285"
             sodipodi:rx="23.714285"
             sodipodi:cy="24.428572"
             sodipodi:cx="29.285715"
             id="path3773-80-3-7-1-9-9-3-3-8-76-1-7-4-2-8-4-0-7-2-9-4-7-8-6-6-2-9-0-7-2-1-0-7-1-6-40-4-4-1-2-5-8-0-6-9-1-5-4-8-3-6-7-3-7-7"
             style="fill:#939393;fill-opacity:1;stroke:none"
             sodipodi:type="arc" />
          <path
             transform="matrix(0.08545717,0,0,0.08545717,67.164389,12.16319)"
             d="m 53,24.428572 a 23.714285,23.714285 0 1 1 -47.4285698,0 23.714285,23.714285 0 1 1 47.4285698,0 z"
             sodipodi:ry="23.714285"
             sodipodi:rx="23.714285"
             sodipodi:cy="24.428572"
             sodipodi:cx="29.285715"
             id="path3773-80-3-7-1-9-9-3-3-8-76-1-7-4-2-8-4-0-7-2-9-4-7-8-6-6-2-9-0-7-2-1-0-7-1-6-40-4-4-1-2-5-8-0-6-9-1-5-4-8-3-6-7-3-7-7-2"
             style="fill:#939393;fill-opacity:1;stroke:none"
             sodipodi:type="arc" />
          <path
             transform="matrix(0.08545717,0,0,0.08545717,85.347134,30.446951)"
             d="m 53,24.428572 a 23.714285,23.714285 0 1 1 -47.4285698,0 23.714285,23.714285 0 1 1 47.4285698,0 z"
             sodipodi:ry="23.714285"
             sodipodi:rx="23.714285"
             sodipodi:cy="24.428572"
             sodipodi:cx="29.285715"
             id="path3773-80-3-7-1-9-9-3-3-8-76-1-7-4-2-8-4-0-7-2-9-4-7-8-6-6-2-9-0-7-2-1-0-7-1-6-40-4-4-1-2-5-8-0-6-9-1-5-4-8-3-6-7-3-7-7-5"
             style="fill:#939393;fill-opacity:1;stroke:none"
             sodipodi:type="arc" />
          <path
             transform="matrix(0.08545717,0,0,0.08545717,80.801448,36.507866)"
             d="m 53,24.428572 a 23.714285,23.714285 0 1 1 -47.4285698,0 23.714285,23.714285 0 1 1 47.4285698,0 z"
             sodipodi:ry="23.714285"
             sodipodi:rx="23.714285"
             sodipodi:cy="24.428572"
             sodipodi:cx="29.285715"
             id="path3773-80-3-7-1-9-9-3-3-8-76-1-7-4-2-8-4-0-7-2-9-4-7-8-6-6-2-9-0-7-2-1-0-7-1-6-40-4-4-1-2-5-8-0-6-9-1-5-4-8-3-6-7-3-7-7-5-9"
             style="fill:#939393;fill-opacity:1;stroke:none"
             sodipodi:type="arc" />
          <path
             transform="matrix(0.08545717,0,0,0.08545717,52.315146,14.183494)"
             d="m 53,24.428572 a 23.714285,23.714285 0 1 1 -47.4285698,0 23.714285,23.714285 0 1 1 47.4285698,0 z"
             sodipodi:ry="23.714285"
             sodipodi:rx="23.714285"
             sodipodi:cy="24.428572"
             sodipodi:cx="29.285715"
             id="path3773-80-3-7-1-9-9-3-3-8-76-1-7-4-2-8-4-0-7-2-9-4-7-8-6-6-2-9-0-7-2-1-0-7-1-6-40-4-4-1-2-5-8-0-6-9-1-5-4-8-3-6-7-3-7-7-5-6"
             style="fill:#939393;fill-opacity:1;stroke:none"
             sodipodi:type="arc" />
          <path
             transform="matrix(0.08545717,0,0,0.08545717,55.244589,10.64796)"
             d="m 53,24.428572 a 23.714285,23.714285 0 1 1 -47.4285698,0 23.714285,23.714285 0 1 1 47.4285698,0 z"
             sodipodi:ry="23.714285"
             sodipodi:rx="23.714285"
             sodipodi:cy="24.428572"
             sodipodi:cx="29.285715"
             id="path3773-80-3-7-1-9-9-3-3-8-76-1-7-4-2-8-4-0-7-2-9-4-7-8-6-6-2-9-0-7-2-1-0-7-1-6-40-4-4-1-2-5-8-0-6-9-1-5-4-8-3-6-7-3-7-7-5-6-5"
             style="fill:#939393;fill-opacity:1;stroke:none"
             sodipodi:type="arc" />
          <path
             transform="matrix(0.08545717,0,0,0.08545717,59.386214,8.4256249)"
             d="m 53,24.428572 a 23.714285,23.714285 0 1 1 -47.4285698,0 23.714285,23.714285 0 1 1 47.4285698,0 z"
             sodipodi:ry="23.714285"
             sodipodi:rx="23.714285"
             sodipodi:cy="24.428572"
             sodipodi:cx="29.285715"
             id="path3773-80-3-7-1-9-9-3-3-8-76-1-7-4-2-8-4-0-7-2-9-4-7-8-6-6-2-9-0-7-2-1-0-7-1-6-40-4-4-1-2-5-8-0-6-9-1-5-4-8-3-6-7-3-7-7-5-6-5-6"
             style="fill:#939393;fill-opacity:1;stroke:none"
             sodipodi:type="arc" />
          <path
             transform="matrix(0.08545717,0,0,0.08545717,64.032916,7.1124266)"
             d="m 53,24.428572 a 23.714285,23.714285 0 1 1 -47.4285698,0 23.714285,23.714285 0 1 1 47.4285698,0 z"
             sodipodi:ry="23.714285"
             sodipodi:rx="23.714285"
             sodipodi:cy="24.428572"
             sodipodi:cx="29.285715"
             id="path3773-80-3-7-1-9-9-3-3-8-76-1-7-4-2-8-4-0-7-2-9-4-7-8-6-6-2-9-0-7-2-1-0-7-1-6-40-4-4-1-2-5-8-0-6-9-1-5-4-8-3-6-7-3-7-7-5-6-5-6-0"
             style="fill:#939393;fill-opacity:1;stroke:none"
             sodipodi:type="arc" />
          <path
             transform="matrix(0.08545717,0,0,0.08545717,68.376571,7.2134419)"
             d="m 53,24.428572 a 23.714285,23.714285 0 1 1 -47.4285698,0 23.714285,23.714285 0 1 1 47.4285698,0 z"
             sodipodi:ry="23.714285"
             sodipodi:rx="23.714285"
             sodipodi:cy="24.428572"
             sodipodi:cx="29.285715"
             id="path3773-80-3-7-1-9-9-3-3-8-76-1-7-4-2-8-4-0-7-2-9-4-7-8-6-6-2-9-0-7-2-1-0-7-1-6-40-4-4-1-2-5-8-0-6-9-1-5-4-8-3-6-7-3-7-7-5-6-5-6-0-3"
             style="fill:#939393;fill-opacity:1;stroke:none"
             sodipodi:type="arc" />
          <path
             transform="matrix(0.08545717,0,0,0.08545717,62.517686,11.658113)"
             d="m 53,24.428572 a 23.714285,23.714285 0 1 1 -47.4285698,0 23.714285,23.714285 0 1 1 47.4285698,0 z"
             sodipodi:ry="23.714285"
             sodipodi:rx="23.714285"
             sodipodi:cy="24.428572"
             sodipodi:cx="29.285715"
             id="path3773-80-3-7-1-9-9-3-3-8-76-1-7-4-2-8-4-0-7-2-9-4-7-8-6-6-2-9-0-7-2-1-0-7-1-6-40-4-4-1-2-5-8-0-6-9-1-5-4-8-3-6-7-3-7-7-5-6-5-6-0-3-0"
             style="fill:#939393;fill-opacity:1;stroke:none"
             sodipodi:type="arc" />
          <rect
             style="fill:none;stroke:#ffffff;stroke-width:1.37168384;stroke-miterlimit:4;stroke-opacity:1;stroke-dasharray:none"
             id="rect3014-6"
             width="17.197863"
             height="15.730748"
             x="56.724476"
             y="24.493593"
             rx="0.46218255"
             ry="0.43026692" />
        </g>
      </g>
    </g>
  </g>
</svg>
