<?xml version="1.0" encoding="UTF-8" standalone="no"?>
<!-- Created with Inkscape (http://www.inkscape.org/) -->

<svg
   xmlns:dc="http://purl.org/dc/elements/1.1/"
   xmlns:cc="http://creativecommons.org/ns#"
   xmlns:rdf="http://www.w3.org/1999/02/22-rdf-syntax-ns#"
   xmlns:svg="http://www.w3.org/2000/svg"
   xmlns="http://www.w3.org/2000/svg"
   xmlns:sodipodi="http://sodipodi.sourceforge.net/DTD/sodipodi-0.dtd"
   xmlns:inkscape="http://www.inkscape.org/namespaces/inkscape"
   width="48px"
   height="48px"
   id="svg3765"
   version="1.1"
   inkscape:version="0.48.3.1 r9886"
   sodipodi:docname="subgraph3.svg"
   inkscape:export-filename="/home/k00ni/Documents/semicon/owl.png"
   inkscape:export-xdpi="90"
   inkscape:export-ydpi="90">
  <defs
     id="defs3767" />
  <sodipodi:namedview
     id="base"
     pagecolor="#ffffff"
     bordercolor="#666666"
     borderopacity="1.0"
     inkscape:pageopacity="0.0"
     inkscape:pageshadow="2"
     inkscape:zoom="9.8994949"
     inkscape:cx="11.316744"
     inkscape:cy="30.576145"
     inkscape:current-layer="layer1-9-3"
     showgrid="true"
     inkscape:grid-bbox="true"
     inkscape:document-units="px"
     inkscape:window-width="1366"
     inkscape:window-height="744"
     inkscape:window-x="0"
     inkscape:window-y="24"
     inkscape:window-maximized="1" />
  <metadata
     id="metadata3770">
    <rdf:RDF>
      <cc:Work
         rdf:about="">
        <dc:format>image/svg+xml</dc:format>
        <dc:type
           rdf:resource="http://purl.org/dc/dcmitype/StillImage" />
        <dc:title></dc:title>
      </cc:Work>
    </rdf:RDF>
  </metadata>
  <g
     id="layer1"
     inkscape:label="Layer 1"
     inkscape:groupmode="layer">
    <g
       inkscape:label="Layer 1"
       id="layer1-4"
       transform="translate(0.20202972,-1.9622142e-8)">
      <g
         transform="translate(-0.37059768,-0.09089584)"
         id="layer1-9"
         inkscape:label="Layer 1">
        <g
           inkscape:label="Layer 1"
           id="layer1-9-3"
           transform="translate(-44.951788,-4.1416259)">
          <path
             transform="matrix(0.99063909,0,0,0.99063908,40.251428,3.8899776)"
             d="M 53,24.428572 C 53,37.52561 42.382753,48.142857 29.285715,48.142857 16.188677,48.142857 5.5714302,37.52561 5.5714302,24.428572 5.5714302,11.331534 16.188677,0.7142868 29.285715,0.7142868 42.382753,0.7142868 53,11.331534 53,24.428572 z"
             sodipodi:ry="23.714285"
             sodipodi:rx="23.714285"
             sodipodi:cy="24.428572"
             sodipodi:cx="29.285715"
             id="path3773-80"
             style="fill:#2d2d2d;fill-opacity:1;stroke:none"
             sodipodi:type="arc" />
          <path
             transform="matrix(-0.07267813,0,0,0.07267813,130.46017,1.2626693)"
             d="M 53,24.428572 C 53,37.52561 42.382753,48.142857 29.285715,48.142857 16.188677,48.142857 5.5714302,37.52561 5.5714302,24.428572 5.5714302,11.331534 16.188677,0.7142868 29.285715,0.7142868 42.382753,0.7142868 53,11.331534 53,24.428572 z"
             sodipodi:ry="23.714285"
             sodipodi:rx="23.714285"
             sodipodi:cy="24.428572"
             sodipodi:cx="29.285715"
             id="path3773-80-3-7-1-9-9-3-3-9-3-7"
             style="fill:#ffffff;fill-opacity:1;stroke:none"
             sodipodi:type="arc" />
          <path
             transform="matrix(0.08545717,0,0,0.08545717,65.952206,7.9205487)"
             d="m 53,24.428572 a 23.714285,23.714285 0 1 1 -47.4285698,0 23.714285,23.714285 0 1 1 47.4285698,0 z"
             sodipodi:ry="23.714285"
             sodipodi:rx="23.714285"
             sodipodi:cy="24.428572"
             sodipodi:cx="29.285715"
             id="path3773-80-3-7-1-9-9-3-3-8-76-1-7-4-2-8-4-0-7-2-9-4-7-8-6-6-2-9-0-7-2-1-0-7-1-6-40-4-4-1-2-5-8-0-6"
             style="fill:#919191;fill-opacity:1;stroke:none"
             sodipodi:type="arc" />
          <path
             transform="matrix(0.08545717,0,0,0.08545717,65.750175,12.870296)"
             d="m 53,24.428572 a 23.714285,23.714285 0 1 1 -47.4285698,0 23.714285,23.714285 0 1 1 47.4285698,0 z"
             sodipodi:ry="23.714285"
             sodipodi:rx="23.714285"
             sodipodi:cy="24.428572"
             sodipodi:cx="29.285715"
             id="path3773-80-3-7-1-9-9-3-3-8-76-1-7-4-2-8-4-0-7-2-9-4-7-8-6-6-2-9-0-7-2-1-0-7-1-6-40-4-4-1-2-5-8-0-6-9-1-5-4-8-3-6-7-3-7-7-5-9"
             style="fill:#919191;fill-opacity:1;stroke:none"
             sodipodi:type="arc" />
          <path
             transform="matrix(0.08545717,0,0,0.08545717,70.699923,12.819789)"
             d="m 53,24.428572 a 23.714285,23.714285 0 1 1 -47.4285698,0 23.714285,23.714285 0 1 1 47.4285698,0 z"
             sodipodi:ry="23.714285"
             sodipodi:rx="23.714285"
             sodipodi:cy="24.428572"
             sodipodi:cx="29.285715"
             id="path3773-80-3-7-1-9-9-3-3-8-76-1-7-4-2-8-4-0-7-2-9-4-7-8-6-6-2-9-0-7-2-1-0-7-1-6-40-4-4-1-2-5-8-0-6-9-1-5-4-8-3-6-7-3-7-7-5-9-6"
             style="fill:#919191;fill-opacity:1;stroke:none"
             sodipodi:type="arc" />
          <path
             transform="matrix(0.08545717,0,0,0.08545717,60.749921,12.870295)"
             d="m 53,24.428572 a 23.714285,23.714285 0 1 1 -47.4285698,0 23.714285,23.714285 0 1 1 47.4285698,0 z"
             sodipodi:ry="23.714285"
             sodipodi:rx="23.714285"
             sodipodi:cy="24.428572"
             sodipodi:cx="29.285715"
             id="path3773-80-3-7-1-9-9-3-3-8-76-1-7-4-2-8-4-0-7-2-9-4-7-8-6-6-2-9-0-7-2-1-0-7-1-6-40-4-4-1-2-5-8-0-6-9-1-5-4-8-3-6-7-3-7-7-5-9-6-7"
             style="fill:#919191;fill-opacity:1;stroke:none"
             sodipodi:type="arc" />
          <path
             transform="matrix(0.08545717,0,0,0.08545717,55.72441,12.870297)"
             d="m 53,24.428572 a 23.714285,23.714285 0 1 1 -47.4285698,0 23.714285,23.714285 0 1 1 47.4285698,0 z"
             sodipodi:ry="23.714285"
             sodipodi:rx="23.714285"
             sodipodi:cy="24.428572"
             sodipodi:cx="29.285715"
             id="path3773-80-3-7-1-9-9-3-3-8-76-1-7-4-2-8-4-0-7-2-9-4-7-8-6-6-2-9-0-7-2-1-0-7-1-6-40-4-4-1-2-5-8-0-6-9-1-5-4-8-3-6-7-3-7-7-5-9-3"
             style="fill:#919191;fill-opacity:1;stroke:none"
             sodipodi:type="arc" />
          <path
             transform="matrix(0.08545717,0,0,0.08545717,55.623396,17.769536)"
             d="m 53,24.428572 a 23.714285,23.714285 0 1 1 -47.4285698,0 23.714285,23.714285 0 1 1 47.4285698,0 z"
             sodipodi:ry="23.714285"
             sodipodi:rx="23.714285"
             sodipodi:cy="24.428572"
             sodipodi:cx="29.285715"
             id="path3773-80-3-7-1-9-9-3-3-8-76-1-7-4-2-8-4-0-7-2-9-4-7-8-6-6-2-9-0-7-2-1-0-7-1-6-40-4-4-1-2-5-8-0-6-9-1-5-4-8-3-6-7-3-7-7-5-9-6-7-1"
             style="fill:#919191;fill-opacity:1;stroke:none"
             sodipodi:type="arc" />
          <path
             transform="matrix(0.08545717,0,0,0.08545717,55.648649,22.744538)"
             d="m 53,24.428572 a 23.714285,23.714285 0 1 1 -47.4285698,0 23.714285,23.714285 0 1 1 47.4285698,0 z"
             sodipodi:ry="23.714285"
             sodipodi:rx="23.714285"
             sodipodi:cy="24.428572"
             sodipodi:cx="29.285715"
             id="path3773-80-3-7-1-9-9-3-3-8-76-1-7-4-2-8-4-0-7-2-9-4-7-8-6-6-2-9-0-7-2-1-0-7-1-6-40-4-4-1-2-5-8-0-6-9-1-5-4-8-3-6-7-3-7-7-5-9-3-2"
             style="fill:#919191;fill-opacity:1;stroke:none"
             sodipodi:type="arc" />
          <path
             transform="matrix(0.08545717,0,0,0.08545717,55.547635,27.643777)"
             d="m 53,24.428572 a 23.714285,23.714285 0 1 1 -47.4285698,0 23.714285,23.714285 0 1 1 47.4285698,0 z"
             sodipodi:ry="23.714285"
             sodipodi:rx="23.714285"
             sodipodi:cy="24.428572"
             sodipodi:cx="29.285715"
             id="path3773-80-3-7-1-9-9-3-3-8-76-1-7-4-2-8-4-0-7-2-9-4-7-8-6-6-2-9-0-7-2-1-0-7-1-6-40-4-4-1-2-5-8-0-6-9-1-5-4-8-3-6-7-3-7-7-5-9-6-7-1-1"
             style="fill:#919191;fill-opacity:1;stroke:none"
             sodipodi:type="arc" />
          <path
             transform="matrix(0.08545717,0,0,0.08545717,70.800937,17.643267)"
             d="m 53,24.428572 a 23.714285,23.714285 0 1 1 -47.4285698,0 23.714285,23.714285 0 1 1 47.4285698,0 z"
             sodipodi:ry="23.714285"
             sodipodi:rx="23.714285"
             sodipodi:cy="24.428572"
             sodipodi:cx="29.285715"
             id="path3773-80-3-7-1-9-9-3-3-8-76-1-7-4-2-8-4-0-7-2-9-4-7-8-6-6-2-9-0-7-2-1-0-7-1-6-40-4-4-1-2-5-8-0-6-9-1-5-4-8-3-6-7-3-7-7-5-9-3-2-3"
             style="fill:#919191;fill-opacity:1;stroke:none"
             sodipodi:type="arc" />
          <path
             transform="matrix(0.08545717,0,0,0.08545717,70.699923,22.542507)"
             d="m 53,24.428572 a 23.714285,23.714285 0 1 1 -47.4285698,0 23.714285,23.714285 0 1 1 47.4285698,0 z"
             sodipodi:ry="23.714285"
             sodipodi:rx="23.714285"
             sodipodi:cy="24.428572"
             sodipodi:cx="29.285715"
             id="path3773-80-3-7-1-9-9-3-3-8-76-1-7-4-2-8-4-0-7-2-9-4-7-8-6-6-2-9-0-7-2-1-0-7-1-6-40-4-4-1-2-5-8-0-6-9-1-5-4-8-3-6-7-3-7-7-5-9-6-7-1-1-8"
             style="fill:#ffffff;fill-opacity:1;stroke:none"
             sodipodi:type="arc" />
          <path
             transform="matrix(0.08545717,0,0,0.08545717,80.8267,22.491999)"
             d="m 53,24.428572 a 23.714285,23.714285 0 1 1 -47.4285698,0 23.714285,23.714285 0 1 1 47.4285698,0 z"
             sodipodi:ry="23.714285"
             sodipodi:rx="23.714285"
             sodipodi:cy="24.428572"
             sodipodi:cx="29.285715"
             id="path3773-80-3-7-1-9-9-3-3-8-76-1-7-4-2-8-4-0-7-2-9-4-7-8-6-6-2-9-0-7-2-1-0-7-1-6-40-4-4-1-2-5-8-0-6-9-1-5-4-8-3-6-7-3-7-7-5-9-5"
             style="fill:#ffffff;fill-opacity:1;stroke:none"
             sodipodi:type="arc" />
          <path
             transform="matrix(0.08545717,0,0,0.08545717,80.927716,27.391239)"
             d="m 53,24.428572 a 23.714285,23.714285 0 1 1 -47.4285698,0 23.714285,23.714285 0 1 1 47.4285698,0 z"
             sodipodi:ry="23.714285"
             sodipodi:rx="23.714285"
             sodipodi:cy="24.428572"
             sodipodi:cx="29.285715"
             id="path3773-80-3-7-1-9-9-3-3-8-76-1-7-4-2-8-4-0-7-2-9-4-7-8-6-6-2-9-0-7-2-1-0-7-1-6-40-4-4-1-2-5-8-0-6-9-1-5-4-8-3-6-7-3-7-7-5-9-6-3"
             style="fill:#ffffff;fill-opacity:1;stroke:none"
             sodipodi:type="arc" />
          <path
             transform="matrix(0.08545717,0,0,0.08545717,75.826446,22.491998)"
             d="m 53,24.428572 a 23.714285,23.714285 0 1 1 -47.4285698,0 23.714285,23.714285 0 1 1 47.4285698,0 z"
             sodipodi:ry="23.714285"
             sodipodi:rx="23.714285"
             sodipodi:cy="24.428572"
             sodipodi:cx="29.285715"
             id="path3773-80-3-7-1-9-9-3-3-8-76-1-7-4-2-8-4-0-7-2-9-4-7-8-6-6-2-9-0-7-2-1-0-7-1-6-40-4-4-1-2-5-8-0-6-9-1-5-4-8-3-6-7-3-7-7-5-9-6-7-2"
             style="fill:#ffffff;fill-opacity:1;stroke:none"
             sodipodi:type="arc" />
          <path
             transform="matrix(0.08545717,0,0,0.08545717,65.750175,22.466745)"
             d="m 53,24.428572 a 23.714285,23.714285 0 1 1 -47.4285698,0 23.714285,23.714285 0 1 1 47.4285698,0 z"
             sodipodi:ry="23.714285"
             sodipodi:rx="23.714285"
             sodipodi:cy="24.428572"
             sodipodi:cx="29.285715"
             id="path3773-80-3-7-1-9-9-3-3-8-76-1-7-4-2-8-4-0-7-2-9-4-7-8-6-6-2-9-0-7-2-1-0-7-1-6-40-4-4-1-2-5-8-0-6-9-1-5-4-8-3-6-7-3-7-7-5-9-6-3-7"
             style="fill:#ffffff;fill-opacity:1;stroke:none"
             sodipodi:type="arc" />
          <path
             transform="matrix(0.08545717,0,0,0.08545717,65.750175,27.113446)"
             d="m 53,24.428572 a 23.714285,23.714285 0 1 1 -47.4285698,0 23.714285,23.714285 0 1 1 47.4285698,0 z"
             sodipodi:ry="23.714285"
             sodipodi:rx="23.714285"
             sodipodi:cy="24.428572"
             sodipodi:cx="29.285715"
             id="path3773-80-3-7-1-9-9-3-3-8-76-1-7-4-2-8-4-0-7-2-9-4-7-8-6-6-2-9-0-7-2-1-0-7-1-6-40-4-4-1-2-5-8-0-6-9-1-5-4-8-3-6-7-3-7-7-5-9-6-3-7-3"
             style="fill:#ffffff;fill-opacity:1;stroke:none"
             sodipodi:type="arc" />
          <path
             transform="matrix(0.08545717,0,0,0.08545717,65.85119,31.760148)"
             d="m 53,24.428572 a 23.714285,23.714285 0 1 1 -47.4285698,0 23.714285,23.714285 0 1 1 47.4285698,0 z"
             sodipodi:ry="23.714285"
             sodipodi:rx="23.714285"
             sodipodi:cy="24.428572"
             sodipodi:cx="29.285715"
             id="path3773-80-3-7-1-9-9-3-3-8-76-1-7-4-2-8-4-0-7-2-9-4-7-8-6-6-2-9-0-7-2-1-0-7-1-6-40-4-4-1-2-5-8-0-6-9-1-5-4-8-3-6-7-3-7-7-5-9-6-3-7-3-0"
             style="fill:#ffffff;fill-opacity:1;stroke:none"
             sodipodi:type="arc" />
          <path
             transform="matrix(0.08545717,0,0,0.08545717,65.85119,36.356343)"
             d="m 53,24.428572 a 23.714285,23.714285 0 1 1 -47.4285698,0 23.714285,23.714285 0 1 1 47.4285698,0 z"
             sodipodi:ry="23.714285"
             sodipodi:rx="23.714285"
             sodipodi:cy="24.428572"
             sodipodi:cx="29.285715"
             id="path3773-80-3-7-1-9-9-3-3-8-76-1-7-4-2-8-4-0-7-2-9-4-7-8-6-6-2-9-0-7-2-1-0-7-1-6-40-4-4-1-2-5-8-0-6-9-1-5-4-8-3-6-7-3-7-7-5-9-6-3-7-3-0-2"
             style="fill:#919191;fill-opacity:1;stroke:none"
             sodipodi:type="arc" />
          <path
             transform="matrix(0.08545717,0,0,0.08545717,50.974825,22.85921)"
             d="m 53,24.428572 a 23.714285,23.714285 0 1 1 -47.4285698,0 23.714285,23.714285 0 1 1 47.4285698,0 z"
             sodipodi:ry="23.714285"
             sodipodi:rx="23.714285"
             sodipodi:cy="24.428572"
             sodipodi:cx="29.285715"
             id="path3773-80-3-7-1-9-9-3-3-8-76-1-7-4-2-8-4-0-7-2-9-4-7-8-6-6-2-9-0-7-2-1-0-7-1-6-40-4-4-1-2-5-8-0-6-9-1-5-4-8-3-6-7-3-7-7-5-9-6-3-7-3-0-4"
             style="fill:#919191;fill-opacity:1;stroke:none"
             sodipodi:type="arc" />
          <path
             transform="matrix(0.08545717,0,0,0.08545717,60.813989,36.381597)"
             d="m 53,24.428572 a 23.714285,23.714285 0 1 1 -47.4285698,0 23.714285,23.714285 0 1 1 47.4285698,0 z"
             sodipodi:ry="23.714285"
             sodipodi:rx="23.714285"
             sodipodi:cy="24.428572"
             sodipodi:cx="29.285715"
             id="path3773-80-3-7-1-9-9-3-3-8-76-1-7-4-2-8-4-0-7-2-9-4-7-8-6-6-2-9-0-7-2-1-0-7-1-6-40-4-4-1-2-5-8-0-6-9-1-5-4-8-3-6-7-3-7-7-5-9-3-2-9"
             style="fill:#919191;fill-opacity:1;stroke:none"
             sodipodi:type="arc" />
          <path
             transform="matrix(0.08545717,0,0,0.08545717,60.712975,41.280836)"
             d="m 53,24.428572 a 23.714285,23.714285 0 1 1 -47.4285698,0 23.714285,23.714285 0 1 1 47.4285698,0 z"
             sodipodi:ry="23.714285"
             sodipodi:rx="23.714285"
             sodipodi:cy="24.428572"
             sodipodi:cx="29.285715"
             id="path3773-80-3-7-1-9-9-3-3-8-76-1-7-4-2-8-4-0-7-2-9-4-7-8-6-6-2-9-0-7-2-1-0-7-1-6-40-4-4-1-2-5-8-0-6-9-1-5-4-8-3-6-7-3-7-7-5-9-6-7-1-1-3"
             style="fill:#919191;fill-opacity:1;stroke:none"
             sodipodi:type="arc" />
          <path
             transform="matrix(0.08545717,0,0,0.08545717,56.140165,36.496269)"
             d="m 53,24.428572 a 23.714285,23.714285 0 1 1 -47.4285698,0 23.714285,23.714285 0 1 1 47.4285698,0 z"
             sodipodi:ry="23.714285"
             sodipodi:rx="23.714285"
             sodipodi:cy="24.428572"
             sodipodi:cx="29.285715"
             id="path3773-80-3-7-1-9-9-3-3-8-76-1-7-4-2-8-4-0-7-2-9-4-7-8-6-6-2-9-0-7-2-1-0-7-1-6-40-4-4-1-2-5-8-0-6-9-1-5-4-8-3-6-7-3-7-7-5-9-6-3-7-3-0-4-0"
             style="fill:#919191;fill-opacity:1;stroke:none"
             sodipodi:type="arc" />
          <path
             transform="matrix(0.08545717,0,0,0.08545717,75.25917,31.532865)"
             d="m 53,24.428572 a 23.714285,23.714285 0 1 1 -47.4285698,0 23.714285,23.714285 0 1 1 47.4285698,0 z"
             sodipodi:ry="23.714285"
             sodipodi:rx="23.714285"
             sodipodi:cy="24.428572"
             sodipodi:cx="29.285715"
             id="path3773-80-3-7-1-9-9-3-3-8-76-1-7-4-2-8-4-0-7-2-9-4-7-8-6-6-2-9-0-7-2-1-0-7-1-6-40-4-4-1-2-5-8-0-6-9-1-5-4-8-3-6-7-3-7-7-5-9-3-2-9-7"
             style="fill:#ffffff;fill-opacity:1;stroke:none"
             sodipodi:type="arc" />
          <path
             transform="matrix(0.08545717,0,0,0.08545717,75.158156,36.432104)"
             d="m 53,24.428572 a 23.714285,23.714285 0 1 1 -47.4285698,0 23.714285,23.714285 0 1 1 47.4285698,0 z"
             sodipodi:ry="23.714285"
             sodipodi:rx="23.714285"
             sodipodi:cy="24.428572"
             sodipodi:cx="29.285715"
             id="path3773-80-3-7-1-9-9-3-3-8-76-1-7-4-2-8-4-0-7-2-9-4-7-8-6-6-2-9-0-7-2-1-0-7-1-6-40-4-4-1-2-5-8-0-6-9-1-5-4-8-3-6-7-3-7-7-5-9-6-7-1-1-3-5"
             style="fill:#ffffff;fill-opacity:1;stroke:none"
             sodipodi:type="arc" />
          <path
             transform="matrix(0.08545717,0,0,0.08545717,70.585346,31.647537)"
             d="m 53,24.428572 a 23.714285,23.714285 0 1 1 -47.4285698,0 23.714285,23.714285 0 1 1 47.4285698,0 z"
             sodipodi:ry="23.714285"
             sodipodi:rx="23.714285"
             sodipodi:cy="24.428572"
             sodipodi:cx="29.285715"
             id="path3773-80-3-7-1-9-9-3-3-8-76-1-7-4-2-8-4-0-7-2-9-4-7-8-6-6-2-9-0-7-2-1-0-7-1-6-40-4-4-1-2-5-8-0-6-9-1-5-4-8-3-6-7-3-7-7-5-9-6-3-7-3-0-4-0-5"
             style="fill:#ffffff;fill-opacity:1;stroke:none"
             sodipodi:type="arc" />
        </g>
      </g>
    </g>
  </g>
</svg>
