<?xml version="1.0" encoding="UTF-8" standalone="no"?>
<!-- Created with Inkscape (http://www.inkscape.org/) -->

<svg
   xmlns:dc="http://purl.org/dc/elements/1.1/"
   xmlns:cc="http://creativecommons.org/ns#"
   xmlns:rdf="http://www.w3.org/1999/02/22-rdf-syntax-ns#"
   xmlns:svg="http://www.w3.org/2000/svg"
   xmlns="http://www.w3.org/2000/svg"
   xmlns:sodipodi="http://sodipodi.sourceforge.net/DTD/sodipodi-0.dtd"
   xmlns:inkscape="http://www.inkscape.org/namespaces/inkscape"
   width="48px"
   height="48px"
   id="svg3765"
   version="1.1"
   inkscape:version="0.48.3.1 r9886"
   sodipodi:docname="turtle_document.svg"
   inkscape:export-filename="/home/k00ni/Documents/semicon/owl.png"
   inkscape:export-xdpi="90"
   inkscape:export-ydpi="90">
  <defs
     id="defs3767" />
  <sodipodi:namedview
     id="base"
     pagecolor="#ffffff"
     bordercolor="#666666"
     borderopacity="1.0"
     inkscape:pageopacity="0.0"
     inkscape:pageshadow="2"
     inkscape:zoom="14"
     inkscape:cx="18.31735"
     inkscape:cy="24.358579"
     inkscape:current-layer="layer1-9-3"
     showgrid="true"
     inkscape:grid-bbox="true"
     inkscape:document-units="px"
     inkscape:window-width="1366"
     inkscape:window-height="744"
     inkscape:window-x="0"
     inkscape:window-y="24"
     inkscape:window-maximized="1" />
  <metadata
     id="metadata3770">
    <rdf:RDF>
      <cc:Work
         rdf:about="">
        <dc:format>image/svg+xml</dc:format>
        <dc:type
           rdf:resource="http://purl.org/dc/dcmitype/StillImage" />
        <dc:title></dc:title>
      </cc:Work>
    </rdf:RDF>
  </metadata>
  <g
     id="layer1"
     inkscape:label="Layer 1"
     inkscape:groupmode="layer">
    <g
       inkscape:label="Layer 1"
       id="layer1-4"
       transform="translate(0.20202972,-1.9622142e-8)">
      <g
         transform="translate(-0.37059768,-0.09089584)"
         id="layer1-9"
         inkscape:label="Layer 1">
        <g
           inkscape:label="Layer 1"
           id="layer1-9-3"
           transform="translate(-44.951788,-4.1416259)">
          <path
             transform="matrix(0.99063909,0,0,0.99063908,40.251428,3.8899776)"
             d="M 53,24.428572 C 53,37.52561 42.382753,48.142857 29.285715,48.142857 16.188677,48.142857 5.5714302,37.52561 5.5714302,24.428572 5.5714302,11.331534 16.188677,0.7142868 29.285715,0.7142868 42.382753,0.7142868 53,11.331534 53,24.428572 z"
             sodipodi:ry="23.714285"
             sodipodi:rx="23.714285"
             sodipodi:cy="24.428572"
             sodipodi:cx="29.285715"
             id="path3773-80"
             style="fill:#2d2d2d;fill-opacity:1;stroke:none"
             sodipodi:type="arc" />
          <g
             inkscape:label="Layer 1"
             id="layer1-0"
             transform="matrix(0,1.4385572,-1.0496111,0,114.82299,-112.25102)"
             style="fill:none;stroke:#ffffff;stroke-width:0.64536875;stroke-miterlimit:4;stroke-opacity:1;stroke-dasharray:none">
            <rect
               style="fill:none;stroke:#ffffff;stroke-width:2.19158631;stroke-linecap:round;stroke-linejoin:round;stroke-miterlimit:4;stroke-opacity:1;stroke-dasharray:none"
               id="rect3073-9"
               width="19.610203"
               height="23.734238"
               x="87.701805"
               y="31.920166"
               ry="3.0364146"
               rx="3.0364146" />
          </g>
          <path
             sodipodi:type="arc"
             style="fill:#ffffff;fill-opacity:1;stroke:#ffffff;stroke-width:2.69300008;stroke-linecap:round;stroke-linejoin:round;stroke-miterlimit:4;stroke-opacity:1;stroke-dasharray:none"
             id="path3092"
             sodipodi:cx="21.678572"
             sodipodi:cy="24.821428"
             sodipodi:rx="4.0357141"
             sodipodi:ry="6.4642859"
             d="m 25.714286,24.821428 a 4.0357141,6.4642859 0 1 1 -8.071428,0 4.0357141,6.4642859 0 1 1 8.071428,0 z"
             transform="translate(47.334642,5.6610933)" />
          <path
             sodipodi:type="arc"
             style="fill:#ffffff;fill-opacity:1;stroke:none"
             id="path3094"
             sodipodi:cx="23.178572"
             sodipodi:cy="14.892858"
             sodipodi:rx="0.10714286"
             sodipodi:ry="0.39285713"
             d="m 23.285715,14.892858 a 0.10714286,0.39285713 0 1 1 -0.214286,0 0.10714286,0.39285713 0 1 1 0.214286,0 z"
             transform="matrix(20.945876,0,0,5.4520721,-416.52283,-61.571554)" />
          <rect
             style="fill:#2d2d2d;fill-opacity:1;stroke:none"
             id="rect3096-8-8"
             width="12.3755"
             height="2.7561455"
             x="62.920959"
             y="28.018236"
             rx="2.0793679"
             ry="2.7561455" />
          <path
             sodipodi:type="arc"
             style="fill:#ffffff;fill-opacity:1;stroke:none"
             id="path3094-7"
             sodipodi:cx="23.178572"
             sodipodi:cy="14.892858"
             sodipodi:rx="0.10714286"
             sodipodi:ry="0.39285713"
             d="m 23.285715,14.892858 a 0.10714286,0.39285713 0 1 1 -0.214286,0 0.10714286,0.39285713 0 1 1 0.214286,0 z"
             transform="matrix(6.3163944,4.8207996,-3.1974873,4.1894691,-35.414932,-136.47132)" />
          <path
             sodipodi:type="arc"
             style="fill:#ffffff;fill-opacity:1;stroke:none"
             id="path3094-7-6"
             sodipodi:cx="23.178572"
             sodipodi:cy="14.892858"
             sodipodi:rx="0.10714286"
             sodipodi:ry="0.39285713"
             d="m 23.285715,14.892858 a 0.10714286,0.39285713 0 1 1 -0.214286,0 0.10714286,0.39285713 0 1 1 0.214286,0 z"
             transform="matrix(-6.3163944,4.8207996,3.1974873,4.1894691,173.45921,-136.47132)" />
          <rect
             style="fill:#2d2d2d;fill-opacity:1;stroke:none"
             id="rect3096-8-8-3"
             width="12.3755"
             height="2.4704311"
             x="62.932606"
             y="23.78302"
             rx="2.0793679"
             ry="2.4704311" />
          <rect
             style="fill:#2d2d2d;fill-opacity:1;stroke:none"
             id="rect3096-8-8-9"
             width="12.3755"
             height="2.7561455"
             x="62.432602"
             y="33.068733"
             rx="2.0793679"
             ry="2.7561455" />
          <path
             sodipodi:type="arc"
             style="fill:#ffffff;fill-opacity:1;stroke:none"
             id="path3094-7-2"
             sodipodi:cx="23.178572"
             sodipodi:cy="14.892858"
             sodipodi:rx="0.10714286"
             sodipodi:ry="0.39285713"
             d="m 23.285715,14.892858 a 0.10714286,0.39285713 0 1 1 -0.214286,0 0.10714286,0.39285713 0 1 1 0.214286,0 z"
             transform="matrix(6.3163944,4.8207996,-3.1974873,4.1894691,-24.102422,-151.72132)" />
          <path
             sodipodi:type="arc"
             style="fill:#ffffff;fill-opacity:1;stroke:none"
             id="path3094-7-2-4"
             sodipodi:cx="23.178572"
             sodipodi:cy="14.892858"
             sodipodi:rx="0.10714286"
             sodipodi:ry="0.39285713"
             d="m 23.285715,14.892858 a 0.10714286,0.39285713 0 1 1 -0.214286,0 0.10714286,0.39285713 0 1 1 0.214286,0 z"
             transform="matrix(-6.3163944,4.8207996,3.1974873,4.1894691,162.34313,-151.6499)" />
        </g>
      </g>
    </g>
  </g>
</svg>
