<?xml version="1.0" encoding="UTF-8" standalone="no"?>
<!-- Created with Inkscape (http://www.inkscape.org/) -->

<svg
   xmlns:dc="http://purl.org/dc/elements/1.1/"
   xmlns:cc="http://creativecommons.org/ns#"
   xmlns:rdf="http://www.w3.org/1999/02/22-rdf-syntax-ns#"
   xmlns:svg="http://www.w3.org/2000/svg"
   xmlns="http://www.w3.org/2000/svg"
   xmlns:sodipodi="http://sodipodi.sourceforge.net/DTD/sodipodi-0.dtd"
   xmlns:inkscape="http://www.inkscape.org/namespaces/inkscape"
   width="48px"
   height="48px"
   id="svg3765"
   version="1.1"
   inkscape:version="0.48.3.1 r9886"
   sodipodi:docname="version3.svg"
   inkscape:export-filename="/home/k00ni/Documents/semicon/owl.png"
   inkscape:export-xdpi="90"
   inkscape:export-ydpi="90">
  <defs
     id="defs3767" />
  <sodipodi:namedview
     id="base"
     pagecolor="#ffffff"
     bordercolor="#666666"
     borderopacity="1.0"
     inkscape:pageopacity="0.0"
     inkscape:pageshadow="2"
     inkscape:zoom="7"
     inkscape:cx="2.9472731"
     inkscape:cy="27.548902"
     inkscape:current-layer="layer1-9-3"
     showgrid="true"
     inkscape:grid-bbox="true"
     inkscape:document-units="px"
     inkscape:window-width="1366"
     inkscape:window-height="744"
     inkscape:window-x="0"
     inkscape:window-y="24"
     inkscape:window-maximized="1" />
  <metadata
     id="metadata3770">
    <rdf:RDF>
      <cc:Work
         rdf:about="">
        <dc:format>image/svg+xml</dc:format>
        <dc:type
           rdf:resource="http://purl.org/dc/dcmitype/StillImage" />
        <dc:title></dc:title>
      </cc:Work>
    </rdf:RDF>
  </metadata>
  <g
     id="layer1"
     inkscape:label="Layer 1"
     inkscape:groupmode="layer">
    <g
       inkscape:label="Layer 1"
       id="layer1-4"
       transform="translate(0.20202972,-1.9622142e-8)">
      <g
         transform="translate(-0.37059768,-0.09089584)"
         id="layer1-9"
         inkscape:label="Layer 1">
        <g
           inkscape:label="Layer 1"
           id="layer1-9-3"
           transform="translate(-44.951788,-4.1416259)">
          <path
             transform="matrix(0.99063909,0,0,0.99063908,40.251428,3.8899776)"
             d="M 53,24.428572 C 53,37.52561 42.382753,48.142857 29.285715,48.142857 16.188677,48.142857 5.5714302,37.52561 5.5714302,24.428572 5.5714302,11.331534 16.188677,0.7142868 29.285715,0.7142868 42.382753,0.7142868 53,11.331534 53,24.428572 z"
             sodipodi:ry="23.714285"
             sodipodi:rx="23.714285"
             sodipodi:cy="24.428572"
             sodipodi:cx="29.285715"
             id="path3773-80"
             style="fill:#2d2d2d;fill-opacity:1;stroke:none"
             sodipodi:type="arc" />
          <path
             transform="matrix(-0.07267813,0,0,0.07267813,130.46017,1.2626693)"
             d="M 53,24.428572 C 53,37.52561 42.382753,48.142857 29.285715,48.142857 16.188677,48.142857 5.5714302,37.52561 5.5714302,24.428572 5.5714302,11.331534 16.188677,0.7142868 29.285715,0.7142868 42.382753,0.7142868 53,11.331534 53,24.428572 z"
             sodipodi:ry="23.714285"
             sodipodi:rx="23.714285"
             sodipodi:cy="24.428572"
             sodipodi:cx="29.285715"
             id="path3773-80-3-7-1-9-9-3-3-9-3-7"
             style="fill:#ffffff;fill-opacity:1;stroke:none"
             sodipodi:type="arc" />
          <path
             inkscape:connector-curvature="0"
             id="path2995"
             style="font-size:24.78561592px;font-style:normal;font-variant:normal;font-weight:bold;font-stretch:normal;line-height:125%;letter-spacing:0px;word-spacing:0px;fill:#ffffff;fill-opacity:1;stroke:none;font-family:Ubuntu;-inkscape-font-specification:Ubuntu Bold"
             d="m 55.228375,23.586013 c 0.375016,-0.155169 0.762966,-0.329746 1.16385,-0.523733 0.413811,-0.206895 0.814692,-0.426733 1.202645,-0.659515 0.387946,-0.245689 0.756498,-0.497857 1.105658,-0.756503 0.362081,-0.271552 0.685373,-0.556048 0.969875,-0.85349 l 2.017341,0 0,13.44247 -2.890229,0 0,-9.679354 c -0.387954,0.258643 -0.821165,0.497879 -1.299632,0.717708 -0.478475,0.206915 -0.944015,0.387958 -1.396621,0.54313 l -0.872887,-2.230713" />
          <path
             inkscape:connector-curvature="0"
             id="path2997"
             style="font-size:24.78561592px;font-style:normal;font-variant:normal;font-weight:bold;font-stretch:normal;line-height:125%;letter-spacing:0px;word-spacing:0px;fill:#ffffff;fill-opacity:1;stroke:none;font-family:Ubuntu;-inkscape-font-specification:Ubuntu Bold"
             d="m 69.085164,32.702839 c -5e-6,0.581927 -0.187514,1.028069 -0.562528,1.338429 -0.36209,0.297428 -0.775903,0.446142 -1.241441,0.446142 -0.465542,0 -0.88582,-0.148714 -1.260837,-0.446142 -0.362087,-0.31036 -0.543131,-0.756502 -0.54313,-1.338429 -10e-7,-0.581922 0.181043,-1.021599 0.54313,-1.319029 0.375017,-0.310357 0.795295,-0.465537 1.260837,-0.46554 0.465538,3e-6 0.879351,0.155183 1.241441,0.46554 0.375014,0.29743 0.562523,0.737107 0.562528,1.319029" />
          <text
             xml:space="preserve"
             style="font-size:20.0039463px;font-style:normal;font-weight:normal;line-height:125%;letter-spacing:0px;word-spacing:0px;fill:#ffffff;fill-opacity:1;stroke:none;font-family:Sans"
             x="71.712494"
             y="34.375378"
             id="text2996"
             sodipodi:linespacing="125%"><tspan
               sodipodi:role="line"
               id="tspan2998"
               x="71.712494"
               y="34.375378"
               style="font-style:normal;font-variant:normal;font-weight:bold;font-stretch:normal;fill:#ffffff;font-family:Ubuntu;-inkscape-font-specification:Ubuntu Bold">x</tspan></text>
        </g>
      </g>
    </g>
  </g>
</svg>
