<?xml version="1.0" encoding="UTF-8" standalone="no"?>
<!-- Created with Inkscape (http://www.inkscape.org/) -->

<svg
   xmlns:dc="http://purl.org/dc/elements/1.1/"
   xmlns:cc="http://creativecommons.org/ns#"
   xmlns:rdf="http://www.w3.org/1999/02/22-rdf-syntax-ns#"
   xmlns:svg="http://www.w3.org/2000/svg"
   xmlns="http://www.w3.org/2000/svg"
   xmlns:sodipodi="http://sodipodi.sourceforge.net/DTD/sodipodi-0.dtd"
   xmlns:inkscape="http://www.inkscape.org/namespaces/inkscape"
   width="48px"
   height="48px"
   id="svg3765"
   version="1.1"
   inkscape:version="0.48.3.1 r9886"
   sodipodi:docname="xsd.svg"
   inkscape:export-filename="/home/k00ni/Documents/semicon/owl.png"
   inkscape:export-xdpi="90"
   inkscape:export-ydpi="90">
  <defs
     id="defs3767" />
  <sodipodi:namedview
     id="base"
     pagecolor="#ffffff"
     bordercolor="#666666"
     borderopacity="1.0"
     inkscape:pageopacity="0.0"
     inkscape:pageshadow="2"
     inkscape:zoom="9.8994949"
     inkscape:cx="22.975565"
     inkscape:cy="19.582283"
     inkscape:current-layer="layer1"
     showgrid="true"
     inkscape:grid-bbox="true"
     inkscape:document-units="px"
     inkscape:window-width="1366"
     inkscape:window-height="744"
     inkscape:window-x="0"
     inkscape:window-y="24"
     inkscape:window-maximized="1" />
  <metadata
     id="metadata3770">
    <rdf:RDF>
      <cc:Work
         rdf:about="">
        <dc:format>image/svg+xml</dc:format>
        <dc:type
           rdf:resource="http://purl.org/dc/dcmitype/StillImage" />
        <dc:title />
      </cc:Work>
    </rdf:RDF>
  </metadata>
  <g
     id="layer1"
     inkscape:label="Layer 1"
     inkscape:groupmode="layer">
    <path
       sodipodi:type="arc"
       style="fill:#2d2d2d;fill-opacity:1;stroke:none"
       id="path3773"
       sodipodi:cx="29.285715"
       sodipodi:cy="24.428572"
       sodipodi:rx="23.714285"
       sodipodi:ry="23.714285"
       d="m 53,24.428572 a 23.714285,23.714285 0 1 1 -47.4285698,0 23.714285,23.714285 0 1 1 47.4285698,0 z"
       transform="matrix(0.99063909,0,0,0.99063908,-4.7003607,-0.15063258)" />
    <path
       inkscape:connector-curvature="0"
       id="path2986"
       style="font-size:15.36572361px;font-style:normal;font-variant:normal;font-weight:bold;font-stretch:normal;line-height:125%;letter-spacing:0px;word-spacing:0px;fill:#ffffff;fill-opacity:1;stroke:none;font-family:Ubuntu;-inkscape-font-specification:Ubuntu Bold"
       d="m 16.209256,29.080248 c -0.28161,-0.626774 -0.592345,-1.25895 -0.932206,-1.896531 -0.330162,-0.648384 -0.713725,-1.307577 -1.150691,-1.977579 -0.135953,0.194519 -0.310741,0.46468 -0.524366,0.810483 -0.203925,0.345809 -0.4127,0.713227 -0.626326,1.102257 -0.203924,0.389033 -0.398133,0.761855 -0.582629,1.118467 -0.184503,0.356612 -0.320449,0.63758 -0.407841,0.842903 l -2.5926981,0 c 0.4272603,-0.875322 0.9224941,-1.793868 1.4857031,-2.755643 0.572916,-0.96177 1.208952,-1.982978 1.90811,-3.063627 l -3.2481561,-5.414028 2.7529221,0 1.966372,3.501288 1.922675,-3.501288 2.592699,0 -3.20446,5.446447 c 0.815674,1.177907 1.500263,2.269357 2.053767,3.274353 0.553489,0.994194 0.99046,1.831692 1.310916,2.512498 l -2.723791,0" />
    <path
       inkscape:connector-curvature="0"
       id="path2988"
       style="font-size:15.36572361px;font-style:normal;font-variant:normal;font-weight:bold;font-stretch:normal;line-height:125%;letter-spacing:0px;word-spacing:0px;fill:#ffffff;fill-opacity:1;stroke:none;font-family:Ubuntu;-inkscape-font-specification:Ubuntu Bold"
       d="m 23.971408,27.151298 c 0.320441,1e-6 0.582624,-0.02702 0.786549,-0.08105 0.213626,-0.06484 0.383558,-0.145884 0.5098,-0.243145 0.126231,-0.108062 0.213625,-0.232337 0.262183,-0.372823 0.04854,-0.140481 0.07282,-0.297174 0.07283,-0.47008 -5e-6,-0.367415 -0.155373,-0.669996 -0.466102,-0.907741 -0.31074,-0.248544 -0.844817,-0.513301 -1.60223,-0.794273 -0.33016,-0.129673 -0.660315,-0.27556 -0.990469,-0.437661 -0.330159,-0.172898 -0.626328,-0.383623 -0.888509,-0.632177 -0.262185,-0.259349 -0.475815,-0.567332 -0.640892,-0.923951 -0.165079,-0.367412 -0.247618,-0.810475 -0.247617,-1.329193 -10e-7,-0.518701 0.08739,-0.983376 0.262183,-1.394031 0.174787,-0.421441 0.422404,-0.778053 0.742852,-1.069838 0.320443,-0.291763 0.708863,-0.513295 1.165257,-0.664595 0.456389,-0.162086 0.971045,-0.243134 1.543967,-0.243146 0.679729,1.2e-5 1.267212,0.08106 1.762452,0.243146 0.495228,0.162107 0.903068,0.340413 1.223521,0.534918 l -0.655458,1.993788 c -0.281611,-0.162087 -0.5972,-0.302571 -0.946772,-0.42145 -0.339872,-0.129668 -0.752567,-0.194507 -1.238086,-0.194516 -0.543791,9e-6 -0.937065,0.08646 -1.179823,0.259354 -0.233055,0.162106 -0.349581,0.416057 -0.349578,0.761854 -3e-6,0.205331 0.04369,0.378234 0.131092,0.51871 0.08739,0.140492 0.208771,0.270168 0.364143,0.389032 0.165074,0.108071 0.349573,0.210732 0.553498,0.307983 0.213626,0.08646 0.446677,0.178313 0.699154,0.275564 0.524361,0.216136 0.980753,0.432265 1.369177,0.648387 0.388413,0.205328 0.708859,0.448473 0.961338,0.729435 0.262176,0.280973 0.456385,0.610569 0.582629,0.98879 0.126228,0.378229 0.189347,0.837503 0.189354,1.377821 -7e-6,1.048227 -0.330163,1.864113 -0.990469,2.447659 -0.660319,0.572742 -1.655642,0.859113 -2.985972,0.859113 -0.446686,0 -0.84967,-0.03242 -1.208955,-0.09726 -0.359291,-0.05403 -0.679736,-0.124273 -0.961338,-0.210725 -0.271895,-0.08645 -0.509802,-0.178307 -0.71372,-0.275564 -0.194211,-0.09725 -0.359288,-0.189112 -0.495235,-0.275565 l 0.640892,-2.009998 c 0.301024,0.183712 0.670021,0.351211 1.106995,0.502499 0.446679,0.140486 0.990466,0.210727 1.631361,0.210726" />
    <path
       inkscape:connector-curvature="0"
       id="path2990"
       style="font-size:15.36572361px;font-style:normal;font-variant:normal;font-weight:bold;font-stretch:normal;line-height:125%;letter-spacing:0px;word-spacing:0px;fill:#ffffff;fill-opacity:1;stroke:none;font-family:Ubuntu;-inkscape-font-specification:Ubuntu Bold"
       d="m 33.281644,27.02162 c 0.106811,0.01081 0.228191,0.02162 0.364143,0.03242 0.145653,2e-6 0.315585,2e-6 0.5098,0 1.136121,2e-6 1.976076,-0.318787 2.519869,-0.95637 0.553491,-0.637576 0.830239,-1.5183 0.830246,-2.642175 -7e-6,-1.177896 -0.26219,-2.069427 -0.786549,-2.674595 -0.524371,-0.605152 -1.354617,-0.907732 -2.490738,-0.907741 -0.155372,9e-6 -0.315595,0.0054 -0.480668,0.0162 -0.165083,9e-6 -0.32045,0.01081 -0.466103,0.03242 l 0,7.099833 m 6.56914,-3.566126 c -1.1e-5,0.972583 -0.135957,1.820889 -0.40784,2.544916 -0.271903,0.724035 -0.660322,1.323791 -1.165258,1.799274 -0.495243,0.475483 -1.102147,0.832096 -1.820716,1.069837 -0.718581,0.237742 -1.52455,0.356613 -2.417909,0.356613 -0.407844,0 -0.883657,-0.02162 -1.427441,-0.06484 -0.543789,-0.03242 -1.077865,-0.108064 -1.602229,-0.226935 l 0,-10.941523 c 0.524364,-0.108054 1.06815,-0.178296 1.631361,-0.210726 0.572914,-0.04321 1.063294,-0.06483 1.471138,-0.06484 0.864227,1.2e-5 1.64592,0.108076 2.34508,0.324194 0.708858,0.216139 1.315763,0.556542 1.820716,1.021209 0.504936,0.464687 0.893355,1.05904 1.165258,1.783063 0.271883,0.724039 0.407829,1.593956 0.40784,2.609756" />
  </g>
</svg>
