<?xml version="1.0" encoding="UTF-8" standalone="no"?>
<!-- Created with Inkscape (http://www.inkscape.org/) -->

<svg
   xmlns:dc="http://purl.org/dc/elements/1.1/"
   xmlns:cc="http://creativecommons.org/ns#"
   xmlns:rdf="http://www.w3.org/1999/02/22-rdf-syntax-ns#"
   xmlns:svg="http://www.w3.org/2000/svg"
   xmlns="http://www.w3.org/2000/svg"
   xmlns:sodipodi="http://sodipodi.sourceforge.net/DTD/sodipodi-0.dtd"
   xmlns:inkscape="http://www.inkscape.org/namespaces/inkscape"
   width="32"
   height="32"
   id="svg3765"
   version="1.1"
   inkscape:version="0.48.3.1 r9886"
   sodipodi:docname="csv2.svg"
   inkscape:export-filename="/home/k00ni/Documents/semicon/owl.png"
   inkscape:export-xdpi="90"
   inkscape:export-ydpi="90">
  <defs
     id="defs3767" />
  <sodipodi:namedview
     id="base"
     pagecolor="#ffffff"
     bordercolor="#666666"
     borderopacity="1.0"
     inkscape:pageopacity="0.0"
     inkscape:pageshadow="2"
     inkscape:zoom="16"
     inkscape:cx="13.105641"
     inkscape:cy="17.647892"
     inkscape:current-layer="layer1-9"
     showgrid="true"
     inkscape:grid-bbox="true"
     inkscape:document-units="px"
     inkscape:window-width="1301"
     inkscape:window-height="744"
     inkscape:window-x="65"
     inkscape:window-y="24"
     inkscape:window-maximized="1"
     showguides="true"
     inkscape:guide-bbox="true" />
  <metadata
     id="metadata3770">
    <rdf:RDF>
      <cc:Work
         rdf:about="">
        <dc:format>image/svg+xml</dc:format>
        <dc:type
           rdf:resource="http://purl.org/dc/dcmitype/StillImage" />
        <dc:title />
      </cc:Work>
    </rdf:RDF>
  </metadata>
  <g
     id="layer1"
     inkscape:label="Layer 1"
     inkscape:groupmode="layer"
     transform="translate(0,-16)">
    <g
       inkscape:label="Layer 1"
       id="layer1-4"
       transform="translate(0.20202972,-1.9622142e-8)">
      <g
         transform="translate(-0.37059768,-0.09089584)"
         id="layer1-9"
         inkscape:label="Layer 1">
        <path
           inkscape:connector-curvature="0"
           id="path3939"
           style="font-size:11px;font-style:normal;font-variant:normal;font-weight:normal;font-stretch:normal;line-height:125%;letter-spacing:0px;word-spacing:0px;fill:#2d2d2d;fill-opacity:1;stroke:none;font-family:Ubuntu;-inkscape-font-specification:Ubuntu"
           d="m 13.369299,25.837277 c 0.06283,0.434773 0.09427,0.869501 0.09429,1.304241 -1.6e-5,0.380382 -1.6e-5,0.787984 0,1.222726 -1.6e-5,3.423634 -0.597187,6.792929 -1.791527,10.107871 -1.131505,3.369286 -2.703019,6.575539 -4.7145474,9.618781 L 0.16856796,46.21605 C 1.7400792,43.44453 2.7772778,40.618676 3.280169,37.738482 c 0.5028792,-2.825864 0.7543191,-5.48868 0.7543275,-7.98848 -6.8e-6,-0.70644 -0.031459,-1.38575 -0.094291,-2.037877 -6.7e-6,-0.652122 -0.031459,-1.277059 -0.094291,-1.874848 l 9.5233855,0"
           sodipodi:nodetypes="ccccccccccc" />
        <rect
           style="fill:#2d2d2d;fill-opacity:1;stroke:none"
           id="rect3947-3"
           width="9.6716089"
           height="6.1697698"
           x="3.6910787"
           y="16.090897"
           rx="144.66898"
           ry="0" />
        <path
           inkscape:connector-curvature="0"
           id="path3939-7"
           style="font-size:11px;font-style:normal;font-variant:normal;font-weight:normal;font-stretch:normal;line-height:125%;letter-spacing:0px;word-spacing:0px;fill:#2d2d2d;fill-opacity:1;stroke:none;font-family:Ubuntu;-inkscape-font-specification:Ubuntu"
           d="m 32.074269,25.799202 c 0.06283,0.434772 0.09428,0.8695 0.0943,1.304241 -1.6e-5,0.380382 -1.6e-5,0.787983 0,1.222726 -1.6e-5,3.423634 -0.597188,6.792928 -1.791528,10.107871 -1.131505,3.369286 -2.703019,6.575538 -4.714547,9.618781 l -6.788948,-1.874847 c 1.571512,-2.77152 2.608711,-5.597374 3.111602,-8.477568 0.502879,-2.825864 0.754319,-5.48868 0.754327,-7.988479 -6e-6,-0.706441 -0.03147,-1.38575 -0.0943,-2.037877 -6e-6,-0.652122 -0.03147,-1.27706 -0.0943,-1.874848 l 9.523385,0"
           sodipodi:nodetypes="ccccccccccc" />
      </g>
    </g>
  </g>
</svg>
