<?xml version="1.0" encoding="UTF-8" standalone="no"?>
<!-- Created with Inkscape (http://www.inkscape.org/) -->

<svg
   xmlns:dc="http://purl.org/dc/elements/1.1/"
   xmlns:cc="http://creativecommons.org/ns#"
   xmlns:rdf="http://www.w3.org/1999/02/22-rdf-syntax-ns#"
   xmlns:svg="http://www.w3.org/2000/svg"
   xmlns="http://www.w3.org/2000/svg"
   xmlns:sodipodi="http://sodipodi.sourceforge.net/DTD/sodipodi-0.dtd"
   xmlns:inkscape="http://www.inkscape.org/namespaces/inkscape"
   width="16"
   height="16"
   id="svg3765"
   version="1.1"
   inkscape:version="0.48.3.1 r9886"
   sodipodi:docname="rdfxml.svg"
   inkscape:export-filename="/home/k00ni/Documents/semicon/owl.png"
   inkscape:export-xdpi="90"
   inkscape:export-ydpi="90">
  <defs
     id="defs3767" />
  <sodipodi:namedview
     id="base"
     pagecolor="#ffffff"
     bordercolor="#666666"
     borderopacity="1.0"
     inkscape:pageopacity="0.0"
     inkscape:pageshadow="2"
     inkscape:zoom="39.59798"
     inkscape:cx="4.4139722"
     inkscape:cy="7.6882868"
     inkscape:current-layer="layer1-9-3"
     showgrid="true"
     inkscape:grid-bbox="true"
     inkscape:document-units="px"
     inkscape:window-width="1920"
     inkscape:window-height="1056"
     inkscape:window-x="0"
     inkscape:window-y="24"
     inkscape:window-maximized="1"
     showguides="true"
     inkscape:guide-bbox="true" />
  <metadata
     id="metadata3770">
    <rdf:RDF>
      <cc:Work
         rdf:about="">
        <dc:format>image/svg+xml</dc:format>
        <dc:type
           rdf:resource="http://purl.org/dc/dcmitype/StillImage" />
        <dc:title />
      </cc:Work>
    </rdf:RDF>
  </metadata>
  <g
     id="layer1"
     inkscape:label="Layer 1"
     inkscape:groupmode="layer"
     transform="translate(0,-32)">
    <g
       inkscape:label="Layer 1"
       id="layer1-4"
       transform="translate(0.20202972,-1.9622142e-8)">
      <g
         transform="translate(-0.37059768,-0.09089584)"
         id="layer1-9"
         inkscape:label="Layer 1">
        <g
           inkscape:label="Layer 1"
           id="layer1-9-3"
           transform="translate(-44.951788,-4.1416259)">
          <path
             sodipodi:type="arc"
             style="fill:#2d2d2d;fill-opacity:1;stroke:none"
             id="path2996"
             sodipodi:cx="5.2149124"
             sodipodi:cy="6.4919391"
             sodipodi:rx="1.5026019"
             sodipodi:ry="1.4268404"
             d="m 6.7175143,6.4919391 a 1.5026019,1.4268404 0 1 1 -3.0052037,0 1.5026019,1.4268404 0 1 1 3.0052037,0 z"
             transform="matrix(0.81512604,0,0,0.85840703,42.132236,45.422358)" />
          <path
             sodipodi:type="arc"
             style="fill:#2d2d2d;fill-opacity:1;stroke:none"
             id="path2996-8"
             sodipodi:cx="5.2149124"
             sodipodi:cy="6.4919391"
             sodipodi:rx="1.5026019"
             sodipodi:ry="1.4268404"
             d="m 6.7175143,6.4919391 a 1.5026019,1.4268404 0 1 1 -3.0052037,0 1.5026019,1.4268404 0 1 1 3.0052037,0 z"
             transform="matrix(0.81512604,0,0,0.85840703,42.132236,42.745454)" />
          <path
             sodipodi:type="arc"
             style="fill:#2d2d2d;fill-opacity:1;stroke:none"
             id="path2996-8-9"
             sodipodi:cx="5.2149124"
             sodipodi:cy="6.4919391"
             sodipodi:rx="1.5026019"
             sodipodi:ry="1.4268404"
             d="m 6.7175143,6.4919391 a 1.5026019,1.4268404 0 1 1 -3.0052037,0 1.5026019,1.4268404 0 1 1 3.0052037,0 z"
             transform="matrix(0.81512604,0,0,0.85840703,42.11961,40.068549)" />
          <path
             sodipodi:type="arc"
             style="fill:#2d2d2d;fill-opacity:1;stroke:none"
             id="path2996-0"
             sodipodi:cx="5.2149124"
             sodipodi:cy="6.4919391"
             sodipodi:rx="1.5026019"
             sodipodi:ry="1.4268404"
             d="m 6.7175143,6.4919391 a 1.5026019,1.4268404 0 1 1 -3.0052037,0 1.5026019,1.4268404 0 1 1 3.0052037,0 z"
             transform="matrix(0.81512604,0,0,0.85840703,42.151176,37.379018)" />
          <path
             sodipodi:type="arc"
             style="fill:#2d2d2d;fill-opacity:1;stroke:none"
             id="path2996-8-7"
             sodipodi:cx="5.2149124"
             sodipodi:cy="6.4919391"
             sodipodi:rx="1.5026019"
             sodipodi:ry="1.4268404"
             d="m 6.7175143,6.4919391 a 1.5026019,1.4268404 0 1 1 -3.0052037,0 1.5026019,1.4268404 0 1 1 3.0052037,0 z"
             transform="matrix(0.81512604,0,0,0.85840703,42.151176,34.702114)" />
          <path
             sodipodi:type="arc"
             style="fill:#2d2d2d;fill-opacity:1;stroke:none"
             id="path2996-8-9-2"
             sodipodi:cx="5.2149124"
             sodipodi:cy="6.4919391"
             sodipodi:rx="1.5026019"
             sodipodi:ry="1.4268404"
             d="m 6.7175143,6.4919391 a 1.5026019,1.4268404 0 1 1 -3.0052037,0 1.5026019,1.4268404 0 1 1 3.0052037,0 z"
             transform="matrix(0.81512604,0,0,0.85840703,42.13855,32.025209)" />
          <path
             sodipodi:type="arc"
             style="fill:#2d2d2d;fill-opacity:1;stroke:none"
             id="path2996-0-4"
             sodipodi:cx="5.2149124"
             sodipodi:cy="6.4919391"
             sodipodi:rx="1.5026019"
             sodipodi:ry="1.4268404"
             d="m 6.7175143,6.4919391 a 1.5026019,1.4268404 0 1 1 -3.0052037,0 1.5026019,1.4268404 0 1 1 3.0052037,0 z"
             transform="matrix(0.57638115,-0.57638115,0.60698543,0.60698543,46.006035,47.95864)" />
          <path
             sodipodi:type="arc"
             style="fill:#2d2d2d;fill-opacity:1;stroke:none"
             id="path2996-8-7-9"
             sodipodi:cx="5.2149124"
             sodipodi:cy="6.4919391"
             sodipodi:rx="1.5026019"
             sodipodi:ry="1.4268404"
             d="m 6.7175143,6.4919391 a 1.5026019,1.4268404 0 1 1 -3.0052037,0 1.5026019,1.4268404 0 1 1 3.0052037,0 z"
             transform="matrix(0.57638115,-0.57638115,0.60698543,0.60698543,44.113178,46.065783)" />
          <path
             sodipodi:type="arc"
             style="fill:#2d2d2d;fill-opacity:1;stroke:none"
             id="path2996-8-9-2-0"
             sodipodi:cx="5.2149124"
             sodipodi:cy="6.4919391"
             sodipodi:rx="1.5026019"
             sodipodi:ry="1.4268404"
             d="m 6.7175143,6.4919391 a 1.5026019,1.4268404 0 1 1 -3.0052037,0 1.5026019,1.4268404 0 1 1 3.0052037,0 z"
             transform="matrix(0.57638115,-0.57638115,0.60698543,0.60698543,42.211392,44.181853)" />
          <path
             sodipodi:type="arc"
             style="fill:#2d2d2d;fill-opacity:1;stroke:none"
             id="path2996-8-7-9-1"
             sodipodi:cx="5.2149124"
             sodipodi:cy="6.4919391"
             sodipodi:rx="1.5026019"
             sodipodi:ry="1.4268404"
             d="m 6.7175143,6.4919391 a 1.5026019,1.4268404 0 1 1 -3.0052037,0 1.5026019,1.4268404 0 1 1 3.0052037,0 z"
             transform="matrix(0.57638115,-0.57638115,0.60698543,0.60698543,48.011017,49.947297)" />
          <path
             sodipodi:type="arc"
             style="fill:#2d2d2d;fill-opacity:1;stroke:none"
             id="path2996-8-7-6"
             sodipodi:cx="5.2149124"
             sodipodi:cy="6.4919391"
             sodipodi:rx="1.5026019"
             sodipodi:ry="1.4268404"
             d="m 6.7175143,6.4919391 a 1.5026019,1.4268404 0 1 1 -3.0052037,0 1.5026019,1.4268404 0 1 1 3.0052037,0 z"
             transform="matrix(0,0.81512604,-0.85840703,0,54.7842,33.265051)" />
          <path
             sodipodi:type="arc"
             style="fill:#2d2d2d;fill-opacity:1;stroke:none"
             id="path2996-8-9-2-7"
             sodipodi:cx="5.2149124"
             sodipodi:cy="6.4919391"
             sodipodi:rx="1.5026019"
             sodipodi:ry="1.4268404"
             d="m 6.7175143,6.4919391 a 1.5026019,1.4268404 0 1 1 -3.0052037,0 1.5026019,1.4268404 0 1 1 3.0052037,0 z"
             transform="matrix(0,0.81512604,-0.85840703,0,57.461105,33.252425)" />
          <path
             sodipodi:type="arc"
             style="fill:#2d2d2d;fill-opacity:1;stroke:none"
             id="path2996-8-9-2-7-7"
             sodipodi:cx="5.2149124"
             sodipodi:cy="6.4919391"
             sodipodi:rx="1.5026019"
             sodipodi:ry="1.4268404"
             d="m 6.7175143,6.4919391 a 1.5026019,1.4268404 0 1 1 -3.0052037,0 1.5026019,1.4268404 0 1 1 3.0052037,0 z"
             transform="matrix(0,0.81512604,-0.85840703,0,59.986485,34.824474)" />
          <path
             sodipodi:type="arc"
             style="fill:#2d2d2d;fill-opacity:1;stroke:none"
             id="path2996-8-9-2-7-7-7"
             sodipodi:cx="5.2149124"
             sodipodi:cy="6.4919391"
             sodipodi:rx="1.5026019"
             sodipodi:ry="1.4268404"
             d="m 6.7175143,6.4919391 a 1.5026019,1.4268404 0 1 1 -3.0052037,0 1.5026019,1.4268404 0 1 1 3.0052037,0 z"
             transform="matrix(0,0.81512604,-0.85840703,0,57.511612,39.90049)" />
          <path
             sodipodi:type="arc"
             style="fill:#2d2d2d;fill-opacity:1;stroke:none"
             id="path2996-8-9-2-7-7-7-1"
             sodipodi:cx="5.2149124"
             sodipodi:cy="6.4919391"
             sodipodi:rx="1.5026019"
             sodipodi:ry="1.4268404"
             d="m 6.7175143,6.4919391 a 1.5026019,1.4268404 0 1 1 -3.0052037,0 1.5026019,1.4268404 0 1 1 3.0052037,0 z"
             transform="matrix(0,0.81512604,-0.85840703,0,59.910724,37.779171)" />
        </g>
      </g>
    </g>
  </g>
</svg>
