<?xml version="1.0" encoding="UTF-8" standalone="no"?>
<!-- Created with Inkscape (http://www.inkscape.org/) -->

<svg
   xmlns:dc="http://purl.org/dc/elements/1.1/"
   xmlns:cc="http://creativecommons.org/ns#"
   xmlns:rdf="http://www.w3.org/1999/02/22-rdf-syntax-ns#"
   xmlns:svg="http://www.w3.org/2000/svg"
   xmlns="http://www.w3.org/2000/svg"
   xmlns:sodipodi="http://sodipodi.sourceforge.net/DTD/sodipodi-0.dtd"
   xmlns:inkscape="http://www.inkscape.org/namespaces/inkscape"
   width="48px"
   height="48px"
   id="svg3765"
   version="1.1"
   inkscape:version="0.48.3.1 r9886"
   sodipodi:docname="version.svg"
   inkscape:export-filename="/home/k00ni/Documents/semicon/owl.png"
   inkscape:export-xdpi="90"
   inkscape:export-ydpi="90">
  <defs
     id="defs3767" />
  <sodipodi:namedview
     id="base"
     pagecolor="#ffffff"
     bordercolor="#666666"
     borderopacity="1.0"
     inkscape:pageopacity="0.0"
     inkscape:pageshadow="2"
     inkscape:zoom="7"
     inkscape:cx="2.9472731"
     inkscape:cy="27.548902"
     inkscape:current-layer="layer1-9-3"
     showgrid="true"
     inkscape:grid-bbox="true"
     inkscape:document-units="px"
     inkscape:window-width="1366"
     inkscape:window-height="744"
     inkscape:window-x="0"
     inkscape:window-y="24"
     inkscape:window-maximized="1" />
  <metadata
     id="metadata3770">
    <rdf:RDF>
      <cc:Work
         rdf:about="">
        <dc:format>image/svg+xml</dc:format>
        <dc:type
           rdf:resource="http://purl.org/dc/dcmitype/StillImage" />
        <dc:title />
      </cc:Work>
    </rdf:RDF>
  </metadata>
  <g
     id="layer1"
     inkscape:label="Layer 1"
     inkscape:groupmode="layer">
    <g
       inkscape:label="Layer 1"
       id="layer1-4"
       transform="translate(0.20202972,-1.9622142e-8)">
      <g
         transform="translate(-0.37059768,-0.09089584)"
         id="layer1-9"
         inkscape:label="Layer 1">
        <g
           inkscape:label="Layer 1"
           id="layer1-9-3"
           transform="translate(-44.951788,-4.1416259)">
          <path
             transform="matrix(0.99063909,0,0,0.99063908,40.251428,3.8899776)"
             d="M 53,24.428572 C 53,37.52561 42.382753,48.142857 29.285715,48.142857 16.188677,48.142857 5.5714302,37.52561 5.5714302,24.428572 5.5714302,11.331534 16.188677,0.7142868 29.285715,0.7142868 42.382753,0.7142868 53,11.331534 53,24.428572 z"
             sodipodi:ry="23.714285"
             sodipodi:rx="23.714285"
             sodipodi:cy="24.428572"
             sodipodi:cx="29.285715"
             id="path3773-80"
             style="fill:#2d2d2d;fill-opacity:1;stroke:none"
             sodipodi:type="arc" />
          <path
             transform="matrix(-0.07267813,0,0,0.07267813,130.46017,1.2626693)"
             d="M 53,24.428572 C 53,37.52561 42.382753,48.142857 29.285715,48.142857 16.188677,48.142857 5.5714302,37.52561 5.5714302,24.428572 5.5714302,11.331534 16.188677,0.7142868 29.285715,0.7142868 42.382753,0.7142868 53,11.331534 53,24.428572 z"
             sodipodi:ry="23.714285"
             sodipodi:rx="23.714285"
             sodipodi:cy="24.428572"
             sodipodi:cx="29.285715"
             id="path3773-80-3-7-1-9-9-3-3-9-3-7"
             style="fill:#ffffff;fill-opacity:1;stroke:none"
             sodipodi:type="arc" />
          <path
             inkscape:connector-curvature="0"
             id="path2998"
             style="font-size:18px;font-style:normal;font-variant:normal;font-weight:bold;font-stretch:normal;line-height:125%;letter-spacing:0px;word-spacing:0px;fill:#ffffff;fill-opacity:1;stroke:none;font-family:Ubuntu;-inkscape-font-specification:Ubuntu Bold"
             d="m 63.344895,32.946807 c -0.348008,-0.695999 -0.732008,-1.397999 -1.152,-2.106 -0.408007,-0.719997 -0.882007,-1.451996 -1.422,-2.196 -0.168006,0.216004 -0.384006,0.516004 -0.648,0.9 -0.252005,0.384003 -0.510005,0.792003 -0.774,1.224 -0.252004,0.432002 -0.492004,0.846001 -0.72,1.242 -0.228004,0.396001 -0.396004,0.708 -0.504,0.936 l -3.204,0 c 0.527999,-0.971999 1.139999,-1.991998 1.836,-3.06 0.707997,-1.067996 1.493996,-2.201995 2.358,-3.402 l -4.014,-6.012 3.402,0 2.43,3.888 2.376,-3.888 3.204,0 -3.96,6.048 c 1.007991,1.308005 1.85399,2.520004 2.538,3.636 0.683989,1.104002 1.223988,2.034001 1.62,2.79 l -3.366,0" />
          <path
             inkscape:connector-curvature="0"
             id="path3000"
             style="font-size:18px;font-style:normal;font-variant:normal;font-weight:bold;font-stretch:normal;line-height:125%;letter-spacing:0px;word-spacing:0px;fill:#ffffff;fill-opacity:1;stroke:none;font-family:Ubuntu;-inkscape-font-specification:Ubuntu Bold"
             d="m 71.535703,31.810521 c -4e-6,0.540001 -0.174004,0.954001 -0.522,1.242 -0.336003,0.276 -0.720003,0.414 -1.152,0.414 -0.432002,0 -0.822002,-0.138 -1.17,-0.414 -0.336001,-0.287999 -0.504001,-0.701999 -0.504,-1.242 -10e-7,-0.539998 0.167999,-0.947998 0.504,-1.224 0.347998,-0.287997 0.737998,-0.431997 1.17,-0.432 0.431997,3e-6 0.815997,0.144003 1.152,0.432 0.347996,0.276002 0.521996,0.684002 0.522,1.224" />
          <path
             inkscape:connector-curvature="0"
             id="path3002"
             style="font-size:18px;font-style:normal;font-variant:normal;font-weight:bold;font-stretch:normal;line-height:125%;letter-spacing:0px;word-spacing:0px;fill:#ffffff;fill-opacity:1;stroke:none;font-family:Ubuntu;-inkscape-font-specification:Ubuntu Bold"
             d="m 82.581002,23.764521 c -0.540009,1.824008 -1.104009,3.534006 -1.692,5.13 -0.588007,1.596003 -1.230007,3.144001 -1.926,4.644 -0.252006,0.539999 -0.504006,0.995999 -0.756,1.368 -0.252005,0.383998 -0.528005,0.695998 -0.828,0.936 -0.300004,0.251997 -0.642004,0.431997 -1.026,0.54 -0.372003,0.119997 -0.810003,0.179997 -1.314,0.18 -0.420002,-3e-6 -0.810001,-0.042 -1.17,-0.126 -0.348001,-0.072 -0.636,-0.156003 -0.864,-0.252 l 0.468,-2.142 c 0.275999,0.096 0.521999,0.161999 0.738,0.198 0.215998,0.036 0.443998,0.054 0.684,0.054 0.479997,-1e-6 0.845997,-0.132001 1.098,-0.396 0.263997,-0.252 0.485996,-0.606 0.666,-1.062 -0.612003,-1.199998 -1.224003,-2.543997 -1.836,-4.032 -0.612001,-1.499994 -1.188001,-3.179992 -1.728,-5.04 l 2.844,0 c 0.119997,0.468009 0.257997,0.978009 0.414,1.53 0.167996,0.540007 0.341996,1.092007 0.522,1.656 0.179996,0.552006 0.359996,1.092005 0.54,1.62 0.191995,0.528004 0.371995,1.008004 0.54,1.44 0.155995,-0.431996 0.317995,-0.911996 0.486,-1.44 0.167994,-0.527995 0.329994,-1.067994 0.486,-1.62 0.167994,-0.563993 0.323994,-1.115993 0.468,-1.656 0.155993,-0.551991 0.293993,-1.061991 0.414,-1.53 l 2.772,0" />
        </g>
      </g>
    </g>
  </g>
</svg>
