<?xml version="1.0" encoding="UTF-8" standalone="no"?>
<!-- Created with Inkscape (http://www.inkscape.org/) -->

<svg
   xmlns:dc="http://purl.org/dc/elements/1.1/"
   xmlns:cc="http://creativecommons.org/ns#"
   xmlns:rdf="http://www.w3.org/1999/02/22-rdf-syntax-ns#"
   xmlns:svg="http://www.w3.org/2000/svg"
   xmlns="http://www.w3.org/2000/svg"
   xmlns:sodipodi="http://sodipodi.sourceforge.net/DTD/sodipodi-0.dtd"
   xmlns:inkscape="http://www.inkscape.org/namespaces/inkscape"
   width="32"
   height="32"
   id="svg3765"
   version="1.1"
   inkscape:version="0.48.3.1 r9886"
   sodipodi:docname="traversing.svg"
   inkscape:export-filename="/home/k00ni/Documents/semicon/owl.png"
   inkscape:export-xdpi="90"
   inkscape:export-ydpi="90">
  <defs
     id="defs3767" />
  <sodipodi:namedview
     id="base"
     pagecolor="#ffffff"
     bordercolor="#666666"
     borderopacity="1.0"
     inkscape:pageopacity="0.0"
     inkscape:pageshadow="2"
     inkscape:zoom="19.79899"
     inkscape:cx="8.1347071"
     inkscape:cy="14.076673"
     inkscape:current-layer="layer1-9-3"
     showgrid="true"
     inkscape:grid-bbox="true"
     inkscape:document-units="px"
     inkscape:window-width="1920"
     inkscape:window-height="1056"
     inkscape:window-x="0"
     inkscape:window-y="24"
     inkscape:window-maximized="1"
     showguides="true"
     inkscape:guide-bbox="true" />
  <metadata
     id="metadata3770">
    <rdf:RDF>
      <cc:Work
         rdf:about="">
        <dc:format>image/svg+xml</dc:format>
        <dc:type
           rdf:resource="http://purl.org/dc/dcmitype/StillImage" />
        <dc:title />
      </cc:Work>
    </rdf:RDF>
  </metadata>
  <g
     id="layer1"
     inkscape:label="Layer 1"
     inkscape:groupmode="layer"
     transform="translate(0,-16)">
    <g
       inkscape:label="Layer 1"
       id="layer1-4"
       transform="translate(0.20202972,-1.9622142e-8)">
      <g
         transform="translate(-0.37059768,-0.09089584)"
         id="layer1-9"
         inkscape:label="Layer 1">
        <g
           inkscape:label="Layer 1"
           id="layer1-9-3"
           transform="translate(-44.951788,-4.1416259)">
          <path
             style="fill:none;stroke:#2d2d2d;stroke-width:3.41070652;stroke-linecap:butt;stroke-linejoin:miter;stroke-miterlimit:4;stroke-opacity:1;stroke-dasharray:none"
             d="m 47.975149,40.755592 c -1.181263,-1.272509 -1.579935,-5.074015 0.04303,-7.259441 2.684465,-3.614813 7.54513,-1.927527 10.182738,-1.010007"
             id="path3105"
             inkscape:connector-curvature="0"
             sodipodi:nodetypes="csc" />
          <path
             style="fill:#2d2d2d;fill-opacity:1;stroke:none"
             d="m 55.814634,24.389349 5.878021,8.841234 -9.364491,4.632632 c 0,0 3.479227,-13.445858 3.48647,-13.473866 z"
             id="rect3097"
             inkscape:connector-curvature="0"
             sodipodi:nodetypes="cccc" />
          <path
             sodipodi:type="arc"
             style="fill:#2d2d2d;fill-opacity:1;stroke:none"
             id="path3012-9-6-0-2-2"
             sodipodi:cx="4.1729803"
             sodipodi:cy="6.1568637"
             sodipodi:rx="1.3697568"
             sodipodi:ry="1.3697568"
             d="m 5.5427371,6.1568637 c 0,0.7564958 -0.613261,1.3697568 -1.3697568,1.3697568 -0.7564958,0 -1.3697568,-0.613261 -1.3697568,-1.3697568 0,-0.7564958 0.613261,-1.3697568 1.3697568,-1.3697568 0.7564958,0 1.3697568,0.613261 1.3697568,1.3697568 z"
             transform="matrix(2.1135361,-2.0158303,2.0057571,2.163066,27.958857,43.223493)" />
          <rect
             style="fill:#666666;fill-opacity:1;stroke:#2d2d2d;stroke-width:1.12546718;stroke-linecap:round;stroke-linejoin:round;stroke-miterlimit:4;stroke-opacity:1;stroke-dasharray:none"
             id="rect3201-8"
             width="0.8346439"
             height="16.409319"
             x="-66.796364"
             y="21.5926"
             rx="2.2493327"
             ry="1.6048512"
             transform="matrix(-0.466132,-0.88471518,0.87510035,-0.48394151,0,0)" />
          <path
             sodipodi:type="arc"
             style="fill:#2d2d2d;fill-opacity:1;stroke:none"
             id="path3012-9-6-0-2-2-7"
             sodipodi:cx="4.1729803"
             sodipodi:cy="6.1568637"
             sodipodi:rx="1.3697568"
             sodipodi:ry="1.3697568"
             d="m 5.5427371,6.1568637 c 0,0.7564958 -0.613261,1.3697568 -1.3697568,1.3697568 -0.7564958,0 -1.3697568,-0.613261 -1.3697568,-1.3697568 0,-0.7564958 0.613261,-1.3697568 1.3697568,-1.3697568 0.7564958,0 1.3697568,0.613261 1.3697568,1.3697568 z"
             transform="matrix(2.1135361,-2.0158303,2.0057571,2.163066,43.505707,34.594457)" />
          <rect
             style="fill:#666666;fill-opacity:1;stroke:#2d2d2d;stroke-width:1.12546718;stroke-linecap:round;stroke-linejoin:round;stroke-miterlimit:4;stroke-opacity:1;stroke-dasharray:none"
             id="rect3201-8-8"
             width="0.8346439"
             height="16.409319"
             x="-76.328659"
             y="0.92743415"
             rx="2.2493327"
             ry="1.6048512"
             transform="matrix(-0.84739927,-0.5309562,0.51369768,-0.85797127,0,0)" />
          <path
             sodipodi:type="arc"
             style="fill:#2d2d2d;fill-opacity:1;stroke:none"
             id="path3012-9-6-0-2-2-7-2"
             sodipodi:cx="4.1729803"
             sodipodi:cy="6.1568637"
             sodipodi:rx="1.3697568"
             sodipodi:ry="1.3697568"
             d="m 5.5427371,6.1568637 c 0,0.7564958 -0.613261,1.3697568 -1.3697568,1.3697568 -0.7564958,0 -1.3697568,-0.613261 -1.3697568,-1.3697568 0,-0.7564958 0.613261,-1.3697568 1.3697568,-1.3697568 0.7564958,0 1.3697568,0.613261 1.3697568,1.3697568 z"
             transform="matrix(0.83065989,-2.8574698,2.8739381,0.87945193,51.989898,30.902299)" />
        </g>
      </g>
    </g>
  </g>
</svg>
