<?xml version="1.0" encoding="UTF-8" standalone="no"?>
<!-- Created with Inkscape (http://www.inkscape.org/) -->

<svg
   xmlns:dc="http://purl.org/dc/elements/1.1/"
   xmlns:cc="http://creativecommons.org/ns#"
   xmlns:rdf="http://www.w3.org/1999/02/22-rdf-syntax-ns#"
   xmlns:svg="http://www.w3.org/2000/svg"
   xmlns="http://www.w3.org/2000/svg"
   xmlns:sodipodi="http://sodipodi.sourceforge.net/DTD/sodipodi-0.dtd"
   xmlns:inkscape="http://www.inkscape.org/namespaces/inkscape"
   width="16px"
   height="16px"
   id="svg2985"
   version="1.1"
   inkscape:version="0.48.3.1 r9886"
   sodipodi:docname="blank_node.svg">
  <defs
     id="defs2987" />
  <sodipodi:namedview
     id="base"
     pagecolor="#ffffff"
     bordercolor="#666666"
     borderopacity="1.0"
     inkscape:pageopacity="0.0"
     inkscape:pageshadow="2"
     inkscape:zoom="22.197802"
     inkscape:cx="4.7876154"
     inkscape:cy="6.5899651"
     inkscape:current-layer="layer1"
     showgrid="true"
     inkscape:grid-bbox="true"
     inkscape:document-units="px"
     inkscape:window-width="1366"
     inkscape:window-height="719"
     inkscape:window-x="0"
     inkscape:window-y="25"
     inkscape:window-maximized="1" />
  <metadata
     id="metadata2990">
    <rdf:RDF>
      <cc:Work
         rdf:about="">
        <dc:format>image/svg+xml</dc:format>
        <dc:type
           rdf:resource="http://purl.org/dc/dcmitype/StillImage" />
        <dc:title></dc:title>
      </cc:Work>
    </rdf:RDF>
  </metadata>
  <g
     id="layer1"
     inkscape:label="Layer 1"
     inkscape:groupmode="layer">
    <path
       sodipodi:type="arc"
       style="fill:#4d4d4d;fill-opacity:1;stroke:none"
       id="path3012-9-6-0-2-2-7"
       sodipodi:cx="4.1729803"
       sodipodi:cy="6.1568637"
       sodipodi:rx="1.3697568"
       sodipodi:ry="1.3697568"
       d="m 5.5427371,6.1568637 a 1.3697568,1.3697568 0 1 1 -2.7395136,0 1.3697568,1.3697568 0 1 1 2.7395136,0 z"
       transform="matrix(1.6385644,0.98188323,-0.98188323,1.6385644,12.233875,-10.776326)" />
    <path
       sodipodi:type="arc"
       style="fill:#4d4d4d;fill-opacity:1;stroke:none"
       id="path3012-9-6-0-2-2"
       sodipodi:cx="4.1729803"
       sodipodi:cy="6.1568637"
       sodipodi:rx="1.3697568"
       sodipodi:ry="1.3697568"
       d="m 5.5427371,6.1568637 a 1.3697568,1.3697568 0 1 1 -2.7395136,0 1.3697568,1.3697568 0 1 1 2.7395136,0 z"
       transform="matrix(1.9681823,1.1993977,-1.1993977,1.9681823,2.8105975,-13.659917)" />
    <rect
       style="fill:#4e4e4e;fill-opacity:1;stroke:none"
       id="rect3034-8-6-3"
       width="1.1024077"
       height="8.6643572"
       x="-0.57229573"
       y="-13.457364"
       rx="16.80299"
       ry="1.2529171"
       transform="matrix(-0.63080649,0.77594018,-0.69000525,-0.72380436,0,0)" />
    <rect
       style="fill:#2b2b2b;fill-opacity:1;stroke:none"
       id="rect3034-8"
       width="1.6257005"
       height="4.7648325"
       x="8.9297094"
       y="10.112422"
       rx="24.77906"
       ry="0.68902278" />
    <rect
       style="fill:#2c2c2c;fill-opacity:1;stroke:none"
       id="rect3034-8-6"
       width="1.5816818"
       height="2.3257632"
       x="10.112422"
       y="-11.597627"
       rx="24.108128"
       ry="0.336319"
       transform="matrix(0,1,-1,0,0,0)" />
    <rect
       style="fill:#2b2b2b;fill-opacity:1;stroke:none"
       id="rect3034-8-6-8-3"
       width="1.5391577"
       height="2.731941"
       x="14.087548"
       y="-11.654351"
       rx="23.459967"
       ry="0.39505473"
       transform="matrix(0,1,-1,0,0,0)" />
    <rect
       style="fill:#4e4e4e;fill-opacity:1;stroke:none"
       id="rect3034-8-6-3-6"
       width="1.2886155"
       height="4.7654705"
       x="-13.90362"
       y="-8.152854"
       rx="19.641186"
       ry="0.68911505"
       transform="matrix(-0.99304106,-0.11776864,0.12565625,-0.99207384,0,0)" />
    <path
       sodipodi:type="arc"
       style="fill:#4d4d4d;fill-opacity:1;stroke:none"
       id="path3012-9-6-0-2-2-6"
       sodipodi:cx="4.1729803"
       sodipodi:cy="6.1568637"
       sodipodi:rx="1.3697568"
       sodipodi:ry="1.3697568"
       d="m 5.5427371,6.1568637 a 1.3697568,1.3697568 0 1 1 -2.7395136,0 1.3697568,1.3697568 0 1 1 2.7395136,0 z"
       transform="matrix(1.7056754,-0.78422521,0.78422521,1.7056754,-9.1979951,6.0135664)" />
    <rect
       style="fill:#4e4e4e;fill-opacity:1;stroke:none"
       id="rect3034-8-6-3-2"
       width="1.2886155"
       height="4.7654705"
       x="12.842369"
       y="-6.5949135"
       rx="19.641186"
       ry="0.68911505"
       transform="matrix(0.15453635,0.9879871,-0.98918395,0.14668031,0,0)" />
    <rect
       style="fill:#2b2b2b;fill-opacity:1;stroke:none"
       id="rect3034-8-64"
       width="1.6257005"
       height="4.7648325"
       x="-15.05372"
       y="10.044343"
       rx="24.77906"
       ry="0.68902278"
       transform="scale(-1,1)" />
    <rect
       style="fill:#2c2c2c;fill-opacity:1;stroke:none"
       id="rect3034-8-6-39"
       width="1.5816818"
       height="2.3257632"
       x="10.044343"
       y="12.385803"
       rx="24.108128"
       ry="0.336319"
       transform="matrix(0,1,1,0,0,0)" />
    <rect
       style="fill:#2b2b2b;fill-opacity:1;stroke:none"
       id="rect3034-8-6-8-3-5"
       width="1.5391577"
       height="2.731941"
       x="14.019469"
       y="12.329079"
       rx="23.459967"
       ry="0.39505473"
       transform="matrix(0,1,1,0,0,0)" />
  </g>
</svg>
