<?xml version="1.0" encoding="UTF-8" standalone="no"?>
<!-- Created with Inkscape (http://www.inkscape.org/) -->

<svg
   xmlns:dc="http://purl.org/dc/elements/1.1/"
   xmlns:cc="http://creativecommons.org/ns#"
   xmlns:rdf="http://www.w3.org/1999/02/22-rdf-syntax-ns#"
   xmlns:svg="http://www.w3.org/2000/svg"
   xmlns="http://www.w3.org/2000/svg"
   xmlns:sodipodi="http://sodipodi.sourceforge.net/DTD/sodipodi-0.dtd"
   xmlns:inkscape="http://www.inkscape.org/namespaces/inkscape"
   width="32"
   height="32"
   id="svg2985"
   version="1.1"
   inkscape:version="0.48.3.1 r9886"
   sodipodi:docname="blank_node.svg">
  <defs
     id="defs2987" />
  <sodipodi:namedview
     id="base"
     pagecolor="#ffffff"
     bordercolor="#666666"
     borderopacity="1.0"
     inkscape:pageopacity="0.0"
     inkscape:pageshadow="2"
     inkscape:zoom="15.696216"
     inkscape:cx="18.798285"
     inkscape:cy="16.825201"
     inkscape:current-layer="layer1"
     showgrid="true"
     inkscape:grid-bbox="true"
     inkscape:document-units="px"
     inkscape:window-width="1920"
     inkscape:window-height="1056"
     inkscape:window-x="0"
     inkscape:window-y="24"
     inkscape:window-maximized="1" />
  <metadata
     id="metadata2990">
    <rdf:RDF>
      <cc:Work
         rdf:about="">
        <dc:format>image/svg+xml</dc:format>
        <dc:type
           rdf:resource="http://purl.org/dc/dcmitype/StillImage" />
        <dc:title />
      </cc:Work>
    </rdf:RDF>
  </metadata>
  <g
     id="layer1"
     inkscape:label="Layer 1"
     inkscape:groupmode="layer"
     transform="translate(0,16)">
    <path
       sodipodi:type="arc"
       style="fill:#2d2d2d;fill-opacity:1;stroke:none"
       id="path3012-9-6-0-2-2-7"
       sodipodi:cx="4.1729803"
       sodipodi:cy="6.1568637"
       sodipodi:rx="1.3697568"
       sodipodi:ry="1.3697568"
       d="m 5.5427371,6.1568637 a 1.3697568,1.3697568 0 1 1 -2.7395136,0 1.3697568,1.3697568 0 1 1 2.7395136,0 z"
       transform="matrix(3.3549597,2.0104054,-2.0104054,3.3549597,25.055595,-39.586074)" />
    <path
       sodipodi:type="arc"
       style="fill:#2d2d2d;fill-opacity:1;stroke:none"
       id="path3012-9-6-0-2-2"
       sodipodi:cx="4.1729803"
       sodipodi:cy="6.1568637"
       sodipodi:rx="1.3697568"
       sodipodi:ry="1.3697568"
       d="m 5.5427371,6.1568637 a 1.3697568,1.3697568 0 1 1 -2.7395136,0 1.3697568,1.3697568 0 1 1 2.7395136,0 z"
       transform="matrix(4.0298522,2.4557661,-2.4557661,4.0298522,4.8057948,-44.598291)" />
    <rect
       style="fill:#2d2d2d;fill-opacity:1;stroke:none"
       id="rect3034-8-6-3"
       width="2.2571793"
       height="17.740267"
       x="-12.04666"
       y="-16.236858"
       rx="34.404114"
       ry="2.565347"
       transform="matrix(-0.63080649,0.77594018,-0.69000525,-0.72380436,0,0)" />
    <rect
       style="fill:#2d2d2d;fill-opacity:1;stroke:none"
       id="rect3034-8-6-3-6"
       width="2.3777122"
       height="13.983523"
       x="-25.580889"
       y="3.5772102"
       rx="36.241291"
       ry="2.0220997"
       transform="matrix(-0.95501501,-0.29655746,0.18883791,-0.98200827,0,0)" />
    <path
       sodipodi:type="arc"
       style="fill:#2d2d2d;fill-opacity:1;stroke:none"
       id="path3012-9-6-0-2-2-6"
       sodipodi:cx="4.1729803"
       sodipodi:cy="6.1568637"
       sodipodi:rx="1.3697568"
       sodipodi:ry="1.3697568"
       d="m 5.5427371,6.1568637 a 1.3697568,1.3697568 0 1 1 -2.7395136,0 1.3697568,1.3697568 0 1 1 2.7395136,0 z"
       transform="matrix(3.4923695,-1.6057007,1.6057007,3.4923695,-19.144696,-3.9345866)" />
    <rect
       style="fill:#2d2d2d;fill-opacity:1;stroke:none"
       id="rect3034-8-6-3-2"
       width="2.6384394"
       height="9.7572985"
       x="10.17687"
       y="-15.705899"
       rx="40.215317"
       ry="1.4109627"
       transform="matrix(0.15453635,0.9879871,-0.98918395,0.14668031,0,0)" />
    <rect
       style="fill:#2d2d2d;fill-opacity:1;stroke:none"
       id="rect2994"
       width="3.4084647"
       height="11.212893"
       x="18.011164"
       y="4.7993641"
       rx="183.67932"
       ry="1.1793488" />
    <rect
       style="fill:#2d2d2d;fill-opacity:1;stroke:none"
       id="rect2994-3"
       width="2.9465697"
       height="5.9887037"
       x="-7.6025872"
       y="18.019127"
       rx="158.78819"
       ry="0.62987947"
       transform="matrix(0,-1,1,0,0,0)" />
    <rect
       style="fill:#2d2d2d;fill-opacity:1;stroke:none"
       id="rect2994-3-8"
       width="2.9465697"
       height="5.9887037"
       x="-16.0242"
       y="17.998533"
       rx="158.78819"
       ry="0.62987947"
       transform="matrix(0,-1,1,0,0,0)" />
    <rect
       style="fill:#2d2d2d;fill-opacity:1;stroke:none"
       id="rect2994-1"
       width="3.4084647"
       height="11.212893"
       x="-32.026421"
       y="-15.864508"
       rx="183.67932"
       ry="1.1793488"
       transform="scale(-1,-1)" />
    <rect
       style="fill:#2d2d2d;fill-opacity:1;stroke:none"
       id="rect2994-3-3"
       width="2.9465697"
       height="5.9887037"
       x="13.061285"
       y="-32.018459"
       rx="158.78819"
       ry="0.62987947"
       transform="matrix(0,1,-1,0,0,0)" />
    <rect
       style="fill:#2d2d2d;fill-opacity:1;stroke:none"
       id="rect2994-3-8-2"
       width="2.9465697"
       height="5.9887037"
       x="4.6396704"
       y="-32.039051"
       rx="158.78819"
       ry="0.62987947"
       transform="matrix(0,1,-1,0,0,0)" />
  </g>
</svg>
