<?xml version="1.0" encoding="UTF-8" standalone="no"?>
<!-- Created with Inkscape (http://www.inkscape.org/) -->

<svg
   xmlns:dc="http://purl.org/dc/elements/1.1/"
   xmlns:cc="http://creativecommons.org/ns#"
   xmlns:rdf="http://www.w3.org/1999/02/22-rdf-syntax-ns#"
   xmlns:svg="http://www.w3.org/2000/svg"
   xmlns="http://www.w3.org/2000/svg"
   xmlns:sodipodi="http://sodipodi.sourceforge.net/DTD/sodipodi-0.dtd"
   xmlns:inkscape="http://www.inkscape.org/namespaces/inkscape"
   width="32"
   height="32"
   id="svg2985"
   version="1.1"
   inkscape:version="0.48.3.1 r9886"
   sodipodi:docname="center3.svg">
  <defs
     id="defs2987" />
  <sodipodi:namedview
     id="base"
     pagecolor="#ffffff"
     bordercolor="#666666"
     borderopacity="1.0"
     inkscape:pageopacity="0.0"
     inkscape:pageshadow="2"
     inkscape:zoom="22.197802"
     inkscape:cx="5.9118558"
     inkscape:cy="12.324675"
     inkscape:current-layer="layer1"
     showgrid="true"
     inkscape:grid-bbox="true"
     inkscape:document-units="px"
     inkscape:window-width="1920"
     inkscape:window-height="1056"
     inkscape:window-x="0"
     inkscape:window-y="24"
     inkscape:window-maximized="1" />
  <metadata
     id="metadata2990">
    <rdf:RDF>
      <cc:Work
         rdf:about="">
        <dc:format>image/svg+xml</dc:format>
        <dc:type
           rdf:resource="http://purl.org/dc/dcmitype/StillImage" />
        <dc:title />
      </cc:Work>
    </rdf:RDF>
  </metadata>
  <g
     id="layer1"
     inkscape:label="Layer 1"
     inkscape:groupmode="layer"
     transform="translate(0,16)">
    <rect
       style="fill:#2d2d2d;fill-opacity:1;stroke:#2d2d2d;stroke-width:1.20416498;stroke-linecap:round;stroke-linejoin:round;stroke-miterlimit:4;stroke-opacity:1;stroke-dasharray:none"
       id="rect3201-8"
       width="0.88683558"
       height="17.678892"
       x="-12.133793"
       y="-6.8529835"
       rx="2.389987"
       ry="1.7290169"
       transform="matrix(-0.68061537,-0.73264092,0.72577483,-0.68793234,0,0)" />
    <path
       sodipodi:type="arc"
       style="fill:#2d2d2d;fill-opacity:1;stroke:none"
       id="path3012-9-6-0-2-2-9-5"
       sodipodi:cx="4.1729803"
       sodipodi:cy="6.1568637"
       sodipodi:rx="1.3697568"
       sodipodi:ry="1.3697568"
       d="m 5.5427371,6.1568637 a 1.3697568,1.3697568 0 1 1 -2.7395136,0 1.3697568,1.3697568 0 1 1 2.7395136,0 z"
       transform="matrix(3.1406094,0,0,3.1406094,-8.7147235,-7.7096139)" />
    <path
       sodipodi:type="arc"
       style="fill:#2d2d2d;fill-opacity:1;stroke:none"
       id="path3012-9-6-0-2-2-9-5-1"
       sodipodi:cx="4.1729803"
       sodipodi:cy="6.1568637"
       sodipodi:rx="1.3697568"
       sodipodi:ry="1.3697568"
       d="m 5.5427371,6.1568637 a 1.3697568,1.3697568 0 1 1 -2.7395136,0 1.3697568,1.3697568 0 1 1 2.7395136,0 z"
       transform="matrix(3.1406094,0,0,3.1406094,-8.8224683,-30.945024)" />
    <path
       sodipodi:type="arc"
       style="fill:#2d2d2d;fill-opacity:1;stroke:none"
       id="path3012-9-6-0-2-2-9-5-1-2"
       sodipodi:cx="4.1729803"
       sodipodi:cy="6.1568637"
       sodipodi:rx="1.3697568"
       sodipodi:ry="1.3697568"
       d="m 5.5427371,6.1568637 a 1.3697568,1.3697568 0 1 1 -2.7395136,0 1.3697568,1.3697568 0 1 1 2.7395136,0 z"
       transform="matrix(3.1406094,0,0,3.1406094,14.312939,-30.863804)" />
    <path
       sodipodi:type="arc"
       style="fill:#2d2d2d;fill-opacity:1;stroke:none"
       id="path3012-9-6-0-2-2-9-5-1-2-9"
       sodipodi:cx="4.1729803"
       sodipodi:cy="6.1568637"
       sodipodi:rx="1.3697568"
       sodipodi:ry="1.3697568"
       d="m 5.5427371,6.1568637 a 1.3697568,1.3697568 0 1 1 -2.7395136,0 1.3697568,1.3697568 0 1 1 2.7395136,0 z"
       transform="matrix(3.1406094,0,0,3.1406094,14.186414,-7.7096141)" />
    <rect
       style="fill:#2d2d2d;fill-opacity:1;stroke:#2d2d2d;stroke-width:1.20416498;stroke-linecap:round;stroke-linejoin:round;stroke-miterlimit:4;stroke-opacity:1;stroke-dasharray:none"
       id="rect3201-8-6"
       width="0.88683558"
       height="17.678892"
       x="10.5092"
       y="11.640788"
       rx="2.389987"
       ry="1.7290169"
       transform="matrix(0.70519275,-0.70901564,0.71605578,0.69804306,0,0)"
       inkscape:transform-center-x="5.1564699"
       inkscape:transform-center-y="-3.4513488" />
    <rect
       style="fill:#2d2d2d;fill-opacity:1;stroke:#2d2d2d;stroke-width:1.20416498;stroke-linecap:round;stroke-linejoin:round;stroke-miterlimit:4;stroke-opacity:1;stroke-dasharray:none"
       id="rect3201-8-3"
       width="0.88683558"
       height="17.678892"
       x="-12.082687"
       y="-27.951775"
       rx="2.389987"
       ry="1.7290169"
       transform="matrix(-0.7187144,-0.69530541,-0.7024819,0.71170161,0,0)" />
    <rect
       style="fill:#2d2d2d;fill-opacity:1;stroke:#2d2d2d;stroke-width:1.20416498;stroke-linecap:round;stroke-linejoin:round;stroke-miterlimit:4;stroke-opacity:1;stroke-dasharray:none"
       id="rect3201-8-6-0"
       width="0.88683558"
       height="17.678892"
       x="10.545649"
       y="-12.344955"
       rx="2.389987"
       ry="1.7290169"
       transform="matrix(0.67582191,-0.73706495,-0.73024673,-0.68318352,0,0)"
       inkscape:transform-center-x="-3.6849212"
       inkscape:transform-center-y="4.9922291" />
    <path
       sodipodi:type="arc"
       style="fill:#2d2d2d;fill-opacity:1;stroke:none"
       id="path3012-9-6-0-2-2-9-5-1-9"
       sodipodi:cx="4.1729803"
       sodipodi:cy="6.1568637"
       sodipodi:rx="1.3697568"
       sodipodi:ry="1.3697568"
       d="m 5.5427371,6.1568637 a 1.3697568,1.3697568 0 1 1 -2.7395136,0 1.3697568,1.3697568 0 1 1 2.7395136,0 z"
       transform="matrix(2.2797203,-2.1601627,2.1601627,2.2797203,-18.533675,-5.0869592)" />
    <rect
       style="fill:#2d2d2d;fill-opacity:1;stroke:#2d2d2d;stroke-width:0.81957126;stroke-linecap:round;stroke-linejoin:round;stroke-miterlimit:4;stroke-opacity:1;stroke-dasharray:none"
       id="rect3201-8-6-0-5"
       width="0.88674194"
       height="8.1903477"
       x="-0.6960386"
       y="-12.054275"
       rx="2.3897347"
       ry="0.80102581"
       transform="matrix(-0.00759652,-0.99997115,-0.99990567,0.01373507,0,0)"
       inkscape:transform-center-x="-2.8297916"
       inkscape:transform-center-y="1.0892332" />
    <path
       sodipodi:type="arc"
       style="fill:#2d2d2d;fill-opacity:1;stroke:none"
       id="path3012-9-6-0-2-2-9-5-1-9-2"
       sodipodi:cx="4.1729803"
       sodipodi:cy="6.1568637"
       sodipodi:rx="1.3697568"
       sodipodi:ry="1.3697568"
       d="m 5.5427371,6.1568637 a 1.3697568,1.3697568 0 1 1 -2.7395136,0 1.3697568,1.3697568 0 1 1 2.7395136,0 z"
       transform="matrix(-2.2797203,-2.1601627,-2.1601627,2.2797203,50.528657,-5.0352783)" />
    <rect
       style="fill:#2d2d2d;fill-opacity:1;stroke:#2d2d2d;stroke-width:0.81957126;stroke-linecap:round;stroke-linejoin:round;stroke-miterlimit:4;stroke-opacity:1;stroke-dasharray:none"
       id="rect3201-8-6-0-5-8"
       width="0.88674194"
       height="8.1903477"
       x="-0.30825523"
       y="19.940779"
       rx="2.3897347"
       ry="0.80102581"
       transform="matrix(0.00759652,-0.99997115,0.99990567,0.01373507,0,0)"
       inkscape:transform-center-x="2.8297918"
       inkscape:transform-center-y="1.0892342" />
    <path
       sodipodi:type="arc"
       style="fill:#2d2d2d;fill-opacity:1;stroke:none"
       id="path3012-9-6-0-2-2-9-5-1-9-0"
       sodipodi:cx="4.1729803"
       sodipodi:cy="6.1568637"
       sodipodi:rx="1.3697568"
       sodipodi:ry="1.3697568"
       d="m 5.5427371,6.1568637 a 1.3697568,1.3697568 0 1 1 -2.7395136,0 1.3697568,1.3697568 0 1 1 2.7395136,0 z"
       transform="matrix(2.1601627,2.2797203,-2.2797203,2.1601627,21.222096,-34.490273)" />
    <rect
       style="fill:#2d2d2d;fill-opacity:1;stroke:#2d2d2d;stroke-width:0.81957126;stroke-linecap:round;stroke-linejoin:round;stroke-miterlimit:4;stroke-opacity:1;stroke-dasharray:none"
       id="rect3201-8-6-0-5-6"
       width="0.88674194"
       height="8.1903477"
       x="15.658916"
       y="3.9155045"
       rx="2.3897347"
       ry="0.80102581"
       transform="matrix(0.99997115,-0.00759652,-0.01373507,-0.99990567,0,0)"
       inkscape:transform-center-x="1.0892331"
       inkscape:transform-center-y="2.8297912" />
    <path
       sodipodi:type="arc"
       style="fill:#2d2d2d;fill-opacity:1;stroke:none"
       id="path3012-9-6-0-2-2-9-5-1-9-2-1"
       sodipodi:cx="4.1729803"
       sodipodi:cy="6.1568637"
       sodipodi:rx="1.3697568"
       sodipodi:ry="1.3697568"
       d="m 5.5427371,6.1568637 a 1.3697568,1.3697568 0 1 1 -2.7395136,0 1.3697568,1.3697568 0 1 1 2.7395136,0 z"
       transform="matrix(2.1601627,-2.2797203,-2.2797203,-2.1601627,21.170415,34.436142)" />
    <rect
       style="fill:#2d2d2d;fill-opacity:1;stroke:#2d2d2d;stroke-width:0.81957126;stroke-linecap:round;stroke-linejoin:round;stroke-miterlimit:4;stroke-opacity:1;stroke-dasharray:none"
       id="rect3201-8-6-0-5-8-4"
       width="0.88674194"
       height="8.1903477"
       x="15.604625"
       y="3.7258508"
       rx="2.3897347"
       ry="0.80102581"
       transform="matrix(0.99997115,0.00759652,-0.01373507,0.99990567,0,0)"
       inkscape:transform-center-x="1.0892367"
       inkscape:transform-center-y="-2.8297917" />
  </g>
</svg>
