<?xml version="1.0" encoding="UTF-8" standalone="no"?>
<!-- Created with Inkscape (http://www.inkscape.org/) -->

<svg
   xmlns:dc="http://purl.org/dc/elements/1.1/"
   xmlns:cc="http://creativecommons.org/ns#"
   xmlns:rdf="http://www.w3.org/1999/02/22-rdf-syntax-ns#"
   xmlns:svg="http://www.w3.org/2000/svg"
   xmlns="http://www.w3.org/2000/svg"
   xmlns:sodipodi="http://sodipodi.sourceforge.net/DTD/sodipodi-0.dtd"
   xmlns:inkscape="http://www.inkscape.org/namespaces/inkscape"
   width="16px"
   height="16px"
   id="svg2985"
   version="1.1"
   inkscape:version="0.48.3.1 r9886"
   sodipodi:docname="center3.svg">
  <defs
     id="defs2987" />
  <sodipodi:namedview
     id="base"
     pagecolor="#ffffff"
     bordercolor="#666666"
     borderopacity="1.0"
     inkscape:pageopacity="0.0"
     inkscape:pageshadow="2"
     inkscape:zoom="15.696216"
     inkscape:cx="4.191103"
     inkscape:cy="5.4680932"
     inkscape:current-layer="layer1"
     showgrid="true"
     inkscape:grid-bbox="true"
     inkscape:document-units="px"
     inkscape:window-width="1366"
     inkscape:window-height="719"
     inkscape:window-x="0"
     inkscape:window-y="25"
     inkscape:window-maximized="1" />
  <metadata
     id="metadata2990">
    <rdf:RDF>
      <cc:Work
         rdf:about="">
        <dc:format>image/svg+xml</dc:format>
        <dc:type
           rdf:resource="http://purl.org/dc/dcmitype/StillImage" />
        <dc:title></dc:title>
      </cc:Work>
    </rdf:RDF>
  </metadata>
  <g
     id="layer1"
     inkscape:label="Layer 1"
     inkscape:groupmode="layer">
    <rect
       style="fill:#2d2d2d;fill-opacity:1;stroke:#2d2d2d;stroke-width:0.60633486999999997;stroke-linecap:round;stroke-linejoin:round;stroke-miterlimit:4;stroke-opacity:1;stroke-dasharray:none"
       id="rect3201-8"
       width="0.44654953"
       height="8.9018764"
       x="-12.004369"
       y="-8.8647957"
       rx="1.2034335"
       ry="0.87061429"
       transform="matrix(-0.68061537,-0.73264092,0.72577483,-0.68793234,0,0)" />
    <path
       sodipodi:type="arc"
       style="fill:#2d2d2d;fill-opacity:1;stroke:none"
       id="path3012-9-6-0-2-2-9-5"
       sodipodi:cx="4.1729803"
       sodipodi:cy="6.1568637"
       sodipodi:rx="1.3697568"
       sodipodi:ry="1.3697568"
       d="m 5.5427371,6.1568637 a 1.3697568,1.3697568 0 1 1 -2.7395136,0 1.3697568,1.3697568 0 1 1 2.7395136,0 z"
       transform="matrix(1.5813954,0,0,1.5813954,-4.3055854,4.1611466)" />
    <path
       sodipodi:type="arc"
       style="fill:#2d2d2d;fill-opacity:1;stroke:none"
       id="path3012-9-6-0-2-2-9-5-1"
       sodipodi:cx="4.1729803"
       sodipodi:cy="6.1568637"
       sodipodi:rx="1.3697568"
       sodipodi:ry="1.3697568"
       d="m 5.5427371,6.1568637 a 1.3697568,1.3697568 0 1 1 -2.7395136,0 1.3697568,1.3697568 0 1 1 2.7395136,0 z"
       transform="matrix(1.5813954,0,0,1.5813954,-4.4967143,-7.5614241)" />
    <path
       sodipodi:type="arc"
       style="fill:#2d2d2d;fill-opacity:1;stroke:none"
       id="path3012-9-6-0-2-2-9-5-1-2"
       sodipodi:cx="4.1729803"
       sodipodi:cy="6.1568637"
       sodipodi:rx="1.3697568"
       sodipodi:ry="1.3697568"
       d="m 5.5427371,6.1568637 a 1.3697568,1.3697568 0 1 1 -2.7395136,0 1.3697568,1.3697568 0 1 1 2.7395136,0 z"
       transform="matrix(1.5813954,0,0,1.5813954,7.2895659,-7.4977145)" />
    <path
       sodipodi:type="arc"
       style="fill:#2d2d2d;fill-opacity:1;stroke:none"
       id="path3012-9-6-0-2-2-9-5-1-2-9"
       sodipodi:cx="4.1729803"
       sodipodi:cy="6.1568637"
       sodipodi:rx="1.3697568"
       sodipodi:ry="1.3697568"
       d="m 5.5427371,6.1568637 a 1.3697568,1.3697568 0 1 1 -2.7395136,0 1.3697568,1.3697568 0 1 1 2.7395136,0 z"
       transform="matrix(1.5813954,0,0,1.5813954,7.2258562,4.1611465)" />
    <rect
       style="fill:#2d2d2d;fill-opacity:1;stroke:#2d2d2d;stroke-width:0.60633486999999997;stroke-linecap:round;stroke-linejoin:round;stroke-miterlimit:4;stroke-opacity:1;stroke-dasharray:none"
       id="rect3201-8-6"
       width="0.44654953"
       height="8.9018764"
       x="-0.41031554"
       y="11.592313"
       rx="1.2034335"
       ry="0.87061429"
       transform="matrix(0.70519275,-0.70901564,0.71605578,0.69804306,0,0)"
       inkscape:transform-center-x="2.5964443"
       inkscape:transform-center-y="-1.7378624" />
    <rect
       style="fill:#2d2d2d;fill-opacity:1;stroke:#2d2d2d;stroke-width:0.60633486999999997;stroke-linecap:round;stroke-linejoin:round;stroke-miterlimit:4;stroke-opacity:1;stroke-dasharray:none"
       id="rect3201-8-3"
       width="0.44654953"
       height="8.9018764"
       x="-11.79324"
       y="-8.3509569"
       rx="1.2034335"
       ry="0.87061429"
       transform="matrix(-0.7187144,-0.69530541,-0.7024819,0.71170161,0,0)" />
    <rect
       style="fill:#2d2d2d;fill-opacity:1;stroke:#2d2d2d;stroke-width:0.60633486999999997;stroke-linecap:round;stroke-linejoin:round;stroke-miterlimit:4;stroke-opacity:1;stroke-dasharray:none"
       id="rect3201-8-6-0"
       width="0.44654953"
       height="8.9018764"
       x="-0.50733459"
       y="-11.712952"
       rx="1.2034335"
       ry="0.87061429"
       transform="matrix(0.67582191,-0.73706495,-0.73024673,-0.68318352,0,0)"
       inkscape:transform-center-x="-1.8554738"
       inkscape:transform-center-y="2.5137442" />
    <path
       sodipodi:type="arc"
       style="fill:#2d2d2d;fill-opacity:1;stroke:none"
       id="path3012-9-6-0-2-2-9-5-1-9"
       sodipodi:cx="4.1729803"
       sodipodi:cy="6.1568637"
       sodipodi:rx="1.3697568"
       sodipodi:ry="1.3697568"
       d="m 5.5427371,6.1568637 a 1.3697568,1.3697568 0 1 1 -2.7395136,0 1.3697568,1.3697568 0 1 1 2.7395136,0 z"
       transform="matrix(1.1479107,-1.0877097,1.0877097,1.1479107,-9.2497352,5.4817356)" />
    <rect
       style="fill:#2d2d2d;fill-opacity:1;stroke:#2d2d2d;stroke-width:0.41267985000000001;stroke-linecap:round;stroke-linejoin:round;stroke-miterlimit:4;stroke-opacity:1;stroke-dasharray:none"
       id="rect3201-8-6-0-5"
       width="0.44650239"
       height="4.1240969"
       x="-8.3941832"
       y="-6.0911546"
       rx="1.2033064"
       ry="0.40334165"
       transform="matrix(-0.00759652,-0.99997115,-0.99990567,0.01373507,0,0)"
       inkscape:transform-center-x="-1.4248887"
       inkscape:transform-center-y="0.54846314" />
    <path
       sodipodi:type="arc"
       style="fill:#2d2d2d;fill-opacity:1;stroke:none"
       id="path3012-9-6-0-2-2-9-5-1-9-2"
       sodipodi:cx="4.1729803"
       sodipodi:cy="6.1568637"
       sodipodi:rx="1.3697568"
       sodipodi:ry="1.3697568"
       d="m 5.5427371,6.1568637 a 1.3697568,1.3697568 0 1 1 -2.7395136,0 1.3697568,1.3697568 0 1 1 2.7395136,0 z"
       transform="matrix(-1.1479107,-1.0877097,-1.0877097,1.1479107,25.525316,5.5077585)" />
    <rect
       style="fill:#2d2d2d;fill-opacity:1;stroke:#2d2d2d;stroke-width:0.41267985000000001;stroke-linecap:round;stroke-linejoin:round;stroke-miterlimit:4;stroke-opacity:1;stroke-dasharray:none"
       id="rect3201-8-6-0-5-8"
       width="0.44650239"
       height="4.1240969"
       x="-8.1966543"
       y="10.18446"
       rx="1.2033064"
       ry="0.40334165"
       transform="matrix(0.00759652,-0.99997115,0.99990567,0.01373507,0,0)"
       inkscape:transform-center-x="1.4248889"
       inkscape:transform-center-y="0.54846363" />
    <path
       sodipodi:type="arc"
       style="fill:#2d2d2d;fill-opacity:1;stroke:none"
       id="path3012-9-6-0-2-2-9-5-1-9-0"
       sodipodi:cx="4.1729803"
       sodipodi:cy="6.1568637"
       sodipodi:rx="1.3697568"
       sodipodi:ry="1.3697568"
       d="m 5.5427371,6.1568637 a 1.3697568,1.3697568 0 1 1 -2.7395136,0 1.3697568,1.3697568 0 1 1 2.7395136,0 z"
       transform="matrix(1.0877097,1.1479107,-1.1479107,1.0877097,10.768543,-9.3921933)" />
    <rect
       style="fill:#2d2d2d;fill-opacity:1;stroke:#2d2d2d;stroke-width:0.41267985000000001;stroke-linecap:round;stroke-linejoin:round;stroke-miterlimit:4;stroke-opacity:1;stroke-dasharray:none"
       id="rect3201-8-6-0-5-6"
       width="0.44650239"
       height="4.1240969"
       x="7.8568244"
       y="-6.0721464"
       rx="1.2033064"
       ry="0.40334165"
       transform="matrix(0.99997115,-0.00759652,-0.01373507,-0.99990567,0,0)"
       inkscape:transform-center-x="0.5484638"
       inkscape:transform-center-y="1.4248888" />
    <path
       sodipodi:type="arc"
       style="fill:#2d2d2d;fill-opacity:1;stroke:none"
       id="path3012-9-6-0-2-2-9-5-1-9-2-1"
       sodipodi:cx="4.1729803"
       sodipodi:cy="6.1568637"
       sodipodi:rx="1.3697568"
       sodipodi:ry="1.3697568"
       d="m 5.5427371,6.1568637 a 1.3697568,1.3697568 0 1 1 -2.7395136,0 1.3697568,1.3697568 0 1 1 2.7395136,0 z"
       transform="matrix(1.0877097,-1.1479107,-1.1479107,-1.0877097,10.74252,25.382858)" />
    <rect
       style="fill:#2d2d2d;fill-opacity:1;stroke:#2d2d2d;stroke-width:0.41267985000000001;stroke-linecap:round;stroke-linejoin:round;stroke-miterlimit:4;stroke-opacity:1;stroke-dasharray:none"
       id="rect3201-8-6-0-5-8-4"
       width="0.44650239"
       height="4.1240969"
       x="8.0504389"
       y="9.9185543"
       rx="1.2033064"
       ry="0.40334165"
       transform="matrix(0.99997115,0.00759652,-0.01373507,0.99990567,0,0)"
       inkscape:transform-center-x="0.54846513"
       inkscape:transform-center-y="-1.4248891" />
  </g>
</svg>
