<?xml version="1.0" encoding="UTF-8" standalone="no"?>
<!-- Created with Inkscape (http://www.inkscape.org/) -->

<svg
   xmlns:dc="http://purl.org/dc/elements/1.1/"
   xmlns:cc="http://creativecommons.org/ns#"
   xmlns:rdf="http://www.w3.org/1999/02/22-rdf-syntax-ns#"
   xmlns:svg="http://www.w3.org/2000/svg"
   xmlns="http://www.w3.org/2000/svg"
   xmlns:sodipodi="http://sodipodi.sourceforge.net/DTD/sodipodi-0.dtd"
   xmlns:inkscape="http://www.inkscape.org/namespaces/inkscape"
   width="32"
   height="32"
   id="svg2985"
   version="1.1"
   inkscape:version="0.48.3.1 r9886"
   sodipodi:docname="circle.svg">
  <defs
     id="defs2987" />
  <sodipodi:namedview
     id="base"
     pagecolor="#ffffff"
     bordercolor="#666666"
     borderopacity="1.0"
     inkscape:pageopacity="0.0"
     inkscape:pageshadow="2"
     inkscape:zoom="31.392432"
     inkscape:cx="22.290642"
     inkscape:cy="17.35712"
     inkscape:current-layer="layer1"
     showgrid="true"
     inkscape:grid-bbox="true"
     inkscape:document-units="px"
     inkscape:window-width="1920"
     inkscape:window-height="1056"
     inkscape:window-x="0"
     inkscape:window-y="24"
     inkscape:window-maximized="1" />
  <metadata
     id="metadata2990">
    <rdf:RDF>
      <cc:Work
         rdf:about="">
        <dc:format>image/svg+xml</dc:format>
        <dc:type
           rdf:resource="http://purl.org/dc/dcmitype/StillImage" />
        <dc:title />
      </cc:Work>
    </rdf:RDF>
  </metadata>
  <g
     id="layer1"
     inkscape:label="Layer 1"
     inkscape:groupmode="layer"
     transform="translate(0,16)">
    <path
       sodipodi:type="arc"
       style="fill:#2d2d2d;fill-opacity:1;stroke:none"
       id="path3012-9-6-0-2-2"
       sodipodi:cx="4.1729803"
       sodipodi:cy="6.1568637"
       sodipodi:rx="1.3697568"
       sodipodi:ry="1.3697568"
       d="m 5.5427371,6.1568637 a 1.3697568,1.3697568 0 1 1 -2.7395136,0 1.3697568,1.3697568 0 1 1 2.7395136,0 z"
       transform="matrix(3.1565154,0,0,3.1565154,-8.8495556,-31.126053)" />
    <rect
       style="fill:#666666;fill-opacity:1;stroke:#2d2d2d;stroke-width:1.19761908;stroke-linecap:round;stroke-linejoin:round;stroke-miterlimit:4;stroke-opacity:1;stroke-dasharray:none"
       id="rect3201"
       width="0.89016497"
       height="17.421801"
       x="3.9150891"
       y="-13.56192"
       rx="2.3989596"
       ry="1.7038732"
       transform="matrix(0.99894599,-0.04590113,0.04590113,0.99894599,0,0)" />
    <rect
       style="fill:#666666;fill-opacity:1;stroke:#2d2d2d;stroke-width:1.21026361;stroke-linecap:round;stroke-linejoin:round;stroke-miterlimit:4;stroke-opacity:1;stroke-dasharray:none"
       id="rect3201-8"
       width="0.89132702"
       height="17.768429"
       x="11.177444"
       y="3.4107249"
       rx="2.4020915"
       ry="1.7377738"
       transform="matrix(0.1647514,-0.98633512,0.98793857,0.15484634,0,0)" />
    <rect
       style="fill:#666666;fill-opacity:1;stroke:#2d2d2d;stroke-width:1.19761908;stroke-linecap:round;stroke-linejoin:round;stroke-miterlimit:4;stroke-opacity:1;stroke-dasharray:none"
       id="rect3201-8-4"
       width="0.89016497"
       height="17.421801"
       x="-26.269272"
       y="-15.686922"
       rx="2.3989596"
       ry="1.7038732"
       transform="matrix(-0.98871734,0.14979329,-0.14979329,-0.98871734,0,0)" />
    <rect
       style="fill:#666666;fill-opacity:1;stroke:#2d2d2d;stroke-width:1.19761908;stroke-linecap:round;stroke-linejoin:round;stroke-miterlimit:4;stroke-opacity:1;stroke-dasharray:none"
       id="rect3201-8-4-4"
       width="0.89016497"
       height="17.421801"
       x="13.557514"
       y="-24.411715"
       rx="2.3989596"
       ry="1.7038732"
       transform="matrix(0.18542931,0.98265761,-0.98265761,0.18542931,0,0)" />
    <rect
       style="fill:#666666;fill-opacity:1;stroke:#2d2d2d;stroke-width:1.19761908;stroke-linecap:round;stroke-linejoin:round;stroke-miterlimit:4;stroke-opacity:1;stroke-dasharray:none"
       id="rect3201-7"
       width="0.89016497"
       height="17.421801"
       x="2.9744351"
       y="-0.49613038"
       rx="2.3989596"
       ry="1.7038732"
       transform="matrix(0.90332953,-0.42894727,0.42894727,0.90332953,0,0)" />
    <path
       sodipodi:type="arc"
       style="fill:#2d2d2d;fill-opacity:1;stroke:none"
       id="path3012-9-6-0-2-2-7"
       sodipodi:cx="4.1729803"
       sodipodi:cy="6.1568637"
       sodipodi:rx="1.3697568"
       sodipodi:ry="1.3697568"
       d="m 5.5427371,6.1568637 a 1.3697568,1.3697568 0 1 1 -2.7395136,0 1.3697568,1.3697568 0 1 1 2.7395136,0 z"
       transform="matrix(3.1565154,0,0,3.1565154,10.735212,-26.832858)" />
    <path
       sodipodi:type="arc"
       style="fill:#2d2d2d;fill-opacity:1;stroke:none"
       id="path3012-9-6-0-2-2-3"
       sodipodi:cx="4.1729803"
       sodipodi:cy="6.1568637"
       sodipodi:rx="1.3697568"
       sodipodi:ry="1.3697568"
       d="m 5.5427371,6.1568637 a 1.3697568,1.3697568 0 1 1 -2.7395136,0 1.3697568,1.3697568 0 1 1 2.7395136,0 z"
       transform="matrix(3.1565154,0,0,3.1565154,14.550205,-10.783595)" />
    <path
       sodipodi:type="arc"
       style="fill:#2d2d2d;fill-opacity:1;stroke:none"
       id="path3012-9-6-0-2-2-3-2"
       sodipodi:cx="4.1729803"
       sodipodi:cy="6.1568637"
       sodipodi:rx="1.3697568"
       sodipodi:ry="1.3697568"
       d="m 5.5427371,6.1568637 a 1.3697568,1.3697568 0 1 1 -2.7395136,0 1.3697568,1.3697568 0 1 1 2.7395136,0 z"
       transform="matrix(3.1565154,0,0,3.1565154,-2.9987623,-7.7578937)" />
    <path
       sodipodi:type="arc"
       style="fill:#2d2d2d;fill-opacity:1;stroke:none"
       id="path3012-9-6-0-2-2-3-2-7"
       sodipodi:cx="4.1729803"
       sodipodi:cy="6.1568637"
       sodipodi:rx="1.3697568"
       sodipodi:ry="1.3697568"
       d="m 5.5427371,6.1568637 a 1.3697568,1.3697568 0 1 1 -2.7395136,0 1.3697568,1.3697568 0 1 1 2.7395136,0 z"
       transform="matrix(3.1565154,0,0,3.1565154,-8.8484181,-18.56704)" />
  </g>
</svg>
