<?xml version="1.0" encoding="UTF-8" standalone="no"?>
<!-- Created with Inkscape (http://www.inkscape.org/) -->

<svg
   xmlns:dc="http://purl.org/dc/elements/1.1/"
   xmlns:cc="http://creativecommons.org/ns#"
   xmlns:rdf="http://www.w3.org/1999/02/22-rdf-syntax-ns#"
   xmlns:svg="http://www.w3.org/2000/svg"
   xmlns="http://www.w3.org/2000/svg"
   xmlns:sodipodi="http://sodipodi.sourceforge.net/DTD/sodipodi-0.dtd"
   xmlns:inkscape="http://www.inkscape.org/namespaces/inkscape"
   width="16"
   height="16"
   id="svg3765"
   version="1.1"
   inkscape:version="0.48.3.1 r9886"
   sodipodi:docname="collection3.svg"
   inkscape:export-filename="/home/k00ni/Documents/semicon/owl.png"
   inkscape:export-xdpi="90"
   inkscape:export-ydpi="90">
  <defs
     id="defs3767" />
  <sodipodi:namedview
     id="base"
     pagecolor="#ffffff"
     bordercolor="#666666"
     borderopacity="1.0"
     inkscape:pageopacity="0.0"
     inkscape:pageshadow="2"
     inkscape:zoom="19.79899"
     inkscape:cx="3.7500815"
     inkscape:cy="8.4128294"
     inkscape:current-layer="layer1-9-3"
     showgrid="true"
     inkscape:grid-bbox="true"
     inkscape:document-units="px"
     inkscape:window-width="1366"
     inkscape:window-height="719"
     inkscape:window-x="0"
     inkscape:window-y="26"
     inkscape:window-maximized="1"
     showguides="true"
     inkscape:guide-bbox="true" />
  <metadata
     id="metadata3770">
    <rdf:RDF>
      <cc:Work
         rdf:about="">
        <dc:format>image/svg+xml</dc:format>
        <dc:type
           rdf:resource="http://purl.org/dc/dcmitype/StillImage" />
        <dc:title></dc:title>
      </cc:Work>
    </rdf:RDF>
  </metadata>
  <g
     id="layer1"
     inkscape:label="Layer 1"
     inkscape:groupmode="layer"
     transform="translate(0,-32)">
    <g
       inkscape:label="Layer 1"
       id="layer1-4"
       transform="translate(0.20202972,-1.9622142e-8)">
      <g
         transform="translate(-0.37059768,-0.09089584)"
         id="layer1-9"
         inkscape:label="Layer 1">
        <g
           inkscape:label="Layer 1"
           id="layer1-9-3"
           transform="translate(-44.951788,-4.1416259)">
          <path
             transform="matrix(-0.12184536,0.27015701,-0.28137244,-0.11698864,56.437397,50.601228)"
             sodipodi:type="arc"
             style="fill:#2d2d2d;fill-opacity:1;stroke:#2d2d2d;stroke-width:0.80000001;stroke-linecap:round;stroke-linejoin:round;stroke-miterlimit:4;stroke-opacity:1;stroke-dasharray:none"
             id="path3015-0-6-9"
             sodipodi:cx="10.354064"
             sodipodi:cy="28.352533"
             sodipodi:rx="3.7880721"
             sodipodi:ry="3.7880721"
             d="m 14.142136,28.352533 c 0,2.092095 -1.695978,3.788072 -3.788072,3.788072 -2.0920945,0 -3.7880721,-1.695977 -3.7880721,-3.788072 0,-2.092094 1.6959776,-3.788072 3.7880721,-3.788072 2.092094,0 3.788072,1.695978 3.788072,3.788072 z" />
          <path
             transform="matrix(-0.12184536,0.27015701,-0.28137244,-0.11698864,59.398932,50.59685)"
             sodipodi:type="arc"
             style="fill:#2d2d2d;fill-opacity:1;stroke:#2d2d2d;stroke-width:0.80000001;stroke-linecap:round;stroke-linejoin:round;stroke-miterlimit:4;stroke-opacity:1;stroke-dasharray:none"
             id="path3015-0-6-9-6"
             sodipodi:cx="10.354064"
             sodipodi:cy="28.352533"
             sodipodi:rx="3.7880721"
             sodipodi:ry="3.7880721"
             d="m 14.142136,28.352533 c 0,2.092095 -1.695978,3.788072 -3.788072,3.788072 -2.0920945,0 -3.7880721,-1.695977 -3.7880721,-3.788072 0,-2.092094 1.6959776,-3.788072 3.7880721,-3.788072 2.092094,0 3.788072,1.695978 3.788072,3.788072 z" />
          <path
             transform="matrix(-0.12184536,0.27015701,-0.28137244,-0.11698864,62.426277,50.566134)"
             sodipodi:type="arc"
             style="fill:#2d2d2d;fill-opacity:1;stroke:#2d2d2d;stroke-width:0.80000001;stroke-linecap:round;stroke-linejoin:round;stroke-miterlimit:4;stroke-opacity:1;stroke-dasharray:none"
             id="path3015-0-6-9-8"
             sodipodi:cx="10.354064"
             sodipodi:cy="28.352533"
             sodipodi:rx="3.7880721"
             sodipodi:ry="3.7880721"
             d="m 14.142136,28.352533 c 0,2.092095 -1.695978,3.788072 -3.788072,3.788072 -2.0920945,0 -3.7880721,-1.695977 -3.7880721,-3.788072 0,-2.092094 1.6959776,-3.788072 3.7880721,-3.788072 2.092094,0 3.788072,1.695978 3.788072,3.788072 z" />
          <path
             transform="matrix(-0.12184536,0.27015701,-0.28137244,-0.11698864,65.387811,50.561755)"
             sodipodi:type="arc"
             style="fill:#2d2d2d;fill-opacity:1;stroke:#2d2d2d;stroke-width:0.80000001;stroke-linecap:round;stroke-linejoin:round;stroke-miterlimit:4;stroke-opacity:1;stroke-dasharray:none"
             id="path3015-0-6-9-6-6"
             sodipodi:cx="10.354064"
             sodipodi:cy="28.352533"
             sodipodi:rx="3.7880721"
             sodipodi:ry="3.7880721"
             d="m 14.142136,28.352533 c 0,2.092095 -1.695978,3.788072 -3.788072,3.788072 -2.0920945,0 -3.7880721,-1.695977 -3.7880721,-3.788072 0,-2.092094 1.6959776,-3.788072 3.7880721,-3.788072 2.092094,0 3.788072,1.695978 3.788072,3.788072 z" />
          <path
             transform="matrix(-0.12184536,0.27015701,-0.28137244,-0.11698864,68.439667,50.562446)"
             sodipodi:type="arc"
             style="fill:#2d2d2d;fill-opacity:1;stroke:#2d2d2d;stroke-width:0.80000001;stroke-linecap:round;stroke-linejoin:round;stroke-miterlimit:4;stroke-opacity:1;stroke-dasharray:none"
             id="path3015-0-6-9-6-6-4"
             sodipodi:cx="10.354064"
             sodipodi:cy="28.352533"
             sodipodi:rx="3.7880721"
             sodipodi:ry="3.7880721"
             d="m 14.142136,28.352533 c 0,2.092095 -1.695978,3.788072 -3.788072,3.788072 -2.0920945,0 -3.7880721,-1.695977 -3.7880721,-3.788072 0,-2.092094 1.6959776,-3.788072 3.7880721,-3.788072 2.092094,0 3.788072,1.695978 3.788072,3.788072 z" />
          <path
             transform="matrix(-0.12184536,0.27015701,-0.28137244,-0.11698864,56.492103,47.689326)"
             sodipodi:type="arc"
             style="fill:#2d2d2d;fill-opacity:1;stroke:#2d2d2d;stroke-width:0.80000001;stroke-linecap:round;stroke-linejoin:round;stroke-miterlimit:4;stroke-opacity:1;stroke-dasharray:none"
             id="path3015-0-6-9-69"
             sodipodi:cx="10.354064"
             sodipodi:cy="28.352533"
             sodipodi:rx="3.7880721"
             sodipodi:ry="3.7880721"
             d="m 14.142136,28.352533 c 0,2.092095 -1.695978,3.788072 -3.788072,3.788072 -2.0920945,0 -3.7880721,-1.695977 -3.7880721,-3.788072 0,-2.092094 1.6959776,-3.788072 3.7880721,-3.788072 2.092094,0 3.788072,1.695978 3.788072,3.788072 z" />
          <path
             transform="matrix(-0.12184536,0.27015701,-0.28137244,-0.11698864,59.453638,47.684948)"
             sodipodi:type="arc"
             style="fill:#2d2d2d;fill-opacity:1;stroke:#2d2d2d;stroke-width:0.80000001;stroke-linecap:round;stroke-linejoin:round;stroke-miterlimit:4;stroke-opacity:1;stroke-dasharray:none"
             id="path3015-0-6-9-6-9"
             sodipodi:cx="10.354064"
             sodipodi:cy="28.352533"
             sodipodi:rx="3.7880721"
             sodipodi:ry="3.7880721"
             d="m 14.142136,28.352533 c 0,2.092095 -1.695978,3.788072 -3.788072,3.788072 -2.0920945,0 -3.7880721,-1.695977 -3.7880721,-3.788072 0,-2.092094 1.6959776,-3.788072 3.7880721,-3.788072 2.092094,0 3.788072,1.695978 3.788072,3.788072 z" />
          <path
             transform="matrix(-0.12184536,0.27015701,-0.28137244,-0.11698864,62.480983,47.654232)"
             sodipodi:type="arc"
             style="fill:#2d2d2d;fill-opacity:1;stroke:#2d2d2d;stroke-width:0.80000001;stroke-linecap:round;stroke-linejoin:round;stroke-miterlimit:4;stroke-opacity:1;stroke-dasharray:none"
             id="path3015-0-6-9-8-5"
             sodipodi:cx="10.354064"
             sodipodi:cy="28.352533"
             sodipodi:rx="3.7880721"
             sodipodi:ry="3.7880721"
             d="m 14.142136,28.352533 c 0,2.092095 -1.695978,3.788072 -3.788072,3.788072 -2.0920945,0 -3.7880721,-1.695977 -3.7880721,-3.788072 0,-2.092094 1.6959776,-3.788072 3.7880721,-3.788072 2.092094,0 3.788072,1.695978 3.788072,3.788072 z" />
          <path
             transform="matrix(-0.12184536,0.27015701,-0.28137244,-0.11698864,65.442517,47.649853)"
             sodipodi:type="arc"
             style="fill:#2d2d2d;fill-opacity:1;stroke:#2d2d2d;stroke-width:0.80000001;stroke-linecap:round;stroke-linejoin:round;stroke-miterlimit:4;stroke-opacity:1;stroke-dasharray:none"
             id="path3015-0-6-9-6-6-7"
             sodipodi:cx="10.354064"
             sodipodi:cy="28.352533"
             sodipodi:rx="3.7880721"
             sodipodi:ry="3.7880721"
             d="m 14.142136,28.352533 c 0,2.092095 -1.695978,3.788072 -3.788072,3.788072 -2.0920945,0 -3.7880721,-1.695977 -3.7880721,-3.788072 0,-2.092094 1.6959776,-3.788072 3.7880721,-3.788072 2.092094,0 3.788072,1.695978 3.788072,3.788072 z" />
          <path
             transform="matrix(-0.12184536,0.27015701,-0.28137244,-0.11698864,56.420674,44.760755)"
             sodipodi:type="arc"
             style="fill:#2d2d2d;fill-opacity:1;stroke:#2d2d2d;stroke-width:0.80000001;stroke-linecap:round;stroke-linejoin:round;stroke-miterlimit:4;stroke-opacity:1;stroke-dasharray:none"
             id="path3015-0-6-9-69-9"
             sodipodi:cx="10.354064"
             sodipodi:cy="28.352533"
             sodipodi:rx="3.7880721"
             sodipodi:ry="3.7880721"
             d="m 14.142136,28.352533 c 0,2.092095 -1.695978,3.788072 -3.788072,3.788072 -2.0920945,0 -3.7880721,-1.695977 -3.7880721,-3.788072 0,-2.092094 1.6959776,-3.788072 3.7880721,-3.788072 2.092094,0 3.788072,1.695978 3.788072,3.788072 z" />
          <path
             transform="matrix(-0.12184536,0.27015701,-0.28137244,-0.11698864,59.382209,44.756377)"
             sodipodi:type="arc"
             style="fill:#2d2d2d;fill-opacity:1;stroke:#2d2d2d;stroke-width:0.80000001;stroke-linecap:round;stroke-linejoin:round;stroke-miterlimit:4;stroke-opacity:1;stroke-dasharray:none"
             id="path3015-0-6-9-6-9-5"
             sodipodi:cx="10.354064"
             sodipodi:cy="28.352533"
             sodipodi:rx="3.7880721"
             sodipodi:ry="3.7880721"
             d="m 14.142136,28.352533 c 0,2.092095 -1.695978,3.788072 -3.788072,3.788072 -2.0920945,0 -3.7880721,-1.695977 -3.7880721,-3.788072 0,-2.092094 1.6959776,-3.788072 3.7880721,-3.788072 2.092094,0 3.788072,1.695978 3.788072,3.788072 z" />
          <path
             transform="matrix(-0.12184536,0.27015701,-0.28137244,-0.11698864,56.402818,41.939326)"
             sodipodi:type="arc"
             style="fill:#2d2d2d;fill-opacity:1;stroke:#2d2d2d;stroke-width:0.80000001;stroke-linecap:round;stroke-linejoin:round;stroke-miterlimit:4;stroke-opacity:1;stroke-dasharray:none"
             id="path3015-0-6-9-69-4"
             sodipodi:cx="10.354064"
             sodipodi:cy="28.352533"
             sodipodi:rx="3.7880721"
             sodipodi:ry="3.7880721"
             d="m 14.142136,28.352533 c 0,2.092095 -1.695978,3.788072 -3.788072,3.788072 -2.0920945,0 -3.7880721,-1.695977 -3.7880721,-3.788072 0,-2.092094 1.6959776,-3.788072 3.7880721,-3.788072 2.092094,0 3.788072,1.695978 3.788072,3.788072 z" />
          <path
             transform="matrix(-0.12184536,0.27015701,-0.28137244,-0.11698864,59.364353,41.934948)"
             sodipodi:type="arc"
             style="fill:#2d2d2d;fill-opacity:1;stroke:#2d2d2d;stroke-width:0.80000001;stroke-linecap:round;stroke-linejoin:round;stroke-miterlimit:4;stroke-opacity:1;stroke-dasharray:none"
             id="path3015-0-6-9-6-9-3"
             sodipodi:cx="10.354064"
             sodipodi:cy="28.352533"
             sodipodi:rx="3.7880721"
             sodipodi:ry="3.7880721"
             d="m 14.142136,28.352533 c 0,2.092095 -1.695978,3.788072 -3.788072,3.788072 -2.0920945,0 -3.7880721,-1.695977 -3.7880721,-3.788072 0,-2.092094 1.6959776,-3.788072 3.7880721,-3.788072 2.092094,0 3.788072,1.695978 3.788072,3.788072 z" />
          <path
             transform="matrix(-0.12184536,0.27015701,-0.28137244,-0.11698864,62.391698,41.904232)"
             sodipodi:type="arc"
             style="fill:#2d2d2d;fill-opacity:1;stroke:#2d2d2d;stroke-width:0.80000001;stroke-linecap:round;stroke-linejoin:round;stroke-miterlimit:4;stroke-opacity:1;stroke-dasharray:none"
             id="path3015-0-6-9-8-5-8"
             sodipodi:cx="10.354064"
             sodipodi:cy="28.352533"
             sodipodi:rx="3.7880721"
             sodipodi:ry="3.7880721"
             d="m 14.142136,28.352533 c 0,2.092095 -1.695978,3.788072 -3.788072,3.788072 -2.0920945,0 -3.7880721,-1.695977 -3.7880721,-3.788072 0,-2.092094 1.6959776,-3.788072 3.7880721,-3.788072 2.092094,0 3.788072,1.695978 3.788072,3.788072 z" />
          <path
             transform="matrix(-0.12184536,0.27015701,-0.28137244,-0.11698864,65.353232,41.899853)"
             sodipodi:type="arc"
             style="fill:#2d2d2d;fill-opacity:1;stroke:#2d2d2d;stroke-width:0.80000001;stroke-linecap:round;stroke-linejoin:round;stroke-miterlimit:4;stroke-opacity:1;stroke-dasharray:none"
             id="path3015-0-6-9-6-6-7-4"
             sodipodi:cx="10.354064"
             sodipodi:cy="28.352533"
             sodipodi:rx="3.7880721"
             sodipodi:ry="3.7880721"
             d="m 14.142136,28.352533 c 0,2.092095 -1.695978,3.788072 -3.788072,3.788072 -2.0920945,0 -3.7880721,-1.695977 -3.7880721,-3.788072 0,-2.092094 1.6959776,-3.788072 3.7880721,-3.788072 2.092094,0 3.788072,1.695978 3.788072,3.788072 z" />
          <path
             transform="matrix(-0.12184536,0.27015701,-0.28137244,-0.11698864,56.331389,39.010755)"
             sodipodi:type="arc"
             style="fill:#2d2d2d;fill-opacity:1;stroke:#2d2d2d;stroke-width:0.80000001;stroke-linecap:round;stroke-linejoin:round;stroke-miterlimit:4;stroke-opacity:1;stroke-dasharray:none"
             id="path3015-0-6-9-69-9-9"
             sodipodi:cx="10.354064"
             sodipodi:cy="28.352533"
             sodipodi:rx="3.7880721"
             sodipodi:ry="3.7880721"
             d="m 14.142136,28.352533 c 0,2.092095 -1.695978,3.788072 -3.788072,3.788072 -2.0920945,0 -3.7880721,-1.695977 -3.7880721,-3.788072 0,-2.092094 1.6959776,-3.788072 3.7880721,-3.788072 2.092094,0 3.788072,1.695978 3.788072,3.788072 z" />
          <path
             transform="matrix(-0.12184536,0.27015701,-0.28137244,-0.11698864,59.292924,39.006377)"
             sodipodi:type="arc"
             style="fill:#2d2d2d;fill-opacity:1;stroke:#2d2d2d;stroke-width:0.80000001;stroke-linecap:round;stroke-linejoin:round;stroke-miterlimit:4;stroke-opacity:1;stroke-dasharray:none"
             id="path3015-0-6-9-6-9-5-4"
             sodipodi:cx="10.354064"
             sodipodi:cy="28.352533"
             sodipodi:rx="3.7880721"
             sodipodi:ry="3.7880721"
             d="m 14.142136,28.352533 c 0,2.092095 -1.695978,3.788072 -3.788072,3.788072 -2.0920945,0 -3.7880721,-1.695977 -3.7880721,-3.788072 0,-2.092094 1.6959776,-3.788072 3.7880721,-3.788072 2.092094,0 3.788072,1.695978 3.788072,3.788072 z" />
          <path
             transform="matrix(-0.12184536,0.27015701,-0.28137244,-0.11698864,62.320269,38.975661)"
             sodipodi:type="arc"
             style="fill:#2d2d2d;fill-opacity:1;stroke:#2d2d2d;stroke-width:0.80000001;stroke-linecap:round;stroke-linejoin:round;stroke-miterlimit:4;stroke-opacity:1;stroke-dasharray:none"
             id="path3015-0-6-9-8-5-4-9"
             sodipodi:cx="10.354064"
             sodipodi:cy="28.352533"
             sodipodi:rx="3.7880721"
             sodipodi:ry="3.7880721"
             d="m 14.142136,28.352533 c 0,2.092095 -1.695978,3.788072 -3.788072,3.788072 -2.0920945,0 -3.7880721,-1.695977 -3.7880721,-3.788072 0,-2.092094 1.6959776,-3.788072 3.7880721,-3.788072 2.092094,0 3.788072,1.695978 3.788072,3.788072 z" />
          <path
             transform="matrix(-0.12184536,0.27015701,-0.28137244,-0.11698864,65.281803,38.971282)"
             sodipodi:type="arc"
             style="fill:#2d2d2d;fill-opacity:1;stroke:#2d2d2d;stroke-width:0.80000001;stroke-linecap:round;stroke-linejoin:round;stroke-miterlimit:4;stroke-opacity:1;stroke-dasharray:none"
             id="path3015-0-6-9-6-6-7-1-0"
             sodipodi:cx="10.354064"
             sodipodi:cy="28.352533"
             sodipodi:rx="3.7880721"
             sodipodi:ry="3.7880721"
             d="m 14.142136,28.352533 c 0,2.092095 -1.695978,3.788072 -3.788072,3.788072 -2.0920945,0 -3.7880721,-1.695977 -3.7880721,-3.788072 0,-2.092094 1.6959776,-3.788072 3.7880721,-3.788072 2.092094,0 3.788072,1.695978 3.788072,3.788072 z" />
          <path
             transform="matrix(-0.12184536,0.27015701,-0.28137244,-0.11698864,68.333659,38.971973)"
             sodipodi:type="arc"
             style="fill:#2d2d2d;fill-opacity:1;stroke:#2d2d2d;stroke-width:0.80000001;stroke-linecap:round;stroke-linejoin:round;stroke-miterlimit:4;stroke-opacity:1;stroke-dasharray:none"
             id="path3015-0-6-9-6-6-4-1-2-7"
             sodipodi:cx="10.354064"
             sodipodi:cy="28.352533"
             sodipodi:rx="3.7880721"
             sodipodi:ry="3.7880721"
             d="m 14.142136,28.352533 c 0,2.092095 -1.695978,3.788072 -3.788072,3.788072 -2.0920945,0 -3.7880721,-1.695977 -3.7880721,-3.788072 0,-2.092094 1.6959776,-3.788072 3.7880721,-3.788072 2.092094,0 3.788072,1.695978 3.788072,3.788072 z" />
        </g>
      </g>
    </g>
  </g>
</svg>
