<?xml version="1.0" encoding="UTF-8" standalone="no"?>
<!-- Created with Inkscape (http://www.inkscape.org/) -->

<svg
   xmlns:dc="http://purl.org/dc/elements/1.1/"
   xmlns:cc="http://creativecommons.org/ns#"
   xmlns:rdf="http://www.w3.org/1999/02/22-rdf-syntax-ns#"
   xmlns:svg="http://www.w3.org/2000/svg"
   xmlns="http://www.w3.org/2000/svg"
   xmlns:sodipodi="http://sodipodi.sourceforge.net/DTD/sodipodi-0.dtd"
   xmlns:inkscape="http://www.inkscape.org/namespaces/inkscape"
   width="48px"
   height="48px"
   id="svg3765"
   version="1.1"
   inkscape:version="0.48.3.1 r9886"
   sodipodi:docname="graph_dots.svg"
   inkscape:export-filename="/home/k00ni/Documents/semicon/owl.png"
   inkscape:export-xdpi="90"
   inkscape:export-ydpi="90">
  <defs
     id="defs3767" />
  <sodipodi:namedview
     id="base"
     pagecolor="#ffffff"
     bordercolor="#666666"
     borderopacity="1.0"
     inkscape:pageopacity="0.0"
     inkscape:pageshadow="2"
     inkscape:zoom="9.8994949"
     inkscape:cx="26.860648"
     inkscape:cy="24.552077"
     inkscape:current-layer="layer1-9-3"
     showgrid="true"
     inkscape:grid-bbox="true"
     inkscape:document-units="px"
     inkscape:window-width="1366"
     inkscape:window-height="744"
     inkscape:window-x="0"
     inkscape:window-y="24"
     inkscape:window-maximized="1" />
  <metadata
     id="metadata3770">
    <rdf:RDF>
      <cc:Work
         rdf:about="">
        <dc:format>image/svg+xml</dc:format>
        <dc:type
           rdf:resource="http://purl.org/dc/dcmitype/StillImage" />
        <dc:title />
      </cc:Work>
    </rdf:RDF>
  </metadata>
  <g
     id="layer1"
     inkscape:label="Layer 1"
     inkscape:groupmode="layer">
    <g
       inkscape:label="Layer 1"
       id="layer1-4"
       transform="translate(0.20202972,-1.9622142e-8)">
      <g
         transform="translate(-0.37059768,-0.09089584)"
         id="layer1-9"
         inkscape:label="Layer 1">
        <g
           inkscape:label="Layer 1"
           id="layer1-9-3"
           transform="translate(-44.951788,-4.1416259)">
          <path
             transform="matrix(0.99063909,0,0,0.99063908,40.251428,3.8899776)"
             d="M 53,24.428572 C 53,37.52561 42.382753,48.142857 29.285715,48.142857 16.188677,48.142857 5.5714302,37.52561 5.5714302,24.428572 5.5714302,11.331534 16.188677,0.7142868 29.285715,0.7142868 42.382753,0.7142868 53,11.331534 53,24.428572 z"
             sodipodi:ry="23.714285"
             sodipodi:rx="23.714285"
             sodipodi:cy="24.428572"
             sodipodi:cx="29.285715"
             id="path3773-80"
             style="fill:#2d2d2d;fill-opacity:1;stroke:none"
             sodipodi:type="arc" />
          <path
             transform="matrix(-0.07267813,0,0,0.07267813,130.46017,1.2626693)"
             d="M 53,24.428572 C 53,37.52561 42.382753,48.142857 29.285715,48.142857 16.188677,48.142857 5.5714302,37.52561 5.5714302,24.428572 5.5714302,11.331534 16.188677,0.7142868 29.285715,0.7142868 42.382753,0.7142868 53,11.331534 53,24.428572 z"
             sodipodi:ry="23.714285"
             sodipodi:rx="23.714285"
             sodipodi:cy="24.428572"
             sodipodi:cx="29.285715"
             id="path3773-80-3-7-1-9-9-3-3-9-3-7"
             style="fill:#ffffff;fill-opacity:1;stroke:none"
             sodipodi:type="arc" />
          <path
             transform="matrix(0.09610637,0,0,0.09610637,66.044396,8.0644651)"
             d="m 53,24.428572 a 23.714285,23.714285 0 1 1 -47.4285698,0 23.714285,23.714285 0 1 1 47.4285698,0 z"
             sodipodi:ry="23.714285"
             sodipodi:rx="23.714285"
             sodipodi:cy="24.428572"
             sodipodi:cx="29.285715"
             id="path3773-80-3-7-1-9-9-3-3-8-76-1-7-4-2-8-4-0-7-2-9-4-7-8-6-6-2-9-0-8"
             style="fill:#ffffff;fill-opacity:1;stroke:none"
             sodipodi:type="arc" />
          <path
             transform="matrix(0.09610637,0,0,0.09610637,62.508863,11.80203)"
             d="m 53,24.428572 a 23.714285,23.714285 0 1 1 -47.4285698,0 23.714285,23.714285 0 1 1 47.4285698,0 z"
             sodipodi:ry="23.714285"
             sodipodi:rx="23.714285"
             sodipodi:cy="24.428572"
             sodipodi:cx="29.285715"
             id="path3773-80-3-7-1-9-9-3-3-8-76-1-7-4-2-8-4-0-7-2-9-4-7-8-6-6-2-9-0-7"
             style="fill:#ffffff;fill-opacity:1;stroke:none"
             sodipodi:type="arc" />
          <path
             transform="matrix(0.09610637,0,0,0.09610637,75.604251,15.907807)"
             d="m 53,24.428572 a 23.714285,23.714285 0 1 1 -47.4285698,0 23.714285,23.714285 0 1 1 47.4285698,0 z"
             sodipodi:ry="23.714285"
             sodipodi:rx="23.714285"
             sodipodi:cy="24.428572"
             sodipodi:cx="29.285715"
             id="path3773-80-3-7-1-9-9-3-3-8-76-1-7-4-2-8-4-0-7-2-9-4-7-8-6-6-2-9-0-4"
             style="fill:#ffffff;fill-opacity:1;stroke:none"
             sodipodi:type="arc" />
          <path
             transform="matrix(0.09610637,0,0,0.09610637,72.646982,11.296953)"
             d="m 53,24.428572 a 23.714285,23.714285 0 1 1 -47.4285698,0 23.714285,23.714285 0 1 1 47.4285698,0 z"
             sodipodi:ry="23.714285"
             sodipodi:rx="23.714285"
             sodipodi:cy="24.428572"
             sodipodi:cx="29.285715"
             id="path3773-80-3-7-1-9-9-3-3-8-76-1-7-4-2-8-4-0-7-2-9-4-7-8-6-6-2-9-0-8-6"
             style="fill:#ffffff;fill-opacity:1;stroke:none"
             sodipodi:type="arc" />
          <path
             transform="matrix(0.09610637,0,0,0.09610637,70.424647,15.943655)"
             d="m 53,24.428572 a 23.714285,23.714285 0 1 1 -47.4285698,0 23.714285,23.714285 0 1 1 47.4285698,0 z"
             sodipodi:ry="23.714285"
             sodipodi:rx="23.714285"
             sodipodi:cy="24.428572"
             sodipodi:cx="29.285715"
             id="path3773-80-3-7-1-9-9-3-3-8-76-1-7-4-2-8-4-0-7-2-9-4-7-8-6-6-2-9-0-7-2"
             style="fill:#ffffff;fill-opacity:1;stroke:none"
             sodipodi:type="arc" />
          <path
             transform="matrix(0.09610637,0,0,0.09610637,65.070839,16.2467)"
             d="m 53,24.428572 a 23.714285,23.714285 0 1 1 -47.4285698,0 23.714285,23.714285 0 1 1 47.4285698,0 z"
             sodipodi:ry="23.714285"
             sodipodi:rx="23.714285"
             sodipodi:cy="24.428572"
             sodipodi:cx="29.285715"
             id="path3773-80-3-7-1-9-9-3-3-8-76-1-7-4-2-8-4-0-7-2-9-4-7-8-6-6-2-9-0-8-6-6"
             style="fill:#ffffff;fill-opacity:1;stroke:none"
             sodipodi:type="arc" />
          <path
             transform="matrix(0.09610637,0,0,0.09610637,73.15206,20.28731)"
             d="m 53,24.428572 a 23.714285,23.714285 0 1 1 -47.4285698,0 23.714285,23.714285 0 1 1 47.4285698,0 z"
             sodipodi:ry="23.714285"
             sodipodi:rx="23.714285"
             sodipodi:cy="24.428572"
             sodipodi:cx="29.285715"
             id="path3773-80-3-7-1-9-9-3-3-8-76-1-7-4-2-8-4-0-7-2-9-4-7-8-6-6-2-9-0-7-2-1"
             style="fill:#ffffff;fill-opacity:1;stroke:none"
             sodipodi:type="arc" />
          <path
             transform="matrix(0.09610637,0,0,0.09610637,70.792114,30.590866)"
             d="m 53,24.428572 a 23.714285,23.714285 0 1 1 -47.4285698,0 23.714285,23.714285 0 1 1 47.4285698,0 z"
             sodipodi:ry="23.714285"
             sodipodi:rx="23.714285"
             sodipodi:cy="24.428572"
             sodipodi:cx="29.285715"
             id="path3773-80-3-7-1-9-9-3-3-8-76-1-7-4-2-8-4-0-7-2-9-4-7-8-6-6-2-9-0-7-2-1-0"
             style="fill:#ffffff;fill-opacity:1;stroke:none"
             sodipodi:type="arc" />
          <path
             transform="matrix(0.09610637,0,0,0.09610637,70.590084,25.439089)"
             d="m 53,24.428572 a 23.714285,23.714285 0 1 1 -47.4285698,0 23.714285,23.714285 0 1 1 47.4285698,0 z"
             sodipodi:ry="23.714285"
             sodipodi:rx="23.714285"
             sodipodi:cy="24.428572"
             sodipodi:cx="29.285715"
             id="path3773-80-3-7-1-9-9-3-3-8-76-1-7-4-2-8-4-0-7-2-9-4-7-8-6-6-2-9-0-7-2-1-0-5"
             style="fill:#ffffff;fill-opacity:1;stroke:none"
             sodipodi:type="arc" />
          <path
             transform="matrix(0.09610637,0,0,0.09610637,67.458611,34.631477)"
             d="m 53,24.428572 a 23.714285,23.714285 0 1 1 -47.4285698,0 23.714285,23.714285 0 1 1 47.4285698,0 z"
             sodipodi:ry="23.714285"
             sodipodi:rx="23.714285"
             sodipodi:cy="24.428572"
             sodipodi:cx="29.285715"
             id="path3773-80-3-7-1-9-9-3-3-8-76-1-7-4-2-8-4-0-7-2-9-4-7-8-6-6-2-9-0-7-2-1-0-7"
             style="fill:#ffffff;fill-opacity:1;stroke:none"
             sodipodi:type="arc" />
          <path
             transform="matrix(0.09610637,0,0,0.09610637,62.811909,36.853812)"
             d="m 53,24.428572 a 23.714285,23.714285 0 1 1 -47.4285698,0 23.714285,23.714285 0 1 1 47.4285698,0 z"
             sodipodi:ry="23.714285"
             sodipodi:rx="23.714285"
             sodipodi:cy="24.428572"
             sodipodi:cx="29.285715"
             id="path3773-80-3-7-1-9-9-3-3-8-76-1-7-4-2-8-4-0-7-2-9-4-7-8-6-6-2-9-0-7-2-1-0-7-1"
             style="fill:#ffffff;fill-opacity:1;stroke:none"
             sodipodi:type="arc" />
          <path
             transform="matrix(0.09610637,0,0,0.09610637,58.569269,33.520308)"
             d="m 53,24.428572 a 23.714285,23.714285 0 1 1 -47.4285698,0 23.714285,23.714285 0 1 1 47.4285698,0 z"
             sodipodi:ry="23.714285"
             sodipodi:rx="23.714285"
             sodipodi:cy="24.428572"
             sodipodi:cx="29.285715"
             id="path3773-80-3-7-1-9-9-3-3-8-76-1-7-4-2-8-4-0-7-2-9-4-7-8-6-6-2-9-0-7-2-1-0-7-1-7"
             style="fill:#ffffff;fill-opacity:1;stroke:none"
             sodipodi:type="arc" />
          <path
             transform="matrix(0.09610637,0,0,0.09610637,53.821551,31.500003)"
             d="m 53,24.428572 a 23.714285,23.714285 0 1 1 -47.4285698,0 23.714285,23.714285 0 1 1 47.4285698,0 z"
             sodipodi:ry="23.714285"
             sodipodi:rx="23.714285"
             sodipodi:cy="24.428572"
             sodipodi:cx="29.285715"
             id="path3773-80-3-7-1-9-9-3-3-8-76-1-7-4-2-8-4-0-7-2-9-4-7-8-6-6-2-9-0-7-2-1-0-7-1-1"
             style="fill:#ffffff;fill-opacity:1;stroke:none"
             sodipodi:type="arc" />
          <path
             transform="matrix(0.09610637,0,0,0.09610637,54.528659,36.550767)"
             d="m 53,24.428572 a 23.714285,23.714285 0 1 1 -47.4285698,0 23.714285,23.714285 0 1 1 47.4285698,0 z"
             sodipodi:ry="23.714285"
             sodipodi:rx="23.714285"
             sodipodi:cy="24.428572"
             sodipodi:cx="29.285715"
             id="path3773-80-3-7-1-9-9-3-3-8-76-1-7-4-2-8-4-0-7-2-9-4-7-8-6-6-2-9-0-7-2-1-0-7-1-9"
             style="fill:#ffffff;fill-opacity:1;stroke:none"
             sodipodi:type="arc" />
          <path
             transform="matrix(0.09610637,0,0,0.09610637,63.721046,41.702545)"
             d="m 53,24.428572 a 23.714285,23.714285 0 1 1 -47.4285698,0 23.714285,23.714285 0 1 1 47.4285698,0 z"
             sodipodi:ry="23.714285"
             sodipodi:rx="23.714285"
             sodipodi:cy="24.428572"
             sodipodi:cx="29.285715"
             id="path3773-80-3-7-1-9-9-3-3-8-76-1-7-4-2-8-4-0-7-2-9-4-7-8-6-6-2-9-0-7-2-1-0-7-1-6"
             style="fill:#ffffff;fill-opacity:1;stroke:none"
             sodipodi:type="arc" />
          <path
             transform="matrix(0.09610637,0,0,0.09610637,68.670793,39.682239)"
             d="m 53,24.428572 a 23.714285,23.714285 0 1 1 -47.4285698,0 23.714285,23.714285 0 1 1 47.4285698,0 z"
             sodipodi:ry="23.714285"
             sodipodi:rx="23.714285"
             sodipodi:cy="24.428572"
             sodipodi:cx="29.285715"
             id="path3773-80-3-7-1-9-9-3-3-8-76-1-7-4-2-8-4-0-7-2-9-4-7-8-6-6-2-9-0-7-2-1-0-7-1-6-4"
             style="fill:#ffffff;fill-opacity:1;stroke:none"
             sodipodi:type="arc" />
          <path
             transform="matrix(0.09610637,0,0,0.09610637,75.438816,24.630967)"
             d="m 53,24.428572 a 23.714285,23.714285 0 1 1 -47.4285698,0 23.714285,23.714285 0 1 1 47.4285698,0 z"
             sodipodi:ry="23.714285"
             sodipodi:rx="23.714285"
             sodipodi:cy="24.428572"
             sodipodi:cx="29.285715"
             id="path3773-80-3-7-1-9-9-3-3-8-76-1-7-4-2-8-4-0-7-2-9-4-7-8-6-6-2-9-0-7-2-1-0-7-1-6-2"
             style="fill:#ffffff;fill-opacity:1;stroke:none"
             sodipodi:type="arc" />
          <path
             transform="matrix(0.09610637,0,0,0.09610637,53.417491,14.832487)"
             d="m 53,24.428572 a 23.714285,23.714285 0 1 1 -47.4285698,0 23.714285,23.714285 0 1 1 47.4285698,0 z"
             sodipodi:ry="23.714285"
             sodipodi:rx="23.714285"
             sodipodi:cy="24.428572"
             sodipodi:cx="29.285715"
             id="path3773-80-3-7-1-9-9-3-3-8-76-1-7-4-2-8-4-0-7-2-9-4-7-8-6-6-2-9-0-7-2-1-0-7-1-6-40"
             style="fill:#ffffff;fill-opacity:1;stroke:none"
             sodipodi:type="arc" />
          <path
             transform="matrix(0.09610637,0,0,0.09610637,49.881956,18.873096)"
             d="m 53,24.428572 a 23.714285,23.714285 0 1 1 -47.4285698,0 23.714285,23.714285 0 1 1 47.4285698,0 z"
             sodipodi:ry="23.714285"
             sodipodi:rx="23.714285"
             sodipodi:cy="24.428572"
             sodipodi:cx="29.285715"
             id="path3773-80-3-7-1-9-9-3-3-8-76-1-7-4-2-8-4-0-7-2-9-4-7-8-6-6-2-9-0-7-2-1-0-7-1-6-40-4"
             style="fill:#ffffff;fill-opacity:1;stroke:none"
             sodipodi:type="arc" />
          <path
             transform="matrix(0.09610637,0,0,0.09610637,54.730688,19.883249)"
             d="m 53,24.428572 a 23.714285,23.714285 0 1 1 -47.4285698,0 23.714285,23.714285 0 1 1 47.4285698,0 z"
             sodipodi:ry="23.714285"
             sodipodi:rx="23.714285"
             sodipodi:cy="24.428572"
             sodipodi:cx="29.285715"
             id="path3773-80-3-7-1-9-9-3-3-8-76-1-7-4-2-8-4-0-7-2-9-4-7-8-6-6-2-9-0-7-2-1-0-7-1-6-40-4-4"
             style="fill:#ffffff;fill-opacity:1;stroke:none"
             sodipodi:type="arc" />
          <path
             transform="matrix(0.09610637,0,0,0.09610637,51.397186,23.721829)"
             d="m 53,24.428572 a 23.714285,23.714285 0 1 1 -47.4285698,0 23.714285,23.714285 0 1 1 47.4285698,0 z"
             sodipodi:ry="23.714285"
             sodipodi:rx="23.714285"
             sodipodi:cy="24.428572"
             sodipodi:cx="29.285715"
             id="path3773-80-3-7-1-9-9-3-3-8-76-1-7-4-2-8-4-0-7-2-9-4-7-8-6-6-2-9-0-7-2-1-0-7-1-6-40-4-5"
             style="fill:#ffffff;fill-opacity:1;stroke:none"
             sodipodi:type="arc" />
          <path
             transform="matrix(0.09610637,0,0,0.09610637,56.852009,24.731982)"
             d="m 53,24.428572 a 23.714285,23.714285 0 1 1 -47.4285698,0 23.714285,23.714285 0 1 1 47.4285698,0 z"
             sodipodi:ry="23.714285"
             sodipodi:rx="23.714285"
             sodipodi:cy="24.428572"
             sodipodi:cx="29.285715"
             id="path3773-80-3-7-1-9-9-3-3-8-76-1-7-4-2-8-4-0-7-2-9-4-7-8-6-6-2-9-0-7-2-1-0-7-1-6-40-4-0"
             style="fill:#ffffff;fill-opacity:1;stroke:none"
             sodipodi:type="arc" />
          <path
             transform="matrix(0.09610637,0,0,0.09610637,76.044907,29.681729)"
             d="m 53,24.428572 a 23.714285,23.714285 0 1 1 -47.4285698,0 23.714285,23.714285 0 1 1 47.4285698,0 z"
             sodipodi:ry="23.714285"
             sodipodi:rx="23.714285"
             sodipodi:cy="24.428572"
             sodipodi:cx="29.285715"
             id="path3773-80-3-7-1-9-9-3-3-8-76-1-7-4-2-8-4-0-7-2-9-4-7-8-6-6-2-9-0-7-2-1-0-7-1-6-40-4-2"
             style="fill:#ffffff;fill-opacity:1;stroke:none"
             sodipodi:type="arc" />
          <path
             transform="matrix(0.09610637,0,0,0.09610637,80.085517,25.742135)"
             d="m 53,24.428572 a 23.714285,23.714285 0 1 1 -47.4285698,0 23.714285,23.714285 0 1 1 47.4285698,0 z"
             sodipodi:ry="23.714285"
             sodipodi:rx="23.714285"
             sodipodi:cy="24.428572"
             sodipodi:cx="29.285715"
             id="path3773-80-3-7-1-9-9-3-3-8-76-1-7-4-2-8-4-0-7-2-9-4-7-8-6-6-2-9-0-7-2-1-0-7-1-6-40-4-20"
             style="fill:#ffffff;fill-opacity:1;stroke:none"
             sodipodi:type="arc" />
          <path
             transform="matrix(0.09610637,0,0,0.09610637,78.065212,40.288331)"
             d="m 53,24.428572 a 23.714285,23.714285 0 1 1 -47.4285698,0 23.714285,23.714285 0 1 1 47.4285698,0 z"
             sodipodi:ry="23.714285"
             sodipodi:rx="23.714285"
             sodipodi:cy="24.428572"
             sodipodi:cx="29.285715"
             id="path3773-80-3-7-1-9-9-3-3-8-76-1-7-4-2-8-4-0-7-2-9-4-7-8-6-6-2-9-0-7-2-1-0-7-1-6-40-4-9"
             style="fill:#ffffff;fill-opacity:1;stroke:none"
             sodipodi:type="arc" />
          <path
             transform="matrix(0.09610637,0,0,0.09610637,80.89364,35.338583)"
             d="m 53,24.428572 a 23.714285,23.714285 0 1 1 -47.4285698,0 23.714285,23.714285 0 1 1 47.4285698,0 z"
             sodipodi:ry="23.714285"
             sodipodi:rx="23.714285"
             sodipodi:cy="24.428572"
             sodipodi:cx="29.285715"
             id="path3773-80-3-7-1-9-9-3-3-8-76-1-7-4-2-8-4-0-7-2-9-4-7-8-6-6-2-9-0-7-2-1-0-7-1-6-40-4-46"
             style="fill:#ffffff;fill-opacity:1;stroke:none"
             sodipodi:type="arc" />
          <path
             transform="matrix(0.09610637,0,0,0.09610637,77.45912,11.296953)"
             d="m 53,24.428572 a 23.714285,23.714285 0 1 1 -47.4285698,0 23.714285,23.714285 0 1 1 47.4285698,0 z"
             sodipodi:ry="23.714285"
             sodipodi:rx="23.714285"
             sodipodi:cy="24.428572"
             sodipodi:cx="29.285715"
             id="path3773-80-3-7-1-9-9-3-3-8-76-1-7-4-2-8-4-0-7-2-9-4-7-8-6-6-2-9-0-7-2-1-0-7-1-6-40-4-51"
             style="fill:#ffffff;fill-opacity:1;stroke:none"
             sodipodi:type="arc" />
        </g>
      </g>
    </g>
  </g>
</svg>
