<?xml version="1.0" encoding="UTF-8" standalone="no"?>
<!-- Created with Inkscape (http://www.inkscape.org/) -->

<svg
   xmlns:dc="http://purl.org/dc/elements/1.1/"
   xmlns:cc="http://creativecommons.org/ns#"
   xmlns:rdf="http://www.w3.org/1999/02/22-rdf-syntax-ns#"
   xmlns:svg="http://www.w3.org/2000/svg"
   xmlns="http://www.w3.org/2000/svg"
   xmlns:sodipodi="http://sodipodi.sourceforge.net/DTD/sodipodi-0.dtd"
   xmlns:inkscape="http://www.inkscape.org/namespaces/inkscape"
   width="16px"
   height="16px"
   id="svg2985"
   version="1.1"
   inkscape:version="0.48.3.1 r9886"
   sodipodi:docname="star.svg">
  <defs
     id="defs2987" />
  <sodipodi:namedview
     id="base"
     pagecolor="#ffffff"
     bordercolor="#666666"
     borderopacity="1.0"
     inkscape:pageopacity="0.0"
     inkscape:pageshadow="2"
     inkscape:zoom="15.696216"
     inkscape:cx="13.811256"
     inkscape:cy="5.4680932"
     inkscape:current-layer="layer1"
     showgrid="true"
     inkscape:grid-bbox="true"
     inkscape:document-units="px"
     inkscape:window-width="1366"
     inkscape:window-height="719"
     inkscape:window-x="0"
     inkscape:window-y="25"
     inkscape:window-maximized="1" />
  <metadata
     id="metadata2990">
    <rdf:RDF>
      <cc:Work
         rdf:about="">
        <dc:format>image/svg+xml</dc:format>
        <dc:type
           rdf:resource="http://purl.org/dc/dcmitype/StillImage" />
        <dc:title />
      </cc:Work>
    </rdf:RDF>
  </metadata>
  <g
     id="layer1"
     inkscape:label="Layer 1"
     inkscape:groupmode="layer">
    <path
       sodipodi:type="arc"
       style="fill:#2d2d2d;fill-opacity:1;stroke:none"
       id="path3012-9-6-0-2-2"
       sodipodi:cx="4.1729803"
       sodipodi:cy="6.1568637"
       sodipodi:rx="1.3697568"
       sodipodi:ry="1.3697568"
       d="m 5.5427371,6.1568637 a 1.3697568,1.3697568 0 1 1 -2.7395136,0 1.3697568,1.3697568 0 1 1 2.7395136,0 z"
       transform="matrix(1.5813954,0,0,1.5813954,1.4601355,-7.46586)" />
    <rect
       style="fill:#666666;fill-opacity:1;stroke:#2d2d2d;stroke-width:0.63395119;stroke-linecap:round;stroke-linejoin:round;stroke-miterlimit:4;stroke-opacity:1;stroke-dasharray:none"
       id="rect3201"
       width="0.49967092"
       height="8.6966839"
       x="7.8406286"
       y="1.8274556"
       rx="1.3465935"
       ry="0.85054618"
       transform="matrix(0.99998463,0.005545,0.00528469,0.99998604,0,0)" />
    <rect
       style="fill:#666666;fill-opacity:1;stroke:#2d2d2d;stroke-width:0.60633487;stroke-linecap:round;stroke-linejoin:round;stroke-miterlimit:4;stroke-opacity:1;stroke-dasharray:none"
       id="rect3201-8"
       width="0.44654953"
       height="8.9018764"
       x="-4.4715381"
       y="4.1676359"
       rx="1.2034335"
       ry="0.87061429"
       transform="matrix(0.52000125,-0.8541655,0.85934013,0.51140448,0,0)" />
    <path
       sodipodi:type="arc"
       style="fill:#2d2d2d;fill-opacity:1;stroke:none"
       id="path3012-9-6-0-2-2-9"
       sodipodi:cx="4.1729803"
       sodipodi:cy="6.1568637"
       sodipodi:rx="1.3697568"
       sodipodi:ry="1.3697568"
       d="m 5.5427371,6.1568637 a 1.3697568,1.3697568 0 1 1 -2.7395136,0 1.3697568,1.3697568 0 1 1 2.7395136,0 z"
       transform="matrix(1.5813954,0,0,1.5813954,1.5556999,-0.10739819)" />
    <path
       sodipodi:type="arc"
       style="fill:#2d2d2d;fill-opacity:1;stroke:none"
       id="path3012-9-6-0-2-2-9-5"
       sodipodi:cx="4.1729803"
       sodipodi:cy="6.1568637"
       sodipodi:rx="1.3697568"
       sodipodi:ry="1.3697568"
       d="m 5.5427371,6.1568637 a 1.3697568,1.3697568 0 1 1 -2.7395136,0 1.3697568,1.3697568 0 1 1 2.7395136,0 z"
       transform="matrix(1.5813954,0,0,1.5813954,-4.3055854,4.1611466)" />
    <path
       sodipodi:type="arc"
       style="fill:#2d2d2d;fill-opacity:1;stroke:none"
       id="path3012-9-6-0-2-2-9-5-1"
       sodipodi:cx="4.1729803"
       sodipodi:cy="6.1568637"
       sodipodi:rx="1.3697568"
       sodipodi:ry="1.3697568"
       d="m 5.5427371,6.1568637 a 1.3697568,1.3697568 0 1 1 -2.7395136,0 1.3697568,1.3697568 0 1 1 2.7395136,0 z"
       transform="matrix(1.5813954,0,0,1.5813954,-4.4330047,-3.4202986)" />
    <path
       sodipodi:type="arc"
       style="fill:#2d2d2d;fill-opacity:1;stroke:none"
       id="path3012-9-6-0-2-2-9-5-1-2"
       sodipodi:cx="4.1729803"
       sodipodi:cy="6.1568637"
       sodipodi:rx="1.3697568"
       sodipodi:ry="1.3697568"
       d="m 5.5427371,6.1568637 a 1.3697568,1.3697568 0 1 1 -2.7395136,0 1.3697568,1.3697568 0 1 1 2.7395136,0 z"
       transform="matrix(1.5813954,0,0,1.5813954,7.2895659,-3.6751371)" />
    <path
       sodipodi:type="arc"
       style="fill:#2d2d2d;fill-opacity:1;stroke:none"
       id="path3012-9-6-0-2-2-9-5-1-2-9"
       sodipodi:cx="4.1729803"
       sodipodi:cy="6.1568637"
       sodipodi:rx="1.3697568"
       sodipodi:ry="1.3697568"
       d="m 5.5427371,6.1568637 a 1.3697568,1.3697568 0 1 1 -2.7395136,0 1.3697568,1.3697568 0 1 1 2.7395136,0 z"
       transform="matrix(1.5813954,0,0,1.5813954,7.2258562,4.1611465)" />
    <rect
       style="fill:#666666;fill-opacity:1;stroke:#2d2d2d;stroke-width:0.60633487;stroke-linecap:round;stroke-linejoin:round;stroke-miterlimit:4;stroke-opacity:1;stroke-dasharray:none"
       id="rect3201-8-6"
       width="0.44654953"
       height="8.9018764"
       x="-3.5048766"
       y="11.204711"
       rx="1.2034335"
       ry="0.87061429"
       transform="matrix(0.58154307,-0.81351562,0.8193098,0.57335107,0,0)"
       inkscape:transform-center-x="2.8428444"
       inkscape:transform-center-y="-1.2961205" />
    <rect
       style="fill:#666666;fill-opacity:1;stroke:#2d2d2d;stroke-width:0.60633487;stroke-linecap:round;stroke-linejoin:round;stroke-miterlimit:4;stroke-opacity:1;stroke-dasharray:none"
       id="rect3201-8-3"
       width="0.44654953"
       height="8.9018764"
       x="-12.725705"
       y="-10.046803"
       rx="1.2034335"
       ry="0.87061429"
       transform="matrix(-0.52000125,-0.8541655,-0.85934013,0.51140448,0,0)" />
    <rect
       style="fill:#666666;fill-opacity:1;stroke:#2d2d2d;stroke-width:0.60633487;stroke-linecap:round;stroke-linejoin:round;stroke-miterlimit:4;stroke-opacity:1;stroke-dasharray:none"
       id="rect3201-8-6-0"
       width="0.44654953"
       height="8.9018764"
       x="-12.790424"
       y="-2.3521509"
       rx="1.2034335"
       ry="0.87061429"
       transform="matrix(-0.58154307,-0.81351562,-0.8193098,0.57335107,0,0)"
       inkscape:transform-center-x="-2.8428448"
       inkscape:transform-center-y="-1.2961201" />
  </g>
</svg>
