<?xml version="1.0" encoding="UTF-8" standalone="no"?>
<!-- Created with Inkscape (http://www.inkscape.org/) -->

<svg
   xmlns:dc="http://purl.org/dc/elements/1.1/"
   xmlns:cc="http://creativecommons.org/ns#"
   xmlns:rdf="http://www.w3.org/1999/02/22-rdf-syntax-ns#"
   xmlns:svg="http://www.w3.org/2000/svg"
   xmlns="http://www.w3.org/2000/svg"
   xmlns:sodipodi="http://sodipodi.sourceforge.net/DTD/sodipodi-0.dtd"
   xmlns:inkscape="http://www.inkscape.org/namespaces/inkscape"
   width="32"
   height="32"
   id="svg2985"
   version="1.1"
   inkscape:version="0.91 r13725"
   sodipodi:docname="2graphs.svg">
  <defs
     id="defs2987" />
  <sodipodi:namedview
     id="base"
     pagecolor="#ffffff"
     bordercolor="#666666"
     borderopacity="1.0"
     inkscape:pageopacity="0.0"
     inkscape:pageshadow="2"
     inkscape:zoom="26.397102"
     inkscape:cx="25.953024"
     inkscape:cy="14.617569"
     inkscape:current-layer="layer1"
     showgrid="true"
     inkscape:grid-bbox="true"
     inkscape:document-units="px"
     inkscape:window-width="1920"
     inkscape:window-height="1056"
     inkscape:window-x="0"
     inkscape:window-y="24"
     inkscape:window-maximized="1" />
  <metadata
     id="metadata2990">
    <rdf:RDF>
      <cc:Work
         rdf:about="">
        <dc:format>image/svg+xml</dc:format>
        <dc:type
           rdf:resource="http://purl.org/dc/dcmitype/StillImage" />
        <dc:title />
      </cc:Work>
    </rdf:RDF>
  </metadata>
  <g
     id="layer1"
     inkscape:label="Layer 1"
     inkscape:groupmode="layer"
     transform="translate(0,16)">
    <path
       style="fill:#2d2d2d;fill-opacity:1;stroke:none"
       d="M 4.3183594 0.01953125 A 4.3324578 4.3324578 0 0 0 -0.013671875 4.3515625 A 4.3324578 4.3324578 0 0 0 3.1933594 8.5292969 L 3.1933594 13.765625 A 4.3324578 4.3324578 0 0 0 0.04296875 17.933594 A 4.3324578 4.3324578 0 0 0 4.375 22.265625 A 4.3324578 4.3324578 0 0 0 8.7089844 17.933594 A 4.3324578 4.3324578 0 0 0 5.2558594 13.693359 L 5.2558594 8.5761719 A 4.3324578 4.3324578 0 0 0 8.4355469 5.6933594 L 20.349609 7.7148438 A 4.3324578 4.3324578 0 0 0 24.675781 11.865234 A 4.3324578 4.3324578 0 0 0 29.007812 7.5332031 A 4.3324578 4.3324578 0 0 0 24.675781 3.2011719 A 4.3324578 4.3324578 0 0 0 20.757812 5.6933594 L 8.6757812 3.640625 C 8.6456259 3.6355032 8.6198281 3.6375932 8.5898438 3.6328125 A 4.3324578 4.3324578 0 0 0 4.3183594 0.01953125 z M 27.962891 16.517578 A 4.3324577 4.3324577 0 0 0 26.263672 16.798828 A 4.3324577 4.3324577 0 0 0 23.533203 21.554688 L 14.779297 25.238281 A 4.3324577 4.3324577 0 0 0 9.6542969 23.619141 A 4.3324577 4.3324577 0 0 0 7.1484375 29.210938 A 4.3324577 4.3324577 0 0 0 12.740234 31.714844 A 4.3324577 4.3324577 0 0 0 15.496094 27.175781 L 24.347656 23.451172 A 4.3324577 4.3324577 0 0 0 29.351562 24.896484 A 4.3324577 4.3324577 0 0 0 31.855469 19.304688 A 4.3324577 4.3324577 0 0 0 27.962891 16.517578 z "
       transform="translate(0,-16)"
       id="path3012-9-6-0-2-2" />
  </g>
</svg>
