<?xml version="1.0" encoding="UTF-8" standalone="no"?>
<!-- Created with Inkscape (http://www.inkscape.org/) -->

<svg
   xmlns:dc="http://purl.org/dc/elements/1.1/"
   xmlns:cc="http://creativecommons.org/ns#"
   xmlns:rdf="http://www.w3.org/1999/02/22-rdf-syntax-ns#"
   xmlns:svg="http://www.w3.org/2000/svg"
   xmlns="http://www.w3.org/2000/svg"
   xmlns:sodipodi="http://sodipodi.sourceforge.net/DTD/sodipodi-0.dtd"
   xmlns:inkscape="http://www.inkscape.org/namespaces/inkscape"
   width="32"
   height="32"
   id="svg3765"
   version="1.1"
   inkscape:version="0.48.3.1 r9886"
   sodipodi:docname="add_node.svg"
   inkscape:export-filename="/home/k00ni/Documents/semicon/owl.png"
   inkscape:export-xdpi="90"
   inkscape:export-ydpi="90">
  <defs
     id="defs3767" />
  <sodipodi:namedview
     id="base"
     pagecolor="#ffffff"
     bordercolor="#666666"
     borderopacity="1.0"
     inkscape:pageopacity="0.0"
     inkscape:pageshadow="2"
     inkscape:zoom="19.79899"
     inkscape:cx="8.1347071"
     inkscape:cy="10.566393"
     inkscape:current-layer="layer1-9-3"
     showgrid="true"
     inkscape:grid-bbox="true"
     inkscape:document-units="px"
     inkscape:window-width="1920"
     inkscape:window-height="1056"
     inkscape:window-x="0"
     inkscape:window-y="24"
     inkscape:window-maximized="1"
     showguides="true"
     inkscape:guide-bbox="true" />
  <metadata
     id="metadata3770">
    <rdf:RDF>
      <cc:Work
         rdf:about="">
        <dc:format>image/svg+xml</dc:format>
        <dc:type
           rdf:resource="http://purl.org/dc/dcmitype/StillImage" />
        <dc:title />
      </cc:Work>
    </rdf:RDF>
  </metadata>
  <g
     id="layer1"
     inkscape:label="Layer 1"
     inkscape:groupmode="layer"
     transform="translate(0,-16)">
    <g
       inkscape:label="Layer 1"
       id="layer1-4"
       transform="translate(0.20202972,-1.9622142e-8)">
      <g
         transform="translate(-0.37059768,-0.09089584)"
         id="layer1-9"
         inkscape:label="Layer 1">
        <g
           inkscape:label="Layer 1"
           id="layer1-9-3"
           transform="translate(-44.951788,-4.1416259)">
          <g
             id="g3015"
             transform="matrix(-0.54600743,-1.5781011,-1.6858226,0.58182446,164.22502,98.365039)">
            <path
               sodipodi:nodetypes="csc"
               inkscape:connector-curvature="0"
               id="path3105"
               d="m 46.614722,41.364256 c -0.06313,-1.116592 1.401411,-3.161992 3.221506,-3.574383 3.010535,-0.682118 4.834052,2.156401 5.822723,3.697658"
               style="fill:none;stroke:#2d2d2d;stroke-width:2.26999998;stroke-linecap:butt;stroke-linejoin:miter;stroke-miterlimit:4;stroke-opacity:1;stroke-dasharray:none" />
            <path
               sodipodi:nodetypes="cccc"
               inkscape:connector-curvature="0"
               id="rect3097"
               d="m 57.308333,36.741721 -0.998709,5.890005 -5.826953,-1.053403 c 0,0 6.811476,-4.826548 6.825662,-4.836602 z"
               style="fill:#2d2d2d;fill-opacity:1;stroke:none" />
          </g>
          <path
             transform="matrix(-0.35662826,0.79072042,-0.82354678,-0.34241314,90.785275,50.190032)"
             sodipodi:type="arc"
             style="fill:#2d2d2d;fill-opacity:1;stroke:#2d2d2d;stroke-width:0.80000001;stroke-linecap:round;stroke-linejoin:round;stroke-miterlimit:4;stroke-opacity:1;stroke-dasharray:none"
             id="path3015-0-2-2"
             sodipodi:cx="10.354064"
             sodipodi:cy="28.352533"
             sodipodi:rx="3.7880721"
             sodipodi:ry="3.7880721"
             d="m 14.142136,28.352533 a 3.7880721,3.7880721 0 1 1 -7.5761441,0 3.7880721,3.7880721 0 1 1 7.5761441,0 z" />
          <g
             id="g3008"
             transform="matrix(1.6491612,-0.86849559,0.85366809,1.6778059,-35.076468,-10.711918)">
            <path
               transform="matrix(1.5813954,0,0,1.5813954,23.952275,30.123243)"
               d="m 5.5427371,6.1568637 c 0,0.7564958 -0.613261,1.3697568 -1.3697568,1.3697568 -0.7564958,0 -1.3697568,-0.613261 -1.3697568,-1.3697568 0,-0.7564958 0.613261,-1.3697568 1.3697568,-1.3697568 0.7564958,0 1.3697568,0.613261 1.3697568,1.3697568 z"
               sodipodi:ry="1.3697568"
               sodipodi:rx="1.3697568"
               sodipodi:cy="6.1568637"
               sodipodi:cx="4.1729803"
               id="path3012-9-6-0-2-2"
               style="fill:#2d2d2d;fill-opacity:1;stroke:none"
               sodipodi:type="arc" />
            <rect
               transform="matrix(0.99894599,-0.04590113,0.04590113,0.99894599,0,0)"
               ry="0.8536303"
               rx="1.2018645"
               y="39.829552"
               x="27.947321"
               height="8.7282181"
               width="0.44596735"
               id="rect3201"
               style="fill:#666666;fill-opacity:1;stroke:#2d2d2d;stroke-width:0.60000002;stroke-linecap:round;stroke-linejoin:round;stroke-miterlimit:4;stroke-opacity:1;stroke-dasharray:none" />
            <rect
               transform="matrix(0.1647514,-0.98633512,0.98793857,0.15484634,0,0)"
               ry="0.87061429"
               rx="1.2034335"
               y="36.901905"
               x="-34.885937"
               height="8.9018764"
               width="0.44654953"
               id="rect3201-8"
               style="fill:#666666;fill-opacity:1;stroke:#2d2d2d;stroke-width:0.60633487;stroke-linecap:round;stroke-linejoin:round;stroke-miterlimit:4;stroke-opacity:1;stroke-dasharray:none" />
            <path
               transform="matrix(1.5813954,0,0,1.5813954,33.476863,31.938968)"
               d="m 5.5427371,6.1568637 c 0,0.7564958 -0.613261,1.3697568 -1.3697568,1.3697568 -0.7564958,0 -1.3697568,-0.613261 -1.3697568,-1.3697568 0,-0.7564958 0.613261,-1.3697568 1.3697568,-1.3697568 0.7564958,0 1.3697568,0.613261 1.3697568,1.3697568 z"
               sodipodi:ry="1.3697568"
               sodipodi:rx="1.3697568"
               sodipodi:cy="6.1568637"
               sodipodi:cx="4.1729803"
               id="path3012-9-6-0-2-2-7"
               style="fill:#2d2d2d;fill-opacity:1;stroke:none"
               sodipodi:type="arc" />
            <path
               transform="matrix(1.5813954,0,0,1.5813954,23.665581,36.080093)"
               d="m 5.5427371,6.1568637 c 0,0.7564958 -0.613261,1.3697568 -1.3697568,1.3697568 -0.7564958,0 -1.3697568,-0.613261 -1.3697568,-1.3697568 0,-0.7564958 0.613261,-1.3697568 1.3697568,-1.3697568 0.7564958,0 1.3697568,0.613261 1.3697568,1.3697568 z"
               sodipodi:ry="1.3697568"
               sodipodi:rx="1.3697568"
               sodipodi:cy="6.1568637"
               sodipodi:cx="4.1729803"
               id="path3012-9-6-0-2-2-3-2-7"
               style="fill:#2d2d2d;fill-opacity:1;stroke:none"
               sodipodi:type="arc" />
          </g>
        </g>
      </g>
    </g>
  </g>
</svg>
