<?xml version="1.0" encoding="UTF-8" standalone="no"?>
<!-- Created with Inkscape (http://www.inkscape.org/) -->

<svg
   xmlns:dc="http://purl.org/dc/elements/1.1/"
   xmlns:cc="http://creativecommons.org/ns#"
   xmlns:rdf="http://www.w3.org/1999/02/22-rdf-syntax-ns#"
   xmlns:svg="http://www.w3.org/2000/svg"
   xmlns="http://www.w3.org/2000/svg"
   xmlns:sodipodi="http://sodipodi.sourceforge.net/DTD/sodipodi-0.dtd"
   xmlns:inkscape="http://www.inkscape.org/namespaces/inkscape"
   width="32"
   height="32"
   id="svg3765"
   version="1.1"
   inkscape:version="0.91 r13725"
   sodipodi:docname="add_node.svg"
   inkscape:export-filename="/home/k00ni/Documents/semicon/owl.png"
   inkscape:export-xdpi="90"
   inkscape:export-ydpi="90">
  <defs
     id="defs3767" />
  <sodipodi:namedview
     id="base"
     pagecolor="#ffffff"
     bordercolor="#666666"
     borderopacity="1.0"
     inkscape:pageopacity="0.0"
     inkscape:pageshadow="2"
     inkscape:zoom="18.155519"
     inkscape:cx="9.2120697"
     inkscape:cy="17.296765"
     inkscape:current-layer="layer1-9-3"
     showgrid="true"
     inkscape:grid-bbox="true"
     inkscape:document-units="px"
     inkscape:window-width="1920"
     inkscape:window-height="1056"
     inkscape:window-x="0"
     inkscape:window-y="24"
     inkscape:window-maximized="1"
     showguides="true"
     inkscape:guide-bbox="true" />
  <metadata
     id="metadata3770">
    <rdf:RDF>
      <cc:Work
         rdf:about="">
        <dc:format>image/svg+xml</dc:format>
        <dc:type
           rdf:resource="http://purl.org/dc/dcmitype/StillImage" />
        <dc:title />
      </cc:Work>
    </rdf:RDF>
  </metadata>
  <g
     id="layer1"
     inkscape:label="Layer 1"
     inkscape:groupmode="layer"
     transform="translate(0,-16)">
    <g
       inkscape:label="Layer 1"
       id="layer1-4"
       transform="translate(0.20202972,-1.9622142e-8)">
      <g
         transform="translate(-0.37059768,-0.09089584)"
         id="layer1-9"
         inkscape:label="Layer 1">
        <g
           inkscape:label="Layer 1"
           id="layer1-9-3"
           transform="translate(-44.951788,-4.1416259)">
          <path
             style="fill:#2d2d2d;fill-opacity:1;stroke:none;stroke-width:0.70365894;stroke-linecap:round;stroke-linejoin:round;stroke-miterlimit:4;stroke-dasharray:none;stroke-opacity:1"
             d="M 15.072266 0.0234375 A 4.0225171 4.0923852 0 0 0 13.132812 0.48046875 A 4.0225171 4.0923852 0 0 0 11.037109 4.8964844 L 7.09375 7.171875 A 4.0225171 4.0923852 0 0 0 2.1992188 6.2050781 A 4.0225171 4.0923852 0 0 0 0.4765625 11.720703 A 4.0225171 4.0923852 0 0 0 4.0019531 13.927734 C 4.0078774 13.951344 4.0073162 13.972374 4.0136719 13.996094 L 6.734375 24.146484 C 6.7479162 24.197021 6.770194 24.236062 6.7851562 24.285156 A 4.0225171 4.0923852 0 0 0 5.0898438 29.785156 A 4.0225171 4.0923852 0 0 0 10.509766 31.539062 A 4.0225171 4.0923852 0 0 0 12.234375 26.023438 A 4.0225171 4.0923852 0 0 0 8.5136719 23.820312 C 8.5021495 23.770657 8.5017285 23.725967 8.4882812 23.675781 L 5.7714844 13.53125 A 4.0225171 4.0923852 0 0 0 5.8984375 13.472656 A 4.0225171 4.0923852 0 0 0 7.9335938 8.7871094 L 11.767578 6.5722656 A 4.0225171 4.0923852 0 0 0 16.832031 7.7480469 A 4.0225171 4.0923852 0 0 0 18.554688 2.2324219 A 4.0225171 4.0923852 0 0 0 15.072266 0.0234375 z M 14.925781 14.263672 L 14.925781 20.984375 L 17.726562 18.183594 L 22.333984 22.792969 C 22.968434 23.427419 23.767029 23.650939 24.123047 23.294922 C 24.479063 22.938905 24.253591 22.142263 23.619141 21.507812 L 19.011719 16.898438 L 21.646484 14.263672 L 14.925781 14.263672 z M 28.523438 25.173828 A 3.564837 3.4227435 0 0 0 25.117188 27.234375 A 3.564837 3.4227435 0 0 0 26.972656 31.736328 A 3.564837 3.4227435 0 0 0 31.660156 29.955078 A 3.564837 3.4227435 0 0 0 29.804688 25.455078 A 3.564837 3.4227435 0 0 0 28.523438 25.173828 z "
             transform="translate(45.120356,20.232522)"
             id="path3015-0-2-2" />
        </g>
      </g>
    </g>
  </g>
</svg>
