<?xml version="1.0" encoding="UTF-8" standalone="no"?>
<!-- Created with Inkscape (http://www.inkscape.org/) -->

<svg
   xmlns:dc="http://purl.org/dc/elements/1.1/"
   xmlns:cc="http://creativecommons.org/ns#"
   xmlns:rdf="http://www.w3.org/1999/02/22-rdf-syntax-ns#"
   xmlns:svg="http://www.w3.org/2000/svg"
   xmlns="http://www.w3.org/2000/svg"
   xmlns:sodipodi="http://sodipodi.sourceforge.net/DTD/sodipodi-0.dtd"
   xmlns:inkscape="http://www.inkscape.org/namespaces/inkscape"
   width="32px"
   height="32px"
   id="svg3004"
   version="1.1"
   inkscape:version="0.48.3.1 r9886"
   sodipodi:docname="area.svg"
   inkscape:export-filename="/home/k00ni/Documents/ow_cubeviz/extensions/cubeviz/public/images/area.png"
   inkscape:export-xdpi="90"
   inkscape:export-ydpi="90">
  <defs
     id="defs3006" />
  <sodipodi:namedview
     id="base"
     pagecolor="#ffffff"
     bordercolor="#666666"
     borderopacity="1.0"
     inkscape:pageopacity="0.0"
     inkscape:pageshadow="2"
     inkscape:zoom="22.395604"
     inkscape:cx="14.790314"
     inkscape:cy="13.931353"
     inkscape:current-layer="layer1"
     showgrid="true"
     inkscape:grid-bbox="true"
     inkscape:document-units="px"
     showguides="true"
     inkscape:guide-bbox="true"
     inkscape:window-width="1920"
     inkscape:window-height="1056"
     inkscape:window-x="0"
     inkscape:window-y="24"
     inkscape:window-maximized="1" />
  <metadata
     id="metadata3009">
    <rdf:RDF>
      <cc:Work
         rdf:about="">
        <dc:format>image/svg+xml</dc:format>
        <dc:type
           rdf:resource="http://purl.org/dc/dcmitype/StillImage" />
        <dc:title />
      </cc:Work>
    </rdf:RDF>
  </metadata>
  <g
     id="layer1"
     inkscape:label="Layer 1"
     inkscape:groupmode="layer">
    <path
       style="fill:#2d2d2d;fill-opacity:1;stroke:none"
       d="M 0.26257294,4.4212996 6.3384104,15.258246 C 9.4151598,20.745977 12.52741,25.021695 12.57214,25.96076 l 0.250411,5.257115 c 0.0037,0.07768 -0.06336,0.140356 -0.142081,0.140356 l -12.41789706,0 c -0.0787134,0 -0.14208128,-0.0626 -0.14208128,-0.140356 l 0,-26.6562192 c 0,-0.077758 0.10394471,-0.208378 0.14208128,-0.1403562 z"
       id="rect4123"
       inkscape:connector-curvature="0"
       sodipodi:nodetypes="sssssssss" />
    <path
       style="fill:#2d2d2d;fill-opacity:1;stroke:none"
       d="M 15.458263,10.035629 9.3775657,24.735082 c -1.8908998,4.571054 -6.9154801,0.01534 -6.8159289,0.754285 l 0.7741209,5.746174 c 0.00824,0.06112 0.061155,0.111042 0.1371325,0.111042 l 11.9853728,0 c 0.07597,0 0.137131,-0.04953 0.137131,-0.111042 l 0,-21.08887 c 0,-0.06151 -0.110795,-0.1747096 -0.137131,-0.111042 z"
       id="rect4123-1"
       inkscape:connector-curvature="0"
       sodipodi:nodetypes="sssssssss" />
    <path
       style="fill:#2d2d2d;fill-opacity:1;stroke:none"
       d="M 31.931385,0.01987329 23.132312,15.967789 C 20.31598,21.072261 19.113058,14.58987 19.197399,15.680307 l 1.204059,15.567095 c 0.007,0.0902 0.05816,0.163565 0.13043,0.163565 l 11.399497,0 c 0.07225,0 0.130429,-0.07295 0.130429,-0.163565 l 0,-31.06396443 c 0,-0.09060896 -0.09119,-0.23466469 -0.130429,-0.16356428 z"
       id="rect4123-1-3"
       inkscape:connector-curvature="0"
       sodipodi:nodetypes="sssssssss" />
    <path
       style="fill:#2d2d2d;fill-opacity:1;stroke:none"
       d="m 15.564458,10.001531 7.597187,5.826793 c 3.944148,3.025032 5.778987,4.064564 5.690975,4.804847 l -1.256459,10.568271 c -0.0073,0.06123 -0.06069,0.111042 -0.136106,0.111042 l -11.895597,0 c -0.0754,0 -0.136105,-0.04953 -0.136105,-0.111042 l 0,-21.088869 c 0,-0.06151 0.08117,-0.1531778 0.136105,-0.111042 z"
       id="rect4123-1-9"
       inkscape:connector-curvature="0"
       sodipodi:nodetypes="sssssssss" />
    <rect
       style="fill:#2d2d2d;fill-opacity:1;stroke:none"
       id="rect4198"
       width="31.944988"
       height="4.8418283"
       x="0.12049172"
       y="27.130157"
       ry="0.1403562" />
    <rect
       style="fill:#2d2d2d;fill-opacity:1;stroke:none"
       id="rect4200"
       width="0.68339115"
       height="18.806181"
       x="15.511511"
       y="10.447462"
       ry="0.1403562" />
  </g>
</svg>
