<?xml version="1.0" encoding="UTF-8" standalone="no"?>
<!-- Created with Inkscape (http://www.inkscape.org/) -->

<svg
   xmlns:dc="http://purl.org/dc/elements/1.1/"
   xmlns:cc="http://creativecommons.org/ns#"
   xmlns:rdf="http://www.w3.org/1999/02/22-rdf-syntax-ns#"
   xmlns:svg="http://www.w3.org/2000/svg"
   xmlns="http://www.w3.org/2000/svg"
   xmlns:sodipodi="http://sodipodi.sourceforge.net/DTD/sodipodi-0.dtd"
   xmlns:inkscape="http://www.inkscape.org/namespaces/inkscape"
   width="32px"
   height="32px"
   id="svg3004"
   version="1.1"
   inkscape:version="0.91 r13725"
   sodipodi:docname="attribute2.svg"
   inkscape:export-filename="/home/k00ni/Documents/ow_cubeviz/extensions/cubeviz/public/images/attributeAndMeasure.png"
   inkscape:export-xdpi="90"
   inkscape:export-ydpi="90">
  <defs
     id="defs3006" />
  <sodipodi:namedview
     id="base"
     pagecolor="#ffffff"
     bordercolor="#666666"
     borderopacity="1.0"
     inkscape:pageopacity="0.0"
     inkscape:pageshadow="2"
     inkscape:zoom="20.536593"
     inkscape:cx="15.110279"
     inkscape:cy="15.773759"
     inkscape:current-layer="layer1"
     showgrid="true"
     inkscape:grid-bbox="true"
     inkscape:document-units="px"
     showguides="true"
     inkscape:guide-bbox="true"
     inkscape:window-width="1920"
     inkscape:window-height="1056"
     inkscape:window-x="0"
     inkscape:window-y="24"
     inkscape:window-maximized="1" />
  <metadata
     id="metadata3009">
    <rdf:RDF>
      <cc:Work
         rdf:about="">
        <dc:format>image/svg+xml</dc:format>
        <dc:type
           rdf:resource="http://purl.org/dc/dcmitype/StillImage" />
        <dc:title />
      </cc:Work>
    </rdf:RDF>
  </metadata>
  <g
     id="layer1"
     inkscape:label="Layer 1"
     inkscape:groupmode="layer">
    <path
       style="font-style:normal;font-variant:normal;font-weight:bold;font-stretch:normal;font-size:26.40974998px;line-height:125%;font-family:Ubuntu;-inkscape-font-specification:'Ubuntu Bold';letter-spacing:0px;word-spacing:0px;fill:#000000;fill-opacity:1;stroke:none"
       d="M 28.066406 0.044921875 C 27.901142 0.037040152 27.73416 0.038420008 27.5625 0.048828125 C 26.875859 0.090460072 26.150683 0.28338828 25.386719 0.62890625 C 24.630609 0.9838991 23.847496 1.4958892 23.039062 2.1660156 C 21.412904 3.5139708 20.4215 4.8634712 20.066406 6.2128906 C 19.72846 7.5640826 20.020497 8.7937251 20.939453 9.9023438 C 21.85841 11.010962 23.008053 11.518702 24.390625 11.427734 C 25.790345 11.33854 27.30353 10.621392 28.929688 9.2734375 C 30.546554 7.933185 31.523381 6.5875203 31.861328 5.2363281 C 32.216421 3.8869091 31.934582 2.6574468 31.015625 1.5488281 C 30.567929 1.0087319 30.053065 0.61233301 29.46875 0.36132812 C 29.030513 0.17307439 28.5622 0.068567045 28.066406 0.044921875 z M 17.296875 1.3066406 C 16.974546 1.3220467 16.657367 1.4607401 16.34375 1.7207031 C 15.925567 2.0673201 15.714004 2.4638897 15.710938 2.9140625 C 15.72499 3.3660082 15.873495 3.7643555 16.15625 4.1054688 C 16.439006 4.4465825 16.796824 4.6598963 17.230469 4.7480469 C 17.68126 4.8379703 18.117001 4.7098982 18.535156 4.3632812 C 18.953312 4.0166638 19.154678 3.6179613 19.140625 3.1660156 C 19.14372 2.7158429 19.003459 2.3196294 18.720703 1.9785156 C 18.437948 1.6374024 18.071886 1.4219547 17.621094 1.3320312 C 17.512683 1.3099936 17.404318 1.3015053 17.296875 1.3066406 z M 28.441406 2.5566406 C 28.748607 2.6057284 29.012501 2.7620331 29.232422 3.0273438 C 29.452343 3.292654 29.557565 3.5816019 29.548828 3.8925781 C 29.540091 4.2035547 29.434087 4.5300369 29.232422 4.8730469 C 29.030757 5.216056 28.750924 5.5764895 28.390625 5.9550781 C 28.039618 6.3259646 27.621873 6.712746 27.138672 7.1132812 C 26.655471 7.5138165 26.194701 7.8548371 25.755859 8.1386719 C 25.317018 8.4225077 24.909616 8.6330269 24.535156 8.7675781 C 24.160696 8.9021299 23.820875 8.9436193 23.513672 8.8945312 C 23.206471 8.8454429 22.942578 8.6891383 22.722656 8.4238281 C 22.502732 8.1585175 22.39751 7.8695694 22.40625 7.5585938 C 22.422842 7.2570926 22.528846 6.9306105 22.722656 6.578125 C 22.924321 6.2351153 23.204154 5.8746827 23.564453 5.4960938 C 23.924752 5.1175051 24.346877 4.7267071 24.830078 4.3261719 C 25.313279 3.9256367 25.769669 3.5886327 26.199219 3.3125 C 26.63806 3.0286652 27.045462 2.818145 27.419922 2.6835938 C 27.802237 2.5585175 28.142058 2.517028 28.441406 2.5566406 z M 13.523438 6.4707031 L 10.5625 8.2050781 L 8.7304688 31.966797 L 11.691406 30.232422 L 13.523438 6.4707031 z M 4.5527344 11.837891 C 3.8947513 11.796802 3.2072453 11.987271 2.4882812 12.408203 C 1.3379389 13.081695 0.57812198 14.071412 0.20898438 15.378906 C -0.16015349 16.6864 -0.050478492 18.194574 0.53710938 19.902344 C 1.1246969 21.610113 1.913972 22.719234 2.9082031 23.228516 C 3.9024341 23.737797 4.9746577 23.655914 6.125 22.982422 C 7.2753424 22.308931 8.0351591 21.31726 8.4042969 20.009766 C 8.7734345 18.702271 8.6657125 17.196051 8.078125 15.488281 C 7.4905372 13.780512 6.6993091 12.671391 5.7050781 12.162109 C 5.3322414 11.971128 4.9475242 11.862544 4.5527344 11.837891 z M 18.236328 14.861328 C 17.578345 14.82024 16.890839 15.010709 16.171875 15.431641 C 15.021532 16.105133 14.261715 17.09485 13.892578 18.402344 C 13.52344 19.709838 13.631163 21.218013 14.21875 22.925781 C 14.806338 24.633551 15.597566 25.740719 16.591797 26.25 C 17.586028 26.759282 18.658251 26.677398 19.808594 26.003906 C 20.958936 25.330415 21.718753 24.340698 22.087891 23.033203 C 22.457028 21.725709 22.347353 20.217535 21.759766 18.509766 C 21.172178 16.801996 20.382903 15.694829 19.388672 15.185547 C 19.015835 14.994566 18.631118 14.885981 18.236328 14.861328 z M 3.9941406 14.890625 C 4.1934037 14.89947 4.3940485 14.971372 4.59375 15.105469 C 4.993153 15.373662 5.3511241 15.969928 5.6699219 16.896484 C 5.9887194 17.82304 6.0958436 18.580325 5.9902344 19.166016 C 5.8783741 19.733539 5.6242118 20.132422 5.2265625 20.365234 C 4.8147116 20.606361 4.4091686 20.592412 4.0097656 20.324219 C 3.6183133 20.029543 3.2621569 19.420697 2.9433594 18.494141 C 2.6245616 17.567585 2.5136696 16.824834 2.6113281 16.265625 C 2.7231883 15.698102 2.9846334 15.291908 3.3964844 15.050781 C 3.595309 14.934375 3.7948776 14.88178 3.9941406 14.890625 z M 17.677734 17.912109 C 17.876997 17.920954 18.075689 17.992856 18.275391 18.126953 C 18.674794 18.395146 19.034718 18.993367 19.353516 19.919922 C 19.672314 20.846479 19.779437 21.601809 19.673828 22.1875 C 19.561968 22.755023 19.305852 23.15586 18.908203 23.388672 C 18.496352 23.629799 18.09081 23.61585 17.691406 23.347656 C 17.299954 23.05298 16.945751 22.442182 16.626953 21.515625 C 16.308156 20.58907 16.197263 19.846317 16.294922 19.287109 C 16.406782 18.719586 16.668227 18.315346 17.080078 18.074219 C 17.278903 17.957812 17.478471 17.903264 17.677734 17.912109 z "
       id="path4138" />
  </g>
</svg>
