<?xml version="1.0" encoding="UTF-8" standalone="no"?>
<!-- Created with Inkscape (http://www.inkscape.org/) -->

<svg
   xmlns:dc="http://purl.org/dc/elements/1.1/"
   xmlns:cc="http://creativecommons.org/ns#"
   xmlns:rdf="http://www.w3.org/1999/02/22-rdf-syntax-ns#"
   xmlns:svg="http://www.w3.org/2000/svg"
   xmlns="http://www.w3.org/2000/svg"
   xmlns:sodipodi="http://sodipodi.sourceforge.net/DTD/sodipodi-0.dtd"
   xmlns:inkscape="http://www.inkscape.org/namespaces/inkscape"
   width="32"
   height="32"
   id="svg2985"
   version="1.1"
   inkscape:version="0.91 r13725"
   sodipodi:docname="bipartite_graph.svg">
  <defs
     id="defs2987" />
  <sodipodi:namedview
     id="base"
     pagecolor="#ffffff"
     bordercolor="#666666"
     borderopacity="1.0"
     inkscape:pageopacity="0.0"
     inkscape:pageshadow="2"
     inkscape:zoom="20.355211"
     inkscape:cx="8.4896364"
     inkscape:cy="12.270533"
     inkscape:current-layer="layer1"
     showgrid="true"
     inkscape:grid-bbox="true"
     inkscape:document-units="px"
     inkscape:window-width="1920"
     inkscape:window-height="1056"
     inkscape:window-x="0"
     inkscape:window-y="24"
     inkscape:window-maximized="1" />
  <metadata
     id="metadata2990">
    <rdf:RDF>
      <cc:Work
         rdf:about="">
        <dc:format>image/svg+xml</dc:format>
        <dc:type
           rdf:resource="http://purl.org/dc/dcmitype/StillImage" />
        <dc:title />
      </cc:Work>
    </rdf:RDF>
  </metadata>
  <g
     id="layer1"
     inkscape:label="Layer 1"
     inkscape:groupmode="layer"
     transform="translate(0,16)">
    <path
       sodipodi:type="arc"
       style="fill:#2d2d2d;fill-opacity:1;stroke:none"
       id="path3012-9-6-2"
       sodipodi:cx="4.1729803"
       sodipodi:cy="6.1568637"
       sodipodi:rx="1.3697568"
       sodipodi:ry="1.3697568"
       d="M 5.5427371,6.1568637 A 1.3697568,1.3697568 0 0 1 4.1729803,7.5266205 1.3697568,1.3697568 0 0 1 2.8032235,6.1568637 1.3697568,1.3697568 0 0 1 4.1729803,4.7871069 1.3697568,1.3697568 0 0 1 5.5427371,6.1568637 Z"
       transform="matrix(1.8751856,0,0,1.8751856,-5.1610001,-23.865151)" />
    <path
       sodipodi:type="arc"
       style="fill:#2d2d2d;fill-opacity:1;stroke:none"
       id="path3012-9-6-0-9-4"
       sodipodi:cx="4.1729803"
       sodipodi:cy="6.1568637"
       sodipodi:rx="1.3697568"
       sodipodi:ry="1.3697568"
       d="M 5.5427371,6.1568637 A 1.3697568,1.3697568 0 0 1 4.1729803,7.5266205 1.3697568,1.3697568 0 0 1 2.8032235,6.1568637 1.3697568,1.3697568 0 0 1 4.1729803,4.7871069 1.3697568,1.3697568 0 0 1 5.5427371,6.1568637 Z"
       transform="matrix(2.4040841,0,0,2.4040841,-5.9850183,-13.093283)" />
    <circle
       style="fill:#2d2d2d;fill-opacity:1;stroke:none"
       id="path3012-9-6-0-9-4-1-9"
       cx="2.5523372"
       cy="7.6546283"
       r="2.5685482" />
    <circle
       style="fill:#2d2d2d;fill-opacity:1;stroke:none"
       id="path3012-9-6-0-9-8"
       cx="8.9735422"
       cy="-12.867053"
       r="3.0751491" />
    <path
       sodipodi:type="arc"
       style="fill:#2d2d2d;fill-opacity:1;stroke:none"
       id="path3012-9-6-0-9-4-7"
       sodipodi:cx="4.1729803"
       sodipodi:cy="6.1568637"
       sodipodi:rx="1.3697568"
       sodipodi:ry="1.3697568"
       d="M 5.5427371,6.1568637 A 1.3697568,1.3697568 0 0 1 4.1729803,7.5266205 1.3697568,1.3697568 0 0 1 2.8032235,6.1568637 1.3697568,1.3697568 0 0 1 4.1729803,4.7871069 1.3697568,1.3697568 0 0 1 5.5427371,6.1568637 Z"
       transform="matrix(2.4040841,0,0,2.4040841,0.13998111,-2.0946285)" />
    <circle
       r="1.671804"
       cy="-8.0233326"
       cx="4.4706001"
       style="fill:#2d2d2d;fill-opacity:1;stroke:none"
       id="path3012-9-6-0-9-4-9" />
    <circle
       r="1.671804"
       cy="-4.5352821"
       cx="2.947648"
       style="fill:#2d2d2d;fill-opacity:1;stroke:none"
       id="path3012-9-6-0-9-4-9-1" />
    <circle
       r="1.671804"
       cy="-3.012331"
       cx="6.3374434"
       style="fill:#2d2d2d;fill-opacity:1;stroke:none"
       id="path3012-9-6-0-9-4-9-1-2" />
    <circle
       r="1.671804"
       cy="7.9430947"
       cx="7.2708654"
       style="fill:#2d2d2d;fill-opacity:1;stroke:none"
       id="path3012-9-6-0-9-4-9-1-2-7" />
    <circle
       r="2.5685482"
       cy="-12.382361"
       cx="-29.311895"
       style="fill:#2d2d2d;fill-opacity:1;stroke:none"
       id="path3012-9-6-2-0"
       transform="scale(-1,-1)" />
    <circle
       r="3.2930105"
       cy="1.6458631"
       cx="-27.928831"
       style="fill:#2d2d2d;fill-opacity:1;stroke:none"
       id="path3012-9-6-0-9-4-93"
       transform="scale(-1,-1)" />
    <circle
       style="fill:#2d2d2d;fill-opacity:1;stroke:none"
       id="path3012-9-6-0-9-4-1-9-6"
       cx="-29.423672"
       cy="7.5921559"
       r="2.5685482"
       transform="scale(-1,-1)" />
    <circle
       style="fill:#2d2d2d;fill-opacity:1;stroke:none"
       id="path3012-9-6-0-9-8-0"
       cx="-23.002466"
       cy="-12.929524"
       r="3.0751491"
       transform="scale(-1,-1)" />
    <circle
       r="3.2930105"
       cy="12.644519"
       cx="-21.803831"
       style="fill:#2d2d2d;fill-opacity:1;stroke:none"
       id="path3012-9-6-0-9-4-7-6"
       transform="scale(-1,-1)" />
    <circle
       r="1.671804"
       cy="-8.0858059"
       cx="-27.505407"
       style="fill:#2d2d2d;fill-opacity:1;stroke:none"
       id="path3012-9-6-0-9-4-9-2"
       transform="scale(-1,-1)" />
    <circle
       r="1.671804"
       cy="-4.5977564"
       cx="-29.02836"
       style="fill:#2d2d2d;fill-opacity:1;stroke:none"
       id="path3012-9-6-0-9-4-9-1-6"
       transform="scale(-1,-1)" />
    <circle
       r="1.671804"
       cy="-3.0748045"
       cx="-25.638565"
       style="fill:#2d2d2d;fill-opacity:1;stroke:none"
       id="path3012-9-6-0-9-4-9-1-2-1"
       transform="scale(-1,-1)" />
    <circle
       r="1.671804"
       cy="7.8806214"
       cx="-24.705143"
       style="fill:#2d2d2d;fill-opacity:1;stroke:none"
       id="path3012-9-6-0-9-4-9-1-2-7-8"
       transform="scale(-1,-1)" />
  </g>
</svg>
