<?xml version="1.0" encoding="UTF-8" standalone="no"?>
<!-- Created with Inkscape (http://www.inkscape.org/) -->

<svg
   xmlns:dc="http://purl.org/dc/elements/1.1/"
   xmlns:cc="http://creativecommons.org/ns#"
   xmlns:rdf="http://www.w3.org/1999/02/22-rdf-syntax-ns#"
   xmlns:svg="http://www.w3.org/2000/svg"
   xmlns="http://www.w3.org/2000/svg"
   xmlns:sodipodi="http://sodipodi.sourceforge.net/DTD/sodipodi-0.dtd"
   xmlns:inkscape="http://www.inkscape.org/namespaces/inkscape"
   width="32"
   height="32"
   id="svg2985"
   version="1.1"
   inkscape:version="0.91 r13725"
   sodipodi:docname="blank_node.svg">
  <defs
     id="defs2987" />
  <sodipodi:namedview
     id="base"
     pagecolor="#ffffff"
     bordercolor="#666666"
     borderopacity="1.0"
     inkscape:pageopacity="0.0"
     inkscape:pageshadow="2"
     inkscape:zoom="20.355211"
     inkscape:cx="25.166733"
     inkscape:cy="19.958855"
     inkscape:current-layer="layer1"
     showgrid="true"
     inkscape:grid-bbox="true"
     inkscape:document-units="px"
     inkscape:window-width="1920"
     inkscape:window-height="1056"
     inkscape:window-x="0"
     inkscape:window-y="24"
     inkscape:window-maximized="1" />
  <metadata
     id="metadata2990">
    <rdf:RDF>
      <cc:Work
         rdf:about="">
        <dc:format>image/svg+xml</dc:format>
        <dc:type
           rdf:resource="http://purl.org/dc/dcmitype/StillImage" />
        <dc:title />
      </cc:Work>
    </rdf:RDF>
  </metadata>
  <g
     id="layer1"
     inkscape:label="Layer 1"
     inkscape:groupmode="layer"
     transform="translate(0,16)">
    <path
       sodipodi:type="arc"
       style="fill:#2d2d2d;fill-opacity:1;stroke:none"
       id="path3012-9-6-0-2-2-7"
       sodipodi:cx="4.1729803"
       sodipodi:cy="6.1568637"
       sodipodi:rx="1.3697568"
       sodipodi:ry="1.3697568"
       d="M 5.5427371,6.1568637 A 1.3697568,1.3697568 0 0 1 4.1729803,7.5266205 1.3697568,1.3697568 0 0 1 2.8032235,6.1568637 1.3697568,1.3697568 0 0 1 4.1729803,4.7871069 1.3697568,1.3697568 0 0 1 5.5427371,6.1568637 Z"
       transform="matrix(3.3549597,2.0104054,-2.0104054,3.3549597,25.055595,-39.586074)" />
    <path
       sodipodi:type="arc"
       style="fill:#2d2d2d;fill-opacity:1;stroke:none"
       id="path3012-9-6-0-2-2"
       sodipodi:cx="4.1729803"
       sodipodi:cy="6.1568637"
       sodipodi:rx="1.3697568"
       sodipodi:ry="1.3697568"
       d="M 5.5427371,6.1568637 A 1.3697568,1.3697568 0 0 1 4.1729803,7.5266205 1.3697568,1.3697568 0 0 1 2.8032235,6.1568637 1.3697568,1.3697568 0 0 1 4.1729803,4.7871069 1.3697568,1.3697568 0 0 1 5.5427371,6.1568637 Z"
       transform="matrix(4.0298522,2.4557661,-2.4557661,4.0298522,4.8057948,-44.598291)" />
    <rect
       style="fill:#2d2d2d;fill-opacity:1;stroke:none"
       id="rect3034-8-6-3"
       width="2.2571793"
       height="17.740267"
       x="-11.958229"
       y="-15.463319"
       rx="34.404114"
       ry="2.565347"
       transform="matrix(-0.63080649,0.77594018,-0.69000525,-0.72380436,0,0)" />
    <rect
       style="fill:#2d2d2d;fill-opacity:1;stroke:none"
       id="rect3034-8-6-3-6"
       width="2.3777122"
       height="13.983523"
       x="-27.87097"
       y="0.34721324"
       rx="36.241291"
       ry="2.0220997"
       transform="matrix(-0.99380409,-0.11114598,2.6879706e-4,-0.99999996,0,0)" />
    <path
       sodipodi:type="arc"
       style="fill:#2d2d2d;fill-opacity:1;stroke:none"
       id="path3012-9-6-0-2-2-6"
       sodipodi:cx="4.1729803"
       sodipodi:cy="6.1568637"
       sodipodi:rx="1.3697568"
       sodipodi:ry="1.3697568"
       d="M 5.5427371,6.1568637 A 1.3697568,1.3697568 0 0 1 4.1729803,7.5266205 1.3697568,1.3697568 0 0 1 2.8032235,6.1568637 1.3697568,1.3697568 0 0 1 4.1729803,4.7871069 1.3697568,1.3697568 0 0 1 5.5427371,6.1568637 Z"
       transform="matrix(3.4923695,-1.6057007,1.6057007,3.4923695,-19.144696,-3.9345866)" />
    <rect
       style="fill:#2d2d2d;fill-opacity:1;stroke:none"
       id="rect3034-8-6-3-2"
       width="2.6384394"
       height="9.7572985"
       x="10.146198"
       y="-15.164381"
       rx="40.215317"
       ry="1.4109627"
       transform="matrix(0.15453635,0.9879871,-0.98918395,0.14668031,0,0)" />
    <text
       xml:space="preserve"
       style="font-style:normal;font-weight:normal;font-size:16.09244156px;line-height:125%;font-family:sans-serif;letter-spacing:0px;word-spacing:0px;fill:#2d2d2d;fill-opacity:1;stroke:none;stroke-width:1px;stroke-linecap:butt;stroke-linejoin:miter;stroke-opacity:1;"
       x="14.526933"
       y="17.744152"
       id="text4145"
       sodipodi:linespacing="125%"
       transform="scale(1.2416072,0.80540769)"><tspan
         sodipodi:role="line"
         id="tspan4147"
         x="14.526933"
         y="17.744152">[]</tspan></text>
  </g>
</svg>
