<?xml version="1.0" encoding="UTF-8" standalone="no"?>
<!-- Created with Inkscape (http://www.inkscape.org/) -->

<svg
   xmlns:dc="http://purl.org/dc/elements/1.1/"
   xmlns:cc="http://creativecommons.org/ns#"
   xmlns:rdf="http://www.w3.org/1999/02/22-rdf-syntax-ns#"
   xmlns:svg="http://www.w3.org/2000/svg"
   xmlns="http://www.w3.org/2000/svg"
   xmlns:sodipodi="http://sodipodi.sourceforge.net/DTD/sodipodi-0.dtd"
   xmlns:inkscape="http://www.inkscape.org/namespaces/inkscape"
   width="32"
   height="32"
   id="svg2985"
   version="1.1"
   inkscape:version="0.91 r13725"
   sodipodi:docname="center2.svg">
  <defs
     id="defs2987" />
  <sodipodi:namedview
     id="base"
     pagecolor="#ffffff"
     bordercolor="#666666"
     borderopacity="1.0"
     inkscape:pageopacity="0.0"
     inkscape:pageshadow="2"
     inkscape:zoom="57.573231"
     inkscape:cx="19.345848"
     inkscape:cy="16.157859"
     inkscape:current-layer="layer1"
     showgrid="true"
     inkscape:grid-bbox="true"
     inkscape:document-units="px"
     inkscape:window-width="1920"
     inkscape:window-height="1056"
     inkscape:window-x="0"
     inkscape:window-y="24"
     inkscape:window-maximized="1" />
  <metadata
     id="metadata2990">
    <rdf:RDF>
      <cc:Work
         rdf:about="">
        <dc:format>image/svg+xml</dc:format>
        <dc:type
           rdf:resource="http://purl.org/dc/dcmitype/StillImage" />
        <dc:title />
      </cc:Work>
    </rdf:RDF>
  </metadata>
  <g
     id="layer1"
     inkscape:label="Layer 1"
     inkscape:groupmode="layer"
     transform="translate(0,16)">
    <path
       sodipodi:type="arc"
       style="fill:#b3b3b3;fill-opacity:1;stroke:none"
       id="path3012-9-6-0-2-2-9-5"
       sodipodi:cx="4.1729803"
       sodipodi:cy="6.1568637"
       sodipodi:rx="1.3697568"
       sodipodi:ry="1.3697568"
       d="M 5.5427371,6.1568637 A 1.3697568,1.3697568 0 0 1 4.1729803,7.5266205 1.3697568,1.3697568 0 0 1 2.8032235,6.1568637 1.3697568,1.3697568 0 0 1 4.1729803,4.7871069 1.3697568,1.3697568 0 0 1 5.5427371,6.1568637 Z"
       transform="matrix(3.1172892,0,0,3.1503429,-8.6957066,-7.6719714)" />
    <path
       sodipodi:type="arc"
       style="fill:#b3b3b3;fill-opacity:1;stroke:none"
       id="path3012-9-6-0-2-2-9-5-1"
       sodipodi:cx="4.1729803"
       sodipodi:cy="6.1568637"
       sodipodi:rx="1.3697568"
       sodipodi:ry="1.3697568"
       d="M 5.5427371,6.1568637 A 1.3697568,1.3697568 0 0 1 4.1729803,7.5266205 1.3697568,1.3697568 0 0 1 2.8032235,6.1568637 1.3697568,1.3697568 0 0 1 4.1729803,4.7871069 1.3697568,1.3697568 0 0 1 5.5427371,6.1568637 Z"
       transform="matrix(3.1172892,0,0,3.1503429,-8.7120689,-31.024839)" />
    <path
       sodipodi:type="arc"
       style="fill:#b3b3b3;fill-opacity:1;stroke:none"
       id="path3012-9-6-0-2-2-9-5-1-2"
       sodipodi:cx="4.1729803"
       sodipodi:cy="6.1568637"
       sodipodi:rx="1.3697568"
       sodipodi:ry="1.3697568"
       d="M 5.5427371,6.1568637 A 1.3697568,1.3697568 0 0 1 4.1729803,7.5266205 1.3697568,1.3697568 0 0 1 2.8032235,6.1568637 1.3697568,1.3697568 0 0 1 4.1729803,4.7871069 1.3697568,1.3697568 0 0 1 5.5427371,6.1568637 Z"
       transform="matrix(3.1172892,0,0,3.1503429,14.746612,-31.080031)" />
    <path
       sodipodi:type="arc"
       style="fill:#b3b3b3;fill-opacity:1;stroke:none"
       id="path3012-9-6-0-2-2-9-5-1-2-9"
       sodipodi:cx="4.1729803"
       sodipodi:cy="6.1568637"
       sodipodi:rx="1.3697568"
       sodipodi:ry="1.3697568"
       d="M 5.5427371,6.1568637 A 1.3697568,1.3697568 0 0 1 4.1729803,7.5266205 1.3697568,1.3697568 0 0 1 2.8032235,6.1568637 1.3697568,1.3697568 0 0 1 4.1729803,4.7871069 1.3697568,1.3697568 0 0 1 5.5427371,6.1568637 Z"
       transform="matrix(3.1172892,0,0,3.1503429,14.756175,-7.7630261)" />
    <path
       sodipodi:type="arc"
       style="fill:#b3b3b3;fill-opacity:1;stroke:none"
       id="path3012-9-6-0-2-2-9-5-1-9"
       sodipodi:cx="4.1729803"
       sodipodi:cy="6.1568637"
       sodipodi:rx="1.3697568"
       sodipodi:ry="1.3697568"
       d="M 5.5427371,6.1568637 A 1.3697568,1.3697568 0 0 1 4.1729803,7.5266205 1.3697568,1.3697568 0 0 1 2.8032235,6.1568637 1.3697568,1.3697568 0 0 1 4.1729803,4.7871069 1.3697568,1.3697568 0 0 1 5.5427371,6.1568637 Z"
       transform="matrix(2.2627925,-2.1668576,2.1441227,2.2867857,-18.351649,-5.0862379)" />
    <path
       sodipodi:type="arc"
       style="fill:#b3b3b3;fill-opacity:1;stroke:none"
       id="path3012-9-6-0-2-2-9-5-1-9-2"
       sodipodi:cx="4.1729803"
       sodipodi:cy="6.1568637"
       sodipodi:rx="1.3697568"
       sodipodi:ry="1.3697568"
       d="M 5.5427371,6.1568637 A 1.3697568,1.3697568 0 0 1 4.1729803,7.5266205 1.3697568,1.3697568 0 0 1 2.8032235,6.1568637 1.3697568,1.3697568 0 0 1 4.1729803,4.7871069 1.3697568,1.3697568 0 0 1 5.5427371,6.1568637 Z"
       transform="matrix(-2.2627925,-2.1668576,-2.1441227,2.2867857,50.378067,-4.9893475)" />
    <path
       sodipodi:type="arc"
       style="fill:#b3b3b3;fill-opacity:1;stroke:none"
       id="path3012-9-6-0-2-2-9-5-1-9-0"
       sodipodi:cx="4.1729803"
       sodipodi:cy="6.1568637"
       sodipodi:rx="1.3697568"
       sodipodi:ry="1.3697568"
       d="M 5.5427371,6.1568637 A 1.3697568,1.3697568 0 0 1 4.1729803,7.5266205 1.3697568,1.3697568 0 0 1 2.8032235,6.1568637 1.3697568,1.3697568 0 0 1 4.1729803,4.7871069 1.3697568,1.3697568 0 0 1 5.5427371,6.1568637 Z"
       transform="matrix(2.1441227,2.2867857,-2.2627925,2.1668576,21.379218,-34.491768)" />
    <path
       sodipodi:type="arc"
       style="fill:#b3b3b3;fill-opacity:1;stroke:none"
       id="path3012-9-6-0-2-2-9-5-1-9-2-1"
       sodipodi:cx="4.1729803"
       sodipodi:cy="6.1568637"
       sodipodi:rx="1.3697568"
       sodipodi:ry="1.3697568"
       d="M 5.5427371,6.1568637 A 1.3697568,1.3697568 0 0 1 4.1729803,7.5266205 1.3697568,1.3697568 0 0 1 2.8032235,6.1568637 1.3697568,1.3697568 0 0 1 4.1729803,4.7871069 1.3697568,1.3697568 0 0 1 5.5427371,6.1568637 Z"
       transform="matrix(2.1441227,-2.2867857,-2.2627925,-2.1668576,21.102672,34.604406)" />
    <path
       sodipodi:type="arc"
       style="fill:#333333;fill-opacity:1;stroke:none"
       id="path3012-9-6-0-2-2-9"
       sodipodi:cx="4.1729803"
       sodipodi:cy="6.1568637"
       sodipodi:rx="1.3697568"
       sodipodi:ry="1.3697568"
       d="M 5.5427371,6.1568637 A 1.3697568,1.3697568 0 0 1 4.1729803,7.5266205 1.3697568,1.3697568 0 0 1 2.8032235,6.1568637 1.3697568,1.3697568 0 0 1 4.1729803,4.7871069 1.3697568,1.3697568 0 0 1 5.5427371,6.1568637 Z"
       transform="matrix(3.1172892,0,0,3.1503429,3.2186128,-19.09457)" />
    <rect
       style="opacity:1;fill:#b3b3b3;fill-opacity:1;fill-rule:nonzero;stroke:none;stroke-width:3.9000001;stroke-linejoin:round;stroke-miterlimit:4;stroke-dasharray:none;stroke-dashoffset:0;stroke-opacity:1"
       id="rect4175"
       width="1.5979649"
       height="6.3918595"
       x="15.493311"
       y="-10.435897"
       rx="2.37199"
       ry="0" />
    <rect
       style="opacity:1;fill:#b3b3b3;fill-opacity:1;fill-rule:nonzero;stroke:none;stroke-width:3.9000001;stroke-linejoin:round;stroke-miterlimit:4;stroke-dasharray:none;stroke-dashoffset:0;stroke-opacity:1"
       id="rect4175-6"
       width="1.5979649"
       height="6.3918595"
       x="-0.4312475"
       y="-11.915259"
       rx="0.77402532"
       ry="0"
       transform="matrix(0,1,-1,0,0,0)" />
    <rect
       style="opacity:1;fill:#b3b3b3;fill-opacity:1;fill-rule:nonzero;stroke:none;stroke-width:3.9000001;stroke-linejoin:round;stroke-miterlimit:4;stroke-dasharray:none;stroke-dashoffset:0;stroke-opacity:1"
       id="rect4175-6-5"
       width="1.5979649"
       height="6.3918595"
       x="-0.43124735"
       y="-26.922235"
       rx="0.77402532"
       ry="0"
       transform="matrix(0,1,-1,0,0,0)" />
    <rect
       style="opacity:1;fill:#b3b3b3;fill-opacity:1;fill-rule:nonzero;stroke:none;stroke-width:3.9000001;stroke-linejoin:round;stroke-miterlimit:4;stroke-dasharray:none;stroke-dashoffset:0;stroke-opacity:1"
       id="rect4175-6-5-3"
       width="1.5979649"
       height="10.386772"
       x="10.870901"
       y="-25.972198"
       rx="0.77402532"
       ry="0"
       transform="matrix(0.70710678,0.70710678,-0.70710678,0.70710678,0,0)" />
    <rect
       style="opacity:1;fill:#b3b3b3;fill-opacity:1;fill-rule:nonzero;stroke:none;stroke-width:3.9000001;stroke-linejoin:round;stroke-miterlimit:4;stroke-dasharray:none;stroke-dashoffset:0;stroke-opacity:1"
       id="rect4175-6-5-3-5"
       width="1.5979649"
       height="10.386772"
       x="10.834054"
       y="-6.9230208"
       rx="0.77402532"
       ry="0"
       transform="matrix(0.70710678,0.70710678,-0.70710678,0.70710678,0,0)" />
    <rect
       style="opacity:1;fill:#b3b3b3;fill-opacity:1;fill-rule:nonzero;stroke:none;stroke-width:3.9000001;stroke-linejoin:round;stroke-miterlimit:4;stroke-dasharray:none;stroke-dashoffset:0;stroke-opacity:1"
       id="rect4175-6-5-3-5-6"
       width="1.5979649"
       height="10.386772"
       x="-11.936527"
       y="-7.3693852"
       rx="0.77402532"
       ry="0"
       transform="matrix(-0.70710678,0.70710678,-0.70710678,-0.70710678,0,0)" />
    <rect
       style="opacity:1;fill:#b3b3b3;fill-opacity:1;fill-rule:nonzero;stroke:none;stroke-width:3.9000001;stroke-linejoin:round;stroke-miterlimit:4;stroke-dasharray:none;stroke-dashoffset:0;stroke-opacity:1"
       id="rect4175-6-5-3-5-6-2"
       width="1.5979649"
       height="10.386772"
       x="-11.8874"
       y="-26.381716"
       rx="0.77402532"
       ry="0"
       transform="matrix(-0.70710678,0.70710678,-0.70710678,-0.70710678,0,0)" />
    <rect
       style="opacity:1;fill:#b3b3b3;fill-opacity:1;fill-rule:nonzero;stroke:none;stroke-width:3.9000001;stroke-linejoin:round;stroke-miterlimit:4;stroke-dasharray:none;stroke-dashoffset:0;stroke-opacity:1"
       id="rect4175-9"
       width="1.5979649"
       height="6.3918595"
       x="15.493312"
       y="4.640554"
       rx="2.37199"
       ry="0" />
  </g>
</svg>
