<?xml version="1.0" encoding="UTF-8" standalone="no"?>
<!-- Created with Inkscape (http://www.inkscape.org/) -->

<svg
   xmlns:dc="http://purl.org/dc/elements/1.1/"
   xmlns:cc="http://creativecommons.org/ns#"
   xmlns:rdf="http://www.w3.org/1999/02/22-rdf-syntax-ns#"
   xmlns:svg="http://www.w3.org/2000/svg"
   xmlns="http://www.w3.org/2000/svg"
   xmlns:sodipodi="http://sodipodi.sourceforge.net/DTD/sodipodi-0.dtd"
   xmlns:inkscape="http://www.inkscape.org/namespaces/inkscape"
   width="32"
   height="32"
   id="svg2985"
   version="1.1"
   inkscape:version="0.91 r13725"
   sodipodi:docname="circle.svg">
  <defs
     id="defs2987" />
  <sodipodi:namedview
     id="base"
     pagecolor="#ffffff"
     bordercolor="#666666"
     borderopacity="1.0"
     inkscape:pageopacity="0.0"
     inkscape:pageshadow="2"
     inkscape:zoom="28.786615"
     inkscape:cx="19.690615"
     inkscape:cy="16.716709"
     inkscape:current-layer="layer1"
     showgrid="true"
     inkscape:grid-bbox="true"
     inkscape:document-units="px"
     inkscape:window-width="1920"
     inkscape:window-height="1056"
     inkscape:window-x="0"
     inkscape:window-y="24"
     inkscape:window-maximized="1" />
  <metadata
     id="metadata2990">
    <rdf:RDF>
      <cc:Work
         rdf:about="">
        <dc:format>image/svg+xml</dc:format>
        <dc:type
           rdf:resource="http://purl.org/dc/dcmitype/StillImage" />
        <dc:title />
      </cc:Work>
    </rdf:RDF>
  </metadata>
  <g
     id="layer1"
     inkscape:label="Layer 1"
     inkscape:groupmode="layer"
     transform="translate(0,16)">
    <path
       sodipodi:type="arc"
       style="fill:#2d2d2d;fill-opacity:1;stroke:none"
       id="path3012-9-6-0-2-2"
       sodipodi:cx="4.1729803"
       sodipodi:cy="6.1568637"
       sodipodi:rx="1.3697568"
       sodipodi:ry="1.3697568"
       d="M 5.5427371,6.1568637 A 1.3697568,1.3697568 0 0 1 4.1729803,7.5266205 1.3697568,1.3697568 0 0 1 2.8032235,6.1568637 1.3697568,1.3697568 0 0 1 4.1729803,4.7871069 1.3697568,1.3697568 0 0 1 5.5427371,6.1568637 Z"
       transform="matrix(3.1565154,0,0,3.1565154,-8.8495556,-31.126053)" />
    <path
       sodipodi:type="arc"
       style="fill:#2d2d2d;fill-opacity:1;stroke:none"
       id="path3012-9-6-0-2-2-7"
       sodipodi:cx="4.1729803"
       sodipodi:cy="6.1568637"
       sodipodi:rx="1.3697568"
       sodipodi:ry="1.3697568"
       d="M 5.5427371,6.1568637 A 1.3697568,1.3697568 0 0 1 4.1729803,7.5266205 1.3697568,1.3697568 0 0 1 2.8032235,6.1568637 1.3697568,1.3697568 0 0 1 4.1729803,4.7871069 1.3697568,1.3697568 0 0 1 5.5427371,6.1568637 Z"
       transform="matrix(3.1565154,0,0,3.1565154,10.735212,-26.832858)" />
    <circle
       style="fill:#2d2d2d;fill-opacity:1;stroke:none"
       id="path3012-9-6-0-2-2-3"
       cx="27.687542"
       cy="8.5464258"
       r="4.3236585" />
    <path
       sodipodi:type="arc"
       style="fill:#2d2d2d;fill-opacity:1;stroke:none"
       id="path3012-9-6-0-2-2-3-2"
       sodipodi:cx="4.1729803"
       sodipodi:cy="6.1568637"
       sodipodi:rx="1.3697568"
       sodipodi:ry="1.3697568"
       d="M 5.5427371,6.1568637 A 1.3697568,1.3697568 0 0 1 4.1729803,7.5266205 1.3697568,1.3697568 0 0 1 2.8032235,6.1568637 1.3697568,1.3697568 0 0 1 4.1729803,4.7871069 1.3697568,1.3697568 0 0 1 5.5427371,6.1568637 Z"
       transform="matrix(3.1565154,0,0,3.1565154,-2.9987623,-7.7578937)" />
    <path
       sodipodi:type="arc"
       style="fill:#2d2d2d;fill-opacity:1;stroke:none"
       id="path3012-9-6-0-2-2-3-2-7"
       sodipodi:cx="4.1729803"
       sodipodi:cy="6.1568637"
       sodipodi:rx="1.3697568"
       sodipodi:ry="1.3697568"
       d="M 5.5427371,6.1568637 A 1.3697568,1.3697568 0 0 1 4.1729803,7.5266205 1.3697568,1.3697568 0 0 1 2.8032235,6.1568637 1.3697568,1.3697568 0 0 1 4.1729803,4.7871069 1.3697568,1.3697568 0 0 1 5.5427371,6.1568637 Z"
       transform="matrix(3.1565154,0,0,3.1565154,-8.8484181,-18.56704)" />
    <rect
       style="opacity:1;fill:#2d2d2d;fill-opacity:1;fill-rule:nonzero;stroke:none;stroke-width:3.9000001;stroke-linejoin:round;stroke-miterlimit:4;stroke-dasharray:none;stroke-dashoffset:0;stroke-opacity:1"
       id="rect4143"
       width="1.9453486"
       height="7.7813945"
       x="3.1959302"
       y="-9.1505785"
       rx="2.4020901"
       ry="0" />
    <rect
       style="opacity:1;fill:#2d2d2d;fill-opacity:1;fill-rule:nonzero;stroke:none;stroke-width:3.9000001;stroke-linejoin:round;stroke-miterlimit:4;stroke-dasharray:none;stroke-dashoffset:0;stroke-opacity:1"
       id="rect4143-3"
       width="1.9453486"
       height="15.354359"
       x="2.1333587"
       y="0.83836091"
       rx="2.4020901"
       ry="0"
       transform="matrix(0.8660254,-0.5,0.5,0.8660254,0,0)" />
    <rect
       style="opacity:1;fill:#2d2d2d;fill-opacity:1;fill-rule:nonzero;stroke:none;stroke-width:3.9000001;stroke-linejoin:round;stroke-miterlimit:4;stroke-dasharray:none;stroke-dashoffset:0;stroke-opacity:1"
       id="rect4143-3-6"
       width="1.9453486"
       height="15.354359"
       x="12.489272"
       y="-24.936769"
       rx="2.4020901"
       ry="0"
       transform="matrix(0.17501771,0.98456529,-0.98456529,0.17501771,0,0)" />
    <rect
       style="opacity:1;fill:#2d2d2d;fill-opacity:1;fill-rule:nonzero;stroke:none;stroke-width:3.9000001;stroke-linejoin:round;stroke-miterlimit:4;stroke-dasharray:none;stroke-dashoffset:0;stroke-opacity:1"
       id="rect4143-3-7"
       width="1.9453486"
       height="15.354359"
       x="23.855581"
       y="-1.6867117"
       rx="2.4020901"
       ry="0"
       transform="matrix(0.96592583,-0.25881905,0.25881905,0.96592583,0,0)" />
    <rect
       style="opacity:1;fill:#2d2d2d;fill-opacity:1;fill-rule:nonzero;stroke:none;stroke-width:3.9000001;stroke-linejoin:round;stroke-miterlimit:4;stroke-dasharray:none;stroke-dashoffset:0;stroke-opacity:1"
       id="rect4143-3-6-5"
       width="1.9453486"
       height="15.354359"
       x="-13.608099"
       y="-19.052298"
       rx="2.4020901"
       ry="0"
       transform="matrix(-0.21845122,0.97584787,-0.97584787,-0.21845122,0,0)" />
  </g>
</svg>
