<?xml version="1.0" encoding="UTF-8" standalone="no"?>
<!-- Created with Inkscape (http://www.inkscape.org/) -->

<svg
   xmlns:dc="http://purl.org/dc/elements/1.1/"
   xmlns:cc="http://creativecommons.org/ns#"
   xmlns:rdf="http://www.w3.org/1999/02/22-rdf-syntax-ns#"
   xmlns:svg="http://www.w3.org/2000/svg"
   xmlns="http://www.w3.org/2000/svg"
   xmlns:sodipodi="http://sodipodi.sourceforge.net/DTD/sodipodi-0.dtd"
   xmlns:inkscape="http://www.inkscape.org/namespaces/inkscape"
   width="32"
   height="32"
   id="svg3765"
   version="1.1"
   inkscape:version="0.91 r13725"
   sodipodi:docname="collection5.svg"
   inkscape:export-filename="/home/k00ni/Documents/semicon/owl.png"
   inkscape:export-xdpi="90"
   inkscape:export-ydpi="90">
  <defs
     id="defs3767" />
  <sodipodi:namedview
     id="base"
     pagecolor="#ffffff"
     bordercolor="#666666"
     borderopacity="1.0"
     inkscape:pageopacity="0.0"
     inkscape:pageshadow="2"
     inkscape:zoom="23.544491"
     inkscape:cx="14.879417"
     inkscape:cy="18.681318"
     inkscape:current-layer="layer1-9-3"
     showgrid="true"
     inkscape:grid-bbox="true"
     inkscape:document-units="px"
     inkscape:window-width="1920"
     inkscape:window-height="1056"
     inkscape:window-x="0"
     inkscape:window-y="24"
     inkscape:window-maximized="1"
     showguides="true"
     inkscape:guide-bbox="true" />
  <metadata
     id="metadata3770">
    <rdf:RDF>
      <cc:Work
         rdf:about="">
        <dc:format>image/svg+xml</dc:format>
        <dc:type
           rdf:resource="http://purl.org/dc/dcmitype/StillImage" />
        <dc:title />
      </cc:Work>
    </rdf:RDF>
  </metadata>
  <g
     id="layer1"
     inkscape:label="Layer 1"
     inkscape:groupmode="layer"
     transform="translate(0,-16)">
    <g
       inkscape:label="Layer 1"
       id="layer1-4"
       transform="translate(0.20202972,-1.9622142e-8)">
      <g
         transform="translate(-0.37059768,-0.09089584)"
         id="layer1-9"
         inkscape:label="Layer 1">
        <g
           inkscape:label="Layer 1"
           id="layer1-9-3"
           transform="translate(-44.951788,-4.1416259)">
          <path
             style="fill:#2d2d2d;fill-opacity:1;stroke:none"
             d="M 26.925781 0.060546875 A 1.7567264 1.7567265 0 0 0 26.292969 0.20507812 A 1.7567264 1.7567265 0 0 0 25.378906 2.515625 A 1.7567264 1.7567265 0 0 0 27.689453 3.4296875 A 1.7567264 1.7567265 0 0 0 28.603516 1.1191406 A 1.7567264 1.7567265 0 0 0 26.925781 0.060546875 z M 5.4609375 0.17382812 A 1.7567264 1.7567265 0 0 0 3.78125 1.2304688 A 1.7567264 1.7567265 0 0 0 4.6953125 3.5410156 A 1.7567264 1.7567265 0 0 0 7.0058594 2.6269531 A 1.7567264 1.7567265 0 0 0 6.0917969 0.31640625 A 1.7567264 1.7567265 0 0 0 5.4609375 0.17382812 z M 30.677734 1.8867188 A 1.3319986 1.3319986 0 0 0 30.199219 1.9960938 A 1.3319986 1.3319986 0 0 0 29.505859 3.7480469 A 1.3319986 1.3319986 0 0 0 31.257812 4.4414062 A 1.3319986 1.3319986 0 0 0 31.951172 2.6894531 A 1.3319986 1.3319986 0 0 0 30.677734 1.8867188 z M 1.7070312 2 A 1.3319986 1.3319986 0 0 0 0.43359375 2.8007812 A 1.3319986 1.3319986 0 0 0 1.1269531 4.5527344 A 1.3319986 1.3319986 0 0 0 2.8789062 3.859375 A 1.3319986 1.3319986 0 0 0 2.1855469 2.109375 A 1.3319986 1.3319986 0 0 0 1.7070312 2 z M 23.839844 2.9921875 A 1.3319986 1.3319986 0 0 0 23.361328 3.0996094 A 1.3319986 1.3319986 0 0 0 22.667969 4.8515625 A 1.3319986 1.3319986 0 0 0 24.419922 5.5449219 A 1.3319986 1.3319986 0 0 0 25.113281 3.7929688 A 1.3319986 1.3319986 0 0 0 23.839844 2.9921875 z M 8.5449219 3.1035156 A 1.3319986 1.3319986 0 0 0 7.2714844 3.90625 A 1.3319986 1.3319986 0 0 0 7.9648438 5.6582031 A 1.3319986 1.3319986 0 0 0 9.7167969 4.9648438 A 1.3319986 1.3319986 0 0 0 9.0234375 3.2128906 A 1.3319986 1.3319986 0 0 0 8.5449219 3.1035156 z M 19.933594 3.9257812 A 1.3319986 1.3319986 0 0 0 19.455078 4.0351562 A 1.3319986 1.3319986 0 0 0 18.761719 5.7871094 A 1.3319986 1.3319986 0 0 0 20.513672 6.4804688 A 1.3319986 1.3319986 0 0 0 21.205078 4.7285156 A 1.3319986 1.3319986 0 0 0 19.933594 3.9257812 z M 12.453125 4.0390625 A 1.3319986 1.3319986 0 0 0 11.179688 4.8398438 A 1.3319986 1.3319986 0 0 0 11.873047 6.5917969 A 1.3319986 1.3319986 0 0 0 13.625 5.8984375 A 1.3319986 1.3319986 0 0 0 12.931641 4.1464844 A 1.3319986 1.3319986 0 0 0 12.453125 4.0390625 z M 24.076172 6.5722656 A 1.7567264 1.7567265 0 0 0 23.443359 6.7148438 A 1.7567264 1.7567265 0 0 0 22.53125 9.0253906 A 1.7567264 1.7567265 0 0 0 24.839844 9.9394531 A 1.7567264 1.7567265 0 0 0 25.753906 7.6289062 A 1.7567264 1.7567265 0 0 0 24.076172 6.5722656 z M 8.3105469 6.6835938 A 1.7567264 1.7567265 0 0 0 6.6308594 7.7421875 A 1.7567264 1.7567265 0 0 0 7.5449219 10.052734 A 1.7567264 1.7567265 0 0 0 9.8554688 9.1386719 A 1.7567264 1.7567265 0 0 0 8.9414062 6.828125 A 1.7567264 1.7567265 0 0 0 8.3105469 6.6835938 z M 18.574219 7.1542969 A 1.3319986 1.3319986 0 0 0 18.095703 7.2636719 A 1.3319986 1.3319986 0 0 0 17.402344 9.0136719 A 1.3319986 1.3319986 0 0 0 19.154297 9.7070312 A 1.3319986 1.3319986 0 0 0 19.845703 7.9550781 A 1.3319986 1.3319986 0 0 0 18.574219 7.1542969 z M 13.8125 7.265625 A 1.3319986 1.3319986 0 0 0 12.539062 8.0683594 A 1.3319986 1.3319986 0 0 0 13.232422 9.8203125 A 1.3319986 1.3319986 0 0 0 14.984375 9.1269531 A 1.3319986 1.3319986 0 0 0 14.291016 7.375 A 1.3319986 1.3319986 0 0 0 13.8125 7.265625 z M 19.222656 10.410156 A 1.7567264 1.7567265 0 0 0 17.542969 11.466797 A 1.7567264 1.7567265 0 0 0 18.457031 13.777344 A 1.7567264 1.7567265 0 0 0 20.767578 12.863281 A 1.7567264 1.7567265 0 0 0 19.853516 10.552734 A 1.7567264 1.7567265 0 0 0 19.222656 10.410156 z M 13.105469 10.664062 A 1.7567264 1.7567265 0 0 0 11.427734 11.722656 A 1.7567264 1.7567265 0 0 0 12.341797 14.03125 A 1.7567264 1.7567265 0 0 0 14.650391 13.117188 A 1.7567264 1.7567265 0 0 0 13.736328 10.808594 A 1.7567264 1.7567265 0 0 0 13.105469 10.664062 z M 9.2128906 11.091797 A 1.3319986 1.3319986 0 0 0 8.0722656 11.892578 A 1.3319986 1.3319986 0 0 0 8.765625 13.644531 A 1.3319986 1.3319986 0 0 0 10.517578 12.951172 A 1.3319986 1.3319986 0 0 0 9.8242188 11.199219 A 1.3319986 1.3319986 0 0 0 9.2128906 11.091797 z M 16.3125 13.595703 A 1.3319986 1.3319986 0 0 0 15.171875 14.396484 A 1.3319986 1.3319986 0 0 0 15.865234 16.148438 A 1.3319986 1.3319986 0 0 0 17.617188 15.455078 A 1.3319986 1.3319986 0 0 0 16.923828 13.703125 A 1.3319986 1.3319986 0 0 0 16.3125 13.595703 z M 5.6464844 14.509766 C 2.4162346 14.686872 0.16601562 15.084919 0.16601562 15.552734 L 0.16601562 28.757812 A 15.946052 3.1673822 0 0 0 0.13867188 28.865234 A 15.946052 3.1673822 0 0 0 16.085938 32.033203 A 15.946052 3.1673822 0 0 0 32.03125 28.865234 A 15.946052 3.1673822 0 0 0 31.996094 28.664062 L 31.996094 15.552734 C 31.996094 15.139345 30.228297 14.782583 27.591797 14.582031 C 29.324779 14.778565 30.363281 15.11492 30.363281 15.722656 C 30.363281 16.800466 26.844601 17.72319 21.814453 18.136719 A 1.7567264 1.7567265 0 0 0 21.957031 17.875 A 1.7567264 1.7567265 0 0 0 21.042969 15.564453 A 1.7567264 1.7567265 0 0 0 18.732422 16.478516 A 1.7567264 1.7567265 0 0 0 19.001953 18.306641 C 18.012909 18.345985 16.992642 18.371094 15.939453 18.371094 C 15.471718 18.371094 15.030545 18.353693 14.574219 18.345703 A 2.5000001 2.5000002 0 0 0 13.183594 15.306641 A 2.5000001 2.5000002 0 0 0 9.8964844 16.607422 A 2.5000001 2.5000002 0 0 0 9.7441406 18.103516 C 4.8932744 17.677057 1.5175781 16.776557 1.5175781 15.722656 C 1.5175781 15.034037 3.1382779 14.689721 5.6464844 14.509766 z "
             transform="translate(45.120356,20.232522)"
             id="path3321-2" />
        </g>
      </g>
    </g>
  </g>
</svg>
