<?xml version="1.0" encoding="UTF-8" standalone="no"?>
<!-- Created with Inkscape (http://www.inkscape.org/) -->

<svg
   xmlns:dc="http://purl.org/dc/elements/1.1/"
   xmlns:cc="http://creativecommons.org/ns#"
   xmlns:rdf="http://www.w3.org/1999/02/22-rdf-syntax-ns#"
   xmlns:svg="http://www.w3.org/2000/svg"
   xmlns="http://www.w3.org/2000/svg"
   xmlns:sodipodi="http://sodipodi.sourceforge.net/DTD/sodipodi-0.dtd"
   xmlns:inkscape="http://www.inkscape.org/namespaces/inkscape"
   width="32"
   height="32"
   id="svg3765"
   version="1.1"
   inkscape:version="0.48.3.1 r9886"
   sodipodi:docname="collection3.svg"
   inkscape:export-filename="/home/k00ni/Documents/semicon/owl.png"
   inkscape:export-xdpi="90"
   inkscape:export-ydpi="90">
  <defs
     id="defs3767" />
  <sodipodi:namedview
     id="base"
     pagecolor="#ffffff"
     bordercolor="#666666"
     borderopacity="1.0"
     inkscape:pageopacity="0.0"
     inkscape:pageshadow="2"
     inkscape:zoom="19.79899"
     inkscape:cx="3.7500815"
     inkscape:cy="10.433134"
     inkscape:current-layer="layer1-9-3"
     showgrid="true"
     inkscape:grid-bbox="true"
     inkscape:document-units="px"
     inkscape:window-width="1920"
     inkscape:window-height="1056"
     inkscape:window-x="0"
     inkscape:window-y="24"
     inkscape:window-maximized="1"
     showguides="true"
     inkscape:guide-bbox="true" />
  <metadata
     id="metadata3770">
    <rdf:RDF>
      <cc:Work
         rdf:about="">
        <dc:format>image/svg+xml</dc:format>
        <dc:type
           rdf:resource="http://purl.org/dc/dcmitype/StillImage" />
        <dc:title />
      </cc:Work>
    </rdf:RDF>
  </metadata>
  <g
     id="layer1"
     inkscape:label="Layer 1"
     inkscape:groupmode="layer"
     transform="translate(0,-16)">
    <g
       inkscape:label="Layer 1"
       id="layer1-4"
       transform="translate(0.20202972,-1.9622142e-8)">
      <g
         transform="translate(-0.37059768,-0.09089584)"
         id="layer1-9"
         inkscape:label="Layer 1">
        <g
           inkscape:label="Layer 1"
           id="layer1-9-3"
           transform="translate(-44.951788,-4.1416259)">
          <path
             transform="matrix(-0.26781041,0.59379248,-0.61844348,-0.25713556,68.562198,50.501146)"
             sodipodi:type="arc"
             style="fill:#2d2d2d;fill-opacity:1;stroke:#2d2d2d;stroke-width:0.80000001;stroke-linecap:round;stroke-linejoin:round;stroke-miterlimit:4;stroke-opacity:1;stroke-dasharray:none"
             id="path3015-0-6-9"
             sodipodi:cx="10.354064"
             sodipodi:cy="28.352533"
             sodipodi:rx="3.7880721"
             sodipodi:ry="3.7880721"
             d="m 14.142136,28.352533 a 3.7880721,3.7880721 0 1 1 -7.5761441,0 3.7880721,3.7880721 0 1 1 7.5761441,0 z" />
          <path
             transform="matrix(-0.26781041,0.59379248,-0.61844348,-0.25713556,74.818976,50.592538)"
             sodipodi:type="arc"
             style="fill:#2d2d2d;fill-opacity:1;stroke:#2d2d2d;stroke-width:0.80000001;stroke-linecap:round;stroke-linejoin:round;stroke-miterlimit:4;stroke-opacity:1;stroke-dasharray:none"
             id="path3015-0-6-9-6"
             sodipodi:cx="10.354064"
             sodipodi:cy="28.352533"
             sodipodi:rx="3.7880721"
             sodipodi:ry="3.7880721"
             d="m 14.142136,28.352533 a 3.7880721,3.7880721 0 1 1 -7.5761441,0 3.7880721,3.7880721 0 1 1 7.5761441,0 z" />
          <path
             transform="matrix(-0.26781041,0.59379248,-0.61844348,-0.25713556,81.472939,50.525026)"
             sodipodi:type="arc"
             style="fill:#2d2d2d;fill-opacity:1;stroke:#2d2d2d;stroke-width:0.80000001;stroke-linecap:round;stroke-linejoin:round;stroke-miterlimit:4;stroke-opacity:1;stroke-dasharray:none"
             id="path3015-0-6-9-8"
             sodipodi:cx="10.354064"
             sodipodi:cy="28.352533"
             sodipodi:rx="3.7880721"
             sodipodi:ry="3.7880721"
             d="m 14.142136,28.352533 a 3.7880721,3.7880721 0 1 1 -7.5761441,0 3.7880721,3.7880721 0 1 1 7.5761441,0 z" />
          <path
             transform="matrix(-0.26781041,0.59379248,-0.61844348,-0.25713556,87.982252,50.515401)"
             sodipodi:type="arc"
             style="fill:#2d2d2d;fill-opacity:1;stroke:#2d2d2d;stroke-width:0.80000001;stroke-linecap:round;stroke-linejoin:round;stroke-miterlimit:4;stroke-opacity:1;stroke-dasharray:none"
             id="path3015-0-6-9-6-6"
             sodipodi:cx="10.354064"
             sodipodi:cy="28.352533"
             sodipodi:rx="3.7880721"
             sodipodi:ry="3.7880721"
             d="m 14.142136,28.352533 a 3.7880721,3.7880721 0 1 1 -7.5761441,0 3.7880721,3.7880721 0 1 1 7.5761441,0 z" />
          <path
             transform="matrix(-0.26781041,0.59379248,-0.61844348,-0.25713556,94.488058,50.51692)"
             sodipodi:type="arc"
             style="fill:#2d2d2d;fill-opacity:1;stroke:#2d2d2d;stroke-width:0.80000001;stroke-linecap:round;stroke-linejoin:round;stroke-miterlimit:4;stroke-opacity:1;stroke-dasharray:none"
             id="path3015-0-6-9-6-6-4"
             sodipodi:cx="10.354064"
             sodipodi:cy="28.352533"
             sodipodi:rx="3.7880721"
             sodipodi:ry="3.7880721"
             d="m 14.142136,28.352533 a 3.7880721,3.7880721 0 1 1 -7.5761441,0 3.7880721,3.7880721 0 1 1 7.5761441,0 z" />
          <path
             transform="matrix(-0.26781041,0.59379248,-0.61844348,-0.25713556,68.328887,43.89889)"
             sodipodi:type="arc"
             style="fill:#2d2d2d;fill-opacity:1;stroke:#2d2d2d;stroke-width:0.80000001;stroke-linecap:round;stroke-linejoin:round;stroke-miterlimit:4;stroke-opacity:1;stroke-dasharray:none"
             id="path3015-0-6-9-69"
             sodipodi:cx="10.354064"
             sodipodi:cy="28.352533"
             sodipodi:rx="3.7880721"
             sodipodi:ry="3.7880721"
             d="m 14.142136,28.352533 a 3.7880721,3.7880721 0 1 1 -7.5761441,0 3.7880721,3.7880721 0 1 1 7.5761441,0 z" />
          <path
             transform="matrix(-0.26781041,0.59379248,-0.61844348,-0.25713556,74.838202,43.889267)"
             sodipodi:type="arc"
             style="fill:#2d2d2d;fill-opacity:1;stroke:#2d2d2d;stroke-width:0.80000001;stroke-linecap:round;stroke-linejoin:round;stroke-miterlimit:4;stroke-opacity:1;stroke-dasharray:none"
             id="path3015-0-6-9-6-9"
             sodipodi:cx="10.354064"
             sodipodi:cy="28.352533"
             sodipodi:rx="3.7880721"
             sodipodi:ry="3.7880721"
             d="m 14.142136,28.352533 a 3.7880721,3.7880721 0 1 1 -7.5761441,0 3.7880721,3.7880721 0 1 1 7.5761441,0 z" />
          <path
             transform="matrix(-0.26781041,0.59379248,-0.61844348,-0.25713556,81.492165,43.821755)"
             sodipodi:type="arc"
             style="fill:#2d2d2d;fill-opacity:1;stroke:#2d2d2d;stroke-width:0.80000001;stroke-linecap:round;stroke-linejoin:round;stroke-miterlimit:4;stroke-opacity:1;stroke-dasharray:none"
             id="path3015-0-6-9-8-5"
             sodipodi:cx="10.354064"
             sodipodi:cy="28.352533"
             sodipodi:rx="3.7880721"
             sodipodi:ry="3.7880721"
             d="m 14.142136,28.352533 a 3.7880721,3.7880721 0 1 1 -7.5761441,0 3.7880721,3.7880721 0 1 1 7.5761441,0 z" />
          <path
             transform="matrix(-0.26781041,0.59379248,-0.61844348,-0.25713556,88.001478,43.81213)"
             sodipodi:type="arc"
             style="fill:#2d2d2d;fill-opacity:1;stroke:#2d2d2d;stroke-width:0.80000001;stroke-linecap:round;stroke-linejoin:round;stroke-miterlimit:4;stroke-opacity:1;stroke-dasharray:none"
             id="path3015-0-6-9-6-6-7"
             sodipodi:cx="10.354064"
             sodipodi:cy="28.352533"
             sodipodi:rx="3.7880721"
             sodipodi:ry="3.7880721"
             d="m 14.142136,28.352533 a 3.7880721,3.7880721 0 1 1 -7.5761441,0 3.7880721,3.7880721 0 1 1 7.5761441,0 z" />
          <path
             transform="matrix(-0.26781041,0.59379248,-0.61844348,-0.25713556,68.373919,37.310506)"
             sodipodi:type="arc"
             style="fill:#2d2d2d;fill-opacity:1;stroke:#2d2d2d;stroke-width:0.80000001;stroke-linecap:round;stroke-linejoin:round;stroke-miterlimit:4;stroke-opacity:1;stroke-dasharray:none"
             id="path3015-0-6-9-69-9"
             sodipodi:cx="10.354064"
             sodipodi:cy="28.352533"
             sodipodi:rx="3.7880721"
             sodipodi:ry="3.7880721"
             d="m 14.142136,28.352533 a 3.7880721,3.7880721 0 1 1 -7.5761441,0 3.7880721,3.7880721 0 1 1 7.5761441,0 z" />
          <path
             transform="matrix(-0.26781041,0.59379248,-0.61844348,-0.25713556,74.883234,37.300883)"
             sodipodi:type="arc"
             style="fill:#2d2d2d;fill-opacity:1;stroke:#2d2d2d;stroke-width:0.80000001;stroke-linecap:round;stroke-linejoin:round;stroke-miterlimit:4;stroke-opacity:1;stroke-dasharray:none"
             id="path3015-0-6-9-6-9-5"
             sodipodi:cx="10.354064"
             sodipodi:cy="28.352533"
             sodipodi:rx="3.7880721"
             sodipodi:ry="3.7880721"
             d="m 14.142136,28.352533 a 3.7880721,3.7880721 0 1 1 -7.5761441,0 3.7880721,3.7880721 0 1 1 7.5761441,0 z" />
          <path
             transform="matrix(-0.26781041,0.59379248,-0.61844348,-0.25713556,68.38518,30.755582)"
             sodipodi:type="arc"
             style="fill:#2d2d2d;fill-opacity:1;stroke:#2d2d2d;stroke-width:0.80000001;stroke-linecap:round;stroke-linejoin:round;stroke-miterlimit:4;stroke-opacity:1;stroke-dasharray:none"
             id="path3015-0-6-9-69-4"
             sodipodi:cx="10.354064"
             sodipodi:cy="28.352533"
             sodipodi:rx="3.7880721"
             sodipodi:ry="3.7880721"
             d="m 14.142136,28.352533 a 3.7880721,3.7880721 0 1 1 -7.5761441,0 3.7880721,3.7880721 0 1 1 7.5761441,0 z" />
          <path
             transform="matrix(-0.26781041,0.59379248,-0.61844348,-0.25713556,74.894496,30.745959)"
             sodipodi:type="arc"
             style="fill:#2d2d2d;fill-opacity:1;stroke:#2d2d2d;stroke-width:0.80000001;stroke-linecap:round;stroke-linejoin:round;stroke-miterlimit:4;stroke-opacity:1;stroke-dasharray:none"
             id="path3015-0-6-9-6-9-3"
             sodipodi:cx="10.354064"
             sodipodi:cy="28.352533"
             sodipodi:rx="3.7880721"
             sodipodi:ry="3.7880721"
             d="m 14.142136,28.352533 a 3.7880721,3.7880721 0 1 1 -7.5761441,0 3.7880721,3.7880721 0 1 1 7.5761441,0 z" />
          <path
             transform="matrix(-0.26781041,0.59379248,-0.61844348,-0.25713556,81.548459,30.678447)"
             sodipodi:type="arc"
             style="fill:#2d2d2d;fill-opacity:1;stroke:#2d2d2d;stroke-width:0.80000001;stroke-linecap:round;stroke-linejoin:round;stroke-miterlimit:4;stroke-opacity:1;stroke-dasharray:none"
             id="path3015-0-6-9-8-5-8"
             sodipodi:cx="10.354064"
             sodipodi:cy="28.352533"
             sodipodi:rx="3.7880721"
             sodipodi:ry="3.7880721"
             d="m 14.142136,28.352533 a 3.7880721,3.7880721 0 1 1 -7.5761441,0 3.7880721,3.7880721 0 1 1 7.5761441,0 z" />
          <path
             transform="matrix(-0.26781041,0.59379248,-0.61844348,-0.25713556,88.057772,30.668822)"
             sodipodi:type="arc"
             style="fill:#2d2d2d;fill-opacity:1;stroke:#2d2d2d;stroke-width:0.80000001;stroke-linecap:round;stroke-linejoin:round;stroke-miterlimit:4;stroke-opacity:1;stroke-dasharray:none"
             id="path3015-0-6-9-6-6-7-4"
             sodipodi:cx="10.354064"
             sodipodi:cy="28.352533"
             sodipodi:rx="3.7880721"
             sodipodi:ry="3.7880721"
             d="m 14.142136,28.352533 a 3.7880721,3.7880721 0 1 1 -7.5761441,0 3.7880721,3.7880721 0 1 1 7.5761441,0 z" />
          <path
             transform="matrix(-0.26781041,0.59379248,-0.61844348,-0.25713556,68.329198,24.268212)"
             sodipodi:type="arc"
             style="fill:#2d2d2d;fill-opacity:1;stroke:#2d2d2d;stroke-width:0.80000001;stroke-linecap:round;stroke-linejoin:round;stroke-miterlimit:4;stroke-opacity:1;stroke-dasharray:none"
             id="path3015-0-6-9-69-9-9"
             sodipodi:cx="10.354064"
             sodipodi:cy="28.352533"
             sodipodi:rx="3.7880721"
             sodipodi:ry="3.7880721"
             d="m 14.142136,28.352533 a 3.7880721,3.7880721 0 1 1 -7.5761441,0 3.7880721,3.7880721 0 1 1 7.5761441,0 z" />
          <path
             transform="matrix(-0.26781041,0.59379248,-0.61844348,-0.25713556,74.737498,24.208082)"
             sodipodi:type="arc"
             style="fill:#2d2d2d;fill-opacity:1;stroke:#2d2d2d;stroke-width:0.80000001;stroke-linecap:round;stroke-linejoin:round;stroke-miterlimit:4;stroke-opacity:1;stroke-dasharray:none"
             id="path3015-0-6-9-6-9-5-4"
             sodipodi:cx="10.354064"
             sodipodi:cy="28.352533"
             sodipodi:rx="3.7880721"
             sodipodi:ry="3.7880721"
             d="m 14.142136,28.352533 a 3.7880721,3.7880721 0 1 1 -7.5761441,0 3.7880721,3.7880721 0 1 1 7.5761441,0 z" />
          <path
             transform="matrix(-0.26781041,0.59379248,-0.61844348,-0.25713556,81.391461,24.140569)"
             sodipodi:type="arc"
             style="fill:#2d2d2d;fill-opacity:1;stroke:#2d2d2d;stroke-width:0.80000001;stroke-linecap:round;stroke-linejoin:round;stroke-miterlimit:4;stroke-opacity:1;stroke-dasharray:none"
             id="path3015-0-6-9-8-5-4-9"
             sodipodi:cx="10.354064"
             sodipodi:cy="28.352533"
             sodipodi:rx="3.7880721"
             sodipodi:ry="3.7880721"
             d="m 14.142136,28.352533 a 3.7880721,3.7880721 0 1 1 -7.5761441,0 3.7880721,3.7880721 0 1 1 7.5761441,0 z" />
          <path
             transform="matrix(-0.26781041,0.59379248,-0.61844348,-0.25713556,87.900774,24.130945)"
             sodipodi:type="arc"
             style="fill:#2d2d2d;fill-opacity:1;stroke:#2d2d2d;stroke-width:0.80000001;stroke-linecap:round;stroke-linejoin:round;stroke-miterlimit:4;stroke-opacity:1;stroke-dasharray:none"
             id="path3015-0-6-9-6-6-7-1-0"
             sodipodi:cx="10.354064"
             sodipodi:cy="28.352533"
             sodipodi:rx="3.7880721"
             sodipodi:ry="3.7880721"
             d="m 14.142136,28.352533 a 3.7880721,3.7880721 0 1 1 -7.5761441,0 3.7880721,3.7880721 0 1 1 7.5761441,0 z" />
          <path
             transform="matrix(-0.26781041,0.59379248,-0.61844348,-0.25713556,94.608611,24.132463)"
             sodipodi:type="arc"
             style="fill:#2d2d2d;fill-opacity:1;stroke:#2d2d2d;stroke-width:0.80000001;stroke-linecap:round;stroke-linejoin:round;stroke-miterlimit:4;stroke-opacity:1;stroke-dasharray:none"
             id="path3015-0-6-9-6-6-4-1-2-7"
             sodipodi:cx="10.354064"
             sodipodi:cy="28.352533"
             sodipodi:rx="3.7880721"
             sodipodi:ry="3.7880721"
             d="m 14.142136,28.352533 a 3.7880721,3.7880721 0 1 1 -7.5761441,0 3.7880721,3.7880721 0 1 1 7.5761441,0 z" />
        </g>
      </g>
    </g>
  </g>
</svg>
