<?xml version="1.0" encoding="UTF-8" standalone="no"?>
<!-- Created with Inkscape (http://www.inkscape.org/) -->

<svg
   xmlns:dc="http://purl.org/dc/elements/1.1/"
   xmlns:cc="http://creativecommons.org/ns#"
   xmlns:rdf="http://www.w3.org/1999/02/22-rdf-syntax-ns#"
   xmlns:svg="http://www.w3.org/2000/svg"
   xmlns="http://www.w3.org/2000/svg"
   xmlns:sodipodi="http://sodipodi.sourceforge.net/DTD/sodipodi-0.dtd"
   xmlns:inkscape="http://www.inkscape.org/namespaces/inkscape"
   width="32"
   height="32"
   id="svg3765"
   version="1.1"
   inkscape:version="0.91 r13725"
   sodipodi:docname="collection4.svg"
   inkscape:export-filename="/home/k00ni/Documents/semicon/owl.png"
   inkscape:export-xdpi="90"
   inkscape:export-ydpi="90">
  <defs
     id="defs3767" />
  <sodipodi:namedview
     id="base"
     pagecolor="#ffffff"
     bordercolor="#666666"
     borderopacity="1.0"
     inkscape:pageopacity="0.0"
     inkscape:pageshadow="2"
     inkscape:zoom="23.544491"
     inkscape:cx="20.328132"
     inkscape:cy="15.852073"
     inkscape:current-layer="layer1-9-3"
     showgrid="true"
     inkscape:grid-bbox="true"
     inkscape:document-units="px"
     inkscape:window-width="1920"
     inkscape:window-height="1056"
     inkscape:window-x="0"
     inkscape:window-y="24"
     inkscape:window-maximized="1"
     showguides="true"
     inkscape:guide-bbox="true" />
  <metadata
     id="metadata3770">
    <rdf:RDF>
      <cc:Work
         rdf:about="">
        <dc:format>image/svg+xml</dc:format>
        <dc:type
           rdf:resource="http://purl.org/dc/dcmitype/StillImage" />
        <dc:title />
      </cc:Work>
    </rdf:RDF>
  </metadata>
  <g
     id="layer1"
     inkscape:label="Layer 1"
     inkscape:groupmode="layer"
     transform="translate(0,-16)">
    <g
       inkscape:label="Layer 1"
       id="layer1-4"
       transform="translate(0.20202972,-1.9622142e-8)">
      <g
         transform="translate(-0.37059768,-0.09089584)"
         id="layer1-9"
         inkscape:label="Layer 1">
        <g
           inkscape:label="Layer 1"
           id="layer1-9-3"
           transform="translate(-44.951788,-4.1416259)">
          <path
             style="fill:#2d2d2d;fill-opacity:1;stroke:none"
             d="M 2.609375 0.015625 A 2.5000001 2.5000002 0 0 0 0.22070312 1.5214844 A 2.5000001 2.5000002 0 0 0 1.5214844 4.8085938 A 2.5000001 2.5000002 0 0 0 4.8085938 3.5078125 A 2.5000001 2.5000002 0 0 0 3.5078125 0.22070312 A 2.5000001 2.5000002 0 0 0 2.609375 0.015625 z M 29.548828 1.0410156 A 2.5000001 2.5000002 0 0 0 27.160156 2.546875 A 2.5000001 2.5000002 0 0 0 28.460938 5.8339844 A 2.5000001 2.5000002 0 0 0 31.748047 4.5332031 A 2.5000001 2.5000002 0 0 0 30.447266 1.2460938 A 2.5000001 2.5000002 0 0 0 29.548828 1.0410156 z M 8.359375 2.2675781 A 2.5000001 2.5000002 0 0 0 5.9707031 3.7734375 A 2.5000001 2.5000002 0 0 0 7.2714844 7.0605469 A 2.5000001 2.5000002 0 0 0 10.558594 5.7597656 A 2.5000001 2.5000002 0 0 0 9.2578125 2.4726562 A 2.5000001 2.5000002 0 0 0 8.359375 2.2675781 z M 15.400391 2.7734375 A 2.5000001 2.5000002 0 0 0 13.011719 4.2773438 A 2.5000001 2.5000002 0 0 0 14.3125 7.5664062 A 2.5000001 2.5000002 0 0 0 17.599609 6.265625 A 2.5000001 2.5000002 0 0 0 16.298828 2.9765625 A 2.5000001 2.5000002 0 0 0 15.400391 2.7734375 z M 23.671875 3.109375 A 2.5000001 2.5000002 0 0 0 21.283203 4.6152344 A 2.5000001 2.5000002 0 0 0 22.583984 7.9023438 A 2.5000001 2.5000002 0 0 0 25.871094 6.6015625 A 2.5000001 2.5000002 0 0 0 24.570312 3.3144531 A 2.5000001 2.5000002 0 0 0 23.671875 3.109375 z M 11.460938 8.1972656 A 2.5000001 2.5000002 0 0 0 9.0722656 9.703125 A 2.5000001 2.5000002 0 0 0 10.373047 12.990234 A 2.5000001 2.5000002 0 0 0 13.660156 11.689453 A 2.5000001 2.5000002 0 0 0 12.359375 8.4023438 A 2.5000001 2.5000002 0 0 0 11.460938 8.1972656 z M 19.419922 8.2871094 A 2.5000001 2.5000002 0 0 0 17.03125 9.7910156 A 2.5000001 2.5000002 0 0 0 18.332031 13.078125 A 2.5000001 2.5000002 0 0 0 21.619141 11.777344 A 2.5000001 2.5000002 0 0 0 20.318359 8.4902344 A 2.5000001 2.5000002 0 0 0 19.419922 8.2871094 z M 15.273438 14.234375 A 2.5000001 2.5000002 0 0 0 12.882812 15.740234 A 2.5000001 2.5000002 0 0 0 13.25 18.320312 C 6.5731595 18.088546 1.5175781 17.01652 1.5175781 15.722656 C 1.5175781 15.034037 3.1382779 14.689721 5.6464844 14.509766 C 2.4162346 14.686872 0.16601562 15.084919 0.16601562 15.552734 L 0.16601562 28.757812 A 15.946052 3.1673822 0 0 0 0.13867188 28.865234 A 15.946052 3.1673822 0 0 0 16.085938 32.033203 A 15.946052 3.1673822 0 0 0 32.03125 28.865234 A 15.946052 3.1673822 0 0 0 31.996094 28.664062 L 31.996094 15.552734 C 31.996094 15.139345 30.228297 14.782583 27.591797 14.582031 C 29.324779 14.778565 30.363281 15.11492 30.363281 15.722656 C 30.363281 17.113742 24.504947 18.240745 17.083984 18.349609 A 2.5000001 2.5000002 0 0 0 17.472656 17.726562 A 2.5000001 2.5000002 0 0 0 16.171875 14.439453 A 2.5000001 2.5000002 0 0 0 15.273438 14.234375 z "
             transform="translate(45.120356,20.232522)"
             id="path3321-2" />
        </g>
      </g>
    </g>
  </g>
</svg>
