<?xml version="1.0" encoding="UTF-8" standalone="no"?>
<!-- Created with Inkscape (http://www.inkscape.org/) -->

<svg
   xmlns:dc="http://purl.org/dc/elements/1.1/"
   xmlns:cc="http://creativecommons.org/ns#"
   xmlns:rdf="http://www.w3.org/1999/02/22-rdf-syntax-ns#"
   xmlns:svg="http://www.w3.org/2000/svg"
   xmlns="http://www.w3.org/2000/svg"
   xmlns:sodipodi="http://sodipodi.sourceforge.net/DTD/sodipodi-0.dtd"
   xmlns:inkscape="http://www.inkscape.org/namespaces/inkscape"
   width="32"
   height="32"
   id="svg3765"
   version="1.1"
   inkscape:version="0.48.3.1 r9886"
   sodipodi:docname="csv.svg"
   inkscape:export-filename="/home/k00ni/Documents/semicon/owl.png"
   inkscape:export-xdpi="90"
   inkscape:export-ydpi="90">
  <defs
     id="defs3767" />
  <sodipodi:namedview
     id="base"
     pagecolor="#ffffff"
     bordercolor="#666666"
     borderopacity="1.0"
     inkscape:pageopacity="0.0"
     inkscape:pageshadow="2"
     inkscape:zoom="11.313709"
     inkscape:cx="-12.911134"
     inkscape:cy="17.018483"
     inkscape:current-layer="layer1-9"
     showgrid="true"
     inkscape:grid-bbox="true"
     inkscape:document-units="px"
     inkscape:window-width="1301"
     inkscape:window-height="744"
     inkscape:window-x="65"
     inkscape:window-y="24"
     inkscape:window-maximized="1"
     showguides="true"
     inkscape:guide-bbox="true" />
  <metadata
     id="metadata3770">
    <rdf:RDF>
      <cc:Work
         rdf:about="">
        <dc:format>image/svg+xml</dc:format>
        <dc:type
           rdf:resource="http://purl.org/dc/dcmitype/StillImage" />
        <dc:title />
      </cc:Work>
    </rdf:RDF>
  </metadata>
  <g
     id="layer1"
     inkscape:label="Layer 1"
     inkscape:groupmode="layer"
     transform="translate(0,-16)">
    <g
       inkscape:label="Layer 1"
       id="layer1-4"
       transform="translate(0.20202972,-1.9622142e-8)">
      <g
         transform="translate(-0.37059768,-0.09089584)"
         id="layer1-9"
         inkscape:label="Layer 1">
        <path
           transform="matrix(5.4437956,0,0,5.4401451,-19.050573,-2.9496128)"
           d="m 6.2499998,4.1964288 a 0.6964286,0.6964286 0 1 1 -1.3928572,0 0.6964286,0.6964286 0 1 1 1.3928572,0 z"
           sodipodi:ry="0.6964286"
           sodipodi:rx="0.6964286"
           sodipodi:cy="4.1964288"
           sodipodi:cx="5.5535712"
           id="path3095"
           style="fill:#2d2d2d;fill-opacity:1;stroke:none"
           sodipodi:type="arc" />
        <rect
           ry="1.0294539"
           rx="33.220245"
           y="24.986053"
           x="7.390718"
           height="12.189641"
           width="7.7472649"
           id="rect3865"
           style="fill:#2d2d2d;fill-opacity:1;stroke:none" />
        <path
           sodipodi:nodetypes="sssss"
           inkscape:connector-curvature="0"
           id="rect3865-9"
           d="m 15.038608,35.537583 c 0.64934,2.684818 -1.735737,6.771575 -5.3477146,9.163127 -3.611973,2.391555 -13.6050737,6.509031 -7.6919049,-0.529356 1.772885,-2.110245 5.197285,-4.885023 5.3477145,-9.163128 0.1528813,-4.347802 7.042564,-2.15546 7.691905,0.529357 z"
           style="fill:#2d2d2d;fill-opacity:1;stroke:none" />
        <path
           sodipodi:nodetypes="sssssss"
           inkscape:connector-curvature="0"
           id="rect3865-95"
           d="m 27.793855,16.127444 c 2.299323,0 4.381787,4.908597 4.374695,5.519608 l -0.09749,8.402534 c -0.0068,0.611031 -1.85108,1.103011 -4.150401,1.103011 -2.299328,0 -4.171968,-0.492357 -4.150405,-1.103011 l 0.301407,-8.537075 c 0.02175,-0.61069 1.422876,-5.385067 3.722204,-5.385067 z"
           style="fill:#2d2d2d;fill-opacity:1;stroke:none" />
        <path
           sodipodi:nodetypes="sssss"
           inkscape:connector-curvature="0"
           id="rect3865-9-3"
           d="m 31.964562,29.393633 c 0.695729,2.857129 -1.859762,7.206174 -5.729808,9.751219 -3.87005,2.545049 -14.57716,6.92678 -8.241496,-0.563331 1.89956,-2.245682 5.568633,-5.198541 5.729802,-9.751219 0.163784,-4.626837 7.545756,-2.293796 8.241502,0.563331 z"
           style="fill:#2d2d2d;fill-opacity:1;stroke:none" />
      </g>
    </g>
  </g>
</svg>
