<?xml version="1.0" encoding="UTF-8" standalone="no"?>
<!-- Created with Inkscape (http://www.inkscape.org/) -->

<svg
   xmlns:dc="http://purl.org/dc/elements/1.1/"
   xmlns:cc="http://creativecommons.org/ns#"
   xmlns:rdf="http://www.w3.org/1999/02/22-rdf-syntax-ns#"
   xmlns:svg="http://www.w3.org/2000/svg"
   xmlns="http://www.w3.org/2000/svg"
   xmlns:sodipodi="http://sodipodi.sourceforge.net/DTD/sodipodi-0.dtd"
   xmlns:inkscape="http://www.inkscape.org/namespaces/inkscape"
   width="32"
   height="32"
   id="svg2985"
   version="1.1"
   inkscape:version="0.91 r13725"
   sodipodi:docname="cube5.svg">
  <defs
     id="defs2987" />
  <sodipodi:namedview
     id="base"
     pagecolor="#ffffff"
     bordercolor="#666666"
     borderopacity="1.0"
     inkscape:pageopacity="0.0"
     inkscape:pageshadow="2"
     inkscape:zoom="22.627417"
     inkscape:cx="9.9449641"
     inkscape:cy="15.233169"
     inkscape:current-layer="layer1"
     showgrid="true"
     inkscape:grid-bbox="true"
     inkscape:document-units="px"
     inkscape:window-width="1920"
     inkscape:window-height="1056"
     inkscape:window-x="0"
     inkscape:window-y="24"
     inkscape:window-maximized="1"
     showguides="true" />
  <metadata
     id="metadata2990">
    <rdf:RDF>
      <cc:Work
         rdf:about="">
        <dc:format>image/svg+xml</dc:format>
        <dc:type
           rdf:resource="http://purl.org/dc/dcmitype/StillImage" />
        <dc:title />
      </cc:Work>
    </rdf:RDF>
  </metadata>
  <g
     id="layer1"
     inkscape:label="Layer 1"
     inkscape:groupmode="layer"
     transform="translate(0,16)">
    <path
       style="fill:#2d2d2d;fill-opacity:1;stroke:none"
       d="M 0.49414062 0 C 0.22006486 0 -1.4802974e-16 0.22936887 0 0.51367188 L 0 5.9980469 L 6.3027344 12.300781 L 12.203125 6.4003906 L 16.232422 10.427734 L 10.330078 16.330078 L 10.328125 16.328125 L 6.3007812 20.355469 L 0 14.054688 L 0 31.486328 C 0 31.770631 0.22006488 32 0.49414062 32 L 31.505859 32 C 31.779935 32 32 31.770631 32 31.486328 L 32 0.51367188 C 32 0.22936887 31.779935 0 31.505859 0 L 13.863281 0 L 20.259766 6.3964844 L 16.232422 10.423828 L 5.8066406 0 L 0.49414062 0 z "
       transform="translate(0,-16)"
       id="rect2987-0" />
  </g>
</svg>
