<?xml version="1.0" encoding="UTF-8" standalone="no"?>
<!-- Created with Inkscape (http://www.inkscape.org/) -->

<svg
   xmlns:dc="http://purl.org/dc/elements/1.1/"
   xmlns:cc="http://creativecommons.org/ns#"
   xmlns:rdf="http://www.w3.org/1999/02/22-rdf-syntax-ns#"
   xmlns:svg="http://www.w3.org/2000/svg"
   xmlns="http://www.w3.org/2000/svg"
   xmlns:sodipodi="http://sodipodi.sourceforge.net/DTD/sodipodi-0.dtd"
   xmlns:inkscape="http://www.inkscape.org/namespaces/inkscape"
   width="32"
   height="32"
   id="svg2985"
   version="1.1"
   inkscape:version="0.48.3.1 r9886"
   sodipodi:docname="cube.svg">
  <defs
     id="defs2987" />
  <sodipodi:namedview
     id="base"
     pagecolor="#ffffff"
     bordercolor="#666666"
     borderopacity="1.0"
     inkscape:pageopacity="0.0"
     inkscape:pageshadow="2"
     inkscape:zoom="15.696216"
     inkscape:cx="26.655712"
     inkscape:cy="15.731919"
     inkscape:current-layer="layer1"
     showgrid="true"
     inkscape:grid-bbox="true"
     inkscape:document-units="px"
     inkscape:window-width="1301"
     inkscape:window-height="744"
     inkscape:window-x="65"
     inkscape:window-y="24"
     inkscape:window-maximized="1" />
  <metadata
     id="metadata2990">
    <rdf:RDF>
      <cc:Work
         rdf:about="">
        <dc:format>image/svg+xml</dc:format>
        <dc:type
           rdf:resource="http://purl.org/dc/dcmitype/StillImage" />
        <dc:title />
      </cc:Work>
    </rdf:RDF>
  </metadata>
  <g
     id="layer1"
     inkscape:label="Layer 1"
     inkscape:groupmode="layer"
     transform="translate(0,16)">
    <rect
       style="fill:#2d2d2d;fill-opacity:1;stroke:none"
       id="rect4217"
       width="1.2104828"
       height="9.6838627"
       x="-0.71158206"
       y="-22.202234"
       ry="0.60524142"
       transform="matrix(0.70710678,0.70710678,-0.70710678,0.70710678,0,0)" />
    <rect
       style="fill:#2d2d2d;fill-opacity:1;stroke:none"
       id="rect4217-0"
       width="1.2104828"
       height="9.6838627"
       x="-0.87151998"
       y="-10.243854"
       ry="0.60524142"
       transform="matrix(0.70710678,0.70710678,-0.70710678,0.70710678,0,0)" />
    <rect
       style="fill:#2d2d2d;fill-opacity:1;stroke:none"
       id="rect4217-7"
       width="1.2104828"
       height="9.6838627"
       x="22.411207"
       y="-22.032167"
       ry="0.60524142"
       transform="matrix(0.70710678,0.70710678,-0.70710678,0.70710678,0,0)" />
    <rect
       style="fill:#2d2d2d;fill-opacity:1;stroke:none"
       id="rect4217-0-4"
       width="1.2104828"
       height="9.6838627"
       x="22.25127"
       y="-10.073786"
       ry="0.60524142"
       transform="matrix(0.70710678,0.70710678,-0.70710678,0.70710678,0,0)" />
    <rect
       style="fill:#2d2d2d;fill-opacity:1;stroke:none"
       id="rect4217-6"
       width="1.2104828"
       height="9.6838627"
       x="-23.432859"
       y="0.45260209"
       ry="0.60524142"
       transform="matrix(-0.70710678,0.70710678,0.70710678,0.70710678,0,0)" />
    <rect
       style="fill:#2d2d2d;fill-opacity:1;stroke:none"
       id="rect4217-0-9"
       width="1.2104828"
       height="9.6838627"
       x="-23.592798"
       y="12.410984"
       ry="0.60524142"
       transform="matrix(-0.70710678,0.70710678,0.70710678,0.70710678,0,0)" />
    <rect
       style="fill:#2d2d2d;fill-opacity:1;stroke:none"
       id="rect4217-7-5"
       width="1.2104828"
       height="9.6838627"
       x="-0.31007123"
       y="0.62266892"
       ry="0.60524142"
       transform="matrix(-0.70710678,0.70710678,0.70710678,0.70710678,0,0)" />
    <rect
       style="fill:#2d2d2d;fill-opacity:1;stroke:none"
       id="rect4217-0-4-9"
       width="1.2104828"
       height="9.6838627"
       x="-0.47001004"
       y="12.581051"
       ry="0.60524142"
       transform="matrix(-0.70710678,0.70710678,0.70710678,0.70710678,0,0)" />
    <rect
       style="fill:#2d2d2d;fill-opacity:1;stroke:none"
       id="rect4217-4"
       width="0.78476018"
       height="6.2780814"
       x="3.5235701"
       y="-18.801243"
       ry="0.39238009"
       transform="matrix(0.70710678,0.70710678,-0.70710678,0.70710678,0,0)" />
    <rect
       style="fill:#2d2d2d;fill-opacity:1;stroke:none"
       id="rect4217-0-6"
       width="0.78476018"
       height="6.2780814"
       x="3.4198809"
       y="-11.048581"
       ry="0.39238009"
       transform="matrix(0.70710678,0.70710678,-0.70710678,0.70710678,0,0)" />
    <rect
       style="fill:#2d2d2d;fill-opacity:1;stroke:none"
       id="rect4217-7-1"
       width="0.78476018"
       height="6.2780814"
       x="18.514154"
       y="-18.690985"
       ry="0.39238009"
       transform="matrix(0.70710678,0.70710678,-0.70710678,0.70710678,0,0)" />
    <rect
       style="fill:#2d2d2d;fill-opacity:1;stroke:none"
       id="rect4217-0-4-6"
       width="0.78476018"
       height="6.2780814"
       x="18.410467"
       y="-10.938325"
       ry="0.39238009"
       transform="matrix(0.70710678,0.70710678,-0.70710678,0.70710678,0,0)" />
    <rect
       style="fill:#2d2d2d;fill-opacity:1;stroke:none"
       id="rect4217-6-7"
       width="0.78476018"
       height="6.2780814"
       x="-19.599058"
       y="4.2783155"
       ry="0.39238009"
       transform="matrix(-0.70710678,0.70710678,0.70710678,0.70710678,0,0)" />
    <rect
       style="fill:#2d2d2d;fill-opacity:1;stroke:none"
       id="rect4217-0-9-1"
       width="0.78476018"
       height="6.2780814"
       x="-19.702749"
       y="12.030974"
       ry="0.39238009"
       transform="matrix(-0.70710678,0.70710678,0.70710678,0.70710678,0,0)" />
    <rect
       style="fill:#2d2d2d;fill-opacity:1;stroke:none"
       id="rect4217-7-5-8"
       width="0.78476018"
       height="6.2780814"
       x="-4.6084762"
       y="4.3885698"
       ry="0.39238009"
       transform="matrix(-0.70710678,0.70710678,0.70710678,0.70710678,0,0)" />
    <rect
       style="fill:#2d2d2d;fill-opacity:1;stroke:none"
       id="rect4217-0-4-9-3"
       width="0.78476018"
       height="6.2780814"
       x="-4.7121644"
       y="12.141231"
       ry="0.39238009"
       transform="matrix(-0.70710678,0.70710678,0.70710678,0.70710678,0,0)" />
    <rect
       style="fill:#2d2d2d;fill-opacity:1;stroke:none"
       id="rect4217-4-7"
       width="0.3396582"
       height="2.7172656"
       x="8.1474752"
       y="-14.890081"
       ry="0.1698291"
       transform="matrix(0.70710678,0.70710678,-0.70710678,0.70710678,0,0)" />
    <rect
       style="fill:#2d2d2d;fill-opacity:1;stroke:none"
       id="rect4217-0-6-6"
       width="0.3396582"
       height="2.7172656"
       x="8.1025963"
       y="-11.534592"
       ry="0.1698291"
       transform="matrix(0.70710678,0.70710678,-0.70710678,0.70710678,0,0)" />
    <rect
       style="fill:#2d2d2d;fill-opacity:1;stroke:none"
       id="rect4217-7-1-7"
       width="0.3396582"
       height="2.7172656"
       x="14.635668"
       y="-14.84236"
       ry="0.1698291"
       transform="matrix(0.70710678,0.70710678,-0.70710678,0.70710678,0,0)" />
    <rect
       style="fill:#2d2d2d;fill-opacity:1;stroke:none"
       id="rect4217-0-4-6-4"
       width="0.3396582"
       height="2.7172656"
       x="14.59079"
       y="-11.486871"
       ry="0.1698291"
       transform="matrix(0.70710678,0.70710678,-0.70710678,0.70710678,0,0)" />
    <rect
       style="fill:#2d2d2d;fill-opacity:1;stroke:none"
       id="rect4217-6-7-4"
       width="0.3396582"
       height="2.7172656"
       x="-15.235392"
       y="8.4741421"
       ry="0.1698291"
       transform="matrix(-0.70710678,0.70710678,0.70710678,0.70710678,0,0)" />
    <rect
       style="fill:#2d2d2d;fill-opacity:1;stroke:none"
       id="rect4217-0-9-1-0"
       width="0.3396582"
       height="2.7172656"
       x="-15.280272"
       y="11.829631"
       ry="0.1698291"
       transform="matrix(-0.70710678,0.70710678,0.70710678,0.70710678,0,0)" />
    <rect
       style="fill:#2d2d2d;fill-opacity:1;stroke:none"
       id="rect4217-7-5-8-2"
       width="0.3396582"
       height="2.7172656"
       x="-8.7472"
       y="8.521863"
       ry="0.1698291"
       transform="matrix(-0.70710678,0.70710678,0.70710678,0.70710678,0,0)" />
    <rect
       style="fill:#2d2d2d;fill-opacity:1;stroke:none"
       id="rect4217-0-4-9-3-5"
       width="0.3396582"
       height="2.7172656"
       x="-8.792078"
       y="11.877352"
       ry="0.1698291"
       transform="matrix(-0.70710678,0.70710678,0.70710678,0.70710678,0,0)" />
  </g>
</svg>
