<?xml version="1.0" encoding="UTF-8" standalone="no"?>
<!-- Created with Inkscape (http://www.inkscape.org/) -->

<svg
   xmlns:dc="http://purl.org/dc/elements/1.1/"
   xmlns:cc="http://creativecommons.org/ns#"
   xmlns:rdf="http://www.w3.org/1999/02/22-rdf-syntax-ns#"
   xmlns:svg="http://www.w3.org/2000/svg"
   xmlns="http://www.w3.org/2000/svg"
   xmlns:sodipodi="http://sodipodi.sourceforge.net/DTD/sodipodi-0.dtd"
   xmlns:inkscape="http://www.inkscape.org/namespaces/inkscape"
   width="32"
   height="32"
   id="svg2985"
   version="1.1"
   inkscape:version="0.91 r13725"
   sodipodi:docname="cube3.svg">
  <defs
     id="defs2987" />
  <sodipodi:namedview
     id="base"
     pagecolor="#ffffff"
     bordercolor="#666666"
     borderopacity="1.0"
     inkscape:pageopacity="0.0"
     inkscape:pageshadow="2"
     inkscape:zoom="20.355211"
     inkscape:cx="24.749039"
     inkscape:cy="12.690037"
     inkscape:current-layer="layer1"
     showgrid="true"
     inkscape:grid-bbox="true"
     inkscape:document-units="px"
     inkscape:window-width="1920"
     inkscape:window-height="1056"
     inkscape:window-x="0"
     inkscape:window-y="24"
     inkscape:window-maximized="1" />
  <metadata
     id="metadata2990">
    <rdf:RDF>
      <cc:Work
         rdf:about="">
        <dc:format>image/svg+xml</dc:format>
        <dc:type
           rdf:resource="http://purl.org/dc/dcmitype/StillImage" />
        <dc:title />
      </cc:Work>
    </rdf:RDF>
  </metadata>
  <g
     id="layer1"
     inkscape:label="Layer 1"
     inkscape:groupmode="layer"
     transform="translate(0,16)">
    <path
       style="fill:#2d2d2d;fill-opacity:1;stroke:none"
       d="M 12.229101,-16 0,-0.00488927 15.520351,16 l 16.4699,-6.7410624 0.0039,-6.349936 -10.503535,10.5330324 c -0.02786,0.02795 -0.06011,0.0463 -0.09359,0.06258 l -0.09164,0.09387 c -0.133453,0.133851 -0.348147,0.133851 -0.481599,0 L 10.174019,2.9187801 c -0.101845,-0.1021499 -0.123796,-0.2527569 -0.07019,-0.3774367 0.01621,-0.048975 0.039,-0.095833 0.07799,-0.134939 l 8.522544,-8.5480655 2.127223,-2.1335941 c 0.0017,-0.00174 0.0041,-0.00221 0.0058,-0.00392 l 0.18523,-0.1857851 c 0.06673,-0.066926 0.152744,-0.1016929 0.239825,-0.1016928 0.08708,10e-8 0.175048,0.034767 0.241774,0.1016928 l 10.489936,10.521302 0.0058,-8.7455846 -19.770899,-9.3107621 z m 9.03339,12.9071688 -5.74214,5.759335 5.558859,5.5755054 5.74214,-5.759335 -5.558859,-5.5755054 z"
       id="path2990"
       inkscape:connector-curvature="0" />
  </g>
</svg>
