<?xml version="1.0" encoding="UTF-8" standalone="no"?>
<!-- Created with Inkscape (http://www.inkscape.org/) -->

<svg
   xmlns:dc="http://purl.org/dc/elements/1.1/"
   xmlns:cc="http://creativecommons.org/ns#"
   xmlns:rdf="http://www.w3.org/1999/02/22-rdf-syntax-ns#"
   xmlns:svg="http://www.w3.org/2000/svg"
   xmlns="http://www.w3.org/2000/svg"
   xmlns:sodipodi="http://sodipodi.sourceforge.net/DTD/sodipodi-0.dtd"
   xmlns:inkscape="http://www.inkscape.org/namespaces/inkscape"
   width="32px"
   height="32px"
   id="svg3004"
   version="1.1"
   inkscape:version="0.91 r13725"
   sodipodi:docname="dimension_element.svg"
   inkscape:export-filename="/home/k00ni/Documents/ow_cubeviz/extensions/cubeviz/public/images/attributeAndMeasure.png"
   inkscape:export-xdpi="90"
   inkscape:export-ydpi="90">
  <defs
     id="defs3006" />
  <sodipodi:namedview
     id="base"
     pagecolor="#ffffff"
     bordercolor="#666666"
     borderopacity="1.0"
     inkscape:pageopacity="0.0"
     inkscape:pageshadow="2"
     inkscape:zoom="20.536593"
     inkscape:cx="15.711869"
     inkscape:cy="14.07322"
     inkscape:current-layer="layer1"
     showgrid="true"
     inkscape:grid-bbox="true"
     inkscape:document-units="px"
     showguides="true"
     inkscape:guide-bbox="true"
     inkscape:window-width="1920"
     inkscape:window-height="1056"
     inkscape:window-x="0"
     inkscape:window-y="24"
     inkscape:window-maximized="1" />
  <metadata
     id="metadata3009">
    <rdf:RDF>
      <cc:Work
         rdf:about="">
        <dc:format>image/svg+xml</dc:format>
        <dc:type
           rdf:resource="http://purl.org/dc/dcmitype/StillImage" />
        <dc:title />
      </cc:Work>
    </rdf:RDF>
  </metadata>
  <g
     id="layer1"
     inkscape:label="Layer 1"
     inkscape:groupmode="layer">
    <path
       style="color:#000000;font-style:normal;font-variant:normal;font-weight:normal;font-stretch:normal;font-size:medium;line-height:normal;font-family:sans-serif;text-indent:0;text-align:start;text-decoration:none;text-decoration-line:none;text-decoration-style:solid;text-decoration-color:#000000;letter-spacing:normal;word-spacing:normal;text-transform:none;direction:ltr;block-progression:tb;writing-mode:lr-tb;baseline-shift:baseline;text-anchor:start;white-space:normal;clip-rule:nonzero;display:inline;overflow:visible;visibility:visible;opacity:1;isolation:auto;mix-blend-mode:normal;color-interpolation:sRGB;color-interpolation-filters:linearRGB;solid-color:#000000;solid-opacity:1;fill:#2d2d2d;fill-opacity:1;fill-rule:nonzero;stroke:none;stroke-width:4.50772572;stroke-linecap:butt;stroke-linejoin:miter;stroke-miterlimit:4;stroke-dasharray:none;stroke-dashoffset:0;stroke-opacity:1;color-rendering:auto;image-rendering:auto;shape-rendering:auto;text-rendering:auto;enable-background:accumulate"
       d="M 25.884766 0.025390625 C 22.46546 0.025390275 19.669922 2.8209285 19.669922 6.2402344 C 19.669922 6.3945685 19.682171 6.545675 19.693359 6.6972656 L 13.443359 8.7988281 C 10.99327 3.6406018 5.8842341 0.060094029 0.041015625 0.53515625 L 0.40625 5.0273438 C 5.4717518 4.615511 10.084919 9.1423776 10.455078 14.882812 C 10.869819 21.314614 6.0174634 26.782176 0.35351562 27.177734 L 0.66796875 31.673828 C 8.9692017 31.094087 15.522467 23.421155 14.953125 14.591797 C 14.90656 13.869669 14.795404 13.163091 14.654297 12.466797 L 21.173828 10.275391 C 22.315587 11.605336 24.004044 12.453125 25.884766 12.453125 C 29.304073 12.453125 32.097656 9.6595411 32.097656 6.2402344 C 32.097656 2.8209285 29.304072 0.025390275 25.884766 0.025390625 z M 25.884766 2.078125 C 28.195636 2.0781247 30.046875 3.9293649 30.046875 6.2402344 C 30.046875 8.5511043 28.195636 10.400391 25.884766 10.400391 C 23.573897 10.400391 21.722656 8.5511043 21.722656 6.2402344 C 21.722656 3.9293649 23.573897 2.0781247 25.884766 2.078125 z "
       id="path3756" />
  </g>
</svg>
