<?xml version="1.0" encoding="UTF-8" standalone="no"?>
<!-- Created with Inkscape (http://www.inkscape.org/) -->

<svg
   xmlns:dc="http://purl.org/dc/elements/1.1/"
   xmlns:cc="http://creativecommons.org/ns#"
   xmlns:rdf="http://www.w3.org/1999/02/22-rdf-syntax-ns#"
   xmlns:svg="http://www.w3.org/2000/svg"
   xmlns="http://www.w3.org/2000/svg"
   xmlns:sodipodi="http://sodipodi.sourceforge.net/DTD/sodipodi-0.dtd"
   xmlns:inkscape="http://www.inkscape.org/namespaces/inkscape"
   width="32px"
   height="32px"
   id="svg3004"
   version="1.1"
   inkscape:version="0.91 r13725"
   sodipodi:docname="dimensionElement3.svg"
   inkscape:export-filename="/home/k00ni/Documents/ow_cubeviz/extensions/cubeviz/public/images/attributeAndMeasure.png"
   inkscape:export-xdpi="90"
   inkscape:export-ydpi="90">
  <defs
     id="defs3006" />
  <sodipodi:namedview
     id="base"
     pagecolor="#ffffff"
     bordercolor="#666666"
     borderopacity="1.0"
     inkscape:pageopacity="0.0"
     inkscape:pageshadow="2"
     inkscape:zoom="14.521564"
     inkscape:cx="6.8258059"
     inkscape:cy="11.888149"
     inkscape:current-layer="layer1"
     showgrid="true"
     inkscape:grid-bbox="true"
     inkscape:document-units="px"
     showguides="true"
     inkscape:guide-bbox="true"
     inkscape:window-width="1920"
     inkscape:window-height="1056"
     inkscape:window-x="0"
     inkscape:window-y="24"
     inkscape:window-maximized="1" />
  <metadata
     id="metadata3009">
    <rdf:RDF>
      <cc:Work
         rdf:about="">
        <dc:format>image/svg+xml</dc:format>
        <dc:type
           rdf:resource="http://purl.org/dc/dcmitype/StillImage" />
        <dc:title />
      </cc:Work>
    </rdf:RDF>
  </metadata>
  <g
     id="layer1"
     inkscape:label="Layer 1"
     inkscape:groupmode="layer">
    <path
       style="fill:#2d2d2d;fill-opacity:1;stroke:none"
       d="M 2.59375 0.0703125 C 2.3397635 0.059975594 2.0501012 0.066074278 1.7011719 0.1328125 C 1.3522426 0.19955075 0.87634714 0.39192564 0.54882812 0.80078125 C 0.22130912 1.2096369 0.12285922 1.7041853 0.12109375 2.1367188 L 0.0859375 10.597656 L 0.33398438 10.931641 C 0.33398438 10.931641 1.33147 12.279103 2.4726562 13.638672 C 3.0432494 14.318456 3.6463839 15.00233 4.2167969 15.552734 C 4.5020034 15.827936 4.7769453 16.069177 5.0722656 16.275391 C 5.3675859 16.481604 5.6417714 16.731723 6.3085938 16.726562 L 10.535156 16.693359 C 11.245174 16.687859 11.447519 16.43497 11.724609 16.238281 C 12.0017 16.041592 12.266459 15.809641 12.548828 15.544922 C 12.625552 15.472994 12.708589 15.383101 12.787109 15.306641 L 17.080078 19.599609 C 16.304435 20.833181 15.847656 22.287381 15.847656 23.849609 C 15.847656 28.269711 19.443179 31.878906 23.863281 31.878906 C 28.283383 31.878906 31.892578 28.269711 31.892578 23.849609 C 31.892578 19.429507 28.283383 15.835938 23.863281 15.835938 C 22.12365 15.835938 20.516063 16.399148 19.201172 17.34375 L 14.892578 13.035156 C 15.793535 11.997564 16.556641 11.072266 16.556641 11.072266 L 16.837891 10.726562 L 16.802734 2.3984375 C 16.800933 1.9661374 16.701102 1.5041541 16.439453 1.1113281 C 16.177804 0.7185022 15.782103 0.4573247 15.433594 0.32421875 C 14.736576 0.05800684 14.171427 0.10742188 13.650391 0.10742188 L 3.2734375 0.10742188 C 3.0660473 0.10742188 2.8477365 0.080649406 2.59375 0.0703125 z M 7.5039062 2.6132812 L 9.3144531 2.6132812 A 2.8611463 2.8611463 0 0 0 9.25 3.2128906 A 2.8611463 2.8611463 0 0 0 12.111328 6.0742188 A 2.8611463 2.8611463 0 0 0 14.308594 5.0429688 L 14.328125 9.828125 C 14.12007 10.083328 13.479689 10.868288 12.582031 11.878906 L 10.970703 13.490234 L 11.017578 13.537109 C 10.959691 13.593342 10.890704 13.667407 10.835938 13.71875 C 10.605538 13.934748 10.405217 14.102172 10.283203 14.189453 L 6.5039062 14.21875 C 6.3865416 14.13658 6.1842104 13.96921 5.9570312 13.75 C 5.5009359 13.309904 4.9302443 12.670227 4.390625 12.027344 C 3.4425458 10.897836 2.7907143 10.016587 2.5957031 9.7558594 L 2.6152344 5.2050781 A 2.8611463 2.8611463 0 0 0 4.7246094 6.140625 A 2.8611463 2.8611463 0 0 0 7.5859375 3.2792969 A 2.8611463 2.8611463 0 0 0 7.5039062 2.6132812 z M 8.3984375 6.9453125 A 2.0225718 2.0225718 0 0 0 6.3769531 8.96875 A 2.0225718 2.0225718 0 0 0 8.3984375 10.990234 A 2.0225718 2.0225718 0 0 0 10.421875 8.96875 A 2.0225718 2.0225718 0 0 0 8.3984375 6.9453125 z M 23.863281 17.501953 C 27.377065 17.501953 30.208984 20.335821 30.208984 23.849609 C 30.208984 27.36339 27.377065 30.197266 23.863281 30.197266 C 20.349498 30.197266 17.53125 27.36339 17.53125 23.849609 C 17.53125 20.335821 20.349498 17.501953 23.863281 17.501953 z M 23.964844 20.509766 A 3.3995961 3.3995961 0 0 0 20.566406 23.908203 A 3.3995961 3.3995961 0 0 0 23.964844 27.308594 A 3.3995961 3.3995961 0 0 0 27.365234 23.908203 A 3.3995961 3.3995961 0 0 0 23.964844 20.509766 z "
       id="path3008-7-6-9" />
  </g>
</svg>
