<?xml version="1.0" encoding="UTF-8" standalone="no"?>
<!-- Created with Inkscape (http://www.inkscape.org/) -->

<svg
   xmlns:dc="http://purl.org/dc/elements/1.1/"
   xmlns:cc="http://creativecommons.org/ns#"
   xmlns:rdf="http://www.w3.org/1999/02/22-rdf-syntax-ns#"
   xmlns:svg="http://www.w3.org/2000/svg"
   xmlns="http://www.w3.org/2000/svg"
   xmlns:sodipodi="http://sodipodi.sourceforge.net/DTD/sodipodi-0.dtd"
   xmlns:inkscape="http://www.inkscape.org/namespaces/inkscape"
   width="32px"
   height="32px"
   id="svg3004"
   version="1.1"
   inkscape:version="0.48.3.1 r9886"
   sodipodi:docname="dimensionElement3.svg"
   inkscape:export-filename="/home/k00ni/Documents/ow_cubeviz/extensions/cubeviz/public/images/attributeAndMeasure.png"
   inkscape:export-xdpi="90"
   inkscape:export-ydpi="90">
  <defs
     id="defs3006" />
  <sodipodi:namedview
     id="base"
     pagecolor="#ffffff"
     bordercolor="#666666"
     borderopacity="1.0"
     inkscape:pageopacity="0.0"
     inkscape:pageshadow="2"
     inkscape:zoom="15.836083"
     inkscape:cx="-8.5836224"
     inkscape:cy="12.072659"
     inkscape:current-layer="layer1"
     showgrid="true"
     inkscape:grid-bbox="true"
     inkscape:document-units="px"
     showguides="true"
     inkscape:guide-bbox="true"
     inkscape:window-width="1920"
     inkscape:window-height="1029"
     inkscape:window-x="0"
     inkscape:window-y="28"
     inkscape:window-maximized="1" />
  <metadata
     id="metadata3009">
    <rdf:RDF>
      <cc:Work
         rdf:about="">
        <dc:format>image/svg+xml</dc:format>
        <dc:type
           rdf:resource="http://purl.org/dc/dcmitype/StillImage" />
        <dc:title></dc:title>
      </cc:Work>
    </rdf:RDF>
  </metadata>
  <g
     id="layer1"
     inkscape:label="Layer 1"
     inkscape:groupmode="layer">
    <path
       sodipodi:type="arc"
       style="fill:#2d2d2d;fill-opacity:1;stroke:none"
       id="path3008-7-6-9"
       sodipodi:cx="6.3778396"
       sodipodi:cy="24.043488"
       sodipodi:rx="0.88405699"
       sodipodi:ry="0.88405699"
       d="m 7.2618966,24.043488 a 0.88405699,0.88405699 0 1 1 -1.768114,0 0.88405699,0.88405699 0 1 1 1.768114,0 z"
       transform="matrix(3.845449,0,0,3.845449,-0.56000521,-68.549194)" />
    <path
       sodipodi:type="arc"
       style="fill:none;stroke:#2d2d2d;stroke-width:0.2064051;stroke-linecap:round;stroke-linejoin:round;stroke-miterlimit:4;stroke-opacity:1;stroke-dasharray:none"
       id="path3008-7-6-9-7"
       sodipodi:cx="6.3778396"
       sodipodi:cy="24.043488"
       sodipodi:rx="0.88405699"
       sodipodi:ry="0.88405699"
       d="m 7.2618966,24.043488 a 0.88405699,0.88405699 0 1 1 -1.768114,0 0.88405699,0.88405699 0 1 1 1.768114,0 z"
       transform="matrix(8.1247992,0,0,8.1247992,-27.949127,-171.49446)" />
    <g
       inkscape:label="Layer 1"
       id="layer1-3"
       transform="matrix(0.8625332,0,0,0.8625332,-26.116533,3.2013038)">
      <g
         id="g3919"
         transform="matrix(0.60383764,0,0,0.60383764,30.4261,-3.5996153)">
        <path
           style="fill:none;stroke:#2d2d2d;stroke-width:4.80999994;stroke-miterlimit:4;stroke-opacity:1"
           d="m 6.0395613,2.4264555 19.9263247,0 c 1.985086,0 3.63805,0.019446 3.646335,2.0045149 l 0.06315,15.1313066 c 0,0 -7.995494,9.884557 -9.70844,9.897881 l -8.117852,0.06315 C 9.8640526,29.538746 2.3300794,19.372836 2.3300794,19.372836 L 2.3932263,3.925795 c 0.00811,-1.9850696 1.6612488,-1.4993395 3.646335,-1.4993395 z"
           id="rect3865"
           inkscape:connector-curvature="0"
           sodipodi:nodetypes="ssscsscss" />
        <path
           sodipodi:type="arc"
           style="fill:#2d2d2d;fill-opacity:1;stroke:none"
           id="path3867-6"
           sodipodi:cx="8.2091007"
           sodipodi:cy="21.517611"
           sodipodi:rx="2.715318"
           sodipodi:ry="2.715318"
           d="m 10.924419,21.517611 c 0,1.499628 -1.2156896,2.715318 -2.7153183,2.715318 -1.4996287,0 -2.7153179,-1.21569 -2.7153179,-2.715318 0,-1.499629 1.2156892,-2.715318 2.7153179,-2.715318 1.4996287,0 2.7153183,1.215689 2.7153183,2.715318 z"
           transform="matrix(2.023128,0,0,2.023128,-7.7805346,-37.422773)" />
        <path
           sodipodi:type="arc"
           style="fill:#2d2d2d;fill-opacity:1;stroke:none"
           id="path3867-6-4"
           sodipodi:cx="8.2091007"
           sodipodi:cy="21.517611"
           sodipodi:rx="2.715318"
           sodipodi:ry="2.715318"
           d="m 10.924419,21.517611 c 0,1.499628 -1.2156896,2.715318 -2.7153183,2.715318 -1.4996287,0 -2.7153179,-1.21569 -2.7153179,-2.715318 0,-1.499629 1.2156892,-2.715318 2.7153179,-2.715318 1.4996287,0 2.7153183,1.215689 2.7153183,2.715318 z"
           transform="matrix(2.023128,0,0,2.023128,6.401656,-37.549067)" />
        <path
           sodipodi:type="arc"
           style="fill:#2d2d2d;fill-opacity:1;stroke:none"
           id="path3867-6-4-2"
           sodipodi:cx="8.2091007"
           sodipodi:cy="21.517611"
           sodipodi:rx="2.715318"
           sodipodi:ry="2.715318"
           d="m 10.924419,21.517611 c 0,1.499628 -1.2156896,2.715318 -2.7153183,2.715318 -1.4996287,0 -2.7153179,-1.21569 -2.7153179,-2.715318 0,-1.499629 1.2156892,-2.715318 2.7153179,-2.715318 1.4996287,0 2.7153183,1.215689 2.7153183,2.715318 z"
           transform="matrix(1.4301686,0,0,1.4301686,4.1412275,-13.739633)" />
      </g>
    </g>
    <rect
       style="fill:#2d2d2d;fill-opacity:1;stroke:none"
       id="rect3925"
       width="3.0941994"
       height="9.7246265"
       x="-1.7817272"
       y="17.296261"
       transform="matrix(0.70710678,-0.70710678,0.70710678,0.70710678,0,0)" />
  </g>
</svg>
