<?xml version="1.0" encoding="UTF-8" standalone="no"?>
<!-- Created with Inkscape (http://www.inkscape.org/) -->

<svg
   xmlns:dc="http://purl.org/dc/elements/1.1/"
   xmlns:cc="http://creativecommons.org/ns#"
   xmlns:rdf="http://www.w3.org/1999/02/22-rdf-syntax-ns#"
   xmlns:svg="http://www.w3.org/2000/svg"
   xmlns="http://www.w3.org/2000/svg"
   xmlns:sodipodi="http://sodipodi.sourceforge.net/DTD/sodipodi-0.dtd"
   xmlns:inkscape="http://www.inkscape.org/namespaces/inkscape"
   width="32px"
   height="32px"
   id="svg3004"
   version="1.1"
   inkscape:version="0.91 r13725"
   sodipodi:docname="dimensionElement2.svg"
   inkscape:export-filename="/home/k00ni/Documents/ow_cubeviz/extensions/cubeviz/public/images/attributeAndMeasure.png"
   inkscape:export-xdpi="90"
   inkscape:export-ydpi="90">
  <defs
     id="defs3006" />
  <sodipodi:namedview
     id="base"
     pagecolor="#ffffff"
     bordercolor="#666666"
     borderopacity="1.0"
     inkscape:pageopacity="0.0"
     inkscape:pageshadow="2"
     inkscape:zoom="20.536593"
     inkscape:cx="14.342764"
     inkscape:cy="14.90191"
     inkscape:current-layer="layer1"
     showgrid="true"
     inkscape:grid-bbox="true"
     inkscape:document-units="px"
     showguides="true"
     inkscape:guide-bbox="true"
     inkscape:window-width="1920"
     inkscape:window-height="1056"
     inkscape:window-x="0"
     inkscape:window-y="24"
     inkscape:window-maximized="1" />
  <metadata
     id="metadata3009">
    <rdf:RDF>
      <cc:Work
         rdf:about="">
        <dc:format>image/svg+xml</dc:format>
        <dc:type
           rdf:resource="http://purl.org/dc/dcmitype/StillImage" />
        <dc:title />
      </cc:Work>
    </rdf:RDF>
  </metadata>
  <g
     id="layer1"
     inkscape:label="Layer 1"
     inkscape:groupmode="layer">
    <path
       style="fill:#2d2d2d;fill-opacity:1;stroke:none"
       d="M 8.1132812 0.013671875 L 0.029296875 8.0976562 L 8.1132812 16.181641 L 11.236328 13.058594 L 17.380859 19.154297 C 16.421388 20.475347 15.847656 22.094989 15.847656 23.849609 C 15.847656 28.269711 19.443179 31.878906 23.863281 31.878906 C 28.283383 31.878906 31.892578 28.269711 31.892578 23.849609 C 31.892578 19.429507 28.283383 15.835938 23.863281 15.835938 C 21.957504 15.835938 20.206774 16.506781 18.830078 17.621094 L 12.728516 11.566406 L 16.197266 8.0976562 L 8.1132812 0.013671875 z M 23.863281 17.501953 C 27.377065 17.501953 30.208984 20.335821 30.208984 23.849609 C 30.208984 27.36339 27.377065 30.197266 23.863281 30.197266 C 20.349498 30.197266 17.53125 27.36339 17.53125 23.849609 C 17.53125 22.550821 17.917266 21.345998 18.580078 20.341797 L 20.730469 22.474609 A 3.3995961 3.3995961 0 0 0 20.439453 23.845703 A 3.3995961 3.3995961 0 0 0 23.839844 27.246094 A 3.3995961 3.3995961 0 0 0 27.238281 23.845703 A 3.3995961 3.3995961 0 0 0 23.839844 20.445312 A 3.3995961 3.3995961 0 0 0 22.142578 20.904297 L 20.023438 18.802734 C 21.086988 17.989865 22.414156 17.501953 23.863281 17.501953 z "
       id="path3008-7-6-9" />
  </g>
</svg>
