<?xml version="1.0" encoding="UTF-8" standalone="no"?>
<!-- Created with Inkscape (http://www.inkscape.org/) -->

<svg
   xmlns:dc="http://purl.org/dc/elements/1.1/"
   xmlns:cc="http://creativecommons.org/ns#"
   xmlns:rdf="http://www.w3.org/1999/02/22-rdf-syntax-ns#"
   xmlns:svg="http://www.w3.org/2000/svg"
   xmlns="http://www.w3.org/2000/svg"
   xmlns:sodipodi="http://sodipodi.sourceforge.net/DTD/sodipodi-0.dtd"
   xmlns:inkscape="http://www.inkscape.org/namespaces/inkscape"
   width="32px"
   height="32px"
   id="svg3103"
   version="1.1"
   inkscape:version="0.91 r13725"
   sodipodi:docname="doctor.svg">
  <defs
     id="defs3105" />
  <sodipodi:namedview
     id="base"
     pagecolor="#ffffff"
     bordercolor="#666666"
     borderopacity="1.0"
     inkscape:pageopacity="0.0"
     inkscape:pageshadow="2"
     inkscape:zoom="20.536593"
     inkscape:cx="19.751293"
     inkscape:cy="16.937659"
     inkscape:current-layer="layer1"
     showgrid="true"
     inkscape:grid-bbox="true"
     inkscape:document-units="px"
     inkscape:window-width="1920"
     inkscape:window-height="1056"
     inkscape:window-x="0"
     inkscape:window-y="24"
     inkscape:window-maximized="1" />
  <metadata
     id="metadata3108">
    <rdf:RDF>
      <cc:Work
         rdf:about="">
        <dc:format>image/svg+xml</dc:format>
        <dc:type
           rdf:resource="http://purl.org/dc/dcmitype/StillImage" />
      </cc:Work>
    </rdf:RDF>
  </metadata>
  <g
     id="layer1"
     inkscape:label="Layer 1"
     inkscape:groupmode="layer">
    <path
       style="fill:#2d2d2d;fill-opacity:1;stroke:none"
       d="M 15.960938 0.07421875 A 7.0000033 6.9999993 0 0 0 8.9609375 7.0742188 A 7.0000033 6.9999993 0 0 0 15.960938 14.074219 A 7.0000033 6.9999993 0 0 0 22.960938 7.0742188 A 7.0000033 6.9999993 0 0 0 15.960938 0.07421875 z M 9.2890625 13.851562 C 8.928945 13.866332 8.595404 13.939703 8.2871094 14.089844 L 1.6464844 17.324219 C 0.734026 17.768591 0.25216539 18.602944 0.09765625 19.398438 C -0.05685289 20.193929 0.010522385 20.982854 0.017578125 21.712891 L 0.095703125 30.009766 C 0.099890825 30.447528 0.35160724 30.84292 0.63476562 31.076172 C 0.91792403 31.309423 1.2376776 31.446851 1.5839844 31.558594 C 2.2765979 31.78208 3.1046137 31.887853 3.9667969 31.951172 C 5.6911632 32.07781 7.5647009 32.006739 8.1796875 32.005859 L 14.443359 31.996094 C 15.018083 31.995268 15.555603 31.757437 15.910156 31.392578 C 15.943425 31.358342 15.96947 31.320778 16 31.285156 C 16.030529 31.320777 16.056577 31.358344 16.089844 31.392578 C 16.444376 31.75742 16.981944 31.99525 17.556641 31.996094 L 23.683594 32.005859 C 24.29873 32.006785 26.205378 32.077642 27.962891 31.951172 C 28.841647 31.887942 29.686885 31.782718 30.390625 31.560547 C 30.742495 31.449462 31.064166 31.313574 31.351562 31.082031 C 31.638959 30.850488 31.900055 30.453199 31.904297 30.009766 L 31.982422 21.712891 C 31.989522 20.982849 32.056854 20.193912 31.902344 19.398438 C 31.747838 18.602963 31.265948 17.768579 30.353516 17.324219 L 23.712891 14.089844 C 23.096335 13.789579 22.377457 13.792513 21.550781 13.96875 C 20.724106 14.144987 19.802675 14.536622 18.921875 15.205078 C 17.728317 16.110892 16.640282 17.550803 16 19.591797 C 15.35977 17.54968 14.271898 16.109102 13.078125 15.203125 C 12.197313 14.53466 11.275909 14.14499 10.449219 13.96875 C 10.035874 13.88063 9.64918 13.836795 9.2890625 13.851562 z M 9.3496094 15.380859 C 9.5593556 15.369775 9.833224 15.381051 10.134766 15.445312 C 10.737848 15.573882 11.46547 15.874593 12.166016 16.40625 C 13.567107 17.469565 14.904792 19.439535 15.066406 22.988281 L 15.244141 26.894531 L 15.21875 27.439453 C 15.196888 27.919576 15.191654 28.477746 15.240234 29.044922 C 15.215122 29.291688 15.181367 29.528199 15.126953 29.726562 C 15.045133 30.024856 14.929814 30.235199 14.828125 30.339844 C 14.726436 30.444488 14.659276 30.486015 14.441406 30.486328 L 8.1757812 30.496094 C 7.4617104 30.497094 5.67912 30.563032 4.0761719 30.445312 C 3.2746978 30.386416 2.521664 30.274294 2.046875 30.121094 C 1.8144857 30.046109 1.6608957 29.95796 1.6054688 29.914062 L 1.5273438 21.699219 C 1.5197137 20.909601 1.4821181 20.19185 1.5800781 19.6875 C 1.6780381 19.18315 1.805847 18.92553 2.3066406 18.681641 L 8.9492188 15.447266 C 8.9942398 15.425341 9.1398631 15.391944 9.3496094 15.380859 z M 22.650391 15.380859 C 22.860131 15.391942 23.005744 15.425311 23.050781 15.447266 L 29.693359 18.681641 C 30.194179 18.925543 30.321958 19.183132 30.419922 19.6875 C 30.517882 20.191868 30.480296 20.909606 30.472656 21.699219 L 30.394531 29.910156 C 30.335841 29.955686 30.175296 30.043452 29.935547 30.119141 C 29.446059 30.273672 28.674804 30.386355 27.855469 30.445312 C 26.216799 30.563229 24.399468 30.497174 23.685547 30.496094 L 17.558594 30.486328 C 17.340698 30.486008 17.273584 30.444508 17.171875 30.339844 C 17.070166 30.235177 16.954872 30.024862 16.873047 29.726562 C 16.818633 29.528195 16.784878 29.291688 16.759766 29.044922 C 16.808346 28.477749 16.803111 27.919579 16.78125 27.439453 L 16.755859 26.894531 L 16.933594 22.988281 C 17.09521 19.439512 18.43287 17.469582 19.833984 16.40625 C 20.534541 15.874584 21.262139 15.573886 21.865234 15.445312 C 22.166782 15.381028 22.44065 15.369777 22.650391 15.380859 z M 22.207031 18.324219 C 22.186501 18.324219 22.169922 18.37512 22.169922 18.4375 L 22.169922 21.517578 L 20.826172 21.517578 C 20.385151 21.517578 20.009766 21.891001 20.009766 22.332031 L 20.009766 27.376953 C 20.009766 27.817981 20.385141 28.193359 20.826172 28.193359 L 26.669922 28.193359 C 27.110945 28.193359 27.486328 27.817984 27.486328 27.376953 L 27.486328 22.332031 C 27.486328 21.891008 27.110953 21.517578 26.669922 21.517578 L 24.449219 21.517578 L 24.449219 18.933594 C 24.449219 18.871216 24.432629 18.820312 24.412109 18.820312 L 23.794922 18.820312 C 23.774392 18.820312 23.757812 18.871214 23.757812 18.933594 L 23.757812 21.517578 L 22.861328 21.517578 L 22.861328 18.4375 C 22.861328 18.375122 22.844739 18.324219 22.824219 18.324219 L 22.207031 18.324219 z M 21.302734 22.810547 L 26.193359 22.810547 L 26.193359 26.900391 L 21.302734 26.900391 L 21.302734 22.810547 z "
       id="path3157-2-5-8" />
  </g>
</svg>
