<?xml version="1.0" encoding="UTF-8" standalone="no"?>
<!-- Created with Inkscape (http://www.inkscape.org/) -->

<svg
   xmlns:dc="http://purl.org/dc/elements/1.1/"
   xmlns:cc="http://creativecommons.org/ns#"
   xmlns:rdf="http://www.w3.org/1999/02/22-rdf-syntax-ns#"
   xmlns:svg="http://www.w3.org/2000/svg"
   xmlns="http://www.w3.org/2000/svg"
   xmlns:sodipodi="http://sodipodi.sourceforge.net/DTD/sodipodi-0.dtd"
   xmlns:inkscape="http://www.inkscape.org/namespaces/inkscape"
   width="32px"
   height="32px"
   id="svg3004"
   version="1.1"
   inkscape:version="0.91 r13725"
   sodipodi:docname="equalDimensionElements4.svg"
   inkscape:export-filename="/home/k00ni/Documents/ow_cubeviz/extensions/cubeviz/public/images/attributeAndMeasure.png"
   inkscape:export-xdpi="90"
   inkscape:export-ydpi="90">
  <defs
     id="defs3006" />
  <sodipodi:namedview
     id="base"
     pagecolor="#ffffff"
     bordercolor="#666666"
     borderopacity="1.0"
     inkscape:pageopacity="0.0"
     inkscape:pageshadow="2"
     inkscape:zoom="18.831895"
     inkscape:cx="13.35725"
     inkscape:cy="13.434259"
     inkscape:current-layer="layer1"
     showgrid="true"
     inkscape:grid-bbox="true"
     inkscape:document-units="px"
     showguides="true"
     inkscape:guide-bbox="true"
     inkscape:window-width="1920"
     inkscape:window-height="1056"
     inkscape:window-x="0"
     inkscape:window-y="24"
     inkscape:window-maximized="1" />
  <metadata
     id="metadata3009">
    <rdf:RDF>
      <cc:Work
         rdf:about="">
        <dc:format>image/svg+xml</dc:format>
        <dc:type
           rdf:resource="http://purl.org/dc/dcmitype/StillImage" />
        <dc:title />
      </cc:Work>
    </rdf:RDF>
  </metadata>
  <g
     id="layer1"
     inkscape:label="Layer 1"
     inkscape:groupmode="layer">
    <path
       style="fill:#2d2d2d;fill-opacity:1;stroke:none"
       d="M 26.503906 1.640625 L 21.003906 7.140625 L 23.044922 9.1816406 L 19.134766 13.125 C 18.217794 12.385377 17.066531 11.923828 15.800781 11.923828 C 14.534791 11.923828 13.385525 12.385124 12.470703 13.125 L 8.7773438 9.4609375 L 11 7.2382812 L 5.5 1.7382812 L 0 7.2382812 L 5.5 12.738281 L 7.7871094 10.451172 L 11.5 14.134766 C 10.861934 15.012979 10.474609 16.083409 10.474609 17.25 C 10.474609 20.187977 12.862804 22.587891 15.800781 22.587891 C 18.738758 22.587891 21.138672 20.187977 21.138672 17.25 C 21.138672 16.083488 20.749368 15.012947 20.109375 14.134766 L 24.037109 10.173828 L 26.503906 12.640625 L 32.003906 7.140625 L 26.503906 1.640625 z M 15.800781 13.03125 C 16.767626 13.03125 17.647057 13.366154 18.357422 13.910156 L 16.958984 15.320312 A 2.2596615 2.2596615 0 0 0 15.785156 14.988281 A 2.2596615 2.2596615 0 0 0 14.65625 15.292969 L 13.255859 13.904297 C 13.962888 13.36371 14.83729 13.03125 15.800781 13.03125 z M 12.291016 14.919922 L 13.720703 16.335938 A 2.2596615 2.2596615 0 0 0 13.525391 17.248047 A 2.2596615 2.2596615 0 0 0 15.785156 19.507812 A 2.2596615 2.2596615 0 0 0 18.044922 17.248047 A 2.2596615 2.2596615 0 0 0 17.875 16.388672 L 19.322266 14.929688 C 19.760862 15.595296 20.019531 16.39074 20.019531 17.25 C 20.019531 19.585558 18.136342 21.46875 15.800781 21.46875 C 13.465221 21.46875 11.591797 19.585558 11.591797 17.25 C 11.591797 16.387014 11.850734 15.587261 12.291016 14.919922 z "
       id="path3008-7-6-9" />
  </g>
</svg>
