<?xml version="1.0" encoding="UTF-8" standalone="no"?>
<!-- Created with Inkscape (http://www.inkscape.org/) -->

<svg
   xmlns:dc="http://purl.org/dc/elements/1.1/"
   xmlns:cc="http://creativecommons.org/ns#"
   xmlns:rdf="http://www.w3.org/1999/02/22-rdf-syntax-ns#"
   xmlns:svg="http://www.w3.org/2000/svg"
   xmlns="http://www.w3.org/2000/svg"
   xmlns:sodipodi="http://sodipodi.sourceforge.net/DTD/sodipodi-0.dtd"
   xmlns:inkscape="http://www.inkscape.org/namespaces/inkscape"
   width="32"
   height="32"
   id="svg2985"
   version="1.1"
   inkscape:version="0.91 r13725"
   sodipodi:docname="graph.svg">
  <defs
     id="defs2987" />
  <sodipodi:namedview
     id="base"
     pagecolor="#ffffff"
     bordercolor="#666666"
     borderopacity="1.0"
     inkscape:pageopacity="0.0"
     inkscape:pageshadow="2"
     inkscape:zoom="20.355211"
     inkscape:cx="14.515127"
     inkscape:cy="12.645211"
     inkscape:current-layer="layer1"
     showgrid="true"
     inkscape:grid-bbox="true"
     inkscape:document-units="px"
     inkscape:window-width="1920"
     inkscape:window-height="1056"
     inkscape:window-x="0"
     inkscape:window-y="24"
     inkscape:window-maximized="1" />
  <metadata
     id="metadata2990">
    <rdf:RDF>
      <cc:Work
         rdf:about="">
        <dc:format>image/svg+xml</dc:format>
        <dc:type
           rdf:resource="http://purl.org/dc/dcmitype/StillImage" />
        <dc:title />
      </cc:Work>
    </rdf:RDF>
  </metadata>
  <g
     id="layer1"
     inkscape:label="Layer 1"
     inkscape:groupmode="layer"
     transform="translate(0,16)">
    <path
       style="fill:#2d2d2d;fill-opacity:1;stroke:none"
       d="M 15.158203 0.18554688 C 6.8133454 0.18554688 0.033203095 7.0219971 0.033203125 15.435547 C 0.033203351 19.476188 1.6082355 23.142516 4.1582031 25.873047 A 4.2095124 4.2441636 0 0 0 3.7148438 27.753906 A 4.2095124 4.2441636 0 0 0 7.9238281 31.998047 A 4.2095124 4.2441636 0 0 0 11.373047 30.183594 C 12.58507 30.499802 13.849031 30.685547 15.158203 30.685547 C 17.21873 30.685547 19.181422 30.266163 20.972656 29.511719 A 5.5651182 5.6109285 0 0 0 25.576172 31.980469 A 5.5651182 5.6109285 0 0 0 31.140625 26.369141 A 5.5651182 5.6109285 0 0 0 28.863281 21.849609 C 29.765298 19.897064 30.283203 17.729025 30.283203 15.435547 C 30.283203 13.791915 30.015755 12.212549 29.537109 10.728516 A 4.2095124 4.2441636 0 0 0 31.996094 6.875 A 4.2095124 4.2441636 0 0 0 27.787109 2.6308594 A 4.2095124 4.2441636 0 0 0 24.902344 3.7871094 C 22.268347 1.543901 18.870867 0.18554643 15.158203 0.18554688 z M 15.158203 1.6035156 C 18.558866 1.6035152 21.661182 2.8545595 24.056641 4.9160156 A 4.2095124 4.2441636 0 0 0 23.578125 6.875 A 4.2095124 4.2441636 0 0 0 27.787109 11.119141 A 4.2095124 4.2441636 0 0 0 28.177734 11.095703 C 28.624749 12.461684 28.876953 13.917405 28.876953 15.435547 C 28.876953 17.481435 28.425386 19.41632 27.636719 21.162109 A 5.5651182 5.6109285 0 0 0 25.576172 20.757812 A 5.5651182 5.6109285 0 0 0 20.009766 26.369141 A 5.5651182 5.6109285 0 0 0 20.333984 28.238281 C 18.736054 28.894282 16.991753 29.263672 15.158203 29.263672 C 14.061731 29.263672 13.000107 29.121128 11.978516 28.876953 A 4.2095124 4.2441636 0 0 0 12.132812 27.753906 A 4.2095124 4.2441636 0 0 0 7.9238281 23.509766 A 4.2095124 4.2441636 0 0 0 4.9960938 24.705078 C 2.7946807 22.252815 1.4433596 19.009675 1.4433594 15.435547 C 1.4433593 7.7894151 7.5744979 1.6035156 15.158203 1.6035156 z M 13.660156 4.140625 A 8.7044153 8.7760673 0 0 0 4.9550781 12.917969 A 8.7044153 8.7760673 0 0 0 13.660156 21.693359 A 8.7044153 8.7760673 0 0 0 22.365234 12.917969 A 8.7044153 8.7760673 0 0 0 13.660156 4.140625 z "
       transform="translate(0,-16)"
       id="path3012" />
  </g>
</svg>
