<?xml version="1.0" encoding="UTF-8" standalone="no"?>
<!-- Created with Inkscape (http://www.inkscape.org/) -->

<svg
   xmlns:dc="http://purl.org/dc/elements/1.1/"
   xmlns:cc="http://creativecommons.org/ns#"
   xmlns:rdf="http://www.w3.org/1999/02/22-rdf-syntax-ns#"
   xmlns:svg="http://www.w3.org/2000/svg"
   xmlns="http://www.w3.org/2000/svg"
   xmlns:sodipodi="http://sodipodi.sourceforge.net/DTD/sodipodi-0.dtd"
   xmlns:inkscape="http://www.inkscape.org/namespaces/inkscape"
   width="32"
   height="32"
   id="svg2985"
   version="1.1"
   inkscape:version="0.48.3.1 r9886"
   sodipodi:docname="graph_dots2.svg">
  <defs
     id="defs2987" />
  <sodipodi:namedview
     id="base"
     pagecolor="#ffffff"
     bordercolor="#666666"
     borderopacity="1.0"
     inkscape:pageopacity="0.0"
     inkscape:pageshadow="2"
     inkscape:zoom="15.696216"
     inkscape:cx="-0.55490217"
     inkscape:cy="9.895912"
     inkscape:current-layer="layer1"
     showgrid="true"
     inkscape:grid-bbox="true"
     inkscape:document-units="px"
     inkscape:window-width="1920"
     inkscape:window-height="1056"
     inkscape:window-x="0"
     inkscape:window-y="24"
     inkscape:window-maximized="1" />
  <metadata
     id="metadata2990">
    <rdf:RDF>
      <cc:Work
         rdf:about="">
        <dc:format>image/svg+xml</dc:format>
        <dc:type
           rdf:resource="http://purl.org/dc/dcmitype/StillImage" />
        <dc:title />
      </cc:Work>
    </rdf:RDF>
  </metadata>
  <g
     id="layer1"
     inkscape:label="Layer 1"
     inkscape:groupmode="layer"
     transform="translate(0,16)">
    <path
       sodipodi:type="arc"
       style="fill:#2d2d2d;fill-opacity:1;stroke:none"
       id="path3012-9-6-0"
       sodipodi:cx="4.1729803"
       sodipodi:cy="6.1568637"
       sodipodi:rx="1.3697568"
       sodipodi:ry="1.3697568"
       d="m 5.5427371,6.1568637 a 1.3697568,1.3697568 0 1 1 -2.7395136,0 1.3697568,1.3697568 0 1 1 2.7395136,0 z"
       transform="matrix(3.7004654,0,0,3.7004654,11.24854,-28.517161)" />
    <path
       sodipodi:type="arc"
       style="fill:#2d2d2d;fill-opacity:1;stroke:none"
       id="path3012-9-6-0-9-4-1-0-2-7"
       sodipodi:cx="4.1729803"
       sodipodi:cy="6.1568637"
       sodipodi:rx="1.3697568"
       sodipodi:ry="1.3697568"
       d="m 5.5427371,6.1568637 a 1.3697568,1.3697568 0 1 1 -2.7395136,0 1.3697568,1.3697568 0 1 1 2.7395136,0 z"
       transform="matrix(3.0362793,0,0,3.0362793,6.3393434,-30.444595)" />
    <path
       sodipodi:type="arc"
       style="fill:#2d2d2d;fill-opacity:1;stroke:none"
       id="path3012-9-6-0-9-4-1-0-2-7-5"
       sodipodi:cx="4.1729803"
       sodipodi:cy="6.1568637"
       sodipodi:rx="1.3697568"
       sodipodi:ry="1.3697568"
       d="m 5.5427371,6.1568637 a 1.3697568,1.3697568 0 1 1 -2.7395136,0 1.3697568,1.3697568 0 1 1 2.7395136,0 z"
       transform="matrix(3.0362793,0,0,3.0362793,-3.5088902,-6.7892124)" />
    <path
       sodipodi:type="arc"
       style="fill:#2d2d2d;fill-opacity:1;stroke:none"
       id="path3012-9-6-0-9-4-1-0-2-7-8-9"
       sodipodi:cx="4.1729803"
       sodipodi:cy="6.1568637"
       sodipodi:rx="1.3697568"
       sodipodi:ry="1.3697568"
       d="m 5.5427371,6.1568637 a 1.3697568,1.3697568 0 1 1 -2.7395136,0 1.3697568,1.3697568 0 1 1 2.7395136,0 z"
       transform="matrix(3.0362793,0,0,3.0362793,4.4191352,-21.801748)" />
    <path
       sodipodi:type="arc"
       style="fill:#2d2d2d;fill-opacity:1;stroke:none"
       id="path3012-9-6-0-9-4-1-0-2-7-5-1"
       sodipodi:cx="4.1729803"
       sodipodi:cy="6.1568637"
       sodipodi:rx="1.3697568"
       sodipodi:ry="1.3697568"
       d="m 5.5427371,6.1568637 a 1.3697568,1.3697568 0 1 1 -2.7395136,0 1.3697568,1.3697568 0 1 1 2.7395136,0 z"
       transform="matrix(3.0362793,0,0,3.0362793,5.1989409,-8.5450496)" />
    <path
       sodipodi:type="arc"
       style="fill:#2d2d2d;fill-opacity:1;stroke:none"
       id="path3012-9-6-0-9-4-1-0-2-7-5-6"
       sodipodi:cx="4.1729803"
       sodipodi:cy="6.1568637"
       sodipodi:rx="1.3697568"
       sodipodi:ry="1.3697568"
       d="m 5.5427371,6.1568637 a 1.3697568,1.3697568 0 1 1 -2.7395136,0 1.3697568,1.3697568 0 1 1 2.7395136,0 z"
       transform="matrix(3.0362793,0,0,3.0362793,10.397646,-15.433334)" />
    <path
       sodipodi:type="arc"
       style="fill:#2d2d2d;fill-opacity:1;stroke:none"
       id="path3012-9-6-0-9-4-1-0-2-7-5-6-0"
       sodipodi:cx="4.1729803"
       sodipodi:cy="6.1568637"
       sodipodi:rx="1.3697568"
       sodipodi:ry="1.3697568"
       d="m 5.5427371,6.1568637 a 1.3697568,1.3697568 0 1 1 -2.7395136,0 1.3697568,1.3697568 0 1 1 2.7395136,0 z"
       transform="matrix(2.3246514,0,0,2.3246514,-6.4528079,-7.4778277)" />
    <path
       sodipodi:type="arc"
       style="fill:#2d2d2d;fill-opacity:1;stroke:none"
       id="path3012-9-6-0-9-4-1-0-2-7-5-6-0-6"
       sodipodi:cx="4.1729803"
       sodipodi:cy="6.1568637"
       sodipodi:rx="1.3697568"
       sodipodi:ry="1.3697568"
       d="m 5.5427371,6.1568637 a 1.3697568,1.3697568 0 1 1 -2.7395136,0 1.3697568,1.3697568 0 1 1 2.7395136,0 z"
       transform="matrix(2.3246514,0,0,2.3246514,4.1395536,-10.532067)" />
    <path
       sodipodi:type="arc"
       style="fill:#2d2d2d;fill-opacity:1;stroke:none"
       id="path3012-9-6-0-9-4-1-0-2-7-5-6-0-4"
       sodipodi:cx="4.1729803"
       sodipodi:cy="6.1568637"
       sodipodi:rx="1.3697568"
       sodipodi:ry="1.3697568"
       d="m 5.5427371,6.1568637 a 1.3697568,1.3697568 0 1 1 -2.7395136,0 1.3697568,1.3697568 0 1 1 2.7395136,0 z"
       transform="matrix(2.3246514,0,0,2.3246514,0.89036302,-22.489089)" />
  </g>
</svg>
