<?xml version="1.0" encoding="UTF-8" standalone="no"?>
<!-- Created with Inkscape (http://www.inkscape.org/) -->

<svg
   xmlns:dc="http://purl.org/dc/elements/1.1/"
   xmlns:cc="http://creativecommons.org/ns#"
   xmlns:rdf="http://www.w3.org/1999/02/22-rdf-syntax-ns#"
   xmlns:svg="http://www.w3.org/2000/svg"
   xmlns="http://www.w3.org/2000/svg"
   xmlns:sodipodi="http://sodipodi.sourceforge.net/DTD/sodipodi-0.dtd"
   xmlns:inkscape="http://www.inkscape.org/namespaces/inkscape"
   width="32"
   height="32"
   id="svg3765"
   version="1.1"
   inkscape:version="0.91 r13725"
   sodipodi:docname="import_triple.svg"
   inkscape:export-filename="/home/k00ni/Documents/semicon/owl.png"
   inkscape:export-xdpi="90"
   inkscape:export-ydpi="90">
  <defs
     id="defs3767" />
  <sodipodi:namedview
     id="base"
     pagecolor="#ffffff"
     bordercolor="#666666"
     borderopacity="1.0"
     inkscape:pageopacity="0.0"
     inkscape:pageshadow="2"
     inkscape:zoom="16.64847"
     inkscape:cx="10.225338"
     inkscape:cy="10.123658"
     inkscape:current-layer="layer1-9-3"
     showgrid="true"
     inkscape:grid-bbox="true"
     inkscape:document-units="px"
     inkscape:window-width="1920"
     inkscape:window-height="1056"
     inkscape:window-x="0"
     inkscape:window-y="24"
     inkscape:window-maximized="1"
     showguides="true"
     inkscape:guide-bbox="true" />
  <metadata
     id="metadata3770">
    <rdf:RDF>
      <cc:Work
         rdf:about="">
        <dc:format>image/svg+xml</dc:format>
        <dc:type
           rdf:resource="http://purl.org/dc/dcmitype/StillImage" />
        <dc:title />
      </cc:Work>
    </rdf:RDF>
  </metadata>
  <g
     id="layer1"
     inkscape:label="Layer 1"
     inkscape:groupmode="layer"
     transform="translate(0,-16)">
    <g
       inkscape:label="Layer 1"
       id="layer1-4"
       transform="translate(0.20202972,-1.9622142e-8)">
      <g
         transform="translate(-0.37059768,-0.09089584)"
         id="layer1-9"
         inkscape:label="Layer 1">
        <g
           inkscape:label="Layer 1"
           id="layer1-9-3"
           transform="translate(-44.951788,-4.1416259)">
          <path
             inkscape:connector-curvature="0"
             id="path4169"
             d="m 71.829261,21.561759 c -0.651555,-0.39628 -1.393852,-0.619546 -2.158689,-0.649287 -2.024922,-0.07688 -3.877898,1.201991 -4.551189,3.141115 l -5.150564,-0.0012 c -0.377837,-2.094252 -2.135516,-3.631552 -4.248507,-3.715872 -2.520601,-0.09777 -4.673045,1.885333 -4.807701,4.429465 -0.08838,1.701495 0.759635,3.299606 2.205559,4.156477 -0.0076,0.02647 -0.01996,0.04679 -0.02719,0.0736 l -3.076027,11.48375 c -0.01532,0.05718 -0.01558,0.108029 -0.02869,0.164587 -2.507273,-0.07751 -4.637592,1.899943 -4.772072,4.429623 -0.134784,2.543451 1.798165,4.685074 4.318024,4.784183 2.520913,0.09889 4.674375,-1.883877 4.809613,-4.42836 0.09192,-1.781777 -0.84236,-3.441954 -2.399124,-4.26313 0.0168,-0.05517 0.04168,-0.09919 0.05688,-0.155965 l 3.07654,-11.475801 c 0.05241,0.0058 0.104929,0.01052 0.157522,0.01441 2.139908,0.08151 4.070845,-1.348478 4.644333,-3.439434 l 5.009156,-0.0012 c 0.252515,2.232 2.068755,3.92985 4.296776,4.016695 2.5206,0.09777 4.673043,-1.885333 4.8077,-4.429464 0.08874,-1.68446 -0.740464,-3.269761 -2.162356,-4.134086 z"
             style="fill:#2d2d2d;fill-opacity:1;stroke:none;stroke-width:0.70365894;stroke-linecap:round;stroke-linejoin:round;stroke-miterlimit:4;stroke-dasharray:none;stroke-opacity:1" />
          <path
             inkscape:connector-curvature="0"
             id="path3015-0-2-2-9"
             d="m 65.711214,40.984188 0,8.170343 3.404903,-3.404903 5.601232,5.603607 c 0.7713,0.771299 1.74215,1.043032 2.17496,0.610222 0.432808,-0.432808 0.158702,-1.401284 -0.612597,-2.172584 l -5.601232,-5.603606 3.203077,-3.203079 z"
             style="fill:#2d2d2d;fill-opacity:1;stroke:none;stroke-width:0.70365894;stroke-linecap:round;stroke-linejoin:round;stroke-miterlimit:4;stroke-dasharray:none;stroke-opacity:1" />
        </g>
      </g>
    </g>
  </g>
</svg>
