<?xml version="1.0" encoding="UTF-8" standalone="no"?>
<!-- Created with Inkscape (http://www.inkscape.org/) -->

<svg
   xmlns:dc="http://purl.org/dc/elements/1.1/"
   xmlns:cc="http://creativecommons.org/ns#"
   xmlns:rdf="http://www.w3.org/1999/02/22-rdf-syntax-ns#"
   xmlns:svg="http://www.w3.org/2000/svg"
   xmlns="http://www.w3.org/2000/svg"
   xmlns:sodipodi="http://sodipodi.sourceforge.net/DTD/sodipodi-0.dtd"
   xmlns:inkscape="http://www.inkscape.org/namespaces/inkscape"
   width="32"
   height="32"
   id="svg3765"
   version="1.1"
   inkscape:version="0.91 r13725"
   sodipodi:docname="infer4.svg"
   inkscape:export-filename="/home/k00ni/Documents/semicon/owl.png"
   inkscape:export-xdpi="90"
   inkscape:export-ydpi="90">
  <defs
     id="defs3767" />
  <sodipodi:namedview
     id="base"
     pagecolor="#ffffff"
     bordercolor="#666666"
     borderopacity="1.0"
     inkscape:pageopacity="0.0"
     inkscape:pageshadow="2"
     inkscape:zoom="12.837891"
     inkscape:cx="8.7884807"
     inkscape:cy="16.322165"
     inkscape:current-layer="layer1-9-3"
     showgrid="true"
     inkscape:grid-bbox="true"
     inkscape:document-units="px"
     inkscape:window-width="1920"
     inkscape:window-height="1056"
     inkscape:window-x="0"
     inkscape:window-y="24"
     inkscape:window-maximized="1"
     showguides="true"
     inkscape:guide-bbox="true" />
  <metadata
     id="metadata3770">
    <rdf:RDF>
      <cc:Work
         rdf:about="">
        <dc:format>image/svg+xml</dc:format>
        <dc:type
           rdf:resource="http://purl.org/dc/dcmitype/StillImage" />
        <dc:title />
      </cc:Work>
    </rdf:RDF>
  </metadata>
  <g
     id="layer1"
     inkscape:label="Layer 1"
     inkscape:groupmode="layer"
     transform="translate(0,-16)">
    <g
       inkscape:label="Layer 1"
       id="layer1-4"
       transform="translate(0.20202972,-1.9622142e-8)">
      <g
         transform="translate(-0.37059768,-0.09089584)"
         id="layer1-9"
         inkscape:label="Layer 1">
        <g
           inkscape:label="Layer 1"
           id="layer1-9-3"
           transform="translate(-44.951788,-4.1416259)">
          <path
             style="fill:#2d2d2d;fill-opacity:1;stroke:none"
             d="M 20.087891 3.5703125 A 11.950194 11.950194 0 0 0 8.1386719 15.521484 A 11.950194 11.950194 0 0 0 20.087891 27.470703 A 11.950194 11.950194 0 0 0 32.039062 15.521484 A 11.950194 11.950194 0 0 0 20.087891 3.5703125 z M 12.558594 9.7519531 L 16.529297 9.7519531 L 16.529297 13.798828 L 12.558594 13.798828 L 12.558594 9.7519531 z M 23.759766 9.7519531 L 27.730469 9.7519531 L 27.730469 13.798828 L 23.759766 13.798828 L 23.759766 9.7519531 z M 13.882812 18.248047 C 15.258165 21.33268 17.25158 22.338178 20.316406 22.330078 C 21.878983 22.325933 23.067331 22.056773 24.009766 21.453125 C 24.952202 20.849477 25.704917 19.886567 26.322266 18.310547 L 27.728516 18.861328 C 27.032883 20.637199 26.081819 21.919093 24.824219 22.724609 C 23.56662 23.530126 22.05766 23.835244 20.322266 23.839844 C 16.872579 23.848952 14.070506 22.376844 12.503906 18.863281 L 13.882812 18.248047 z "
             transform="translate(45.120356,20.232522)"
             id="path4010" />
          <path
             transform="scale(-1,-1)"
             style="fill:#2d2d2d;fill-opacity:1;stroke:none"
             d="m -50.775215,-47.393753 5.431906,0 0,17.071703 -5.431906,0 z"
             id="rect4012" />
          <path
             transform="scale(-1,-1)"
             style="fill:#2d2d2d;fill-opacity:1;stroke:none"
             d="m -50.775204,-28.149286 5.354307,0 0,4.267924 -5.354307,0 z"
             id="rect4012-1" />
        </g>
      </g>
    </g>
  </g>
</svg>
