<?xml version="1.0" encoding="UTF-8" standalone="no"?>
<!-- Created with Inkscape (http://www.inkscape.org/) -->

<svg
   xmlns:dc="http://purl.org/dc/elements/1.1/"
   xmlns:cc="http://creativecommons.org/ns#"
   xmlns:rdf="http://www.w3.org/1999/02/22-rdf-syntax-ns#"
   xmlns:svg="http://www.w3.org/2000/svg"
   xmlns="http://www.w3.org/2000/svg"
   xmlns:sodipodi="http://sodipodi.sourceforge.net/DTD/sodipodi-0.dtd"
   xmlns:inkscape="http://www.inkscape.org/namespaces/inkscape"
   width="32"
   height="32"
   id="svg2985"
   version="1.1"
   inkscape:version="0.91 r13725"
   sodipodi:docname="instance.svg">
  <defs
     id="defs2987" />
  <sodipodi:namedview
     id="base"
     pagecolor="#ffffff"
     bordercolor="#666666"
     borderopacity="1.0"
     inkscape:pageopacity="0.0"
     inkscape:pageshadow="2"
     inkscape:zoom="28.786615"
     inkscape:cx="19.842059"
     inkscape:cy="12.020732"
     inkscape:current-layer="layer1"
     showgrid="true"
     inkscape:grid-bbox="true"
     inkscape:document-units="px"
     inkscape:window-width="1920"
     inkscape:window-height="1056"
     inkscape:window-x="0"
     inkscape:window-y="24"
     inkscape:window-maximized="1"
     showguides="false"
     inkscape:guide-bbox="true" />
  <metadata
     id="metadata2990">
    <rdf:RDF>
      <cc:Work
         rdf:about="">
        <dc:format>image/svg+xml</dc:format>
        <dc:type
           rdf:resource="http://purl.org/dc/dcmitype/StillImage" />
        <dc:title />
      </cc:Work>
    </rdf:RDF>
  </metadata>
  <g
     id="layer1"
     inkscape:label="Layer 1"
     inkscape:groupmode="layer"
     transform="translate(0,16)">
    <path
       style="fill:#2d2d2d;fill-opacity:1;stroke:none"
       d="M 8.1777344 0.005859375 C 6.8792396 0.005859375 5.7846092 0.60995298 5.3476562 1.4609375 C 5.1839727 1.7403753 5.0820313 2.0616272 5.0820312 2.4101562 L 5.0820312 7.1425781 C 5.0820312 8.1862684 5.9231066 9.0253906 6.9667969 9.0253906 L 7.7324219 9.0253906 C 8.7761122 9.0253906 9.6152344 8.1862684 9.6152344 7.1425781 L 9.6152344 4.5390625 L 14.519531 4.5390625 L 14.519531 9.8144531 C 13.971488 10.088347 13.408961 10.442095 12.859375 10.876953 L 9.71875 13.361328 C 9.3036454 12.923991 8.9475599 12.700716 8.6992188 12.837891 L 1.3808594 16.880859 C -0.10239271 17.700152 0.07813943 19.315343 0.09375 21.009766 L 0.17773438 30.261719 C 0.18533247 31.090198 2.0143846 31.551777 4.0078125 31.710938 C 4.965481 31.869831 6.0355146 31.96875 7.1894531 31.96875 L 24.767578 31.96875 C 27.321403 31.96875 29.526112 31.525431 30.748047 30.867188 C 31.438174 30.628038 31.890783 30.309131 31.894531 29.900391 L 31.966797 21.966797 C 31.966321 21.955408 31.967477 21.94507 31.966797 21.933594 L 31.978516 20.650391 C 31.994233 18.955965 32.202144 17.286946 30.691406 16.519531 L 23.591797 12.912109 C 23.396988 12.813151 23.151417 12.913194 22.873047 13.15625 L 20.203125 11.091797 C 19.754331 10.744626 19.295713 10.46225 18.84375 10.226562 C 18.851193 10.13346 18.865234 10.042938 18.865234 9.9472656 L 18.865234 3.03125 C 18.865234 2.9790651 18.855755 2.9303578 18.853516 2.8789062 L 18.853516 2.1992188 L 18.841797 2.1992188 C 18.789646 0.97816233 17.463028 0.005859375 15.8125 0.005859375 L 8.1777344 0.005859375 z M 16.429688 13.767578 C 16.730936 14.081346 17.058609 14.389612 17.433594 14.679688 L 20.412109 16.984375 C 18.852939 20.000288 17.30201 23.695749 16.894531 24.542969 L 16.341797 25.691406 L 15.958984 25.691406 L 15.759766 24.902344 C 15.533399 24.004773 13.887822 20.271063 12.201172 17.175781 L 15.671875 14.431641 C 15.943245 14.216921 16.194808 13.994548 16.429688 13.767578 z M 21.818359 24.394531 L 29.074219 24.394531 C 29.315452 24.394531 29.509766 24.588845 29.509766 24.830078 C 29.509766 25.071311 29.315452 25.265625 29.074219 25.265625 L 21.818359 25.265625 C 21.577125 25.265625 21.382813 25.071311 21.382812 24.830078 C 21.382812 24.588845 21.577125 24.394531 21.818359 24.394531 z M 16.375 27.732422 A 1.4514644 1.4514644 0 0 1 17.826172 29.183594 A 1.4514644 1.4514644 0 0 1 16.375 30.634766 A 1.4514644 1.4514644 0 0 1 14.923828 29.183594 A 1.4514644 1.4514644 0 0 1 16.375 27.732422 z "
       transform="translate(0,-16)"
       id="rect2985" />
  </g>
</svg>
