<?xml version="1.0" encoding="UTF-8" standalone="no"?>
<!-- Created with Inkscape (http://www.inkscape.org/) -->

<svg
   xmlns:dc="http://purl.org/dc/elements/1.1/"
   xmlns:cc="http://creativecommons.org/ns#"
   xmlns:rdf="http://www.w3.org/1999/02/22-rdf-syntax-ns#"
   xmlns:svg="http://www.w3.org/2000/svg"
   xmlns="http://www.w3.org/2000/svg"
   xmlns:sodipodi="http://sodipodi.sourceforge.net/DTD/sodipodi-0.dtd"
   xmlns:inkscape="http://www.inkscape.org/namespaces/inkscape"
   width="32"
   height="32"
   id="svg3765"
   version="1.1"
   inkscape:version="0.91 r13725"
   sodipodi:docname="interlink_local_and_outside_world3.svg"
   inkscape:export-filename="/home/k00ni/Documents/semicon/owl.png"
   inkscape:export-xdpi="90"
   inkscape:export-ydpi="90">
  <defs
     id="defs3767" />
  <sodipodi:namedview
     id="base"
     pagecolor="#ffffff"
     bordercolor="#666666"
     borderopacity="1.0"
     inkscape:pageopacity="0.0"
     inkscape:pageshadow="2"
     inkscape:zoom="18.155519"
     inkscape:cx="6.0273147"
     inkscape:cy="14.775689"
     inkscape:current-layer="layer1-4"
     showgrid="true"
     inkscape:grid-bbox="true"
     inkscape:document-units="px"
     inkscape:window-width="1920"
     inkscape:window-height="1056"
     inkscape:window-x="0"
     inkscape:window-y="24"
     inkscape:window-maximized="1"
     showguides="true"
     inkscape:guide-bbox="true" />
  <metadata
     id="metadata3770">
    <rdf:RDF>
      <cc:Work
         rdf:about="">
        <dc:format>image/svg+xml</dc:format>
        <dc:type
           rdf:resource="http://purl.org/dc/dcmitype/StillImage" />
        <dc:title />
      </cc:Work>
    </rdf:RDF>
  </metadata>
  <g
     id="layer1"
     inkscape:label="Layer 1"
     inkscape:groupmode="layer"
     transform="translate(0,-16)">
    <g
       inkscape:label="Layer 1"
       id="layer1-4"
       transform="translate(0.20202972,-1.9622142e-8)">
      <path
         style="color:#000000;font-style:normal;font-variant:normal;font-weight:normal;font-stretch:normal;font-size:medium;line-height:normal;font-family:sans-serif;text-indent:0;text-align:start;text-decoration:none;text-decoration-line:none;text-decoration-style:solid;text-decoration-color:#000000;letter-spacing:normal;word-spacing:normal;text-transform:none;direction:ltr;block-progression:tb;writing-mode:lr-tb;baseline-shift:baseline;text-anchor:start;white-space:normal;clip-rule:nonzero;display:inline;overflow:visible;visibility:visible;opacity:1;isolation:auto;mix-blend-mode:normal;color-interpolation:sRGB;color-interpolation-filters:linearRGB;solid-color:#000000;solid-opacity:1;fill:#2d2d2d;fill-opacity:1;fill-rule:nonzero;stroke:none;stroke-width:1.29793668;stroke-linecap:butt;stroke-linejoin:miter;stroke-miterlimit:4;stroke-dasharray:none;stroke-dashoffset:0;stroke-opacity:1;color-rendering:auto;image-rendering:auto;shape-rendering:auto;text-rendering:auto;enable-background:accumulate"
         d="M 23.535156 0.1953125 L 22.314453 0.88671875 C 23.604729 3.1600968 23.776939 5.4769221 22.720703 7.4863281 C 21.664468 9.4957341 19.307587 11.275073 15.269531 12.224609 C 14.826123 12.328875 14.387345 12.407801 13.949219 12.474609 L 11.472656 9.1914062 C 12.254772 8.3660906 12.742188 7.2588615 12.742188 6.0371094 C 12.742188 3.5040394 10.675647 1.4375 8.1425781 1.4375 C 5.609508 1.4375 3.5429688 3.5040394 3.5429688 6.0371094 C 3.5429688 8.5701794 5.6095078 10.638672 8.1425781 10.638672 C 8.8635474 10.638672 9.5379215 10.456205 10.146484 10.158203 L 12.029297 12.652344 C 7.5331007 12.7718 3.5549256 10.805686 1.3007812 6.7128906 L 0.072265625 7.3886719 C 2.7392644 12.231077 7.7101676 14.418819 13.035156 13.986328 L 17.626953 20.070312 C 14.201459 20.794005 11.657588 22.188011 10.021484 24.023438 C 8.0710307 26.211511 7.4432956 29.009421 8.0859375 31.769531 L 9.3515625 31.476562 C 8.7929578 29.077388 9.307929 26.773977 10.990234 24.886719 C 12.487914 23.206581 14.958626 21.856154 18.494141 21.216797 L 21.052734 24.607422 C 20.536273 25.280733 20.216797 26.110963 20.216797 27.021484 C 20.216797 29.22151 22.012865 31.017578 24.212891 31.017578 C 26.412919 31.017578 28.207031 29.221512 28.207031 27.021484 C 28.207031 24.821458 26.412917 23.027344 24.212891 23.027344 C 23.517457 23.027344 22.871423 23.222244 22.300781 23.537109 L 20.363281 20.970703 C 25.563374 20.600081 29.642134 24.137823 30.78125 29.328125 L 32.048828 29.048828 C 30.752829 23.143698 25.78742 18.987108 19.6875 19.720703 C 19.604455 19.73069 19.529442 19.747122 19.447266 19.757812 L 14.896484 13.726562 C 15.128485 13.681686 15.359466 13.642523 15.591797 13.587891 C 19.892792 12.576524 22.66442 10.605195 23.960938 8.1386719 C 25.257455 5.6721489 25.006817 2.7882775 23.535156 0.1953125 z M 17.861328 2.1054688 A 3.2161292 3.2161292 0 0 0 14.644531 5.3203125 A 3.2161292 3.2161292 0 0 0 17.861328 8.5371094 A 3.2161292 3.2161292 0 0 0 21.078125 5.3203125 A 3.2161292 3.2161292 0 0 0 17.861328 2.1054688 z M 8.1425781 2.8066406 C 9.9364308 2.8066406 11.378906 4.2432584 11.378906 6.0371094 C 11.378906 7.8309614 9.9364308 9.2734375 8.1425781 9.2734375 C 6.348727 9.2734375 4.9121094 7.8309614 4.9121094 6.0371094 C 4.9121094 4.2432584 6.348727 2.8066406 8.1425781 2.8066406 z M 24.212891 24.216797 C 25.770891 24.216797 27.023437 25.463486 27.023438 27.021484 C 27.023438 28.579483 25.770891 29.832031 24.212891 29.832031 C 22.654892 29.832031 21.40625 28.579483 21.40625 27.021484 C 21.40625 25.463486 22.654892 24.216797 24.212891 24.216797 z M 14.232422 25.09375 A 3.2161292 3.2161292 0 0 0 11.015625 28.308594 A 3.2161292 3.2161292 0 0 0 14.232422 31.525391 A 3.2161292 3.2161292 0 0 0 17.447266 28.308594 A 3.2161292 3.2161292 0 0 0 14.232422 25.09375 z "
         transform="translate(-0.20202972,16)"
         id="path5236" />
    </g>
  </g>
</svg>
