<?xml version="1.0" encoding="UTF-8" standalone="no"?>
<!-- Created with Inkscape (http://www.inkscape.org/) -->

<svg
   xmlns:dc="http://purl.org/dc/elements/1.1/"
   xmlns:cc="http://creativecommons.org/ns#"
   xmlns:rdf="http://www.w3.org/1999/02/22-rdf-syntax-ns#"
   xmlns:svg="http://www.w3.org/2000/svg"
   xmlns="http://www.w3.org/2000/svg"
   xmlns:sodipodi="http://sodipodi.sourceforge.net/DTD/sodipodi-0.dtd"
   xmlns:inkscape="http://www.inkscape.org/namespaces/inkscape"
   width="32"
   height="32"
   id="svg3765"
   version="1.1"
   inkscape:version="0.48.3.1 r9886"
   sodipodi:docname="interlinkLocalAndOutsideWorld3.svg"
   inkscape:export-filename="/home/k00ni/Documents/semicon/owl.png"
   inkscape:export-xdpi="90"
   inkscape:export-ydpi="90">
  <defs
     id="defs3767" />
  <sodipodi:namedview
     id="base"
     pagecolor="#ffffff"
     bordercolor="#666666"
     borderopacity="1.0"
     inkscape:pageopacity="0.0"
     inkscape:pageshadow="2"
     inkscape:zoom="14"
     inkscape:cx="15.525174"
     inkscape:cy="9.6487869"
     inkscape:current-layer="layer1-4"
     showgrid="true"
     inkscape:grid-bbox="true"
     inkscape:document-units="px"
     inkscape:window-width="1920"
     inkscape:window-height="1056"
     inkscape:window-x="0"
     inkscape:window-y="24"
     inkscape:window-maximized="1"
     showguides="true"
     inkscape:guide-bbox="true" />
  <metadata
     id="metadata3770">
    <rdf:RDF>
      <cc:Work
         rdf:about="">
        <dc:format>image/svg+xml</dc:format>
        <dc:type
           rdf:resource="http://purl.org/dc/dcmitype/StillImage" />
        <dc:title />
      </cc:Work>
    </rdf:RDF>
  </metadata>
  <g
     id="layer1"
     inkscape:label="Layer 1"
     inkscape:groupmode="layer"
     transform="translate(0,-16)">
    <g
       inkscape:label="Layer 1"
       id="layer1-4"
       transform="translate(0.20202972,-1.9622142e-8)">
      <path
         style="fill:none;stroke:#2d2d2d;stroke-width:1.29793668;stroke-linecap:butt;stroke-linejoin:miter;stroke-miterlimit:4;stroke-opacity:1;stroke-dasharray:none"
         d="M 8.5175784,47.622911 C 7.3163318,42.463625 10.800753,37.419565 19.564196,36.365645 c 5.77424,-0.694428 10.413733,3.188895 11.650254,8.823018"
         id="path5236"
         inkscape:connector-curvature="0"
         sodipodi:nodetypes="csc" />
      <path
         sodipodi:type="arc"
         style="fill:none;stroke:#2d2d2d;stroke-width:0.47387645;stroke-miterlimit:4;stroke-opacity:1;stroke-dasharray:none"
         id="path5228-2-3"
         sodipodi:cx="9.7857141"
         sodipodi:cy="9.2857141"
         sodipodi:rx="1.3571428"
         sodipodi:ry="1.3571428"
         d="m 11.142857,9.2857141 a 1.3571428,1.3571428 0 1 1 -2.7142857,0 1.3571428,1.3571428 0 1 1 2.7142857,0 z"
         transform="matrix(2.8864261,0,0,2.8864261,-20.3033,-4.7631399)" />
      <rect
         style="fill:none;stroke:#2d2d2d;stroke-width:1.54986048;stroke-linecap:round;stroke-linejoin:round;stroke-miterlimit:4;stroke-opacity:1;stroke-dasharray:none"
         id="rect5300-4"
         width="0.098389402"
         height="18.616842"
         x="-7.0827537"
         y="27.113331"
         transform="matrix(0.85087061,-0.5253753,0.6024634,0.79814651,0,0)" />
      <path
         style="fill:none;stroke:#2d2d2d;stroke-width:1.40168703;stroke-linecap:butt;stroke-linejoin:miter;stroke-miterlimit:4;stroke-opacity:1;stroke-dasharray:none"
         d="M 22.723754,16.540771 C 25.48569,21.407114 23.568741,26.945349 15.22969,28.906252 9.2205556,30.319282 3.4225864,28.384314 0.48507373,23.050743"
         id="path5236-5"
         inkscape:connector-curvature="0"
         sodipodi:nodetypes="csc" />
      <path
         sodipodi:type="arc"
         style="fill:#2d2d2d;fill-opacity:1;stroke:none"
         id="path5228-8"
         sodipodi:cx="9.7857141"
         sodipodi:cy="9.2857141"
         sodipodi:rx="1.3571428"
         sodipodi:ry="1.3571428"
         d="m 11.142857,9.2857141 a 1.3571428,1.3571428 0 1 1 -2.7142857,0 1.3571428,1.3571428 0 1 1 2.7142857,0 z"
         transform="matrix(2.3697795,0,0,2.3697795,-9.1601552,22.304298)" />
      <path
         sodipodi:type="arc"
         style="fill:none;stroke:#2d2d2d;stroke-width:0.47387645;stroke-miterlimit:4;stroke-opacity:1;stroke-dasharray:none"
         id="path5228-2-3-6"
         sodipodi:cx="9.7857141"
         sodipodi:cy="9.2857141"
         sodipodi:rx="1.3571428"
         sodipodi:ry="1.3571428"
         d="m 11.142857,9.2857141 a 1.3571428,1.3571428 0 1 1 -2.7142857,0 1.3571428,1.3571428 0 1 1 2.7142857,0 z"
         transform="matrix(2.5069236,0,0,2.5069236,-0.52040698,19.745279)" />
      <path
         sodipodi:type="arc"
         style="fill:#2d2d2d;fill-opacity:1;stroke:none"
         id="path5228-8-8"
         sodipodi:cx="9.7857141"
         sodipodi:cy="9.2857141"
         sodipodi:rx="1.3571428"
         sodipodi:ry="1.3571428"
         d="m 11.142857,9.2857141 a 1.3571428,1.3571428 0 1 1 -2.7142857,0 1.3571428,1.3571428 0 1 1 2.7142857,0 z"
         transform="matrix(2.3697795,0,0,2.3697795,-5.5304099,-0.68409736)" />
    </g>
  </g>
</svg>
