<?xml version="1.0" encoding="UTF-8" standalone="no"?>
<!-- Created with Inkscape (http://www.inkscape.org/) -->

<svg
   xmlns:dc="http://purl.org/dc/elements/1.1/"
   xmlns:cc="http://creativecommons.org/ns#"
   xmlns:rdf="http://www.w3.org/1999/02/22-rdf-syntax-ns#"
   xmlns:svg="http://www.w3.org/2000/svg"
   xmlns="http://www.w3.org/2000/svg"
   xmlns:sodipodi="http://sodipodi.sourceforge.net/DTD/sodipodi-0.dtd"
   xmlns:inkscape="http://www.inkscape.org/namespaces/inkscape"
   width="32"
   height="32"
   id="svg3765"
   version="1.1"
   inkscape:version="0.48.3.1 r9886"
   sodipodi:docname="interlinkLocalAndOutsideWorld.svg"
   inkscape:export-filename="/home/k00ni/Documents/semicon/owl.png"
   inkscape:export-xdpi="90"
   inkscape:export-ydpi="90">
  <defs
     id="defs3767" />
  <sodipodi:namedview
     id="base"
     pagecolor="#ffffff"
     bordercolor="#666666"
     borderopacity="1.0"
     inkscape:pageopacity="0.0"
     inkscape:pageshadow="2"
     inkscape:zoom="28"
     inkscape:cx="7.1768006"
     inkscape:cy="15.342496"
     inkscape:current-layer="layer1-4"
     showgrid="true"
     inkscape:grid-bbox="true"
     inkscape:document-units="px"
     inkscape:window-width="1920"
     inkscape:window-height="1056"
     inkscape:window-x="0"
     inkscape:window-y="24"
     inkscape:window-maximized="1"
     showguides="true"
     inkscape:guide-bbox="true" />
  <metadata
     id="metadata3770">
    <rdf:RDF>
      <cc:Work
         rdf:about="">
        <dc:format>image/svg+xml</dc:format>
        <dc:type
           rdf:resource="http://purl.org/dc/dcmitype/StillImage" />
        <dc:title />
      </cc:Work>
    </rdf:RDF>
  </metadata>
  <g
     id="layer1"
     inkscape:label="Layer 1"
     inkscape:groupmode="layer"
     transform="translate(0,-16)">
    <g
       inkscape:label="Layer 1"
       id="layer1-4"
       transform="translate(0.20202972,-1.9622142e-8)">
      <path
         sodipodi:type="arc"
         style="fill:none;stroke:#2d2d2d;stroke-width:0.762375;stroke-miterlimit:4;stroke-opacity:1;stroke-dasharray:none"
         id="path5228"
         sodipodi:cx="9.7857141"
         sodipodi:cy="9.2857141"
         sodipodi:rx="1.3571428"
         sodipodi:ry="1.3571428"
         d="m 11.142857,9.2857141 a 1.3571428,1.3571428 0 1 1 -2.7142857,0 1.3571428,1.3571428 0 1 1 2.7142857,0 z"
         transform="matrix(2.7802065,0,0,2.7802065,-9.2111139,11.959386)" />
      <path
         style="fill:none;stroke:#2d2d2d;stroke-width:1.90620768px;stroke-linecap:butt;stroke-linejoin:miter;stroke-opacity:1"
         d="M 11.832219,47.329341 C 7.9260991,42.973953 8.5291271,36.053984 12.752905,32.158686 17.491346,27.788753 25.34073,28.93 29.531181,33.724284"
         id="path5236"
         inkscape:connector-curvature="0"
         sodipodi:nodetypes="csc" />
      <path
         sodipodi:type="arc"
         style="fill:none;stroke:#2d2d2d;stroke-width:0.62035;stroke-miterlimit:4;stroke-opacity:1;stroke-dasharray:none"
         id="path5228-2-0"
         sodipodi:cx="9.7857141"
         sodipodi:cy="9.2857141"
         sodipodi:rx="1.3571428"
         sodipodi:ry="1.3571428"
         d="m 11.142857,9.2857141 a 1.3571428,1.3571428 0 1 1 -2.7142857,0 1.3571428,1.3571428 0 1 1 2.7142857,0 z"
         transform="matrix(2.1753135,0,0,2.1753135,-3.2179991,-0.50604461)" />
      <path
         sodipodi:type="arc"
         style="fill:none;stroke:#2d2d2d;stroke-width:0.62035;stroke-miterlimit:4;stroke-opacity:1;stroke-dasharray:none"
         id="path5228-2-3"
         sodipodi:cx="9.7857141"
         sodipodi:cy="9.2857141"
         sodipodi:rx="1.3571428"
         sodipodi:ry="1.3571428"
         d="m 11.142857,9.2857141 a 1.3571428,1.3571428 0 1 1 -2.7142857,0 1.3571428,1.3571428 0 1 1 2.7142857,0 z"
         transform="matrix(2.5073075,0,0,2.5073075,-20.526703,-0.00928579)" />
      <rect
         style="fill:none;stroke:#2d2d2d;stroke-width:1.34945571;stroke-linecap:round;stroke-linejoin:round;stroke-miterlimit:4;stroke-opacity:1;stroke-dasharray:none"
         id="rect5300"
         width="0.07380528"
         height="11.439817"
         x="18.211536"
         y="22.702099"
         transform="matrix(0.99998746,0.00500717,-0.00500717,0.99998746,0,0)" />
      <rect
         style="fill:none;stroke:#2d2d2d;stroke-width:1.39118171;stroke-linecap:round;stroke-linejoin:round;stroke-miterlimit:4;stroke-opacity:1;stroke-dasharray:none"
         id="rect5300-4"
         width="0.067217976"
         height="13.349704"
         x="-11.279307"
         y="24.644434"
         transform="matrix(0.79416965,-0.60769612,0.6240772,0.78136268,0,0)" />
      <path
         sodipodi:type="arc"
         style="fill:#2d2d2d;fill-opacity:1;stroke:none"
         id="path5228-2-00"
         sodipodi:cx="9.7857141"
         sodipodi:cy="9.2857141"
         sodipodi:rx="1.3571428"
         sodipodi:ry="1.3571428"
         d="m 11.142857,9.2857141 a 1.3571428,1.3571428 0 1 1 -2.7142857,0 1.3571428,1.3571428 0 1 1 2.7142857,0 z"
         transform="matrix(1.8595035,0,0,1.8595035,4.5221597,27.151248)" />
      <path
         sodipodi:type="arc"
         style="fill:#2d2d2d;fill-opacity:1;stroke:none"
         id="path5228-2-00-5"
         sodipodi:cx="9.7857141"
         sodipodi:cy="9.2857141"
         sodipodi:rx="1.3571428"
         sodipodi:ry="1.3571428"
         d="m 11.142857,9.2857141 a 1.3571428,1.3571428 0 1 1 -2.7142857,0 1.3571428,1.3571428 0 1 1 2.7142857,0 z"
         transform="matrix(1.7402508,0,0,1.7402508,7.903291,3.1648014)" />
      <path
         sodipodi:type="arc"
         style="fill:#2d2d2d;fill-opacity:1;stroke:none"
         id="path5228-2-00-5-1"
         sodipodi:cx="9.7857141"
         sodipodi:cy="9.2857141"
         sodipodi:rx="1.3571428"
         sodipodi:ry="1.3571428"
         d="m 11.142857,9.2857141 a 1.3571428,1.3571428 0 1 1 -2.7142857,0 1.3571428,1.3571428 0 1 1 2.7142857,0 z"
         transform="matrix(1.7402508,0,0,1.7402508,-5.9721011,2.8695806)" />
      <path
         sodipodi:type="arc"
         style="fill:#2d2d2d;fill-opacity:1;stroke:none"
         id="path5228-2-00-5-1-7"
         sodipodi:cx="9.7857141"
         sodipodi:cy="9.2857141"
         sodipodi:rx="1.3571428"
         sodipodi:ry="1.3571428"
         d="m 11.142857,9.2857141 a 1.3571428,1.3571428 0 1 1 -2.7142857,0 1.3571428,1.3571428 0 1 1 2.7142857,0 z"
         transform="matrix(1.7402508,0,0,1.7402508,-14.828734,14.235591)" />
      <path
         sodipodi:type="arc"
         style="fill:#2d2d2d;fill-opacity:1;stroke:none"
         id="path5228-2-00-59"
         sodipodi:cx="9.7857141"
         sodipodi:cy="9.2857141"
         sodipodi:rx="1.3571428"
         sodipodi:ry="1.3571428"
         d="m 11.142857,9.2857141 a 1.3571428,1.3571428 0 1 1 -2.7142857,0 1.3571428,1.3571428 0 1 1 2.7142857,0 z"
         transform="matrix(2.2483033,0,0,2.2483033,4.9981814,18.079374)" />
    </g>
  </g>
</svg>
