<?xml version="1.0" encoding="UTF-8" standalone="no"?>
<!-- Created with Inkscape (http://www.inkscape.org/) -->

<svg
   xmlns:dc="http://purl.org/dc/elements/1.1/"
   xmlns:cc="http://creativecommons.org/ns#"
   xmlns:rdf="http://www.w3.org/1999/02/22-rdf-syntax-ns#"
   xmlns:svg="http://www.w3.org/2000/svg"
   xmlns="http://www.w3.org/2000/svg"
   xmlns:sodipodi="http://sodipodi.sourceforge.net/DTD/sodipodi-0.dtd"
   xmlns:inkscape="http://www.inkscape.org/namespaces/inkscape"
   width="32"
   height="32"
   id="svg3765"
   version="1.1"
   inkscape:version="0.48.3.1 r9886"
   sodipodi:docname="n_triple3.svg"
   inkscape:export-filename="/home/k00ni/Documents/semicon/owl.png"
   inkscape:export-xdpi="90"
   inkscape:export-ydpi="90">
  <defs
     id="defs3767" />
  <sodipodi:namedview
     id="base"
     pagecolor="#ffffff"
     bordercolor="#666666"
     borderopacity="1.0"
     inkscape:pageopacity="0.0"
     inkscape:pageshadow="2"
     inkscape:zoom="64"
     inkscape:cx="16.450363"
     inkscape:cy="28.743065"
     inkscape:current-layer="layer1-9-3"
     showgrid="true"
     inkscape:grid-bbox="true"
     inkscape:document-units="px"
     inkscape:window-width="1920"
     inkscape:window-height="1056"
     inkscape:window-x="0"
     inkscape:window-y="24"
     inkscape:window-maximized="1"
     showguides="true"
     inkscape:guide-bbox="true" />
  <metadata
     id="metadata3770">
    <rdf:RDF>
      <cc:Work
         rdf:about="">
        <dc:format>image/svg+xml</dc:format>
        <dc:type
           rdf:resource="http://purl.org/dc/dcmitype/StillImage" />
        <dc:title />
      </cc:Work>
    </rdf:RDF>
  </metadata>
  <g
     id="layer1"
     inkscape:label="Layer 1"
     inkscape:groupmode="layer"
     transform="translate(0,-16)">
    <g
       inkscape:label="Layer 1"
       id="layer1-4"
       transform="translate(0.20202972,-1.9622142e-8)">
      <g
         transform="translate(-0.37059768,-0.09089584)"
         id="layer1-9"
         inkscape:label="Layer 1">
        <g
           inkscape:label="Layer 1"
           id="layer1-9-3"
           transform="translate(-44.951788,-4.1416259)">
          <g
             transform="matrix(2.5478588,0,0,1.9640118,-60.874098,-57.823995)"
             style="font-size:34.8746109px;font-style:normal;font-weight:normal;line-height:125%;letter-spacing:0px;word-spacing:0px;fill:#2d2d2d;fill-opacity:1;stroke:none;font-family:Sans"
             id="text2993-4-5">
            <path
               d="m 47.116211,47.874676 c -0.522,-0.927124 -1.086844,-1.842561 -1.694534,-2.746314 -0.607699,-0.903748 -1.254348,-1.756857 -1.939949,-2.559331 l 0,5.305645 -1.799712,0 0,-8.098704 1.484178,0 c 0.257099,0.257109 0.541469,0.572643 0.85311,0.946602 0.311635,0.373973 0.627169,0.775207 0.946602,1.203703 0.327216,0.420717 0.650541,0.860906 0.969975,1.320568 0.319424,0.45188 0.619375,0.888173 0.899856,1.308881 l 0,-4.779754 1.811398,0 0,8.098704 -1.530924,0"
               style="font-size:11.68644142px;font-variant:normal;font-weight:bold;font-stretch:normal;fill:#2d2d2d;font-family:Ubuntu;-inkscape-font-specification:Ubuntu Bold"
               id="path3155"
               inkscape:connector-curvature="0" />
          </g>
          <g
             transform="matrix(2.5478588,0,0,1.9640117,-60.889723,-57.761495)"
             style="font-size:34.8746109px;font-style:normal;font-weight:normal;line-height:125%;letter-spacing:0px;word-spacing:0px;fill:#2d2d2d;fill-opacity:1;stroke:none;font-family:Sans"
             id="text2993-4-5-4">
            <path
               d="m 52.271704,47.878063 c -0.336786,-1.16127 -0.77628,-1.863865 -1.38397,-2.767619 -0.607699,-0.903747 -1.254348,-1.756857 -1.939949,-2.55933 l 0,5.305644 -1.799712,0 0,-8.098704 1.484178,0 c 0.257099,0.25711 0.541469,0.572643 0.85311,0.946602 0.311635,0.373973 0.627169,0.775207 0.946602,1.203703 0.327216,0.420718 0.65054,0.860907 0.969975,1.320568 0.319424,0.45188 0.619375,0.888174 0.899856,1.308882 l 0,-4.779755 1.811398,0 0,8.124269"
               style="font-size:11.68644142px;font-variant:normal;font-weight:bold;font-stretch:normal;fill:#2d2d2d;font-family:Ubuntu;-inkscape-font-specification:Ubuntu Bold"
               id="path3152"
               inkscape:connector-curvature="0"
               sodipodi:nodetypes="cscccccccccccc" />
          </g>
          <g
             transform="matrix(2.5478588,0,0,1.9640117,-60.973145,-57.723239)"
             style="font-size:34.8746109px;font-style:normal;font-weight:normal;line-height:125%;letter-spacing:0px;word-spacing:0px;fill:#2d2d2d;fill-opacity:1;stroke:none;font-family:Sans"
             id="text2993-4-5-4-5">
            <path
               d="m 52.582268,55.92083 c -0.522,-0.927124 -1.086844,-1.842561 -1.694534,-2.746314 -0.607699,-0.903748 -1.254348,-1.756857 -1.939949,-2.559331 l 0,5.305645 -1.799712,0 0,-8.098704 1.823341,-0.03896 c 0.135552,0.408616 0.202306,0.6116 0.513947,0.985559 0.311635,0.373973 0.627169,0.775207 0.946602,1.203703 0.327216,0.420718 0.65054,0.860906 0.969975,1.320568 0.319424,0.45188 0.619375,0.888173 0.899856,1.308881 l 0,-4.779754 1.84414,0 0.0082,8.098704 -1.571851,0"
               style="font-size:11.68644142px;font-variant:normal;font-weight:bold;font-stretch:normal;fill:#2d2d2d;font-family:Ubuntu;-inkscape-font-specification:Ubuntu Bold"
               id="path3149"
               inkscape:connector-curvature="0"
               sodipodi:nodetypes="csccccccccccccc" />
          </g>
        </g>
      </g>
    </g>
  </g>
</svg>
