<?xml version="1.0" encoding="UTF-8" standalone="no"?>
<!-- Created with Inkscape (http://www.inkscape.org/) -->

<svg
   xmlns:dc="http://purl.org/dc/elements/1.1/"
   xmlns:cc="http://creativecommons.org/ns#"
   xmlns:rdf="http://www.w3.org/1999/02/22-rdf-syntax-ns#"
   xmlns:svg="http://www.w3.org/2000/svg"
   xmlns="http://www.w3.org/2000/svg"
   xmlns:sodipodi="http://sodipodi.sourceforge.net/DTD/sodipodi-0.dtd"
   xmlns:inkscape="http://www.inkscape.org/namespaces/inkscape"
   width="32"
   height="32"
   id="svg3765"
   version="1.1"
   inkscape:version="0.91 r13725"
   sodipodi:docname="ntriple.svg"
   inkscape:export-filename="/home/k00ni/Documents/semicon/owl.png"
   inkscape:export-xdpi="90"
   inkscape:export-ydpi="90">
  <defs
     id="defs3767" />
  <sodipodi:namedview
     id="base"
     pagecolor="#ffffff"
     bordercolor="#666666"
     borderopacity="1.0"
     inkscape:pageopacity="0.0"
     inkscape:pageshadow="2"
     inkscape:zoom="18.155519"
     inkscape:cx="8.8168203"
     inkscape:cy="9.0842945"
     inkscape:current-layer="layer1-9-3"
     showgrid="true"
     inkscape:grid-bbox="true"
     inkscape:document-units="px"
     inkscape:window-width="1920"
     inkscape:window-height="1056"
     inkscape:window-x="0"
     inkscape:window-y="24"
     inkscape:window-maximized="1"
     showguides="true"
     inkscape:guide-bbox="true" />
  <metadata
     id="metadata3770">
    <rdf:RDF>
      <cc:Work
         rdf:about="">
        <dc:format>image/svg+xml</dc:format>
        <dc:type
           rdf:resource="http://purl.org/dc/dcmitype/StillImage" />
        <dc:title />
      </cc:Work>
    </rdf:RDF>
  </metadata>
  <g
     id="layer1"
     inkscape:label="Layer 1"
     inkscape:groupmode="layer"
     transform="translate(0,-16)">
    <g
       inkscape:label="Layer 1"
       id="layer1-4"
       transform="translate(0.20202972,-1.9622142e-8)">
      <g
         transform="translate(-0.37059768,-0.09089584)"
         id="layer1-9"
         inkscape:label="Layer 1">
        <g
           inkscape:label="Layer 1"
           id="layer1-9-3"
           transform="translate(-44.951788,-4.1416259)">
          <path
             sodipodi:type="arc"
             style="fill:#2d2d2d;fill-opacity:1;stroke:none"
             id="path3967-0-9-7-2-9-3"
             sodipodi:cx="3.6996837"
             sodipodi:cy="6.8202386"
             sodipodi:rx="2.5127544"
             sodipodi:ry="2.5127544"
             d="M 6.2124381,6.8202386 A 2.5127544,2.5127544 0 0 1 3.6996837,9.332993 2.5127544,2.5127544 0 0 1 1.1869292,6.8202386 2.5127544,2.5127544 0 0 1 3.6996837,4.3074841 2.5127544,2.5127544 0 0 1 6.2124381,6.8202386 Z"
             transform="matrix(-1.3819455,1.478353,1.478353,1.3819455,67.054358,32.262561)" />
          <text
             xml:space="preserve"
             style="font-style:normal;font-weight:normal;font-size:85.00756836px;line-height:125%;font-family:Sans;letter-spacing:0px;word-spacing:0px;fill:#2d2d2d;fill-opacity:1;stroke:none"
             x="43.925713"
             y="51.04541"
             id="text3034"
             sodipodi:linespacing="125%"
             transform="scale(0.97935174,1.0210836)"><tspan
               sodipodi:role="line"
               id="tspan3036"
               x="43.925713"
               y="51.04541"
               style="font-weight:bold;font-size:23.37707901px;-inkscape-font-specification:'Sans Bold';fill:#2d2d2d;fill-opacity:1">N</tspan></text>
          <path
             sodipodi:type="arc"
             style="fill:#2d2d2d;fill-opacity:1;stroke:none"
             id="path3967-0-9-7-2-9-3-1"
             sodipodi:cx="3.6996837"
             sodipodi:cy="6.8202386"
             sodipodi:rx="2.5127544"
             sodipodi:ry="2.5127544"
             d="M 6.2124381,6.8202386 A 2.5127544,2.5127544 0 0 1 3.6996837,9.332993 2.5127544,2.5127544 0 0 1 1.1869292,6.8202386 2.5127544,2.5127544 0 0 1 3.6996837,4.3074841 2.5127544,2.5127544 0 0 1 6.2124381,6.8202386 Z"
             transform="matrix(-1.3819455,1.478353,1.478353,1.3819455,67.043382,10.474176)" />
          <path
             sodipodi:type="arc"
             style="fill:#2d2d2d;fill-opacity:1;stroke:none"
             id="path3967-0-9-7-2-9-3-1-1"
             sodipodi:cx="3.6996837"
             sodipodi:cy="6.8202386"
             sodipodi:rx="2.5127544"
             sodipodi:ry="2.5127544"
             d="M 6.2124381,6.8202386 A 2.5127544,2.5127544 0 0 1 3.6996837,9.332993 2.5127544,2.5127544 0 0 1 1.1869292,6.8202386 2.5127544,2.5127544 0 0 1 3.6996837,4.3074841 2.5127544,2.5127544 0 0 1 6.2124381,6.8202386 Z"
             transform="matrix(-1.3819455,1.478353,1.478353,1.3819455,45.297344,10.473914)" />
          <rect
             style="fill:#2d2d2d;fill-opacity:1;stroke:none"
             id="rect3842"
             width="2.7815115"
             height="18.560266"
             x="70.597366"
             y="26.835167"
             ry="0.27614474" />
          <rect
             style="fill:#2d2d2d;fill-opacity:1;stroke:none"
             id="rect3842-2"
             width="2.7815115"
             height="18.560266"
             x="-26.809887"
             y="51.50634"
             ry="0.27614474"
             transform="matrix(0,-1,1,0,0,0)" />
        </g>
      </g>
    </g>
  </g>
</svg>
