<?xml version="1.0" encoding="UTF-8" standalone="no"?>
<!-- Created with Inkscape (http://www.inkscape.org/) -->

<svg
   xmlns:dc="http://purl.org/dc/elements/1.1/"
   xmlns:cc="http://creativecommons.org/ns#"
   xmlns:rdf="http://www.w3.org/1999/02/22-rdf-syntax-ns#"
   xmlns:svg="http://www.w3.org/2000/svg"
   xmlns="http://www.w3.org/2000/svg"
   xmlns:sodipodi="http://sodipodi.sourceforge.net/DTD/sodipodi-0.dtd"
   xmlns:inkscape="http://www.inkscape.org/namespaces/inkscape"
   width="32"
   height="32"
   id="svg3765"
   version="1.1"
   inkscape:version="0.91 r13725"
   sodipodi:docname="select3.svg"
   inkscape:export-filename="/home/k00ni/Documents/semicon/owl.png"
   inkscape:export-xdpi="90"
   inkscape:export-ydpi="90">
  <defs
     id="defs3767" />
  <sodipodi:namedview
     id="base"
     pagecolor="#ffffff"
     bordercolor="#666666"
     borderopacity="1.0"
     inkscape:pageopacity="0.0"
     inkscape:pageshadow="2"
     inkscape:zoom="18.155519"
     inkscape:cx="6.3704871"
     inkscape:cy="11.383194"
     inkscape:current-layer="layer1-9-3"
     showgrid="true"
     inkscape:grid-bbox="true"
     inkscape:document-units="px"
     inkscape:window-width="1920"
     inkscape:window-height="1056"
     inkscape:window-x="0"
     inkscape:window-y="24"
     inkscape:window-maximized="1"
     showguides="true"
     inkscape:guide-bbox="true" />
  <metadata
     id="metadata3770">
    <rdf:RDF>
      <cc:Work
         rdf:about="">
        <dc:format>image/svg+xml</dc:format>
        <dc:type
           rdf:resource="http://purl.org/dc/dcmitype/StillImage" />
        <dc:title />
      </cc:Work>
    </rdf:RDF>
  </metadata>
  <g
     id="layer1"
     inkscape:label="Layer 1"
     inkscape:groupmode="layer"
     transform="translate(0,-16)">
    <g
       inkscape:label="Layer 1"
       id="layer1-4"
       transform="translate(0.20202972,-1.9622142e-8)">
      <g
         transform="translate(-0.37059768,-0.09089584)"
         id="layer1-9"
         inkscape:label="Layer 1">
        <g
           inkscape:label="Layer 1"
           id="layer1-9-3"
           transform="translate(-44.951788,-4.1416259)">
          <path
             style="fill:#2d2d2d;fill-opacity:1;stroke:none;stroke-width:0.80000001;stroke-linecap:round;stroke-linejoin:round;stroke-miterlimit:4;stroke-dasharray:none;stroke-opacity:1"
             d="M 15.425781 -0.017578125 C 8.6143121 0.16527302 2.4571948 4.7245457 0.58789062 11.623047 C -1.7127914 20.113513 3.342612 28.967582 11.859375 31.363281 C 20.376133 33.758978 29.173926 28.802966 31.474609 20.3125 C 33.77529 11.822037 28.71793 2.9757751 20.201172 0.58007812 C 18.604279 0.13088456 16.997659 -0.059774543 15.425781 -0.017578125 z M 15.498047 2.0585938 C 16.865974 2.0231576 18.26548 2.1902691 19.658203 2.5820312 C 27.086059 4.6714283 31.46356 12.339223 29.457031 19.744141 C 27.450501 27.149063 19.830199 31.450726 12.402344 29.361328 C 4.9744878 27.271931 0.59698562 19.596328 2.6035156 12.191406 C 4.2338204 6.1749104 9.5703646 2.2121503 15.498047 2.0585938 z M 15.744141 4.9023438 C 11.023742 5.0313077 6.7538291 8.1961019 5.4589844 12.974609 C 3.8653304 18.855852 7.3700743 25.002638 13.269531 26.662109 C 19.168985 28.32158 25.271579 24.877337 26.865234 18.996094 C 28.458888 13.114854 24.952189 6.9758763 19.052734 5.3164062 C 17.946586 5.0052554 16.833463 4.8725828 15.744141 4.9023438 z M 15.814453 6.9882812 C 16.699798 6.9658965 17.605834 7.0763586 18.507812 7.3300781 C 23.318361 8.6832471 26.149111 13.63399 24.849609 18.429688 C 23.550107 23.225386 18.625002 26.001607 13.814453 24.648438 C 9.0039021 23.295266 6.1731533 18.338668 7.4726562 13.542969 C 8.5285016 9.6464649 11.977959 7.0852817 15.814453 6.9882812 z M 16.023438 11.306641 A 4.5031459 4.3236518 82.028736 0 0 11.876953 14.583984 A 4.5031459 4.3236518 82.028736 0 0 14.925781 20.136719 A 4.5031459 4.3236518 82.028736 0 0 20.232422 17.027344 A 4.5031459 4.3236518 82.028736 0 0 17.183594 11.474609 A 4.5031459 4.3236518 82.028736 0 0 16.023438 11.306641 z "
             transform="translate(45.120356,20.232522)"
             id="path3015-0" />
        </g>
      </g>
    </g>
  </g>
</svg>
