<?xml version="1.0" encoding="UTF-8" standalone="no"?>
<!-- Created with Inkscape (http://www.inkscape.org/) -->

<svg
   xmlns:dc="http://purl.org/dc/elements/1.1/"
   xmlns:cc="http://creativecommons.org/ns#"
   xmlns:rdf="http://www.w3.org/1999/02/22-rdf-syntax-ns#"
   xmlns:svg="http://www.w3.org/2000/svg"
   xmlns="http://www.w3.org/2000/svg"
   xmlns:sodipodi="http://sodipodi.sourceforge.net/DTD/sodipodi-0.dtd"
   xmlns:inkscape="http://www.inkscape.org/namespaces/inkscape"
   width="32"
   height="32"
   id="svg3765"
   version="1.1"
   inkscape:version="0.91 r13725"
   sodipodi:docname="select5.svg"
   inkscape:export-filename="/home/k00ni/Documents/semicon/owl.png"
   inkscape:export-xdpi="90"
   inkscape:export-ydpi="90">
  <defs
     id="defs3767" />
  <sodipodi:namedview
     id="base"
     pagecolor="#ffffff"
     bordercolor="#666666"
     borderopacity="1.0"
     inkscape:pageopacity="0.0"
     inkscape:pageshadow="2"
     inkscape:zoom="12.837891"
     inkscape:cx="3.3283575"
     inkscape:cy="15.671042"
     inkscape:current-layer="layer1-9-3"
     showgrid="true"
     inkscape:grid-bbox="true"
     inkscape:document-units="px"
     inkscape:window-width="1920"
     inkscape:window-height="1056"
     inkscape:window-x="0"
     inkscape:window-y="24"
     inkscape:window-maximized="1"
     showguides="true"
     inkscape:guide-bbox="true" />
  <metadata
     id="metadata3770">
    <rdf:RDF>
      <cc:Work
         rdf:about="">
        <dc:format>image/svg+xml</dc:format>
        <dc:type
           rdf:resource="http://purl.org/dc/dcmitype/StillImage" />
        <dc:title />
      </cc:Work>
    </rdf:RDF>
  </metadata>
  <g
     id="layer1"
     inkscape:label="Layer 1"
     inkscape:groupmode="layer"
     transform="translate(0,-16)">
    <g
       inkscape:label="Layer 1"
       id="layer1-4"
       transform="translate(0.20202972,-1.9622142e-8)">
      <g
         transform="translate(-0.37059768,-0.09089584)"
         id="layer1-9"
         inkscape:label="Layer 1">
        <g
           inkscape:label="Layer 1"
           id="layer1-9-3"
           transform="translate(-44.951788,-4.1416259)">
          <path
             style="fill:#2d2d2d;fill-opacity:1;stroke:none;stroke-width:0.80000001;stroke-linecap:round;stroke-linejoin:round;stroke-miterlimit:4;stroke-dasharray:none;stroke-opacity:1"
             d="M 15.400391 0.005859375 C 8.5890767 0.19066475 2.4275535 4.7559791 0.55664062 11.658203 C -1.7460234 20.153248 3.313862 29.002258 11.828125 31.396484 C 20.342387 33.790711 29.142651 28.838795 31.445312 20.34375 C 33.747975 11.848705 28.68809 2.9977426 20.173828 0.60351562 C 18.577404 0.15459806 16.972232 -0.03678802 15.400391 0.005859375 z M 15.464844 2.09375 C 16.833851 2.0582744 18.234875 2.2251831 19.628906 2.6171875 C 27.06374 4.7078775 31.441307 12.379592 29.435547 19.779297 C 27.429787 27.179002 19.807882 31.473502 12.373047 29.382812 C 4.9382129 27.292122 0.55869313 19.622361 2.5644531 12.222656 C 4.1941331 6.2103951 9.5324779 2.2474774 15.464844 2.09375 z M 16.244141 10.244141 A 5.8281496 5.5975686 81.966067 0 0 10.875 14.486328 A 5.8281496 5.5975686 81.966067 0 0 14.822266 21.671875 A 5.8281496 5.5975686 81.966067 0 0 21.691406 17.648438 A 5.8281496 5.5975686 81.966067 0 0 17.744141 10.462891 A 5.8281496 5.5975686 81.966067 0 0 16.244141 10.244141 z "
             transform="translate(45.120356,20.232522)"
             id="path3015-0" />
        </g>
      </g>
    </g>
  </g>
</svg>
