<?xml version="1.0" encoding="UTF-8" standalone="no"?>
<!-- Created with Inkscape (http://www.inkscape.org/) -->

<svg
   xmlns:dc="http://purl.org/dc/elements/1.1/"
   xmlns:cc="http://creativecommons.org/ns#"
   xmlns:rdf="http://www.w3.org/1999/02/22-rdf-syntax-ns#"
   xmlns:svg="http://www.w3.org/2000/svg"
   xmlns="http://www.w3.org/2000/svg"
   xmlns:sodipodi="http://sodipodi.sourceforge.net/DTD/sodipodi-0.dtd"
   xmlns:inkscape="http://www.inkscape.org/namespaces/inkscape"
   width="32px"
   height="32px"
   id="svg3004"
   version="1.1"
   inkscape:version="0.48.3.1 r9886"
   sodipodi:docname="slice2.svg"
   inkscape:export-filename="/home/k00ni/Documents/ow_cubeviz/extensions/cubeviz/public/images/attributeAndMeasure.png"
   inkscape:export-xdpi="90"
   inkscape:export-ydpi="90">
  <defs
     id="defs3006" />
  <sodipodi:namedview
     id="base"
     pagecolor="#ffffff"
     bordercolor="#666666"
     borderopacity="1.0"
     inkscape:pageopacity="0.0"
     inkscape:pageshadow="2"
     inkscape:zoom="22.395603"
     inkscape:cx="10.345489"
     inkscape:cy="15.252929"
     inkscape:current-layer="layer1"
     showgrid="true"
     inkscape:grid-bbox="true"
     inkscape:document-units="px"
     showguides="true"
     inkscape:guide-bbox="true"
     inkscape:window-width="1920"
     inkscape:window-height="1029"
     inkscape:window-x="0"
     inkscape:window-y="28"
     inkscape:window-maximized="1" />
  <metadata
     id="metadata3009">
    <rdf:RDF>
      <cc:Work
         rdf:about="">
        <dc:format>image/svg+xml</dc:format>
        <dc:type
           rdf:resource="http://purl.org/dc/dcmitype/StillImage" />
        <dc:title />
      </cc:Work>
    </rdf:RDF>
  </metadata>
  <g
     id="layer1"
     inkscape:label="Layer 1"
     inkscape:groupmode="layer">
    <path
       transform="matrix(0.94778827,0,0,0.94778827,-1.7307639,-1.9072924)"
       sodipodi:type="arc"
       style="fill:#2d2d2d;fill-opacity:1;stroke:none"
       id="path3015-7-5-3-5"
       sodipodi:cx="5.65165"
       sodipodi:cy="5.8255982"
       sodipodi:rx="3.7572422"
       sodipodi:ry="3.7572422"
       d="m 9.4088922,5.8255982 a 3.7572422,3.7572422 0 1 1 -7.5144845,0 3.7572422,3.7572422 0 1 1 7.5144845,0 z" />
    <path
       transform="matrix(0.94778827,0,0,0.94778827,6.6097754,-1.9375515)"
       sodipodi:type="arc"
       style="fill:#2d2d2d;fill-opacity:1;stroke:none"
       id="path3015-7-5-3-5-5"
       sodipodi:cx="5.65165"
       sodipodi:cy="5.8255982"
       sodipodi:rx="3.7572422"
       sodipodi:ry="3.7572422"
       d="m 9.4088922,5.8255982 a 3.7572422,3.7572422 0 1 1 -7.5144845,0 3.7572422,3.7572422 0 1 1 7.5144845,0 z" />
    <path
       transform="matrix(0.94778827,0,0,0.94778827,14.94517,-1.9059781)"
       sodipodi:type="arc"
       style="fill:#2d2d2d;fill-opacity:1;stroke:none"
       id="path3015-7-5-3-5-5-6"
       sodipodi:cx="5.65165"
       sodipodi:cy="5.8255982"
       sodipodi:rx="3.7572422"
       sodipodi:ry="3.7572422"
       d="m 9.4088922,5.8255982 a 3.7572422,3.7572422 0 1 1 -7.5144845,0 3.7572422,3.7572422 0 1 1 7.5144845,0 z" />
    <path
       transform="matrix(0.94778827,0,0,0.94778827,23.05955,-1.8744045)"
       sodipodi:type="arc"
       style="fill:#2d2d2d;fill-opacity:1;stroke:none"
       id="path3015-7-5-3-5-5-6-0"
       sodipodi:cx="5.65165"
       sodipodi:cy="5.8255982"
       sodipodi:rx="3.7572422"
       sodipodi:ry="3.7572422"
       d="m 9.4088922,5.8255982 a 3.7572422,3.7572422 0 1 1 -7.5144845,0 3.7572422,3.7572422 0 1 1 7.5144845,0 z" />
    <path
       transform="matrix(0.94778827,0,0,0.94778827,-1.7217927,6.3393707)"
       sodipodi:type="arc"
       style="fill:#2d2d2d;fill-opacity:1;stroke:none"
       id="path3015-7-5-3-5-9"
       sodipodi:cx="5.65165"
       sodipodi:cy="5.8255982"
       sodipodi:rx="3.7572422"
       sodipodi:ry="3.7572422"
       d="m 9.4088922,5.8255982 a 3.7572422,3.7572422 0 1 1 -7.5144845,0 3.7572422,3.7572422 0 1 1 7.5144845,0 z" />
    <path
       transform="matrix(0.94778827,0,0,0.94778827,6.6187473,6.3091116)"
       sodipodi:type="arc"
       style="fill:#2d2d2d;fill-opacity:1;stroke:none"
       id="path3015-7-5-3-5-5-2"
       sodipodi:cx="5.65165"
       sodipodi:cy="5.8255982"
       sodipodi:rx="3.7572422"
       sodipodi:ry="3.7572422"
       d="m 9.4088922,5.8255982 a 3.7572422,3.7572422 0 1 1 -7.5144845,0 3.7572422,3.7572422 0 1 1 7.5144845,0 z" />
    <path
       transform="matrix(0.94778827,0,0,0.94778827,14.954141,6.340685)"
       sodipodi:type="arc"
       style="fill:#2d2d2d;fill-opacity:1;stroke:none"
       id="path3015-7-5-3-5-5-6-3"
       sodipodi:cx="5.65165"
       sodipodi:cy="5.8255982"
       sodipodi:rx="3.7572422"
       sodipodi:ry="3.7572422"
       d="m 9.4088922,5.8255982 a 3.7572422,3.7572422 0 1 1 -7.5144845,0 3.7572422,3.7572422 0 1 1 7.5144845,0 z" />
    <path
       transform="matrix(0.94778827,0,0,0.94778827,23.068521,6.3722586)"
       sodipodi:type="arc"
       style="fill:#2d2d2d;fill-opacity:1;stroke:none"
       id="path3015-7-5-3-5-5-6-0-7"
       sodipodi:cx="5.65165"
       sodipodi:cy="5.8255982"
       sodipodi:rx="3.7572422"
       sodipodi:ry="3.7572422"
       d="m 9.4088922,5.8255982 a 3.7572422,3.7572422 0 1 1 -7.5144845,0 3.7572422,3.7572422 0 1 1 7.5144845,0 z" />
    <path
       transform="matrix(0.94778827,0,0,0.94778827,-1.6816261,14.495235)"
       sodipodi:type="arc"
       style="fill:#2d2d2d;fill-opacity:1;stroke:none"
       id="path3015-7-5-3-5-2"
       sodipodi:cx="5.65165"
       sodipodi:cy="5.8255982"
       sodipodi:rx="3.7572422"
       sodipodi:ry="3.7572422"
       d="m 9.4088922,5.8255982 a 3.7572422,3.7572422 0 1 1 -7.5144845,0 3.7572422,3.7572422 0 1 1 7.5144845,0 z" />
    <path
       transform="matrix(0.94778827,0,0,0.94778827,6.6589129,14.464976)"
       sodipodi:type="arc"
       style="fill:#2d2d2d;fill-opacity:1;stroke:none"
       id="path3015-7-5-3-5-5-23"
       sodipodi:cx="5.65165"
       sodipodi:cy="5.8255982"
       sodipodi:rx="3.7572422"
       sodipodi:ry="3.7572422"
       d="m 9.4088922,5.8255982 a 3.7572422,3.7572422 0 1 1 -7.5144845,0 3.7572422,3.7572422 0 1 1 7.5144845,0 z" />
    <path
       transform="matrix(0.94778827,0,0,0.94778827,14.994307,14.496549)"
       sodipodi:type="arc"
       style="fill:#2d2d2d;fill-opacity:1;stroke:none"
       id="path3015-7-5-3-5-5-6-8"
       sodipodi:cx="5.65165"
       sodipodi:cy="5.8255982"
       sodipodi:rx="3.7572422"
       sodipodi:ry="3.7572422"
       d="m 9.4088922,5.8255982 a 3.7572422,3.7572422 0 1 1 -7.5144845,0 3.7572422,3.7572422 0 1 1 7.5144845,0 z" />
    <path
       transform="matrix(0.94778827,0,0,0.94778827,23.108687,14.528123)"
       sodipodi:type="arc"
       style="fill:#2d2d2d;fill-opacity:1;stroke:none"
       id="path3015-7-5-3-5-5-6-0-0"
       sodipodi:cx="5.65165"
       sodipodi:cy="5.8255982"
       sodipodi:rx="3.7572422"
       sodipodi:ry="3.7572422"
       d="m 9.4088922,5.8255982 a 3.7572422,3.7572422 0 1 1 -7.5144845,0 3.7572422,3.7572422 0 1 1 7.5144845,0 z" />
    <path
       transform="matrix(0.94778827,0,0,0.94778827,-1.6726551,22.384685)"
       sodipodi:type="arc"
       style="fill:#2d2d2d;fill-opacity:1;stroke:none"
       id="path3015-7-5-3-5-9-9"
       sodipodi:cx="5.65165"
       sodipodi:cy="5.8255982"
       sodipodi:rx="3.7572422"
       sodipodi:ry="3.7572422"
       d="m 9.4088922,5.8255982 a 3.7572422,3.7572422 0 1 1 -7.5144845,0 3.7572422,3.7572422 0 1 1 7.5144845,0 z" />
    <path
       transform="matrix(0.94778827,0,0,0.94778827,6.6678849,22.354426)"
       sodipodi:type="arc"
       style="fill:#2d2d2d;fill-opacity:1;stroke:none"
       id="path3015-7-5-3-5-5-2-1"
       sodipodi:cx="5.65165"
       sodipodi:cy="5.8255982"
       sodipodi:rx="3.7572422"
       sodipodi:ry="3.7572422"
       d="m 9.4088922,5.8255982 a 3.7572422,3.7572422 0 1 1 -7.5144845,0 3.7572422,3.7572422 0 1 1 7.5144845,0 z" />
    <path
       transform="matrix(0.94778827,0,0,0.94778827,15.003278,22.385999)"
       sodipodi:type="arc"
       style="fill:#2d2d2d;fill-opacity:1;stroke:none"
       id="path3015-7-5-3-5-5-6-3-1"
       sodipodi:cx="5.65165"
       sodipodi:cy="5.8255982"
       sodipodi:rx="3.7572422"
       sodipodi:ry="3.7572422"
       d="m 9.4088922,5.8255982 a 3.7572422,3.7572422 0 1 1 -7.5144845,0 3.7572422,3.7572422 0 1 1 7.5144845,0 z" />
    <path
       transform="matrix(0.94778827,0,0,0.94778827,23.117658,22.417573)"
       sodipodi:type="arc"
       style="fill:#2d2d2d;fill-opacity:1;stroke:none"
       id="path3015-7-5-3-5-5-6-0-7-3"
       sodipodi:cx="5.65165"
       sodipodi:cy="5.8255982"
       sodipodi:rx="3.7572422"
       sodipodi:ry="3.7572422"
       d="m 9.4088922,5.8255982 a 3.7572422,3.7572422 0 1 1 -7.5144845,0 3.7572422,3.7572422 0 1 1 7.5144845,0 z" />
    <rect
       style="fill:#ffffff;fill-opacity:1;stroke:none"
       id="rect4090"
       width="7.9926405"
       height="43.669281"
       x="-12.810345"
       y="0.71384144"
       rx="4.7021441"
       ry="2.1396236"
       transform="matrix(0.70710678,-0.70710678,0.70710678,0.70710678,0,0)" />
    <rect
       style="fill:#ffffff;fill-opacity:1;stroke:none"
       id="rect4090-5"
       width="7.9926405"
       height="43.669281"
       x="5.1391678"
       y="4.1395636"
       rx="4.7021441"
       ry="2.1396236"
       transform="matrix(0.70710678,-0.70710678,0.70710678,0.70710678,0,0)"
       inkscape:transform-center-x="12.547106"
       inkscape:transform-center-y="13.842003" />
  </g>
</svg>
