<?xml version="1.0" encoding="UTF-8" standalone="no"?>
<!-- Created with Inkscape (http://www.inkscape.org/) -->

<svg
   xmlns:dc="http://purl.org/dc/elements/1.1/"
   xmlns:cc="http://creativecommons.org/ns#"
   xmlns:rdf="http://www.w3.org/1999/02/22-rdf-syntax-ns#"
   xmlns:svg="http://www.w3.org/2000/svg"
   xmlns="http://www.w3.org/2000/svg"
   xmlns:sodipodi="http://sodipodi.sourceforge.net/DTD/sodipodi-0.dtd"
   xmlns:inkscape="http://www.inkscape.org/namespaces/inkscape"
   width="32px"
   height="32px"
   id="svg3004"
   version="1.1"
   inkscape:version="0.48.3.1 r9886"
   sodipodi:docname="slice4.svg"
   inkscape:export-filename="/home/k00ni/Documents/ow_cubeviz/extensions/cubeviz/public/images/attributeAndMeasure.png"
   inkscape:export-xdpi="90"
   inkscape:export-ydpi="90">
  <defs
     id="defs3006" />
  <sodipodi:namedview
     id="base"
     pagecolor="#ffffff"
     bordercolor="#666666"
     borderopacity="1.0"
     inkscape:pageopacity="0.0"
     inkscape:pageshadow="2"
     inkscape:zoom="22.395603"
     inkscape:cx="10.345489"
     inkscape:cy="13.307985"
     inkscape:current-layer="layer1"
     showgrid="true"
     inkscape:grid-bbox="true"
     inkscape:document-units="px"
     showguides="true"
     inkscape:guide-bbox="true"
     inkscape:window-width="1920"
     inkscape:window-height="1029"
     inkscape:window-x="0"
     inkscape:window-y="28"
     inkscape:window-maximized="1" />
  <metadata
     id="metadata3009">
    <rdf:RDF>
      <cc:Work
         rdf:about="">
        <dc:format>image/svg+xml</dc:format>
        <dc:type
           rdf:resource="http://purl.org/dc/dcmitype/StillImage" />
        <dc:title></dc:title>
      </cc:Work>
    </rdf:RDF>
  </metadata>
  <g
     id="layer1"
     inkscape:label="Layer 1"
     inkscape:groupmode="layer">
    <path
       transform="matrix(0.530726,0,0,0.530726,-0.94067791,-1.0574444)"
       sodipodi:type="arc"
       style="fill:#2d2d2d;fill-opacity:1;stroke:none"
       id="path3015-7-5-3-5"
       sodipodi:cx="5.65165"
       sodipodi:cy="5.8255982"
       sodipodi:rx="3.7572422"
       sodipodi:ry="3.7572422"
       d="m 9.4088922,5.8255982 a 3.7572422,3.7572422 0 1 1 -7.5144845,0 3.7572422,3.7572422 0 1 1 7.5144845,0 z" />
    <path
       transform="matrix(0.530726,0,0,0.530726,8.3972218,-1.0567083)"
       sodipodi:type="arc"
       style="fill:#2d2d2d;fill-opacity:1;stroke:none"
       id="path3015-7-5-3-5-5-6"
       sodipodi:cx="5.65165"
       sodipodi:cy="5.8255982"
       sodipodi:rx="3.7572422"
       sodipodi:ry="3.7572422"
       d="m 9.4088922,5.8255982 a 3.7572422,3.7572422 0 1 1 -7.5144845,0 3.7572422,3.7572422 0 1 1 7.5144845,0 z" />
    <path
       transform="matrix(0.530726,0,0,0.530726,12.940972,-1.0390283)"
       sodipodi:type="arc"
       style="fill:#2d2d2d;fill-opacity:1;stroke:none"
       id="path3015-7-5-3-5-5-6-0"
       sodipodi:cx="5.65165"
       sodipodi:cy="5.8255982"
       sodipodi:rx="3.7572422"
       sodipodi:ry="3.7572422"
       d="m 9.4088922,5.8255982 a 3.7572422,3.7572422 0 1 1 -7.5144845,0 3.7572422,3.7572422 0 1 1 7.5144845,0 z" />
    <path
       transform="matrix(0.530726,0,0,0.530726,-0.93565437,3.5603788)"
       sodipodi:type="arc"
       style="fill:#2d2d2d;fill-opacity:1;stroke:none"
       id="path3015-7-5-3-5-9"
       sodipodi:cx="5.65165"
       sodipodi:cy="5.8255982"
       sodipodi:rx="3.7572422"
       sodipodi:ry="3.7572422"
       d="m 9.4088922,5.8255982 a 3.7572422,3.7572422 0 1 1 -7.5144845,0 3.7572422,3.7572422 0 1 1 7.5144845,0 z" />
    <path
       transform="matrix(0.530726,0,0,0.530726,8.4022452,3.5611147)"
       sodipodi:type="arc"
       style="fill:#2d2d2d;fill-opacity:1;stroke:none"
       id="path3015-7-5-3-5-5-6-3"
       sodipodi:cx="5.65165"
       sodipodi:cy="5.8255982"
       sodipodi:rx="3.7572422"
       sodipodi:ry="3.7572422"
       d="m 9.4088922,5.8255982 a 3.7572422,3.7572422 0 1 1 -7.5144845,0 3.7572422,3.7572422 0 1 1 7.5144845,0 z" />
    <path
       transform="matrix(0.530726,0,0,0.530726,12.945995,3.5787947)"
       sodipodi:type="arc"
       style="fill:#2d2d2d;fill-opacity:1;stroke:none"
       id="path3015-7-5-3-5-5-6-0-7"
       sodipodi:cx="5.65165"
       sodipodi:cy="5.8255982"
       sodipodi:rx="3.7572422"
       sodipodi:ry="3.7572422"
       d="m 9.4088922,5.8255982 a 3.7572422,3.7572422 0 1 1 -7.5144845,0 3.7572422,3.7572422 0 1 1 7.5144845,0 z" />
    <path
       transform="matrix(0.530726,0,0,0.530726,-0.91316259,8.1273579)"
       sodipodi:type="arc"
       style="fill:#2d2d2d;fill-opacity:1;stroke:none"
       id="path3015-7-5-3-5-2"
       sodipodi:cx="5.65165"
       sodipodi:cy="5.8255982"
       sodipodi:rx="3.7572422"
       sodipodi:ry="3.7572422"
       d="m 9.4088922,5.8255982 a 3.7572422,3.7572422 0 1 1 -7.5144845,0 3.7572422,3.7572422 0 1 1 7.5144845,0 z" />
    <path
       transform="matrix(0.530726,0,0,0.530726,3.7572275,8.110414)"
       sodipodi:type="arc"
       style="fill:#2d2d2d;fill-opacity:1;stroke:none"
       id="path3015-7-5-3-5-5-23"
       sodipodi:cx="5.65165"
       sodipodi:cy="5.8255982"
       sodipodi:rx="3.7572422"
       sodipodi:ry="3.7572422"
       d="m 9.4088922,5.8255982 a 3.7572422,3.7572422 0 1 1 -7.5144845,0 3.7572422,3.7572422 0 1 1 7.5144845,0 z" />
    <path
       transform="matrix(0.530726,0,0,0.530726,12.968486,8.145774)"
       sodipodi:type="arc"
       style="fill:#2d2d2d;fill-opacity:1;stroke:none"
       id="path3015-7-5-3-5-5-6-0-0"
       sodipodi:cx="5.65165"
       sodipodi:cy="5.8255982"
       sodipodi:rx="3.7572422"
       sodipodi:ry="3.7572422"
       d="m 9.4088922,5.8255982 a 3.7572422,3.7572422 0 1 1 -7.5144845,0 3.7572422,3.7572422 0 1 1 7.5144845,0 z" />
    <path
       transform="matrix(0.530726,0,0,0.530726,-0.90813916,12.545155)"
       sodipodi:type="arc"
       style="fill:#2d2d2d;fill-opacity:1;stroke:none"
       id="path3015-7-5-3-5-9-9"
       sodipodi:cx="5.65165"
       sodipodi:cy="5.8255982"
       sodipodi:rx="3.7572422"
       sodipodi:ry="3.7572422"
       d="m 9.4088922,5.8255982 a 3.7572422,3.7572422 0 1 1 -7.5144845,0 3.7572422,3.7572422 0 1 1 7.5144845,0 z" />
    <path
       transform="matrix(0.530726,0,0,0.530726,3.7622515,12.528211)"
       sodipodi:type="arc"
       style="fill:#2d2d2d;fill-opacity:1;stroke:none"
       id="path3015-7-5-3-5-5-2-1"
       sodipodi:cx="5.65165"
       sodipodi:cy="5.8255982"
       sodipodi:rx="3.7572422"
       sodipodi:ry="3.7572422"
       d="m 9.4088922,5.8255982 a 3.7572422,3.7572422 0 1 1 -7.5144845,0 3.7572422,3.7572422 0 1 1 7.5144845,0 z" />
    <path
       transform="matrix(0.530726,0,0,0.530726,8.4297601,12.545891)"
       sodipodi:type="arc"
       style="fill:#2d2d2d;fill-opacity:1;stroke:none"
       id="path3015-7-5-3-5-5-6-3-1"
       sodipodi:cx="5.65165"
       sodipodi:cy="5.8255982"
       sodipodi:rx="3.7572422"
       sodipodi:ry="3.7572422"
       d="m 9.4088922,5.8255982 a 3.7572422,3.7572422 0 1 1 -7.5144845,0 3.7572422,3.7572422 0 1 1 7.5144845,0 z" />
    <path
       transform="matrix(0.530726,0,0,0.530726,17.61711,-1.0726094)"
       sodipodi:type="arc"
       style="fill:#2d2d2d;fill-opacity:1;stroke:none"
       id="path3015-7-5-3-5-59"
       sodipodi:cx="5.65165"
       sodipodi:cy="5.8255982"
       sodipodi:rx="3.7572422"
       sodipodi:ry="3.7572422"
       d="m 9.4088922,5.8255982 a 3.7572422,3.7572422 0 1 1 -7.5144845,0 3.7572422,3.7572422 0 1 1 7.5144845,0 z" />
    <path
       transform="matrix(0.530726,0,0,0.530726,26.95501,-1.0718734)"
       sodipodi:type="arc"
       style="fill:#2d2d2d;fill-opacity:1;stroke:none"
       id="path3015-7-5-3-5-5-6-6"
       sodipodi:cx="5.65165"
       sodipodi:cy="5.8255982"
       sodipodi:rx="3.7572422"
       sodipodi:ry="3.7572422"
       d="m 9.4088922,5.8255982 a 3.7572422,3.7572422 0 1 1 -7.5144845,0 3.7572422,3.7572422 0 1 1 7.5144845,0 z" />
    <path
       transform="matrix(0.530726,0,0,0.530726,17.622133,3.5452141)"
       sodipodi:type="arc"
       style="fill:#2d2d2d;fill-opacity:1;stroke:none"
       id="path3015-7-5-3-5-9-8"
       sodipodi:cx="5.65165"
       sodipodi:cy="5.8255982"
       sodipodi:rx="3.7572422"
       sodipodi:ry="3.7572422"
       d="m 9.4088922,5.8255982 a 3.7572422,3.7572422 0 1 1 -7.5144845,0 3.7572422,3.7572422 0 1 1 7.5144845,0 z" />
    <path
       transform="matrix(0.530726,0,0,0.530726,26.960034,3.5459498)"
       sodipodi:type="arc"
       style="fill:#2d2d2d;fill-opacity:1;stroke:none"
       id="path3015-7-5-3-5-5-6-3-4"
       sodipodi:cx="5.65165"
       sodipodi:cy="5.8255982"
       sodipodi:rx="3.7572422"
       sodipodi:ry="3.7572422"
       d="m 9.4088922,5.8255982 a 3.7572422,3.7572422 0 1 1 -7.5144845,0 3.7572422,3.7572422 0 1 1 7.5144845,0 z" />
    <path
       transform="matrix(0.530726,0,0,0.530726,17.644625,8.1121925)"
       sodipodi:type="arc"
       style="fill:#2d2d2d;fill-opacity:1;stroke:none"
       id="path3015-7-5-3-5-2-2"
       sodipodi:cx="5.65165"
       sodipodi:cy="5.8255982"
       sodipodi:rx="3.7572422"
       sodipodi:ry="3.7572422"
       d="m 9.4088922,5.8255982 a 3.7572422,3.7572422 0 1 1 -7.5144845,0 3.7572422,3.7572422 0 1 1 7.5144845,0 z" />
    <path
       transform="matrix(0.530726,0,0,0.530726,26.982525,8.1129292)"
       sodipodi:type="arc"
       style="fill:#2d2d2d;fill-opacity:1;stroke:none"
       id="path3015-7-5-3-5-5-6-8-7"
       sodipodi:cx="5.65165"
       sodipodi:cy="5.8255982"
       sodipodi:rx="3.7572422"
       sodipodi:ry="3.7572422"
       d="m 9.4088922,5.8255982 a 3.7572422,3.7572422 0 1 1 -7.5144845,0 3.7572422,3.7572422 0 1 1 7.5144845,0 z" />
    <path
       transform="matrix(0.530726,0,0,0.530726,26.987548,12.530725)"
       sodipodi:type="arc"
       style="fill:#2d2d2d;fill-opacity:1;stroke:none"
       id="path3015-7-5-3-5-5-6-3-1-5"
       sodipodi:cx="5.65165"
       sodipodi:cy="5.8255982"
       sodipodi:rx="3.7572422"
       sodipodi:ry="3.7572422"
       d="m 9.4088922,5.8255982 a 3.7572422,3.7572422 0 1 1 -7.5144845,0 3.7572422,3.7572422 0 1 1 7.5144845,0 z" />
    <path
       transform="matrix(0.530726,0,0,0.530726,8.4296454,16.929641)"
       sodipodi:type="arc"
       style="fill:#2d2d2d;fill-opacity:1;stroke:none"
       id="path3015-7-5-3-5-5-6-3-2"
       sodipodi:cx="5.65165"
       sodipodi:cy="5.8255982"
       sodipodi:rx="3.7572422"
       sodipodi:ry="3.7572422"
       d="m 9.4088922,5.8255982 a 3.7572422,3.7572422 0 1 1 -7.5144845,0 3.7572422,3.7572422 0 1 1 7.5144845,0 z" />
    <path
       transform="matrix(0.530726,0,0,0.530726,12.973395,16.947321)"
       sodipodi:type="arc"
       style="fill:#2d2d2d;fill-opacity:1;stroke:none"
       id="path3015-7-5-3-5-5-6-0-7-1"
       sodipodi:cx="5.65165"
       sodipodi:cy="5.8255982"
       sodipodi:rx="3.7572422"
       sodipodi:ry="3.7572422"
       d="m 9.4088922,5.8255982 a 3.7572422,3.7572422 0 1 1 -7.5144845,0 3.7572422,3.7572422 0 1 1 7.5144845,0 z" />
    <path
       transform="matrix(0.530726,0,0,0.530726,-0.88576219,21.495884)"
       sodipodi:type="arc"
       style="fill:#2d2d2d;fill-opacity:1;stroke:none"
       id="path3015-7-5-3-5-2-7"
       sodipodi:cx="5.65165"
       sodipodi:cy="5.8255982"
       sodipodi:rx="3.7572422"
       sodipodi:ry="3.7572422"
       d="m 9.4088922,5.8255982 a 3.7572422,3.7572422 0 1 1 -7.5144845,0 3.7572422,3.7572422 0 1 1 7.5144845,0 z" />
    <path
       transform="matrix(0.530726,0,0,0.530726,3.784628,21.478941)"
       sodipodi:type="arc"
       style="fill:#2d2d2d;fill-opacity:1;stroke:none"
       id="path3015-7-5-3-5-5-23-65"
       sodipodi:cx="5.65165"
       sodipodi:cy="5.8255982"
       sodipodi:rx="3.7572422"
       sodipodi:ry="3.7572422"
       d="m 9.4088922,5.8255982 a 3.7572422,3.7572422 0 1 1 -7.5144845,0 3.7572422,3.7572422 0 1 1 7.5144845,0 z" />
    <path
       transform="matrix(0.530726,0,0,0.530726,-0.88073864,25.913681)"
       sodipodi:type="arc"
       style="fill:#2d2d2d;fill-opacity:1;stroke:none"
       id="path3015-7-5-3-5-9-9-6"
       sodipodi:cx="5.65165"
       sodipodi:cy="5.8255982"
       sodipodi:rx="3.7572422"
       sodipodi:ry="3.7572422"
       d="m 9.4088922,5.8255982 a 3.7572422,3.7572422 0 1 1 -7.5144845,0 3.7572422,3.7572422 0 1 1 7.5144845,0 z" />
    <path
       transform="matrix(0.530726,0,0,0.530726,3.7896515,25.896737)"
       sodipodi:type="arc"
       style="fill:#2d2d2d;fill-opacity:1;stroke:none"
       id="path3015-7-5-3-5-5-2-1-3"
       sodipodi:cx="5.65165"
       sodipodi:cy="5.8255982"
       sodipodi:rx="3.7572422"
       sodipodi:ry="3.7572422"
       d="m 9.4088922,5.8255982 a 3.7572422,3.7572422 0 1 1 -7.5144845,0 3.7572422,3.7572422 0 1 1 7.5144845,0 z" />
    <path
       transform="matrix(0.530726,0,0,0.530726,8.457161,25.914416)"
       sodipodi:type="arc"
       style="fill:#2d2d2d;fill-opacity:1;stroke:none"
       id="path3015-7-5-3-5-5-6-3-1-9"
       sodipodi:cx="5.65165"
       sodipodi:cy="5.8255982"
       sodipodi:rx="3.7572422"
       sodipodi:ry="3.7572422"
       d="m 9.4088922,5.8255982 a 3.7572422,3.7572422 0 1 1 -7.5144845,0 3.7572422,3.7572422 0 1 1 7.5144845,0 z" />
    <path
       transform="matrix(0.530726,0,0,0.530726,17.649533,16.91374)"
       sodipodi:type="arc"
       style="fill:#2d2d2d;fill-opacity:1;stroke:none"
       id="path3015-7-5-3-5-9-8-4"
       sodipodi:cx="5.65165"
       sodipodi:cy="5.8255982"
       sodipodi:rx="3.7572422"
       sodipodi:ry="3.7572422"
       d="m 9.4088922,5.8255982 a 3.7572422,3.7572422 0 1 1 -7.5144845,0 3.7572422,3.7572422 0 1 1 7.5144845,0 z" />
    <path
       transform="matrix(0.530726,0,0,0.530726,22.319924,16.896796)"
       sodipodi:type="arc"
       style="fill:#2d2d2d;fill-opacity:1;stroke:none"
       id="path3015-7-5-3-5-5-2-10-8"
       sodipodi:cx="5.65165"
       sodipodi:cy="5.8255982"
       sodipodi:rx="3.7572422"
       sodipodi:ry="3.7572422"
       d="m 9.4088922,5.8255982 a 3.7572422,3.7572422 0 1 1 -7.5144845,0 3.7572422,3.7572422 0 1 1 7.5144845,0 z" />
    <path
       transform="matrix(0.530726,0,0,0.530726,26.987433,16.914476)"
       sodipodi:type="arc"
       style="fill:#2d2d2d;fill-opacity:1;stroke:none"
       id="path3015-7-5-3-5-5-6-3-4-5"
       sodipodi:cx="5.65165"
       sodipodi:cy="5.8255982"
       sodipodi:rx="3.7572422"
       sodipodi:ry="3.7572422"
       d="m 9.4088922,5.8255982 a 3.7572422,3.7572422 0 1 1 -7.5144845,0 3.7572422,3.7572422 0 1 1 7.5144845,0 z" />
    <path
       transform="matrix(0.530726,0,0,0.530726,17.672025,21.480719)"
       sodipodi:type="arc"
       style="fill:#2d2d2d;fill-opacity:1;stroke:none"
       id="path3015-7-5-3-5-2-2-5"
       sodipodi:cx="5.65165"
       sodipodi:cy="5.8255982"
       sodipodi:rx="3.7572422"
       sodipodi:ry="3.7572422"
       d="m 9.4088922,5.8255982 a 3.7572422,3.7572422 0 1 1 -7.5144845,0 3.7572422,3.7572422 0 1 1 7.5144845,0 z" />
    <path
       transform="matrix(0.530726,0,0,0.530726,22.342415,21.463776)"
       sodipodi:type="arc"
       style="fill:#2d2d2d;fill-opacity:1;stroke:none"
       id="path3015-7-5-3-5-5-23-6-4"
       sodipodi:cx="5.65165"
       sodipodi:cy="5.8255982"
       sodipodi:rx="3.7572422"
       sodipodi:ry="3.7572422"
       d="m 9.4088922,5.8255982 a 3.7572422,3.7572422 0 1 1 -7.5144845,0 3.7572422,3.7572422 0 1 1 7.5144845,0 z" />
    <path
       transform="matrix(0.530726,0,0,0.530726,27.009924,21.481455)"
       sodipodi:type="arc"
       style="fill:#2d2d2d;fill-opacity:1;stroke:none"
       id="path3015-7-5-3-5-5-6-8-7-5"
       sodipodi:cx="5.65165"
       sodipodi:cy="5.8255982"
       sodipodi:rx="3.7572422"
       sodipodi:ry="3.7572422"
       d="m 9.4088922,5.8255982 a 3.7572422,3.7572422 0 1 1 -7.5144845,0 3.7572422,3.7572422 0 1 1 7.5144845,0 z" />
    <path
       transform="matrix(0.530726,0,0,0.530726,17.677048,25.898515)"
       sodipodi:type="arc"
       style="fill:#2d2d2d;fill-opacity:1;stroke:none"
       id="path3015-7-5-3-5-9-9-0-0"
       sodipodi:cx="5.65165"
       sodipodi:cy="5.8255982"
       sodipodi:rx="3.7572422"
       sodipodi:ry="3.7572422"
       d="m 9.4088922,5.8255982 a 3.7572422,3.7572422 0 1 1 -7.5144845,0 3.7572422,3.7572422 0 1 1 7.5144845,0 z" />
    <path
       transform="matrix(0.530726,0,0,0.530726,22.347439,25.881571)"
       sodipodi:type="arc"
       style="fill:#2d2d2d;fill-opacity:1;stroke:none"
       id="path3015-7-5-3-5-5-2-1-4-9"
       sodipodi:cx="5.65165"
       sodipodi:cy="5.8255982"
       sodipodi:rx="3.7572422"
       sodipodi:ry="3.7572422"
       d="m 9.4088922,5.8255982 a 3.7572422,3.7572422 0 1 1 -7.5144845,0 3.7572422,3.7572422 0 1 1 7.5144845,0 z" />
    <path
       transform="matrix(0.530726,0,0,0.530726,27.014948,25.89925)"
       sodipodi:type="arc"
       style="fill:#2d2d2d;fill-opacity:1;stroke:none"
       id="path3015-7-5-3-5-5-6-3-1-5-6"
       sodipodi:cx="5.65165"
       sodipodi:cy="5.8255982"
       sodipodi:rx="3.7572422"
       sodipodi:ry="3.7572422"
       d="m 9.4088922,5.8255982 a 3.7572422,3.7572422 0 1 1 -7.5144845,0 3.7572422,3.7572422 0 1 1 7.5144845,0 z" />
  </g>
</svg>
