<?xml version="1.0" encoding="UTF-8" standalone="no"?>
<!-- Created with Inkscape (http://www.inkscape.org/) -->

<svg
   xmlns:dc="http://purl.org/dc/elements/1.1/"
   xmlns:cc="http://creativecommons.org/ns#"
   xmlns:rdf="http://www.w3.org/1999/02/22-rdf-syntax-ns#"
   xmlns:svg="http://www.w3.org/2000/svg"
   xmlns="http://www.w3.org/2000/svg"
   xmlns:sodipodi="http://sodipodi.sourceforge.net/DTD/sodipodi-0.dtd"
   xmlns:inkscape="http://www.inkscape.org/namespaces/inkscape"
   width="32px"
   height="32px"
   id="svg3004"
   version="1.1"
   inkscape:version="0.91 r13725"
   sodipodi:docname="slice2.svg"
   inkscape:export-filename="/home/k00ni/Documents/ow_cubeviz/extensions/cubeviz/public/images/attributeAndMeasure.png"
   inkscape:export-xdpi="90"
   inkscape:export-ydpi="90">
  <defs
     id="defs3006" />
  <sodipodi:namedview
     id="base"
     pagecolor="#ffffff"
     bordercolor="#666666"
     borderopacity="1.0"
     inkscape:pageopacity="0.0"
     inkscape:pageshadow="2"
     inkscape:zoom="20.536593"
     inkscape:cx="21.053821"
     inkscape:cy="15.709429"
     inkscape:current-layer="layer1"
     showgrid="true"
     inkscape:grid-bbox="true"
     inkscape:document-units="px"
     showguides="true"
     inkscape:guide-bbox="true"
     inkscape:window-width="1920"
     inkscape:window-height="1056"
     inkscape:window-x="0"
     inkscape:window-y="24"
     inkscape:window-maximized="1" />
  <metadata
     id="metadata3009">
    <rdf:RDF>
      <cc:Work
         rdf:about="">
        <dc:format>image/svg+xml</dc:format>
        <dc:type
           rdf:resource="http://purl.org/dc/dcmitype/StillImage" />
        <dc:title />
      </cc:Work>
    </rdf:RDF>
  </metadata>
  <g
     id="layer1"
     inkscape:label="Layer 1"
     inkscape:groupmode="layer">
    <path
       style="fill:#2d2d2d;fill-opacity:1;stroke:none"
       d="M 12.124372,9.3451833 A 2.8484105,2.8930494 0 0 1 9.2759616,12.238233 2.8484105,2.8930494 0 0 1 6.4275511,9.3451833 2.8484105,2.8930494 0 0 1 9.2759616,6.4521339 2.8484105,2.8930494 0 0 1 12.124372,9.3451833 Z"
       id="path3015-7-5-3-5"
       inkscape:connector-curvature="0" />
    <path
       style="fill:#2d2d2d;fill-opacity:1;stroke:none"
       d="m 25.463032,9.346251 a 2.8484105,2.8930494 0 0 1 -2.84841,2.893049 2.8484105,2.8930494 0 0 1 -2.84841,-2.893049 2.8484105,2.8930494 0 0 1 2.84841,-2.8930494 2.8484105,2.8930494 0 0 1 2.84841,2.8930494 z"
       id="path3015-7-5-3-5-5-6"
       inkscape:connector-curvature="0" />
    <path
       style="fill:#2d2d2d;fill-opacity:1;stroke:none"
       d="M 31.95352,9.3719017 A 2.8484105,2.8930494 0 0 1 29.105111,12.264951 2.8484105,2.8930494 0 0 1 26.2567,9.3719017 2.8484105,2.8930494 0 0 1 29.105111,6.4788523 2.8484105,2.8930494 0 0 1 31.95352,9.3719017 Z"
       id="path3015-7-5-3-5-5-6-0"
       inkscape:connector-curvature="0" />
    <path
       style="fill:#2d2d2d;fill-opacity:1;stroke:none"
       d="m 18.802936,16.020273 a 2.8484105,2.8930494 0 0 1 -2.848411,2.893049 2.8484105,2.8930494 0 0 1 -2.84841,-2.893049 2.8484105,2.8930494 0 0 1 2.84841,-2.893049 2.8484105,2.8930494 0 0 1 2.848411,2.893049 z"
       id="path3015-7-5-3-5-5-2"
       inkscape:connector-curvature="0" />
    <path
       style="fill:#2d2d2d;fill-opacity:1;stroke:none"
       d="m 31.960697,16.071574 a 2.8484105,2.8930494 0 0 1 -2.848411,2.893049 2.8484105,2.8930494 0 0 1 -2.84841,-2.893049 2.8484105,2.8930494 0 0 1 2.84841,-2.893049 2.8484105,2.8930494 0 0 1 2.848411,2.893049 z"
       id="path3015-7-5-3-5-5-6-0-7"
       inkscape:connector-curvature="0" />
    <path
       style="fill:#2d2d2d;fill-opacity:1;stroke:none"
       d="m 12.163676,22.670763 a 2.8484105,2.8930494 0 0 1 -2.8484103,2.89305 2.8484105,2.8930494 0 0 1 -2.8484106,-2.89305 2.8484105,2.8930494 0 0 1 2.8484106,-2.893049 2.8484105,2.8930494 0 0 1 2.8484103,2.893049 z"
       id="path3015-7-5-3-5-2"
       inkscape:connector-curvature="0" />
    <path
       style="fill:#2d2d2d;fill-opacity:1;stroke:none"
       d="m 25.502336,22.671831 a 2.8484105,2.8930494 0 0 1 -2.848411,2.893049 2.8484105,2.8930494 0 0 1 -2.84841,-2.893049 2.8484105,2.8930494 0 0 1 2.84841,-2.89305 2.8484105,2.8930494 0 0 1 2.848411,2.89305 z"
       id="path3015-7-5-3-5-5-6-8"
       inkscape:connector-curvature="0" />
    <path
       style="fill:#2d2d2d;fill-opacity:1;stroke:none"
       d="m 12.170852,29.080232 a 2.8484105,2.8930494 0 0 1 -2.8484106,2.89305 2.8484105,2.8930494 0 0 1 -2.8484106,-2.89305 2.8484105,2.8930494 0 0 1 2.8484106,-2.893049 2.8484105,2.8930494 0 0 1 2.8484106,2.893049 z"
       id="path3015-7-5-3-5-9-9"
       inkscape:connector-curvature="0" />
    <path
       style="fill:#2d2d2d;fill-opacity:1;stroke:none"
       d="m 18.84224,29.05565 a 2.8484105,2.8930494 0 0 1 -2.848411,2.893048 2.8484105,2.8930494 0 0 1 -2.84841,-2.893048 2.8484105,2.8930494 0 0 1 2.84841,-2.89305 2.8484105,2.8930494 0 0 1 2.848411,2.89305 z"
       id="path3015-7-5-3-5-5-2-1"
       inkscape:connector-curvature="0" />
    <path
       style="fill:#2d2d2d;fill-opacity:1;stroke:none"
       d="M 32,29.10695 A 2.8484105,2.8930494 0 0 1 29.15159,32 2.8484105,2.8930494 0 0 1 26.303179,29.10695 2.8484105,2.8930494 0 0 1 29.15159,26.213901 2.8484105,2.8930494 0 0 1 32,29.10695 Z"
       id="path3015-7-5-3-5-5-6-0-7-3"
       inkscape:connector-curvature="0" />
    <path
       style="fill:#2d2d2d;fill-opacity:1;stroke:none"
       d="M 5.6968207,22.697481 A 2.8484105,2.8930494 0 0 1 2.8484106,25.590531 2.8484105,2.8930494 0 0 1 0,22.697481 2.8484105,2.8930494 0 0 1 2.8484106,19.804432 2.8484105,2.8930494 0 0 1 5.6968207,22.697481 Z"
       id="path3015-7-5-3-5-2-3"
       inkscape:connector-curvature="0" />
    <path
       style="fill:#2d2d2d;fill-opacity:1;stroke:none"
       d="M 5.7039967,29.10695 A 2.8484105,2.8930494 0 0 1 2.8555863,32 2.8484105,2.8930494 0 0 1 0.0071757,29.10695 2.8484105,2.8930494 0 0 1 2.8555863,26.213901 2.8484105,2.8930494 0 0 1 5.7039967,29.10695 Z"
       id="path3015-7-5-3-5-9-9-6"
       inkscape:connector-curvature="0" />
    <path
       style="fill:#2d2d2d;fill-opacity:1;stroke:none"
       d="M 5.7213309,16.10695 A 2.8484105,2.8930494 0 0 1 2.8729208,19 2.8484105,2.8930494 0 0 1 0.02451019,16.10695 2.8484105,2.8930494 0 0 1 2.8729208,13.213901 2.8484105,2.8930494 0 0 1 5.7213309,16.10695 Z"
       id="path3015-7-5-3-5-2-3-7"
       inkscape:connector-curvature="0" />
    <path
       style="fill:#2d2d2d;fill-opacity:1;stroke:none"
       d="m 25.291266,2.9775651 a 2.8484105,2.8930494 0 0 1 -2.84841,2.89305 2.8484105,2.8930494 0 0 1 -2.848411,-2.89305 2.8484105,2.8930494 0 0 1 2.848411,-2.893049 2.8484105,2.8930494 0 0 1 2.84841,2.893049 z"
       id="path3015-7-5-3-5-9-9-5"
       inkscape:connector-curvature="0" />
    <path
       style="fill:#2d2d2d;fill-opacity:1;stroke:none"
       d="m 31.962654,2.9529831 a 2.8484105,2.8930494 0 0 1 -2.848411,2.893048 2.8484105,2.8930494 0 0 1 -2.84841,-2.893048 2.8484105,2.8930494 0 0 1 2.84841,-2.89305 2.8484105,2.8930494 0 0 1 2.848411,2.89305 z"
       id="path3015-7-5-3-5-5-2-1-3"
       inkscape:connector-curvature="0" />
    <path
       style="fill:#2d2d2d;fill-opacity:1;stroke:none"
       d="m 18.824411,3.0042831 a 2.8484105,2.8930494 0 0 1 -2.84841,2.89305 2.8484105,2.8930494 0 0 1 -2.848411,-2.89305 2.8484105,2.8930494 0 0 1 2.848411,-2.893049 2.8484105,2.8930494 0 0 1 2.84841,2.893049 z"
       id="path3015-7-5-3-5-9-9-6-5"
       inkscape:connector-curvature="0" />
    <path
       style="fill:#2d2d2d;fill-opacity:1;stroke:none"
       d="M 5.6968209,2.9786329 A 2.8484105,2.8930494 0 0 1 2.8484105,5.8716826 2.8484105,2.8930494 0 0 1 0,2.9786329 2.8484105,2.8930494 0 0 1 2.8484105,0.08558355 2.8484105,2.8930494 0 0 1 5.6968209,2.9786329 Z"
       id="path3015-7-5-3-5-6"
       inkscape:connector-curvature="0" />
  </g>
</svg>
