<?xml version="1.0" encoding="UTF-8" standalone="no"?>
<!-- Created with Inkscape (http://www.inkscape.org/) -->

<svg
   xmlns:dc="http://purl.org/dc/elements/1.1/"
   xmlns:cc="http://creativecommons.org/ns#"
   xmlns:rdf="http://www.w3.org/1999/02/22-rdf-syntax-ns#"
   xmlns:svg="http://www.w3.org/2000/svg"
   xmlns="http://www.w3.org/2000/svg"
   xmlns:sodipodi="http://sodipodi.sourceforge.net/DTD/sodipodi-0.dtd"
   xmlns:inkscape="http://www.inkscape.org/namespaces/inkscape"
   width="32"
   height="32"
   id="svg3765"
   version="1.1"
   inkscape:version="0.91 r13725"
   sodipodi:docname="sparql.svg"
   inkscape:export-filename="/home/k00ni/Documents/semicon/owl.png"
   inkscape:export-xdpi="90"
   inkscape:export-ydpi="90">
  <defs
     id="defs3767" />
  <sodipodi:namedview
     id="base"
     pagecolor="#ffffff"
     bordercolor="#666666"
     borderopacity="1.0"
     inkscape:pageopacity="0.0"
     inkscape:pageshadow="2"
     inkscape:zoom="21.4375"
     inkscape:cx="17.030892"
     inkscape:cy="8.4613872"
     inkscape:current-layer="layer1-9-3"
     showgrid="true"
     inkscape:grid-bbox="true"
     inkscape:document-units="px"
     inkscape:window-width="1920"
     inkscape:window-height="1056"
     inkscape:window-x="0"
     inkscape:window-y="24"
     inkscape:window-maximized="1"
     showguides="true"
     inkscape:guide-bbox="true" />
  <metadata
     id="metadata3770">
    <rdf:RDF>
      <cc:Work
         rdf:about="">
        <dc:format>image/svg+xml</dc:format>
        <dc:type
           rdf:resource="http://purl.org/dc/dcmitype/StillImage" />
        <dc:title />
      </cc:Work>
    </rdf:RDF>
  </metadata>
  <g
     id="layer1"
     inkscape:label="Layer 1"
     inkscape:groupmode="layer"
     transform="translate(0,-16)">
    <g
       inkscape:label="Layer 1"
       id="layer1-4"
       transform="translate(0.20202972,-1.9622142e-8)">
      <g
         transform="translate(-0.37059768,-0.09089584)"
         id="layer1-9"
         inkscape:label="Layer 1">
        <g
           inkscape:label="Layer 1"
           id="layer1-9-3"
           transform="translate(-44.951788,-4.1416259)">
          <g
             transform="matrix(2.1763878,0,0,1.8386827,-47.119784,-52.152227)"
             style="font-style:normal;font-weight:normal;font-size:13.46774006px;line-height:125%;font-family:Sans;letter-spacing:0px;word-spacing:0px;fill:#2d2d2d;fill-opacity:1;stroke:none"
             id="text3001">
            <path
               d="m 42.382218,47.020839 c 0.538708,6e-6 0.927776,-0.155621 1.167204,-0.466882 0.239424,-0.311247 0.359137,-0.718272 0.35914,-1.221075 l 0,-2.711505 c -3e-6,-0.514756 0.06584,-0.969666 0.197526,-1.364731 0.131683,-0.407013 0.347166,-0.748195 0.646452,-1.023549 0.311251,-0.275327 0.718276,-0.484825 1.221075,-0.628494 0.514762,-0.143642 1.149242,-0.21547 1.903441,-0.215484 l 0.35914,0 0,1.554964 -0.448925,0 c -2.347041,0.0776 -2.12035,0.585258 -2.311886,0.824673 -0.179575,0.239438 -0.203603,0.765727 -0.203598,1.268511 l 0,2.38828 c 0,0.622516 -0.0838,1.149254 -0.251398,1.580215 -0.167603,0.430973 -0.5028,0.802084 -1.005591,1.113333 0.502791,0.311259 0.837988,0.68237 1.005591,1.113333 0.167594,0.430972 0.251398,0.957709 0.251398,1.580215 l 0,2.388279 c -5e-6,0.502796 0.188416,1.223056 0.367991,1.462483 0.520322,0.549782 1.444385,0.397931 1.9831,0.397935 l 0.613318,4e-6 0,1.710143 -0.35914,0 c -0.754199,-4e-6 -1.388679,-0.07183 -1.903441,-0.215484 -0.502799,-0.143659 -0.909824,-0.353157 -1.221075,-0.628495 -0.299286,-0.275342 -0.514769,-0.616525 -0.646452,-1.023548 -0.131686,-0.395055 -0.197529,-0.849965 -0.197526,-1.364731 l 0,-2.711505 c -3e-6,-0.502793 -0.119716,-0.909817 -0.35914,-1.221075 -0.239428,-0.311251 -0.628496,-0.466878 -1.167204,-0.466882 l 0,-2.118924"
               style="font-variant:normal;font-weight:bold;font-stretch:normal;font-size:17.95698738px;font-family:Ubuntu;-inkscape-font-specification:'Ubuntu Bold';fill:#2d2d2d"
               id="path2992"
               inkscape:connector-curvature="0"
               sodipodi:nodetypes="ccsscccccccccssccsccsccscccssccc" />
          </g>
          <text
             xml:space="preserve"
             style="font-style:normal;font-weight:normal;font-size:104.4803772px;line-height:125%;font-family:Sans;letter-spacing:0px;word-spacing:0px;fill:#2d2d2d;fill-opacity:1;stroke:none"
             x="61.668251"
             y="40.109688"
             id="text3015"
             sodipodi:linespacing="125%"
             transform="scale(1.0015825,0.99841997)"><tspan
               sodipodi:role="line"
               id="tspan3017"
               x="61.668251"
               y="40.109688"
               style="font-weight:bold;font-size:26.1200943px;-inkscape-font-specification:'Sans Bold';fill:#2d2d2d;fill-opacity:1">}</tspan></text>
        </g>
      </g>
    </g>
  </g>
</svg>
