<?xml version="1.0" encoding="UTF-8" standalone="no"?>
<!-- Created with Inkscape (http://www.inkscape.org/) -->

<svg
   xmlns:dc="http://purl.org/dc/elements/1.1/"
   xmlns:cc="http://creativecommons.org/ns#"
   xmlns:rdf="http://www.w3.org/1999/02/22-rdf-syntax-ns#"
   xmlns:svg="http://www.w3.org/2000/svg"
   xmlns="http://www.w3.org/2000/svg"
   xmlns:sodipodi="http://sodipodi.sourceforge.net/DTD/sodipodi-0.dtd"
   xmlns:inkscape="http://www.inkscape.org/namespaces/inkscape"
   width="32"
   height="32"
   id="svg3765"
   version="1.1"
   inkscape:version="0.48.3.1 r9886"
   sodipodi:docname="sparql4.svg"
   inkscape:export-filename="/home/k00ni/Documents/semicon/owl.png"
   inkscape:export-xdpi="90"
   inkscape:export-ydpi="90">
  <defs
     id="defs3767" />
  <sodipodi:namedview
     id="base"
     pagecolor="#ffffff"
     bordercolor="#666666"
     borderopacity="1.0"
     inkscape:pageopacity="0.0"
     inkscape:pageshadow="2"
     inkscape:zoom="19.79899"
     inkscape:cx="5.9918126"
     inkscape:cy="14.010996"
     inkscape:current-layer="layer1-9-3"
     showgrid="true"
     inkscape:grid-bbox="true"
     inkscape:document-units="px"
     inkscape:window-width="1920"
     inkscape:window-height="1056"
     inkscape:window-x="0"
     inkscape:window-y="24"
     inkscape:window-maximized="1"
     showguides="true"
     inkscape:guide-bbox="true" />
  <metadata
     id="metadata3770">
    <rdf:RDF>
      <cc:Work
         rdf:about="">
        <dc:format>image/svg+xml</dc:format>
        <dc:type
           rdf:resource="http://purl.org/dc/dcmitype/StillImage" />
        <dc:title />
      </cc:Work>
    </rdf:RDF>
  </metadata>
  <g
     id="layer1"
     inkscape:label="Layer 1"
     inkscape:groupmode="layer"
     transform="translate(0,-16)">
    <g
       inkscape:label="Layer 1"
       id="layer1-4"
       transform="translate(0.20202972,-1.9622142e-8)">
      <g
         transform="translate(-0.37059768,-0.09089584)"
         id="layer1-9"
         inkscape:label="Layer 1">
        <g
           inkscape:label="Layer 1"
           id="layer1-9-3"
           transform="translate(-44.951788,-4.1416259)">
          <text
             xml:space="preserve"
             style="font-size:22.09257507px;font-style:normal;font-weight:normal;line-height:125%;letter-spacing:0px;word-spacing:0px;fill:#2d2d2d;fill-opacity:1;stroke:none;font-family:Sans"
             x="49.623981"
             y="41.202984"
             id="text3001"
             sodipodi:linespacing="125%"
             transform="scale(0.89311224,1.1196801)"><tspan
               sodipodi:role="line"
               id="tspan3003"
               x="49.623981"
               y="41.202984"
               style="font-size:29.45676422px;font-style:normal;font-variant:normal;font-weight:bold;font-stretch:normal;fill:#2d2d2d;fill-opacity:1;font-family:Ubuntu;-inkscape-font-specification:Ubuntu Bold">{</tspan></text>
          <path
             inkscape:connector-curvature="0"
             id="path2990"
             style="font-size:12px;font-style:normal;font-variant:normal;font-weight:bold;font-stretch:normal;line-height:125%;letter-spacing:0px;word-spacing:0px;fill:#2d2d2d;fill-opacity:1;stroke:none;font-family:Ubuntu;-inkscape-font-specification:Ubuntu Bold"
             d="m 61.19393,26.523606 c -0.628464,1.5e-5 -1.222006,0.07859 -1.780635,0.235672 -0.558632,0.157137 -1.178363,0.410257 -1.859191,0.759389 L 56.4543,24.559671 c 0.680832,-0.436411 1.48386,-0.768099 2.409093,-0.99506 0.92523,-0.244383 1.833002,-0.366584 2.723323,-0.366601 1.117255,1.7e-5 2.033757,0.148409 2.74951,0.445159 0.733193,0.29679 1.30928,0.672119 1.728262,1.125989 0.418964,0.453902 0.707006,0.951433 0.864132,1.492591 0.174571,0.541188 0.261846,1.056173 0.261858,1.544961 -1.2e-5,0.488815 -0.07858,0.942702 -0.235673,1.361661 -0.139678,0.401528 -0.322966,0.776857 -0.549902,1.12599 -0.226951,0.349156 -0.48881,0.680842 -0.785573,0.995061 -0.296782,0.314238 -0.584826,0.61101 -0.864132,0.890317 -0.209486,0.209486 -0.427707,0.436439 -0.654644,0.680831 -0.22695,0.226952 -0.436437,0.471353 -0.628461,0.733202 -0.174571,0.261864 -0.322964,0.54118 -0.445157,0.837945 -0.122201,0.279323 -0.183301,0.567366 -0.183301,0.864132 -6e-6,0.06983 -6e-6,0.174573 0,0.314229 -6e-6,0.139658 0.0087,0.261862 0.02619,0.366601 l -3.456526,0 c -0.03491,-0.174571 -0.0611,-0.366595 -0.07857,-0.576088 -2e-6,-0.226936 -2e-6,-0.418965 0,-0.576086 -2e-6,-0.488795 0.0611,-0.925226 0.183301,-1.309291 0.122201,-0.401506 0.279313,-0.768107 0.471344,-1.099802 0.209486,-0.349136 0.445155,-0.672094 0.707017,-0.968875 0.261854,-0.296761 0.53244,-0.584805 0.81176,-0.864131 0.401511,-0.401505 0.768112,-0.794292 1.099803,-1.178362 0.33168,-0.401501 0.497525,-0.855389 0.49753,-1.361662 -5e-6,-0.418959 -0.165843,-0.776831 -0.49753,-1.073616 -0.314235,-0.296758 -0.785578,-0.445145 -1.414032,-0.44516 M 63.6292,39.695063 c -6e-6,0.768117 -0.253135,1.361662 -0.759388,1.780635 -0.488808,0.418972 -1.047436,0.628459 -1.67589,0.628459 -0.628465,0 -1.195821,-0.209487 -1.702078,-0.628459 -0.488803,-0.418973 -0.733205,-1.012518 -0.733202,-1.780635 -3e-6,-0.768114 0.244399,-1.361658 0.733202,-1.780635 0.506257,-0.418968 1.073613,-0.628454 1.702078,-0.628458 0.628454,4e-6 1.187082,0.209486 1.67589,0.628458 0.506253,0.418977 0.759382,1.012521 0.759388,1.780635" />
          <path
             inkscape:connector-curvature="0"
             id="path2992"
             style="font-size:12px;font-style:normal;font-variant:normal;font-weight:bold;font-stretch:normal;line-height:125%;letter-spacing:0px;word-spacing:0px;fill:#2d2d2d;fill-opacity:1;stroke:none;font-family:Ubuntu;-inkscape-font-specification:Ubuntu Bold"
             d="m 71.300558,47.111522 c 0.715739,10e-7 1.221998,-0.06983 1.518776,-0.209487 0.296764,-0.139658 0.44515,-0.410242 0.445158,-0.81176 -8e-6,-0.314225 -0.192029,-0.584812 -0.576086,-0.81176 -0.384065,-0.244396 -0.968882,-0.514983 -1.754448,-0.811759 -0.611007,-0.226939 -1.169638,-0.462612 -1.675893,-0.707018 -0.488805,-0.244393 -0.907775,-0.532437 -1.256918,-0.864131 -0.349146,-0.349137 -0.619732,-0.759381 -0.81176,-1.230732 -0.192028,-0.471336 -0.288045,-1.038694 -0.288043,-1.702077 -2e-6,-1.291822 0.480071,-2.313068 1.440219,-3.063739 0.960142,-0.750646 2.27816,-1.125975 3.954056,-1.125989 0.837936,1.4e-5 1.640967,0.07858 2.409092,0.235673 0.768106,0.139678 1.379108,0.296785 1.833007,0.471344 l -0.680831,3.037552 c -0.453898,-0.157092 -0.951426,-0.29676 -1.49259,-0.418972 -0.523725,-0.122178 -1.117271,-0.18328 -1.780635,-0.1833 -1.222011,10e-6 -1.83301,0.340426 -1.833006,1.021246 -4e-6,0.157114 0.02619,0.29678 0.07857,0.418972 0.05238,0.122201 0.157115,0.24441 0.314229,0.366601 0.157115,0.104749 0.366595,0.226953 0.628459,0.366602 0.279308,0.122201 0.628453,0.261867 1.047433,0.418973 0.855393,0.314236 1.562409,0.628465 2.121048,0.942689 0.558621,0.296778 0.99505,0.628464 1.309291,0.995059 0.331676,0.349151 0.558619,0.741936 0.680831,1.178362 0.139658,0.436434 0.209486,0.942693 0.209486,1.518776 -1.1e-5,1.361663 -0.514998,2.391637 -1.544962,3.089924 -1.012527,0.698288 -2.452745,1.047432 -4.320658,1.047432 -1.222006,0 -2.243253,-0.10475 -3.063736,-0.31423 -0.803035,-0.209486 -1.361665,-0.384059 -1.675893,-0.523715 l 0.654645,-3.168483 c 0.663372,0.261862 1.344202,0.471348 2.042493,0.62846 0.698284,0.139657 1.387843,0.209487 2.068678,0.209487" />
        </g>
      </g>
    </g>
  </g>
</svg>
