<?xml version="1.0" encoding="UTF-8" standalone="no"?>
<!-- Created with Inkscape (http://www.inkscape.org/) -->

<svg
   xmlns:dc="http://purl.org/dc/elements/1.1/"
   xmlns:cc="http://creativecommons.org/ns#"
   xmlns:rdf="http://www.w3.org/1999/02/22-rdf-syntax-ns#"
   xmlns:svg="http://www.w3.org/2000/svg"
   xmlns="http://www.w3.org/2000/svg"
   xmlns:sodipodi="http://sodipodi.sourceforge.net/DTD/sodipodi-0.dtd"
   xmlns:inkscape="http://www.inkscape.org/namespaces/inkscape"
   width="32"
   height="32"
   id="svg2985"
   version="1.1"
   inkscape:version="0.91 r13725"
   sodipodi:docname="star.svg">
  <defs
     id="defs2987" />
  <sodipodi:namedview
     id="base"
     pagecolor="#ffffff"
     bordercolor="#666666"
     borderopacity="1.0"
     inkscape:pageopacity="0.0"
     inkscape:pageshadow="2"
     inkscape:zoom="20.355211"
     inkscape:cx="8.2944115"
     inkscape:cy="15.338875"
     inkscape:current-layer="layer1"
     showgrid="true"
     inkscape:grid-bbox="true"
     inkscape:document-units="px"
     inkscape:window-width="1920"
     inkscape:window-height="1056"
     inkscape:window-x="0"
     inkscape:window-y="24"
     inkscape:window-maximized="1" />
  <metadata
     id="metadata2990">
    <rdf:RDF>
      <cc:Work
         rdf:about="">
        <dc:format>image/svg+xml</dc:format>
        <dc:type
           rdf:resource="http://purl.org/dc/dcmitype/StillImage" />
        <dc:title />
      </cc:Work>
    </rdf:RDF>
  </metadata>
  <g
     id="layer1"
     inkscape:label="Layer 1"
     inkscape:groupmode="layer"
     transform="translate(0,16)">
    <path
       style="fill:#2d2d2d;fill-opacity:1;stroke:none"
       d="m 15.665957,-16 a 4.4252592,4.3308384 0 0 0 -4.425345,4.331033 4.4252592,4.3308384 0 0 0 3.574167,4.2489461 l 0.03506,6.3871009 A 4.4252592,4.3308384 0 0 0 12.512512,0.35082104 L 8.5117778,-2.4166621 A 4.4252592,4.3308384 0 0 0 8.8506907,-4.0759791 4.4252592,4.3308384 0 0 0 4.4253454,-8.4070118 4.4252592,4.3308384 0 0 0 0,-4.0759791 4.4252592,4.3308384 0 0 0 4.4253454,0.25505375 4.4252592,4.3308384 0 0 0 7.522308,-0.98210489 l 4.121493,2.84956919 a 4.4252592,4.3308384 0 0 0 -0.208412,1.3114275 4.4252592,4.3308384 0 0 0 0.39345,1.7746295 L 7.1015885,8.1920237 A 4.4252592,4.3308384 0 0 0 4.4701441,7.3379342 4.4252592,4.3308384 0 0 0 0.04479884,11.668967 4.4252592,4.3308384 0 0 0 4.4701441,16 4.4252592,4.3308384 0 0 0 8.8954895,11.668967 4.4252592,4.3308384 0 0 0 8.2722014,9.4604533 L 12.835839,6.3333538 a 4.4252592,4.3308384 0 0 0 3.024895,1.1765709 4.4252592,4.3308384 0 0 0 3.013209,-1.1628898 l 4.701929,3.2189583 A 4.4252592,4.3308384 0 0 0 23.018809,11.668967 4.4252592,4.3308384 0 0 0 27.444154,16 4.4252592,4.3308384 0 0 0 31.869499,11.668967 4.4252592,4.3308384 0 0 0 27.444154,7.3379342 4.4252592,4.3308384 0 0 0 24.760119,8.2291576 L 19.914054,4.9105235 A 4.4252592,4.3308384 0 0 0 20.286079,3.1788918 4.4252592,4.3308384 0 0 0 20.034816,1.7560615 L 24.28681,-1.0622367 A 4.4252592,4.3308384 0 0 0 27.574655,0.3762291 4.4252592,4.3308384 0 0 0 32,-3.9548038 a 4.4252592,4.3308384 0 0 0 -4.425345,-4.3310329 4.4252592,4.3308384 0 0 0 -4.425346,4.3310329 4.4252592,4.3308384 0 0 0 0.284375,1.5244606 L 19.214803,0.36254792 A 4.4252592,4.3308384 0 0 0 16.791771,-1.0524641 l -0.03506,-6.4242355 A 4.4252592,4.3308384 0 0 0 20.089355,-11.668967 4.4252592,4.3308384 0 0 0 15.665957,-16 Z"
       id="path3012-9-6-0-2-2"
       inkscape:connector-curvature="0" />
  </g>
</svg>
