<?xml version="1.0" encoding="UTF-8" standalone="no"?>
<!-- Created with Inkscape (http://www.inkscape.org/) -->

<svg
   xmlns:dc="http://purl.org/dc/elements/1.1/"
   xmlns:cc="http://creativecommons.org/ns#"
   xmlns:rdf="http://www.w3.org/1999/02/22-rdf-syntax-ns#"
   xmlns:svg="http://www.w3.org/2000/svg"
   xmlns="http://www.w3.org/2000/svg"
   xmlns:sodipodi="http://sodipodi.sourceforge.net/DTD/sodipodi-0.dtd"
   xmlns:inkscape="http://www.inkscape.org/namespaces/inkscape"
   width="32"
   height="32"
   id="svg3765"
   version="1.1"
   inkscape:version="0.48.3.1 r9886"
   sodipodi:docname="xsd.svg"
   inkscape:export-filename="/home/k00ni/Documents/semicon/owl.png"
   inkscape:export-xdpi="90"
   inkscape:export-ydpi="90">
  <defs
     id="defs3767" />
  <sodipodi:namedview
     id="base"
     pagecolor="#ffffff"
     bordercolor="#666666"
     borderopacity="1.0"
     inkscape:pageopacity="0.0"
     inkscape:pageshadow="2"
     inkscape:zoom="14"
     inkscape:cx="-4.1112139"
     inkscape:cy="5.4837398"
     inkscape:current-layer="layer1-9-3"
     showgrid="true"
     inkscape:grid-bbox="true"
     inkscape:document-units="px"
     inkscape:window-width="1920"
     inkscape:window-height="1056"
     inkscape:window-x="0"
     inkscape:window-y="24"
     inkscape:window-maximized="1"
     showguides="true"
     inkscape:guide-bbox="true" />
  <metadata
     id="metadata3770">
    <rdf:RDF>
      <cc:Work
         rdf:about="">
        <dc:format>image/svg+xml</dc:format>
        <dc:type
           rdf:resource="http://purl.org/dc/dcmitype/StillImage" />
        <dc:title />
      </cc:Work>
    </rdf:RDF>
  </metadata>
  <g
     id="layer1"
     inkscape:label="Layer 1"
     inkscape:groupmode="layer"
     transform="translate(0,-16)">
    <g
       inkscape:label="Layer 1"
       id="layer1-4"
       transform="translate(0.20202972,-1.9622142e-8)">
      <g
         transform="translate(-0.37059768,-0.09089584)"
         id="layer1-9"
         inkscape:label="Layer 1">
        <g
           inkscape:label="Layer 1"
           id="layer1-9-3"
           transform="translate(-44.951788,-4.1416259)">
          <g
             transform="matrix(1.1135417,-1.1135417,1.1135417,1.1135417,-22.426611,-33.570506)"
             style="font-size:25.44488335px;font-style:normal;font-weight:normal;line-height:125%;letter-spacing:0px;word-spacing:0px;fill:#2d2d2d;fill-opacity:1;stroke:none;font-family:Sans"
             id="text2993-4-5">
            <path
               d="M 2.6178563,71.777367 C 2.4530058,71.447674 2.2711062,71.115139 2.0721571,70.77976 1.8788853,70.4387 1.654353,70.091954 1.3985596,69.739521 1.3189757,69.841842 1.2166572,69.983951 1.0916038,70.165849 0.97222968,70.34775 0.85001592,70.541018 0.72496215,70.745654 0.60558839,70.950292 0.49190116,71.146403 0.38390014,71.333986 0.27589544,71.52157 0.19631438,71.669364 0.14515673,71.777367 l -1.51772593,0 c 0.2501118,-0.460434 0.54001421,-0.943604 0.86970811,-1.449514 0.33537636,-0.505907 0.70770201,-1.043079 1.11697809,-1.611518 l -1.9014207,-2.847868 1.61151799,0 1.15108431,1.841735 1.1255046,-1.841735 1.517726,0 -1.8758411,2.864921 c 0.4774826,0.619599 0.8782301,1.193719 1.2022436,1.722363 0.3240037,0.522963 0.5797999,0.963501 0.7673895,1.321616 l -1.5944649,0"
               style="font-size:8.52655029px;font-variant:normal;font-weight:bold;font-stretch:normal;fill:#2d2d2d;font-family:Ubuntu;-inkscape-font-specification:Ubuntu Bold"
               id="path3007"
               inkscape:connector-curvature="0" />
            <path
               d="m 6.6215017,70.939484 c 0.1875816,1e-6 0.3410593,-0.01421 0.4604337,-0.04263 0.1250532,-0.0341 0.2245295,-0.07674 0.2984292,-0.127898 0.073894,-0.05684 0.1250529,-0.122212 0.153478,-0.196111 0.028419,-0.07389 0.04263,-0.156318 0.042633,-0.247269 C 7.5764724,70.132309 7.4855226,69.973147 7.303626,69.848089 7.1217232,69.717348 6.8090833,69.578081 6.3657052,69.430285 6.1724348,69.362075 5.9791666,69.285336 5.7858997,69.200068 5.59263,69.109121 5.419257,68.998276 5.2657802,68.867532 5.1123015,68.731111 4.9872455,68.569107 4.890612,68.381519 4.7939773,68.188254 4.7456602,67.955196 4.7456606,67.682342 c -4e-7,-0.272845 0.051159,-0.517273 0.1534779,-0.733283 0.1023179,-0.221685 0.2472692,-0.409269 0.4348541,-0.562753 0.1875829,-0.153472 0.4149573,-0.270001 0.682124,-0.349588 0.2671633,-0.08526 0.5684344,-0.127892 0.9038143,-0.127899 0.3979027,7e-6 0.7418066,0.04264 1.0317126,0.127899 0.2898988,0.08527 0.528642,0.179063 0.7162302,0.281376 L 8.284179,67.36686 C 8.1193285,67.281599 7.9345868,67.207702 7.7299532,67.145169 7.5309972,67.076962 7.2894118,67.042856 7.0051964,67.042851 c -0.3183269,5e-6 -0.5485435,0.04548 -0.6906505,0.136424 -0.1364267,0.08527 -0.204639,0.218853 -0.2046372,0.400748 -1.8e-6,0.108008 0.025578,0.198957 0.076739,0.27285 0.051157,0.0739 0.1222119,0.142113 0.2131638,0.204637 0.096632,0.05685 0.2046349,0.110849 0.3240089,0.162005 0.1250535,0.04548 0.2614782,0.0938 0.4092744,0.144951 0.3069527,0.113691 0.5741177,0.227378 0.8014957,0.341062 0.2273709,0.108006 0.4149548,0.235904 0.5627523,0.383695 0.1534736,0.147796 0.2671608,0.321169 0.341062,0.520119 0.073892,0.198955 0.1108406,0.440541 0.1108452,0.724757 -4.6e-6,0.551385 -0.1932729,0.980554 -0.5798054,1.287509 -0.3865406,0.301272 -0.9691876,0.451907 -1.7479428,0.451907 -0.2614829,0 -0.4973839,-0.01705 -0.7077037,-0.05116 -0.210323,-0.02842 -0.3979069,-0.06537 -0.5627523,-0.110845 -0.1591632,-0.04547 -0.29843,-0.09379 -0.417801,-0.144951 -0.1136878,-0.05116 -0.210322,-0.09948 -0.2899027,-0.144952 l 0.3751682,-1.057292 c 0.1762145,0.09663 0.3922202,0.184743 0.6480178,0.264323 0.2614793,0.0739 0.5798035,0.110846 0.9549737,0.110845"
               style="font-size:8.52655029px;font-variant:normal;font-weight:bold;font-stretch:normal;fill:#2d2d2d;font-family:Ubuntu;-inkscape-font-specification:Ubuntu Bold"
               id="path3009"
               inkscape:connector-curvature="0" />
            <path
               d="m 11.429114,70.694495 c 0.06253,0.0057 0.13358,0.01137 0.213163,0.01705 0.08526,10e-7 0.18474,10e-7 0.29843,0 0.665067,10e-7 1.156765,-0.167688 1.475093,-0.503067 0.324004,-0.335375 0.486009,-0.798651 0.486013,-1.389827 -4e-6,-0.619593 -0.153482,-1.088553 -0.460434,-1.406881 -0.306959,-0.31832 -0.792972,-0.477482 -1.45804,-0.477487 -0.09095,5e-6 -0.184744,0.0028 -0.281376,0.0085 -0.09664,4e-6 -0.187586,0.0057 -0.272849,0.01705 l 0,3.734629 m 3.845474,-1.875841 c -6e-6,0.511595 -0.07959,0.957818 -0.238744,1.338668 -0.159167,0.380854 -0.386542,0.696336 -0.682124,0.946447 -0.289907,0.250113 -0.64518,0.437697 -1.065818,0.562752 -0.420647,0.125057 -0.892449,0.187585 -1.415408,0.187585 -0.238745,0 -0.517279,-0.01137 -0.835602,-0.03411 -0.318326,-0.01705 -0.630965,-0.05684 -0.93792,-0.119371 l 0,-5.755422 c 0.306955,-0.05684 0.625279,-0.09379 0.954973,-0.110845 0.335376,-0.02273 0.622436,-0.0341 0.861182,-0.03411 0.505906,6e-6 0.963497,0.05685 1.372775,0.170531 0.414954,0.113693 0.770227,0.29275 1.065818,0.537173 0.295582,0.244432 0.522957,0.557072 0.682124,0.93792 0.159157,0.380857 0.238738,0.838448 0.238744,1.372775"
               style="font-size:8.52655029px;font-variant:normal;font-weight:bold;font-stretch:normal;fill:#2d2d2d;font-family:Ubuntu;-inkscape-font-specification:Ubuntu Bold"
               id="path3011"
               inkscape:connector-curvature="0" />
          </g>
        </g>
      </g>
    </g>
  </g>
</svg>
