<?xml version="1.0" encoding="UTF-8" standalone="no"?>
<!-- Created with Inkscape (http://www.inkscape.org/) -->

<svg
   xmlns:dc="http://purl.org/dc/elements/1.1/"
   xmlns:cc="http://creativecommons.org/ns#"
   xmlns:rdf="http://www.w3.org/1999/02/22-rdf-syntax-ns#"
   xmlns:svg="http://www.w3.org/2000/svg"
   xmlns="http://www.w3.org/2000/svg"
   xmlns:sodipodi="http://sodipodi.sourceforge.net/DTD/sodipodi-0.dtd"
   xmlns:inkscape="http://www.inkscape.org/namespaces/inkscape"
   width="32px"
   height="32px"
   id="svg3004"
   version="1.1"
   inkscape:version="0.48.3.1 r9886"
   sodipodi:docname="spline.svg"
   inkscape:export-filename="/home/k00ni/Documents/ow_cubeviz/extensions/cubeviz/public/images/spline.png"
   inkscape:export-xdpi="90"
   inkscape:export-ydpi="90">
  <defs
     id="defs3006" />
  <sodipodi:namedview
     id="base"
     pagecolor="#ffffff"
     bordercolor="#666666"
     borderopacity="1.0"
     inkscape:pageopacity="0.0"
     inkscape:pageshadow="2"
     inkscape:zoom="15.836083"
     inkscape:cx="25.766383"
     inkscape:cy="7.7410609"
     inkscape:current-layer="layer1"
     showgrid="true"
     inkscape:grid-bbox="true"
     inkscape:document-units="px"
     showguides="true"
     inkscape:guide-bbox="true"
     inkscape:window-width="1920"
     inkscape:window-height="1056"
     inkscape:window-x="0"
     inkscape:window-y="24"
     inkscape:window-maximized="1" />
  <metadata
     id="metadata3009">
    <rdf:RDF>
      <cc:Work
         rdf:about="">
        <dc:format>image/svg+xml</dc:format>
        <dc:type
           rdf:resource="http://purl.org/dc/dcmitype/StillImage" />
        <dc:title />
      </cc:Work>
    </rdf:RDF>
  </metadata>
  <g
     id="layer1"
     inkscape:label="Layer 1"
     inkscape:groupmode="layer">
    <path
       style="fill:#2d2d2d;fill-opacity:1;stroke:#2d2d2d;stroke-width:2.2953887;stroke-miterlimit:4;stroke-opacity:1;stroke-dasharray:none"
       id="path4375"
       d="M 3.274097,8.8050044 C 3.3976116,8.5532513 3.5226304,8.3022916 3.6468864,8.0508362 3.7812846,7.7763577 3.915809,7.5019471 4.0517324,7.2288603 4.2154669,6.9010566 4.4074278,6.6032939 4.6183331,6.3312766 5.1385036,5.6660692 5.7998516,5.2497815 6.4099438,4.7686194 6.7321414,4.5385143 7.0701951,4.3539477 7.4067605,4.1674973 7.6284337,4.0407077 7.8618171,3.9787827 8.1002645,3.9565302 c 0.1948881,-0.037858 0.3695905,0.021851 0.5536091,0.099813 0.1813326,0.084239 0.346468,0.1956237 0.5109589,0.3268349 0.179455,0.1831493 0.2954389,0.4480828 0.4108889,0.7049273 0.120593,0.2928186 0.190739,0.6156574 0.2540475,0.9382851 0.057576,0.335782 0.1366385,0.6625797 0.2417681,0.9760166 0.118745,0.3829805 0.265781,0.7478519 0.416525,1.1086484 0.15047,0.3709155 0.3237,0.7232405 0.476765,1.0920384 0.120304,0.3172136 0.205013,0.6564354 0.296019,0.9905811 0.105612,0.442077 0.151706,0.900426 0.189831,1.360548 0.03226,0.455053 0.02237,0.912717 0.0426,1.368448 0.03284,0.42612 0.05294,0.853132 0.06283,1.281314 0.0035,0.467549 0.01797,0.935603 0.0019,1.402863 -0.02707,0.418127 -0.03925,0.837515 -0.08087,1.253589 -0.04662,0.35934 -0.05112,0.724627 -0.07514,1.087074 -0.03503,0.334961 -0.05637,0.671563 -0.06991,1.009253 -0.0092,0.334112 -0.01162,0.668537 -0.01155,1.002863 0.0012,0.346358 -4.75e-4,0.692709 6.39e-4,1.039071 -0.0015,0.360101 1.12e-4,0.720203 -3.26e-4,1.080305 -0.0099,0.338555 0.0092,0.672919 0.03494,1.009075 0.01704,0.374357 0.06205,0.743093 0.110909,1.11165 0.05426,0.43542 0.163094,0.852685 0.274403,1.265749 0.101067,0.296621 0.189826,0.600979 0.293861,0.895692 0.09859,0.306872 0.22443,0.590627 0.357981,0.870508 0.150245,0.291627 0.303569,0.5803 0.46899,0.856326 0.16605,0.276491 0.370543,0.504407 0.587251,0.702704 0.22927,0.188883 0.44263,0.403888 0.694185,0.534007 0.25127,0.148841 0.523099,0.207997 0.790601,0.276307 0.276256,0.06555 0.556906,0.07932 0.836635,0.08707 0.230466,-0.02637 0.457627,-0.06667 0.682476,-0.139011 0.225675,-0.08565 0.44614,-0.183223 0.660182,-0.314059 0.130574,-0.05019 0.247299,-0.136517 0.364893,-0.225467 0.04034,-0.03052 0.161753,-0.121056 0.121794,-0.08962 -1.029587,0.810025 -1.221991,0.985058 -0.824573,0.63173 0.20191,-0.182731 0.359161,-0.433073 0.511639,-0.686008 0.153926,-0.241093 0.282345,-0.508918 0.417343,-0.76947 0.155418,-0.29542 0.27299,-0.62355 0.406484,-0.937888 0.149819,-0.335634 0.251752,-0.702366 0.334777,-1.077124 0.07587,-0.336446 0.13718,-0.67896 0.194385,-1.022144 0.04999,-0.299833 0.04958,-0.607896 0.07129,-0.912216 0.03753,-0.336847 0.05781,-0.676097 0.06874,-1.016305 0.0094,-0.306909 0.0069,-0.614061 0.0085,-0.921128 1.7e-5,-0.268178 -0.0018,-0.536348 -0.0026,-0.804522 -0.0017,-0.24816 7.06e-4,-0.496296 6.88e-4,-0.744457 -0.01101,-0.292574 0.02197,-0.581697 0.05838,-0.86898 0.04661,-0.382883 0.135972,-0.752356 0.237011,-1.114005 0.09395,-0.350526 0.19505,-0.696626 0.30208,-1.03997 0.112797,-0.368471 0.229914,-0.734202 0.392132,-1.067407 0.403606,-0.623256 0.987575,-1.154082 1.591785,-1.272642 0.189181,-0.04363 0.372095,0.01001 0.55824,0.04946 0.19286,0.03628 0.379955,0.116953 0.567616,0.186183 0.186905,0.04631 0.3671,0.127233 0.554239,0.172181 0.184005,0.05599 0.356053,0.149406 0.531298,0.24126 0.182431,0.09349 0.361766,0.183781 0.555316,0.222456 0.219027,0.0436 0.43609,0.02941 0.649998,-0.04565 0.381203,-0.243943 0.978134,-0.706255 -0.769761,0.61276 -0.02946,0.02223 0.05443,-0.05427 0.08043,-0.08347 0.05863,-0.06581 0.101188,-0.12494 0.155807,-0.197019 0.146424,-0.218565 0.277429,-0.455709 0.413281,-0.68656 0.136957,-0.214299 0.247396,-0.455649 0.374148,-0.680532 0.160775,-0.273943 0.308997,-0.556278 0.4309,-0.865475 0.136827,-0.341584 0.213275,-0.70583 0.258342,-1.087723 0.03699,-0.428751 0.03949,-0.861391 0.03999,-1.292581 -0.0014,-0.413962 -0.0025,-0.827933 -0.0025,-1.241909 9.29e-4,-0.395141 -0.0015,-0.7902657 -0.0036,-1.1853902 -0.002,-0.2755228 -0.0038,-0.5510459 -0.0047,-0.8265795 -0.0033,-0.2261862 0.08058,-0.4135794 0.15925,-0.6027105 0.108754,-0.2339968 0.211463,-0.4729769 0.308521,-0.7164215 0.119905,-0.2794457 0.237696,-0.5606746 0.343475,-0.8506273 0.119842,-0.3408555 0.244065,-0.6793492 0.37633,-1.0115658 0.116142,-0.3020853 0.273213,-0.5674063 0.436714,-0.8232289 0.416213,-0.6031965 0.979502,-0.9303707 1.499949,-1.3445016 0.134796,-0.136102 0.306554,-0.1282005 0.455962,-0.2059063 0.387099,-0.225141 1.055364,-0.7910373 -0.825732,0.6654871 -0.03126,0.024215 0.056,-0.062445 0.07928,-0.099861 0.0432,-0.095128 0.08016,-0.1919209 0.107884,-0.2971735 0,0 1.10853,-0.719627 1.10853,-0.719627 l 0,0 c -0.01869,0.1175186 -0.03933,0.2342332 -0.09464,0.331309 -0.18773,0.6999679 -0.853487,0.9064396 -1.345794,1.1423809 -0.155591,0.046115 -0.303294,0.1127106 -0.437148,0.2346206 1.848834,-1.4759587 0.934527,-0.8162022 0.569285,-0.3489278 -0.1652,0.2461417 -0.329238,0.4984609 -0.447094,0.7931973 -0.146017,0.3174092 -0.257838,0.6636969 -0.381951,0.9976481 -0.09374,0.2986878 -0.213446,0.5813423 -0.336584,0.8590411 -0.09816,0.2409503 -0.19195,0.4848868 -0.29564,0.7215722 -0.0811,0.1496892 -0.163027,0.3343017 -0.191983,0.5176832 -9.07e-4,0.2776927 -0.0026,0.555377 -0.0046,0.8330596 -0.002,0.3963869 -0.0042,0.792786 -0.0023,1.1891841 0.0011,0.4147127 0.0025,0.8294527 7.85e-4,1.2441537 -0.0019,0.437126 0.0017,0.87553 -0.03097,1.310972 -0.03386,0.397656 -0.100321,0.77988 -0.23807,1.13635 -0.115438,0.319427 -0.250217,0.614528 -0.415339,0.891031 -0.131891,0.221305 -0.238773,0.465597 -0.372054,0.685432 -0.145253,0.221753 -0.27026,0.467544 -0.407899,0.698369 -0.426263,0.601282 -0.964653,1.083935 -1.558744,1.305645 -0.226346,0.04793 -0.454156,0.05582 -0.680509,-0.0014 -0.195975,-0.05465 -0.38006,-0.15564 -0.56736,-0.249713 -0.170534,-0.08885 -0.344396,-0.161629 -0.522864,-0.215004 -0.186161,-0.05629 -0.369659,-0.128127 -0.555869,-0.184305 -0.184714,-0.06812 -0.370665,-0.13545 -0.560628,-0.169688 -0.178489,-0.03591 -0.356692,-0.05744 -0.534817,-8.86e-4 -0.417436,0.151066 -0.832303,0.62189 0.78205,-0.6846 0.03177,-0.02572 -0.06697,0.0431 -0.09831,0.0698 -0.09513,0.08098 -0.112994,0.116954 -0.194518,0.225404 -0.178109,0.309317 -0.291135,0.668119 -0.399143,1.030996 -0.106259,0.34432 -0.217737,0.685159 -0.308158,1.038313 -0.101634,0.350955 -0.196494,0.708291 -0.241641,1.08202 -0.03827,0.275879 -0.06601,0.556802 -0.06146,0.837824 10e-6,0.247712 0.0024,0.495401 10e-4,0.743116 -5.97e-4,0.26934 -0.0017,0.538677 -0.0018,0.80802 8.73e-4,0.309988 -0.0022,0.620123 -0.0097,0.929932 -0.01111,0.342362 -0.02571,0.685339 -0.06252,1.024594 -0.02893,0.308454 -0.01899,0.622616 -0.06804,0.92817 -0.05097,0.349829 -0.122468,0.694595 -0.194876,1.037038 -0.08172,0.380679 -0.173311,0.763677 -0.320582,1.10752 -0.06173,0.159471 -0.138365,0.304088 -0.199916,0.463475 -0.0573,0.148347 -0.06414,0.202904 -0.126473,0.345633 -0.02208,0.05056 -0.04852,0.09736 -0.07279,0.146015 -0.13938,0.258528 -0.259476,0.536483 -0.414406,0.778912 -0.154826,0.258617 -0.303647,0.526259 -0.499131,0.73189 -0.54666,0.509993 -1.123846,0.980486 -1.741439,1.311262 -0.221583,0.119417 -0.44734,0.221729 -0.67952,0.295871 -0.227962,0.06204 -0.46106,0.09371 -0.693366,0.09977 -0.283133,-0.01498 -0.56712,-0.03554 -0.845832,-0.110178 -0.273661,-0.07201 -0.549082,-0.143173 -0.804139,-0.303092 -0.253563,-0.148833 -0.47835,-0.362858 -0.711563,-0.562566 -0.220042,-0.217371 -0.435421,-0.44979 -0.605133,-0.74218 -0.166002,-0.282061 -0.323119,-0.573759 -0.476103,-0.869166 -0.139677,-0.283759 -0.261976,-0.577935 -0.367602,-0.88823 -0.107455,-0.299589 -0.197936,-0.609634 -0.292734,-0.916934 -0.108746,-0.423777 -0.219692,-0.847212 -0.282563,-1.289521 -0.05275,-0.370384 -0.108814,-0.739881 -0.121669,-1.118097 -0.02868,-0.341326 -0.05516,-0.681284 -0.04023,-1.025706 -4.66e-4,-0.359836 0.0011,-0.719671 -6.78e-4,-1.079503 7.93e-4,-0.346532 -0.0015,-0.693056 -3.57e-4,-1.039582 5.86e-4,-0.336096 -0.0027,-0.672342 0.0069,-1.008277 0.01008,-0.341412 0.03298,-0.681736 0.06872,-1.019979 0.03479,-0.362702 0.02826,-0.73147 0.07282,-1.093325 0.05139,-0.412319 0.07109,-0.828861 0.09463,-1.245745 0.02402,-0.462166 0.0079,-0.926397 0.003,-1.389299 -0.01084,-0.425963 -0.03046,-0.851165 -0.06261,-1.275206 -0.02444,-0.454408 -0.0059,-0.911462 -0.03775,-1.365704 -0.029,-0.447803 -0.07911,-0.889863 -0.183991,-1.317764 -0.08707,-0.327297 -0.178018,-0.65365 -0.2855693,-0.969436 C 9.7696723,9.6544439 9.5975018,9.3023348 9.4480854,8.9323091 9.2896943,8.5723576 9.1452818,8.1997324 9.0187528,7.8169843 8.9047078,7.4974142 8.8253496,7.1600486 8.7644148,6.8146442 8.7084196,6.5057401 8.6344514,6.2032183 8.5242356,5.9216799 8.4201249,5.6859796 8.312287,5.4421182 8.1383024,5.2916966 7.9836626,5.1656262 7.8193586,5.0721867 7.6479523,4.9960111 7.4731097,4.9306144 7.2993266,4.9183566 7.1189098,4.9487921 6.8928957,4.9835328 6.6734103,5.0596317 6.4636312,5.1817991 6.1289585,5.3692062 5.7924934,5.5545151 5.4774196,5.7992504 7.2588927,4.3903825 6.0818956,5.2489937 5.7347873,5.7066393 5.5231159,5.9683583 5.3241089,6.2463021 5.1609927,6.5684846 5.0238133,6.838454 4.8971347,7.1178639 4.7577425,7.3858188 4.6400404,7.6369855 4.5001879,7.8691714 4.4054581,8.1391306 c 0,0 -1.1313611,0.6658738 -1.1313611,0.6658738 z"
       inkscape:connector-curvature="0" />
  </g>
</svg>
