<?xml version="1.0" encoding="UTF-8" standalone="no"?>
<!-- Created with Inkscape (http://www.inkscape.org/) -->

<svg
   xmlns:dc="http://purl.org/dc/elements/1.1/"
   xmlns:cc="http://creativecommons.org/ns#"
   xmlns:rdf="http://www.w3.org/1999/02/22-rdf-syntax-ns#"
   xmlns:svg="http://www.w3.org/2000/svg"
   xmlns="http://www.w3.org/2000/svg"
   xmlns:sodipodi="http://sodipodi.sourceforge.net/DTD/sodipodi-0.dtd"
   xmlns:inkscape="http://www.inkscape.org/namespaces/inkscape"
   width="48px"
   height="48px"
   id="svg3765"
   version="1.1"
   inkscape:version="0.48.3.1 r9886"
   sodipodi:docname="bio.svg"
   inkscape:export-filename="/home/k00ni/Documents/semicon/owl.png"
   inkscape:export-xdpi="90"
   inkscape:export-ydpi="90">
  <defs
     id="defs3767" />
  <sodipodi:namedview
     id="base"
     pagecolor="#ffffff"
     bordercolor="#666666"
     borderopacity="1.0"
     inkscape:pageopacity="0.0"
     inkscape:pageshadow="2"
     inkscape:zoom="9.8994949"
     inkscape:cx="48.306807"
     inkscape:cy="29.683071"
     inkscape:current-layer="layer1-9"
     showgrid="true"
     inkscape:grid-bbox="true"
     inkscape:document-units="px"
     inkscape:window-width="1366"
     inkscape:window-height="744"
     inkscape:window-x="0"
     inkscape:window-y="24"
     inkscape:window-maximized="1" />
  <metadata
     id="metadata3770">
    <rdf:RDF>
      <cc:Work
         rdf:about="">
        <dc:format>image/svg+xml</dc:format>
        <dc:type
           rdf:resource="http://purl.org/dc/dcmitype/StillImage" />
        <dc:title />
      </cc:Work>
    </rdf:RDF>
  </metadata>
  <g
     id="layer1"
     inkscape:label="Layer 1"
     inkscape:groupmode="layer">
    <g
       inkscape:label="Layer 1"
       id="layer1-4"
       transform="translate(0.20202972,-1.9622142e-8)">
      <g
         transform="translate(-0.37059768,-0.09089584)"
         id="layer1-9"
         inkscape:label="Layer 1">
        <path
           sodipodi:type="arc"
           style="fill:#2d2d2d;fill-opacity:1;stroke:none"
           id="path3773-80"
           sodipodi:cx="29.285715"
           sodipodi:cy="24.428572"
           sodipodi:rx="23.714285"
           sodipodi:ry="23.714285"
           d="M 53,24.428572 C 53,37.52561 42.382753,48.142857 29.285715,48.142857 16.188677,48.142857 5.5714302,37.52561 5.5714302,24.428572 5.5714302,11.331534 16.188677,0.7142868 29.285715,0.7142868 42.382753,0.7142868 53,11.331534 53,24.428572 z"
           transform="matrix(0.99063909,0,0,0.99063908,-4.7003607,-0.15063258)" />
        <path
           inkscape:connector-curvature="0"
           id="path3021"
           style="font-size:17.64530945px;font-style:normal;font-variant:normal;font-weight:bold;font-stretch:normal;line-height:125%;letter-spacing:0px;word-spacing:0px;fill:#ffffff;fill-opacity:1;stroke:none;font-family:Ubuntu;-inkscape-font-specification:Ubuntu Bold"
           d="m 15.869588,28.764562 c -0.531571,0 -1.063137,-0.01866 -1.5947,-0.05596 -0.522245,-0.02798 -1.0678,-0.102584 -1.636667,-0.223817 l 0,-9.400342 c 0.447633,-0.08392 0.937233,-0.14454 1.468803,-0.181852 0.531564,-0.04663 1.025827,-0.06993 1.482792,-0.06995 0.615493,1.2e-5 1.1797,0.04664 1.69262,0.139886 0.522235,0.08394 0.969871,0.233154 1.342907,0.447637 0.373021,0.2145 0.662118,0.498935 0.867293,0.853304 0.214484,0.34506 0.32173,0.774043 0.321738,1.286952 -8e-6,0.774041 -0.373038,1.384877 -1.119089,1.832507 0.615491,0.233148 1.035149,0.550223 1.258974,0.951224 0.223809,0.401011 0.335719,0.853309 0.335728,1.356895 -9e-6,1.016507 -0.373039,1.781217 -1.119089,2.294131 -0.73674,0.512916 -1.837176,0.769373 -3.30131,0.769373 m -1.1051,-4.350456 0,2.50396 c 0.158533,0.01866 0.331061,0.03265 0.517579,0.04197 0.186511,0.0093 0.391676,0.01399 0.615498,0.01398 0.652796,2e-6 1.1797,-0.09326 1.580712,-0.279772 0.401001,-0.186512 0.601503,-0.531565 0.60151,-1.035156 -7e-6,-0.447632 -0.167869,-0.764707 -0.50359,-0.951225 -0.335731,-0.195837 -0.816007,-0.293757 -1.440826,-0.29376 l -1.370883,0 m 0,-1.664644 1.063134,0 c 0.671448,4e-6 1.151722,-0.08392 1.440826,-0.251796 0.289092,-0.177182 0.43364,-0.456954 0.433647,-0.839316 -7e-6,-0.391674 -0.149219,-0.666782 -0.447636,-0.825328 -0.298429,-0.158529 -0.736738,-0.237798 -1.314928,-0.237805 -0.18652,7e-6 -0.387022,0.0047 -0.60151,0.01398 -0.214496,9e-6 -0.405673,0.0093 -0.573533,0.02798 l 0,2.11228" />
        <path
           inkscape:connector-curvature="0"
           id="path3023"
           style="font-size:17.64530945px;font-style:normal;font-variant:normal;font-weight:bold;font-stretch:normal;line-height:125%;letter-spacing:0px;word-spacing:0px;fill:#ffffff;fill-opacity:1;stroke:none;font-family:Ubuntu;-inkscape-font-specification:Ubuntu Bold"
           d="m 22.677464,18.944562 2.182222,0 0,9.694102 -2.182222,0 0,-9.694102" />
        <path
           inkscape:connector-curvature="0"
           id="path3025"
           style="font-size:17.64530945px;font-style:normal;font-variant:normal;font-weight:bold;font-stretch:normal;line-height:125%;letter-spacing:0px;word-spacing:0px;fill:#ffffff;fill-opacity:1;stroke:none;font-family:Ubuntu;-inkscape-font-specification:Ubuntu Bold"
           d="m 29.81695,23.784619 c -4e-6,0.475617 0.05595,0.9046 0.167862,1.286952 0.121232,0.382357 0.289094,0.713422 0.50359,0.99319 0.223814,0.270449 0.494259,0.480278 0.81134,0.629488 0.317069,0.149212 0.680772,0.223818 1.09111,0.223817 0.401001,1e-6 0.760041,-0.0746 1.077122,-0.223817 0.326394,-0.14921 0.59684,-0.359039 0.81134,-0.629488 0.223809,-0.279768 0.391672,-0.610833 0.503589,-0.99319 0.121227,-0.382352 0.181844,-0.811335 0.181852,-1.286952 -8e-6,-0.475607 -0.06062,-0.904591 -0.181852,-1.286952 -0.111917,-0.391674 -0.27978,-0.722737 -0.503589,-0.993191 -0.2145,-0.279765 -0.484946,-0.494256 -0.81134,-0.643475 -0.317081,-0.149203 -0.676121,-0.223809 -1.077122,-0.223818 -0.410338,9e-6 -0.774041,0.07928 -1.09111,0.237806 -0.317081,0.14922 -0.587526,0.363712 -0.81134,0.643477 -0.214496,0.270452 -0.382358,0.601516 -0.50359,0.993191 -0.111911,0.38236 -0.167866,0.80668 -0.167862,1.272962 m 7.39997,0 c -1e-5,0.829995 -0.125908,1.562064 -0.377692,2.196211 -0.242478,0.624827 -0.578206,1.151729 -1.00718,1.580712 -0.428993,0.419658 -0.941907,0.736733 -1.538745,0.951224 -0.587529,0.214493 -1.221678,0.321738 -1.902451,0.321738 -0.662132,0 -1.286956,-0.107245 -1.874473,-0.321738 -0.587524,-0.214491 -1.10044,-0.531566 -1.538746,-0.951224 -0.438312,-0.428983 -0.783363,-0.955885 -1.035157,-1.580712 -0.251796,-0.634147 -0.377692,-1.366216 -0.377692,-2.196211 0,-0.829985 0.13056,-1.557391 0.391681,-2.182222 0.261119,-0.634143 0.610833,-1.165709 1.049145,-1.594701 0.447633,-0.428975 0.960549,-0.750712 1.538747,-0.965214 0.587516,-0.214481 1.203014,-0.321728 1.846495,-0.321737 0.66212,9e-6 1.286944,0.107256 1.874472,0.321737 0.587514,0.214502 1.100429,0.536239 1.538747,0.965214 0.4383,0.428992 0.783352,0.960558 1.035157,1.594701 0.251784,0.624831 0.377682,1.352237 0.377692,2.182222" />
      </g>
    </g>
  </g>
</svg>
