<?xml version="1.0" encoding="UTF-8" standalone="no"?>
<!-- Created with Inkscape (http://www.inkscape.org/) -->

<svg
   xmlns:dc="http://purl.org/dc/elements/1.1/"
   xmlns:cc="http://creativecommons.org/ns#"
   xmlns:rdf="http://www.w3.org/1999/02/22-rdf-syntax-ns#"
   xmlns:svg="http://www.w3.org/2000/svg"
   xmlns="http://www.w3.org/2000/svg"
   xmlns:sodipodi="http://sodipodi.sourceforge.net/DTD/sodipodi-0.dtd"
   xmlns:inkscape="http://www.inkscape.org/namespaces/inkscape"
   width="48px"
   height="48px"
   id="svg3765"
   version="1.1"
   inkscape:version="0.48.3.1 r9886"
   sodipodi:docname="owl.svg"
   inkscape:export-filename="/home/k00ni/Documents/semicon/owl.png"
   inkscape:export-xdpi="90"
   inkscape:export-ydpi="90">
  <defs
     id="defs3767" />
  <sodipodi:namedview
     id="base"
     pagecolor="#ffffff"
     bordercolor="#666666"
     borderopacity="1.0"
     inkscape:pageopacity="0.0"
     inkscape:pageshadow="2"
     inkscape:zoom="9.8994949"
     inkscape:cx="22.975565"
     inkscape:cy="23.622893"
     inkscape:current-layer="layer1-9"
     showgrid="true"
     inkscape:grid-bbox="true"
     inkscape:document-units="px"
     inkscape:window-width="1366"
     inkscape:window-height="744"
     inkscape:window-x="0"
     inkscape:window-y="24"
     inkscape:window-maximized="1" />
  <metadata
     id="metadata3770">
    <rdf:RDF>
      <cc:Work
         rdf:about="">
        <dc:format>image/svg+xml</dc:format>
        <dc:type
           rdf:resource="http://purl.org/dc/dcmitype/StillImage" />
        <dc:title />
      </cc:Work>
    </rdf:RDF>
  </metadata>
  <g
     id="layer1"
     inkscape:label="Layer 1"
     inkscape:groupmode="layer">
    <g
       inkscape:label="Layer 1"
       id="layer1-4"
       transform="translate(0.20202972,-1.9622142e-8)">
      <g
         transform="translate(-0.37059768,-0.09089584)"
         id="layer1-9"
         inkscape:label="Layer 1">
        <path
           sodipodi:type="arc"
           style="fill:#2d2d2d;fill-opacity:1;stroke:none"
           id="path3773-80"
           sodipodi:cx="29.285715"
           sodipodi:cy="24.428572"
           sodipodi:rx="23.714285"
           sodipodi:ry="23.714285"
           d="M 53,24.428572 C 53,37.52561 42.382753,48.142857 29.285715,48.142857 16.188677,48.142857 5.5714302,37.52561 5.5714302,24.428572 5.5714302,11.331534 16.188677,0.7142868 29.285715,0.7142868 42.382753,0.7142868 53,11.331534 53,24.428572 z"
           transform="matrix(0.99063909,0,0,0.99063908,-4.7003607,-0.15063258)" />
        <path
           inkscape:connector-curvature="0"
           id="path2988"
           style="font-size:15.66650009px;font-style:normal;font-variant:normal;font-weight:bold;font-stretch:normal;line-height:125%;letter-spacing:0px;word-spacing:0px;fill:#ffffff;fill-opacity:1;stroke:none;font-family:Ubuntu;-inkscape-font-specification:Ubuntu Bold"
           d="m 11.40708,23.729049 c -1e-6,0.480628 0.05081,0.914132 0.15243,1.300512 0.110084,0.386387 0.262512,0.720938 0.457284,1.003656 0.203233,0.273298 0.448813,0.485337 0.736736,0.636119 0.287916,0.150786 0.618177,0.226178 0.990785,0.226176 0.364129,2e-6 0.690154,-0.07538 0.978081,-0.226176 0.296381,-0.150782 0.541962,-0.362821 0.736736,-0.636119 0.203232,-0.282718 0.35566,-0.617269 0.457287,-1.003656 0.110079,-0.38638 0.165121,-0.819884 0.16513,-1.300512 -9e-6,-0.480619 -0.05506,-0.914122 -0.16513,-1.300512 -0.101627,-0.395801 -0.254055,-0.730353 -0.457287,-1.003655 -0.194774,-0.282712 -0.440355,-0.499465 -0.736736,-0.650256 -0.287927,-0.150777 -0.613952,-0.226168 -0.978081,-0.226175 -0.372608,7e-6 -0.702869,0.08012 -0.990785,0.240311 -0.287923,0.150791 -0.533503,0.367543 -0.736736,0.650256 -0.194772,0.273302 -0.3472,0.607854 -0.457284,1.003656 -0.101622,0.386389 -0.152431,0.81518 -0.15243,1.286375 m 6.719549,0 c -10e-6,0.83874 -0.114331,1.578522 -0.342965,2.219352 -0.220182,0.631409 -0.525039,1.163864 -0.91457,1.597367 -0.389546,0.424081 -0.855299,0.744496 -1.397259,0.961247 -0.533505,0.216753 -1.109345,0.325128 -1.72752,0.325129 -0.60125,-1e-6 -1.168621,-0.108376 -1.702117,-0.325129 C 11.508697,28.290264 11.042945,27.969849 10.64494,27.545768 10.246931,27.112265 9.9336062,26.57981 9.7049649,25.948401 9.4763218,25.307571 9.3620006,24.567789 9.3620013,23.729049 c -7e-7,-0.83873 0.1185547,-1.573801 0.355666,-2.205215 0.2371095,-0.640824 0.5546687,-1.177992 0.9526767,-1.611504 0.406473,-0.433494 0.872226,-0.758621 1.397259,-0.975384 0.533496,-0.216742 1.092398,-0.325118 1.676712,-0.325127 0.601239,9e-6 1.16861,0.108385 1.702115,0.325127 0.533492,0.216763 0.999245,0.54189 1.39726,0.975384 0.397999,0.433512 0.711323,0.97068 0.939974,1.611504 0.228634,0.631414 0.342955,1.366485 0.342965,2.205215" />
        <path
           inkscape:connector-curvature="0"
           id="path2990"
           style="font-size:15.66650009px;font-style:normal;font-variant:normal;font-weight:bold;font-stretch:normal;line-height:125%;letter-spacing:0px;word-spacing:0px;fill:#ffffff;fill-opacity:1;stroke:none;font-family:Ubuntu;-inkscape-font-specification:Ubuntu Bold"
           d="m 26.239788,19.884058 c 0.101611,0.386392 0.211699,0.824608 0.330261,1.314648 0.127017,0.48063 0.258274,0.980102 0.393773,1.498416 0.143952,0.518324 0.287912,1.036645 0.43188,1.554959 0.143953,0.518324 0.283678,0.998948 0.419179,1.441871 0.110077,-0.480621 0.220165,-1.003652 0.330261,-1.569095 0.118545,-0.565434 0.228633,-1.149721 0.330261,-1.752864 0.10161,-0.603129 0.198994,-1.201551 0.292153,-1.79527 0.10161,-0.603128 0.194761,-1.182704 0.279453,-1.738728 l 2.057782,0 c -0.2964,1.639783 -0.639364,3.303116 -1.028891,4.990006 -0.381081,1.686898 -0.796024,3.288976 -1.244831,4.806238 l -1.816437,0 c -0.296397,-0.904702 -0.584317,-1.851813 -0.863761,-2.841335 -0.279458,-0.99894 -0.554676,-1.997882 -0.825653,-2.996831 -0.27099,0.998949 -0.541973,1.997891 -0.812951,2.996831 -0.270989,0.989522 -0.554675,1.936633 -0.851058,2.841335 l -1.816437,0 c -0.44882,-1.517262 -0.867996,-3.11934 -1.257535,-4.806238 -0.381071,-1.68689 -0.7198,-3.350223 -1.016189,-4.990006 l 2.146699,0 c 0.08467,0.556024 0.177831,1.1356 0.279453,1.738728 0.101616,0.593719 0.207469,1.192141 0.317558,1.79527 0.110085,0.603143 0.220171,1.18743 0.330262,1.752864 0.118553,0.565443 0.237107,1.088474 0.355666,1.569095 0.152425,-0.461772 0.300619,-0.951819 0.444583,-1.470143 0.143956,-0.518315 0.283681,-1.036635 0.419177,-1.554959 0.135488,-0.518314 0.258277,-1.017786 0.368369,-1.498416 0.11855,-0.480616 0.224403,-0.909407 0.317558,-1.286376 l 1.689415,0" />
        <path
           inkscape:connector-curvature="0"
           id="path2992"
           style="font-size:15.66650009px;font-style:normal;font-variant:normal;font-weight:bold;font-stretch:normal;line-height:125%;letter-spacing:0px;word-spacing:0px;fill:#ffffff;fill-opacity:1;stroke:none;font-family:Ubuntu;-inkscape-font-specification:Ubuntu Bold"
           d="m 39.456509,26.740017 0,1.894222 -5.881193,0 0,-9.796244 1.981568,0 0,7.902022 3.899625,0" />
      </g>
    </g>
  </g>
</svg>
