<?xml version="1.0" encoding="UTF-8" standalone="no"?>
<!-- Created with Inkscape (http://www.inkscape.org/) -->

<svg
   xmlns:dc="http://purl.org/dc/elements/1.1/"
   xmlns:cc="http://creativecommons.org/ns#"
   xmlns:rdf="http://www.w3.org/1999/02/22-rdf-syntax-ns#"
   xmlns:svg="http://www.w3.org/2000/svg"
   xmlns="http://www.w3.org/2000/svg"
   xmlns:sodipodi="http://sodipodi.sourceforge.net/DTD/sodipodi-0.dtd"
   xmlns:inkscape="http://www.inkscape.org/namespaces/inkscape"
   width="48px"
   height="48px"
   id="svg3765"
   version="1.1"
   inkscape:version="0.48.3.1 r9886"
   sodipodi:docname="rdf.svg"
   inkscape:export-filename="/home/k00ni/Documents/semicon/owl.png"
   inkscape:export-xdpi="90"
   inkscape:export-ydpi="90">
  <defs
     id="defs3767" />
  <sodipodi:namedview
     id="base"
     pagecolor="#ffffff"
     bordercolor="#666666"
     borderopacity="1.0"
     inkscape:pageopacity="0.0"
     inkscape:pageshadow="2"
     inkscape:zoom="9.8994949"
     inkscape:cx="19.873065"
     inkscape:cy="19.302191"
     inkscape:current-layer="layer1-9"
     showgrid="true"
     inkscape:grid-bbox="true"
     inkscape:document-units="px"
     inkscape:window-width="1366"
     inkscape:window-height="744"
     inkscape:window-x="0"
     inkscape:window-y="24"
     inkscape:window-maximized="1" />
  <metadata
     id="metadata3770">
    <rdf:RDF>
      <cc:Work
         rdf:about="">
        <dc:format>image/svg+xml</dc:format>
        <dc:type
           rdf:resource="http://purl.org/dc/dcmitype/StillImage" />
        <dc:title></dc:title>
      </cc:Work>
    </rdf:RDF>
  </metadata>
  <g
     id="layer1"
     inkscape:label="Layer 1"
     inkscape:groupmode="layer">
    <g
       inkscape:label="Layer 1"
       id="layer1-9"
       transform="translate(-0.37059768,-0.09089584)">
      <path
         transform="matrix(0.99063909,0,0,0.99063908,-4.7003607,-0.15063258)"
         d="M 53,24.428572 C 53,37.52561 42.382753,48.142857 29.285715,48.142857 16.188677,48.142857 5.5714302,37.52561 5.5714302,24.428572 5.5714302,11.331534 16.188677,0.7142868 29.285715,0.7142868 42.382753,0.7142868 53,11.331534 53,24.428572 z"
         sodipodi:ry="23.714285"
         sodipodi:rx="23.714285"
         sodipodi:cy="24.428572"
         sodipodi:cx="29.285715"
         id="path3773-80"
         style="fill:#2d2d2d;fill-opacity:1;stroke:none"
         sodipodi:type="arc" />
      <path
         inkscape:connector-curvature="0"
         id="path2987"
         style="font-size:14.98204803px;font-style:normal;font-variant:normal;font-weight:bold;font-stretch:normal;line-height:125%;letter-spacing:0px;word-spacing:0px;fill:#ffffff;fill-opacity:1;stroke:none;font-family:Ubuntu;-inkscape-font-specification:Ubuntu Bold"
         d="m 14.660335,18.33614 c 1.477005,1.2e-5 2.608432,0.295037 3.394283,0.885076 0.785837,0.579523 1.178759,1.485671 1.178768,2.718445 -9e-6,0.76918 -0.160964,1.396107 -0.482868,1.880785 -0.312453,0.474153 -0.766917,0.848202 -1.363395,1.12215 0.198821,0.273955 0.407118,0.590054 0.624889,0.948294 0.217757,0.347711 0.430787,0.716492 0.639091,1.106345 0.217756,0.37932 0.426053,0.779711 0.624889,1.201173 0.19882,0.410928 0.383446,0.816588 0.553879,1.216979 l -2.485354,0 C 17.164618,29.057142 16.979992,28.69363 16.790638,28.324848 16.61074,27.956067 16.42138,27.597823 16.222557,27.250114 16.033192,26.902408 15.843831,26.575773 15.654476,26.270209 15.46511,25.954114 15.27575,25.669625 15.086394,25.416743 l -1.093555,0 0,3.998644 -2.215515,0 0,-10.794758 c 0.482867,-0.105356 0.979937,-0.179112 1.491212,-0.221268 0.520738,-0.04213 0.984671,-0.06321 1.391799,-0.06322 m 0.127817,2.102054 c -0.160959,9e-6 -0.307714,0.0053 -0.440262,0.0158 -0.123087,0.01055 -0.241438,0.02108 -0.355051,0.03161 l 0,2.971324 0.62489,0 c 0.833179,6e-6 1.429665,-0.115897 1.789455,-0.347708 0.359779,-0.2318 0.53967,-0.626921 0.539677,-1.185369 -7e-6,-0.537359 -0.184632,-0.916676 -0.553879,-1.137954 -0.35979,-0.231796 -0.894733,-0.347699 -1.60483,-0.347708" />
      <path
         inkscape:connector-curvature="0"
         id="path2989"
         style="font-size:14.98204803px;font-style:normal;font-variant:normal;font-weight:bold;font-stretch:normal;line-height:125%;letter-spacing:0px;word-spacing:0px;fill:#ffffff;fill-opacity:1;stroke:none;font-family:Ubuntu;-inkscape-font-specification:Ubuntu Bold"
         d="m 24.388483,27.509177 c 0.104145,0.01055 0.222495,0.02108 0.355052,0.03161 0.142016,2e-6 0.307705,2e-6 0.49707,0 1.107752,2e-6 1.926735,-0.310828 2.45695,-0.93249 0.53967,-0.621656 0.809507,-1.480389 0.809515,-2.576202 -8e-6,-1.148484 -0.255643,-2.017753 -0.766909,-2.60781 -0.51128,-0.590042 -1.320793,-0.885067 -2.428546,-0.885076 -0.151492,9e-6 -0.307715,0.0053 -0.468667,0.0158 -0.16096,9e-6 -0.312448,0.01055 -0.454465,0.03161 l 0,6.922553 m 6.405112,-3.477082 c -9e-6,0.9483 -0.132562,1.775422 -0.397656,2.481372 -0.265114,0.705955 -0.643834,1.290737 -1.136162,1.754345 -0.482876,0.463612 -1.074626,0.81132 -1.775252,1.043126 -0.70064,0.231804 -1.486483,0.347707 -2.357536,0.347708 -0.39766,-1e-6 -0.861592,-0.02108 -1.391798,-0.06322 -0.530211,-0.03161 -1.050951,-0.105366 -1.562223,-0.221268 l 0,-10.668319 c 0.511272,-0.105355 1.04148,-0.173843 1.590626,-0.205463 0.558611,-0.04213 1.036745,-0.06321 1.434405,-0.06322 0.842649,1.2e-5 1.604822,0.105377 2.286526,0.316099 0.691158,0.210743 1.282908,0.542646 1.775252,0.995709 0.492328,0.453085 0.871048,1.032598 1.136162,1.738542 0.265094,0.70596 0.397647,1.554157 0.397656,2.544591" />
      <path
         inkscape:connector-curvature="0"
         id="path2991"
         style="font-size:14.98204803px;font-style:normal;font-variant:normal;font-weight:bold;font-stretch:normal;line-height:125%;letter-spacing:0px;word-spacing:0px;fill:#ffffff;fill-opacity:1;stroke:none;font-family:Ubuntu;-inkscape-font-specification:Ubuntu Bold"
         d="m 33.135391,29.415386 0,-10.952807 6.589738,0 0,2.070444 -4.374223,0 0,2.291713 3.891355,0 0,2.070443 -3.891355,0 0,4.520207 -2.215515,0" />
    </g>
  </g>
</svg>
