<?xml version="1.0" encoding="UTF-8" standalone="no"?>
<!-- Created with Inkscape (http://www.inkscape.org/) -->

<svg
   xmlns:dc="http://purl.org/dc/elements/1.1/"
   xmlns:cc="http://creativecommons.org/ns#"
   xmlns:rdf="http://www.w3.org/1999/02/22-rdf-syntax-ns#"
   xmlns:svg="http://www.w3.org/2000/svg"
   xmlns="http://www.w3.org/2000/svg"
   xmlns:sodipodi="http://sodipodi.sourceforge.net/DTD/sodipodi-0.dtd"
   xmlns:inkscape="http://www.inkscape.org/namespaces/inkscape"
   width="48px"
   height="48px"
   id="svg3765"
   version="1.1"
   inkscape:version="0.48.3.1 r9886"
   sodipodi:docname="rdf.svg"
   inkscape:export-filename="/home/k00ni/Documents/semicon/owl.png"
   inkscape:export-xdpi="90"
   inkscape:export-ydpi="90">
  <defs
     id="defs3767" />
  <sodipodi:namedview
     id="base"
     pagecolor="#ffffff"
     bordercolor="#666666"
     borderopacity="1.0"
     inkscape:pageopacity="0.0"
     inkscape:pageshadow="2"
     inkscape:zoom="9.8994949"
     inkscape:cx="19.873065"
     inkscape:cy="27.383411"
     inkscape:current-layer="layer1-9"
     showgrid="true"
     inkscape:grid-bbox="true"
     inkscape:document-units="px"
     inkscape:window-width="1366"
     inkscape:window-height="744"
     inkscape:window-x="0"
     inkscape:window-y="24"
     inkscape:window-maximized="1" />
  <metadata
     id="metadata3770">
    <rdf:RDF>
      <cc:Work
         rdf:about="">
        <dc:format>image/svg+xml</dc:format>
        <dc:type
           rdf:resource="http://purl.org/dc/dcmitype/StillImage" />
        <dc:title />
      </cc:Work>
    </rdf:RDF>
  </metadata>
  <g
     id="layer1"
     inkscape:label="Layer 1"
     inkscape:groupmode="layer">
    <g
       inkscape:label="Layer 1"
       id="layer1-9"
       transform="translate(-0.37059768,-0.09089584)">
      <path
         transform="matrix(0.99063909,0,0,0.99063908,-4.7003607,-0.15063258)"
         d="M 53,24.428572 C 53,37.52561 42.382753,48.142857 29.285715,48.142857 16.188677,48.142857 5.5714302,37.52561 5.5714302,24.428572 5.5714302,11.331534 16.188677,0.7142868 29.285715,0.7142868 42.382753,0.7142868 53,11.331534 53,24.428572 z"
         sodipodi:ry="23.714285"
         sodipodi:rx="23.714285"
         sodipodi:cy="24.428572"
         sodipodi:cx="29.285715"
         id="path3773-80"
         style="fill:#2d2d2d;fill-opacity:1;stroke:none"
         sodipodi:type="arc" />
      <path
         inkscape:connector-curvature="0"
         id="path2987"
         style="font-size:14.98204803px;font-style:normal;font-variant:normal;font-weight:bold;font-stretch:normal;line-height:125%;letter-spacing:0px;word-spacing:0px;fill:#ffffff;fill-opacity:1;stroke:none;font-family:Ubuntu;-inkscape-font-specification:Ubuntu Bold"
         d="m 14.786912,19.082431 c 1.322187,10e-6 2.33502,0.264111 3.038499,0.792304 0.703467,0.518778 1.055204,1.329945 1.055212,2.433502 -8e-6,0.688555 -0.144092,1.249769 -0.432255,1.683644 -0.279702,0.424453 -0.68653,0.759295 -1.220486,1.004528 0.177981,0.245239 0.364445,0.528206 0.559389,0.848895 0.194932,0.311265 0.385633,0.641391 0.572103,0.99038 0.194931,0.33956 0.381395,0.697983 0.559389,1.075268 0.17798,0.367855 0.343254,0.730995 0.495822,1.089417 l -2.224843,0 C 17.0287,28.679675 16.863426,28.354266 16.69392,28.024139 16.532878,27.694013 16.363367,27.37332 16.185384,27.062057 16.015868,26.750797 15.846356,26.458399 15.676848,26.184864 15.507331,25.901901 15.33782,25.647232 15.168312,25.420857 l -0.978931,0 0,3.579512 -1.983288,0 0,-9.663269 c 0.432254,-0.09431 0.877222,-0.160338 1.334906,-0.198075 0.466155,-0.03771 0.881459,-0.05658 1.245913,-0.05659 m 0.114419,1.88172 c -0.144088,8e-6 -0.27546,0.0047 -0.394114,0.01414 -0.110186,0.0094 -0.216131,0.01887 -0.317836,0.0283 l 0,2.659875 0.55939,0 c 0.745847,5e-6 1.27981,-0.103749 1.601888,-0.311262 0.322067,-0.207503 0.483102,-0.561208 0.483109,-1.06112 -7e-6,-0.481034 -0.165279,-0.820592 -0.495823,-1.018676 -0.322077,-0.207499 -0.800948,-0.311254 -1.436614,-0.311262" />
      <path
         inkscape:connector-curvature="0"
         id="path2989"
         style="font-size:14.98204803px;font-style:normal;font-variant:normal;font-weight:bold;font-stretch:normal;line-height:125%;letter-spacing:0px;word-spacing:0px;fill:#ffffff;fill-opacity:1;stroke:none;font-family:Ubuntu;-inkscape-font-specification:Ubuntu Bold"
         d="m 23.495371,27.293965 c 0.09323,0.0094 0.199174,0.01887 0.317836,0.0283 0.12713,2e-6 0.275452,2e-6 0.444968,0 0.99164,2e-6 1.724778,-0.278248 2.199417,-0.834748 0.483103,-0.556495 0.724656,-1.325217 0.724663,-2.306169 -7e-6,-1.028102 -0.228847,-1.806255 -0.686523,-2.334464 -0.457688,-0.528194 -1.18235,-0.792295 -2.17399,-0.792303 -0.135613,8e-6 -0.275461,0.0047 -0.419542,0.01414 -0.144088,8e-6 -0.279698,0.0094 -0.406829,0.0283 l 0,6.196943 m 5.733739,-3.11262 c -8e-6,0.8489 -0.118667,1.589325 -0.355974,2.221278 -0.237325,0.631958 -0.576349,1.155445 -1.017072,1.570458 -0.432261,0.415017 -0.961985,0.726279 -1.589173,0.933787 -0.6272,0.207507 -1.330672,0.311261 -2.110423,0.311262 -0.355978,-1e-6 -0.771281,-0.01887 -1.245912,-0.05659 -0.474635,-0.0283 -0.940792,-0.09432 -1.398473,-0.198075 l 0,-9.550084 c 0.457681,-0.09431 0.932314,-0.155621 1.423899,-0.183927 0.500058,-0.03771 0.928075,-0.05658 1.284053,-0.05659 0.754324,1.1e-5 1.436607,0.09433 2.046856,0.282966 0.618712,0.188653 1.148436,0.485767 1.589173,0.89134 0.440723,0.405594 0.779747,0.924363 1.017072,1.556311 0.237307,0.631963 0.355966,1.391253 0.355974,2.277871" />
      <path
         inkscape:connector-curvature="0"
         id="path2991"
         style="font-size:14.98204803px;font-style:normal;font-variant:normal;font-weight:bold;font-stretch:normal;line-height:125%;letter-spacing:0px;word-spacing:0px;fill:#ffffff;fill-opacity:1;stroke:none;font-family:Ubuntu;-inkscape-font-specification:Ubuntu Bold"
         d="m 31.325443,29.000369 0,-9.804752 5.899013,0 0,1.853423 -3.915725,0 0,2.0515 3.48347,0 0,1.853422 -3.48347,0 0,4.046407 -1.983288,0" />
    </g>
  </g>
</svg>
