<?xml version="1.0" encoding="UTF-8" standalone="no"?>
<!-- Created with Inkscape (http://www.inkscape.org/) -->

<svg
   xmlns:dc="http://purl.org/dc/elements/1.1/"
   xmlns:cc="http://creativecommons.org/ns#"
   xmlns:rdf="http://www.w3.org/1999/02/22-rdf-syntax-ns#"
   xmlns:svg="http://www.w3.org/2000/svg"
   xmlns="http://www.w3.org/2000/svg"
   xmlns:sodipodi="http://sodipodi.sourceforge.net/DTD/sodipodi-0.dtd"
   xmlns:inkscape="http://www.inkscape.org/namespaces/inkscape"
   width="48px"
   height="48px"
   id="svg3765"
   version="1.1"
   inkscape:version="0.48.3.1 r9886"
   sodipodi:docname="rdfs.svg"
   inkscape:export-filename="/home/k00ni/Documents/semicon/owl.png"
   inkscape:export-xdpi="90"
   inkscape:export-ydpi="90">
  <defs
     id="defs3767" />
  <sodipodi:namedview
     id="base"
     pagecolor="#ffffff"
     bordercolor="#666666"
     borderopacity="1.0"
     inkscape:pageopacity="0.0"
     inkscape:pageshadow="2"
     inkscape:zoom="9.899495"
     inkscape:cx="52.472936"
     inkscape:cy="25.781078"
     inkscape:current-layer="layer1-9"
     showgrid="true"
     inkscape:grid-bbox="true"
     inkscape:document-units="px"
     inkscape:window-width="1366"
     inkscape:window-height="744"
     inkscape:window-x="0"
     inkscape:window-y="24"
     inkscape:window-maximized="1" />
  <metadata
     id="metadata3770">
    <rdf:RDF>
      <cc:Work
         rdf:about="">
        <dc:format>image/svg+xml</dc:format>
        <dc:type
           rdf:resource="http://purl.org/dc/dcmitype/StillImage" />
        <dc:title />
      </cc:Work>
    </rdf:RDF>
  </metadata>
  <g
     id="layer1"
     inkscape:label="Layer 1"
     inkscape:groupmode="layer">
    <g
       inkscape:label="Layer 1"
       id="layer1-9"
       transform="translate(-0.37059768,-0.09089584)">
      <path
         transform="matrix(0.99063909,0,0,0.99063908,-4.7003607,-0.15063258)"
         d="M 53,24.428572 C 53,37.52561 42.382753,48.142857 29.285715,48.142857 16.188677,48.142857 5.5714302,37.52561 5.5714302,24.428572 5.5714302,11.331534 16.188677,0.7142868 29.285715,0.7142868 42.382753,0.7142868 53,11.331534 53,24.428572 z"
         sodipodi:ry="23.714285"
         sodipodi:rx="23.714285"
         sodipodi:cy="24.428572"
         sodipodi:cx="29.285715"
         id="path3773-80"
         style="fill:#2d2d2d;fill-opacity:1;stroke:none"
         sodipodi:type="arc" />
      <path
         inkscape:connector-curvature="0"
         id="path2987"
         style="font-size:14.98204803px;font-style:normal;font-variant:normal;font-weight:bold;font-stretch:normal;line-height:125%;letter-spacing:0px;word-spacing:0px;fill:#ffffff;fill-opacity:1;stroke:none;font-family:Ubuntu;-inkscape-font-specification:Ubuntu Bold"
         d="m 10.263384,18.434458 c 1.320323,1.1e-5 2.331727,0.26374 3.034214,0.791187 0.702475,0.518046 1.053715,1.328069 1.053723,2.430069 -8e-6,0.687585 -0.143888,1.248007 -0.431644,1.68127 -0.279308,0.423854 -0.685562,0.758224 -1.218765,1.003111 0.17773,0.244893 0.36393,0.52746 0.5586,0.847698 0.194657,0.310825 0.385089,0.640486 0.571296,0.988983 0.194656,0.339081 0.380856,0.696998 0.5586,1.073751 0.177729,0.367336 0.342769,0.729963 0.495123,1.087881 l -2.221705,0 C 12.50201,28.018166 12.33697,27.693215 12.167703,27.363554 12.006888,27.033894 11.837616,26.713653 11.659884,26.402829 11.490607,26.092008 11.321334,25.800023 11.152066,25.526873 10.982788,25.24431 10.813516,24.99 10.644247,24.763944 l -0.977549,0 0,3.574464 -1.9804918,0 0,-9.649639 c 0.4316441,-0.09418 0.8759846,-0.160112 1.3330229,-0.197796 0.4654969,-0.03766 0.8802159,-0.05651 1.2441549,-0.05651 m 0.114259,1.879062 c -0.143885,8e-6 -0.275072,0.0047 -0.393559,0.01412 -0.11003,0.0094 -0.215826,0.01884 -0.317386,0.02826 l 0,2.656123 0.5586,0 c 0.744795,5e-6 1.278005,-0.103603 1.599628,-0.310823 0.321613,-0.20721 0.482421,-0.560416 0.482427,-1.059624 -6e-6,-0.480355 -0.165046,-0.819434 -0.495123,-1.017238 -0.321623,-0.207206 -0.799818,-0.310814 -1.434587,-0.310822" />
      <path
         inkscape:connector-curvature="0"
         id="path2989"
         style="font-size:14.98204803px;font-style:normal;font-variant:normal;font-weight:bold;font-stretch:normal;line-height:125%;letter-spacing:0px;word-spacing:0px;fill:#ffffff;fill-opacity:1;stroke:none;font-family:Ubuntu;-inkscape-font-specification:Ubuntu Bold"
         d="m 18.95956,26.63441 c 0.0931,0.0094 0.198893,0.01884 0.317388,0.02826 0.126951,2e-6 0.275063,2e-6 0.44434,0 0.990241,2e-6 1.722345,-0.277855 2.196315,-0.83357 0.482421,-0.555711 0.723633,-1.323348 0.723641,-2.302916 -8e-6,-1.026652 -0.228525,-1.803708 -0.685555,-2.331171 -0.457043,-0.52745 -1.180682,-0.791178 -2.170923,-0.791186 -0.135422,8e-6 -0.275073,0.0047 -0.418951,0.01412 -0.143885,8e-6 -0.279303,0.0094 -0.406255,0.02826 l 0,6.188202 m 5.725652,-3.10823 c -8e-6,0.847704 -0.1185,1.587084 -0.355473,2.218146 -0.23699,0.631066 -0.575535,1.153814 -1.015636,1.568242 -0.431652,0.414432 -0.960629,0.725254 -1.586932,0.93247 -0.626315,0.207214 -1.328795,0.310822 -2.107446,0.310823 -0.355476,-10e-7 -0.770193,-0.01884 -1.244155,-0.05651 -0.473965,-0.02826 -0.939465,-0.09419 -1.3965,-0.197795 l 0,-9.536613 c 0.457035,-0.09418 0.930998,-0.155402 1.42189,-0.183667 0.499353,-0.03766 0.926766,-0.05651 1.282242,-0.05651 0.75326,1.1e-5 1.434581,0.0942 2.043969,0.282567 0.617839,0.188387 1.146816,0.485082 1.586932,0.890083 0.440101,0.405021 0.778646,0.923059 1.015636,1.554116 0.236973,0.631071 0.355465,1.38929 0.355473,2.274658" />
      <path
         inkscape:connector-curvature="0"
         id="path2991"
         style="font-size:14.98204803px;font-style:normal;font-variant:normal;font-weight:bold;font-stretch:normal;line-height:125%;letter-spacing:0px;word-spacing:0px;fill:#ffffff;fill-opacity:1;stroke:none;font-family:Ubuntu;-inkscape-font-specification:Ubuntu Bold"
         d="m 26.778588,28.338407 0,-9.790922 5.890691,0 0,1.850809 -3.910201,0 0,2.048606 3.478557,0 0,1.850808 -3.478557,0 0,4.040699 -1.98049,0" />
      <path
         inkscape:connector-curvature="0"
         id="path2993"
         style="font-size:14.98204803px;font-style:normal;font-variant:normal;font-weight:bold;font-stretch:normal;line-height:125%;letter-spacing:0px;word-spacing:0px;fill:#ffffff;fill-opacity:1;stroke:none;font-family:Ubuntu;-inkscape-font-specification:Ubuntu Bold"
         d="m 37.641892,26.747437 c 0.279296,10e-7 0.507814,-0.02355 0.685555,-0.07064 0.186195,-0.05651 0.334309,-0.127153 0.44434,-0.211925 0.110023,-0.09419 0.186195,-0.202503 0.228519,-0.324951 0.04231,-0.122443 0.06348,-0.259017 0.06348,-0.409721 -4e-6,-0.320239 -0.135423,-0.583967 -0.406255,-0.791186 -0.27084,-0.21663 -0.73634,-0.447392 -1.396501,-0.692287 -0.287766,-0.113022 -0.575529,-0.240177 -0.86329,-0.381464 -0.287765,-0.150698 -0.545907,-0.334365 -0.774423,-0.551005 -0.228519,-0.226047 -0.414718,-0.494485 -0.5586,-0.805314 -0.143882,-0.320234 -0.215823,-0.706408 -0.215823,-1.158521 0,-0.452099 0.07617,-0.857109 0.228519,-1.215035 0.152345,-0.367328 0.368166,-0.678151 0.647468,-0.932469 0.279298,-0.2543 0.617843,-0.447387 1.015636,-0.579261 0.397789,-0.141273 0.846361,-0.211914 1.34572,-0.211925 0.59245,1.1e-5 1.104499,0.07065 1.536148,0.211925 0.431641,0.141293 0.787113,0.296704 1.066419,0.466234 l -0.571296,1.737783 c -0.24545,-0.141276 -0.520518,-0.26372 -0.825204,-0.367336 -0.296232,-0.113018 -0.655936,-0.169532 -1.079114,-0.16954 -0.473967,8e-6 -0.816744,0.07536 -1.028332,0.226052 -0.20313,0.141292 -0.304693,0.362635 -0.304691,0.664031 -2e-6,0.178967 0.03808,0.329669 0.114259,0.452107 0.07617,0.122452 0.181966,0.235479 0.317387,0.339079 0.143878,0.0942 0.304688,0.183674 0.482427,0.268438 0.186197,0.07536 0.389324,0.155418 0.609382,0.240182 0.457032,0.188383 0.854822,0.376761 1.193372,0.565133 0.338541,0.178963 0.617841,0.390887 0.837901,0.635774 0.228513,0.244895 0.397784,0.53217 0.507818,0.861827 0.110021,0.329664 0.165035,0.729966 0.165041,1.200907 -6e-6,0.913632 -0.28777,1.624757 -0.86329,2.133375 -0.575533,0.4992 -1.443056,0.748801 -2.602569,0.748801 -0.389331,0 -0.740571,-0.02826 -1.053723,-0.08477 -0.313157,-0.04709 -0.592456,-0.108318 -0.8379,-0.183669 -0.236984,-0.07535 -0.444343,-0.155411 -0.622078,-0.240181 -0.169273,-0.08477 -0.313155,-0.164831 -0.431645,-0.240182 l 0.5586,-1.751911 c 0.262371,0.160123 0.583989,0.306115 0.964855,0.437978 0.389325,0.122447 0.863288,0.183669 1.421891,0.183667" />
    </g>
  </g>
</svg>
