<?xml version="1.0" encoding="UTF-8" standalone="no"?>
<!-- Created with Inkscape (http://www.inkscape.org/) -->

<svg
   xmlns:dc="http://purl.org/dc/elements/1.1/"
   xmlns:cc="http://creativecommons.org/ns#"
   xmlns:rdf="http://www.w3.org/1999/02/22-rdf-syntax-ns#"
   xmlns:svg="http://www.w3.org/2000/svg"
   xmlns="http://www.w3.org/2000/svg"
   xmlns:sodipodi="http://sodipodi.sourceforge.net/DTD/sodipodi-0.dtd"
   xmlns:inkscape="http://www.inkscape.org/namespaces/inkscape"
   width="48px"
   height="48px"
   id="svg3765"
   version="1.1"
   inkscape:version="0.48.3.1 r9886"
   sodipodi:docname="skos.svg"
   inkscape:export-filename="/home/k00ni/Documents/semicon/owl.png"
   inkscape:export-xdpi="90"
   inkscape:export-ydpi="90">
  <defs
     id="defs3767" />
  <sodipodi:namedview
     id="base"
     pagecolor="#ffffff"
     bordercolor="#666666"
     borderopacity="1.0"
     inkscape:pageopacity="0.0"
     inkscape:pageshadow="2"
     inkscape:zoom="9.8994949"
     inkscape:cx="6.9646471"
     inkscape:cy="19.582283"
     inkscape:current-layer="layer1"
     showgrid="true"
     inkscape:grid-bbox="true"
     inkscape:document-units="px"
     inkscape:window-width="1366"
     inkscape:window-height="744"
     inkscape:window-x="0"
     inkscape:window-y="24"
     inkscape:window-maximized="1" />
  <metadata
     id="metadata3770">
    <rdf:RDF>
      <cc:Work
         rdf:about="">
        <dc:format>image/svg+xml</dc:format>
        <dc:type
           rdf:resource="http://purl.org/dc/dcmitype/StillImage" />
        <dc:title />
      </cc:Work>
    </rdf:RDF>
  </metadata>
  <g
     id="layer1"
     inkscape:label="Layer 1"
     inkscape:groupmode="layer">
    <path
       sodipodi:type="arc"
       style="fill:#2d2d2d;fill-opacity:1;stroke:none"
       id="path3773"
       sodipodi:cx="29.285715"
       sodipodi:cy="24.428572"
       sodipodi:rx="23.714285"
       sodipodi:ry="23.714285"
       d="m 53,24.428572 a 23.714285,23.714285 0 1 1 -47.4285698,0 23.714285,23.714285 0 1 1 47.4285698,0 z"
       transform="matrix(0.99063909,0,0,0.99063908,-4.7003607,-0.15063258)" />
    <path
       inkscape:connector-curvature="0"
       id="path2986"
       style="font-size:14.98204803px;font-style:normal;font-variant:normal;font-weight:bold;font-stretch:normal;line-height:125%;letter-spacing:0px;word-spacing:0px;fill:#ffffff;fill-opacity:1;stroke:none;font-family:Ubuntu;-inkscape-font-specification:Ubuntu Bold"
       d="m 8.9561746,27.635616 c 0.3124404,2e-6 0.5680764,-0.02634 0.7669094,-0.07902 0.208291,-0.06322 0.373982,-0.142242 0.49707,-0.237074 0.123079,-0.105366 0.208292,-0.226534 0.255637,-0.363513 0.04734,-0.136973 0.07101,-0.289754 0.07101,-0.458342 -6e-6,-0.358242 -0.151494,-0.653267 -0.454465,-0.885076 C 9.789354,25.370249 9.268614,25.112103 8.5301132,24.838147 8.2081976,24.711712 7.8862855,24.569468 7.5643757,24.411414 7.2424611,24.242833 6.953687,24.03737 6.6980523,23.795022 6.4424156,23.54215 6.2341195,23.241856 6.0731643,22.894142 5.9122074,22.535905 5.8317293,22.103904 5.83173,21.598139 5.8317293,21.09239 5.916942,20.639317 6.0873664,20.238916 6.2577896,19.827998 6.4992236,19.48029 6.8116695,19.195792 7.124112,18.911314 7.5028322,18.695313 7.9478313,18.54779 8.3928246,18.389752 8.8946289,18.310728 9.453246,18.310716 c 0.662756,1.2e-5 1.23557,0.07904 1.718444,0.237074 0.482862,0.15806 0.880518,0.331914 1.19297,0.521562 l -0.639091,1.944005 c -0.274579,-0.158041 -0.582289,-0.295016 -0.923132,-0.410928 -0.331385,-0.12643 -0.733775,-0.18965 -1.207172,-0.189659 -0.5302124,9e-6 -0.9136657,0.0843 -1.1503629,0.252878 -0.2272356,0.158059 -0.3408516,0.405668 -0.3408486,0.742831 -3e-6,0.200205 0.042603,0.36879 0.1278182,0.505758 0.085209,0.136984 0.203559,0.263423 0.3550505,0.379318 0.160953,0.105376 0.3408447,0.20547 0.5396771,0.300293 0.2082917,0.0843 0.4355247,0.173861 0.6816967,0.268684 0.511267,0.210739 0.956264,0.421471 1.334991,0.632197 0.378713,0.200201 0.691158,0.437274 0.937333,0.711221 0.255629,0.273957 0.444988,0.595323 0.568081,0.9641 0.123076,0.368785 0.184618,0.816591 0.184625,1.343418 -7e-6,1.022053 -0.32192,1.817567 -0.965737,2.386542 -0.643831,0.55844 -1.614301,0.837661 -2.9114144,0.837661 -0.4355319,0 -0.8284541,-0.03161 -1.1787676,-0.09483 C 7.4270882,29.590158 7.114644,29.52167 6.8400735,29.437377 6.5749677,29.353085 6.3430016,29.263524 6.1441745,29.168693 5.9548134,29.073864 5.7938573,28.984303 5.6613057,28.90001 l 0.624889,-1.95981 c 0.293507,0.179125 0.6532912,0.342442 1.0793537,0.489953 0.435526,0.136978 0.9657342,0.205465 1.5906262,0.205463" />
    <path
       inkscape:connector-curvature="0"
       id="path2988"
       style="font-size:14.98204803px;font-style:normal;font-variant:normal;font-weight:bold;font-stretch:normal;line-height:125%;letter-spacing:0px;word-spacing:0px;fill:#ffffff;fill-opacity:1;stroke:none;font-family:Ubuntu;-inkscape-font-specification:Ubuntu Bold"
       d="m 20.548671,29.516402 c -0.198835,-0.358245 -0.435535,-0.74283 -0.710101,-1.153759 -0.265111,-0.421463 -0.558618,-0.837659 -0.880525,-1.248588 -0.31245,-0.421462 -0.639095,-0.821853 -0.97994,-1.201174 -0.340852,-0.389851 -0.681701,-0.73229 -1.022545,-1.02732 l 0,4.630841 -2.215516,0 0,-10.952807 2.215516,0 0,4.140887 c 0.577545,-0.674335 1.155093,-1.375019 1.732647,-2.102053 0.587011,-0.737553 1.131421,-1.417163 1.633232,-2.038834 l 2.627374,0 c -0.672238,0.885085 -1.3492,1.73855 -2.030889,2.560397 -0.672236,0.821862 -1.382337,1.648986 -2.130304,2.481371 0.785839,0.727031 1.54328,1.591033 2.272324,2.592006 0.738497,1.00098 1.443863,2.107324 2.116101,3.319033 l -2.627374,0" />
    <path
       inkscape:connector-curvature="0"
       id="path2990"
       style="font-size:14.98204803px;font-style:normal;font-variant:normal;font-weight:bold;font-stretch:normal;line-height:125%;letter-spacing:0px;word-spacing:0px;fill:#ffffff;fill-opacity:1;stroke:none;font-family:Ubuntu;-inkscape-font-specification:Ubuntu Bold"
       d="m 26.845446,24.032095 c -3e-6,0.537373 0.0568,1.022057 0.170425,1.454053 0.12308,0.432005 0.293504,0.806054 0.511272,1.122149 0.227229,0.305565 0.501801,0.542638 0.823717,0.711221 0.321908,0.168588 0.69116,0.252881 1.107758,0.252879 0.407119,2e-6 0.771637,-0.08429 1.093555,-0.252879 0.331374,-0.168583 0.605947,-0.405656 0.823718,-0.711221 0.227225,-0.316095 0.397649,-0.690144 0.511273,-1.122149 0.123076,-0.431996 0.184618,-0.91668 0.184626,-1.454053 -8e-6,-0.53736 -0.06155,-1.022043 -0.184626,-1.454052 -0.113624,-0.442529 -0.284048,-0.816579 -0.511273,-1.122148 -0.217771,-0.31609 -0.492344,-0.558432 -0.823718,-0.727027 -0.321918,-0.168577 -0.686436,-0.252869 -1.093555,-0.252878 -0.416598,9e-6 -0.78585,0.08957 -1.107758,0.268683 -0.321916,0.168595 -0.596488,0.410937 -0.823717,0.727027 -0.217768,0.305569 -0.388192,0.679618 -0.511272,1.122148 -0.11362,0.432008 -0.170428,0.911424 -0.170425,1.438247 m 7.512869,0 c -10e-6,0.937764 -0.127828,1.764886 -0.383454,2.481373 -0.246178,0.705955 -0.587026,1.301273 -1.022545,1.785955 -0.435538,0.474149 -0.956278,0.832392 -1.562223,1.074735 -0.596492,0.242341 -1.240317,0.363513 -1.931475,0.363513 -0.672234,0 -1.30659,-0.121172 -1.903071,-0.363513 -0.596488,-0.242343 -1.117228,-0.600586 -1.562222,-1.074735 -0.444998,-0.484682 -0.795315,-1.08 -1.05095,-1.785955 -0.255637,-0.716487 -0.383456,-1.543609 -0.383455,-2.481373 -1e-6,-0.937751 0.132552,-1.759606 0.397658,-2.465566 0.265102,-0.716481 0.620153,-1.317067 1.065151,-1.801761 0.454462,-0.484673 0.975202,-0.848186 1.562222,-1.090539 0.596481,-0.242331 1.221369,-0.363501 1.874667,-0.363513 0.672222,1.2e-5 1.306579,0.121182 1.903071,0.363513 0.596477,0.242353 1.117217,0.605866 1.562222,1.090539 0.444988,0.484694 0.795304,1.08528 1.05095,1.801761 0.255626,0.70596 0.383444,1.527815 0.383454,2.465566" />
    <path
       inkscape:connector-curvature="0"
       id="path2992"
       style="font-size:14.98204803px;font-style:normal;font-variant:normal;font-weight:bold;font-stretch:normal;line-height:125%;letter-spacing:0px;word-spacing:0px;fill:#ffffff;fill-opacity:1;stroke:none;font-family:Ubuntu;-inkscape-font-specification:Ubuntu Bold"
       d="m 39.077477,27.635616 c 0.312441,2e-6 0.568077,-0.02634 0.76691,-0.07902 0.208291,-0.06322 0.373981,-0.142242 0.497071,-0.237074 0.123078,-0.105366 0.208291,-0.226534 0.255635,-0.363513 0.04733,-0.136973 0.07101,-0.289754 0.07101,-0.458342 -5e-6,-0.358242 -0.151493,-0.653267 -0.454465,-0.885076 -0.302981,-0.242338 -0.823721,-0.500484 -1.562222,-0.77444 -0.321916,-0.126435 -0.643828,-0.268679 -0.965737,-0.426733 -0.321916,-0.168581 -0.610689,-0.374044 -0.866324,-0.616392 -0.255638,-0.252872 -0.463934,-0.553166 -0.624889,-0.90088 -0.160957,-0.358237 -0.241435,-0.790238 -0.241434,-1.296003 -10e-7,-0.505749 0.08521,-0.958822 0.255636,-1.359223 0.170423,-0.410918 0.411858,-0.758626 0.724303,-1.043124 0.312443,-0.284478 0.691163,-0.500479 1.136162,-0.648002 0.444993,-0.158038 0.946797,-0.237062 1.505414,-0.237074 0.662756,1.2e-5 1.23557,0.07904 1.718445,0.237074 0.482863,0.15806 0.880518,0.331914 1.19297,0.521562 l -0.639091,1.944005 c -0.274579,-0.158041 -0.58229,-0.295016 -0.923132,-0.410928 -0.331385,-0.12643 -0.733776,-0.18965 -1.207172,-0.189659 -0.530213,9e-6 -0.913666,0.0843 -1.150363,0.252878 -0.227235,0.158059 -0.340852,0.405668 -0.340849,0.742831 -3e-6,0.200205 0.0426,0.36879 0.127818,0.505758 0.08521,0.136984 0.203559,0.263423 0.355051,0.379318 0.160953,0.105376 0.340844,0.20547 0.539677,0.300293 0.208292,0.0843 0.435524,0.173861 0.681697,0.268684 0.511267,0.210739 0.956263,0.421471 1.33499,0.632197 0.378714,0.200201 0.691158,0.437274 0.937333,0.711221 0.255629,0.273957 0.44499,0.595323 0.568081,0.9641 0.123077,0.368785 0.184618,0.816591 0.184626,1.343418 -8e-6,1.022053 -0.32192,1.817567 -0.965737,2.386542 -0.643832,0.55844 -1.614302,0.837661 -2.911415,0.837661 -0.435532,0 -0.828454,-0.03161 -1.178768,-0.09483 -0.350318,-0.05268 -0.662762,-0.121172 -0.937333,-0.205465 -0.265105,-0.08429 -0.497072,-0.173853 -0.695899,-0.268683 -0.189361,-0.09483 -0.350317,-0.184391 -0.482869,-0.268684 l 0.624889,-1.95981 c 0.293508,0.179125 0.653292,0.342442 1.079354,0.489953 0.435526,0.136978 0.965734,0.205465 1.590626,0.205463" />
  </g>
</svg>
